<svg id="e71dmqcey7ds1" xmlns="http://www.w3.org/2000/svg" xmlns:xlink="http://www.w3.org/1999/xlink" viewBox="0 0 457 381" shape-rendering="geometricPrecision" text-rendering="geometricPrecision"><style><![CDATA[#e71dmqcey7ds2_tr {animation: e71dmqcey7ds2_tr__tr 6000ms linear infinite normal forwards}@keyframes e71dmqcey7ds2_tr__tr { 0% {transform: translate(433.566867px,360.613159px) rotate(0deg)} 41.666667% {transform: translate(433.566867px,360.613159px) rotate(0deg);animation-timing-function: cubic-bezier(0.420000,0,1,1)} 50% {transform: translate(433.566867px,360.613159px) rotate(7.296056deg)} 58.333333% {transform: translate(433.566867px,360.613159px) rotate(-0.490912deg)} 100% {transform: translate(433.566867px,360.613159px) rotate(-0.490912deg)} }#e71dmqcey7ds10_tr {animation: e71dmqcey7ds10_tr__tr 6000ms linear infinite normal forwards}@keyframes e71dmqcey7ds10_tr__tr { 0% {transform: translate(407.948105px,268.514069px) rotate(0deg)} 66.666667% {transform: translate(407.948105px,268.514069px) rotate(0deg)} 75% {transform: translate(407.948105px,268.514069px) rotate(-19.173409deg)} 83.333333% {transform: translate(407.948105px,268.514069px) rotate(0.768170deg)} 91.666667% {transform: translate(407.948105px,268.514069px) rotate(-17.801480deg)} 100% {transform: translate(407.948105px,268.514069px) rotate(-0.342443deg)} }#e71dmqcey7ds20_tr {animation: e71dmqcey7ds20_tr__tr 6000ms linear infinite normal forwards}@keyframes e71dmqcey7ds20_tr__tr { 0% {transform: translate(237.140529px,276.500000px) rotate(1.403080deg)} 41.666667% {transform: translate(237.140529px,276.500000px) rotate(1.403080deg)} 48.333333% {transform: translate(237.140529px,276.500000px) rotate(57.448574deg)} 60% {transform: translate(237.140529px,276.500000px) rotate(1.502033deg)} 100% {transform: translate(237.140529px,276.500000px) rotate(1.502033deg)} }#e71dmqcey7ds21 {animation: e71dmqcey7ds21__m 6000ms linear infinite normal forwards}@keyframes e71dmqcey7ds21__m { 0% {d: path('M196.700000,278.600000C202.800000,288.400000,209.100000,298.900000,208.900000,310.400000C208.800000,316.800000,206.500000,323.100000,203.200000,328.500000C200.900000,332.300000,198,335.900000,196.900000,340.200000C195.800000,344.500000,197.200000,349.900000,201.300000,351.600000C203.800000,352.600000,206.800000,352,209.100000,350.600000C211.400000,349.200000,213.300000,347.100000,215,345.100000C236.700000,319.700000,252.600000,289.400000,261.300000,257.200000C262.200000,254,261.500000,250.800000,260.800000,247.600000C259.400000,241,255.200000,237.800000,248.400000,237.400000C238.300000,236.900000,228.900000,242.200000,220.600000,248C213.600000,252.900000,206.700000,258.400000,201.700000,265.300000C200.100000,267.600000,198.600000,270,197.900000,272.700000C197.300000,275.400000,197.500000,278.400000,199.100000,280.700000L196.700000,278.600000Z')} 35% {d: path('M196.700000,278.600000C202.800000,288.400000,209.100000,298.900000,208.900000,310.400000C208.800000,316.800000,206.500000,323.100000,203.200000,328.500000C200.900000,332.300000,198,335.900000,196.900000,340.200000C195.800000,344.500000,197.200000,349.900000,201.300000,351.600000C203.800000,352.600000,206.800000,352,209.100000,350.600000C211.400000,349.200000,213.300000,347.100000,215,345.100000C236.700000,319.700000,252.600000,289.400000,261.300000,257.200000C262.200000,254,261.500000,250.800000,260.800000,247.600000C259.400000,241,255.200000,237.800000,248.400000,237.400000C238.300000,236.900000,228.900000,242.200000,220.600000,248C213.600000,252.900000,206.700000,258.400000,201.700000,265.300000C200.100000,267.600000,198.600000,270,197.900000,272.700000C197.300000,275.400000,197.500000,278.400000,199.100000,280.700000L196.700000,278.600000Z')} 36.666667% {d: path('M196.700000,278.600000C202.800000,288.400000,209.100000,298.900000,208.900000,310.400000C208.800000,316.800000,206.500000,323.100000,203.200000,328.500000C200.900000,332.300000,198,335.900000,196.900000,340.200000C195.800000,344.500000,197.200000,349.900000,201.300000,351.600000C203.800000,352.600000,206.800000,352,209.100000,350.600000C211.400000,349.200000,213.300000,347.100000,215,345.100000C236.700000,319.700000,252.600000,289.400000,261.300000,257.200000C262.200000,254,261.500000,250.800000,260.800000,247.600000C259.400000,241,253.822208,234.238866,247.022208,233.838866C236.922208,233.338866,227.100102,239.099440,218.800102,244.899440C211.800102,249.799440,206.700000,258.400000,201.700000,265.300000C200.100000,267.600000,198.600000,270,197.900000,272.700000C197.300000,275.400000,197.500000,278.400000,199.100000,280.700000L196.700000,278.600000Z')} 38.333333% {d: path('M196.700000,278.600000C202.800000,288.400000,209.100000,298.900000,208.900000,310.400000C208.800000,316.800000,206.500000,323.100000,203.200000,328.500000C200.900000,332.300000,198,335.900000,196.900000,340.200000C195.800000,344.500000,197.200000,349.900000,201.300000,351.600000C203.800000,352.600000,206.800000,352,209.100000,350.600000C211.400000,349.200000,213.300000,347.100000,215,345.100000C236.700000,319.700000,252.600000,289.400000,261.300000,257.200000C262.200000,254,261.500000,250.800000,260.800000,247.600000C259.400000,241,250.828323,231.123649,244.028323,230.723649C233.928323,230.223649,225.300204,235.998879,217.000204,241.798879C210.000204,246.698879,206.700000,258.400000,201.700000,265.300000C200.100000,267.600000,198.600000,270,197.900000,272.700000C197.300000,275.400000,197.500000,278.400000,199.100000,280.700000L196.700000,278.600000Z')} 40% {d: path('M196.700000,278.600000C202.800000,288.400000,209.100000,298.900000,208.900000,310.400000C208.800000,316.800000,206.500000,323.100000,203.200000,328.500000C200.900000,332.300000,198,335.900000,196.900000,340.200000C195.800000,344.500000,197.200000,349.900000,201.300000,351.600000C203.800000,352.600000,206.800000,352,209.100000,350.600000C211.400000,349.200000,213.300000,347.100000,215,345.100000C236.700000,319.700000,252.600000,289.400000,261.300000,257.200000C262.200000,254,261.500000,250.800000,260.800000,247.600000C259.400000,241,255.200000,237.800000,248.400000,237.400000C238.300000,236.900000,223.500306,232.898319,215.200306,238.698319C208.200306,243.598319,206.700000,258.400000,201.700000,265.300000C200.100000,267.600000,198.600000,270,197.900000,272.700000C197.300000,275.400000,197.317416,274.634395,197.340607,276.705167L196.700000,278.600000Z')} 41.666667% {d: path('M196.700000,278.600000C202.800000,288.400000,209.100000,298.900000,208.900000,310.400000C208.800000,316.800000,206.500000,323.100000,203.200000,328.500000C200.900000,332.300000,198,335.900000,196.900000,340.200000C195.800000,344.500000,197.200000,349.900000,201.300000,351.600000C203.800000,352.600000,206.800000,352,209.100000,350.600000C211.400000,349.200000,213.300000,347.100000,215,345.100000C242.666658,321.161669,257.676779,292.225725,261.300000,257.200000C262.200000,254,261.500000,250.800000,260.800000,247.600000C259.400000,241,255.028036,237.265483,248.228036,236.865483C238.128036,236.365483,223.500306,232.898319,215.200306,238.698319C208.200306,243.598319,206.700000,258.400000,201.700000,265.300000C200.100000,267.600000,198.600000,270,197.900000,272.700000C197.300000,275.400000,197.335675,275.010956,197.516546,277.104650L196.700000,278.600000Z')} 56.666667% {d: path('M196.700000,278.600000C202.800000,288.400000,209.100000,298.900000,208.900000,310.400000C208.800000,316.800000,206.500000,323.100000,203.200000,328.500000C200.900000,332.300000,198,335.900000,196.900000,340.200000C195.800000,344.500000,197.200000,349.900000,201.300000,351.600000C203.800000,352.600000,206.800000,352,209.100000,350.600000C211.400000,349.200000,213.300000,347.100000,215,345.100000C235.190410,323.701576,260.002391,305.050573,261.300000,257.200000C262.200000,254,261.500000,250.800000,260.800000,247.600000C259.400000,241,253.480356,232.454833,246.680356,232.054833C236.580356,231.554833,223.500306,232.898319,215.200306,238.698319C208.200306,243.598319,206.700000,258.400000,201.700000,265.300000C200.100000,267.600000,198.600000,270,197.900000,272.700000C197.300000,275.400000,197.500000,278.400000,199.100000,280.700000L196.700000,278.600000Z')} 100% {d: path('M196.700000,278.600000C202.800000,288.400000,209.100000,298.900000,208.900000,310.400000C208.800000,316.800000,206.500000,323.100000,203.200000,328.500000C200.900000,332.300000,198,335.900000,196.900000,340.200000C195.800000,344.500000,197.200000,349.900000,201.300000,351.600000C203.800000,352.600000,206.800000,352,209.100000,350.600000C211.400000,349.200000,213.300000,347.100000,215,345.100000C235.190410,323.701576,260.002391,305.050573,261.300000,257.200000C262.200000,254,261.500000,250.800000,260.800000,247.600000C259.400000,241,253.480356,232.454833,246.680356,232.054833C236.580356,231.554833,223.500306,232.898319,215.200306,238.698319C208.200306,243.598319,206.700000,258.400000,201.700000,265.300000C200.100000,267.600000,198.600000,270,197.900000,272.700000C197.300000,275.400000,197.500000,278.400000,199.100000,280.700000L196.700000,278.600000Z')} }#e71dmqcey7ds25_tr {animation: e71dmqcey7ds25_tr__tr 6000ms linear infinite normal forwards}@keyframes e71dmqcey7ds25_tr__tr { 0% {transform: translate(249.200630px,243.355209px) rotate(0deg)} 15% {transform: translate(249.200630px,243.355209px) rotate(0deg);animation-timing-function: cubic-bezier(0.420000,0,0.580000,1)} 25% {transform: translate(249.200630px,243.355209px) rotate(18.690221deg);animation-timing-function: cubic-bezier(0.420000,0,0.580000,1)} 35% {transform: translate(249.200630px,243.355209px) rotate(-15.950171deg)} 50% {transform: translate(249.200630px,243.355209px) rotate(-1.638879deg)} 65% {transform: translate(249.200630px,243.355209px) rotate(14.250787deg)} 83.333333% {transform: translate(249.200630px,243.355209px) rotate(-1.118145deg)} 100% {transform: translate(249.200630px,243.355209px) rotate(-1.118145deg)} }#e71dmqcey7ds38_to {animation: e71dmqcey7ds38_to__to 6000ms linear infinite normal forwards}@keyframes e71dmqcey7ds38_to__to { 0% {offset-distance: 0%} 16.666667% {offset-distance: 14.285714%} 33.333333% {offset-distance: 28.571429%} 48.333333% {offset-distance: 42.857143%} 50% {offset-distance: 57.142857%} 66.666667% {offset-distance: 71.428571%} 83.333333% {offset-distance: 85.714286%} 100% {offset-distance: 100%} }#e71dmqcey7ds38_tr {animation: e71dmqcey7ds38_tr__tr 6000ms linear infinite normal forwards}@keyframes e71dmqcey7ds38_tr__tr { 0% {transform: rotate(61.905763deg)} 16.666667% {transform: rotate(71.441677deg)} 33.333333% {transform: rotate(42.185410deg)} 48.333333% {transform: rotate(-17.206733deg)} 50% {transform: rotate(-4.707822deg)} 66.666667% {transform: rotate(-34.990097deg)} 100% {transform: rotate(-68.296973deg)} }#e71dmqcey7ds40_ts {animation: e71dmqcey7ds40_ts__ts 6000ms linear infinite normal forwards}@keyframes e71dmqcey7ds40_ts__ts { 0% {transform: translate(43.400002px,127.523060px) scale(1,1)} 8.333333% {transform: translate(43.400002px,127.523060px) scale(0.500000,1)} 16.666667% {transform: translate(43.400002px,127.523060px) scale(1,1)} 25% {transform: translate(43.400002px,127.523060px) scale(0.500000,1)} 33.333333% {transform: translate(43.400002px,127.523060px) scale(1,1)} 41.666667% {transform: translate(43.400002px,127.523060px) scale(0.500000,1)} 50% {transform: translate(43.400002px,127.523060px) scale(1,1)} 58.333333% {transform: translate(43.400002px,127.523060px) scale(0.500000,1)} 66.666667% {transform: translate(43.400002px,127.523060px) scale(1,1)} 75% {transform: translate(43.400002px,127.523060px) scale(0.500000,1)} 83.333333% {transform: translate(43.400002px,127.523060px) scale(1,1)} 91.666667% {transform: translate(43.400002px,127.523060px) scale(0.500000,1)} 100% {transform: translate(43.400002px,127.523060px) scale(1,1)} }#e71dmqcey7ds41_ts {animation: e71dmqcey7ds41_ts__ts 6000ms linear infinite normal forwards}@keyframes e71dmqcey7ds41_ts__ts { 0% {transform: translate(44.500000px,123.513881px) scale(1,1)} 8.333333% {transform: translate(44.500000px,123.513881px) scale(0.500000,1)} 16.666667% {transform: translate(44.500000px,123.513881px) scale(1,1)} 25% {transform: translate(44.500000px,123.513881px) scale(0.500000,1)} 33.333333% {transform: translate(44.500000px,123.513881px) scale(1,1)} 41.666667% {transform: translate(44.500000px,123.513881px) scale(0.500000,1)} 50% {transform: translate(44.500000px,123.513881px) scale(1,1)} 58.333333% {transform: translate(44.500000px,123.513881px) scale(0.500000,1)} 66.666667% {transform: translate(44.500000px,123.513881px) scale(1,1)} 75% {transform: translate(44.500000px,123.513881px) scale(0.500000,1)} 83.333333% {transform: translate(44.500000px,123.513881px) scale(1,1)} 91.666667% {transform: translate(44.500000px,123.513881px) scale(0.500000,1)} 100% {transform: translate(44.500000px,123.513881px) scale(1,1)} }#e71dmqcey7ds42_to {animation: e71dmqcey7ds42_to__to 6000ms linear infinite normal forwards}@keyframes e71dmqcey7ds42_to__to { 0% {offset-distance: 0%} 16.666667% {offset-distance: 25%} 33.333333% {offset-distance: 50%} 50% {offset-distance: 75%} 66.666667% {offset-distance: 100%} 100% {offset-distance: 100%} }#e71dmqcey7ds42_tr {animation: e71dmqcey7ds42_tr__tr 6000ms linear infinite normal forwards}@keyframes e71dmqcey7ds42_tr__tr { 0% {transform: rotate(73.459028deg)} 1.666667% {transform: rotate(90.629407deg)} 16.666667% {transform: rotate(15.755347deg)} 33.333333% {transform: rotate(57.848403deg)} 50% {transform: rotate(-26.525294deg)} 100% {transform: rotate(-26.525294deg)} }#e71dmqcey7ds44_ts {animation: e71dmqcey7ds44_ts__ts 6000ms linear infinite normal forwards}@keyframes e71dmqcey7ds44_ts__ts { 0% {transform: translate(141.058136px,35.714211px) scale(1,1)} 8.333333% {transform: translate(141.058136px,35.714211px) scale(0.500000,1)} 16.666667% {transform: translate(141.058136px,35.714211px) scale(1,1)} 25% {transform: translate(141.058136px,35.714211px) scale(0.500000,1)} 33.333333% {transform: translate(141.058136px,35.714211px) scale(1,1)} 41.666667% {transform: translate(141.058136px,35.714211px) scale(0.500000,1)} 50% {transform: translate(141.058136px,35.714211px) scale(1,1)} 58.333333% {transform: translate(141.058136px,35.714211px) scale(0.500000,1)} 100% {transform: translate(141.058136px,35.714211px) scale(0.500000,1)} }#e71dmqcey7ds45_ts {animation: e71dmqcey7ds45_ts__ts 6000ms linear infinite normal forwards}@keyframes e71dmqcey7ds45_ts__ts { 0% {transform: translate(143.957059px,32.726838px) scale(1,1)} 8.333333% {transform: translate(143.957059px,32.726838px) scale(0.500000,1)} 16.666667% {transform: translate(143.957059px,32.726838px) scale(1,1)} 25% {transform: translate(143.957059px,32.726838px) scale(0.500000,1)} 33.333333% {transform: translate(143.957059px,32.726838px) scale(1,1)} 41.666667% {transform: translate(143.957059px,32.726838px) scale(0.500000,1)} 50% {transform: translate(143.957059px,32.726838px) scale(1,1)} 58.333333% {transform: translate(143.957059px,32.726838px) scale(0.500000,1)} 100% {transform: translate(143.957059px,32.726838px) scale(0.500000,1)} }]]></style><g id="e71dmqcey7ds2_tr" transform="translate(433.566867,360.613159) rotate(0)"><g id="e71dmqcey7ds2" transform="translate(-441.300000,-360.613159)"><g id="e71dmqcey7ds3"><path id="e71dmqcey7ds4" d="M387.700000,263.700000C385.500000,266.100000,383.600000,268.700000,382.200000,271.600000C378.800000,279.100000,379.700000,288.100000,383.500000,295.500000C387.300000,302.900000,393.700000,308.500000,400.900000,312.600000C404.100000,314.400000,407.500000,315.900000,410.600000,318C415.800000,321.400000,420.100000,326.300000,422.700000,332C423.500000,333.700000,424.200000,335.500000,425.800000,336.500000C428.100000,338,431.500000,336.800000,433.200000,334.600000C434.900000,332.400000,435.400000,329.500000,435.600000,326.700000C436.600000,313.600000,433.700000,300.600000,433.400000,287.500000C433.300000,285,433.400000,282.400000,432.800000,279.900000C432.300000,277.600000,431.200000,275.500000,430.200000,273.400000C427.500000,268,424.500000,262.500000,419.400000,259.300000C409.500000,253.300000,395.300000,255.600000,387.700000,263.700000Z" fill="rgb(249,192,65)" stroke="none" stroke-width="1"/><path id="e71dmqcey7ds5" d="M418.900000,325.700000C417.400000,323.600000,415.300000,322.100000,413.300000,320.500000C414.100000,320.700000,414.900000,320.800000,415.700000,320.800000C415.600000,320.500000,415.500000,320.100000,415.300000,319.800000C415.700000,320.300000,416.600000,320.100000,417,319.700000C417.500000,319.300000,417.700000,318.600000,417.900000,318C418.600000,315.300000,418.300000,312.500000,417.200000,309.900000C418.400000,310.800000,419.400000,311.900000,420.100000,313.200000C420.400000,312.500000,420.600000,311.800000,420.700000,311C420.600000,311.600000,421.300000,312.100000,421.800000,311.900000C422.300000,311.700000,422.600000,311,422.400000,310.400000C423.300000,310.400000,424,311.500000,424.900000,311.500000C425.600000,311.500000,426.200000,310.900000,426.600000,310.400000C428.200000,308.100000,429.100000,305.300000,429,302.500000C429.300000,303.300000,429.700000,304.100000,430,304.900000C430.100000,305.200000,430.300000,305.500000,430.600000,305.500000C430.900000,305.500000,431.100000,305.100000,431.200000,304.800000C432.300000,301.100000,433.100000,297.300000,433.500000,293.400000C434.400000,305.800000,438.900000,317.800000,441.300000,331.800000C441.600000,333.600000,423.800000,342.800000,424.400000,338.500000C425.100000,334.100000,420.100000,327.400000,418.900000,325.700000Z" fill="rgb(244,231,208)" stroke="none" stroke-width="1"/><g id="e71dmqcey7ds6"><path id="e71dmqcey7ds7" d="M424.800000,337.600000C424.400000,339.300000,423.800000,340.900000,423.700000,342.600000C423.600000,344.700000,424.500000,346.900000,426.100000,348.300000C426.800000,348.900000,427.600000,349.500000,428.600000,349.600000C429.500000,349.700000,430.600000,349.300000,431,348.500000C431.200000,349,431.800000,349.300000,432.300000,349.100000C435.800000,347.700000,439.500000,340.800000,440.800000,338.600000C442,336.400000,442.100000,334.100000,441.600000,331.700000C441.300000,330.500000,440.700000,329.400000,440.100000,328.400000C438.800000,326.100000,437.400000,324,435.800000,321.900000C434.500000,320.200000,432.800000,318.300000,430.700000,318.300000C429.800000,318.300000,428.900000,318.600000,428.200000,319C425.700000,320.300000,423.700000,322.600000,422.800000,325.200000C421.900000,327.700000,422.900000,329.400000,424.300000,331.400000C425.400000,333.400000,425.300000,335.600000,424.800000,337.600000Z" fill="rgb(244,231,208)" stroke="none" stroke-width="1"/><path id="e71dmqcey7ds8" d="M429.400000,340.600000C429,343.400000,429.500000,346.300000,430.900000,348.700000C431,348.900000,430.200000,349.400000,430,349.400000C429.600000,349.400000,429.500000,348.900000,429.300000,348.600000C428.900000,347.800000,428.700000,346.900000,428.600000,346C428.300000,344.200000,428.600000,342.300000,429.400000,340.600000Z" fill="rgb(244,231,208)" stroke="none" stroke-width="1"/></g></g><path id="e71dmqcey7ds9" d="M193.600000,262.200000C194.200000,271.800000,197.700000,281.100000,203.400000,288.400000C211.900000,299.200000,224.600000,305.100000,237.400000,307.800000C250.200000,310.500000,263.400000,310.400000,276.500000,311.300000C312.600000,313.800000,348.700000,324,384.600000,318.100000C391.500000,317,399.200000,314.600000,402.700000,308C404.200000,305.200000,404.800000,301.900000,405.200000,298.700000C406.100000,292,406.600000,285.200000,406.600000,278.400000C406.700000,269.400000,405.700000,259.800000,400.500000,253C397.100000,248.600000,392.300000,245.800000,387.400000,243.700000C372.300000,237.200000,355.600000,236.500000,339.300000,235.900000C325.400000,235.400000,311.500000,234.800000,297.700000,234.300000C288.500000,234,279.300000,233.600000,270.200000,231.900000C265,230.900000,259.700000,229.400000,255.600000,225.900000C252.800000,223.500000,250.800000,220.300000,248.200000,217.600000C240.900000,210,230.200000,208,220.200000,206.500000C213.100000,205.500000,205.500000,204.600000,198.900000,207.800000C190.100000,212.100000,188.200000,221.500000,191.200000,230.300000C194.900000,240.800000,192.900000,251.300000,193.600000,262.200000Z" fill="rgb(249,192,65)" stroke="none" stroke-width="1"/><g id="e71dmqcey7ds10_tr" transform="translate(407.948105,268.514069) rotate(0)"><path id="e71dmqcey7ds10" d="M410.200000,212.200000C409.700000,208,407.500000,203.800000,403.800000,201.600000C400,199.300000,394.700000,199,392.500000,195.200000C405.500000,191.700000,419.900000,200.100000,425.700000,212.300000C431.600000,224.500000,430,239.200000,424.400000,251.500000C420.600000,259.900000,413.600000,268.100000,404.500000,268.500000C393.300000,269.100000,376.800000,251,388.800000,241.700000C393.200000,238.300000,398.500000,238.800000,402.700000,234.300000C407.700000,228.700000,411.100000,219.900000,410.200000,212.200000Z" transform="translate(-407.948105,-268.514069)" fill="rgb(249,192,65)" stroke="none" stroke-width="1"/></g><g id="e71dmqcey7ds11"><path id="e71dmqcey7ds12" d="M392.800000,264.800000C389.700000,265.500000,386.600000,266.600000,383.900000,268.300000C376.900000,272.600000,370.900000,272.600000,370,280.800000C369.100000,289,372.900000,305.300000,376.600000,312.700000C378.300000,316,380.200000,319.200000,381.700000,322.600000C384.100000,328.400000,384.900000,334.800000,383.900000,341C383.600000,342.800000,383.200000,344.800000,383.900000,346.400000C385,349,388.400000,349.800000,391.100000,349C393.700000,348.100000,395.700000,346,397.500000,343.800000C405.700000,333.500000,410.500000,321,417.500000,310C418.900000,307.800000,420.300000,305.700000,421.200000,303.300000C422,301.100000,422.400000,298.700000,422.700000,296.400000C423.500000,290.400000,424,284.100000,421.500000,278.700000C416.700000,268.300000,403.600000,262.200000,392.800000,264.800000Z" fill="rgb(249,192,65)" stroke="none" stroke-width="1"/><path id="e71dmqcey7ds13" d="M384.100000,333.500000C384.100000,330.900000,383.100000,328.500000,382.400000,326C383,326.600000,383.600000,327.100000,384.200000,327.600000C384.300000,327.300000,384.400000,326.900000,384.400000,326.600000C384.500000,327.200000,385.300000,327.600000,385.900000,327.500000C386.500000,327.400000,387.100000,327,387.600000,326.600000C389.600000,324.800000,391,322.200000,391.500000,319.500000C392,320.900000,392.200000,322.400000,392.100000,323.900000C392.700000,323.500000,393.300000,323,393.800000,322.400000C393.400000,322.800000,393.700000,323.600000,394.300000,323.700000C394.900000,323.800000,395.500000,323.400000,395.600000,322.800000C396.400000,323.300000,396.300000,324.600000,397,325.100000C397.600000,325.500000,398.400000,325.300000,399,325.100000C401.600000,324.100000,403.900000,322.300000,405.400000,319.900000C405.200000,320.700000,405.100000,321.600000,404.900000,322.400000C404.800000,322.700000,404.800000,323.100000,405.100000,323.200000C405.400000,323.400000,405.700000,323.200000,406,323C409,320.600000,411.800000,317.800000,414.300000,314.900000C408.100000,325.600000,405.200000,338.100000,399.400000,351.100000C398.600000,352.800000,378.800000,350.400000,381.600000,347.200000C384.600000,344,384.200000,335.600000,384.100000,333.500000Z" fill="rgb(244,231,208)" stroke="none" stroke-width="1"/><path id="e71dmqcey7ds14" d="M382.300000,346.700000C381,347.800000,379.600000,348.900000,378.600000,350.300000C377.400000,352,376.900000,354.300000,377.400000,356.400000C377.600000,357.300000,378,358.200000,378.700000,358.800000C379.400000,359.400000,380.500000,359.700000,381.300000,359.300000C381.200000,359.800000,381.500000,360.400000,382.100000,360.500000C385.800000,361.300000,392.700000,357.700000,394.900000,356.500000C397.100000,355.400000,398.500000,353.500000,399.400000,351.200000C399.800000,350.100000,399.900000,348.800000,400,347.600000C400.200000,345,400.200000,342.400000,400.100000,339.800000C400,337.600000,399.600000,335.200000,397.800000,334C397.100000,333.500000,396.200000,333.300000,395.300000,333.200000C392.500000,332.900000,389.600000,333.700000,387.400000,335.400000C385.300000,337,385.200000,339,385.200000,341.400000C385.200000,343.600000,383.900000,345.300000,382.300000,346.700000Z" fill="rgb(244,231,208)" stroke="none" stroke-width="1"/></g><path id="e71dmqcey7ds15" d="M183.200000,232.800000C186.400000,240.400000,183,249,183.700000,257.200000C184.200000,263,186.900000,268.400000,189.500000,273.600000C193,280.600000,196.500000,287.700000,200.100000,294.700000C200.100000,293.200000,200.200000,291.800000,200.200000,290.300000C202.100000,296.300000,206.410472,293.600000,210.110472,298.700000C211.110472,294.300000,210.800000,298.300000,211.800000,293.900000C211,298,214.699443,291.345413,218.299443,293.645413C223.099443,296.645413,220.720687,292.500000,226.220687,293.900000C222.920687,290.100000,228.500000,301.900000,228.600000,296.900000C229.800000,299.900000,229.630568,287.900000,232.830568,288.500000C232.430568,286.800000,238.100000,295.439372,236.900000,294.139372C242.600000,298.439372,238.800000,291.310241,245.900000,290.910241C237.500000,283.010241,240.100000,285,240.300000,273.500000C241.700000,277.700000,244.600000,281.300000,248.200000,283.700000C244.200000,273.400000,244.800000,261.400000,249.700000,251.500000C249.500000,253.200000,249.300000,254.900000,249.200000,256.500000C252.800000,249.700000,257.500000,244.400000,261.600000,238C243.100000,239.300000,231.100000,242.800000,212.500000,218.200000C210.600000,215.700000,208.100000,213.500000,205.200000,212.200000C202.100000,210.800000,198.600000,211,195.200000,211.300000C191.200000,211.700000,187.200000,212.300000,183.300000,213.100000C180.400000,213.700000,173.900000,214.200000,171.800000,216.500000C169.500000,219,174.700000,222.400000,176.400000,224.100000C179.100000,226.900000,181.700000,229.500000,183.200000,232.800000Z" fill="rgb(244,231,208)" stroke="none" stroke-width="1"/><g id="e71dmqcey7ds16"><path id="e71dmqcey7ds17" d="M242.200000,340.900000C240.400000,341.800000,238.400000,342.400000,236.800000,343.700000C234.800000,345.200000,233.500000,347.600000,233.400000,350.100000C233.300000,351.200000,233.500000,352.400000,234.100000,353.300000C234.700000,354.200000,235.800000,354.900000,236.900000,354.700000C236.600000,355.200000,236.800000,356,237.300000,356.300000C241.200000,358.400000,250.200000,356.700000,253.100000,356.200000C256,355.700000,258.200000,354.100000,259.900000,351.700000C260.800000,350.600000,261.300000,349.200000,261.800000,347.900000C262.900000,345,263.800000,342.100000,264.500000,339.100000C265.100000,336.600000,265.500000,333.700000,263.900000,331.800000C263.200000,331,262.300000,330.400000,261.300000,330C258.300000,328.700000,254.700000,328.600000,251.700000,329.800000C248.700000,330.900000,248,333.100000,247.200000,335.900000C246.600000,338.300000,244.400000,339.900000,242.200000,340.900000Z" fill="rgb(244,231,208)" stroke="none" stroke-width="1"/><path id="e71dmqcey7ds18" d="M227.600000,287.100000C235.900000,294,244.500000,301.400000,247.700000,311.700000C249.400000,317.400000,249.300000,323.600000,248,329.400000C247.100000,333.400000,245.600000,337.400000,245.900000,341.600000C246.200000,345.700000,249,350.100000,253.100000,350.400000C255.600000,350.600000,258.100000,349.200000,259.700000,347.300000C261.400000,345.400000,262.400000,343,263.300000,340.700000C275.100000,311.900000,281.900000,280.900000,280.300000,249.800000C280.100000,246.700000,279.800000,243.500000,278.300000,240.900000C275.100000,235.500000,267.600000,234.100000,261.500000,235.800000C252.400000,238.300000,245.700000,245.800000,240,253.300000C235.200000,259.700000,230.800000,266.500000,228.300000,274.100000C227.500000,276.600000,226.900000,279.200000,227.200000,281.800000C227.400000,284.400000,228.500000,287,230.600000,288.500000L227.600000,287.100000Z" fill="rgb(249,192,65)" stroke="none" stroke-width="1"/><path id="e71dmqcey7ds19" d="M249.300000,314.100000C249.600000,315.400000,250.200000,316.600000,251.200000,317.400000C252.400000,315.400000,253.500000,313.300000,254.400000,311.100000C254.600000,312.600000,255.400000,314.600000,256.900000,314.400000C257.400000,314.300000,257.800000,314,258.200000,313.700000C262,310.700000,265,306.700000,266.900000,302.200000C266.700000,305.100000,266.700000,308,267.100000,310.800000C268.200000,307.700000,269.200000,304.600000,270.300000,301.500000C270.600000,303.400000,270.800000,305.400000,271.100000,307.300000C271.800000,304.500000,272.800000,301.800000,274.300000,299.300000C275.900000,304.500000,274.500000,310,273.100000,315.300000C270.800000,323.900000,268.500000,332.500000,265.200000,340.700000C262.700000,347,255.900000,355.700000,248.200000,350.400000C242.100000,346.200000,246.600000,333.200000,247.800000,327.500000C248.400000,323.500000,250.100000,318.100000,249.300000,314.100000Z" fill="rgb(244,231,208)" stroke="none" stroke-width="1"/></g><g id="e71dmqcey7ds20_tr" transform="translate(237.140529,276.500000) rotate(1.403080)"><g id="e71dmqcey7ds20" transform="translate(-237.140529,-276.500000)"><path id="e71dmqcey7ds21" d="M196.700000,278.600000C202.800000,288.400000,209.100000,298.900000,208.900000,310.400000C208.800000,316.800000,206.500000,323.100000,203.200000,328.500000C200.900000,332.300000,198,335.900000,196.900000,340.200000C195.800000,344.500000,197.200000,349.900000,201.300000,351.600000C203.800000,352.600000,206.800000,352,209.100000,350.600000C211.400000,349.200000,213.300000,347.100000,215,345.100000C236.700000,319.700000,252.600000,289.400000,261.300000,257.200000C262.200000,254,261.500000,250.800000,260.800000,247.600000C259.400000,241,255.200000,237.800000,248.400000,237.400000C238.300000,236.900000,228.900000,242.200000,220.600000,248C213.600000,252.900000,206.700000,258.400000,201.700000,265.300000C200.100000,267.600000,198.600000,270,197.900000,272.700000C197.300000,275.400000,197.500000,278.400000,199.100000,280.700000L196.700000,278.600000Z" fill="rgb(249,192,65)" stroke="none" stroke-width="1"/><path id="e71dmqcey7ds22" d="M194.600000,336.500000C192.600000,336.700000,190.500000,336.600000,188.600000,337.200000C186.200000,337.900000,184.200000,339.700000,183.100000,342C182.600000,343,182.300000,344.100000,182.600000,345.200000C182.800000,346.300000,183.600000,347.300000,184.700000,347.500000C184.200000,347.900000,184.100000,348.700000,184.500000,349.200000C187.400000,352.500000,196.500000,354.200000,199.300000,354.700000C202.200000,355.200000,204.800000,354.500000,207.300000,353C208.500000,352.200000,209.500000,351.200000,210.500000,350.100000C212.500000,347.800000,214.400000,345.400000,216.200000,342.900000C217.700000,340.800000,219.100000,338.300000,218.300000,335.800000C218,334.800000,217.300000,334,216.500000,333.200000C214.100000,330.900000,210.900000,329.600000,207.600000,329.600000C204.400000,329.600000,203,331.300000,201.200000,333.700000C199.600000,335.600000,197,336.300000,194.600000,336.500000Z" fill="rgb(244,231,208)" stroke="none" stroke-width="1"/><path id="e71dmqcey7ds23" d="M210.700000,313.900000C210.500000,315.200000,210.700000,316.500000,211.300000,317.700000C213.100000,316.200000,214.900000,314.600000,216.500000,312.900000C216.200000,314.400000,216.200000,316.500000,217.600000,316.800000C218.100000,316.900000,218.600000,316.800000,219,316.600000C223.600000,315.100000,227.900000,312.500000,231.200000,308.900000C230,311.500000,229,314.200000,228.300000,317.100000C230.400000,314.600000,232.500000,312,234.600000,309.500000C234.200000,311.400000,233.700000,313.300000,233.300000,315.300000C234.900000,312.900000,242.431531,311.132486,244.631531,309.332486C244.231531,314.732486,237.884510,319.354906,234.784510,323.754906C229.584510,330.954906,221.900000,338,215.900000,344.500000C211.300000,349.500000,201.900000,355.300000,196.500000,347.500000C192.300000,341.400000,201.200000,330.800000,204.300000,326C206.600000,322.500000,210,318,210.700000,313.900000Z" fill="rgb(244,231,208)" stroke="none" stroke-width="1"/></g></g><path id="e71dmqcey7ds24" d="M373.500000,276.500000C370.500000,294.200000,370.900000,308,382.100000,321.700000C381.600000,319.900000,373.100000,316.600000,371.300000,314.600000C368.900000,311.900000,368.500000,308.400000,368.300000,304.800000C367.600000,295.100000,369.500000,285.300000,373.500000,276.500000Z" fill="rgb(56,49,43)" stroke="none" stroke-width="1"/><g id="e71dmqcey7ds25_tr" transform="translate(249.200630,243.355209) rotate(0)"><g id="e71dmqcey7ds25" transform="translate(-249.200630,-243.355209)"><path id="e71dmqcey7ds26" d="M204.300000,160.100000C217.500000,157.400000,231.800000,159.900000,242.900000,167.500000C254,175.100000,261.500000,188.100000,261.700000,201.600000C261.900000,214.600000,255.300000,227.500000,244.800000,235.200000C234.300000,242.900000,220.200000,245.400000,207.700000,242.100000C202,240.600000,196.600000,238,191.400000,235.100000C186.600000,232.400000,181.900000,229.500000,177.900000,225.600000C174,221.700000,170.900000,216.900000,169.900000,211.400000C169.200000,207.500000,169.600000,203.500000,170.300000,199.600000C174,180.800000,184.700000,164,204.300000,160.100000Z" fill="rgb(249,192,65)" stroke="none" stroke-width="1"/><path id="e71dmqcey7ds27" d="M173.900000,183.500000C161.400000,194.200000,158.200000,191.800000,142.400000,190.300000C141.500000,190.200000,138.800000,192.500000,138,192.800000C135.200000,193.600000,134.600000,197.300000,134.900000,200.200000C136.100000,210.200000,138.700000,221,146.600000,227.100000C154.500000,233.200000,155.900000,236.200000,165.700000,238.700000C179.600000,242.300000,190.818645,243.945276,205.118645,242.945276C206.018645,242.845276,206.349890,240.745717,206.984263,239.975241C209.013494,237.486167,209.772944,236.518225,209.072944,234.518225C208.372944,232.618225,210,233.300000,208.600000,231.800000C197.900000,220.600000,182.200000,205.700000,183.900000,190.200000C184.700000,182.800000,190.300000,167.400000,199.700000,163.300000C206.300000,160.400000,212.900000,159.400000,217.200000,158.800000C212.800000,157.100000,199,161.200000,194.900000,162.900000C185.100000,167.100000,177.400000,180.500000,173.900000,183.500000Z" fill="rgb(244,231,208)" stroke="none" stroke-width="1"/><path id="e71dmqcey7ds28" d="M133.900000,194.900000C133.500000,196.500000,133.500000,198.100000,133.600000,199.700000C133.900000,204.900000,134.800000,210.300000,137.800000,214.700000C138.300000,215.400000,139.300000,216.200000,139.900000,215.600000C140.200000,215.400000,140.200000,215,140.200000,214.600000C140.300000,212.900000,140,211.100000,140.800000,209.600000C141.200000,208.900000,141.900000,208.200000,142.700000,208.400000C143.100000,208.500000,143.500000,208.800000,143.900000,209.100000C146,210.400000,148.900000,209.300000,150.300000,207.300000C151.700000,205.300000,151.900000,202.700000,151.900000,200.300000C151.900000,195.900000,150.200000,191.400000,145.200000,190.700000C141.100000,190,135.200000,190.400000,133.900000,194.900000Z" fill="rgb(56,49,43)" stroke="none" stroke-width="1"/><path id="e71dmqcey7ds29" d="M216.800000,243.300000C226.700000,243.800000,236.800000,240.900000,244.900000,235.100000C255.400000,227.400000,262,214.600000,261.800000,201.500000C261.600000,188,254.100000,175.100000,243,167.400000C241.100000,166.100000,239.100000,165,237.100000,164C236.800000,165.200000,237.800000,166.400000,238.800000,167.400000C243.500000,172.100000,247.200000,177.800000,249.500000,184C254.300000,197.100000,252.500000,212.600000,244.300000,224C238.700000,231.800000,230.600000,237.300000,222,241.400000C220.600000,242,218.700000,242.600000,216.800000,243.300000Z" fill="rgb(56,49,43)" stroke="none" stroke-width="1"/><path id="e71dmqcey7ds30" d="M244.600000,145.100000C253.700000,143.300000,263,143.900000,272.100000,142.700000C280.400000,141.600000,285.600000,129.400000,295.900000,135.400000C295.200000,150.700000,288,179.100000,270.900000,194.100000C261.400000,202.400000,247.400000,208.600000,236,203.800000C232.800000,202.400000,230.100000,200.300000,227.600000,198C222.600000,193.300000,218.600000,187.600000,217,181.100000C213,164.400000,227.500000,148.500000,244.600000,145.100000Z" fill="rgb(244,231,208)" stroke="none" stroke-width="1"/><path id="e71dmqcey7ds31" d="M226.300000,166.300000C232.700000,159.400000,242.700000,156.900000,252.100000,155C261.500000,153.200000,271.500000,151.400000,278.800000,145.300000C282.600000,142.100000,285.700000,137.800000,290.400000,135.900000C291.800000,135.400000,293.400000,135.100000,294.500000,136C295.700000,137,295.500000,138.900000,295.200000,140.400000C293.500000,148.400000,291.300000,156.300000,287.900000,163.900000C282.400000,175.900000,273.700000,186.800000,262.800000,195C259.700000,197.400000,256.400000,199.500000,252.800000,201.200000C246.900000,203.900000,240.200000,205,233.800000,204.500000C235.100000,207.900000,239.500000,209,243.400000,209C252,208.900000,260.400000,205.200000,267.200000,200C274,194.800000,279.400000,188.100000,284.300000,181.300000C286.400000,178.400000,288.400000,175.400000,289.800000,172.200000C291,169.500000,291.700000,166.600000,292.500000,163.700000C294,157.800000,295.600000,151.800000,296.800000,145.800000C297.300000,143.400000,297.700000,140.800000,297.300000,138.400000C296.900000,136,295.500000,133.600000,293.100000,132.600000C290.400000,131.500000,287.100000,132.300000,284.400000,133.800000C281.700000,135.200000,279.300000,137.100000,276.500000,138.300000C272.100000,140.100000,267.300000,139.900000,262.600000,140.200000C251.100000,140.700000,239.600000,143.900000,229.400000,149.400000C224.700000,152,220.100000,155.100000,217.100000,159.400000C213.200000,165,212.300000,172,213.600000,178.400000C214.900000,184.500000,218.300000,191.600000,223,195.900000C221.900000,191.900000,219.800000,188.800000,219.900000,184.400000C219.800000,177.900000,221.700000,171.300000,226.300000,166.300000Z" fill="rgb(249,192,65)" stroke="none" stroke-width="1"/><path id="e71dmqcey7ds32" d="M220,185.700000C220.200000,180.700000,221.300000,175.700000,223.100000,171C224.800000,166.600000,227.300000,162.300000,231.100000,159.600000C229.700000,160.600000,225.500000,157.900000,223.400000,159.500000C221.500000,161,220.500000,165.500000,219.900000,167.700000C218.400000,173.500000,218.300000,179.800000,220,185.700000Z" fill="rgb(56,49,43)" stroke="none" stroke-width="1"/><path id="e71dmqcey7ds33" d="M192.100000,171.300000C190.500000,172.800000,189.300000,174.700000,188.300000,176.600000C186.200000,180.400000,184.200000,184.300000,183.700000,188.600000C183.200000,192.900000,184.400000,197.600000,187.700000,200.300000C190.800000,202.800000,195.500000,203.100000,198.900000,201C199.900000,200.400000,200.900000,199.500000,201.700000,198.600000C205.500000,194.500000,207.400000,188.700000,206.700000,183.100000C205.900000,176.700000,199.500000,164.400000,192.100000,171.300000Z" fill="rgb(249,192,65)" stroke="none" stroke-width="1"/><path id="e71dmqcey7ds34" d="M184.100000,185.200000C183.400000,187.500000,183.200000,190,184.100000,192.300000C184.300000,192.900000,184.700000,193.600000,185.200000,194C186.600000,195.100000,188.800000,194.300000,190.100000,193C191.500000,191.600000,192.300000,189.700000,192.900000,187.800000C193.600000,185.700000,194.100000,183.500000,193.500000,181.400000C192.900000,179.500000,190.100000,176.900000,188,177.900000C186.300000,178.700000,184.700000,183.400000,184.100000,185.200000Z" fill="rgb(56,49,43)" stroke="none" stroke-width="1"/><path id="e71dmqcey7ds35" d="M150.900000,234.600000C151.600000,235.800000,152.400000,237,153.300000,238C154.800000,239.800000,156.600000,241.400000,158.600000,242.500000C160.200000,243.300000,161.900000,243.900000,163.600000,244.400000C167,245.400000,170.500000,246.200000,173.900000,245.900000C176,245.700000,178.100000,245,180.100000,244C181.900000,243.100000,183.700000,242,185,240.500000C186.300000,239,187.300000,237.100000,187.300000,235C187.300000,233,186.300000,230.900000,184.500000,229.900000C183.100000,229.100000,181.500000,229.100000,180,229.300000C178.500000,229.500000,177,230,175.500000,230.400000C173.500000,230.900000,171.300000,231.100000,169.200000,231C167.600000,230.900000,165.900000,230.600000,164.400000,229.900000C161.900000,228.600000,160.400000,225.800000,159.900000,223C159.600000,224,158.600000,224.600000,157.600000,225C156.300000,225.700000,154.900000,226.300000,153.600000,226.900000C152.500000,227.400000,150.700000,227.700000,149.800000,228.500000C148.400000,229.900000,150.200000,233.300000,150.900000,234.600000Z" fill="rgb(224,83,68)" stroke="none" stroke-width="1"/><path id="e71dmqcey7ds36" d="M156.100000,236.900000C160.100000,241.300000,166.300000,243.700000,172,242.400000C169.400000,242.600000,166.700000,242,164.400000,240.700000C162.100000,239.400000,160.100000,237.600000,158.400000,235.600000C157,233.900000,155.800000,232,155.500000,229.800000C155.400000,228.900000,155.800000,225.600000,154.100000,226.800000C150.700000,229.200000,154.200000,234.900000,156.100000,236.900000Z" fill="rgb(188,68,59)" stroke="none" stroke-width="1"/><path id="e71dmqcey7ds37" d="M157.100000,224.400000C160.500000,222.600000,163.700000,220.300000,166.300000,217.400000C165.200000,218.700000,164,219.900000,162.900000,221.200000C161.700000,222.600000,160.400000,223.900000,159,225C157.100000,226.400000,154.900000,227.200000,152.700000,228C151.500000,228.400000,150.400000,228.300000,149.800000,227C151.700000,225.800000,154.900000,225.600000,157.100000,224.400000Z" fill="rgb(56,49,43)" stroke="none" stroke-width="1"/></g></g></g></g><g id="e71dmqcey7ds38_to" style="offset-path:path('M-43.197603,333.957481C-15.743242,353.261063,30.220483,358.928999,69.983456,337.166504Q103.045756,329.934604,120.048414,302.319455L123.871077,265.836602Q111.349499,240.147932,103.923075,231.462320C70.365133,191.479751,38.443575,147.441834,13.502005,132.088989Q-23.092298,106.197133,-31.233510,58.700476Q-94.174428,-3.697156,-146.192166,13.543206');offset-rotate:0deg"><g id="e71dmqcey7ds38_tr" transform="rotate(61.905763)"><g id="e71dmqcey7ds38" transform="translate(-42.472406,-124.639332)"><path id="e71dmqcey7ds39" d="M44.400000,119.900000C44.300000,119.800000,44.200000,119.700000,44.100000,119.600000C44.100000,119.500000,44.100000,119.400000,44.100000,119.400000C44,118.800000,43.700000,118.300000,43.400000,118.100000C43.300000,113.900000,44.300000,112.300000,45.100000,111.700000C45.700000,111.300000,46.300000,111.200000,47.100000,111.400000C47.200000,111.400000,47.300000,111.400000,47.300000,111.300000C47.300000,111.200000,47.300000,111.100000,47.200000,111.100000C46.300000,110.800000,45.500000,110.900000,44.900000,111.400000C43.700000,112.300000,43,114.600000,43.100000,118C43.100000,118,43,118,43,118C43,118,42.900000,118,42.900000,118C41.900000,114.800000,40.700000,112.800000,39.200000,112.300000C38.400000,112,37.600000,112.200000,36.900000,112.700000C36.800000,112.800000,36.800000,112.900000,36.900000,112.900000C37,113,37.100000,113,37.100000,112.900000C37.800000,112.400000,38.400000,112.300000,39.100000,112.600000C40.100000,112.900000,41.400000,114.200000,42.600000,118.200000C42.300000,118.500000,42.200000,119,42.300000,119.600000C42.300000,119.700000,42.300000,119.800000,42.400000,119.800000C42.300000,119.900000,42.200000,120.100000,42.200000,120.200000C42.100000,120.100000,42,120.100000,41.900000,120C42.400000,121.600000,43,124.200000,43.400000,128.300000C43.800000,130.600000,44.600000,132.200000,45.100000,132.100000C45.600000,132,45.800000,130.500000,45.700000,128.400000C44.900000,124.200000,44.600000,121.500000,44.500000,119.600000C44.400000,119.800000,44.400000,119.900000,44.400000,119.900000Z" fill="rgb(57,62,63)" stroke="none" stroke-width="1"/><g id="e71dmqcey7ds40_ts" transform="translate(43.400002,127.523060) scale(1,1)"><path id="e71dmqcey7ds40" d="M41.800000,120.100000C37.100000,115.800000,25.400000,114.900000,21.200000,116.200000C21.200000,116.200000,21.200000,116.200000,21.200000,116.200000C21.200000,116.200000,21.200000,116.200000,21.200000,116.200000C21.100000,116.200000,21,116.300000,20.900000,116.300000C20.900000,116.300000,20.800000,116.300000,20.800000,116.300000C20.700000,116.300000,20.600000,116.400000,20.500000,116.400000C20.500000,116.400000,20.400000,116.400000,20.400000,116.500000C20.300000,116.500000,20.200000,116.600000,20.200000,116.600000C20.200000,116.600000,20.100000,116.600000,20.100000,116.700000C20,116.800000,19.900000,116.800000,19.900000,116.900000C18.100000,119.200000,21.400000,120.100000,21,121.100000C20.600000,122.100000,23.400000,122.600000,23.600000,123.700000C23.900000,124.800000,24.700000,124.800000,25.600000,126.700000C26.500000,128.500000,29.200000,128.700000,29.200000,128.700000C29.200000,128.700000,30.100000,129.300000,29.900000,130.400000C29.700000,131.500000,30.100000,132.600000,31.200000,133.100000C32.200000,133.600000,32.400000,134.800000,33.500000,135.800000C34.600000,136.800000,34.600000,136.100000,34.700000,137.400000C34.800000,138.800000,35.800000,138,36.700000,139C37.600000,139.900000,38.100000,138.900000,39.500000,139C40.900000,139.100000,41.900000,138.300000,42.500000,137.600000C42.600000,137.500000,42.600000,137.400000,42.700000,137.300000C42.700000,137.300000,42.700000,137.200000,42.700000,137.200000C42.700000,137.100000,42.800000,137,42.800000,136.900000C42.800000,136.900000,42.800000,136.800000,42.800000,136.800000C42.800000,136.700000,42.900000,136.600000,42.900000,136.500000C42.900000,136.500000,42.900000,136.500000,42.900000,136.500000C43.100000,135.400000,43.300000,133.800000,43.400000,132.800000L43.400000,128.500000C43.400000,128.500000,43.400000,128.600000,43.400000,128.600000C42.800000,124.200000,42.300000,121.600000,41.800000,120.100000Z" transform="translate(-43.400002,-127.523060)" fill="rgb(57,62,63)" stroke="none" stroke-width="1"/></g><g id="e71dmqcey7ds41_ts" transform="translate(44.500000,123.513881) scale(1,1)"><path id="e71dmqcey7ds41" d="M64.600000,110.100000C64.500000,110,64.400000,110,64.300000,110C64.300000,110,64.200000,110,64.200000,110C64.100000,110,64,109.900000,63.900000,109.900000C63.900000,109.900000,63.800000,109.900000,63.800000,109.900000C63.700000,109.900000,63.600000,109.900000,63.500000,109.900000C63.500000,109.900000,63.400000,109.900000,63.400000,109.900000C63.300000,109.900000,63.200000,109.900000,63.100000,109.900000C63.100000,109.900000,63.100000,109.900000,63.100000,109.900000C63.100000,109.900000,63.100000,109.900000,63.100000,109.900000C58.600000,109.900000,47.600000,114.400000,44.500000,119.900000C44.500000,121.700000,44.800000,124.500000,45.700000,128.700000C45.700000,128.500000,45.700000,128.300000,45.600000,128.100000L46.900000,132.200000C47.300000,133.200000,48,134.600000,48.500000,135.600000C48.500000,135.600000,48.500000,135.600000,48.500000,135.600000C48.600000,135.800000,48.800000,136,48.900000,136.200000C48.900000,136.200000,48.900000,136.200000,48.900000,136.200000C48.900000,136.300000,49,136.300000,49,136.400000C49,136.400000,49,136.400000,49,136.400000C49.100000,136.500000,49.100000,136.500000,49.100000,136.500000C50,137,51.100000,137.400000,52.400000,136.900000C53.700000,136.400000,54.500000,137.200000,55.100000,136.100000C55.700000,135,56.800000,135.400000,56.500000,134C56.200000,132.600000,56.500000,133.300000,57.200000,132.100000C57.900000,130.800000,57.700000,129.600000,58.600000,128.800000C59.400000,128,59.600000,126.800000,59,125.800000C58.400000,124.800000,59.100000,123.900000,59.100000,123.900000C59.100000,123.900000,61.600000,123,61.900000,121C62.200000,119,63,118.700000,62.900000,117.600000C62.800000,116.500000,65.300000,115.200000,64.700000,114.400000C64.200000,113.600000,67,111.800000,64.600000,110.100000Z" transform="translate(-44.500000,-123.513881)" fill="rgb(57,62,63)" stroke="none" stroke-width="1"/></g></g></g></g><g id="e71dmqcey7ds42_to" style="offset-path:path('M-40.893753,158.417038C-8.133378,196.513613,48.631705,189.938308,81.304993,158.417038C87.407102,106.589809,115.965393,81.478746,166.300005,81.835993C220.314497,63.675799,197.156116,-1.890342,162.337402,-20.030206C126.253488,-64.318418,199.844504,-74.731156,239.100005,-26.824897');offset-rotate:0deg"><g id="e71dmqcey7ds42_tr" transform="rotate(73.459028)"><g id="e71dmqcey7ds42" transform="translate(-141.776871,-33.510998)"><path id="e71dmqcey7ds43" d="M143.200000,28.600000C143.100000,28.500000,143,28.300000,142.900000,28.200000C142.900000,28.100000,142.900000,28,142.900000,28C142.900000,27.400000,142.600000,26.900000,142.300000,26.700000C142.600000,22.500000,143.700000,21,144.600000,20.500000C145.200000,20.100000,145.900000,20.100000,146.600000,20.400000C146.700000,20.400000,146.800000,20.400000,146.800000,20.300000C146.800000,20.200000,146.800000,20.100000,146.700000,20.100000C145.900000,19.700000,145,19.800000,144.400000,20.200000C143.100000,21,142.300000,23.200000,142,26.600000C142,26.600000,141.900000,26.600000,141.900000,26.600000C141.900000,26.600000,141.800000,26.600000,141.800000,26.600000C141.100000,23.300000,140,21.200000,138.600000,20.600000C137.900000,20.300000,137.100000,20.300000,136.300000,20.800000C136.200000,20.800000,136.200000,21,136.200000,21C136.200000,21.100000,136.300000,21.100000,136.400000,21.100000C137.100000,20.700000,137.800000,20.600000,138.400000,20.900000C139.300000,21.300000,140.600000,22.700000,141.400000,26.800000C141.100000,27.100000,140.900000,27.600000,141,28.200000C141,28.300000,141,28.400000,141,28.400000C140.900000,28.500000,140.800000,28.600000,140.700000,28.800000C140.600000,28.700000,140.500000,28.600000,140.500000,28.600000C140.900000,30.200000,141.200000,32.900000,141.300000,37C141.500000,39.300000,142.100000,41,142.700000,41C143.200000,41,143.600000,39.400000,143.600000,37.400000C143.200000,33.200000,143.100000,30.400000,143.200000,28.600000C143.300000,28.500000,143.300000,28.600000,143.200000,28.600000Z" fill="rgb(57,62,63)" stroke="none" stroke-width="1"/><g id="e71dmqcey7ds44_ts" transform="translate(141.058136,35.714211) scale(1,1)"><path id="e71dmqcey7ds44" d="M140.600000,28.500000C136.300000,23.800000,124.800000,21.900000,120.400000,22.800000C120.400000,22.800000,120.400000,22.800000,120.400000,22.800000C120.400000,22.800000,120.400000,22.800000,120.400000,22.800000C120.300000,22.800000,120.200000,22.900000,120.100000,22.900000C120.100000,22.900000,120,22.900000,120,22.900000C119.900000,22.900000,119.800000,23,119.700000,23C119.700000,23,119.600000,23,119.600000,23C119.500000,23,119.400000,23.100000,119.400000,23.100000C119.400000,23.100000,119.300000,23.100000,119.300000,23.100000C119.200000,23.200000,119.100000,23.200000,119.100000,23.300000C117.100000,25.400000,120.300000,26.600000,119.800000,27.600000C119.300000,28.500000,122,29.300000,122.200000,30.400000C122.400000,31.500000,123.200000,31.600000,123.900000,33.500000C124.700000,35.400000,127.300000,35.800000,127.300000,35.800000C127.300000,35.800000,128.100000,36.500000,127.800000,37.600000C127.500000,38.700000,127.900000,39.800000,128.800000,40.400000C129.800000,41,129.900000,42.200000,130.800000,43.300000C131.800000,44.400000,131.900000,43.700000,131.900000,45C131.900000,46.400000,132.900000,45.700000,133.700000,46.700000C134.500000,47.700000,135.100000,46.800000,136.500000,46.900000C137.800000,47.100000,138.900000,46.400000,139.600000,45.800000C139.700000,45.700000,139.700000,45.700000,139.800000,45.600000C139.800000,45.600000,139.800000,45.500000,139.800000,45.500000C139.800000,45.400000,139.900000,45.300000,139.900000,45.200000C139.900000,45.200000,139.900000,45.100000,139.900000,45.100000C139.900000,45,140,44.900000,140,44.800000C140,44.800000,140,44.800000,140,44.800000C140.300000,43.700000,140.700000,42.200000,140.900000,41.100000L141.300000,36.800000C141.300000,36.800000,141.300000,36.900000,141.300000,36.900000C141.300000,32.800000,141,30.100000,140.600000,28.500000Z" transform="translate(-141.058136,-35.714211)" fill="rgb(57,62,63)" stroke="none" stroke-width="1"/></g><g id="e71dmqcey7ds45_ts" transform="translate(143.957059,32.726838) scale(1,1)"><path id="e71dmqcey7ds45" d="M164.300000,20.600000C164.200000,20.500000,164.100000,20.500000,164,20.400000C164,20.400000,163.900000,20.400000,163.900000,20.400000C163.800000,20.400000,163.700000,20.300000,163.600000,20.300000C163.600000,20.300000,163.500000,20.300000,163.500000,20.300000C163.400000,20.300000,163.300000,20.300000,163.200000,20.200000C163.200000,20.200000,163.100000,20.200000,163.100000,20.200000C163,20.200000,162.900000,20.200000,162.800000,20.200000C162.800000,20.200000,162.800000,20.200000,162.800000,20.200000C162.800000,20.200000,162.800000,20.200000,162.800000,20.200000C158.300000,19.900000,146.900000,23.300000,143.400000,28.600000C143.300000,30.400000,143.300000,33.200000,143.800000,37.400000C143.800000,37.200000,143.800000,37,143.800000,36.800000L144.700000,41C145,42,145.500000,43.500000,146,44.500000C146,44.500000,146,44.500000,146,44.500000C146.100000,44.700000,146.200000,45,146.300000,45.100000C146.300000,45.100000,146.300000,45.100000,146.300000,45.100000C146.300000,45.200000,146.400000,45.200000,146.400000,45.300000C146.400000,45.300000,146.400000,45.300000,146.400000,45.300000C146.400000,45.400000,146.500000,45.400000,146.500000,45.400000C147.300000,46,148.400000,46.500000,149.800000,46.100000C151.100000,45.800000,151.900000,46.600000,152.500000,45.500000C153.200000,44.400000,154.300000,44.900000,154.100000,43.600000C153.900000,42.200000,154.100000,42.900000,155,41.700000C155.800000,40.500000,155.800000,39.300000,156.700000,38.600000C157.600000,37.900000,157.800000,36.700000,157.400000,35.700000C156.900000,34.700000,157.700000,33.900000,157.700000,33.900000C157.700000,33.900000,160.300000,33.200000,160.800000,31.200000C161.300000,29.200000,162.100000,29,162.100000,27.900000C162.100000,26.800000,164.700000,25.700000,164.100000,24.800000C163.500000,24,166.500000,22.500000,164.300000,20.600000Z" transform="translate(-143.957059,-32.726838)" fill="rgb(57,62,63)" stroke="none" stroke-width="1"/></g></g></g></g></svg>