<svg xmlns="http://www.w3.org/2000/svg" width="69" height="49.164" viewBox="0 0 69 49.164">
  <g id="Group_204" data-name="Group 204" transform="translate(0 -33.085)">
    <path id="Path_310" data-name="Path 310" d="M180.935,49.04c0-.079.054-.156.051-.234L159.929,69.1,180.96,88.736c.012-.14-.025-.282-.025-.425V49.04Z" transform="translate(-111.986 -11.008)" fill="#393e3f"/>
    <path id="Path_311" data-name="Path 311" d="M52.439,126.9l-8.6,8.27a2.248,2.248,0,0,1-3.092.025l-8.572-7.988-21.169,20.4a4.878,4.878,0,0,0,1.646.329H71.912a4.874,4.874,0,0,0,2.366-.652Z" transform="translate(-7.709 -65.692)" fill="#393e3f"/>
    <path id="Path_312" data-name="Path 312" d="M38.842,64.763,70.977,33.808a4.87,4.87,0,0,0-2.482-.723H9.239A4.884,4.884,0,0,0,6.13,34.244Z" transform="translate(-4.292 0)" fill="#393e3f"/>
    <path id="Path_313" data-name="Path 313" d="M0,52.1V90.617a4.89,4.89,0,0,0,.212,1.276L21.118,71.761Z" transform="translate(0 -13.315)" fill="#393e3f"/>
  </g>
</svg>
