<svg id="cot-1" xmlns="http://www.w3.org/2000/svg" width="25.385" height="20.5" viewBox="0 0 25.385 20.5">
  <path id="Path_700" data-name="Path 700" d="M-1210.049,5281.5H-1221.5v8.969a17.976,17.976,0,0,0,.721,4.725,12.081,12.081,0,0,0,2.082,3.684,9.432,9.432,0,0,0,3.523,2.322,18.414,18.414,0,0,0,5.125.8v-3.123a7.854,7.854,0,0,1-3.764-2,7.244,7.244,0,0,1-1.361-3.924h5.125Z" transform="translate(1235.434 -5281.5)" fill="#393e3f"/>
  <path id="Path_701" data-name="Path 701" d="M-1210.049,5281.5H-1221.5v8.969a17.976,17.976,0,0,0,.721,4.725,12.081,12.081,0,0,0,2.082,3.684,9.432,9.432,0,0,0,3.523,2.322,18.414,18.414,0,0,0,5.125.8v-3.123a7.854,7.854,0,0,1-3.764-2,7.244,7.244,0,0,1-1.361-3.924h5.125Z" transform="translate(1221.5 -5281.5)" fill="#393e3f"/>
</svg>
