<svg xmlns="http://www.w3.org/2000/svg" width="86.121" height="159.607" viewBox="0 0 86.121 159.607">
  <g id="Group_427" data-name="Group 427" transform="translate(-353.589 -219.499)">
    <path id="Path_941" data-name="Path 941" d="M375.155,271.816c-.012-.289,0-.581.015-.871-2.374,5.866-5.093,14.429-11.089,17.577-5.849-1.892-4.759-14.743-3.469-19.61,1.149-4.338,2.41-9.265,5.166-12.974,2.171-2.919,4.378-5.315,6.2-8.453,3.8-6.564,8.853-12.1,13.932-17.734,4.132-4.585,10.076-9.406,16.121-5.177,2.141,1.5,2.512,3.829,3.626,6.148,1.5,3.128,3.159,5.876,4.449,9.14a119.236,119.236,0,0,1,6.058,21.593c1.107,5.989.6,12.427,1.456,18.453.286,2.021,1.256,4.718.339,6.8-.977,2.217-3.816,3.749-5.791,1.959,2.473,10.771,5.157,21.59,6.675,32.341.479,3.394-1.423,23.322,5.76,18.494,3.472,3.828,2.539,10.869,5.572,15.49,2.128,3.241,10.8,10.374,9.382,14.877-.69,2.2-4.814,1.71-7.132,1.942a18.416,18.416,0,0,1-3.552.323c-1.414-.114-2.881-1.122-4.222-.985-1.21.124-.955,1.516-2.573,1.584-.492.022-1.212-1.212-1.941-1.26-.907-.063-1.222.546-1.935.589-2.978.183-5.533,1.416-7.764-.251-2.864-2.14-1.113-2.771-4.879-2.024-2.126.423-4.574.545-6.779.981-4.4.875-9.157.242-11.38,4.867-2.421-.948-6.637,5.058-8.108-.548-1.743,1.355-2.944,3.221-5.356,3.121-.846-.036-1.751-1.073-2.662-1.219a18.332,18.332,0,0,0-3.9.306c-5.815.587-11.163.444-7.749-6.376,2.607-5.209-2.277-11.7-3.882-17.158-.68-2.309-2.056-5.367-1.546-7.766.678-3.191,2.615-3.73,2.266-7.19-.355-3.52-5.222-14.5-1.441-17.166,5.268-3.718,7.835,15.4,9.456,18.362,2.472-7.712.1-16.425,2.976-24.252,2.147-5.84,2.041-11.836,3.74-17.715,1.084-3.75,3.96-7.511,4.3-11.325.312-3.461.719-10.581-.737-13.825a19.981,19.981,0,0,1-2.839,3.793" transform="translate(0 -0.093)" fill="#2b2f30"/>
    <path id="Path_942" data-name="Path 942" d="M390.75,295.25c.728,2.427.971,5.339,2.427,7.523" transform="translate(-1.087 -2.208)" fill="none" stroke="#c12a1b" stroke-miterlimit="10" stroke-width="0.799"/>
    <path id="Path_943" data-name="Path 943" d="M390.963,294.75c-.485,2.427.728,6.553,1.7,8.979a12.711,12.711,0,0,0-2.912-8.737,31.4,31.4,0,0,0,2.912,9.222c-.971-2.67-2.184-5.1-2.912-7.766.485,2.427,1.213,5.1,1.941,7.523a11.757,11.757,0,0,0,0-4.126" transform="translate(-1.058 -2.193)" fill="none" stroke="#c12a1b" stroke-miterlimit="10" stroke-width="0.799"/>
    <path id="Path_944" data-name="Path 944" d="M390,294.934c0-1.456,1.213-2.184,2.67-2.184a58.813,58.813,0,0,0,.728,11.406c1.456-3.4,0-7.766-.485-11.406a31.406,31.406,0,0,0,.971,8.494,44.381,44.381,0,0,0,.485-8.009c.971,1.942.728,4.611.728,6.8v-6.553c1.7,1.941.728,5.582.485,8.251l.728-3.64a23.489,23.489,0,0,1-1.942,5.825c-.243.243-.728,0-.971,0,0,.485.243.728.485.243" transform="translate(-1.065 -2.135)" fill="none" stroke="#c12a1b" stroke-miterlimit="10" stroke-width="0.799"/>
    <path id="Path_945" data-name="Path 945" d="M392.75,304.678A15.471,15.471,0,0,0,396.39,294h0c0,.971-.243,1.456-.243,2.427" transform="translate(-1.145 -2.171)" fill="none" stroke="#c12a1b" stroke-miterlimit="10" stroke-width="0.799"/>
    <path id="Path_946" data-name="Path 946" d="M376.292,243.652c2.586-7.756,16.548-24.822,26.891-19.134,4.654,2.586,5.688,12.411,7.24,17.065" transform="translate(-0.664 -0.106)" fill="none" stroke="#1a1818" stroke-miterlimit="10" stroke-width="0.799"/>
    <path id="Path_947" data-name="Path 947" d="M385.349,223.487c3.619,1.551,6.721,4.655,9.307,8.275" transform="translate(-0.929 -0.109)" fill="none" stroke="#1a1818" stroke-miterlimit="10" stroke-width="0.799"/>
    <path id="Path_948" data-name="Path 948" d="M389.077,220.291c3.62,2.069,6.723,4.654,7.757,8.791" transform="translate(-1.038 -0.016)" fill="none" stroke="#1a1818" stroke-miterlimit="10" stroke-width="0.799"/>
    <path id="Path_949" data-name="Path 949" d="M398.133,219.759c3.1,3.619,2.586,8.791,2.586,12.928" transform="translate(-1.303)" fill="none" stroke="#1a1818" stroke-miterlimit="10" stroke-width="0.799"/>
    <path id="Path_950" data-name="Path 950" d="M376.871,243.2c-5.688,4.136-23.27,40.336-12.928,44.99,3.62-3.1,10.342-11.894,10.86-17.065" transform="translate(-0.209 -0.685)" fill="none" stroke="#1a1818" stroke-miterlimit="10" stroke-width="0.799"/>
    <path id="Path_951" data-name="Path 951" d="M376.764,265.572c-1.033,2.069,0,7.239,0,10.342,0,4.654-3.1,11.376-1.55,15.514,4.136,13.962,11.894,0,16.548-.517,7.24-1.034,14.479,16.031,19.652,0,2.068-6.722-2.587-13.962-2.587-20.685" transform="translate(-0.62 -1.34)" fill="none" stroke="#1a1818" stroke-miterlimit="10" stroke-width="0.799"/>
    <path id="Path_952" data-name="Path 952" d="M411.451,241.067c4.137,7.24,5.688,24.306,7.24,34.648,0,2.068,2.069,10.342,0,12.41-2.586,2.069-5.172,0-5.689-2.585" transform="translate(-1.692 -0.623)" fill="none" stroke="#1a1818" stroke-miterlimit="10" stroke-width="0.799"/>
    <path id="Path_953" data-name="Path 953" d="M392.086,279.289c-2.586,0-4.654-.517-6.205-3.1,4.137,0,7.757-2.069,11.377-1.034a8.8,8.8,0,0,1-3.1,5.17c-.516-1.034-1.551-1.034-2.069-1.551" transform="translate(-0.944 -1.611)" fill="none" stroke="#1a1818" stroke-miterlimit="10" stroke-width="0.799"/>
    <path id="Path_954" data-name="Path 954" d="M382.685,255.967c.516-.517,0,2.585,1.034,5.171a22.021,22.021,0,0,0-1.034-5.689,15.291,15.291,0,0,0,1.034,5.171" transform="translate(-0.851 -1.044)" fill="none" stroke="#1a1818" stroke-miterlimit="10" stroke-width="0.799"/>
    <path id="Path_955" data-name="Path 955" d="M400.766,254.917a19.418,19.418,0,0,1-.516,5.171h0c0-1.034.516-2.068.516-3.619a6.013,6.013,0,0,1-1.035,3.619" transform="translate(-1.349 -1.028)" fill="none" stroke="#1a1818" stroke-miterlimit="10" stroke-width="0.799"/>
    <path id="Path_956" data-name="Path 956" d="M393.292,286.347c0,1.551-.517,3.1-1.552,3.62" transform="translate(-1.116 -1.947)" fill="none" stroke="#1a1818" stroke-miterlimit="10" stroke-width="0.799"/>
    <path id="Path_957" data-name="Path 957" d="M390.676,297.534a1.571,1.571,0,0,0,2.068,0" transform="translate(-1.085 -2.275)" fill="none" stroke="#1a1818" stroke-miterlimit="10" stroke-width="0.799"/>
    <path id="Path_958" data-name="Path 958" d="M377.842,258.114c0,3.62-2.069,10.343-1.552,12.411" transform="translate(-0.661 -1.122)" fill="none" stroke="#1a1818" stroke-miterlimit="10" stroke-width="0.799"/>
    <path id="Path_959" data-name="Path 959" d="M409.3,252.254a23.361,23.361,0,0,1,.516,10.342c0,2.069-2.068,5.69-.516,3.62" transform="translate(-1.612 -0.95)" fill="none" stroke="#1a1818" stroke-miterlimit="10" stroke-width="0.799"/>
    <path id="Path_960" data-name="Path 960" d="M387.479,277.276s5.171-.517,7.757-.517h-4.654a21.617,21.617,0,0,0,5.17,2.069c-2.585-2.586-5.688-2.586-7.756,0,2.069,2.068,3.1,1.034,5.171.516" transform="translate(-0.991 -1.667)" fill="none" stroke="#1a1818" stroke-miterlimit="10" stroke-width="0.799"/>
    <path id="Path_961" data-name="Path 961" d="M390.138,278.357c-1.035,0,3.62.517,4.653.517a3.1,3.1,0,0,0-2.068-.517" transform="translate(-1.065 -1.714)" fill="none" stroke="#1a1818" stroke-miterlimit="10" stroke-width="0.799"/>
    <path id="Path_962" data-name="Path 962" d="M375.17,368.386c-4.137,7.757-1.035,22.753,5.688,8.79-1.551,5.173,3.62,8.792,5.171,2.586,1.034.517,1.552,1.036,2.586,1.551a5.245,5.245,0,0,0,1.551-5.17" transform="translate(-0.576 -4.347)" fill="none" stroke="#1a1818" stroke-miterlimit="10" stroke-width="0.799"/>
    <path id="Path_963" data-name="Path 963" d="M428.515,366.787c0,2.586.516,14.48-4.136,6.206.517,4.655-9.827,6.723-8.275,2.068.517,4.655-2.585,4.138-4.655.518" transform="translate(-1.692 -4.3)" fill="none" stroke="#1a1818" stroke-miterlimit="10" stroke-width="0.799"/>
    <path id="Path_964" data-name="Path 964" d="M416.244,305.526c2.069,19.652,6.723,43.957,13.446,61.022" transform="translate(-1.832 -2.508)" fill="none" stroke="#1a1818" stroke-miterlimit="10" stroke-width="0.799"/>
    <path id="Path_965" data-name="Path 965" d="M402.927,314.582c1.55,16.031,1.55,34.131,6.205,49.128-1.035,3.62,3.1,9.824,1.551,10.86" transform="translate(-1.443 -2.773)" fill="none" stroke="#1a1818" stroke-miterlimit="10" stroke-width="0.799"/>
    <path id="Path_966" data-name="Path 966" d="M388.01,316.181c0,12.928-.518,27.407,2.069,40.336-1.035,3.62,4.136,17.064-1.035,16.548" transform="translate(-1.005 -2.82)" fill="none" stroke="#1a1818" stroke-miterlimit="10" stroke-width="0.799"/>
    <path id="Path_967" data-name="Path 967" d="M374.16,317.246c2.586,12.411.516,26.891.516,39.819,0,2.068-.516,13.445.518,11.376" transform="translate(-0.602 -2.851)" fill="none" stroke="#1a1818" stroke-miterlimit="10" stroke-width="0.799"/>
    <path id="Path_968" data-name="Path 968" d="M373.926,292.741c-4.137,5.171-5.171,24.306-6.205,32.581-.517,4.653-1.551,20.167-1.551,20.684" transform="translate(-0.368 -2.134)" fill="none" stroke="#1a1818" stroke-miterlimit="10" stroke-width="0.799"/>
    <path id="Path_969" data-name="Path 969" d="M368.948,350.129c-2.586-.516-6.205-5.688-9.826-4.654-10.341,3.621,2.07,22.237,4.655,27.408-4.137,1.034-9.826,5.17-3.62,8.792,1.55,1.033,7.756-1.036,9.826-1.551" transform="translate(-0.043 -3.673)" fill="none" stroke="#1a1818" stroke-miterlimit="10" stroke-width="0.799"/>
    <path id="Path_970" data-name="Path 970" d="M423.169,344.841c6.723-12.928,6.723,13.962,7.24,15.514,1.552,5.172,9.826,6.722,10.343,10.342.515,4.137-7.241,4.655-10.343,3.619" transform="translate(-2.035 -3.556)" fill="none" stroke="#1a1818" stroke-miterlimit="10" stroke-width="0.799"/>
    <path id="Path_971" data-name="Path 971" d="M396.518,375.31H396" transform="translate(-1.24 -4.549)" fill="none" stroke="#1a1818" stroke-miterlimit="10" stroke-width="0.799"/>
    <path id="Path_972" data-name="Path 972" d="M396.522,375.31h0" transform="translate(-1.244 -4.549)" fill="none" stroke="#1a1818" stroke-miterlimit="10" stroke-width="0.799"/>
    <path id="Path_973" data-name="Path 973" d="M359.094,344.324c-2.069-2.586-8.791-20.685-2.069-20.685,3.1,0,5.69,16.547,7.24,19.134" transform="translate(-0.015 -3.038)" fill="none" stroke="#1a1818" stroke-miterlimit="10" stroke-width="0.799"/>
    <path id="Path_974" data-name="Path 974" d="M414.645,290.61a140.584,140.584,0,0,0,4.655,21.2c0,.517,0-1.551-.516-1.034,2.068,8.79,2.585,20.685,3.62,27.925" transform="translate(-1.786 -2.072)" fill="none" stroke="#1a1818" stroke-miterlimit="10" stroke-width="0.799"/>
    <path id="Path_975" data-name="Path 975" d="M391.477,376.618a66.722,66.722,0,0,0,12.41-.776" transform="translate(-1.108 -4.565)" fill="none" stroke="#1a1818" stroke-miterlimit="10" stroke-width="0.799"/>
    <path id="Path_976" data-name="Path 976" d="M398.668,375.772a12.51,12.51,0,0,0,6.981-2.327" transform="translate(-1.318 -4.495)" fill="none" stroke="#1a1818" stroke-miterlimit="10" stroke-width="0.799"/>
    <path id="Path_977" data-name="Path 977" d="M388.417,295.211c.323,1.779,1.618,15.047,6.472,10.355,2.1-2.1,3.4-10.032,1.779-11.649" transform="translate(-1.019 -2.169)" fill="none" stroke="#1a1818" stroke-miterlimit="10" stroke-width="0.799"/>
    <path id="Path_978" data-name="Path 978" d="M392.75,293.083a19.842,19.842,0,0,0,.324,4.368" transform="translate(-1.145 -2.144)" fill="none" stroke="#1a1818" stroke-miterlimit="10" stroke-width="0.799"/>
    <path id="Path_979" data-name="Path 979" d="M393.25,299.417c.162.647.162,1.132.324,1.779" transform="translate(-1.16 -2.33)" fill="none" stroke="#1a1818" stroke-miterlimit="10" stroke-width="0.799"/>
    <path id="Path_980" data-name="Path 980" d="M393.917,301.75" transform="translate(-1.179 -2.398)" fill="none" stroke="#1a1818" stroke-miterlimit="10" stroke-width="0.799"/>
  </g>
</svg>
