<svg xmlns="http://www.w3.org/2000/svg" width="134.471" height="138.673" viewBox="0 0 134.471 138.673">
  <g id="Group_426" data-name="Group 426" transform="translate(-330.594 -244.32)">
    <path id="Path_908" data-name="Path 908" d="M353.556,313.836c-5.159-1.13-13.367-.268-18.339-3.067-5.542-3.121-5.279-10.008-3.441-15.262,4.707-13.445,13.984-23.528,22.81-34.438,4-4.946,7.242-9.533,13.562-11.111,5.9-1.475,12.6-1.3,18.7-1.581,12.872-.591,23.187-7.965,33.3,2.685,4.268,4.5,7.627,9.852,12.251,14.234,4.243,4.021,7.386,7.2,10.465,12.252,3.1,5.1,7.416,10.892,7.874,16.918.6,7.826-5.026,9.193-11.513,11.158a36.392,36.392,0,0,0-5.2,1.556c1.219,4.258,4.473,8.258,6.416,12.259,1.829,3.771,3.683,8.111,6.724,10.756,9.491,8.258,10.125-7.645,10.446-14.057,7.339-1.915,7.785,9.329,6.4,13.41-2.091,6.15-6.522,11.611-8.315,17.957-1.864,6.6-1.4,10.2,1.861,16.087,3.676,6.634-.531,11.414-7.856,11.97-3.3.253-6.267-1.168-9-2.9-3.489-2.212-3.389-3.246-6.816-.943-4.072,2.736-11.231,6.5-16.731,3.551-2.174-1.164-2.667-4.1-5.594-4.964-2.569-.756-6.347.276-9,.393-6.261.276-12.138,2.706-18.705,1.871a17.492,17.492,0,0,1-5.527-1.833c-2.119,2.353-1.7,5.481-4.2,7.744-2.264,2.044-5.4,2.674-8.24,3.058-2.781.376-16.476,1.316-14.879-3.721.55-1.734,2.909-1.552,3.307-3.77.129-.713-1.156-3.736-1.222-4.864-.189-3.221.549-6.109.832-9.334A179.426,179.426,0,0,1,357.318,340c1.006-4.955,8.7-28.946-3.387-25.044" transform="translate(0 0.077)" fill="#fcb029"/>
    <path id="Path_909" data-name="Path 909" d="M361.886,271.75c-1.795,13.452-8.967,26.007-8.967,39.459h1.793c11.657,12.555,39.458,6.277,54.7,1.792,15.246-3.586,26.9-3.586,20.627-20.626-4.484-11.657-14.35-23.316-21.523-32.284" transform="translate(2.73 1.881)" fill="none" stroke="#1a1818" stroke-miterlimit="10" stroke-width="0.799"/>
    <path id="Path_910" data-name="Path 910" d="M387.054,292.287c-4.185-2.392-7.174-6.577-10.164-10.762,4.783-1.793,9.565-3.587,14.349-3.587,1.2,4.783-1.793,9.565-5.38,12.555" transform="translate(5.662 4.063)" fill="none" stroke="#1a1818" stroke-miterlimit="10" stroke-width="0.799"/>
    <path id="Path_911" data-name="Path 911" d="M357.33,256.1c-6.578,13.153-27.5,28.1-25.708,43.046,1.793,13.751,14.947,10.762,24.511,13.751" transform="translate(0.112 1.392)" fill="none" stroke="#1a1818" stroke-miterlimit="10" stroke-width="0.799"/>
    <path id="Path_912" data-name="Path 912" d="M404.591,245.976c13.153,8.37,28.7,29.294,35.871,43.046,6.577,11.957-4.782,14.946-14.947,17.935" transform="translate(9.05 0.154)" fill="none" stroke="#1a1818" stroke-miterlimit="10" stroke-width="0.799"/>
    <path id="Path_913" data-name="Path 913" d="M353.984,258.685c7.175-4.185,11.358-12.555,20.327-9.566,13.751,1.2,26.307-7.772,37.664-2.989" transform="translate(2.86 0)" fill="none" stroke="#1a1818" stroke-miterlimit="10" stroke-width="0.799"/>
    <path id="Path_914" data-name="Path 914" d="M369.583,269.541s-1.2-2.39-.6,1.793c0,0,1.2-1.793.6-1.793v.6" transform="translate(4.675 2.953)" fill="none" stroke="#1a1818" stroke-miterlimit="10" stroke-width="0.799"/>
    <path id="Path_915" data-name="Path 915" d="M394.466,263.359v4.185h.6c0-1.2.6-4.185,0-1.2" transform="translate(7.811 2.254)" fill="none" stroke="#1a1818" stroke-miterlimit="10" stroke-width="0.799"/>
    <path id="Path_916" data-name="Path 916" d="M333.741,293.919c2.391,11.36,10.165,10.165,18.534,11.36" transform="translate(0.385 6.018)" fill="none" stroke="#1a1818" stroke-miterlimit="10" stroke-width="0.799"/>
    <path id="Path_917" data-name="Path 917" d="M407.787,264.621c4.783,7.771,17.935,25.109,16.741,34.077,0,.6,1.793,1.2,2.391,1.2v1.793a50.505,50.505,0,0,0,10.165-2.989c-1.2,1.2-1.795,0-2.99,0" transform="translate(9.44 2.435)" fill="none" stroke="#1a1818" stroke-miterlimit="10" stroke-width="0.799"/>
    <path id="Path_918" data-name="Path 918" d="M344.394,275.282c4.185-8.967,14.349-18.534,22.12-24.512,1.793,0,1.2.6,1.793,1.2" transform="translate(1.688 0.741)" fill="none" stroke="#1a1818" stroke-miterlimit="10" stroke-width="0.799"/>
    <path id="Path_919" data-name="Path 919" d="M358.221,308.836c.6,16.142-3.588,34.076-5.978,49.621a17.726,17.726,0,0,0,1.2,9.564h0c-2.392.6-3.586,2.99-4.782,3.589,10.164,6.576,29.3,1.792,25.706-11.958v2.392c1.2-8.371,1.2-16.142,1.2-23.914,0,7.772,1.793,17.937-.6,25.111-.6-2.991-.6-9.569-.6-11.958v14.347q.9-1.793,1.795-3.587c2.99,5.381,28.1-1.2,35.275-.6h0c0-7.775-1.2-15.546-2.392-23.318,1.194,8.968,1.793,19.73,4.184,28.7,9.566,0,19.132,2.989,20.925-7.773,1.2-5.977-2.989-19.131-5.38-25.109.6,2.392,1.793,5.381,2.392,7.773,0-5.381-.6-10.165,2.989-13.75,4.185,2.392,7.175,7.174,10.164,10.761-2.391-4.185-12.555-22.719-16.142-7.773l.6-1.2c.6-.6,2.392-1.2,2.989-1.792" transform="translate(2.209 7.842)" fill="none" stroke="#1a1818" stroke-miterlimit="10" stroke-width="0.799"/>
    <path id="Path_920" data-name="Path 920" d="M421.637,300.845c2.989,5.38,11.957,22.719,17.337,25.707,9.565,4.784,7.773-10.164,7.174-16.739,19.73,5.38-6.576,31.686-4.184,40.654,1.795,7.173,14.349,13.751-1.793,16.739-5.978,1.2-11.36-1.2-13.751-6.577" transform="translate(11.134 6.865)" fill="none" stroke="#1a1818" stroke-miterlimit="10" stroke-width="0.799"/>
    <line id="Line_27" data-name="Line 27" x1="0.598" y2="0.597" transform="translate(430.38 339.994)" fill="none" stroke="#1a1818" stroke-miterlimit="10" stroke-width="0.799"/>
    <line id="Line_28" data-name="Line 28" x1="0.597" y2="0.597" transform="translate(429.782 335.81)" fill="none" stroke="#1a1818" stroke-miterlimit="10" stroke-width="0.799"/>
    <path id="Path_921" data-name="Path 921" d="M415.244,320.231v-1.793c1.795,2.99,2.393,6.577,3.587,10.164,0,1.2,2.392,8.37.6,4.783" transform="translate(10.352 9.001)" fill="none" stroke="#1a1818" stroke-miterlimit="10" stroke-width="0.799"/>
    <path id="Path_922" data-name="Path 922" d="M415.849,317.9c-2.392-.6,2.391,7.771,2.989,11.956,0-1.793-2.391-5.977-1.792-4.185" transform="translate(10.345 8.946)" fill="none" stroke="#1a1818" stroke-miterlimit="10" stroke-width="0.799"/>
    <path id="Path_923" data-name="Path 923" d="M372.1,336.536v4.782" transform="translate(5.075 11.23)" fill="none" stroke="#1a1818" stroke-miterlimit="10" stroke-width="0.799"/>
    <path id="Path_924" data-name="Path 924" d="M372.628,338.668c.6,0,.6.6.6,1.194" transform="translate(5.141 11.49)" fill="none" stroke="#1a1818" stroke-miterlimit="10" stroke-width="0.799"/>
    <path id="Path_925" data-name="Path 925" d="M431.681,283.8c5.978,4.783,1.2,12.555-4.185,14.947" transform="translate(11.851 4.78)" fill="none" stroke="#1a1818" stroke-miterlimit="10" stroke-width="0.799"/>
    <path id="Path_926" data-name="Path 926" d="M430.616,292.854a10.728,10.728,0,0,1-4.185,2.99" transform="translate(11.721 5.887)" fill="none" stroke="#1a1818" stroke-miterlimit="10" stroke-width="0.799"/>
    <path id="Path_927" data-name="Path 927" d="M351.318,366.369h1.2" transform="translate(2.534 14.878)" fill="none" stroke="#1a1818" stroke-miterlimit="10" stroke-width="0.799"/>
    <path id="Path_928" data-name="Path 928" d="M358.44,359.977c-2.393,2.99-2.393,5.38,0,7.77" transform="translate(3.186 14.096)" fill="none" stroke="#1a1818" stroke-miterlimit="10" stroke-width="0.799"/>
    <path id="Path_929" data-name="Path 929" d="M363.571,361.574a27.925,27.925,0,0,0,1.2,2.99" transform="translate(4.033 14.292)" fill="none" stroke="#1a1818" stroke-miterlimit="10" stroke-width="0.799"/>
    <path id="Path_930" data-name="Path 930" d="M412.048,355.715c.6.6.6,2.392.6,4.184" transform="translate(9.962 13.575)" fill="none" stroke="#1a1818" stroke-miterlimit="10" stroke-width="0.799"/>
    <path id="Path_931" data-name="Path 931" d="M417.907,354.115c.6,1.2.6,3.589.6,5.381" transform="translate(10.678 13.379)" fill="none" stroke="#1a1818" stroke-miterlimit="10" stroke-width="0.799"/>
    <path id="Path_932" data-name="Path 932" d="M433.889,353.584c.6,1.793,1.793,4.783,2.39,4.783" transform="translate(12.633 13.314)" fill="none" stroke="#1a1818" stroke-miterlimit="10" stroke-width="0.799"/>
    <path id="Path_933" data-name="Path 933" d="M439.748,354.115a4.689,4.689,0,0,1,.6,4.785" transform="translate(13.349 13.379)" fill="none" stroke="#1a1818" stroke-miterlimit="10" stroke-width="0.799"/>
    <path id="Path_934" data-name="Path 934" d="M379.019,282.4c.6-.6,4.783-1.793,7.175-1.793a7.2,7.2,0,0,0-3.587,7.772c1.792-1.2,2.392-2.392,4.185-3.587" transform="translate(5.922 4.389)" fill="none" stroke="#1a1818" stroke-miterlimit="10" stroke-width="0.799"/>
    <path id="Path_935" data-name="Path 935" d="M386.271,281.667c-1.2,1.795-1.793,3.588-2.99,5.381a7.62,7.62,0,0,0,3.587-2.392" transform="translate(6.443 4.519)" fill="none" stroke="#1a1818" stroke-miterlimit="10" stroke-width="0.799"/>
    <path id="Path_936" data-name="Path 936" d="M390.445,281.329c-1.2,2.393-2.991,5.381-4.186,7.773a8.256,8.256,0,0,0-7.772-5.98c1.2,4.783,5.977,2.393,8.37-1.793,0,.6-1.2,2.393-1.2,2.99a30.035,30.035,0,0,0,4.783-4.185,17.59,17.59,0,0,0-5.981,7.175,21.058,21.058,0,0,0,4.783-7.773c-2.989.6-6.576,2.392-7.174,4.186" transform="translate(5.857 4.259)" fill="none" stroke="#1a1818" stroke-miterlimit="10" stroke-width="0.799"/>
    <path id="Path_937" data-name="Path 937" d="M371,297.682c2.432,4.115,9.913,5.424,14.029,3.554a5.879,5.879,0,0,0,2.618-2.058c.561-.747,1.5-3.928,1.122-2.992" transform="translate(4.941 6.274)" fill="none" stroke="#1a1818" stroke-miterlimit="10" stroke-width="0.799"/>
    <path id="Path_938" data-name="Path 938" d="M386.667,296.241c1.122-.561,2.806,2.432,4.114,2.993a10.2,10.2,0,0,0,5.8,0,8.967,8.967,0,0,0,5.238-6.734" transform="translate(6.858 5.844)" fill="none" stroke="#1a1818" stroke-miterlimit="10" stroke-width="0.799"/>
    <path id="Path_939" data-name="Path 939" d="M384.5,300.846c.749,1.5,2.432,4.3,4.3,4.3,2.993,0,4.115-3.553,3.181-5.611-.187,1.683,0,3.742-1.122,4.864-1.31-1.31-.749-3.554-1.122-5.238a27.572,27.572,0,0,0-.187,3.928c0-1.683.374-4.489-1.122-5.424a14.183,14.183,0,0,0,0,5.611c.374-1.871.561-4.489-1.122-5.611a8.329,8.329,0,0,0-.749,5.611c1.871-.187,1.871-3.367-.374-2.806a6.528,6.528,0,0,0,2.618,4.3c0-.561.375-1.31,0-2.057h.749" transform="translate(6.593 6.476)" fill="none" stroke="#1a1818" stroke-miterlimit="10" stroke-width="0.799"/>
    <path id="Path_940" data-name="Path 940" d="M387.167,298.041a6.222,6.222,0,0,1,2.245,2.618c-.375-1.122-.936-2.057-1.31-2.992a6.376,6.376,0,0,1,2.057,3.367,7.292,7.292,0,0,1-1.309-2.993,4.949,4.949,0,0,1,2.618,3.179,7.843,7.843,0,0,1-.749-2.992,6.8,6.8,0,0,1,.375,2.618" transform="translate(6.919 6.476)" fill="none" stroke="#1a1818" stroke-miterlimit="10" stroke-width="0.799"/>
  </g>
</svg>
