<svg xmlns="http://www.w3.org/2000/svg" width="135.926" height="139.052" viewBox="0 0 135.926 139.052">
  <g id="Group_428" data-name="Group 428" transform="translate(-334.935 -245.223)">
    <path id="Path_981" data-name="Path 981" d="M377.814,285.213c.228-9.2-2.658-5.481-8.773-3.481-3.93,1.286-9.36,2.706-13.011,1.286-6.946-2.7-13.723-13.658-17.913-19.444,6.805-6.591,18.388-1.994,26.067-.657-2.421-2.2-5.536-4.652-6.766-7.429,7.353-1.014,12.745,6.865,19.84,6.917,5.35.039,11.311-4.93,17.6-2.337-2.2,1.083-4.776,2.181-5.988,4.674,10.752,10.58,23.17-.712,32.81-7.016,10.722-7.011,22.822-9.7,35.014-11.623a10.038,10.038,0,0,1-3.813,4.048c3.039-.535,6.815-2.52,9.208-.026-.688,1.009-1.015,2.545-1.724,3.417.467-.291,1.126-.714,1.592-1.02a28.688,28.688,0,0,0-3.364,5.689c.435.158.85-.087,1.186.026-3.852,5.762-8.966,12.438-13.992,17.018-5.049,4.6-9.1,3.858-15.833,4.2-.165,3.26.583,7.432-.8,10.309-1.943,4.036-4.386,2.627-7.5,4.193-10.586,5.321,4.832,8.149-.48,13.6,7.679,10.289,14.411,23.981,18.638,36.144,1.367,3.935.937,15.957,4.652,18.029,5.3,2.952,13.428-5.926,15.7-9.663a12.673,12.673,0,0,1-.833,7.335c3.889-1.316,7.486-1.773,10.92-3.962,2.713,10.261-17.043,16.278-24.035,17.486a21.016,21.016,0,0,0-6.844,2.52c-1.256.718-1.88,2.251-3.037,2.9-1.935,1.09-2.162-.22-4.14.563-5.026,1.987-10.007,2.563-15.09,3.9.3-7.161-3.9-6.127-7.28-11.462-3.016-4.765-3.915-10.683-6.433-15.906-3.66,5.815,4.372,23.977-3.176,28.2-1.477.826-9.851-1.224-11.416-1.765-1.075-.373-4.465-2.286-4.986-3.235-2.4-4.358.051-2.235,2.193-4.527,1.977-2.116,2.411-.332,3.509-4.1.591-2.025.11-5.452,0-7.572-.267-5.079-1.721-9.713-1.755-14.653-.067-9.656.689-19.324,1.17-28.658a59.1,59.1,0,0,0-.1-6.332c-3.756-1.993-.34-11.235.628-14.648a34.147,34.147,0,0,0-8.042,2.8c.1-.845-.287-1.978-.177-2.82-1.636.778-3.4,1.309-4.735,2.646-.942-2.744-3.693-3.114-6.213-3.262.953-3.537,4.528-5.829,4.6-9.971" transform="translate(0.141 0.017)" fill="#f2e0c5"/>
    <path id="Path_982" data-name="Path 982" d="M378.905,264.416c-6.231-6.231-17.447-9.971-26.171-9.347a108.618,108.618,0,0,0,8.724,7.478c-1.246,0-2.493,0-3.115-.623" transform="translate(2.622 1.527)" fill="none" stroke="#1a1818" stroke-miterlimit="10" stroke-width="0.799"/>
    <path id="Path_983" data-name="Path 983" d="M360.341,261.3c-4.985-1.246-11.216-3.116-16.2-2.493a2.29,2.29,0,0,1,1.87.623c-2.493.623-5.608,1.869-8.724,1.869h0c12.462,4.362,18.07,29.91,34.271,17.447" transform="translate(0 2.152)" fill="none" stroke="#1a1818" stroke-miterlimit="10" stroke-width="0.799"/>
    <path id="Path_984" data-name="Path 984" d="M403.342,260.334a21.182,21.182,0,0,0,6.231.623h-1.247v-.623c12.463-9.346,24.3-11.215,38.634-14.331-2.493,1.869-5.609,3.738-8.725,5.608a28.236,28.236,0,0,1,9.969-1.869c.623,0-.622,1.247-.622,1.247h4.362c-2.493,2.491-5.608,4.984-8.1,8.1,1.246-.623,3.738,0,4.984-.623-4.361,4.985-9.346,12.462-13.708,16.825-6.231,5.608-9.971,4.361-18.694,3.738" transform="translate(11.211 0)" fill="none" stroke="#1a1818" stroke-miterlimit="10" stroke-width="0.799"/>
    <path id="Path_985" data-name="Path 985" d="M365.519,277.262c1.247-1.246,4.985-1.869,6.854-2.493v1.247s1.869,1.246,1.869,1.869h0a43.51,43.51,0,0,0-8.1,14.955c1.869-1.247,4.362-1.869,6.231-3.116-.622,1.247,0,4.363-1.246,6.231,2.491-1.868,5.608-2.492,8.723-3.738-.622,1.247-.622,1.87-1.246,3.116,1.87-1.246,5.609-1.869,7.478-3.116h-.623c.623,4.362-3.115,8.724-2.493,13.709a9.992,9.992,0,0,0,9.347-.623" transform="translate(4.792 4.882)" fill="none" stroke="#1a1818" stroke-miterlimit="10" stroke-width="0.799"/>
    <path id="Path_986" data-name="Path 986" d="M386.827,306.368c2.494.622,22.433-1.87,28.042-4.363-.622-3.738-3.74-7.477-6.856-9.346h0v-.623c2.494-1.246,10.594-1.869,12.463-5.608,1.869-3.116-1.869-8.1-1.869-10.593" transform="translate(8.408 5.063)" fill="none" stroke="#1a1818" stroke-miterlimit="10" stroke-width="0.799"/>
    <path id="Path_987" data-name="Path 987" d="M393.229,291.565c1.247,0-1.246,0-3.738-1.87a12.3,12.3,0,0,1,8.724-3.738,17.657,17.657,0,0,1-2.493,8.1c-.622-.622-3.115-2.492-3.738-3.738,1.869-.623,3.116-1.869,4.985-1.869v-.623c-1.247,0-2.493,0-3.116.623,0-.623.623-2.493,1.247-2.493,1.869,1.246,0,.623-.623,1.246" transform="translate(8.86 6.781)" fill="none" stroke="#1a1818" stroke-miterlimit="10" stroke-width="0.799"/>
    <path id="Path_988" data-name="Path 988" d="M381.5,264.7c12.462,3.116,11.216,11.216,23.677.623a9.171,9.171,0,0,1-8.723-6.854c3.738-1.869,6.23,1.869,8.1,5.609-1.87-2.493-4.362-4.985-6.231-8.1,3.738-2.493,6.853-7.477,11.216-9.969,6.231,10.593,3.738,12.462-5.608,18.071h-.625c-.623-3.74-2.491-7.478-6.231-8.724-2.493,6.231-13.086,4.984-15.577,9.969" transform="translate(7.504 0)" fill="none" stroke="#1a1818" stroke-miterlimit="10" stroke-width="0.799"/>
    <path id="Path_989" data-name="Path 989" d="M374.042,259.754a13.187,13.187,0,0,1,11.84-2.493h0l1.87,1.869" transform="translate(6.238 1.828)" fill="none" stroke="#1a1818" stroke-miterlimit="10" stroke-width="0.799"/>
    <path id="Path_990" data-name="Path 990" d="M388.426,301.938c.623,6.855,14.331,12.462,13.084,0" transform="translate(8.679 9.493)" fill="none" stroke="#1a1818" stroke-miterlimit="10" stroke-width="0.799"/>
    <path id="Path_991" data-name="Path 991" d="M408.668,299.274c0,.623,0,.623.623.623" transform="translate(12.114 9.041)" fill="none" stroke="#1a1818" stroke-miterlimit="10" stroke-width="0.799"/>
    <path id="Path_992" data-name="Path 992" d="M383.045,300.872c.622,17.447-3.116,33.649.622,50.473,1.247,5.608,3.116,10.593.625,15.578-3.74-1.248-4.985,0-8.1.621-.622,3.738,1.247,3.738,4.362,4.364" transform="translate(6.582 9.312)" fill="none" stroke="#1a1818" stroke-miterlimit="10" stroke-width="0.799"/>
    <path id="Path_993" data-name="Path 993" d="M385.771,359.47c-1.869,0-3.738,1.246-3.738,4.984a8.7,8.7,0,0,0,5.608-1.869" transform="translate(7.594 19.257)" fill="none" stroke="#1a1818" stroke-miterlimit="10" stroke-width="0.799"/>
    <path id="Path_994" data-name="Path 994" d="M388.607,361.179c-.623,1.243-1.248,1.869-1.248,3.114,7.478,3.116,8.1-6.23,7.478-11.215" transform="translate(8.498 18.172)" fill="none" stroke="#1a1818" stroke-miterlimit="10" stroke-width="0.799"/>
    <path id="Path_995" data-name="Path 995" d="M394.294,320.582c-.622.623-3.115,7.478-3.738,10.594,1.247-1.247,3.116-1.869,4.362-3.116-1.246,2.492-1.246,5.609-2.493,8.1,1.247-.623,1.869-1.247,3.116-1.868-.623,1.245-.623,2.491-1.247,3.737h-.622c1.246,5.609,4.361,11.216,6.853,16.2" transform="translate(9.041 12.657)" fill="none" stroke="#1a1818" stroke-miterlimit="10" stroke-width="0.799"/>
    <path id="Path_996" data-name="Path 996" d="M403.874,320.582c0,16.2,10.593,37.388,0,49.226,2.493,1.246,4.362.623,6.853-1.245" transform="translate(11.301 12.657)" fill="none" stroke="#1a1818" stroke-miterlimit="10" stroke-width="0.799"/>
    <path id="Path_997" data-name="Path 997" d="M410.43,362.235c-.625.621-2.493.621.623,2.49a23.137,23.137,0,0,1,3.738-4.36c0,.621.622,2.49.622,3.114a7.442,7.442,0,0,0,4.985-5.609" transform="translate(12.222 18.986)" fill="none" stroke="#1a1818" stroke-miterlimit="10" stroke-width="0.799"/>
    <path id="Path_998" data-name="Path 998" d="M414.086,325.739a3.745,3.745,0,0,0-.623-2.493c.623,9.971,3.115,21.186,5.608,30.534a6.293,6.293,0,0,1-.623-1.87c0,1.87,3.116,16.823,1.247,11.216" transform="translate(12.928 13.109)" fill="none" stroke="#1a1818" stroke-miterlimit="10" stroke-width="0.799"/>
    <path id="Path_999" data-name="Path 999" d="M410.8,300.34c9.968,11.839,17.446,34.271,19.939,49.226l-1.247-1.246c1.87,4.362,2.493,4.984,2.493,4.362" transform="translate(12.476 9.222)" fill="none" stroke="#1a1818" stroke-miterlimit="10" stroke-width="0.799"/>
    <path id="Path_1000" data-name="Path 1000" d="M430.6,345.107c1.869,7.477,11.84-4.362,15.578-7.478h0c1.247,3.116,0,6.232-2.493,8.725a61.784,61.784,0,0,0,10.594-6.855c3.738,8.723-17.447,21.186-24.3,16.824" transform="translate(15.731 15.55)" fill="none" stroke="#1a1818" stroke-miterlimit="10" stroke-width="0.799"/>
    <path id="Path_1001" data-name="Path 1001" d="M419.864,332.835c-2.492,1.246-3.738,4.985-3.738,8.1" transform="translate(13.38 14.737)" fill="none" stroke="#1a1818" stroke-miterlimit="10" stroke-width="0.799"/>
    <path id="Path_1002" data-name="Path 1002" d="M398.547,350.414c.622,0,3.738,3.74,6.231,5.609" transform="translate(10.397 17.72)" fill="none" stroke="#1a1818" stroke-miterlimit="10" stroke-width="0.799"/>
    <path id="Path_1003" data-name="Path 1003" d="M393.279,340.293c0,3.116-1.247,16.2.622,13.086" transform="translate(9.434 16.002)" fill="none" stroke="#1a1818" stroke-miterlimit="10" stroke-width="0.799"/>
    <path id="Path_1004" data-name="Path 1004" d="M393.752,350.947a13.6,13.6,0,0,0,3.116,1.869" transform="translate(9.583 17.81)" fill="none" stroke="#1a1818" stroke-miterlimit="10" stroke-width="0.799"/>
    <path id="Path_1005" data-name="Path 1005" d="M398.015,354.144c1.245,1.868,3.115,3.115,4.361,1.868" transform="translate(10.307 18.353)" fill="none" stroke="#1a1818" stroke-miterlimit="10" stroke-width="0.799"/>
    <path id="Path_1006" data-name="Path 1006" d="M353.8,264.116c4.361,1.869,9.968,3.115,14.331,5.609v.622a29.38,29.38,0,0,1-10.593-2.492c1.245.622,1.869.622,3.115,1.245" transform="translate(2.803 3.074)" fill="none" stroke="#1a1818" stroke-miterlimit="10" stroke-width="0.799"/>
    <path id="Path_1007" data-name="Path 1007" d="M415.061,265.534c2.493-3.737,9.971-7.477,12.463-5.606" transform="translate(13.199 2.279)" fill="none" stroke="#1a1818" stroke-miterlimit="10" stroke-width="0.799"/>
    <path id="Path_1008" data-name="Path 1008" d="M426.178,260.92c-2.494,1.246-4.985,2.491-6.854,4.984,1.869-.623,4.984-1.246,6.854-2.493-.625,1.247-1.247.623-2.494,1.247" transform="translate(13.923 2.532)" fill="none" stroke="#1a1818" stroke-miterlimit="10" stroke-width="0.799"/>
    <line id="Line_29" data-name="Line 29" x2="0.934" y2="0.936" transform="translate(439.165 370.314)" fill="none" stroke="#1a1818" stroke-miterlimit="10" stroke-width="0.799"/>
    <path id="Path_1009" data-name="Path 1009" d="M425.062,352.277c2.8.936,1.868,3.741,5.608,2.806h-.935c-2.8,1.868-6.543,4.673-9.347,6.542,0-1.869,1.869-4.674,2.8-6.542" transform="translate(14.104 18.036)" fill="none" stroke="#1a1818" stroke-miterlimit="10" stroke-width="0.799"/>
    <path id="Path_1010" data-name="Path 1010" d="M395.421,309.042c-4.971,6.433,7.9,2.339.585-.292" transform="translate(9.667 10.649)" fill="none" stroke="#1a1818" stroke-miterlimit="10" stroke-width="0.799"/>
    <path id="Path_1011" data-name="Path 1011" d="M388.868,276.848c-.779-.779.585,3.12.585,4.289a9.126,9.126,0,0,0-.39-3.314,3.934,3.934,0,0,0,.585,2.144" transform="translate(8.713 5.217)" fill="none" stroke="#1a1818" stroke-miterlimit="10" stroke-width="0.799"/>
    <path id="Path_1012" data-name="Path 1012" d="M396.876,276.517c-.779-.78.2,2.535.391,3.314a9.1,9.1,0,0,0-.391-3.314,6.935,6.935,0,0,0,.585,2.535" transform="translate(10.063 5.159)" fill="none" stroke="#1a1818" stroke-miterlimit="10" stroke-width="0.799"/>
    <path id="Path_1013" data-name="Path 1013" d="M384.667,297.285c3.9,1.95,10.527.2,12.087-3.118" transform="translate(8.041 8.174)" fill="none" stroke="#1a1818" stroke-miterlimit="10" stroke-width="0.799"/>
    <path id="Path_1014" data-name="Path 1014" d="M394.667,294.5a10.443,10.443,0,0,0,6.433,1.365c1.364-.2,4.288-1.95,3.7-2.535" transform="translate(9.738 8.033)" fill="none" stroke="#1a1818" stroke-miterlimit="10" stroke-width="0.799"/>
  </g>
</svg>
