<svg xmlns="http://www.w3.org/2000/svg" width="40.992" height="41" viewBox="0 0 40.992 41">
  <g id="Group_152" data-name="Group 152" transform="translate(1.494 0.818)">
    <path id="Path_281" data-name="Path 281" d="M198.436,193c-6.659,0-6.649,10.062,0,10.062S205.086,193,198.436,193Z" transform="translate(-179.377 -178.348)" fill="#fff"/>
    <path id="Path_282" data-name="Path 282" d="M112.051,100.694v0c-10.062.01-11.016.2-11.016,12.37,0,12.029.346,12.373,12.37,12.373,6.594,0,11.959.773,12.281-6.273C126.592,99.239,124.95,100.673,112.051,100.694Zm1.352,20.122a7.75,7.75,0,0,1,0-15.5h0a7.75,7.75,0,0,1,0,15.5Zm8.056-14a1.81,1.81,0,1,1,1.81-1.81A1.811,1.811,0,0,1,121.458,106.82Z" transform="translate(-94.344 -93.381)" fill="#fff"/>
    <path id="Path_283" data-name="Path 283" d="M39.457,8.1c-.4-5.121-3.554-8.073-7.708-8.67C30.8-.7,30.606-.745,25.722-.753,8.4-.745,4.6-1.516,1.18,2.028h0C-2.032,5.364-1.375,8.908-1.375,19.675c0,8.941-1.56,17.9,6.6,20.015,2.55.656,25.139.656,27.685,0,3.4-.877,6.165-3.634,6.543-8.442C39.512,30.573,39.512,8.789,39.457,8.1Zm-6.1,21.466c-2.27,5.825-8.376,5.208-14.3,5.208-6.138,0-12.058.552-14.3-5.208-.916-2.359-.792-6.005-.792-9.885,0-4.421-.135-7.509.792-9.886C7,4.044,12.873,4.593,19.056,4.593c5.746,0,9.66-.362,12.555,2.533,2.86,2.858,2.534,6.664,2.534,12.56C34.145,24.127,34.281,27.169,33.353,29.57Z" transform="translate(0 0)" fill="#fff"/>
    <path id="Path_284" data-name="Path 284" d="M255.879,66.965h0Z" transform="translate(-236.82 -62.372)" fill="#fff"/>
  </g>
</svg>
