<svg xmlns="http://www.w3.org/2000/svg" width="93.573" height="129.638" viewBox="0 0 93.573 129.638">
  <g id="Group_138" data-name="Group 138" transform="translate(-946 -219)">
    <path id="Path_66" data-name="Path 66" d="M346.579,234.713c-.151.318-.311.632-.474.943a40.18,40.18,0,0,1-8.295,11.015c-1.486-4.031-.667-7.562-3.441-10.844A29.858,29.858,0,0,0,340.713,227c.171-.341.33-.691.485-1.04a40.145,40.145,0,0,0,2.584-8.1,50.794,50.794,0,0,0,.834-5.552,79.96,79.96,0,0,0,.209-11.329,1.583,1.583,0,0,1,2.96-.854,13.58,13.58,0,0,1,.842,1.913,40.191,40.191,0,0,1,2.328,12.966A43.742,43.742,0,0,1,346.579,234.713Z" transform="translate(677.718 66.759)" fill="#e9be4d"/>
    <g id="Group_100" data-name="Group 100" transform="translate(1023.978 285.214)">
      <path id="Path_67" data-name="Path 67" d="M373.535,251.243a.412.412,0,0,0-.454.3c-.085.477-.171.951-.276,1.424l-.154.694c-.025.115-.055.231-.074.348a.915.915,0,0,0,.05.608.514.514,0,0,0,.8.109,1.4,1.4,0,0,0,.247-.9l.061-.733c.04-.482.1-.96.158-1.44A.411.411,0,0,0,373.535,251.243Z" transform="translate(-370.369 -251.24)" fill="#462a1b"/>
      <path id="Path_68" data-name="Path 68" d="M368.316,265.927c-.272,1.032-.577,2.054-.88,3.077-.146.493-.3.983-.442,1.477a4.636,4.636,0,0,0-.353,1.626c.036.366.526.691.818.339a4.112,4.112,0,0,0,.631-1.554c.146-.513.273-1.031.4-1.551.249-1.06.45-2.129.647-3.2A.422.422,0,0,0,368.316,265.927Z" transform="translate(-366.634 -260.321)" fill="#462a1b"/>
    </g>
    <path id="Path_69" data-name="Path 69" d="M346.105,283.09A40.18,40.18,0,0,1,337.81,294.1c-1.486-4.031-.667-7.562-3.441-10.844a29.858,29.858,0,0,0,6.344-8.823A32.52,32.52,0,0,1,346.105,283.09Z" transform="translate(677.718 19.325)" fill="#462a1b"/>
    <path id="Path_70" data-name="Path 70" d="M368.513,215.011c-1-.369-2.3.667-3.085-.05-.435-.4-.388-1.082-.632-1.614-.516-1.145-1.606-.985-2.622-1.032a79.965,79.965,0,0,0,.209-11.329,1.583,1.583,0,0,1,2.96-.854,13.577,13.577,0,0,1,.842,1.913A40.191,40.191,0,0,1,368.513,215.011Z" transform="translate(660.161 66.759)" fill="#fff"/>
    <path id="Path_71" data-name="Path 71" d="M243.8,234c-.022.035-.048.067-.07.1l1.914.1.808.042a6.059,6.059,0,0,1,1.875.3c.594.23,1.463.482,1.62,1.1a2.165,2.165,0,0,1,2.585.786c.594.777.387,1.84.569,2.805.677.22,1.5.655,1.416,1.361a1.5,1.5,0,0,1-.783.959,13.114,13.114,0,0,1-8.387,2.077,5.922,5.922,0,0,1-1.6-.339c-.39-.153-.748-.367-1.125-.549a9.031,9.031,0,0,0-1.508-.534,24.376,24.376,0,0,0-2.936-.553c-.144-.019-.281-.038-.415-.055a1.964,1.964,0,0,0-.157.732,2.557,2.557,0,0,0,.022.409,11.64,11.64,0,0,0,.549,1.971,7.608,7.608,0,0,1,.294,2.9,1.66,1.66,0,0,1-.4,1.067,1.839,1.839,0,0,1-1.144.37,8.282,8.282,0,0,0-2.527.374c-1.361.751-2.981.06-4.477-.374a3.316,3.316,0,0,1-2.661,1.023,10.278,10.278,0,0,1-2.927-.7,1.718,1.718,0,0,1-2.118-.435,2.816,2.816,0,0,1-.53-2.22,8.359,8.359,0,0,1,.764-2.217c.559-1.236.933-2.585,1.492-3.818a.177.177,0,0,0-.042,0c-.176.006-.348.016-.524.029-.211.013-.419.025-.629.041-1.594.112-3.189.288-4.773.518q-2.794.407-5.541,1.067a.2.2,0,0,1-.045.006.512.512,0,0,1-.182-.019c-.166-.048-.32-.137-.467-.035a1.3,1.3,0,0,0-.237.221,1.614,1.614,0,0,0-.23.377c-.332.712-.335,1.681-.952,2.185a2.462,2.462,0,0,1-1.054.409c-.956.211-1.789-.367-2.668.058a5.977,5.977,0,0,1-4.789-.029,8.827,8.827,0,0,1-3.687.639c-.78-.035-1.719-.287-1.892-1.051-.827.658-2.163-.224-2.243-1.278a3.262,3.262,0,0,1,1.508-2.636,16.894,16.894,0,0,0,2.512-1.92c1.518-1.713,1.339-4.291,1.074-6.562-.1-.8-.147-1.617-.176-2.447-.166-4.451.3-9.279-1.578-13.142a29.618,29.618,0,0,1-2.25-19.241,3.838,3.838,0,0,0-.24-3.163,21.146,21.146,0,0,1-1.764-8.291,32.1,32.1,0,0,1,2.141-9.579q1.011-3.024,2.02-6.051v0q2.641-7.922,5.288-15.838c.329-.038.642-.083.946-.128.141-.019.281-.041.419-.064,1.2-.192,2.23-.419,3.377-.62.157-.029.313-.057.476-.083l.428-.067c.355-.057.732-.109,1.128-.157a98.207,98.207,0,0,0,11.122-1.808h0a43.562,43.562,0,0,0,6.6-2.093c.508.888,1.019,1.783,1.511,2.684a35.96,35.96,0,0,1,3.479,8.186,27.738,27.738,0,0,0,1.112,3.984c.764,1.8,2.112,3.281,3.054,4.991a22.13,22.13,0,0,1,2.25,6.531c.054.281.105.565.15.847.141.882.246,1.764.32,2.639,3.675,3.4,6.377,7.694,9.039,11.934a37.431,37.431,0,0,1,2.818,5.051c1.224,2.856,1.4,6.23,1.783,9.314,3.019,2.025,4.074,6.07,3.735,9.687a17.378,17.378,0,0,1-10.371,13.963,13.391,13.391,0,0,1-1.5,3.326C244.216,233.386,244.008,233.7,243.8,234Z" transform="translate(766.941 97.95)" fill="#f9c041"/>
    <path id="Path_72" data-name="Path 72" d="M327.054,358.157A6.381,6.381,0,0,0,326,357.3a3.311,3.311,0,0,0-1.188-.569c-.312-.059-.443.407-.126.483a1.938,1.938,0,0,1,.849.605c.259.259.493.539.727.821a1.743,1.743,0,0,1,.247.348s.031.062.041.08.027.078.029.087.011.042.017.066.007.075.007.077,0,.046,0,.07-.014.074-.013.074c-.005.02-.012.04-.018.06.007-.028-.013.027-.025.056a8.692,8.692,0,0,0-5.49-2.033c-.263-.007-.331.425-.06.467a9.47,9.47,0,0,1,4.945,2.519.542.542,0,0,0,.7.048.4.4,0,0,0,.114.017c.559-.01.824-.716.847-1.187A1.682,1.682,0,0,0,327.054,358.157Z" transform="translate(686.269 -32.638)" fill="#462a1b"/>
    <path id="Path_73" data-name="Path 73" d="M326.9,365.857a.583.583,0,0,0-.1-.22.915.915,0,0,0-.192-.173c-.063-.048-.126-.094-.191-.137a3.811,3.811,0,0,0-.421-.246,4.881,4.881,0,0,0-.965-.374.366.366,0,0,0-.442.258.371.371,0,0,0,.258.442l.112.04.05.019.012,0c-.037-.014.029.013.033.014l.048.021.1.044a3.257,3.257,0,0,1,.4.23l.087.06.043.031c.052.043.107.084.158.129s.111.1.165.151a.681.681,0,0,0,.349.2.423.423,0,0,0,.394-.107A.414.414,0,0,0,326.9,365.857Z" transform="translate(683.903 -37.67)" fill="#462a1b"/>
    <path id="Path_74" data-name="Path 74" d="M296.31,267.5a27.052,27.052,0,0,1,1.934,2.778c.268.442.491,1.089.083,1.406-.366.283-.9.007-1.225-.319a4.335,4.335,0,0,1,.433,3.333.971.971,0,0,1-.514.71.759.759,0,0,1-.4.012,1.3,1.3,0,0,1-.956-.845.519.519,0,0,0,.349-.044,2.42,2.42,0,0,1,0,1.24,1.269,1.269,0,0,1-.294.568,1.339,1.339,0,0,1-1.71-.107,2.707,2.707,0,0,1-1.024-2.253c.143-2.5,2.12-4.169,3.2-6.425C296.141,267.556,296.283,267.469,296.31,267.5Z" transform="translate(703.856 23.71)" fill="#462a1b"/>
    <path id="Path_75" data-name="Path 75" d="M202.4,232.958c-.123,1.677-1.442,3.222-1.824,4.336a1.075,1.075,0,0,0-.038.812.607.607,0,0,0,.969.1,1.739,1.739,0,0,0-.753,1.448,2.379,2.379,0,0,0-.005.725.72.72,0,0,0,1.182.483,2.379,2.379,0,0,0,.564-.6.235.235,0,0,0-.295.082.688.688,0,0,0-.1.317,1.616,1.616,0,0,0-.014.614,1.038,1.038,0,0,0,1,.719,2.036,2.036,0,0,0,1.218-.463,4.123,4.123,0,0,0,1.646-3.184Z" transform="translate(762.269 45.518)" fill="#462a1b"/>
    <g id="Group_101" data-name="Group 101" transform="translate(964.144 249.968)">
      <path id="Path_76" data-name="Path 76" d="M245.253,248.29a7.641,7.641,0,0,1,.295,2.9,1.678,1.678,0,0,1-.4,1.067,1.854,1.854,0,0,1-1.144.369,8.3,8.3,0,0,0-2.53.376c-1.358.749-2.98.058-4.474-.376a3.316,3.316,0,0,1-2.662,1.024,10.276,10.276,0,0,1-2.929-.7,1.72,1.72,0,0,1-2.118-.435,2.81,2.81,0,0,1-.528-2.219,8.451,8.451,0,0,1,.761-2.219c.562-1.234.935-2.584,1.494-3.818a.166.166,0,0,0-.043,0l-.256.011c-.089,0-.178.008-.268.015-.21.016-.419.027-.629.043l-.132.012c-.353.023-.71.054-1.063.085-.4.035-.8.074-1.2.116-.8.09-1.591.19-2.382.307v0a33.3,33.3,0,0,0-3.538-5.579,24.335,24.335,0,0,1-2.941-4.481c-.124-.268-.237-.543-.338-.822a9.1,9.1,0,0,1-.279-.9c-.213-.818-.306-1.668-.481-2.5a7.706,7.706,0,0,0-.283-1.028c-.531-1.49-1.629-2.763-1.963-4.311a13.185,13.185,0,0,1,.338-4.574c.745-5.195-1.129-10.328-3.189-15.2v0q-.291-.687-.582-1.362-2.182-5.069-4.361-10.138c-.314-.729-.628-1.459-.892-2.208a25.952,25.952,0,0,1-.764-2.693,55.32,55.32,0,0,1-1.466-14.681v0q2.642-7.921,5.288-15.837c.33-.039.644-.085.947-.128.14-.019.279-.042.419-.066,1.2-.19,2.231-.419,3.375-.621l.477-.081c.14-.023.283-.043.427-.066.357-.058.733-.109,1.129-.159a97.929,97.929,0,0,0,11.123-1.808h0c.908.159,1.816.322,2.724.5a1.889,1.889,0,0,1,1.979,2.068,57.325,57.325,0,0,1,.167,6.681,18.219,18.219,0,0,0,.074,3.562,15.641,15.641,0,0,0,1.4,3.938c.916,1.99,1.952,4.116,3.884,5.156a4.97,4.97,0,0,1,1.3.78,3.217,3.217,0,0,1,.609,1.032c3.755,8.951,1.664,19.612-3.639,27.744a8.471,8.471,0,0,0-.834,1.47,2.623,2.623,0,0,0-.209,1.331,2.431,2.431,0,0,0,.147.563v0a16.85,16.85,0,0,0,1.2,1.955c1.6,2.848-.07,6.867,1.921,9.459,1.009,1.319,2.7,1.878,4.287,2.367,1.144.353,2.576.718,3.445.07a1.434,1.434,0,0,0,.365-.38q-1.211,7.577-2.417,15.147c-.373,2.339-.64,5.044.784,6.863a2.933,2.933,0,0,0,.023.411A11.739,11.739,0,0,0,245.253,248.29Z" transform="translate(-204.278 -155.602)" fill="#fff"/>
    </g>
    <path id="Path_77" data-name="Path 77" d="M255.25,360.262v3.519l-1.92,5.723c-.089,0-.178.008-.268.016-.21.016-.419.027-.629.043l-.132.012c-.353.023-.71.054-1.063.085-.4.035-.8.074-1.2.116-.8.09-1.591.19-2.382.307v0a33.3,33.3,0,0,0-3.538-5.579,24.334,24.334,0,0,1-2.941-4.481c-.124-.268-.237-.543-.338-.822a9.089,9.089,0,0,1-.279-.9c-.213-.819-.306-1.668-.481-2.5l.039-.694.066-1.191c.322.307.648.613.962.927.656.656,1.284,1.335,1.92,2.014,1.742,1.866,3.639,4.539,6.425,4.714a13.463,13.463,0,0,0,4.78-.993l.625-.2C255.017,360.336,255.134,360.3,255.25,360.262Z" transform="translate(737.256 -30.859)" fill="#462a1b"/>
    <path id="Path_78" data-name="Path 78" d="M253.511,357.894c-.031.555-.081,1.11-.147,1.664-.2.066-.4.128-.605.194-.174.054-.349.112-.524.167-.291.093-.582.182-.873.276a10.835,10.835,0,0,1-5.187.675,7.77,7.77,0,0,1-3.709-2.006,26.128,26.128,0,0,1-3.05-3.523c-.539-.695-1.079-1.393-1.6-2.107-.062-.085-.124-.175-.186-.26-.473-.671-.915-1.362-1.435-2.006-.19-.241.132-.586.349-.345.369.4.757.784,1.152,1.16.322.307.648.613.962.927.656.656,1.284,1.335,1.92,2.014,1.742,1.866,3.639,4.539,6.425,4.714a13.464,13.464,0,0,0,4.78-.993l.625-.2c.116-.039.233-.078.349-.112C253.01,358.053,253.258,357.972,253.511,357.894Z" transform="translate(739.748 -28.732)" fill="#462a1b"/>
    <path id="Path_79" data-name="Path 79" d="M296.987,264.547a26.946,26.946,0,0,1,1.934,2.778c.268.441.491,1.089.083,1.406-.366.283-.9.007-1.225-.319a4.335,4.335,0,0,1,.433,3.333.972.972,0,0,1-.514.709.76.76,0,0,1-.4.013,1.3,1.3,0,0,1-.956-.846.519.519,0,0,0,.349-.044,2.419,2.419,0,0,1,0,1.24,1.259,1.259,0,0,1-.294.568,1.338,1.338,0,0,1-1.709-.107,2.707,2.707,0,0,1-1.024-2.253c.143-2.5,2.12-4.169,3.2-6.425C296.819,264.6,296.96,264.513,296.987,264.547Z" transform="translate(703.428 25.576)" fill="#fff"/>
    <path id="Path_80" data-name="Path 80" d="M258.47,180.9c-1.131-.035-2.265-.135-3.381-.269a51.763,51.763,0,0,1-8.007-1.594,8.6,8.6,0,0,1-2.24-.885,8.889,8.889,0,0,1-1.706-1.645A16,16,0,0,0,233.96,172c-3.975-.617-4.8-1.92-6.914-4.288-1.412-1.572-2.339-2.658-2.233-4.61a17.765,17.765,0,0,1,.329-2.569c1.438-.2,2.821-.409,4.6-.565,4.48-.39,8.93-.821,13.272-1.575h0c1.876-.326,3.732-.712,5.56-1.182a35.959,35.959,0,0,1,3.479,8.185,27.737,27.737,0,0,0,1.112,3.984c.764,1.8,2.112,3.281,3.054,4.991A22.13,22.13,0,0,1,258.47,180.9Z" transform="translate(746.904 93.351)" fill="#462a1b"/>
    <g id="Group_102" data-name="Group 102" transform="translate(989.689 285.291)">
      <path id="Path_81" data-name="Path 81" d="M279.091,307.744a8.477,8.477,0,0,1-.943,1.556,5.678,5.678,0,0,0-.632,1.688,20.172,20.172,0,0,0-.31,3.717c-.008.33-.024.656-.043.985-.031.555-.081,1.11-.147,1.664-.055.474-.124.951-.206,1.424a22.855,22.855,0,0,1-1.106,4.02c-.291.788-.593,1.594-.958,2.363-.175.008-.345.015-.524.027-.21.016-.419.027-.629.043a26.16,26.16,0,0,0,1.378-3.441,28.125,28.125,0,0,0,.915-4.074c.023-.143.043-.283.058-.427q.076-.622.116-1.245c.058-.877.074-1.758.112-2.638a10.888,10.888,0,0,1,.609-3.581,6.434,6.434,0,0,1,.912-1.583,3.073,3.073,0,0,0,.5-.8,2.172,2.172,0,0,0,.058-.893c-.113-1.478-.4-2.933-.52-4.407-.256-3-.256-6.033-.279-9.04,0-.206,0-.415,0-.625a5.708,5.708,0,0,1-.78-1.187A10.13,10.13,0,0,1,276,289.73a7.68,7.68,0,0,1-.376-1.672c-.055-.527-.081-1.071-.1-1.606-.016-.431.7-.531.76-.1a10.38,10.38,0,0,0,.924,2.883c.1.225.209.446.322.663.023-.423.043-.85.074-1.273.1-1.5.345-2.98.516-4.47.066-.59.981-.617.943,0-.109,1.723-.078,3.453-.132,5.179,0,.027,0,.058,0,.085-.019.632-.043,1.261-.062,1.894v0c-.031,1.044-.062,2.083-.081,3.127-.07,3.019.221,6.018.287,9.032.015.756.023,1.517.089,2.269A5,5,0,0,1,279.091,307.744Z" transform="translate(-273.593 -271.819)" fill="#462a1b"/>
      <path id="Path_82" data-name="Path 82" d="M326.085,280.612a11.876,11.876,0,0,1-2.1,3.214,4.8,4.8,0,0,1-1.63,1.077,4.452,4.452,0,0,1-1.035.256,4.791,4.791,0,0,1-1.093.064c-.377.367-.764.722-1.15,1.061a30.972,30.972,0,0,1-3.364,2.543c-.588.39-1.208.732-1.825,1.077a15.678,15.678,0,0,1-1.5.764q-.163,1.337-.252,2.69a32.6,32.6,0,0,1-.7,5.623c-.425,1.729-1.173,3.508-.422,5.259a12.66,12.66,0,0,0,.824,1.518c-.144-.019-.281-.038-.415-.055a1.965,1.965,0,0,0-.157.732,2.557,2.557,0,0,0,.022.409,13.9,13.9,0,0,1-1.39-3.013c-.549-2.061.4-4.074.773-6.068a54.234,54.234,0,0,0,.562-5.62c.048-.594.118-1.185.2-1.776a.381.381,0,0,1,.016-.1c.166-1.221.39-2.435.661-3.642.137-.607.281-1.214.425-1.818.3-1.243.6-2.489.831-3.748a32.7,32.7,0,0,0,.534-5.78c.029-3.866-.217-7.742-.387-11.6-.09-1.981-.207-3.965-.22-5.949s.067-3.965.022-5.949c-.01-.435.639-.425.668,0,.15,2.224.486,4.435.613,6.665s.233,4.441.336,6.662a83.348,83.348,0,0,1,.067,11.576,100.816,100.816,0,0,1-2.141,11.084c-.105.515-.2,1.032-.281,1.546.291-.2.585-.39.872-.591.623-.431,1.233-.882,1.847-1.323a28.678,28.678,0,0,0,5.789-5.352,21.581,21.581,0,0,0,2.013-3.109,14.179,14.179,0,0,0,1.543-3.413c.09-.374.623-.217.565.147-.121.738-.185,1.489-.364,2.217a12.042,12.042,0,0,1-.77,2.131,16.076,16.076,0,0,1-2.575,3.866,3.39,3.39,0,0,0,.585-.147,3.561,3.561,0,0,0,1.23-.792,10.319,10.319,0,0,0,1.9-2.818C325.523,279.554,326.366,280.046,326.085,280.612Z" transform="translate(-296.421 -251.45)" fill="#462a1b"/>
    </g>
    <path id="Path_83" data-name="Path 83" d="M326.838,376.647a4.8,4.8,0,0,1-1.166.291,4.5,4.5,0,0,0-1.208.467,5.538,5.538,0,0,0-1.121.747c-.176.154-.355.3-.53.457a2.1,2.1,0,0,0-.4.521.408.408,0,0,1-.709-.4,6.711,6.711,0,0,1,.844-1.422,5.487,5.487,0,0,1,1.249-1.07,5.583,5.583,0,0,1,1.553-.658c.08-.022.166-.042.256-.064-.195.323-.4.636-.614.933-.022.035-.048.067-.07.1Z" transform="translate(685.744 -44.5)" fill="#462a1b"/>
    <path id="Path_84" data-name="Path 84" d="M213.063,379.243c-.581.7-.447,1.962-1.182,2.562a2.462,2.462,0,0,1-1.054.409c-.956.211-1.789-.367-2.668.058a5.977,5.977,0,0,1-4.789-.029,8.827,8.827,0,0,1-3.687.639c-.78-.035-1.719-.287-1.892-1.051-.827.658-2.163-.224-2.243-1.278a3.262,3.262,0,0,1,1.508-2.636,16.9,16.9,0,0,0,2.512-1.92c1.518-1.713,1.339-4.291,1.074-6.562-.1-.8-.147-1.617-.176-2.447.9.5,1.808,1.147,3.045.735a6.055,6.055,0,0,1,2.029-.61c.6.025,1.141.37,1.738.425a4.8,4.8,0,0,0,2.326-.741,2.211,2.211,0,0,1,2.336,0A44.1,44.1,0,0,0,213.063,379.243Z" transform="translate(765.382 -38.782)" fill="#fff"/>
    <path id="Path_85" data-name="Path 85" d="M335.494,384.636a.72.72,0,0,1-.016.09,1.608,1.608,0,0,1-.767.869,13.113,13.113,0,0,1-8.387,2.077,5.923,5.923,0,0,1-1.6-.339c-.39-.153-.748-.367-1.125-.549a9.035,9.035,0,0,0-1.508-.534c-.105-.2-.2-.412-.284-.623a6.815,6.815,0,0,1-.313-.959,5.87,5.87,0,0,1-.176-1.7,5.781,5.781,0,0,1,2.272-4.32,3.8,3.8,0,0,1,1.185-.607c-.022.035-.048.067-.07.1l2.722.144a6.058,6.058,0,0,1,1.875.3c.594.23,1.463.482,1.62,1.1a2.165,2.165,0,0,1,2.585.786c.594.776.387,1.84.569,2.805a2.5,2.5,0,0,1,1.268.789A.812.812,0,0,1,335.494,384.636Z" transform="translate(685.961 -46.099)" fill="#fff"/>
    <path id="Path_86" data-name="Path 86" d="M204.232,315.392a.588.588,0,0,1-.1-.246,1.5,1.5,0,0,0-.032-.2c-.036-.14-.078-.279-.112-.421-.064-.269-.135-.536-.2-.805s-.152-.537-.227-.807a2.278,2.278,0,0,0-.177-.487c-.068-.126-.139-.249-.2-.376a.357.357,0,0,0-.4-.167.367.367,0,0,0-.263.341,2.327,2.327,0,0,0,.052.947,4.179,4.179,0,0,0,.362.9,4.9,4.9,0,0,0,.529.758c.093.109.186.22.288.32a2.3,2.3,0,0,1,.343.322C204.152,315.552,204.286,315.48,204.232,315.392Z" transform="translate(760.99 -4.315)" fill="#462a1b"/>
    <path id="Path_87" data-name="Path 87" d="M214.549,339.585a13.591,13.591,0,0,0-.7-1.865q-.394-.986-.791-1.971a24.389,24.389,0,0,1-1.357-3.921c-.078-.363-.7-.3-.656.084a18.753,18.753,0,0,0,.771,4.25,10.827,10.827,0,0,0,.925,2.008,6.5,6.5,0,0,0,1.307,1.7A.3.3,0,0,0,214.549,339.585Z" transform="translate(755.594 -16.763)" fill="#462a1b"/>
    <path id="Path_88" data-name="Path 88" d="M225.235,323.357a1.794,1.794,0,0,0-.253-.71.377.377,0,0,0-.373-.184.369.369,0,0,0-.315.273,2.923,2.923,0,0,0-.042.392,1.871,1.871,0,0,0,.041.371c.034.224.073.447.112.67s.066.425.12.636a2.861,2.861,0,0,1,.069.282,2.761,2.761,0,0,1,.009.354.3.3,0,0,0,.6,0c.005-.117,0-.237.011-.354s.035-.2.05-.306a3.732,3.732,0,0,0,.036-.7A6.413,6.413,0,0,0,225.235,323.357Z" transform="translate(747.253 -10.999)" fill="#462a1b"/>
    <path id="Path_89" data-name="Path 89" d="M312.714,330.528a.214.214,0,0,0-.413-.108c-.155.516-.435.985-.585,1.508a8.873,8.873,0,0,0-.271,1.561,6.817,6.817,0,0,0,.022,1.553,3.355,3.355,0,0,0,.242.766c.08.221.125.453.225.667.042.09.165.054.192-.025.084-.248.1-.513.193-.761a3.055,3.055,0,0,0,.19-.626c.072-.506.125-1.005.151-1.516s.064-.989.069-1.487A11.934,11.934,0,0,1,312.714,330.528Z" transform="translate(692.215 -15.927)" fill="#462a1b"/>
    <g id="Group_104" data-name="Group 104" transform="translate(960.497 340.574)">
      <g id="Group_103" data-name="Group 103" transform="translate(0)">
        <path id="Path_90" data-name="Path 90" d="M196.963,403.527a5.915,5.915,0,0,0-1.738.833,2,2,0,0,0-.838,1.658,13.283,13.283,0,0,0,2.486-.758Z" transform="translate(-194.382 -402.764)" fill="#3d4041"/>
        <path id="Path_91" data-name="Path 91" d="M209.688,403.962a3.593,3.593,0,0,0-1.884,3.084.426.426,0,0,0,.092.321c.147.139.384.028.55-.087l1.451-1Z" transform="translate(-202.858 -403.039)" fill="#3d4041"/>
        <path id="Path_92" data-name="Path 92" d="M228.439,401.457a1.441,1.441,0,0,0-.511.8,9.227,9.227,0,0,0-.373,1.518,1.329,1.329,0,0,0,.184,1.119.342.342,0,0,0,.22.123.417.417,0,0,0,.244-.091,2.953,2.953,0,0,0,.768-.737Z" transform="translate(-215.305 -401.457)" fill="#3d4041"/>
        <path id="Path_93" data-name="Path 93" d="M274.142,412.069a4.223,4.223,0,0,0-1.52,2.711.538.538,0,0,0,.865.613,4.144,4.144,0,0,0,.75-.5Z" transform="translate(-243.779 -408.158)" fill="#3d4041"/>
        <path id="Path_94" data-name="Path 94" d="M288.018,413.755a1.9,1.9,0,0,1,.31-1.224.926.926,0,0,1,.472-.437.748.748,0,0,1,.813.383,2.187,2.187,0,0,1,.23.932q.028.294.055.587a3.091,3.091,0,0,1-.562,1.528,1.563,1.563,0,0,1-.526.653c-.064.039-.152.069-.208.019a.188.188,0,0,1-.042-.065A8.142,8.142,0,0,1,288.018,413.755Z" transform="translate(-253.502 -408.158)" fill="#3d4041"/>
        <path id="Path_95" data-name="Path 95" d="M308,410.585a.8.8,0,0,1,.729.388,4.882,4.882,0,0,1,.729,1.845q.1.415.2.83a.542.542,0,0,1-.03.467.424.424,0,0,1-.195.122,1.3,1.3,0,0,1-.908-.049,2.765,2.765,0,0,1-.772-.509Z" transform="translate(-265.972 -407.215)" fill="#3d4041"/>
      </g>
    </g>
    <path id="Path_96" data-name="Path 96" d="M335.788,393.376a1.608,1.608,0,0,1-.767.869,13.113,13.113,0,0,1-8.387,2.077,5.922,5.922,0,0,1-1.6-.339c-.39-.153-.748-.367-1.125-.549a9.031,9.031,0,0,0-1.508-.534c-.105-.2-.2-.412-.285-.623a6.812,6.812,0,0,1-.313-.959c.284-.137.575-.249.869-.361a7.421,7.421,0,0,0,1.409-.917,2.605,2.605,0,0,1,2.911.409c.719.517,1.483,1.208,2.326,1.013.546-.125.974-.6,1.5-.827a1.759,1.759,0,0,1,1.76.217c.31.243.617.61.994.54.313-.057.527-.4.827-.521a1.239,1.239,0,0,1,1.058.281C335.568,393.223,335.677,393.3,335.788,393.376Z" transform="translate(685.65 -54.749)" fill="#462a1b"/>
    <path id="Path_97" data-name="Path 97" d="M346.868,382.212a.416.416,0,0,0-.512-.175.407.407,0,0,0-.245.483c.041.1.083.2.129.3v0l.01.028c.012.034.023.069.033.1.023.08.038.16.054.241l0,.013v.01c0,.041.007.082.009.124a2.016,2.016,0,0,1,0,.216c0,.012-.01.085-.01.088-.005.031-.01.063-.017.094a1.938,1.938,0,0,1-.057.208c0,.01-.03.077-.031.082-.014.031-.028.061-.043.091a.341.341,0,1,0,.593.336,2.333,2.333,0,0,0,.334-1.1A1.986,1.986,0,0,0,346.868,382.212Z" transform="translate(670.316 -48.6)" fill="#462a1b"/>
    <path id="Path_98" data-name="Path 98" d="M355.9,391.12a.257.257,0,0,0-.224-.131.253.253,0,0,0-.225.131,1.576,1.576,0,0,0-.087.2q-.021.077-.036.155a1.716,1.716,0,0,1-.09.307.332.332,0,0,0,.032.249.341.341,0,0,0,.205.158.337.337,0,0,0,.249-.032l.071-.054a.33.33,0,0,0,.087-.151,1.74,1.74,0,0,0,.086-.319,1.036,1.036,0,0,0,.016-.231A.858.858,0,0,0,355.9,391.12Z" transform="translate(664.546 -54.273)" fill="#462a1b"/>
    <path id="Path_99" data-name="Path 99" d="M332.608,382.054a.427.427,0,0,0-.449-.158.854.854,0,0,0-.367.2,1.426,1.426,0,0,0-.2.251,1.7,1.7,0,0,0-.206.5,1.756,1.756,0,0,0,.112,1.141.458.458,0,0,0,.284.218.477.477,0,0,0,.289-.022.453.453,0,0,0,.273-.54,1.234,1.234,0,0,1-.06-.233,1.357,1.357,0,0,1,0-.181,1.342,1.342,0,0,1,.053-.2,1.583,1.583,0,0,1,.144-.244.689.689,0,0,0,.1-.14c.018-.037.036-.074.056-.111A.43.43,0,0,0,332.608,382.054Z" transform="translate(679.632 -48.521)" fill="#462a1b"/>
    <path id="Path_100" data-name="Path 100" d="M306.888,410.051a6.951,6.951,0,0,0-.366-1.825.539.539,0,1,0-1.043.274,5.429,5.429,0,0,1,.083.716c.016.278.031.557.028.835s-.022.533-.052.8c-.005.037-.01.074-.016.112-.01.061-.02.122-.031.183a2.085,2.085,0,0,0-.077.544.71.71,0,0,0,.514.666.7.7,0,0,0,.774-.326,2.746,2.746,0,0,0,.191-1.078A7.479,7.479,0,0,0,306.888,410.051Z" transform="translate(696.004 -64.901)" fill="#462a1b"/>
    <path id="Path_101" data-name="Path 101" d="M291.731,411.753c-.026-.269-.062-.538-.11-.8a7.659,7.659,0,0,0-.4-1.411.5.5,0,1,0-.971.255c.06.229.11.46.149.694.008.05.016.1.024.151,0,.014.014.111.018.136.011.1.022.2.029.3q.026.34.022.681a1.358,1.358,0,0,0,.172.863.533.533,0,0,0,.384.253.486.486,0,0,0,.431-.143,1.018,1.018,0,0,0,.252-.484A1.847,1.847,0,0,0,291.731,411.753Z" transform="translate(705.589 -65.747)" fill="#462a1b"/>
    <path id="Path_102" data-name="Path 102" d="M276.552,411.326c0-.008.011-.074.012-.081.016-.1.037-.2.059-.3a.4.4,0,0,0-.234-.461.388.388,0,0,0-.489.167,5.465,5.465,0,0,0-.478,2.532.6.6,0,1,0,1.179-.152c-.018-.1-.035-.2-.049-.295,0-.025-.035-.16,0-.025a.993.993,0,0,1-.014-.129,5.353,5.353,0,0,1-.022-.58c0-.185.009-.37.026-.554C276.543,411.411,276.547,411.368,276.552,411.326Z" transform="translate(714.948 -66.569)" fill="#462a1b"/>
    <path id="Path_103" data-name="Path 103" d="M230.47,402.679a2.219,2.219,0,0,0-.335-.61c-.025-.046-.045-.1-.068-.143l-.011-.026-.017-.043c-.032-.087-.06-.177-.085-.266s-.044-.18-.06-.271c0-.026-.009-.052-.013-.078q.006.056,0-.015c-.005-.053-.01-.107-.013-.16a1.934,1.934,0,0,1,.048-.541.356.356,0,1,0-.688-.18,3.052,3.052,0,0,0-.078.329c-.011.062-.019.123-.027.185,0,0-.013.1-.01.079s-.011.086-.01.079a3.292,3.292,0,0,0-.019.7,4.133,4.133,0,0,0,.129.722c.028.1.056.2.093.3a1.024,1.024,0,0,0,.382.535.53.53,0,0,0,.586-.043A.549.549,0,0,0,230.47,402.679Z" transform="translate(744.209 -60.014)" fill="#462a1b"/>
    <path id="Path_104" data-name="Path 104" d="M212.839,403.4c-.014-.068-.024-.136-.035-.2l-.005-.029c0-.007,0-.016,0-.031-.01-.131-.021-.261-.024-.391,0-.241-.025-.481-.019-.722a1.755,1.755,0,0,1,.024-.335,2.791,2.791,0,0,1,.119-.352c.127-.334-.432-.564-.585-.238-.059.125-.105.256-.164.381s-.126.238-.181.362a3.058,3.058,0,0,0-.258.793,5.331,5.331,0,0,0-.061.866,2.442,2.442,0,0,0,.2,1.023.622.622,0,0,0,1.155-.305A6.053,6.053,0,0,0,212.839,403.4Z" transform="translate(755.212 -60.557)" fill="#462a1b"/>
    <g id="Group_105" data-name="Group 105" transform="translate(962.386 339.806)">
      <path id="Path_105" data-name="Path 105" d="M201.284,399.5a.448.448,0,0,0-.625,0,4.985,4.985,0,0,0-.912,1.525,3.653,3.653,0,0,0-.2.816c-.048.374-.125.9.21,1.172a.609.609,0,0,0,.939-.127.892.892,0,0,0,.088-.657v0s0,0,0-.007,0-.015,0-.022c-.006-.04,0-.041,0-.03,0-.011,0-.023-.005-.031-.006-.06-.009-.12-.011-.18,0-.119,0-.239,0-.359,0-.059.008-.118.013-.178v-.016c0-.029.008-.058.013-.087a4.354,4.354,0,0,1,.188-.691l0-.006,0,0c.013-.027.024-.056.036-.083a1.782,1.782,0,0,1,.087-.158c.031-.051.063-.1.1-.151l.051-.073c.008-.011.068-.09.023-.032A.453.453,0,0,0,201.284,399.5Z" transform="translate(-199.507 -399.374)" fill="#462a1b"/>
      <path id="Path_106" data-name="Path 106" d="M202.973,407.03a.135.135,0,0,0,0-.055.155.155,0,0,1,0,.052Z" transform="translate(-201.693 -404.174)" fill="#462a1b"/>
    </g>
    <path id="Path_107" data-name="Path 107" d="M202.4,229.687c-.123,1.678-1.442,3.222-1.824,4.337a1.074,1.074,0,0,0-.038.811.607.607,0,0,0,.969.1,1.738,1.738,0,0,0-.753,1.448,2.379,2.379,0,0,0-.005.725.72.72,0,0,0,1.182.483,2.379,2.379,0,0,0,.564-.6.235.235,0,0,0-.295.082.687.687,0,0,0-.1.317,1.616,1.616,0,0,0-.014.614,1.038,1.038,0,0,0,1,.719,2.036,2.036,0,0,0,1.218-.463,4.123,4.123,0,0,0,1.646-3.184Z" transform="translate(762.269 47.584)" fill="#fff"/>
    <path id="Path_108" data-name="Path 108" d="M337.412,289.76a7.859,7.859,0,0,1-.346,1.8,7.706,7.706,0,0,1-.3.8q-.093.21-.2.415a3.192,3.192,0,0,0-.251.51.555.555,0,0,0,.259.614.547.547,0,0,0,.657-.089,3.59,3.59,0,0,0,.477-1.031,7.86,7.86,0,0,0,.28-.979,9.142,9.142,0,0,0,.21-2.039A.4.4,0,0,0,337.412,289.76Z" transform="translate(676.499 9.89)" fill="#462a1b"/>
    <path id="Path_109" data-name="Path 109" d="M293.055,397.3a5.746,5.746,0,0,0-2.513-1.7,1.307,1.307,0,0,0-.418-.508,4.489,4.489,0,0,0-.625-.467,5.24,5.24,0,0,0-1.411-.608,4.832,4.832,0,0,0-2.966.157c-.385.142-.243.748.165.628a4.624,4.624,0,0,1,2.58.06,4.349,4.349,0,0,1,.638.25,5.627,5.627,0,0,0-2.083.139,27.3,27.3,0,0,0-2.61,1.081c-.364.144-.232.73.158.6a18.749,18.749,0,0,1,2.369-.513,13.53,13.53,0,0,1,2.454-.344,4.238,4.238,0,0,1,2.029.494,7,7,0,0,1,1.608,1.35C292.841,398.343,293.394,397.738,293.055,397.3Z" transform="translate(709.778 -56.086)" fill="#462a1b"/>
    <path id="Path_110" data-name="Path 110" d="M215.7,389.159a8.675,8.675,0,0,0-4.35-.758A26.2,26.2,0,0,0,207,389.726a.29.29,0,0,0,.147.56c.7-.131,1.4-.263,2.1-.388s1.384-.346,2.089-.456a6.252,6.252,0,0,1,2.066.031c.709.129,1.379.384,2.072.575C216.055,390.209,216.238,389.37,215.7,389.159Z" transform="translate(758.28 -52.601)" fill="#462a1b"/>
    <path id="Path_111" data-name="Path 111" d="M187.665,93.951a13.184,13.184,0,0,1-.479,3.065,5.834,5.834,0,0,1-.792,1.645c-.991,1.415-2.981,1.786-4.649,2.38a2.786,2.786,0,0,0-1.24.916,5.071,5.071,0,0,0-.936,2.294,17.207,17.207,0,0,1-.677,3.954,4.864,4.864,0,0,1-3.438,2.781,1.946,1.946,0,0,1-2.029-.588.836.836,0,0,1-.1-.257,1.851,1.851,0,0,1,.24-1.121A17.085,17.085,0,0,0,174.907,105a27.031,27.031,0,0,0,.224-3.843,37.175,37.175,0,0,1,1.757-10.278,3.256,3.256,0,0,1,.652-1.3,3.634,3.634,0,0,1,1.243-.76,16.6,16.6,0,0,1,3.758-1.308,5.89,5.89,0,0,1,3.527.364c.118.058.237.122.348.19C188.128,89.109,187.789,92.016,187.665,93.951Z" transform="translate(779.426 137.428)" fill="#f9c041"/>
    <path id="Path_112" data-name="Path 112" d="M187.393,107.387a5.834,5.834,0,0,1-.792,1.645c-.991,1.415-2.981,1.786-4.649,2.38a3.884,3.884,0,0,0-2.176,3.21,17.207,17.207,0,0,1-.677,3.954,4.864,4.864,0,0,1-3.438,2.781,1.947,1.947,0,0,1-2.029-.588c2.087-1.831,2.86-4.637,3.537-7.277q.747-2.935,1.5-5.871a6.8,6.8,0,0,1,.869-2.248c2.086-3.023,6.61-1.133,7.735,1.669A3.516,3.516,0,0,1,187.393,107.387Z" transform="translate(779.218 127.058)" fill="#462a1b"/>
    <path id="Path_113" data-name="Path 113" d="M199.643,94.768a13.183,13.183,0,0,1-.479,3.065,5.834,5.834,0,0,1-.792,1.645c-.991,1.415-2.981,1.786-4.649,2.38a2.786,2.786,0,0,0-1.24.916,13.58,13.58,0,0,1,1.1-8.128,16.324,16.324,0,0,1,2.16-3.455,17.062,17.062,0,0,1,2.307-2.49c.118.058.237.122.348.19C200.106,89.926,199.767,92.832,199.643,94.768Z" transform="translate(767.448 136.612)" fill="#462a1b"/>
    <path id="Path_114" data-name="Path 114" d="M297,89.448a12.366,12.366,0,0,1-1.908,3.047q-1.179,1.535-2.361,3.069a3.428,3.428,0,0,0-.652,1.115c-.272.968.367,1.963.335,2.968-.323.367-.943.129-1.364-.135a9.145,9.145,0,0,1-2.157-1.654,6.293,6.293,0,0,1-1.169-2.238c-.23-.7-.4-1.439-.6-2.147a41.145,41.145,0,0,0-4.617-9.583,30.14,30.14,0,0,0-3.566-5.154c-.086-.092-.175-.187-.265-.279-.725-.747-1.444-1.4-.01-1.853a5.64,5.64,0,0,1,3.594.089c1.758.713,2.7,2.582,4.313,3.562a20.737,20.737,0,0,0,3.933,1.357,18.458,18.458,0,0,1,4.447,2.569,6.425,6.425,0,0,1,1.917,1.81A4.052,4.052,0,0,1,297,89.448Z" transform="translate(713.412 144.409)" fill="#f9c041"/>
    <path id="Path_115" data-name="Path 115" d="M289.636,98.766c-.007.04-.013.083-.022.123-.23-.7-.4-1.439-.6-2.147a41.146,41.146,0,0,0-4.617-9.583A30.14,30.14,0,0,0,280.833,82a3.752,3.752,0,0,1,3.281-.171,3.665,3.665,0,0,1,1.594,1.712,12.36,12.36,0,0,1,.879,2.034c.284.858.473,1.742.8,2.588.447,1.17,1.151,2.242,1.566,3.421a12.564,12.564,0,0,1,.547,2.423A16.38,16.38,0,0,1,289.636,98.766Z" transform="translate(711.524 141.14)" fill="#462a1b"/>
    <path id="Path_116" data-name="Path 116" d="M305.443,107.534a26.033,26.033,0,0,1-1.044-3.5c-.231-1.2-.383-2.4-.665-3.594a13.942,13.942,0,0,0-2.867-6.088c-.086-.1-.264.031-.188.137a15.516,15.516,0,0,1,2.176,6.4c.209,1.168.478,2.31.782,3.458a12.223,12.223,0,0,0,1.269,3.394C305.07,108.007,305.549,107.845,305.443,107.534Z" transform="translate(699.004 133.064)" fill="#462a1b"/>
    <g id="Group_106" data-name="Group 106" transform="translate(962.026 219)">
      <path id="Path_117" data-name="Path 117" d="M236.336,93.813a20.9,20.9,0,0,1-1.326,7.978v0a20.637,20.637,0,0,1-1.639,3.421,7.769,7.769,0,0,0-.808,1.571,11.059,11.059,0,0,1-.645,2.548,4.147,4.147,0,0,1-1.77,1.369,42.822,42.822,0,0,1-6.854,2.744,13.153,13.153,0,0,1-2.591.573,8.3,8.3,0,0,1-5.189-1.152c-1.3-.031-2.5.692-3.786.9a6.544,6.544,0,0,1-5.71-2.425A20.279,20.279,0,0,1,203,105.808c-.038-.092-.08-.181-.118-.272a66.279,66.279,0,0,0-3.342-6.747,4.507,4.507,0,0,1-.862-2.472c.08-1.075.971-2.039.808-3.105a6.54,6.54,0,0,0-.556-1.388,5.6,5.6,0,0,1-.335-1.586,16.443,16.443,0,0,1,6.975-14.716,24.018,24.018,0,0,1,5.55-2.921,17.509,17.509,0,0,1,3.86-.928,13.222,13.222,0,0,1,5.128.358c1.262.349,2.387.217,3.521.858,1.336.75,3.71-.077,4.988.762a7.655,7.655,0,0,1,2.025,2.579c1.032,1.657,2.384,3.106,3.531,4.689a10.083,10.083,0,0,1,2.195,5.3,28.545,28.545,0,0,1-.208,3C236.068,90.747,236.288,92.278,236.336,93.813Z" transform="translate(-198.532 -71.572)" fill="#fff"/>
    </g>
    <path id="Path_118" data-name="Path 118" d="M229.278,175.346a1.207,1.207,0,0,0-.1-.08.533.533,0,0,0-.234-.063l.107.014a1.294,1.294,0,0,1-.158-.035,1.215,1.215,0,0,0-.176-.028,1.384,1.384,0,0,1-.206-.047,1.132,1.132,0,0,1-.169-.094.709.709,0,0,1-.081-.079c-.009-.014-.02-.028-.028-.042a.309.309,0,0,0-.382-.13.3.3,0,0,0-.182.36,1.844,1.844,0,0,0,.283.485,1.087,1.087,0,0,0,.153.155,1.8,1.8,0,0,0,.245.179.956.956,0,0,0,.29.109,1.06,1.06,0,0,0,.4-.015.456.456,0,0,0,.358-.422A.375.375,0,0,0,229.278,175.346Z" transform="translate(745.107 82.282)" fill="#462a1b"/>
    <path id="Path_119" data-name="Path 119" d="M229.18,181.367a6.162,6.162,0,0,0-2.267.305,6.711,6.711,0,0,1-2.405.047,7.911,7.911,0,0,1-2.149-.7,8.94,8.94,0,0,1-2.044-1.211.192.192,0,0,0-.272.272,13,13,0,0,0,1.685,1.649A6.772,6.772,0,0,0,224,182.8a5.18,5.18,0,0,0,2.554.051,19.649,19.649,0,0,1,2.545-.884C229.411,181.926,229.55,181.426,229.18,181.367Z" transform="translate(749.947 79.111)" fill="#462a1b"/>
    <path id="Path_120" data-name="Path 120" d="M273.845,171.46a7.092,7.092,0,0,1-1.016.434c-.153.052-.315.066-.47.114-.178.055-.355.112-.534.164a7.111,7.111,0,0,0-1.03.412,6.289,6.289,0,0,1-1.023.332.286.286,0,0,0,.072.56c.38.019.763-.018,1.142-.036a3.207,3.207,0,0,0,1.237-.289,7.656,7.656,0,0,0,1.86-1.376C274.254,171.618,274.04,171.358,273.845,171.46Z" transform="translate(718.638 84.367)" fill="#462a1b"/>
    <path id="Path_121" data-name="Path 121" d="M254.85,177.512a7.18,7.18,0,0,1-1.44.377,8.443,8.443,0,0,1-1.368.212,24.111,24.111,0,0,1-2.841-.032.334.334,0,0,0-.164.621,5.2,5.2,0,0,0,3.178.373,6.993,6.993,0,0,0,1.5-.435,4.823,4.823,0,0,0,.72-.382c.206-.133.378-.3.587-.439A.17.17,0,0,0,254.85,177.512Z" transform="translate(731.706 80.543)" fill="#462a1b"/>
    <path id="Path_122" data-name="Path 122" d="M242.783,79.711c-.093-.425-.181-.855-.249-1.284a5.983,5.983,0,0,0-.355-1.211,3.7,3.7,0,0,0-.254-.537,4.064,4.064,0,0,0-.373-.482,1.8,1.8,0,0,0-.855-.665c-.074-.023-.163.056-.134.129.121.313.318.6.437.915.063.167.1.342.163.51s.134.34.2.51a9.411,9.411,0,0,0,.509,1.13,11.867,11.867,0,0,1,.547,1.127C242.509,80.058,242.826,79.909,242.783,79.711Z" transform="translate(736.957 144.931)" fill="#462a1b"/>
    <path id="Path_123" data-name="Path 123" d="M216.338,88.643a5.807,5.807,0,0,1-.553,2.055c-.9,1.724-2.981,2.527-4.4,3.9-1.585,1.54-2.253,3.718-3.333,5.616a16.731,16.731,0,0,0-1.214,2.23,12.8,12.8,0,0,0-.393,5.06c.016.539-.14,1.252-.7,1.292a1.165,1.165,0,0,1-.626-.2c-.754-.416-1.514-.836-2.24-1.3a66.278,66.278,0,0,0-3.342-6.747,4.507,4.507,0,0,1-.862-2.472c.08-1.075.971-2.039.808-3.105a6.54,6.54,0,0,0-.556-1.388A5.6,5.6,0,0,1,198.6,92a16.443,16.443,0,0,1,6.975-14.716,24.017,24.017,0,0,1,5.55-2.921c2.176,1.549,3.473,4.952,4.23,7.028A15.965,15.965,0,0,1,216.338,88.643Z" transform="translate(763.494 145.664)" fill="#f9c041"/>
    <path id="Path_124" data-name="Path 124" d="M264.519,93.813a20.9,20.9,0,0,1-1.326,7.978v0a3.745,3.745,0,0,1-1.3.272,1.3,1.3,0,0,1-1.128-.419c-.214-.313-.153-.732-.313-1.075-.291-.619-1.211-.809-1.444-1.449a3.322,3.322,0,0,1-.016-1.111,2.679,2.679,0,0,0-1.294-1.985,24.984,24.984,0,0,1-2.087-1.375c-1.294-1.127-1.757-2.94-3.064-4.058-.911-.778-2.134-1.13-3.109-1.832a6.953,6.953,0,0,1-2.515-4.236,43.457,43.457,0,0,1-.53-4.949,16.643,16.643,0,0,0-1.009-4.373,11.562,11.562,0,0,0-2.224-3.531,13.222,13.222,0,0,1,5.128.358c1.262.349,2.387.217,3.521.858,1.336.75,3.71-.077,4.988.762a7.654,7.654,0,0,1,2.025,2.579c1.032,1.657,2.384,3.106,3.531,4.689a10.083,10.083,0,0,1,2.195,5.3,28.537,28.537,0,0,1-.208,3C264.251,90.747,264.471,92.278,264.519,93.813Z" transform="translate(735.311 147.428)" fill="#f9c041"/>
    <g id="Group_109" data-name="Group 109" transform="translate(987.367 229.475)">
      <g id="Group_108" data-name="Group 108" transform="translate(0)">
        <g id="Group_107" data-name="Group 107" transform="translate(1.061 0.265)">
          <path id="Path_125" data-name="Path 125" d="M276.078,104.414a2.543,2.543,0,0,1-.237.4,3.7,3.7,0,0,1-4.6,1.015,2.119,2.119,0,0,1-.915-.889,2.245,2.245,0,0,1-.041-1.524c.049-.191.1-.38.164-.564l.133-1.067a3.831,3.831,0,0,1,2.229-1.053,3.18,3.18,0,0,1,2.428.79,3.42,3.42,0,0,1,.459.493,2.345,2.345,0,0,1,.532.8,4.707,4.707,0,0,1,.161.446A3.12,3.12,0,0,1,276.078,104.414Z" transform="translate(-270.17 -100.714)" fill="#462a1b"/>
          <path id="Path_126" data-name="Path 126" d="M288.378,107.388a.039.039,0,0,0-.011-.02h0A.048.048,0,0,1,288.378,107.388Z" transform="translate(-281.661 -104.916)" fill="#462a1b"/>
        </g>
        <path id="Path_127" data-name="Path 127" d="M272.342,103.8a1.866,1.866,0,0,0-.019.9,1.391,1.391,0,0,0,.706.782,3.65,3.65,0,0,0,1.051.322,3.394,3.394,0,0,0,1.03.073,2.011,2.011,0,0,0,1.618-1.332,2.6,2.6,0,0,0-1.963-3.113C273.29,101.019,272.56,102.7,272.342,103.8Z" transform="translate(-270.438 -100.866)" fill="#ffa8ac"/>
        <path id="Path_128" data-name="Path 128" d="M273.183,103.847a1.433,1.433,0,0,0-.014.692,1.066,1.066,0,0,0,.54.6,2.8,2.8,0,0,0,.8.246,2.6,2.6,0,0,0,.788.056,1.538,1.538,0,0,0,1.238-1.018,1.986,1.986,0,0,0-1.5-2.381C273.909,101.717,273.351,103.006,273.183,103.847Z" transform="translate(-270.98 -101.254)" fill="#462a1b"/>
        <path id="Path_129" data-name="Path 129" d="M274.877,103.616a.379.379,0,0,1-.287.037.4.4,0,0,1-.214-.132c-.073-.082-.15-.168-.223-.254a1.686,1.686,0,0,1-.217-.358c-.052-.112-.11-.216-.167-.324l-.157-.153a7.222,7.222,0,0,0-.873-.714,2.435,2.435,0,0,0-1.859-.408,4.152,4.152,0,0,0-1.852,1.072,4.617,4.617,0,0,0-.795.863,2.645,2.645,0,0,0-.422.974c-.052.26-.516.3-.518,0a4.235,4.235,0,0,1,1.054-2.758,4.1,4.1,0,0,1,2.265-1.389,3.465,3.465,0,0,1,2.71.569,3.783,3.783,0,0,1,.555.477,2.571,2.571,0,0,1,.673.8,5.091,5.091,0,0,1,.229.461c.02.043.043.09.062.137a2.068,2.068,0,0,1,.137.393c.014.05.024.1.034.154l0,.008a.069.069,0,0,0,.009.025c.009.025.018.051.021.063A.37.37,0,0,1,274.877,103.616Z" transform="translate(-267.292 -99.995)" fill="#462a1b"/>
      </g>
      <path id="Path_130" data-name="Path 130" d="M272.687,107.419a.287.287,0,0,0,.033-.078.217.217,0,0,0-.007-.083h0a.3.3,0,0,0-.031-.145.458.458,0,0,0-.149-.186.557.557,0,0,0-.185-.079.246.246,0,0,0-.076-.014H272.1a1.181,1.181,0,0,0-.19.023.885.885,0,0,0-.186.053,1.791,1.791,0,0,0-.169.089.779.779,0,0,0-.189.161l-.049.084a.266.266,0,0,0-.025.139.366.366,0,0,0,.04.159.268.268,0,0,0,.059.146.328.328,0,0,0,.217.119,1.992,1.992,0,0,0,.506-.026,1.121,1.121,0,0,0,.28-.085c.012-.006.024-.014.035-.021a.516.516,0,0,0,.108-.056.384.384,0,0,0,.107-.118c0-.005.01-.008.013-.014s.011-.03.019-.045.012-.019.015-.029Z" transform="translate(-269.817 -104.313)" fill="#fff"/>
      <path id="Path_131" data-name="Path 131" d="M276.881,106.85l-.028-.047c0-.006,0-.011-.007-.016s-.014-.016-.019-.026l-.01-.016,0,0a.334.334,0,0,0-.075-.1.346.346,0,0,0-.15-.1.549.549,0,0,0-.354,0l-.109.06a.448.448,0,0,0-.148.187l-.03.111a.431.431,0,0,0,.031.228.258.258,0,0,0,.016.043,1.226,1.226,0,0,0,.067.111l0,.007a.6.6,0,0,0,.094.089.494.494,0,0,0,.226.088.367.367,0,0,0,.179-.015.362.362,0,0,0,.168-.075l.088-.086a.331.331,0,0,0,.075-.157.22.22,0,0,0,.016-.113A.325.325,0,0,0,276.881,106.85Z" transform="translate(-272.755 -104.109)" fill="#fff"/>
    </g>
    <g id="Group_111" data-name="Group 111" transform="translate(966.204 232.829)">
      <g id="Group_110" data-name="Group 110" transform="translate(0.028 0.236)">
        <path id="Path_132" data-name="Path 132" d="M211.832,114.882a2.776,2.776,0,0,0,.423.213,3.671,3.671,0,0,0,4.447-1.523,2,2,0,0,0,.271-1.222,2.323,2.323,0,0,0-.822-1.3c-.148-.135-.3-.265-.455-.39l-.712-.83a3.919,3.919,0,0,0-2.47.265,3,3,0,0,0-1.6,1.92,3.237,3.237,0,0,0-.109.652,2.26,2.26,0,0,0,0,.948,4.627,4.627,0,0,0,.115.458A3.316,3.316,0,0,0,211.832,114.882Z" transform="translate(-210.457 -109.737)" fill="#462a1b"/>
        <path id="Path_133" data-name="Path 133" d="M209.95,121.987a.034.034,0,0,1,0-.022h0A.045.045,0,0,0,209.95,121.987Z" transform="translate(-209.946 -117.458)" fill="#462a1b"/>
      </g>
      <path id="Path_134" data-name="Path 134" d="M217.894,112.224a1.9,1.9,0,0,1,.369.829,1.334,1.334,0,0,1-.349.976,3.5,3.5,0,0,1-.846.673,3.311,3.311,0,0,1-.925.435,2.08,2.08,0,0,1-2.014-.653,2.525,2.525,0,0,1,.605-3.579C215.935,109.989,217.264,111.286,217.894,112.224Z" transform="translate(-212.236 -110.041)" fill="#ffa8ac"/>
      <path id="Path_135" data-name="Path 135" d="M218.269,112.6a1.436,1.436,0,0,1,.128.681,1.045,1.045,0,0,1-.435.673,2.765,2.765,0,0,1-.753.365,2.581,2.581,0,0,1-.769.174,1.565,1.565,0,0,1-1.39-.818,1.96,1.96,0,0,1,1.09-2.578C217.2,110.607,217.964,111.795,218.269,112.6Z" transform="translate(-213.025 -110.287)" fill="#462a1b"/>
      <path id="Path_136" data-name="Path 136" d="M210.56,114.506a.387.387,0,0,0,.37-.339c.015-.107.032-.219.045-.329a1.631,1.631,0,0,0-.018-.414c-.018-.121-.028-.239-.041-.359.016-.07.031-.14.046-.209a6.787,6.787,0,0,1,.334-1.053,2.307,2.307,0,0,1,1.337-1.3,4.292,4.292,0,0,1,2.163-.053,4.9,4.9,0,0,1,1.155.317,2.828,2.828,0,0,1,.9.6c.19.192.6-.018.435-.271a4.513,4.513,0,0,0-2.439-1.779,4.243,4.243,0,0,0-2.689,0,3.284,3.284,0,0,0-1.962,1.88,3.549,3.549,0,0,0-.2.689,2.452,2.452,0,0,0-.118,1.02,4.912,4.912,0,0,0,.066.506c.007.046.015.1.025.147a2.06,2.06,0,0,0,.105.4c.016.05.038.1.058.147l0,.009a.058.058,0,0,1,.006.026.572.572,0,0,0,.018.064A.39.39,0,0,0,210.56,114.506Z" transform="translate(-209.869 -109.097)" fill="#462a1b"/>
      <path id="Path_137" data-name="Path 137" d="M212.817,118.63a.274.274,0,0,1-.07-.043.189.189,0,0,1-.036-.071h0a.262.262,0,0,1-.046-.135.451.451,0,0,1,.04-.235.65.65,0,0,1,.128-.171.321.321,0,0,1,.062-.056l.116-.074.041-.025a1.5,1.5,0,0,1,.184-.091,1.074,1.074,0,0,1,.2-.065c.066-.013.133-.02.2-.026a.831.831,0,0,1,.254.02l.088.039a.233.233,0,0,1,.094.1.325.325,0,0,1,.045.151.243.243,0,0,1,.021.151.37.37,0,0,1-.136.222,2.43,2.43,0,0,1-.472.272,1.317,1.317,0,0,1-.3.095l-.043,0a.614.614,0,0,1-.126.017.388.388,0,0,1-.157-.033c-.006,0-.013,0-.018,0s-.026-.018-.04-.025-.02-.008-.029-.014Z" transform="translate(-211.634 -114.489)" fill="#fff"/>
      <path id="Path_138" data-name="Path 138" d="M217.584,116.866a.213.213,0,0,0,.072.082.332.332,0,0,0,.142.088l.115.025a.343.343,0,0,0,.172-.022.334.334,0,0,0,.149-.075.433.433,0,0,0,.132-.179.5.5,0,0,0,.027-.116.05.05,0,0,0,0-.007,1.193,1.193,0,0,0-.006-.121.233.233,0,0,0-.01-.042.413.413,0,0,0-.1-.195l-.083-.073a.453.453,0,0,0-.216-.076l-.118.005a.338.338,0,0,0-.156.063.324.324,0,0,0-.123.108.385.385,0,0,0-.072.268l0,0v.017c0,.01,0,.02,0,.029s0,.011,0,.016l0,.05A.314.314,0,0,0,217.584,116.866Z" transform="translate(-214.696 -113.554)" fill="#fff"/>
    </g>
    <path id="Path_139" data-name="Path 139" d="M247.957,136.157a2.332,2.332,0,0,0-.687-2.578,5.123,5.123,0,0,0-2.658-1.134,10.873,10.873,0,0,0-5.946.68,2.869,2.869,0,0,0-1.483,1.118,2.339,2.339,0,0,0-.077,1.772,2.63,2.63,0,0,0,.634,1.162c.772.763,2.111.772,2.883,1.535.745.737.873,1.843,2.044,2.153,1.024.27,1.582-.467,1.93-1.287C245.277,137.97,247.27,137.678,247.957,136.157Z" transform="translate(739.222 109.082)" fill="#ffa8ac"/>
    <path id="Path_140" data-name="Path 140" d="M242.65,140.516a1.092,1.092,0,0,1,.444.729,1.114,1.114,0,0,1-.04.6,1.183,1.183,0,0,1-1.124.668,2.187,2.187,0,0,1-1.279-.506,1.866,1.866,0,0,1-.734-1.01c-.144-.637.171-.968.768-.9A5.557,5.557,0,0,1,242.65,140.516Z" transform="translate(737.383 104.161)" fill="#462a1b"/>
    <path id="Path_141" data-name="Path 141" d="M255.458,140.641a1.583,1.583,0,0,1-.294-.488.772.772,0,0,1-.1-.368.554.554,0,0,1,.3-.41,2.156,2.156,0,0,1,.513-.174,6.126,6.126,0,0,0,1.542-.641.57.57,0,0,1,.277-.1.391.391,0,0,1,.3.187,1.2,1.2,0,0,1,.145.758,2.245,2.245,0,0,1-.152.777,1.467,1.467,0,0,1-.84.779A1.86,1.86,0,0,1,255.458,140.641Z" transform="translate(727.795 105.194)" fill="#462a1b"/>
    <path id="Path_142" data-name="Path 142" d="M245.259,135.134a2.551,2.551,0,0,0-1.583.345.229.229,0,0,0-.083.086c-.06.133.134.234.283.261l1.041.189a6.278,6.278,0,0,0,1.612.151,3.124,3.124,0,0,0,1.079-.285c.29-.135.46-.36.158-.529a1.778,1.778,0,0,0-.713-.165C246.458,135.154,245.854,135.158,245.259,135.134Z" transform="translate(735.047 107.294)" fill="#fff"/>
    <path id="Path_143" data-name="Path 143" d="M257.416,135.3a.323.323,0,0,0,.061.366.53.53,0,0,0,.262.106,3.06,3.06,0,0,0,.4.049c.421.023,1.093-.379.586-.779A1.028,1.028,0,0,0,257.416,135.3Z" transform="translate(726.331 107.431)" fill="#fff"/>
    <path id="Path_144" data-name="Path 144" d="M247.284,163.7c1.743-.174,2.773-2.218,5.871-1.207-1.42-1.027-4.353-2.159-6.117-1.892a10.1,10.1,0,0,0-2.213.611,6.728,6.728,0,0,0-2.258,1.813s1.4.167,1.842.2A18.071,18.071,0,0,0,247.284,163.7Z" transform="translate(735.687 91.232)" fill="#462a1b"/>
    <path id="Path_145" data-name="Path 145" d="M245.54,152.546a3.246,3.246,0,0,1-2.613.747,11.548,11.548,0,0,1-2.608-1.1,10.47,10.47,0,0,0-2.967-.8,13.128,13.128,0,0,0-2.782-.14c-.038-.247-.118-.5-.159-.722q-.117-.642-.208-1.289c-.119-.854-.271-1.707-.371-2.562-.029-.251-.414-.265-.419,0-.009.449-.046.9-.021,1.351.024.418.055.834.106,1.25s.109.826.176,1.237q.054.334.116.668c.018.1.019.14.043.241-.316.1-.669.233-.978.347-.453.168-.9.353-1.333.56-.99.471-1.947,1-2.919,1.5-1.669.86-3.853,2.027-5.628.754-.236-.169-.447.18-.291.366,1.439,1.712,4.04.832,5.727.028.989-.471,1.941-1.013,2.935-1.474a16.1,16.1,0,0,1,1.51-.621c.052-.018.107-.035.162-.052a9.807,9.807,0,0,1,3.748-.332c.235.022.469.05.7.088a11.194,11.194,0,0,1,3.1,1.011,5.061,5.061,0,0,0,2.92.689,3.968,3.968,0,0,0,2.429-1.392A.259.259,0,0,0,245.54,152.546Z" transform="translate(748.277 100.121)" fill="#462a1b"/>
    <g id="Group_112" data-name="Group 112" transform="translate(979.679 251.556)">
      <path id="Path_146" data-name="Path 146" d="M248.793,161.691a9.857,9.857,0,0,1,2.516-.254,3.787,3.787,0,0,1,2.313.876,5.157,5.157,0,0,0-1.834,1.393,4.644,4.644,0,0,1-.96,1.033,2.656,2.656,0,0,1-1.555.323,1.548,1.548,0,0,1-.633-.129c-.429-.214-.814-.609-1.235-.855-.39-.228-.837-.342-.95-.845C246.2,162.108,247.98,161.852,248.793,161.691Z" transform="translate(-246.431 -160.869)" fill="#ffa8ac"/>
      <path id="Path_147" data-name="Path 147" d="M254.7,159.921a.827.827,0,0,0-.7.359,1.417,1.417,0,0,0-.327.679,4.5,4.5,0,0,0,.184,1.531c.04.229.443.181.422-.052a5.286,5.286,0,0,1-.013-1.29,1.057,1.057,0,0,1,.072-.258,1.013,1.013,0,0,1,.05-.09c.008-.013.069-.1.05-.077a.962.962,0,0,1,.1-.1c.011-.01.1-.08.069-.061.1-.074.221-.112.282-.231A.28.28,0,0,0,254.7,159.921Z" transform="translate(-250.987 -159.912)" fill="#462a1b"/>
    </g>
    <path id="Path_148" data-name="Path 148" d="M228.356,116.45a9.666,9.666,0,0,1-1.67,3c-.324.436-.678.845-1.013,1.272a2.049,2.049,0,0,0-.524,1.481c.039.393.692.552.776.1a2.883,2.883,0,0,1,.751-1.217,8.924,8.924,0,0,0,.992-1.38,10.382,10.382,0,0,0,.97-3.177A.145.145,0,0,0,228.356,116.45Z" transform="translate(746.692 119.152)" fill="#462a1b"/>
    <path id="Path_149" data-name="Path 149" d="M261.815,112.8a6.656,6.656,0,0,0-.74-.559c-.475-.314-.994-.545-1.484-.832-.146-.085-.324.127-.186.234a12.3,12.3,0,0,1,1.193,1.163c.189.195.383.387.583.57.222.2.5.559.84.542a.359.359,0,0,0,.357-.342C262.4,113.26,262.035,113,261.815,112.8Z" transform="translate(725.087 122.283)" fill="#462a1b"/>
    <path id="Path_150" data-name="Path 150" d="M274.2,118.741c-.044-.011-.088-.027-.132-.042a.869.869,0,0,1-.148-.082.789.789,0,0,1-.09-.081.257.257,0,0,0-.353,0,.236.236,0,0,0-.073.169l.008.061a.235.235,0,0,0,.065.108,1.037,1.037,0,0,0,.274.216,1.283,1.283,0,0,0,.186.081.806.806,0,0,0,.2.036.252.252,0,0,0,.175-.07.235.235,0,0,0-.112-.4Z" transform="translate(716.217 117.817)" fill="#462a1b"/>
    <path id="Path_151" data-name="Path 151" d="M286.065,115.148a.245.245,0,0,0-.477.059,1.4,1.4,0,0,1-.194.685,3.066,3.066,0,0,1-.209.324c-.022.029-.058.077-.072.1l-.06.086-.01.014-.005.006-.07.079c-.039.044-.076.091-.111.138l-.068.085a.625.625,0,0,0-.045.069.667.667,0,0,0-.045.1c.013-.035.012-.042,0-.019l0,.006-.027.031c-.019.021-.038.043-.058.063a.537.537,0,0,1-.142.1,2.02,2.02,0,0,0-.771.5c-.107.141.116.265.236.172a1.2,1.2,0,0,1,.46-.167c.145-.036.284-.086.427-.125a4.452,4.452,0,0,0,.432-.136,1.1,1.1,0,0,0,.433-.329,1.814,1.814,0,0,0,.426-.909A2.457,2.457,0,0,0,286.065,115.148Z" transform="translate(709.734 120.018)" fill="#462a1b"/>
    <path id="Path_152" data-name="Path 152" d="M268.1,97.358a.344.344,0,0,0-.426-.086,1.761,1.761,0,0,0-.857.9,2.782,2.782,0,0,0-.184.556c-.039.191-.056.388-.077.582-.018.169.277.206.31.038a1.426,1.426,0,0,1,.182-.458c.043-.075.091-.147.142-.218l.041-.056.008-.01c.027-.033.055-.066.084-.1a4.536,4.536,0,0,1,.36-.36c.136-.119.258-.251.39-.374A.308.308,0,0,0,268.1,97.358Z" transform="translate(720.538 131.223)" fill="#462a1b"/>
    <path id="Path_153" data-name="Path 153" d="M216.765,127.947a.7.7,0,0,1-.392.28,1.226,1.226,0,0,1-.252.06c-.1.006-.2-.018-.3-.017a3.186,3.186,0,0,0-.765.07,1.863,1.863,0,0,0-.378.163,3.286,3.286,0,0,1-.353.137.091.091,0,0,0,0,.176c.129.041.268.067.391.119a1.377,1.377,0,0,0,.485.117,2.1,2.1,0,0,0,.867-.156c.094-.041.178-.1.273-.133a1.711,1.711,0,0,0,.288-.147,1.5,1.5,0,0,0,.487-.475C217.252,127.919,216.907,127.736,216.765,127.947Z" transform="translate(753.563 111.888)" fill="#462a1b"/>
    <path id="Path_154" data-name="Path 154" d="M229.961,106.009a1.141,1.141,0,0,0-.119-.307,2.184,2.184,0,0,0-.433-.468,2.285,2.285,0,0,0-.541-.345,1.742,1.742,0,0,0-.308-.107c-.108-.025-.2-.025-.3-.046-.2-.041-.325.224-.136.321a1.133,1.133,0,0,1,.191.137c.034.025.066.053.1.079s.067.049.1.072l.009.006.006,0c.142.109.282.222.414.343s.248.259.37.392a1.028,1.028,0,0,0,.093.091.669.669,0,0,0,.1.07l.006.008a.954.954,0,0,0,.135.117l.017.012.033.024a.4.4,0,0,0,.081.029.178.178,0,0,0,.21-.118A.481.481,0,0,0,229.961,106.009Z" transform="translate(744.867 126.489)" fill="#462a1b"/>
    <path id="Path_155" data-name="Path 155" d="M240.439,93.482a2.045,2.045,0,0,0-.092-.425,2.881,2.881,0,0,0-1.14-1.382,3.529,3.529,0,0,0-.366-.156c-.141-.056-.289-.079-.427-.137-.086-.036-.2.071-.111.14a1.845,1.845,0,0,1,.259.29,3.2,3.2,0,0,1,.2.285,3.678,3.678,0,0,0,.269.328l.016.019s0,0,.006.008l.056.074c.035.047.071.093.108.139l.018.023c.168.22.307.457.479.674l.022.028.056.075c.045.061.086.124.134.183a2.32,2.32,0,0,1,.226.291.155.155,0,0,0,.285-.072C240.436,93.738,240.448,93.609,240.439,93.482Z" transform="translate(738.401 134.923)" fill="#462a1b"/>
    <path id="Path_156" data-name="Path 156" d="M281.614,95.052a2.068,2.068,0,0,0-.876-.782,1.609,1.609,0,0,0-.175-.069l-.053-.019c.059.021-.037-.014-.066-.025-.08-.031-.16-.06-.24-.087s-.164-.052-.247-.076-.173-.061-.259-.094c-.161-.06-.244.178-.11.259a2.486,2.486,0,0,1,.383.3q.09.082.176.166c.062.06.115.129.18.185.124.108.248.217.378.318.088.069.174.137.268.2a2.094,2.094,0,0,0,.228.121A.3.3,0,0,0,281.614,95.052Z" transform="translate(712.352 133.335)" fill="#462a1b"/>
    <path id="Path_157" data-name="Path 157" d="M191.768,97.347c-.607-.039-1.205-.075-1.814-.073a7.229,7.229,0,0,0-1.811.108A2.618,2.618,0,0,0,186.55,99.2c-.091.231.356.379.495.161.087-.137.188-.262.284-.395a1.661,1.661,0,0,1,.324-.381,1.792,1.792,0,0,1,.945-.27c.5-.031,1.006,0,1.5,0,.559,0,1.11-.045,1.667-.085C192.478,98.182,192.483,97.393,191.768,97.347Z" transform="translate(771.068 131.202)" fill="#462a1b"/>
    <path id="Path_158" data-name="Path 158" d="M222.172,101.572a.972.972,0,0,0-.239-.161,1.662,1.662,0,0,0-.284-.09,2.722,2.722,0,0,0-.518-.069.32.32,0,0,0-.324.311.306.306,0,0,0,.1.22.376.376,0,0,0,.229.091l.024,0a2.288,2.288,0,0,1,.36.076c.06.018.119.042.179.061a1.569,1.569,0,0,0,.19.04.314.314,0,0,0,.336-.136A.283.283,0,0,0,222.172,101.572Z" transform="translate(749.429 128.686)" fill="#462a1b"/>
    <path id="Path_159" data-name="Path 159" d="M208.412,140.341c-.055-.184-.1-.369-.156-.552s-.12-.356-.184-.533a4.468,4.468,0,0,0-.241-.574c-.041-.077-.079-.161-.126-.235a1.751,1.751,0,0,1-.168-.244.181.181,0,0,0-.194-.124.172.172,0,0,0-.155.167,2.594,2.594,0,0,1-.036.3,1.617,1.617,0,0,0,.008.3,2.215,2.215,0,0,0,.153.615,3.506,3.506,0,0,0,.289.577,3.691,3.691,0,0,0,.416.513A.236.236,0,0,0,208.412,140.341Z" transform="translate(758.053 105.432)" fill="#462a1b"/>
    <path id="Path_160" data-name="Path 160" d="M212.382,155.319l-.045-.06a.807.807,0,0,0-.086-.107.855.855,0,0,0-.186-.112c-.082-.043-.164-.085-.245-.13l-.062-.049a.188.188,0,0,0-.12-.048.177.177,0,0,0-.12.048.161.161,0,0,0-.05.115.184.184,0,0,0,.05.115l.047.057c.046.08.09.161.135.242a1.016,1.016,0,0,0,.09.149.355.355,0,0,0,.032.039l.073.054.031.022.062.044.069.027a.224.224,0,0,0,.11,0,.28.28,0,0,0,.168-.077.326.326,0,0,0,.076-.126.2.2,0,0,0,0-.106A.205.205,0,0,0,212.382,155.319Z" transform="translate(755.325 94.864)" fill="#462a1b"/>
    <g id="Group_113" data-name="Group 113" transform="translate(971.954 252.001)">
      <path id="Path_161" data-name="Path 161" d="M228.03,161.508h.011l.089.011Z" transform="translate(-227.086 -161.364)" fill="#462a1b"/>
      <path id="Path_162" data-name="Path 162" d="M226.878,161.383a.944.944,0,0,0-.219-.084c-.078-.015-.156-.027-.235-.036s-.131-.019-.2-.024c-.03,0-.061-.008-.091-.007s-.064.007-.1.008h-.053a.708.708,0,0,0-.084-.02l-.048-.014h-.006a.025.025,0,0,0-.008-.007c-.027-.02-.059-.036-.087-.055a.193.193,0,0,0-.243.049.175.175,0,0,0,.015.238c.036.032.076.06.11.094s.069.072.106.106a1.224,1.224,0,0,1,.094.1.7.7,0,0,0,.166.143,1.138,1.138,0,0,0,.347.138,1.014,1.014,0,0,0,.239.021.787.787,0,0,0,.291-.078.321.321,0,0,0,0-.57Z" transform="translate(-225.469 -161.118)" fill="#462a1b"/>
    </g>
    <path id="Path_163" data-name="Path 163" d="M280.358,143.781a4.9,4.9,0,0,0-.777-1.606c-.044-.068-.152-.01-.113.062a4.074,4.074,0,0,1,.4,1.5,4.408,4.408,0,0,1-.052,1.5,4.067,4.067,0,0,1-.609,1.285,2.728,2.728,0,0,1-.977.908.407.407,0,0,0,.21.76,1.7,1.7,0,0,0,1.484-.981,4.382,4.382,0,0,0,.491-1.719A5.1,5.1,0,0,0,280.358,143.781Z" transform="translate(713.303 102.864)" fill="#462a1b"/>
    <path id="Path_164" data-name="Path 164" d="M252.466,131.318a5.548,5.548,0,0,0-2.137-2.927,7.1,7.1,0,0,0-1.525-1.165,4.947,4.947,0,0,0-1.961-.419c-1.544-.1-3.114-.06-4.662-.036a6.062,6.062,0,0,0-1.952.221,5.037,5.037,0,0,0-1.5.856c-.118.1.051.251.169.162a2.76,2.76,0,0,1,1.79-.381c.628-.019,1.259-.036,1.885-.086.68-.054,1.36-.106,2.041-.149s1.337-.139,2-.161c1.308-.043,2.266.885,3.181,1.664a13.342,13.342,0,0,1,2.341,2.547A.178.178,0,0,0,252.466,131.318Z" transform="translate(738.136 112.59)" fill="#462a1b"/>
    <path id="Path_165" data-name="Path 165" d="M230.868,132.893a18.948,18.948,0,0,0-1.348,2.035,9.014,9.014,0,0,0-.813,2.3c-.071.317.436.561.582.227.319-.726.645-1.445.953-2.175s.571-1.492.953-2.206C231.3,132.863,231,132.7,230.868,132.893Z" transform="translate(744.445 108.76)" fill="#462a1b"/>
    <path id="Path_166" data-name="Path 166" d="M321.515,101.222a5.129,5.129,0,0,0-.947-1.532c-.394-.491-.8-.966-1.226-1.435-.131-.145-.4.048-.283.207a7.93,7.93,0,0,1,.832,1.411,5.519,5.519,0,0,1,.494,1.422,2.838,2.838,0,0,1-.174,1.282c-.074.222-.1.458-.188.672a3.689,3.689,0,0,1-.364.647c-.248.357.312.747.618.451a6.673,6.673,0,0,0,.574-.608,3.056,3.056,0,0,0,.549-.769A2.587,2.587,0,0,0,321.515,101.222Z" transform="translate(687.404 130.611)" fill="#462a1b"/>
    <g id="Group_119" data-name="Group 119" transform="translate(960.102 246.395)">
      <g id="Group_114" data-name="Group 114" transform="translate(0 1.919)">
        <path id="Path_167" data-name="Path 167" d="M194.918,153.176c-.51.16-1.022.292-1.524.479-.072.027-.12-.083-.047-.111.889-.347,1.758-.727,2.668-1.019s1.811-.54,2.733-.749a26.815,26.815,0,0,1,5.584-.659,21.539,21.539,0,0,1,3.2.185.138.138,0,0,1-.031.275,24.64,24.64,0,0,0-5.564.02,35.705,35.705,0,0,0-5.452,1.117C195.958,152.86,195.436,153.013,194.918,153.176Z" transform="translate(-193.311 -151.116)" fill="#fff"/>
        <path id="Path_168" data-name="Path 168" d="M196.342,159.537c-.434.312-.879.6-1.3.932-.06.048-.139-.041-.079-.091.736-.607,1.442-1.24,2.216-1.8s1.552-1.079,2.362-1.567a26.826,26.826,0,0,1,5.1-2.372,21.508,21.508,0,0,1,3.093-.824.138.138,0,0,1,.057.27,24.653,24.653,0,0,0-5.279,1.759,35.674,35.674,0,0,0-4.829,2.766Q197.005,159.063,196.342,159.537Z" transform="translate(-194.341 -152.818)" fill="#fff"/>
        <path id="Path_169" data-name="Path 169" d="M204.552,159.4c-.384.373-.782.72-1.147,1.112-.052.056-.144-.02-.092-.078.639-.709,1.245-1.438,1.927-2.108s1.376-1.3,2.106-1.9a26.814,26.814,0,0,1,4.693-3.1,21.559,21.559,0,0,1,2.938-1.27.138.138,0,0,1,.1.259,24.657,24.657,0,0,0-4.962,2.516,35.642,35.642,0,0,0-4.37,3.446Q205.139,158.833,204.552,159.4Z" transform="translate(-199.617 -151.708)" fill="#fff"/>
      </g>
      <g id="Group_118" data-name="Group 118" transform="translate(13.252 0)">
        <g id="Group_115" data-name="Group 115" transform="translate(13.225)">
          <path id="Path_170" data-name="Path 170" d="M286.325,148.415a22.8,22.8,0,0,0-3.054-1.348,21.054,21.054,0,0,0-3.187-.778,26.716,26.716,0,0,0-6.613-.293,19.313,19.313,0,0,0-3.683.65c-.066.018-.052.12.018.107a28.8,28.8,0,0,1,6.534-.58,22.946,22.946,0,0,1,3.253.34,30.63,30.63,0,0,1,3.2.782c.593.176,1.179.376,1.765.575a18.018,18.018,0,0,1,1.731.658C286.355,148.558,286.392,148.449,286.325,148.415Z" transform="translate(-268.054 -145.907)" fill="#fff"/>
          <path id="Path_171" data-name="Path 171" d="M285.847,156.321a22.812,22.812,0,0,0-2.813-1.8A21.035,21.035,0,0,0,280,153.267a26.73,26.73,0,0,0-6.491-1.3,19.322,19.322,0,0,0-3.739.081c-.068.008-.07.111,0,.109a28.806,28.806,0,0,1,6.546.422,22.941,22.941,0,0,1,3.163.832,30.636,30.636,0,0,1,3.04,1.259c.559.265,1.108.551,1.657.837a18.083,18.083,0,0,1,1.611.914C285.855,156.466,285.908,156.364,285.847,156.321Z" transform="translate(-268.039 -149.702)" fill="#fff"/>
          <path id="Path_172" data-name="Path 172" d="M280.087,158.9a22.838,22.838,0,0,0-2.387-2.334,21.107,21.107,0,0,0-2.712-1.846,26.742,26.742,0,0,0-6.091-2.593,19.308,19.308,0,0,0-3.677-.682c-.068-.006-.091.095-.02.107a28.835,28.835,0,0,1,6.323,1.746,22.97,22.97,0,0,1,2.927,1.459,30.65,30.65,0,0,1,2.719,1.852c.494.373.973.765,1.452,1.157a18.114,18.114,0,0,1,1.391,1.223C280.064,159.048,280.137,158.959,280.087,158.9Z" transform="translate(-265.156 -149.407)" fill="#fff"/>
        </g>
        <g id="Group_117" data-name="Group 117" transform="translate(0 0.383)">
          <g id="Group_116" data-name="Group 116" transform="translate(12.628)">
            <path id="Path_173" data-name="Path 173" d="M264.338,150.253a.427.427,0,0,0-.061-.271.311.311,0,0,0-.392-.052.7.7,0,0,0-.265.332c-.109.24-.177.687.2.723S264.33,150.545,264.338,150.253Z" transform="translate(-263.534 -148.802)" fill="#462a1b"/>
            <path id="Path_174" data-name="Path 174" d="M268.92,147.686a.65.65,0,0,0,.129-.35.39.39,0,0,0-.153-.329c-.359-.249-.518.329-.536.58C268.334,147.966,268.74,147.942,268.92,147.686Z" transform="translate(-266.581 -146.946)" fill="#462a1b"/>
            <path id="Path_175" data-name="Path 175" d="M268.1,156.334a1.008,1.008,0,0,0,.082-.358.234.234,0,0,0-.017-.114.266.266,0,0,0-.069-.077.241.241,0,0,0-.193-.083c-.079.017-.117.105-.14.183-.044.154-.125.458-.011.6C267.881,156.65,268.046,156.464,268.1,156.334Z" transform="translate(-266.163 -152.473)" fill="#462a1b"/>
            <path id="Path_176" data-name="Path 176" d="M274.963,151.192a.426.426,0,0,0,.016-.35.284.284,0,0,0-.291-.169c-.277.047-.436.506-.326.741C274.525,151.76,274.863,151.406,274.963,151.192Z" transform="translate(-270.35 -149.297)" fill="#462a1b"/>
            <path id="Path_177" data-name="Path 177" d="M269.672,151.387a.266.266,0,0,0-.256.1c-.161.187-.2.584.144.528C269.827,151.968,270,151.469,269.672,151.387Z" transform="translate(-267.172 -149.746)" fill="#462a1b"/>
          </g>
          <path id="Path_178" data-name="Path 178" d="M236.406,160.506a.389.389,0,0,1,.056-.248.285.285,0,0,1,.36-.048.64.64,0,0,1,.242.305c.1.22.162.63-.181.663S236.413,160.774,236.406,160.506Z" transform="translate(-233.776 -155.295)" fill="#462a1b"/>
          <path id="Path_179" data-name="Path 179" d="M235.662,148.145a.647.647,0,0,1-.129-.35.389.389,0,0,1,.153-.329c.359-.248.518.329.535.58C236.249,148.425,235.842,148.4,235.662,148.145Z" transform="translate(-233.225 -147.235)" fill="#462a1b"/>
          <path id="Path_180" data-name="Path 180" d="M244.957,153.958a1,1,0,0,1-.082-.358.238.238,0,0,1,.017-.114.257.257,0,0,1,.069-.077.24.24,0,0,1,.193-.083c.079.017.117.105.139.183.044.154.125.458.011.6C245.178,154.274,245.014,154.088,244.957,153.958Z" transform="translate(-239.124 -150.972)" fill="#462a1b"/>
          <path id="Path_181" data-name="Path 181" d="M238.737,154.363a.427.427,0,0,1-.015-.35.283.283,0,0,1,.29-.169c.277.048.436.506.326.741C239.176,154.931,238.837,154.577,238.737,154.363Z" transform="translate(-235.218 -151.3)" fill="#462a1b"/>
          <path id="Path_182" data-name="Path 182" d="M229.447,154.486a.266.266,0,0,1,.256.1c.161.187.2.584-.144.528C229.292,155.067,229.123,154.568,229.447,154.486Z" transform="translate(-229.27 -151.703)" fill="#462a1b"/>
        </g>
      </g>
    </g>
    <path id="Path_183" data-name="Path 183" d="M231.752,330.233a.513.513,0,0,1-.182-.019c-.166-.048-.32-.137-.467-.035a1.3,1.3,0,0,0-.237.221,1.612,1.612,0,0,0-.23.377q-.469-2.028-.744-4.1c-.109-.837-.195-1.681-.275-2.524s-.221-1.684-.246-2.534c-.042-1.451.09-2.895.109-4.345a9.18,9.18,0,0,0-.182-2.15,10.485,10.485,0,0,0-.661-1.895c-.265-.62-.508-1.246-.76-1.872a13.982,13.982,0,0,1-.767-1.821,13.524,13.524,0,0,1-.24-4.185c.089-1.444.316-2.879.409-4.323a11.941,11.941,0,0,0,0-1.435.912.912,0,0,1-.237-.131,8.588,8.588,0,0,1-2.058-2.342,10.64,10.64,0,0,1-1.23-2.844.443.443,0,0,1,.856-.224,7.141,7.141,0,0,0,1.2,2.486,8.4,8.4,0,0,0,1.185,1.221q-.1-.427-.24-.853c-.764-2.377-1.92-4.611-2.086-7.141a.01.01,0,0,0,0-.006c0-.07-.006-.141-.01-.211-.026-.591.869-.579.914,0a12.237,12.237,0,0,0,1.307,4.1,21.361,21.361,0,0,1,1.518,4.055c.642,2.8-.2,5.713-.291,8.527a16.374,16.374,0,0,0,.058,2.1c.067.68.195,1.355.24,2.038a4.7,4.7,0,0,0,.872,1.872,14.3,14.3,0,0,1,.92,1.773,11.037,11.037,0,0,1,.668,4.15c0,.313,0,.627,0,.943.006,1.147,0,2.3-.032,3.444A30.41,30.41,0,0,0,231.752,330.233Z" transform="translate(747.579 10.061)" fill="#462a1b"/>
    <g id="Group_128" data-name="Group 128" transform="translate(967.806 269.761)">
      <path id="Path_184" data-name="Path 184" d="M371.989,215.325a.44.44,0,0,0-.807.329,3.684,3.684,0,0,1,.2.719c.008.056.01.066.006.029,0,.033.007.066.01.1.005.066.006.133.007.2,0,.125-.006.25-.015.374,0,.013-.01.1-.011.116-.008.059-.018.117-.03.175a3.51,3.51,0,0,1-.094.362c-.035.109-.073.217-.114.325-.006.01-.05.116-.056.129-.029.06-.06.119-.092.178a.531.531,0,1,0,.923.524A3.813,3.813,0,0,0,371.989,215.325Z" transform="translate(-313.174 -212.97)" fill="#462a1b"/>
      <path id="Path_185" data-name="Path 185" d="M374.238,228.484a.446.446,0,0,0-.891,0c-.009.451-.033.9-.078,1.35a.524.524,0,0,0,.153.37.532.532,0,0,0,.37.153.526.526,0,0,0,.37-.153.512.512,0,0,0,.153-.37C374.271,229.385,374.246,228.935,374.238,228.484Z" transform="translate(-314.651 -221.136)" fill="#462a1b"/>
      <g id="Group_120" data-name="Group 120" transform="translate(0)">
        <path id="Path_186" data-name="Path 186" d="M218.854,218.991l.043-.009a.242.242,0,0,0-.058.01h.014Z" transform="translate(-217.135 -215.418)" fill="#462a1b"/>
        <path id="Path_187" data-name="Path 187" d="M223.172,211.425a1.093,1.093,0,0,0-.536.149c-.043.025-.083.053-.127.076l-.045.022a2.369,2.369,0,0,1-.272.074l-.02,0h0c-.055,0-.109.006-.165.006s-.082,0-.123-.007l-.053-.01c-.053-.011-.107-.025-.159-.042l-.039-.014c-.041-.019-.081-.038-.12-.06l-.069-.036-.015-.014c-.018-.017-.038-.032-.056-.05a1.417,1.417,0,0,1-.122-.131.619.619,0,0,0-.974.742,2.68,2.68,0,0,0,.314.358.485.485,0,0,0-.068.144c-.07.255-.141.511-.227.761-.02.058-.041.116-.062.174l-.02.05c-.007.017-.015.035-.022.052-.025.06-.05.121-.074.181l-.014.037-.014.031c-.017.036-.034.073-.052.108-.028.053-.058.105-.089.157-.021.034-.044.067-.065.1l-.009.014c-.015.017-.062.077-.075.091a1.807,1.807,0,0,1-.13.13l-.023.02a1.224,1.224,0,0,0-.144.1c-.039.023-.081.042-.121.063-.02.008-.041.017-.057.022a1.62,1.62,0,0,1-.176.045h0c-.049,0-.1,0-.15,0h-.053l-.112-.026-.027-.012-.057-.034a.325.325,0,0,1-.036-.029c-.028-.029-.057-.056-.085-.085,0,0-.027-.026-.048-.048-.032-.047-.065-.093-.1-.141-.076-.119-.142-.242-.209-.366-.057-.106-.107-.214-.16-.322l-.006-.012c0-.01-.006-.02-.008-.028-.027-.076-.055-.152-.08-.228a4.425,4.425,0,0,1-.189-.819c0-.022-.01-.111-.012-.132,0-.07-.008-.14-.009-.21a1.309,1.309,0,0,1,.048-.4.528.528,0,1,0-1.021-.268,6.167,6.167,0,0,0-.265,1.108c-.043.019-.091.043-.136.059a.2.2,0,0,0-.051,0c-.106.014-.214.053-.318.077l-.083.015c.031,0,.045,0-.043.009l-.021.007h0a.024.024,0,0,1,.008-.005l-.028,0-.024,0c0-.006,0-.012,0-.018-.025-.506-.044-1.01-.09-1.516a6.288,6.288,0,0,1-.048-.807,7.606,7.606,0,0,1,.068-.788.367.367,0,0,0-.254-.434.36.36,0,0,0-.434.254c-.088.324-.181.645-.275.968s-.233.6-.327.91a6.09,6.09,0,0,0-.223.93,2.6,2.6,0,0,0-.006,1.124,1.519,1.519,0,0,0,1.84,1,1.59,1.59,0,0,0,.561-.288,3.746,3.746,0,0,0,.731,1.41,1.979,1.979,0,0,0,2.056.676,2.616,2.616,0,0,0,1.567-1.288,3.389,3.389,0,0,0,.363-1.073c.045-.319.066-.639.08-.96a2.7,2.7,0,0,0,.515.088,2.029,2.029,0,0,0,.857-.119c.436-.166.88-.437.884-.966A.566.566,0,0,0,223.172,211.425Z" transform="translate(-214.214 -209.31)" fill="#462a1b"/>
      </g>
      <g id="Group_122" data-name="Group 122" transform="translate(12.56 8.264)">
        <path id="Path_188" data-name="Path 188" d="M251.486,234.124v0l0-.006V234.1l0,0v.01l0,.007v.006l0-.006Z" transform="translate(-250.307 -233.23)" fill="#462a1b"/>
        <path id="Path_189" data-name="Path 189" d="M251.509,234.072l0,.016a.125.125,0,0,0,.006-.02v0Z" transform="translate(-250.322 -233.208)" fill="#462a1b"/>
        <path id="Path_190" data-name="Path 190" d="M251.854,234.781c-.03-.033-.049-.049-.053-.049.017.015.032.031.048.046Z" transform="translate(-250.508 -233.627)" fill="#462a1b"/>
        <path id="Path_191" data-name="Path 191" d="M251.5,234.127v0Z" transform="translate(-250.319 -233.243)" fill="#462a1b"/>
        <g id="Group_121" data-name="Group 121">
          <path id="Path_192" data-name="Path 192" d="M262.53,234.163a.1.1,0,0,0-.028.014l.009,0Z" transform="translate(-257.266 -233.268)" fill="#462a1b"/>
          <path id="Path_193" data-name="Path 193" d="M254.394,232.167c-.145.081-.292.145-.432.235-.028.018-.311.174-.4.228.032-.012.065-.018-.019.011l-.014.008s0,0,0-.005h0q-.065.022-.132.041c-.074.021-.149.038-.224.054-.044.009-.089.017-.133.024h-.009c-.085,0-.17.011-.255.01s-.17-.006-.255-.014c-.022,0-.157-.012-.052,0s-.053-.01-.075-.014c-.083-.015-.166-.035-.247-.058-.044-.013-.088-.027-.131-.042-.017-.006-.1-.044-.077-.032l-.024-.012c-.041-.02-.082-.041-.122-.064-.069-.039-.133-.085-.2-.128l-.008-.008c-.033-.032-.069-.061-.1-.094s-.064-.066-.095-.1-.107-.136-.022-.023a.585.585,0,0,0-.776-.214.579.579,0,0,0-.214.776c.029.049.064.092.1.139-.039.013-.078.026-.118.037-.073.02-.146.033-.219.046h0c-.044,0-.088.006-.133.007s-.074,0-.111,0h-.017a.925.925,0,0,0-.13-.031l-.037-.019-.06-.036c.006.007.01.009.017.018a.286.286,0,0,0-.021-.021l-.006,0c-.034-.022-.048-.042-.042-.043a.562.562,0,0,1-.048-.044c-.009-.014-.019-.027-.026-.039s-.017-.032-.025-.048l-.011-.042a.162.162,0,0,1,0,.017h0a.154.154,0,0,0,0-.026h0c0-.008,0-.01,0-.017a.051.051,0,0,1-.006.019l.006-.019v-.008c-.008.014-.01.014,0-.006s0-.019,0-.017c0-.056,0-.031,0,0v0l.007-.014a.188.188,0,0,0,.006-.028.078.078,0,0,1,0,.024.58.58,0,0,0-1.01-.571,1.565,1.565,0,0,0,.68,2.06,2.026,2.026,0,0,0,1.392.2,3.034,3.034,0,0,0,.57-.154,2.386,2.386,0,0,0,.524-.267,3.245,3.245,0,0,0,1.109.29,3.093,3.093,0,0,0,1.439-.249,2.277,2.277,0,0,0,.631-.381,1.561,1.561,0,0,0,.429-.7C255.421,232.332,254.807,231.936,254.394,232.167Z" transform="translate(-248.294 -231.734)" fill="#462a1b"/>
        </g>
        <path id="Path_194" data-name="Path 194" d="M251.492,234.172l0,.01a.154.154,0,0,0,0-.047l0,.013C251.493,234.156,251.492,234.164,251.492,234.172Z" transform="translate(-250.313 -233.25)" fill="#462a1b"/>
        <path id="Path_195" data-name="Path 195" d="M251.489,234.165v0Z" transform="translate(-250.311 -233.267)" fill="#462a1b"/>
        <path id="Path_196" data-name="Path 196" d="M251.487,234.187h0Z" transform="translate(-250.31 -233.283)" fill="#462a1b"/>
      </g>
      <g id="Group_123" data-name="Group 123" transform="translate(23.173 14.048)">
        <path id="Path_197" data-name="Path 197" d="M284.488,249.854c-.037-.37-.091-.6-.115-.912a3.573,3.573,0,0,1-.005-.466l0-.039c.006-.034.012-.069.02-.1a1.832,1.832,0,0,1,.067-.221.551.551,0,0,0-1.011-.411,3.568,3.568,0,0,0-.2,1.711,5.651,5.651,0,0,1,.015.689c0,.03,0,.06-.007.09,0,.012-.009.076-.013.1a1.293,1.293,0,0,1-.076.294c-.012.018-.025.039-.03.049l-.038.062c-.019.02-.072.083-.081.094h0a.615.615,0,0,0-.068.019.174.174,0,0,1,.044-.007l.008,0-.007,0h.013l0,.006h-.055l-.015.006h0l.014-.006-.057,0,.066-.082a.652.652,0,0,0,0-.9.64.64,0,0,0-.895,0,8.015,8.015,0,0,1-.611.6,3.3,3.3,0,0,1-.563.419,3.86,3.86,0,0,1-.35.195c-.006,0-.108.049-.124.057-.052.02-.1.039-.156.057a2.818,2.818,0,0,1-.346.094c-.031.006-.133.015-.132.017-.05,0-.1.006-.151.005s-.087-.005-.131-.008l-.075-.015c-.053-.012-.1-.029-.156-.042l-.032-.007-.013-.007c-.107-.052-.21-.111-.314-.168-.056-.031-.108-.07-.164-.1l-.008,0,0,0c-.047-.042-.094-.083-.137-.128-.011-.011-.048-.058-.068-.08a1.936,1.936,0,0,1-.122-.208c-.012-.025-.028-.072-.034-.09-.01-.034-.019-.067-.026-.1,0-.016,0-.094,0-.108,0-.06,0-.119,0-.179a.536.536,0,0,0-.4-.514.552.552,0,0,0-.6.252,1.782,1.782,0,0,0,.1,1.978,2.6,2.6,0,0,0,1.923,1.145,3.258,3.258,0,0,0,2.534-1.011,1.418,1.418,0,0,0,.579.288,1.546,1.546,0,0,0,1.66-.631A2.485,2.485,0,0,0,284.488,249.854Z" transform="translate(-277.093 -247.43)" fill="#462a1b"/>
        <path id="Path_198" data-name="Path 198" d="M293.062,256.583l.015-.007h0l-.015.007Z" transform="translate(-287.177 -253.205)" fill="#462a1b"/>
        <path id="Path_199" data-name="Path 199" d="M292.979,256.594h0Z" transform="translate(-287.123 -253.217)" fill="#462a1b"/>
      </g>
      <g id="Group_124" data-name="Group 124" transform="translate(6.689 24.255)">
        <path id="Path_200" data-name="Path 200" d="M242.3,275.989a1.9,1.9,0,0,0-.994.417,4.164,4.164,0,0,1-.393.241c-.063.034-.128.065-.193.1l-.02.01-.081.025c-.117.038-.235.063-.354.093l-.055,0a1.776,1.776,0,0,1-.207,0c-.017,0-.036,0-.055-.006.035,0,.064.015,0,0h0a.132.132,0,0,0-.036,0,.139.139,0,0,1,.035,0c-.058-.014-.115-.028-.172-.044h-.006l-.062-.031c-.046-.025-.209-.148-.067-.034a.644.644,0,1,0-.911.911,1.989,1.989,0,0,0,.559.38v0c0,.027-.01.054-.017.08s-.024.067-.029.084a2.53,2.53,0,0,1-.166.3c-.02.024-.072.094-.087.109-.037.039-.078.073-.115.11l-.036.031-.029.021a1.712,1.712,0,0,1-.18.112l-.066.032-.007,0c-.051.013-.1.029-.154.041-.025.006-.164.025-.168.03-.06,0-.12.007-.18,0-.028,0-.056,0-.084-.006l-.029,0c-.067-.017-.136-.03-.2-.05-.021-.006-.108-.039-.132-.046-.057-.026-.114-.052-.169-.083-.071-.039-.14-.082-.207-.128l-.126-.093-.107-.095q-.089-.083-.169-.174l-.058-.07-.031-.044c-.043-.067-.087-.132-.127-.2a4.112,4.112,0,0,1-.478-1.824.554.554,0,0,0-1.108,0,5.827,5.827,0,0,0,.193,1.773l-.037.072-.068.066-.042.026c-.034.02-.07.036-.106.054-.088.027-.174.059-.264.079h0a1.034,1.034,0,0,0-.13.007h-.025c-.03-.008-.093-.018-.1-.021l-.046-.015c-.041-.021-.083-.042-.123-.065s-.079-.048-.119-.072l-.007,0-.014-.012a2.489,2.489,0,0,1-.213-.218l0,0,0-.007c-.034-.054-.07-.106-.1-.161-.046-.08-.084-.163-.122-.246-.01-.026-.019-.052-.027-.078-.02-.057-.037-.116-.052-.175a2.86,2.86,0,0,1-.106-.688c-.017-.285-.014-.57-.01-.855a.53.53,0,0,0-.524-.524.541.541,0,0,0-.524.524,4.348,4.348,0,0,0,.37,2.937,2.329,2.329,0,0,0,1.214.984,1.888,1.888,0,0,0,1.407-.1,1.508,1.508,0,0,0,.366-.264,3.144,3.144,0,0,0,.754.74,2.811,2.811,0,0,0,1.944.477,2.089,2.089,0,0,0,1.56-1.111,2.2,2.2,0,0,0,.242-1.043,2.875,2.875,0,0,0,.571-.06,3.284,3.284,0,0,0,1.038-.457,1.961,1.961,0,0,0,.945-1.037A.582.582,0,0,0,242.3,275.989Z" transform="translate(-232.363 -275.126)" fill="#462a1b"/>
        <path id="Path_201" data-name="Path 201" d="M252.947,279.859h0Z" transform="translate(-245.36 -278.114)" fill="#462a1b"/>
      </g>
      <g id="Group_126" data-name="Group 126" transform="translate(13.329 37.652)">
        <path id="Path_202" data-name="Path 202" d="M262.063,318.947a.065.065,0,0,0-.031-.007l.006,0A.1.1,0,0,1,262.063,318.947Z" transform="translate(-257.739 -316.19)" fill="#462a1b"/>
        <g id="Group_125" data-name="Group 125">
          <path id="Path_203" data-name="Path 203" d="M260.018,311.656a.685.685,0,0,0-.361-.172.594.594,0,0,0-.385.071.637.637,0,0,0-.294.7,1.2,1.2,0,0,1,.03.144l-.022-.169c.006.049.014.1.021.147a1.425,1.425,0,0,1,0,.254,1.571,1.571,0,0,1-.069.267c-.021.042-.042.083-.066.122a1.365,1.365,0,0,1-.108.108l-.063.036c-.033.01-.066.02-.1.026s-.042,0-.063,0a1.208,1.208,0,0,1-.139-.036c-.031-.016-.062-.034-.092-.052a1.449,1.449,0,0,1-.175-.172,1.43,1.43,0,0,1-.073-.132c0-.01-.008-.02-.01-.031s-.008-.032-.011-.048,0-.038,0-.057c0,.032-.009-.007,0-.048,0,0,0-.01,0-.015s0-.017,0-.025v.011a.6.6,0,0,0-1.169-.278,1.729,1.729,0,0,0,.127,1.258.455.455,0,0,0-.041.028c-.055.055-.112.108-.171.159l-.007.006a.941.941,0,0,0-.078.053l-.1.074a1.045,1.045,0,0,0-.091.062c-.066.042-.133.083-.2.126a2.195,2.195,0,0,1-.207.117c-.019.009-.041.017-.063.026.037-.014.066-.017-.01.008l-.01,0a.171.171,0,0,0-.025.013l.015-.01c-.07.023-.139.046-.211.063-.039.01-.078.018-.118.026-.022,0-.137.016-.08.013H255.6l-.121.007c-.08,0-.16.009-.241.007-.04,0-.08,0-.119,0H255.1c-.062-.022-.147-.024-.208-.039-.022-.006-.129-.049-.188-.066.03.013.052.032-.024,0a.107.107,0,0,0-.013,0h0c-.035-.017-.07-.035-.1-.055s-.064-.042-.1-.062c-.058-.056-.121-.106-.177-.166a.585.585,0,0,0-.821,0,.6.6,0,0,0,0,.821l0,.005h0c-.091.032-.181.067-.273.093-.039.011-.078.02-.117.028l-.1.016-.036,0c-.048,0-.1,0-.144,0s-.1,0-.144,0l-.048,0c-.073-.007-.063-.006.027,0a.7.7,0,0,1-.257-.06l-.046-.015-.085-.042a2.347,2.347,0,0,1-.208-.128l-.032-.027c-.03-.027-.059-.054-.088-.082s-.067-.069-.1-.105-.1-.147-.021-.021c-.046-.076-.1-.146-.139-.226l-.036-.076-.027-.07a2.418,2.418,0,0,1-.063-.255.652.652,0,0,1-.009-.069c0-.048,0-.1,0-.144a.575.575,0,0,0-.569-.569.583.583,0,0,0-.569.569,2.6,2.6,0,0,0,1.5,2.467,2.528,2.528,0,0,0,1.634.136,2,2,0,0,0,1.065-.655,2.609,2.609,0,0,0,1.151.146,2.3,2.3,0,0,0,1.993-1.3,1.766,1.766,0,0,0,2.713-1.184A1.552,1.552,0,0,0,260.018,311.656Z" transform="translate(-250.382 -311.478)" fill="#462a1b"/>
          <path id="Path_204" data-name="Path 204" d="M271.154,314.521c0,.011,0,.021,0,.031a.674.674,0,0,0,0-.076s0,.009,0,.014S271.154,314.511,271.154,314.521Z" transform="translate(-263.499 -313.371)" fill="#462a1b"/>
        </g>
        <path id="Path_205" data-name="Path 205" d="M265.7,318.906l-.03.014.009,0C265.682,318.913,265.688,318.909,265.7,318.906Z" transform="translate(-260.033 -316.169)" fill="#462a1b"/>
      </g>
      <path id="Path_206" data-name="Path 206" d="M237.656,251.695a.533.533,0,0,0-.634.086.715.715,0,0,1-.052.059l-.017.015c-.023.017-.048.032-.069.049l0,0-.017.01a.564.564,0,0,1-.054.027s-.079.032-.123.042l-.013,0h-.025c-.055,0-.108,0-.163-.007-.026-.006-.052-.01-.078-.017l-.056-.017c-.045-.024-.09-.049-.133-.077-.023-.021-.047-.041-.07-.063a1.973,1.973,0,0,1-.143-.156l0,0c-.024-.034-.047-.069-.069-.1a5.358,5.358,0,0,1-.392-.814.545.545,0,0,0-.339-.261.568.568,0,0,0-.345.027.546.546,0,0,0-.327.645,3.022,3.022,0,0,0,1.326,1.913,1.7,1.7,0,0,0,1.183.117,1.134,1.134,0,0,0,.867-.88A.545.545,0,0,0,237.656,251.695Z" transform="translate(-227.028 -235.289)" fill="#462a1b"/>
      <g id="Group_127" data-name="Group 127" transform="translate(24.614 7.872)">
        <path id="Path_207" data-name="Path 207" d="M285.293,233.935a.305.305,0,0,0-.06-.014l.055.014Z" transform="translate(-283.674 -232.723)" fill="#462a1b"/>
        <path id="Path_208" data-name="Path 208" d="M284.109,231.479a.568.568,0,0,0-1.115.109c0,.012-.005.027-.007.035s-.007.023-.011.034-.019.039-.031.057a.933.933,0,0,1-.072.071,1.254,1.254,0,0,1-.152.086l-.057.012h-.043l.017,0h0l-.02-.005h-.03l-.017,0-.012-.006-.007,0h.011l-.016,0h0c-.042-.022-.081-.049-.121-.074a1.4,1.4,0,0,1-.154-.156c-.018-.026-.037-.052-.053-.079s-.037-.067-.054-.1l-.019-.043-.014-.038c-.011-.032-.02-.064-.029-.1a1.778,1.778,0,0,1-.042-.209.535.535,0,0,0-.254-.33.557.557,0,0,0-.332-.061.532.532,0,0,0-.468.527,2.089,2.089,0,0,0,.911,1.662,1.524,1.524,0,0,0,1.87-.223A1.2,1.2,0,0,0,284.109,231.479Z" transform="translate(-281.002 -230.671)" fill="#462a1b"/>
      </g>
    </g>
    <g id="Group_129" data-name="Group 129" transform="translate(946 220.868)">
      <path id="Path_209" data-name="Path 209" d="M330.922,139.9a3.095,3.095,0,0,1-3.578-2.467c-.3-.883-.762-1.475-1.065-2.358-.1,1.235.224,2.52-.163,3.7a3.259,3.259,0,0,1-2.888,2.181,4.4,4.4,0,0,1,3.564,1.822,13.48,13.48,0,0,1,1.838,3.8,26.045,26.045,0,0,0,.078-3.529C328.78,141.915,329.8,140.013,330.922,139.9Z" transform="translate(-261.247 -113.537)" fill="#fff"/>
      <path id="Path_210" data-name="Path 210" d="M184.679,177.388a2.1,2.1,0,0,1-1.865-2.285c-.03-.633-.217-1.106-.247-1.738a10.816,10.816,0,0,1-.806,2.378,2.211,2.211,0,0,1-2.295.875,2.982,2.982,0,0,1,1.978,1.862,9.149,9.149,0,0,1,.479,2.821,17.613,17.613,0,0,0,.718-2.285C182.9,178.3,183.926,177.252,184.679,177.388Z" transform="translate(-170.466 -137.719)" fill="#fff"/>
      <path id="Path_211" data-name="Path 211" d="M400.02,234.694a2.81,2.81,0,0,1-1.64-1.126,2.779,2.779,0,0,1-.224-1.159c-.031-.632-.217-1.105-.248-1.738a10.79,10.79,0,0,1-.806,2.378,2.21,2.21,0,0,1-2.294.875,2.983,2.983,0,0,1,1.978,1.862,9.149,9.149,0,0,1,.479,2.821,17.63,17.63,0,0,0,.718-2.284C398.242,235.6,399.268,234.558,400.02,234.694Z" transform="translate(-306.447 -173.906)" fill="#fff"/>
      <path id="Path_212" data-name="Path 212" d="M350.762,129.434a2.1,2.1,0,0,1-1.865-2.285c-.03-.632-.217-1.105-.247-1.738a10.82,10.82,0,0,1-.806,2.378,2.212,2.212,0,0,1-2.295.875,2.98,2.98,0,0,1,1.978,1.861,9.138,9.138,0,0,1,.479,2.821,17.658,17.658,0,0,0,.718-2.284C348.984,130.344,350.009,129.3,350.762,129.434Z" transform="translate(-275.342 -107.438)" fill="#fff"/>
      <path id="Path_213" data-name="Path 213" d="M160.258,80.664a2.1,2.1,0,0,1-1.865-2.285c-.03-.633-.217-1.106-.247-1.738a10.815,10.815,0,0,1-.806,2.378,2.212,2.212,0,0,1-2.295.875,2.983,2.983,0,0,1,1.978,1.861,9.153,9.153,0,0,1,.479,2.822,17.632,17.632,0,0,0,.718-2.285C158.48,81.574,159.505,80.528,160.258,80.664Z" transform="translate(-155.045 -76.641)" fill="#fff"/>
    </g>
  </g>
</svg>
