<svg id="Group_410" data-name="Group 410" xmlns="http://www.w3.org/2000/svg" width="35.333" height="35.333" viewBox="0 0 35.333 35.333">
  <path id="Path_907" data-name="Path 907" d="M32.137,0H3.2A3.2,3.2,0,0,0,0,3.2V32.137a3.2,3.2,0,0,0,3.2,3.2H32.137a3.2,3.2,0,0,0,3.2-3.2V3.2A3.2,3.2,0,0,0,32.137,0Zm-21.2,30.509a.93.93,0,0,1-.93.93H6.044a.93.93,0,0,1-.93-.93v-16.6a.93.93,0,0,1,.93-.93H10a.93.93,0,0,1,.93.93ZM8.024,11.417a3.761,3.761,0,1,1,3.761-3.761A3.761,3.761,0,0,1,8.024,11.417Zm23.6,19.167a.855.855,0,0,1-.855.855H26.521a.855.855,0,0,1-.855-.855V22.8c0-1.161.341-5.089-3.035-5.089-2.618,0-3.15,2.688-3.256,3.895v8.979a.855.855,0,0,1-.855.855H14.41a.855.855,0,0,1-.855-.855V13.837a.855.855,0,0,1,.855-.855H18.52a.855.855,0,0,1,.855.855v1.448c.971-1.457,2.414-2.582,5.486-2.582,6.8,0,6.764,6.356,6.764,9.848v8.033Z" fill="#fff"/>
</svg>
