<svg xmlns="http://www.w3.org/2000/svg" width="99.53" height="120.244" viewBox="0 0 99.53 120.244">
  <g id="Group_137" data-name="Group 137" transform="translate(-670 -224)">
    <path id="Path_214" data-name="Path 214" d="M211.09,194.02a5.431,5.431,0,0,1-1.507,2.634,14.661,14.661,0,0,1-5.78,3.809,26.232,26.232,0,0,1-3.484.906,25.239,25.239,0,0,0-5.365,1.487c-1.846.836-3.464,2.164-5.365,2.862a5.721,5.721,0,0,1-4.487-.256,3.638,3.638,0,0,1-1.224-1.037,5.336,5.336,0,0,1-2.267,2.129,1.737,1.737,0,0,0,.47,1.97,5.867,5.867,0,0,1,1.383,1.659,3.421,3.421,0,0,1,.1,1.5,3.938,3.938,0,0,1-.691,2.24,4.181,4.181,0,0,1-2.143,1.127c-5.337,1.569-11.58.74-15.949,4.176a3.351,3.351,0,0,1-4.418-.595,2.659,2.659,0,0,1-2.682.1,3.875,3.875,0,0,1-1.784-2.1,4.606,4.606,0,0,1,1.8-5.524,7.985,7.985,0,0,1,3.214-.781c1.4-.131,2.807-.276,4.218-.408,2.053-.207,4.148-.559,5.24-2.315.014-.906-1.009-1.487-1.915-1.535a23.6,23.6,0,0,1-2.7.055,2.879,2.879,0,0,1-1.646-.933,4.46,4.46,0,0,0-.567-.629c-.421-.311-1.134-.519-1.666-.837a1.324,1.324,0,0,1-.622-.657,3.139,3.139,0,0,1-.961.878,4.122,4.122,0,0,1-2.15.588,7.1,7.1,0,0,1-3.381-1,4.737,4.737,0,0,0-1.209-.546,6.9,6.9,0,0,0-1.2-.049,2.619,2.619,0,0,1-2.447-1.4,2.4,2.4,0,0,1,.283-2.1,7.98,7.98,0,0,1,1.389-1.791c-1.335-1.417-2.675-2.834-4-4.245a.584.584,0,0,1-.11-.145,35.307,35.307,0,0,0-1.784,12.859c.1,2.018.352,4.155-.518,5.987-.249.526-.581,1.009-.8,1.535a17.162,17.162,0,0,0-.567,3.968,7.612,7.612,0,0,1-4.155,5.586,4.622,4.622,0,0,1-4.342.049,6,6,0,0,1-5.89-.436c-.512.747-1.812.318-2.164-.519a3.884,3.884,0,0,1,.207-2.648,10.386,10.386,0,0,1,2.123-4.19c.878-.9,2.053-1.452,2.9-2.371a7.809,7.809,0,0,0,1.632-5.282,28.339,28.339,0,0,1,.208-5.635,33.913,33.913,0,0,1,1.4-4c1.209-3.409,1.127-7.494,1.209-11.1-1.044-1.348-3-1.431-4.528-2.171a10.584,10.584,0,0,1-2.115-1.466,11.025,11.025,0,0,1-1.376-1.161,77.26,77.26,0,0,0-3.8,15.908,23.206,23.206,0,0,1-.387,2.406,6.184,6.184,0,0,0-.249,1.278,11.448,11.448,0,0,0,.587,2.572c.36,1.867-.595,3.761-.518,5.669a6.756,6.756,0,0,1,.021,2.074,4.184,4.184,0,0,1-1,1.555,13.171,13.171,0,0,1-3.146,2.863,4.524,4.524,0,0,1-4.155.069c-1.314.366-2.7-.367-3.851-1.086-.449.09-.719-.477-.774-.926a7.514,7.514,0,0,1,4.638-7.578c-.014-3.38-2.067-6.491-2.136-9.865-.089-3.844,2.406-7.308,2.814-11.138.352-3.291-.857-6.678-.048-9.879.387-1.569,1.244-2.994,1.645-4.563.754-2.918-.138-5.98-.9-8.9s-1.383-6.125-.159-8.884c.408-.927,1.017-1.756,1.487-2.662.733-1.389,1.126-2.924,1.763-4.369a6.706,6.706,0,0,1,3.007-3.505l23.623-3.94,2.869-.477a2.805,2.805,0,0,1,2.517,1.5,5.125,5.125,0,0,1,.449.858c.518,1.251.691,3.235,1.825,3.968.94.616,1.991,1.051,2.973,1.6a30.335,30.335,0,0,1,4.224,2.993q4.8,3.848,9.617,7.688a26.288,26.288,0,0,1,3.083,2.724,27.235,27.235,0,0,1,3.035,4.335,68.35,68.35,0,0,1,6.671,13.2A3.469,3.469,0,0,1,187,179.578a10.407,10.407,0,0,1,.919,2.959,37.052,37.052,0,0,1,.94,7.584,13.341,13.341,0,0,1-1.881,7.211c-.028.055-.062.1-.09.145a1.79,1.79,0,0,0,.228.968,1.892,1.892,0,0,0,.94.857,3.771,3.771,0,0,0,1.8.09,75.619,75.619,0,0,0,9.181-1.431,23.785,23.785,0,0,0,9.562-4.335,3.36,3.36,0,0,1,1.224-.747,1.04,1.04,0,0,1,1.23.511A1.294,1.294,0,0,1,211.09,194.02Z" transform="translate(558.412 120.36)" fill="#f9c041"/>
    <path id="Path_215" data-name="Path 215" d="M166.727,140.37c-2.449,2.846-6.025,4.432-9.482,5.93l-2.474.7a4.69,4.69,0,0,0,1.879-1.459c1.7-1.958,2.965-4.3,4.693-6.191l2.87-.476A2.8,2.8,0,0,1,166.727,140.37Z" transform="translate(544.44 120.36)" fill="#462a1b"/>
    <path id="Path_216" data-name="Path 216" d="M129.072,149.347a7.524,7.524,0,0,0,1.983.725,41.232,41.232,0,0,0,4.346,1.507,10.113,10.113,0,0,0,4.015-.223,20.956,20.956,0,0,0,7.82-3.578c-1.766-.3-3.568-.383-5.316-.776-1.017-.229-2.008-.56-3.02-.814a24.652,24.652,0,0,0-6.6-.667c-1.115.028-2.228.114-3.335.243-1,.117-1.88.013-1.473,1.212A4.36,4.36,0,0,0,129.072,149.347Z" transform="translate(553.301 118.208)" fill="#462a1b"/>
    <path id="Path_217" data-name="Path 217" d="M165.272,116.436a6.949,6.949,0,0,1-1.72,1.03c-1.943,1.15-2.514,3.75-4.218,5.233-.436.38-1.134.666-1.554.262a1.231,1.231,0,0,1-.277-.507,17.252,17.252,0,0,1-.618-9.546l-.024.024c-.595.666-1.293,1.523-2.18,1.642a2.313,2.313,0,0,0-.706.142.7.7,0,0,0-.31.381,1.309,1.309,0,0,0-.024.816c.119.436.373.825.46,1.261a3.338,3.338,0,0,1-.61,2.164,10.2,10.2,0,0,1-2.062,2.9c-1.9,1.665-2.782,4.321-4.883,5.732a11.46,11.46,0,0,1-7.183,2.022c-.952-.08-1.895-.285-2.854-.294-1.586-.008-3.969.074-5.023-1.107-.928-.151-1.335.242-2.263.1a7.854,7.854,0,0,1-4.059-1.458,5.467,5.467,0,0,1-3.647-.586,19.266,19.266,0,0,1-3.171-2.5,4,4,0,0,1-.975-1.157,3.942,3.942,0,0,1-.183-2.062,2.722,2.722,0,0,1-1.626-2.735,6.828,6.828,0,0,1,1.356-3.187,7.55,7.55,0,0,1,2.671-2.6,32.7,32.7,0,0,1,2.22-7.921,11.173,11.173,0,0,1,1.372-2.577,15.124,15.124,0,0,1,1.989-1.9,25.277,25.277,0,0,0,2.474-2.5,2.728,2.728,0,0,0,.714-1.2c0-.016.008-.032.008-.048.024-.19-.064-.254-.262-.348-.214-.1-.476-.151-.618-.333-.254-.317-.024-.777.143-1.142a3.65,3.65,0,0,0,.151-2.68c-.048.135-.1.27-.159.4a35.73,35.73,0,0,1-1.72,3.33,9.451,9.451,0,0,1-1.625,2.275,4.1,4.1,0,0,1-2.474,1.213.344.344,0,0,1-.237-.515,1.541,1.541,0,0,1,.515-.547,6.831,6.831,0,0,0,2-3.829,8.085,8.085,0,0,0,.222-1.379c.024-.4-.016-.809.024-1.214a6.622,6.622,0,0,1,.595-1.91c.682-1.609,3.108-1.72,4.813-2.085a35.912,35.912,0,0,1,4.685-.666,4.6,4.6,0,0,1,1.919.135,4.959,4.959,0,0,1,2.053,1.792q1.511,1.915,3,3.814a6.774,6.774,0,0,0,2.521,1.665,27.17,27.17,0,0,1,6.208,3.726,13.764,13.764,0,0,0,3.361,2.506,4.149,4.149,0,0,1,2.751.6c1.07.523,2.14,1.062,3.2,1.609a9.721,9.721,0,0,1,2.236,1.443,7.891,7.891,0,0,1,1.609,2.4,39.921,39.921,0,0,1,2.212,6.406C165.826,114.113,166.1,115.532,165.272,116.436Z" transform="translate(557.13 137.206)" fill="#f9c041"/>
    <path id="Path_218" data-name="Path 218" d="M153.4,122.128a2.319,2.319,0,0,0-.662-.522,3.261,3.261,0,0,0-.432-.187.98.98,0,0,0-.375-.053,1.611,1.611,0,0,0-.641,0,1.63,1.63,0,0,0-.569.312.21.21,0,0,0-.088.258.205.205,0,0,0,.243.124.434.434,0,0,1,.223-.028,1.529,1.529,0,0,1,.187.026.621.621,0,0,0-.039.171,2.346,2.346,0,0,0,.2,1.145,1.394,1.394,0,0,0,1.449.826,1.115,1.115,0,0,0,.221-.047c.038-.014.076-.029.113-.045l.007,0a.574.574,0,0,0,.76-.21C154.378,123.323,153.774,122.553,153.4,122.128Z" transform="translate(545.785 126.031)" fill="#462a1b"/>
    <g id="Group_132" data-name="Group 132" transform="translate(683.372 237.799)">
      <path id="Path_219" data-name="Path 219" d="M134.639,110.148h0Z" transform="translate(-132.418 -108.149)" fill="#462a1b"/>
      <path id="Path_220" data-name="Path 220" d="M134.269,108.653a1.439,1.439,0,0,0-.348-.63,2.055,2.055,0,0,0-.56-.426,3.153,3.153,0,0,0-.413-.174c-.081-.032-.164-.062-.247-.091s-.162-.054-.244-.08c-.037-.011-.074-.024-.111-.034a1,1,0,0,0-.229-.026.743.743,0,0,0-.394.1.787.787,0,0,0-.35.455.844.844,0,0,0,.072.553.755.755,0,0,0,.427.355,1.126,1.126,0,0,0,.016.263,1.331,1.331,0,0,0,.157.438,1.461,1.461,0,0,0,.46.472,1.147,1.147,0,0,0,.615.187,1.081,1.081,0,0,0,.5-.125.372.372,0,0,0,.037-.02,1.425,1.425,0,0,0,.188-.143.734.734,0,0,0,.061-.082.267.267,0,0,0,.224-.137,1.11,1.11,0,0,0,.1-.377c-.014.053-.028.106-.042.159A.988.988,0,0,0,134.269,108.653Z" transform="translate(-131.355 -107.193)" fill="#462a1b"/>
    </g>
    <path id="Path_221" data-name="Path 221" d="M159.6,100.176a2.261,2.261,0,0,0-1.44-.111,2.643,2.643,0,0,0-.777.206,4.815,4.815,0,0,0-.661.356,8.056,8.056,0,0,0-2.069,2.194c-.125.169.152.375.293.223a8.008,8.008,0,0,1,2.24-1.523c.4-.21.821-.365,1.216-.571a12.611,12.611,0,0,0,1.2-.478A.172.172,0,0,0,159.6,100.176Z" transform="translate(544.49 132.932)" fill="#462a1b"/>
    <path id="Path_222" data-name="Path 222" d="M173.381,121.715c-.595.666-1.293,1.523-2.18,1.642a2.312,2.312,0,0,0-.706.142.7.7,0,0,0-.31.381,4.152,4.152,0,0,1-.42-.983,8.833,8.833,0,0,1-.38-2.315c-.024-.848.079-1.688,0-2.529a3.276,3.276,0,0,0-1.015-2.252c-.611-.515-1.554-.785-1.745-1.562a.293.293,0,0,1,.024-.23.3.3,0,0,1,.262-.064,7.022,7.022,0,0,1,4.8,2.68,8.326,8.326,0,0,1,1.7,4.424A2.7,2.7,0,0,1,173.381,121.715Z" transform="translate(540.608 128.422)" fill="#462a1b"/>
    <path id="Path_223" data-name="Path 223" d="M139.672,95.126c-1.308,1.142-3.306,1.031-4.789,1.935a3.608,3.608,0,0,0-.864.721c.024-.19-.064-.254-.262-.348-.214-.1-.476-.151-.618-.333-.254-.317-.024-.777.143-1.142a3.65,3.65,0,0,0,.151-2.68c-.048.135-.1.27-.159.4a2.936,2.936,0,0,1,.19-1.118,1.755,1.755,0,0,1,.856-.745,3.739,3.739,0,0,1,3.536.285A3.986,3.986,0,0,1,139.672,95.126Z" transform="translate(551.476 135.682)" fill="#462a1b"/>
    <path id="Path_224" data-name="Path 224" d="M121.149,130.569A3.729,3.729,0,0,1,123,127.111a1.945,1.945,0,0,1,1.88-.007c.445.287.7.8,1.113,1.126.529.417,1.265.5,1.791.916a2.4,2.4,0,0,1,.787,1.721,2.025,2.025,0,0,1-.353,1.431,2.585,2.585,0,0,1-.979.651c-1,.457-3.3,1.828-4.415,1.459C121.676,134.028,121.178,131.589,121.149,130.569Z" transform="translate(555.319 124.241)" fill="#462a1b"/>
    <path id="Path_225" data-name="Path 225" d="M128.529,134.386l-.014-.013a.231.231,0,0,0-.026-.031.831.831,0,0,0-.1-.083h0l-.032-.027c-.03-.026-.059-.053-.087-.08-.118-.116-.226-.241-.34-.359-.25-.258-.6-.566-.986-.462a.869.869,0,0,0-.5.425.716.716,0,0,0-.081.584,1.091,1.091,0,0,0,.9.623,2.546,2.546,0,0,0,.621.027,1.361,1.361,0,0,0,.517-.124.2.2,0,0,0,.1-.136c.022-.018.048-.028.063-.055A.241.241,0,0,0,128.529,134.386Z" transform="translate(553.64 122.155)" fill="#ffa8ac"/>
    <path id="Path_226" data-name="Path 226" d="M123.608,131.133a1.491,1.491,0,0,0-.218-.5,1.472,1.472,0,0,0-.3-.343c-.16-.133-.348-.329-.57-.336a.347.347,0,0,0-.369.231.3.3,0,0,0,.037.224.579.579,0,0,0,.063.083l.016.019v0l.022.032c.014.041.029.081.045.12.048.121.1.242.152.36.028.06.06.121.095.18a1.038,1.038,0,0,0,.186.423.5.5,0,0,0,.842-.486Z" transform="translate(554.997 123.243)" fill="#ffa8ac"/>
    <g id="Group_133" data-name="Group 133" transform="translate(676.24 255.365)">
      <path id="Path_227" data-name="Path 227" d="M129.756,147.777h0l-.014-.005A.079.079,0,0,1,129.756,147.777Z" transform="translate(-123.702 -137.888)" fill="#462a1b"/>
      <path id="Path_228" data-name="Path 228" d="M129.752,147.78c-.066,0,.077.031,0,0Z" transform="translate(-123.699 -137.891)" fill="#462a1b"/>
      <path id="Path_229" data-name="Path 229" d="M150.9,140.119a32.028,32.028,0,0,1-4.034,3.271,8.089,8.089,0,0,1-4.345,1.622,12.457,12.457,0,0,1-2.7-.124,11.991,11.991,0,0,0-2.3-.345,7.76,7.76,0,0,1-2.3-.16,4.313,4.313,0,0,1-1.54-.772,18.442,18.442,0,0,0,4.1-1.384,13.222,13.222,0,0,0,1.234-.691l0,0a5.917,5.917,0,0,0,3.564-.417c1.289-.453,2.567-.932,3.852-1.393a.235.235,0,0,0-.12-.455c-1.23.313-2.48.532-3.7.9a13.066,13.066,0,0,1-2.742.793c.555-.394,1.093-.814,1.611-1.247.2-.166-.064-.517-.279-.366a21.817,21.817,0,0,1-7.268,3.335,12.78,12.78,0,0,1-3.66.363,6.206,6.206,0,0,1-1.557-.265,3.52,3.52,0,0,1-1-.466,2.036,2.036,0,0,0-.368-.376.327.327,0,0,0-.056-.047,2.769,2.769,0,0,1-.232-.21,6.754,6.754,0,0,1-.72-.992,9.326,9.326,0,0,0-1.483-1.759,7.948,7.948,0,0,0-1.74-1.322,4.853,4.853,0,0,0-.493-.209,2.858,2.858,0,0,1,.278-.852,6.448,6.448,0,0,0,.31-1.05c.185-.765.539-1.475.706-2.245a.081.081,0,0,0-.156-.041c-.31.773-.839,1.433-1.181,2.19a5.284,5.284,0,0,0-.475,1.8c-.369-.15-.662-.419-1.023-.576-.217-.094-.4.209-.187.329a7.568,7.568,0,0,1,.825.662,10.755,10.755,0,0,0,.977.618,9.747,9.747,0,0,1,1.726,1.353,5.373,5.373,0,0,1,.736.808c.228.325.429.664.671.978a4.388,4.388,0,0,0,.756.787c-.119.013-.212.028-.39.039a4.951,4.951,0,0,1-1.337-.1.263.263,0,0,0-.133.509c.41.118.831.2,1.25.281.216.041.43.082.649.1h.01l.055.009a1.524,1.524,0,0,0,.179.03c-.011,0-.008,0-.015,0a.9.9,0,0,0,.18.052.378.378,0,0,0,.393-.067,4.368,4.368,0,0,0,2.092.869,10.559,10.559,0,0,0,3.423-.152,6.139,6.139,0,0,0,4.014,1.577,12.156,12.156,0,0,1,1.5.07c.388.083.764.2,1.156.264a14.08,14.08,0,0,0,2.9.177,8.009,8.009,0,0,0,4.685-1.508,23.065,23.065,0,0,0,3.978-3.929C151.348,140.208,151.086,139.929,150.9,140.119Z" transform="translate(-120.812 -133.161)" fill="#462a1b"/>
    </g>
    <path id="Path_230" data-name="Path 230" d="M118.921,137.359a2.129,2.129,0,0,0-.388-.241c-.083-.039-.171-.07-.257-.1a.853.853,0,0,0-.282-.055.331.331,0,0,0-.324.287.316.316,0,0,0,.038.2l.053.07a.33.33,0,0,0,.149.086.544.544,0,0,0,.094.022.858.858,0,0,0,.171.017l.2,0c.066,0,.132,0,.2.007h.007c.014,0,.028,0,.041.009l.045.014c.014,0,.067.026,0,0a.21.21,0,0,0,.262-.055A.2.2,0,0,0,118.921,137.359Z" transform="translate(556.445 120.974)" fill="#462a1b"/>
    <path id="Path_231" data-name="Path 231" d="M135.561,143.281c-.448.191-.9.357-1.362.526a3.168,3.168,0,0,1-1.471.231,5.486,5.486,0,0,1-1.458-.251c-.44-.167-.858-.387-1.295-.562-.193-.078-.329.252-.139.342.469.219.917.48,1.391.69.251.111.511.2.76.318a3.333,3.333,0,0,0,.832.316,3.08,3.08,0,0,0,2.913-1.385A.143.143,0,0,0,135.561,143.281Z" transform="translate(552.537 118.952)" fill="#462a1b"/>
    <path id="Path_232" data-name="Path 232" d="M150.024,148.027a2.117,2.117,0,0,0-.743.084,7.268,7.268,0,0,0-.851.193c-.555.162-1.117.335-1.681.463a16.771,16.771,0,0,0-3.339.677c-.226.1-.063.422.155.382,1.157-.218,2.343-.058,3.5-.28.57-.11,1.137-.265,1.694-.429a3.5,3.5,0,0,0,.8-.351,1.406,1.406,0,0,0,.583-.459A.193.193,0,0,0,150.024,148.027Z" transform="translate(548.151 117.398)" fill="#462a1b"/>
    <path id="Path_233" data-name="Path 233" d="M135.459,129.009a5.364,5.364,0,0,0-.735-.788,2.126,2.126,0,0,0-.735-.446.155.155,0,0,0-.116.284,1.686,1.686,0,0,1,.522.5,5.28,5.28,0,0,1,.477.829c.145.281.279.575.4.868l.018.047c.012.031.023.063.035.094.022.058.046.113.071.168.057.129-.069-.143.041.1.023.051.049.1.073.152l.013.031c.009.026.018.051.026.076a.305.305,0,0,0,.6-.077A2.756,2.756,0,0,0,135.459,129.009Z" transform="translate(551.226 123.95)" fill="#462a1b"/>
    <path id="Path_234" data-name="Path 234" d="M129.571,115.518a12.747,12.747,0,0,0-2.448,1.432c-.893.575-1.875,1-2.77,1.573-1.227.789-3.046,1.959-2.762,3.669a.293.293,0,0,0,.563,0,2.8,2.8,0,0,1,.305-1.044,3.109,3.109,0,0,1,.743-.76c.63-.506,1.327-.944,1.981-1.418.748-.541,1.554-1,2.279-1.574a11.232,11.232,0,0,1,2.23-1.577C129.861,115.743,129.745,115.454,129.571,115.518Z" transform="translate(555.185 127.916)" fill="#462a1b"/>
    <path id="Path_235" data-name="Path 235" d="M140.329,106.267a1.826,1.826,0,0,0-.279-.487,1.652,1.652,0,0,0-.289-.29,2.5,2.5,0,0,0-.373-.254.208.208,0,0,0-.266.056.2.2,0,0,0,.017.271,1.426,1.426,0,0,1,.132.116l.033.034c.032.031-.012-.02,0,0l.048.07a1.68,1.68,0,0,1,.1.17c.012.024.023.05.034.075l.015.042a1.483,1.483,0,0,1,.05.178c.006.028.011.057.017.086s.005.03.008.046c0,.045.009.091.016.137l.005.03c0,.055.012.111.014.166a.381.381,0,0,0,.33.372.375.375,0,0,0,.413-.276A1.034,1.034,0,0,0,140.329,106.267Z" transform="translate(549.518 131.248)" fill="#462a1b"/>
    <path id="Path_236" data-name="Path 236" d="M152.287,115.812a.944.944,0,0,0-.166-.129,1.25,1.25,0,0,0-.319-.125,1.014,1.014,0,0,0-.714.07.31.31,0,0,0,.231.569.585.585,0,0,1,.084-.021.671.671,0,0,1,.074,0,.97.97,0,0,1,.125.032,1.3,1.3,0,0,1,.168.092c.03.02.064.037.094.056a.4.4,0,0,0,.243.057.3.3,0,0,0,.3-.3A.418.418,0,0,0,152.287,115.812Z" transform="translate(545.682 127.91)" fill="#462a1b"/>
    <path id="Path_237" data-name="Path 237" d="M149.129,113.5a.273.273,0,0,0-.367-.1c-.213.116-.431.216-.649.321a4.161,4.161,0,0,0-.733.405,2.626,2.626,0,0,0-.623.648,1.674,1.674,0,0,0-.191.411,1.208,1.208,0,0,0-.028.452.356.356,0,0,0,.7.1l0,.012c.006-.016.013-.03.02-.045s0-.016,0-.017a1.6,1.6,0,0,0,.125-.2,3.121,3.121,0,0,1,.183-.293l.052-.062.114-.127c.083-.094.176-.177.264-.267a6.832,6.832,0,0,1,.528-.49c.087-.07.173-.141.262-.208l.035-.024.08-.055.134-.093A.277.277,0,0,0,149.129,113.5Z" transform="translate(547.107 128.611)" fill="#462a1b"/>
    <path id="Path_238" data-name="Path 238" d="M173.973,114.681a3.239,3.239,0,0,0-.57-1.073,2.732,2.732,0,0,0-.477-.409,2.2,2.2,0,0,0-.534-.25,3.593,3.593,0,0,0-1.086-.179c-.2-.007-.25.321-.046.353a1.559,1.559,0,0,1,.812.421c.122.111.229.238.347.353s.248.254.373.38c.25.252.524.455.759.69a3.413,3.413,0,0,1,.586.795c.056.1.234.036.193-.079C174.212,115.35,174.094,115.015,173.973,114.681Z" transform="translate(539.147 128.801)" fill="#462a1b"/>
    <g id="Group_134" data-name="Group 134" transform="translate(690.684 227.667)">
      <path id="Path_239" data-name="Path 239" d="M143.442,93.265a1,1,0,0,0-.142-.193c-.08-.087-.164-.17-.248-.253s-.168-.163-.252-.246c-.041-.042-.079-.086-.116-.132l-.055-.068-.024-.03,0-.005-.005-.007h0a.248.248,0,0,0-.14-.107.229.229,0,0,0-.258.335c.057.091.119.179.178.268s.113.182.17.273.109.173.161.262c.028.046.054.093.08.139a1.056,1.056,0,0,0,.108.149.394.394,0,0,0,.124.116.781.781,0,0,0,.116.045.292.292,0,0,0,.356-.208,1.034,1.034,0,0,0,.015-.129A.411.411,0,0,0,143.442,93.265Z" transform="translate(-142.165 -92.214)" fill="#462a1b"/>
      <path id="Path_240" data-name="Path 240" d="M143.255,94.355c-.009-.013-.018-.026-.028-.039l-.027-.033Z" transform="translate(-142.5 -92.884)" fill="#462a1b"/>
    </g>
    <g id="Group_135" data-name="Group 135" transform="translate(709.148 237.871)">
      <path id="Path_241" data-name="Path 241" d="M170.549,109.044l0,0C170.559,109.03,170.58,109,170.549,109.044Z" transform="translate(-169.812 -107.857)" fill="#462a1b"/>
      <path id="Path_242" data-name="Path 242" d="M170.625,107.32c-.466-.123-.8.337-.968.708a2.463,2.463,0,0,0-.2,1.042.222.222,0,0,0,.444,0s0,0,0,0v-.007h0c0-.016,0-.032.008-.047a.581.581,0,0,1,.025-.085c.005-.013.02-.049.026-.06.014-.031.03-.062.045-.092.037-.069.078-.137.121-.2.02-.03.041-.06.062-.089-.007.009-.012.016,0,.005.026-.037.055-.071.081-.108l.03-.042h0c.022-.026.042-.053.064-.078.049-.055.1-.106.153-.159s.1-.091.146-.143a.87.87,0,0,0,.11-.14c.012-.024.022-.048.035-.072A.3.3,0,0,0,170.625,107.32Z" transform="translate(-169.46 -107.3)" fill="#462a1b"/>
    </g>
    <path id="Path_243" data-name="Path 243" d="M143.56,136.982a2.914,2.914,0,0,0-.507-.918c-.145-.177-.452.055-.322.246a1.267,1.267,0,0,1,.155.8c-.02.338-.06.7-.1,1a3.586,3.586,0,0,1-.513,1.847c-.12.156.037.447.234.308a3.59,3.59,0,0,0,1.14-1.981A2.712,2.712,0,0,0,143.56,136.982Z" transform="translate(548.497 121.285)" fill="#462a1b"/>
    <path id="Path_244" data-name="Path 244" d="M133.918,196.758a18.323,18.323,0,0,0-.651-1.989,8.044,8.044,0,0,0-1.1-1.6,11.656,11.656,0,0,1-2.051-3.1c-.45-1.267-.151-2.667-.63-3.936a12.408,12.408,0,0,0-2.3-3.574c-.231-.268-.717.093-.5.382a11.828,11.828,0,0,1,1.972,3.689A14.659,14.659,0,0,1,129,188.79a6.175,6.175,0,0,0-1.885-1.708.309.309,0,0,0-.305.536,6.6,6.6,0,0,1,1.848,2.032c.269.4.5.827.768,1.234a5.466,5.466,0,0,0,.479.645,18.768,18.768,0,0,0,1.45,2.11c.367.476.735.953,1.09,1.438a10.706,10.706,0,0,1,.965,1.887C133.543,197.247,134.011,197.054,133.918,196.758Z" transform="translate(553.544 106.253)" fill="#f2dcc2"/>
    <path id="Path_245" data-name="Path 245" d="M146.915,202.285a10.985,10.985,0,0,0-.906-3.739,18.038,18.038,0,0,0-1.605-3.2,15.25,15.25,0,0,0-2.359-2.733.3.3,0,0,0-.421.421A18.165,18.165,0,0,1,144.919,199a11.024,11.024,0,0,1,.821,3.46c.08,1.247-.029,2.493.085,3.735a.431.431,0,0,0,.861,0A29.158,29.158,0,0,0,146.915,202.285Z" transform="translate(548.722 102.996)" fill="#f2dcc2"/>
    <path id="Path_246" data-name="Path 246" d="M169.445,189.648c-.17-.4-.857-.12-.706.287a10.11,10.11,0,0,1,.417,5.256,7.824,7.824,0,0,1-.842,2.424,6.407,6.407,0,0,1-.432.658c0-.212.018-.424.007-.638a12.7,12.7,0,0,0-1.214-4.448c-.167-.391-.835-.12-.694.283a13.687,13.687,0,0,1,.727,4.5,17.5,17.5,0,0,1-.782,4.565c-.4,1.453-.793,2.911-1.1,4.387a14.826,14.826,0,0,0-.433,4.471.4.4,0,0,0,.806,0c.183-1.565.3-3.12.624-4.668a36.049,36.049,0,0,1,1.311-4.495,14.518,14.518,0,0,0,.569-2.138,3.192,3.192,0,0,0,.755-.61,5.952,5.952,0,0,0,.885-1.2,8,8,0,0,0,.931-2.789A10.82,10.82,0,0,0,169.445,189.648Z" transform="translate(541.34 103.99)" fill="#f2dcc2"/>
    <path id="Path_247" data-name="Path 247" d="M181.363,232a1.324,1.324,0,0,1-.622-.657,3.14,3.14,0,0,1-.961.878,15.671,15.671,0,0,0-2.33-1.77c-.892-.588-1.818-1.127-2.689-1.756a13.393,13.393,0,0,0-2.731-1.68c-.429-.179-.124-.864.3-.739a23.015,23.015,0,0,1,5.911,2.966,14.455,14.455,0,0,1,2.564,2.067A5.9,5.9,0,0,1,181.363,232Z" transform="translate(538.923 92.082)" fill="#462a1b"/>
    <path id="Path_248" data-name="Path 248" d="M202.271,202.068c-1.514.783-3.078,1.466-4.619,2.192-1.448.682-2.959,1.238-4.384,1.964a10.488,10.488,0,0,0-3.306,2.579c-.684.807-1.32,1.651-2.051,2.411a.456.456,0,0,0-.093-.016,4.235,4.235,0,0,0-1.868.491,15.048,15.048,0,0,1-1.9.822,13.092,13.092,0,0,1-3.973.681.279.279,0,0,0,0,.557,17.8,17.8,0,0,0,4.011-.311,13.4,13.4,0,0,0,1.92-.584c.279-.1.563-.215.848-.323,1.446,3.206,1.715,6.729,2.778,10.051a3.842,3.842,0,0,0,2.087,2.631c1.37.58,3.014.411,4.26,1.3.225.16.514-.214.3-.391-1.121-.916-2.616-.966-3.87-1.607a3.76,3.76,0,0,1-1.835-2.666c-.846-3.064-1.375-6.256-2.621-9.194a11.2,11.2,0,0,0,2.676-2.738,11.805,11.805,0,0,1,3.26-2.761c1.374-.814,2.811-1.527,4.243-2.229,1.5-.735,2.955-1.549,4.408-2.375A.276.276,0,0,0,202.271,202.068Z" transform="translate(536.338 99.92)" fill="#462a1b"/>
    <path id="Path_249" data-name="Path 249" d="M204.736,243.2a17.787,17.787,0,0,0-4.126-1.817,7.729,7.729,0,0,0-2.4-.335c-.583.03-1.426.171-1.7.771a.413.413,0,0,0-.035.16.356.356,0,0,0-.09.193.385.385,0,0,0,.284.427,9.529,9.529,0,0,1,3.2.961c1.009.53,1.952,1.176,2.929,1.76.281.168.5-.252.248-.436-.972-.693-1.831-1.538-2.84-2.18a6.038,6.038,0,0,0-1.269-.615,13.377,13.377,0,0,1,1.686.319,16.727,16.727,0,0,1,3.867,1.219A.245.245,0,0,0,204.736,243.2Z" transform="translate(530.976 87.299)" fill="#462a1b"/>
    <path id="Path_250" data-name="Path 250" d="M221.7,226.413c-.4,1.332-.547,2.743-.936,4.083a18.809,18.809,0,0,1-.848,2.4c-.072.175-.151.349-.238.531a3.594,3.594,0,0,1-1.221-1.038c.032-.071.064-.151.087-.222.27-.769.507-1.538.793-2.291a45.718,45.718,0,0,1,2.109-4.464.216.216,0,0,1,.118-.119c-.031.055-.063.1-.095.151A1.85,1.85,0,0,0,221.7,226.413Z" transform="translate(523.835 92.394)" fill="#462a1b"/>
    <path id="Path_251" data-name="Path 251" d="M142.962,177.9a11.071,11.071,0,0,1-2.851-4.193.2.2,0,0,0-.384.1,16.438,16.438,0,0,0,.811,2.645,6.728,6.728,0,0,0,1.643,2.226.564.564,0,0,0,.78,0A.558.558,0,0,0,142.962,177.9Z" transform="translate(549.31 109.132)" fill="#462a1b"/>
    <path id="Path_252" data-name="Path 252" d="M131.4,177.4c-.156-.925-.342-1.842-.536-2.759-.377-1.78-.772-3.8-.023-5.531.119-.276-.285-.517-.415-.235a9.7,9.7,0,0,0-.871,5.586,13.218,13.218,0,0,0,.787,2.867c.355.93.856,1.8,1.157,2.751a.133.133,0,0,0,.258-.068C131.595,179.144,131.541,178.265,131.4,177.4Z" transform="translate(552.633 110.69)" fill="#462a1b"/>
    <path id="Path_253" data-name="Path 253" d="M136.354,192.435c-.074-.072-.143-.148-.212-.225l-.047-.057c-.022-.029-.043-.06-.064-.09a4.922,4.922,0,0,1-.3-.5c-.182-.356-.345-.72-.5-1.089a9.833,9.833,0,0,0-.486-1.059,4.177,4.177,0,0,0-.735-.934c-.156-.152-.459.056-.317.242a5.83,5.83,0,0,1,.733,2.234,3.944,3.944,0,0,0,1.156,2.252.559.559,0,0,0,.771,0A.551.551,0,0,0,136.354,192.435Z" transform="translate(551.272 104.323)" fill="#462a1b"/>
    <path id="Path_254" data-name="Path 254" d="M173.985,168.053c-.1-.787-.461-1.5-.6-2.275-.061-.352-.611-.267-.609.078,0,.7.171,1.376.194,2.069a3.823,3.823,0,0,1-.554,1.946,25.78,25.78,0,0,1-2.193,3.733c-.227.293.148.706.421.421a16.447,16.447,0,0,0,2.842-3.781A3.772,3.772,0,0,0,173.985,168.053Z" transform="translate(539.462 111.724)" fill="#462a1b"/>
    <path id="Path_255" data-name="Path 255" d="M187.7,160.748a.375.375,0,0,0-.494-.137.366.366,0,0,0-.136.494,1.523,1.523,0,0,1,.141.267l.008.026c.008.031.017.062.024.093.011.051.021.1.03.154l0,.011h0c0,.026.005.052.007.078,0,.053.006.106.007.158,0,.114.005.229,0,.342s-.016.218-.026.326c-.007.054-.015.109-.022.163l-.008.076h0c-.03.218-.07.435-.114.651a.5.5,0,0,0,.971.255A3.774,3.774,0,0,0,187.7,160.748Z" transform="translate(534.004 113.337)" fill="#462a1b"/>
    <path id="Path_256" data-name="Path 256" d="M207.328,194.755a38.222,38.222,0,0,0-5.1.04,17.444,17.444,0,0,0-4.22.986,13.872,13.872,0,0,0-6.76,5.276,16.473,16.473,0,0,0-1.212,2.078A6.459,6.459,0,0,1,188.6,205.3c-.218.19.1.5.315.315a14.735,14.735,0,0,0,2.732-3.114,21.928,21.928,0,0,1,2.589-3.216,12.942,12.942,0,0,1,3.488-2.513,12.365,12.365,0,0,1,4.1-1.069c.884-.088,1.774-.087,2.66-.159.948-.078,1.9-.136,2.846-.162A.313.313,0,0,0,207.328,194.755Z" transform="translate(533.518 102.297)" fill="#462a1b"/>
    <path id="Path_257" data-name="Path 257" d="M113.8,248.439a.288.288,0,1,0-.5-.285,3.506,3.506,0,0,0-.364.6,2.6,2.6,0,0,0-.2.735,3.481,3.481,0,0,0-.041.768,1.445,1.445,0,0,0,.29.918.467.467,0,0,0,.772-.21,1.711,1.711,0,0,0-.046-.8c-.016-.107-.036-.213-.053-.319,0-.018,0-.036-.007-.053l0-.026c0-.055-.011-.109-.014-.164a4.523,4.523,0,0,1,.017-.642A1.369,1.369,0,0,1,113.8,248.439Z" transform="translate(558.058 85.045)" fill="#462a1b"/>
    <path id="Path_258" data-name="Path 258" d="M116.311,248.125a4.239,4.239,0,0,0-.6,1.907,6.088,6.088,0,0,0-.006.9,3.9,3.9,0,0,0,.18,1.065.484.484,0,0,0,.95-.122,16.79,16.79,0,0,0-.195-1.785,4.312,4.312,0,0,1,.266-1.724C117.041,248.012,116.5,247.82,116.311,248.125Z" transform="translate(557.084 85.056)" fill="#462a1b"/>
    <path id="Path_259" data-name="Path 259" d="M120.766,246.559a.366.366,0,0,0-.635-.361A9.846,9.846,0,0,0,118.753,249a3.587,3.587,0,0,0,.2,3.181c.342.436,1.024-.038.9-.515a4.822,4.822,0,0,1-.231-1.193,5.2,5.2,0,0,1,.185-1.364A13.951,13.951,0,0,1,120.766,246.559Z" transform="translate(556.182 85.687)" fill="#462a1b"/>
    <path id="Path_260" data-name="Path 260" d="M148.61,257.76a.4.4,0,0,0-.556,0,4.377,4.377,0,0,0-1.189,1.663,4.669,4.669,0,0,0-.318,1.017c-.067.418-.213,1.006.116,1.341a.562.562,0,0,0,.784,0c.29-.284.2-.768.239-1.143.007-.077.015-.154.022-.231l.01-.1,0-.03a.069.069,0,0,0,0-.009c.022-.154.051-.307.087-.459a3.117,3.117,0,0,1,.8-1.492A.4.4,0,0,0,148.61,257.76Z" transform="translate(547.131 81.926)" fill="#462a1b"/>
    <path id="Path_261" data-name="Path 261" d="M140.05,257.97a9.735,9.735,0,0,0-2.071,1.594,3.441,3.441,0,0,0-.8,1.215c-.168.459-.212,1.28.271,1.56a.536.536,0,0,0,.769-.325.809.809,0,0,0-.022-.478c0-.022-.009-.074-.01-.077,0-.022,0-.045,0-.067,0-.041,0-.083,0-.124a.071.071,0,0,0,0-.016l0-.01c.018-.091.032-.183.055-.273s.053-.183.085-.274c.006-.018.005-.017.007-.024a.231.231,0,0,0,.013-.025c.02-.042.039-.085.06-.127a5.474,5.474,0,0,1,.309-.541,5.66,5.66,0,0,1,1.6-1.528C140.615,258.255,140.362,257.793,140.05,257.97Z" transform="translate(550.169 81.835)" fill="#462a1b"/>
    <path id="Path_262" data-name="Path 262" d="M137.088,255.228a.329.329,0,0,0-.389-.2l-.131.05-.068.027-.1.041q.082-.032.03-.014c-.095.028-.188.066-.28.1a3.055,3.055,0,0,0-.658.33,3.315,3.315,0,0,0-.342.272,1.7,1.7,0,0,0-.26.33,1.228,1.228,0,0,0-.2.778.535.535,0,0,0,.145.35.505.505,0,0,0,.35.145.5.5,0,0,0,.35-.145.572.572,0,0,0,.145-.348l-.014.1a.924.924,0,0,1,.057-.217l-.042.1h0l.043-.108a1.378,1.378,0,0,1,.162-.276l.087-.114-.084.11a4.052,4.052,0,0,1,.545-.548q.07-.062.142-.12l.071-.056,0,0,0,0a3.066,3.066,0,0,1,.29-.183A.332.332,0,0,0,137.088,255.228Z" transform="translate(550.939 82.778)" fill="#462a1b"/>
    <path id="Path_263" data-name="Path 263" d="M180.446,247.065a4.1,4.1,0,0,0-2.265,2.967,5,5,0,0,0,.106,2.027,3.3,3.3,0,0,0,1.042,1.9.646.646,0,0,0,.932-.716,3.649,3.649,0,0,0-.4-.835,3.659,3.659,0,0,1-.238-.659,4.486,4.486,0,0,1-.176-1.516,3.138,3.138,0,0,1,1.312-2.618A.316.316,0,0,0,180.446,247.065Z" transform="translate(536.885 85.363)" fill="#462a1b"/>
    <path id="Path_264" data-name="Path 264" d="M184.325,255.105c-.024-.028-.051-.055-.077-.082a.214.214,0,0,0-.02-.019,1.1,1.1,0,0,1-.1-.158c-.039-.065-.077-.13-.111-.2-.015-.031-.029-.063-.043-.095l0-.014c-.024-.075-.049-.149-.07-.225s-.037-.155-.051-.233c-.007-.037-.013-.074-.018-.112,0-.012,0-.032-.005-.054a4.741,4.741,0,0,1,.014-.979.058.058,0,0,1,0-.01l0-.026c.007-.039.012-.079.019-.118q.02-.115.047-.229a4.235,4.235,0,0,1,.126-.444.463.463,0,0,0-.848-.345,4.95,4.95,0,0,0-.507,2.226,3.4,3.4,0,0,0,.194,1.124c.186.5.56,1.169,1.183,1.042a.577.577,0,0,0,.422-.423A.709.709,0,0,0,184.325,255.105Z" transform="translate(535.409 83.904)" fill="#462a1b"/>
    <path id="Path_265" data-name="Path 265" d="M191.113,255.317c-.049-.066-.095-.133-.145-.2v0l.073.1a.947.947,0,0,1-.087-.153,1.4,1.4,0,0,1-.047-.2c-.016-.179-.019-.359-.032-.538a.536.536,0,0,0-.148-.357.5.5,0,0,0-.714,0,.556.556,0,0,0-.148.357c-.014.234-.055.467-.047.7a1.4,1.4,0,0,0,.382.984.58.58,0,0,0,.757.047.567.567,0,0,0,.156-.743Z" transform="translate(533.101 83.164)" fill="#462a1b"/>
    <path id="Path_266" data-name="Path 266" d="M252.924,219.84a5.4,5.4,0,0,1-1.506,2.633,14.578,14.578,0,0,1-5.78,3.8,26.384,26.384,0,0,1-3.48.912,3.939,3.939,0,0,0-1.276-3.409,23.75,23.75,0,0,0,9.561-4.337,3.4,3.4,0,0,1,1.229-.745,1.041,1.041,0,0,1,1.229.507A1.321,1.321,0,0,1,252.924,219.84Z" transform="translate(516.579 94.54)" fill="#462a1b"/>
  </g>
</svg>
