<svg xmlns="http://www.w3.org/2000/svg" width="307" height="53.59" viewBox="0 0 307 53.59">
  <g id="Group_339" data-name="Group 339" transform="translate(-513 -5514)">
    <path id="Path_692" data-name="Path 692" d="M-843.953,5438.1l21.453-24.042-21.453-22.562H-1129.5v46.235Z" transform="translate(1642.5 126.199)" fill="#393e3f"/>
    <path id="Path_693" data-name="Path 693" d="M-1131.5,5386h58.071l26.8,26.8-26.8,26.795H-1131.5Z" transform="translate(1644.5 128)" fill="#f9c041"/>
    <g id="Group_338" data-name="Group 338" transform="translate(606.949 5527.315)">
      <path id="Path_694" data-name="Path 694" d="M-1003.5,5413.1l8.507-2.219,5.918-8.877,5.178,8.877,9.247,2.219-6.288,7.028v9.987l-8.137-4.809-9.247,4.809,1.479-9.987Z" transform="translate(1003.5 -5402)" fill="#f9c041"/>
      <path id="Path_695" data-name="Path 695" d="M-1003.5,5413.1l8.507-2.219,5.918-8.877,5.178,8.877,9.247,2.219-6.288,7.028v9.987l-8.137-4.809-9.247,4.809,1.479-9.987Z" transform="translate(1042.707 -5402)" fill="#f9c041"/>
      <path id="Path_696" data-name="Path 696" d="M-1003.5,5413.1l8.507-2.219,5.918-8.877,5.178,8.877,9.247,2.219-6.288,7.028v9.987l-8.137-4.809-9.247,4.809,1.479-9.987Z" transform="translate(1081.175 -5402)" fill="#f9c041"/>
      <path id="Path_697" data-name="Path 697" d="M-1003.5,5413.1l8.507-2.219,5.918-8.877,5.178,8.877,9.247,2.219-6.288,7.028v9.987l-8.137-4.809-9.247,4.809,1.479-9.987Z" transform="translate(1120.382 -5402)" fill="#f9c041"/>
      <path id="Path_698" data-name="Path 698" d="M-1003.5,5413.1l8.507-2.219,5.918-8.877,5.178,8.877,9.247,2.219-6.288,7.028v9.987l-8.137-4.809-9.247,4.809,1.479-9.987Z" transform="translate(1158.849 -5402)" fill="#f9c041"/>
    </g>
    <text id="_5.0" data-name="5.0" transform="translate(548.754 5549.096)" fill="#393e3f" font-size="25" font-family="Roboto-Bold, Roboto" font-weight="700"><tspan x="-17.975" y="0">5.0</tspan></text>
  </g>
</svg>
