<svg xmlns="http://www.w3.org/2000/svg" width="81.334" height="97.687" viewBox="0 0 81.334 97.687">
  <g id="Group_136" data-name="Group 136" transform="translate(-406 -235)">
    <g id="Group_99" data-name="Group 99" transform="translate(-426.839 -420.292)">
      <g id="Group_13" data-name="Group 13" transform="translate(893.925 704.23)">
        <g id="Group_9" data-name="Group 9" transform="translate(1.128 0.894)">
          <g id="Group_8" data-name="Group 8">
            <path id="Path_2" data-name="Path 2" d="M2630.88,2101.134a17.206,17.206,0,0,1-10.2,7.828l-2.263-7.024a11.3,11.3,0,0,0,5.981-5.217,15.487,15.487,0,0,0,1.811-7.63,3.624,3.624,0,0,1,3.383-3.591c.085-.006.17-.008.256-.008a3.637,3.637,0,0,1,3.629,3.466A22.521,22.521,0,0,1,2630.88,2101.134Z" transform="translate(-2618.416 -2085.491)" fill="#f9c041"/>
          </g>
        </g>
        <g id="Group_10" data-name="Group 10" transform="translate(7.109 0.894)">
          <path id="Path_3" data-name="Path 3" d="M2796.564,2101.134a9.259,9.259,0,0,1-6.483-4.414,15.487,15.487,0,0,0,1.811-7.63,3.624,3.624,0,0,1,3.383-3.591c.085-.006.171-.008.256-.008a3.637,3.637,0,0,1,3.629,3.466A22.512,22.512,0,0,1,2796.564,2101.134Z" transform="translate(-2790.081 -2085.491)" fill="#fff"/>
        </g>
        <g id="Group_11" data-name="Group 11" transform="translate(2.639 0.905)" opacity="0.3">
          <path id="Path_4" data-name="Path 4" d="M2675.322,2089.265a3.635,3.635,0,0,0-3.4-3.455,3.623,3.623,0,0,1,.625,1.869,22.516,22.516,0,0,1-2.6,12.177,16.674,16.674,0,0,1-8.177,7.08l.752,2.335a17.2,17.2,0,0,0,10.2-7.828A22.516,22.516,0,0,0,2675.322,2089.265Z" transform="translate(-2661.772 -2085.81)" fill="#000072"/>
        </g>
        <g id="Group_12" data-name="Group 12" transform="translate(0 0)">
          <path id="Path_5" data-name="Path 5" d="M2588.848,2085.323l-2.813-8.737.871-.26c.3-.093,7.129-2.305,7.157-12a4.528,4.528,0,0,1,9.052-.172,24.425,24.425,0,0,1-1.923,11.135,17.925,17.925,0,0,1-11.5,9.762Zm-.579-7.622,1.729,5.369c10.442-3.767,11.6-13.354,11.334-18.825a2.743,2.743,0,0,0-5.484.091c-.017,5.75-2.281,9.161-4.177,11.01A12.235,12.235,0,0,1,2588.269,2077.7Z" transform="translate(-2586.035 -2059.841)" fill="#000072"/>
        </g>
      </g>
      <g id="Group_23" data-name="Group 23" transform="translate(884.467 719.514)">
        <g id="Group_15" data-name="Group 15" transform="translate(0.881 0.903)">
          <g id="Group_14" data-name="Group 14">
            <path id="Path_6" data-name="Path 6" d="M2339.858,2542.53a29.2,29.2,0,0,0,.577,5.753,7.981,7.981,0,0,0,5.658,6.128,21.719,21.719,0,0,0,10.608.3,4.94,4.94,0,0,0,3.83-4.176,7.915,7.915,0,0,0,.02-1.884c-.547-4.773-5.668-6.273-5.668-6.273.2-.417.383-.823.547-1.223a18.411,18.411,0,0,0,.815-2.44,13.435,13.435,0,0,0,.427-4.375,11.324,11.324,0,0,0-.546-2.737,13.446,13.446,0,0,0-4.875-6.4,4.08,4.08,0,0,0-5.638.772A26.315,26.315,0,0,0,2339.858,2542.53Z" transform="translate(-2339.858 -2524.396)" fill="#f9c041"/>
          </g>
        </g>
        <g id="Group_16" data-name="Group 16" transform="translate(0.881 18.88)">
          <path id="Path_7" data-name="Path 7" d="M2339.858,3040.506a29.2,29.2,0,0,0,.577,5.753,7.982,7.982,0,0,0,5.658,6.128,21.73,21.73,0,0,0,10.608.3,4.94,4.94,0,0,0,3.83-4.176c.789-6.271-5.648-8.157-5.648-8.157S2348.423,3044.986,2339.858,3040.506Z" transform="translate(-2339.858 -3040.349)" fill="#fff"/>
        </g>
        <g id="Group_17" data-name="Group 17" transform="translate(0.881 0.903)" opacity="0.3">
          <path id="Path_8" data-name="Path 8" d="M2339.858,2542.53a29.2,29.2,0,0,0,.577,5.753,7.981,7.981,0,0,0,5.658,6.128,21.719,21.719,0,0,0,10.608.3,4.94,4.94,0,0,0,3.83-4.176,7.915,7.915,0,0,0,.02-1.884,11.573,11.573,0,0,1-5.668,2.81c-9.625,2.209-7.481-6.975-7.481-6.975,5.418.165,7.481-2.108,7.481-2.108-11.451.8-3.631-17.178-3.631-17.178a4.08,4.08,0,0,0-5.638.772A26.315,26.315,0,0,0,2339.858,2542.53Z" transform="translate(-2339.858 -2524.396)" fill="#000072"/>
        </g>
        <g id="Group_18" data-name="Group 18" transform="translate(5.354 0.903)" opacity="0.7">
          <path id="Path_9" data-name="Path 9" d="M2483.451,2551.918a7.938,7.938,0,0,0,.02-1.884c-.547-4.773-5.668-6.272-5.668-6.272.2-.417.383-.823.547-1.224a18.391,18.391,0,0,0,.815-2.439,13.422,13.422,0,0,0,.426-4.375,11.3,11.3,0,0,0-.545-2.737,13.442,13.442,0,0,0-4.875-6.4,4.079,4.079,0,0,0-5.638.771c-.1.126-.195.252-.291.379.4-.59.82-1.18,1.282-1.767a4.08,4.08,0,0,1,5.639-.772,13.448,13.448,0,0,1,4.874,6.4,11.348,11.348,0,0,1,.546,2.737,13.461,13.461,0,0,1-.426,4.375,18.485,18.485,0,0,1-.815,2.44c-.165.4-.347.807-.547,1.223,0,0,5.121,1.5,5.668,6.273a7.916,7.916,0,0,1-.02,1.884,4.866,4.866,0,0,1-1.422,2.859A4.857,4.857,0,0,0,2483.451,2551.918Z" transform="translate(-2468.243 -2524.396)" fill="#fff"/>
        </g>
        <g id="Group_19" data-name="Group 19" transform="translate(17.129 25.935)">
          <path id="Path_10" data-name="Path 10" d="M2806.248,3247.727l.076-.241.082-.273c.051-.187.1-.374.151-.565.1-.381.18-.771.247-1.166s.119-.8.163-1.206.073-.826.128-1.266V3243a.2.2,0,0,1,.373-.073,5.347,5.347,0,0,1,.51,1.26,7.007,7.007,0,0,1,.225,1.348,8.136,8.136,0,0,1,0,1.377q-.029.345-.09.69c-.023.116-.043.23-.073.347-.014.058-.028.116-.046.176l-.027.09-.034.1a.892.892,0,0,1-1.7-.54Z" transform="translate(-2806.191 -3242.825)" fill="#000072"/>
        </g>
        <g id="Group_20" data-name="Group 20" transform="translate(12.518 26.275)">
          <path id="Path_11" data-name="Path 11" d="M2673.913,3257.485l.076-.241.082-.273c.051-.186.1-.374.151-.564.1-.381.18-.771.247-1.166s.119-.8.163-1.207.073-.826.128-1.265v-.01a.2.2,0,0,1,.224-.174.2.2,0,0,1,.15.1,5.349,5.349,0,0,1,.51,1.26,7,7,0,0,1,.225,1.348,8.182,8.182,0,0,1,0,1.377q-.03.345-.09.69c-.023.116-.043.23-.073.347-.014.057-.028.116-.046.176l-.027.09-.034.1a.892.892,0,0,1-1.7-.54Z" transform="translate(-2673.855 -3252.583)" fill="#000072"/>
        </g>
        <g id="Group_21" data-name="Group 21" transform="translate(9.788 17.771)">
          <path id="Path_12" data-name="Path 12" d="M2602.125,3010.348c-.046.028-.077.043-.112.062l-.1.051c-.067.033-.133.065-.2.094-.131.062-.262.116-.393.173-.263.106-.523.211-.787.3a13.391,13.391,0,0,1-1.6.457,14.377,14.377,0,0,1-1.62.27,15.439,15.439,0,0,1-1.62.093.2.2,0,0,1-.04-.4h.009a10.844,10.844,0,0,0,2.935-.938,12.164,12.164,0,0,0,1.328-.739c.212-.136.419-.275.618-.424.1-.076.2-.15.289-.227.048-.038.093-.077.137-.115l.064-.057a.578.578,0,0,0,.051-.05.927.927,0,1,1,1.5,1.089.917.917,0,0,1-.271.249Z" transform="translate(-2595.488 -3008.513)" fill="#000072"/>
        </g>
        <g id="Group_22" data-name="Group 22" transform="translate(0 0)">
          <path id="Path_13" data-name="Path 13" d="M2327.6,2531.112a22.815,22.815,0,0,1-6.148-.846,8.831,8.831,0,0,1-6.292-6.811,27.961,27.961,0,0,1,5.352-23.044,4.945,4.945,0,0,1,6.873-.937h0c3.39,2.522,8.34,8.083,4.311,17.389,2.518,1.092,5.936,3.88,5.32,8.774a5.841,5.841,0,0,1-4.518,4.935A22.311,22.311,0,0,1,2327.6,2531.112Zm-3.167-30.835a3.2,3.2,0,0,0-2.519,1.237,25.809,25.809,0,0,0-5,21.589,7.054,7.054,0,0,0,5.022,5.444,20.836,20.836,0,0,0,10.172.284,4.053,4.053,0,0,0,3.14-3.417c.683-5.425-4.782-7.12-5.015-7.19l-1-.3.453-.944c3.985-8.255.373-13.3-3.36-16.074h0A3.145,3.145,0,0,0,2324.429,2500.277Z" transform="translate(-2314.573 -2498.489)" fill="#000072"/>
        </g>
      </g>
      <g id="Group_33" data-name="Group 33" transform="translate(840.034 719.514)">
        <g id="Group_25" data-name="Group 25" transform="translate(0.891 0.903)">
          <g id="Group_24" data-name="Group 24">
            <path id="Path_14" data-name="Path 14" d="M1085.653,2542.53a29.174,29.174,0,0,1-.577,5.753,7.981,7.981,0,0,1-5.658,6.128,21.719,21.719,0,0,1-10.608.3,4.939,4.939,0,0,1-3.83-4.176,7.921,7.921,0,0,1-.02-1.884c.547-4.773,5.668-6.273,5.668-6.273-.2-.417-.383-.823-.547-1.223a18.464,18.464,0,0,1-.815-2.44,13.441,13.441,0,0,1-.426-4.375,11.318,11.318,0,0,1,.546-2.737,13.447,13.447,0,0,1,4.875-6.4,4.079,4.079,0,0,1,5.638.772A26.312,26.312,0,0,1,1085.653,2542.53Z" transform="translate(-1064.914 -2524.396)" fill="#f9c041"/>
          </g>
        </g>
        <g id="Group_26" data-name="Group 26" transform="translate(0.891 18.88)">
          <path id="Path_15" data-name="Path 15" d="M1085.642,3040.506a29.168,29.168,0,0,1-.577,5.753,7.981,7.981,0,0,1-5.658,6.128,21.731,21.731,0,0,1-10.608.3,4.94,4.94,0,0,1-3.83-4.176c-.789-6.271,5.648-8.157,5.648-8.157S1077.076,3044.986,1085.642,3040.506Z" transform="translate(-1064.902 -3040.349)" fill="#fff"/>
        </g>
        <g id="Group_27" data-name="Group 27" transform="translate(0.891 0.903)" opacity="0.3">
          <path id="Path_16" data-name="Path 16" d="M1085.653,2542.53a29.174,29.174,0,0,1-.577,5.753,7.981,7.981,0,0,1-5.658,6.128,21.719,21.719,0,0,1-10.608.3,4.939,4.939,0,0,1-3.83-4.176,7.921,7.921,0,0,1-.02-1.884,11.574,11.574,0,0,0,5.668,2.81c9.624,2.209,7.48-6.975,7.48-6.975-5.418.165-7.48-2.108-7.48-2.108,11.451.8,3.631-17.178,3.631-17.178a4.079,4.079,0,0,1,5.638.772A26.312,26.312,0,0,1,1085.653,2542.53Z" transform="translate(-1064.914 -2524.396)" fill="#000072"/>
        </g>
        <g id="Group_28" data-name="Group 28" transform="translate(0.891 0.903)" opacity="0.7">
          <path id="Path_17" data-name="Path 17" d="M1065.972,2551.918a7.933,7.933,0,0,1-.02-1.884c.547-4.773,5.668-6.272,5.668-6.272-.2-.417-.383-.823-.547-1.224a18.445,18.445,0,0,1-.815-2.439,13.442,13.442,0,0,1-.426-4.375,11.308,11.308,0,0,1,.545-2.737,13.444,13.444,0,0,1,4.875-6.4,4.08,4.08,0,0,1,5.638.771c.1.126.195.252.29.379-.4-.59-.82-1.18-1.282-1.767a4.079,4.079,0,0,0-5.638-.772,13.447,13.447,0,0,0-4.875,6.4,11.318,11.318,0,0,0-.546,2.737,13.441,13.441,0,0,0,.426,4.375,18.464,18.464,0,0,0,.815,2.44c.165.4.347.807.547,1.223,0,0-5.121,1.5-5.668,6.273a7.921,7.921,0,0,0,.02,1.884,4.867,4.867,0,0,0,1.422,2.859A4.843,4.843,0,0,1,1065.972,2551.918Z" transform="translate(-1064.914 -2524.396)" fill="#fff"/>
        </g>
        <g id="Group_29" data-name="Group 29" transform="translate(3.341 25.935)">
          <path id="Path_18" data-name="Path 18" d="M1135.513,3248.321l-.034-.1-.027-.091c-.018-.059-.032-.118-.046-.176-.03-.117-.05-.231-.073-.347q-.061-.345-.09-.69a8.163,8.163,0,0,1,0-1.376,6.96,6.96,0,0,1,.225-1.348,5.351,5.351,0,0,1,.51-1.261.2.2,0,0,1,.373.073v.011c.055.439.075.854.128,1.265s.1.811.163,1.207.15.784.247,1.166c.047.19.1.378.151.565l.082.272.076.242.017.053a.892.892,0,0,1-1.7.541Z" transform="translate(-1135.212 -3242.825)" fill="#000072"/>
        </g>
        <g id="Group_30" data-name="Group 30" transform="translate(7.951 26.275)">
          <path id="Path_19" data-name="Path 19" d="M1267.848,3258.078l-.034-.1-.027-.091c-.018-.059-.032-.119-.046-.176-.03-.116-.05-.231-.073-.347q-.061-.345-.09-.69a8.181,8.181,0,0,1,0-1.377,6.976,6.976,0,0,1,.225-1.348,5.344,5.344,0,0,1,.51-1.26.2.2,0,0,1,.373.072v.011c.055.439.074.854.128,1.265s.1.811.163,1.207.15.784.247,1.166c.046.191.1.379.151.565l.082.273.076.242.017.052a.892.892,0,0,1-1.7.541Z" transform="translate(-1267.548 -3252.583)" fill="#000072"/>
        </g>
        <g id="Group_31" data-name="Group 31" transform="translate(5.447 17.77)">
          <path id="Path_20" data-name="Path 20" d="M1197.357,3008.893a.573.573,0,0,0,.051.05l.064.057c.044.038.09.077.137.115.093.078.192.152.289.228.2.148.406.288.618.424a12.172,12.172,0,0,0,1.328.739,10.825,10.825,0,0,0,2.935.938l.008,0a.2.2,0,0,1-.04.4,15.449,15.449,0,0,1-1.62-.093,14.44,14.44,0,0,1-1.62-.27,13.349,13.349,0,0,1-1.6-.458c-.264-.091-.524-.2-.787-.3-.131-.056-.262-.11-.393-.173-.065-.029-.131-.061-.2-.094l-.1-.051c-.035-.019-.066-.034-.112-.062l-.187-.112a.927.927,0,1,1,.95-1.592A.951.951,0,0,1,1197.357,3008.893Z" transform="translate(-1195.679 -3008.51)" fill="#000072"/>
        </g>
        <g id="Group_32" data-name="Group 32" transform="translate(0 0)">
          <path id="Path_21" data-name="Path 21" d="M1048.827,2531.114a22.3,22.3,0,0,1-4.9-.54,5.842,5.842,0,0,1-4.518-4.935c-.616-4.894,2.8-7.682,5.32-8.774-4.029-9.306.921-14.867,4.311-17.389h0a4.946,4.946,0,0,1,6.873.937,27.963,27.963,0,0,1,5.352,23.044,8.832,8.832,0,0,1-6.292,6.811A22.8,22.8,0,0,1,1048.827,2531.114Zm1.281-30.206c-3.732,2.777-7.345,7.82-3.36,16.074l.458.948-1.01.3c-.231.069-5.7,1.765-5.013,7.189a4.052,4.052,0,0,0,3.14,3.417,20.827,20.827,0,0,0,10.172-.284,7.054,7.054,0,0,0,5.023-5.444,25.809,25.809,0,0,0-5.005-21.589,3.17,3.17,0,0,0-4.4-.608Z" transform="translate(-1039.338 -2498.491)" fill="#000072"/>
        </g>
      </g>
      <g id="Group_52" data-name="Group 52" transform="translate(849.653 704.172)">
        <g id="Group_35" data-name="Group 35" transform="translate(0.902 0.893)">
          <g id="Group_34" data-name="Group 34">
            <path id="Path_22" data-name="Path 22" d="M1382.256,2117.61a2.821,2.821,0,0,0,.66,2.416,9.736,9.736,0,0,1,2.074,3.744,5.233,5.233,0,0,1-4.054,6.463,26.059,26.059,0,0,1-12.732-.468,6.452,6.452,0,0,1-3.556-2.656c-.062-.093-.119-.191-.175-.29a.5.5,0,1,0-.484,0c-.056.1-.113.2-.175.29a6.452,6.452,0,0,1-3.556,2.656,26.059,26.059,0,0,1-12.732.468,5.233,5.233,0,0,1-4.053-6.463q.071-.262.161-.512a9.909,9.909,0,0,1,1.914-3.232,2.82,2.82,0,0,0,.661-2.416c-.056-.276-.117-.543-.184-.805,0-.008-.006-.016-.008-.026-.026-.111-.056-.222-.085-.329a.047.047,0,0,1,0-.016c-.157-.573-.331-1.11-.514-1.608a28.115,28.115,0,0,0-1.23-2.824s0-.006,0-.008a25.936,25.936,0,0,1-1.43-3.6c-.03-.1-.061-.2-.089-.293a33.3,33.3,0,0,1-.837-3.368,24.93,24.93,0,0,1,1.234-14.7,11.013,11.013,0,0,1,.724-1.42s1-1.424,4.651-2.725c3.068-1.1,8.008-2.1,15.8-2.1,17.055,0,20.45,4.829,20.45,4.829a11.013,11.013,0,0,1,.724,1.42c1.188,2.723,3.159,9.232.307,18.362a25.8,25.8,0,0,1-1.434,3.608A23,23,0,0,0,1382.256,2117.61Z" transform="translate(-1341.282 -2083.783)" fill="#f9c041"/>
          </g>
        </g>
        <g id="Group_36" data-name="Group 36" transform="translate(6.564 0.893)">
          <path id="Path_23" data-name="Path 23" d="M1536.853,2085.887c-3.068-1.1-8.008-2.1-15.8-2.1s-12.732,1.008-15.8,2.1a18.394,18.394,0,0,0-.462,13.279c3.528,9.478,16.262,12.494,16.262,12.494s12.734-3.016,16.262-12.494A18.393,18.393,0,0,0,1536.853,2085.887Z" transform="translate(-1503.763 -2083.783)" fill="#fff"/>
        </g>
        <g id="Group_37" data-name="Group 37" transform="translate(2.914 34.72)">
          <path id="Path_24" data-name="Path 24" d="M1419.96,3062.908a1.936,1.936,0,0,1-.242.938c-.055.1-.113.2-.174.29a6.453,6.453,0,0,1-3.556,2.655,26.056,26.056,0,0,1-12.732.468,5.233,5.233,0,0,1-4.054-6.463,9.739,9.739,0,0,1,2.074-3.745,2.82,2.82,0,0,0,.66-2.415s3.419,7.183,12.66,2.911C1414.6,3057.547,1419.96,3055.776,1419.96,3062.908Z" transform="translate(-1399.021 -3054.636)" fill="#fff"/>
        </g>
        <g id="Group_38" data-name="Group 38" transform="translate(23.854 34.72)">
          <path id="Path_25" data-name="Path 25" d="M2000,3062.908a1.941,1.941,0,0,0,.242.938c.056.1.113.2.175.29a6.453,6.453,0,0,0,3.556,2.655,26.057,26.057,0,0,0,12.732.468,5.233,5.233,0,0,0,4.053-6.463,9.746,9.746,0,0,0-2.074-3.745,2.819,2.819,0,0,1-.66-2.415s-3.419,7.183-12.661,2.911C2005.363,3057.547,2000,3055.776,2000,3062.908Z" transform="translate(-2000 -3054.636)" fill="#fff"/>
        </g>
        <g id="Group_39" data-name="Group 39" transform="translate(2.914 16.276)" opacity="0.3">
          <path id="Path_26" data-name="Path 26" d="M1440.718,2549.9q-.071-.262-.161-.512c-4.458,7.481-14.715,4.187-16.064,2.624-1.446-1.671.829-5.36.829-5.36,9.9,3.645,12.371-2.154,12.845-3.716,0-.008.006-.016.008-.026.052-.173.077-.29.085-.329a.049.049,0,0,0,0-.016c-4.057,2.662-6.7,2.644-8.406,1.634a4.321,4.321,0,0,1-.151-7.245,14.384,14.384,0,0,0,6.514-11.656,28.762,28.762,0,0,1-11.451,7.254,14.429,14.429,0,0,1-9.623,0,28.762,28.762,0,0,1-11.451-7.254,14.383,14.383,0,0,0,6.514,11.656,4.321,4.321,0,0,1-.151,7.245c-1.709,1.01-4.348,1.028-8.405-1.634a.052.052,0,0,0,0,.016c.008.04.034.156.085.329,0,.01.006.018.008.026.474,1.563,2.947,7.361,12.845,3.716,0,0,2.275,3.689.829,5.36-1.349,1.563-11.605,4.857-16.064-2.624q-.089.25-.161.512a5.233,5.233,0,0,0,4.054,6.463,26.059,26.059,0,0,0,12.732-.468,6.454,6.454,0,0,0,3.556-2.656c.059-.089.114-.181.167-.276a.509.509,0,1,1,.5,0c.053.094.108.187.167.276a6.453,6.453,0,0,0,3.556,2.656,26.059,26.059,0,0,0,12.732.468A5.233,5.233,0,0,0,1440.718,2549.9Z" transform="translate(-1399.021 -2525.297)" fill="#000072"/>
        </g>
        <g id="Group_40" data-name="Group 40" transform="translate(2.679 2.479)" opacity="0.3">
          <path id="Path_27" data-name="Path 27" d="M1434.634,2135.567a47.955,47.955,0,0,1-42.349,0,10.99,10.99,0,0,1,.724-1.42s1-1.424,4.65-2.725c3.068-1.1,8.008-2.1,15.8-2.1,17.055,0,20.45,4.829,20.45,4.829A11.041,11.041,0,0,1,1434.634,2135.567Z" transform="translate(-1392.285 -2129.318)" fill="#000072"/>
        </g>
        <g id="Group_50" data-name="Group 50" transform="translate(4.798 16.127)">
          <g id="Group_41" data-name="Group 41" transform="translate(0 17.071)">
            <path id="Path_28" data-name="Path 28" d="M1454.835,3011.624l.06.157q.036.092.078.186c.056.124.115.249.177.372a8.283,8.283,0,0,0,.418.719,6.964,6.964,0,0,0,1.065,1.251,6.085,6.085,0,0,0,2.9,1.462,10.129,10.129,0,0,0,3.48.057c1.2-.153,2.4-.408,3.685-.6h0a.194.194,0,0,1,.145.347,10.472,10.472,0,0,1-3.55,1.689,11.744,11.744,0,0,1-2,.317c-.34.034-.686.028-1.033.028-.173,0-.348-.023-.522-.035a4.891,4.891,0,0,1-.522-.066,7.552,7.552,0,0,1-2.049-.6,7.173,7.173,0,0,1-1.808-1.187,7.74,7.74,0,0,1-1.38-1.644,7.9,7.9,0,0,1-.5-.942c-.074-.162-.142-.328-.2-.5-.031-.084-.06-.171-.088-.26s-.052-.168-.084-.3a.89.89,0,0,1,1.694-.537Z" transform="translate(-1453.08 -3010.965)" fill="#000072"/>
          </g>
          <g id="Group_42" data-name="Group 42" transform="translate(2.632 0)">
            <path id="Path_29" data-name="Path 29" d="M1544.881,2534.542c-.258-.049-.471-.1-.7-.153s-.449-.111-.669-.176c-.443-.124-.881-.259-1.312-.41a26.55,26.55,0,0,1-4.968-2.305,22.649,22.649,0,0,1-2.274-1.54,20.441,20.441,0,0,1-2.077-1.8,18.886,18.886,0,0,1-1.824-2.055c-.286-.357-.529-.748-.786-1.126-.229-.4-.473-.782-.667-1.2-.1-.2-.2-.408-.3-.615s-.176-.42-.257-.633c-.04-.106-.084-.21-.122-.317s-.07-.217-.1-.325c-.068-.217-.133-.433-.192-.651a.171.171,0,0,1,.309-.138l0,0a30.142,30.142,0,0,0,3.121,4.163,21.421,21.421,0,0,0,3.848,3.377,27.162,27.162,0,0,0,4.486,2.492c.785.346,1.584.658,2.394.939.405.138.812.272,1.221.392.2.061.409.118.613.174s.417.109.593.149l.025.006a.892.892,0,0,1-.363,1.747Z" transform="translate(-1528.626 -2521.022)" fill="#000072"/>
          </g>
          <g id="Group_43" data-name="Group 43" transform="translate(18.165)">
            <path id="Path_30" data-name="Path 30" d="M1975.136,2532.789c.176-.04.393-.094.593-.149s.408-.114.613-.174c.409-.119.815-.254,1.22-.392.809-.281,1.609-.593,2.394-.939a27.164,27.164,0,0,0,4.486-2.491,21.422,21.422,0,0,0,3.848-3.377,30.115,30.115,0,0,0,3.121-4.163l0,0a.171.171,0,0,1,.309.138c-.059.218-.124.435-.192.651-.033.109-.067.217-.1.325s-.081.211-.122.317c-.081.213-.17.421-.257.633s-.194.412-.3.615c-.194.415-.438.8-.667,1.2-.257.377-.5.768-.786,1.125a18.969,18.969,0,0,1-1.824,2.055,20.477,20.477,0,0,1-2.077,1.8,22.5,22.5,0,0,1-2.274,1.54,26.49,26.49,0,0,1-4.969,2.306c-.432.151-.869.286-1.312.41-.221.064-.444.122-.669.176s-.443.1-.7.153a.892.892,0,0,1-.364-1.747Z" transform="translate(-1974.413 -2521.022)" fill="#000072"/>
          </g>
          <g id="Group_44" data-name="Group 44" transform="translate(0.727 24.876)">
            <path id="Path_31" data-name="Path 31" d="M1474.417,3241.333c-.061-.149-.1-.268-.145-.4s-.075-.26-.108-.39a6.8,6.8,0,0,1-.149-.792,7.821,7.821,0,0,1-.049-1.625,6.035,6.035,0,0,1,.344-1.631,3.705,3.705,0,0,1,.928-1.421.32.32,0,0,1,.531.282l0,.032a9.765,9.765,0,0,0-.1,1.38c.006.45.039.9.082,1.349s.115.905.184,1.36l.105.685c.014.116.038.228.051.342s.035.234.042.324l.007.1a.895.895,0,0,1-1.719.409Z" transform="translate(-1473.943 -3234.991)" fill="#000072"/>
          </g>
          <g id="Group_45" data-name="Group 45" transform="translate(7.062 25.517)">
            <path id="Path_32" data-name="Path 32" d="M1656.225,3259.727c-.062-.15-.1-.268-.145-.4s-.075-.26-.108-.39a6.892,6.892,0,0,1-.149-.792,7.869,7.869,0,0,1-.049-1.625,6.057,6.057,0,0,1,.344-1.632,3.709,3.709,0,0,1,.928-1.421.32.32,0,0,1,.532.282l0,.032a9.767,9.767,0,0,0-.1,1.38c.007.45.039.9.082,1.349s.115.905.184,1.36l.105.685c.014.115.038.227.051.342s.035.234.042.324l.007.1a.895.895,0,0,1-1.719.41Z" transform="translate(-1655.751 -3253.384)" fill="#000072"/>
          </g>
          <g id="Group_46" data-name="Group 46" transform="translate(24.266 17.071)">
            <path id="Path_33" data-name="Path 33" d="M2163.354,3012.075c-.032.127-.055.2-.084.3s-.056.176-.087.26c-.06.171-.128.336-.2.5a7.888,7.888,0,0,1-.5.942,7.731,7.731,0,0,1-1.38,1.644,7.164,7.164,0,0,1-1.808,1.187,7.556,7.556,0,0,1-2.049.6,4.934,4.934,0,0,1-.522.066c-.174.013-.348.033-.522.036-.347,0-.692.006-1.032-.028a11.763,11.763,0,0,1-2-.316,10.478,10.478,0,0,1-3.551-1.69.194.194,0,0,1,.145-.347h0c1.281.2,2.489.451,3.685.6a10.14,10.14,0,0,0,3.48-.058,6.084,6.084,0,0,0,2.9-1.462,6.953,6.953,0,0,0,1.065-1.252c.149-.233.292-.472.418-.719.062-.124.122-.249.177-.373q.042-.094.078-.185l.06-.157.032-.085a.89.89,0,0,1,1.694.538Z" transform="translate(-2149.537 -3010.965)" fill="#000072"/>
          </g>
          <g id="Group_47" data-name="Group 47" transform="translate(35.19 24.877)">
            <path id="Path_34" data-name="Path 34" d="M2463.06,3240.828c.007-.091.026-.215.042-.324s.038-.227.051-.343l.105-.684c.068-.455.139-.91.184-1.361s.075-.9.082-1.349a9.7,9.7,0,0,0-.1-1.38l0-.03a.32.32,0,0,1,.532-.283,3.711,3.711,0,0,1,.927,1.421,6.03,6.03,0,0,1,.344,1.631,7.84,7.84,0,0,1-.049,1.625,6.789,6.789,0,0,1-.149.792c-.033.13-.067.262-.108.39s-.083.251-.145.4a.895.895,0,0,1-1.719-.408Z" transform="translate(-2463.05 -3234.991)" fill="#000072"/>
          </g>
          <g id="Group_48" data-name="Group 48" transform="translate(28.855 25.517)">
            <path id="Path_35" data-name="Path 35" d="M2281.253,3259.221c.007-.091.026-.215.042-.325s.037-.227.051-.342l.1-.684c.069-.456.139-.91.185-1.361s.075-.9.082-1.349a9.845,9.845,0,0,0-.1-1.38l0-.03a.32.32,0,0,1,.532-.283,3.7,3.7,0,0,1,.928,1.421,6.044,6.044,0,0,1,.344,1.631,7.872,7.872,0,0,1-.049,1.625,6.806,6.806,0,0,1-.149.792c-.033.13-.067.261-.109.39s-.083.252-.145.4a.895.895,0,0,1-1.719-.408Z" transform="translate(-2281.243 -3253.385)" fill="#000072"/>
          </g>
          <g id="Group_49" data-name="Group 49" transform="translate(18.164 11.751)">
            <path id="Path_36" data-name="Path 36" d="M1975.28,2874.28a.893.893,0,0,1-.893-.893v-14.222a.892.892,0,0,1,1.785,0v14.222A.892.892,0,0,1,1975.28,2874.28Z" transform="translate(-1974.387 -2858.273)" fill="#000072"/>
          </g>
        </g>
        <g id="Group_51" data-name="Group 51" transform="translate(0 0)">
          <path id="Path_37" data-name="Path 37" d="M1328.186,2106.972a29.784,29.784,0,0,1-5.827-.59,6.2,6.2,0,0,1-4.044-2.818,5.968,5.968,0,0,1-.694-4.755,10.622,10.622,0,0,1,2.264-4.1,1.943,1.943,0,0,0,.458-1.65,22.158,22.158,0,0,0-1.934-5.358l-.018-.037a26.779,26.779,0,0,1-1.485-3.732c-3.907-12.508.927-20.21,1.134-20.532l.02-.029c.149-.213,3.86-5.209,21.18-5.209s21.03,5,21.18,5.209l.02.029c.208.322,5.041,8.024,1.134,20.532a26.763,26.763,0,0,1-1.484,3.732h0l-.018.037a22.164,22.164,0,0,0-1.934,5.358,1.941,1.941,0,0,0,.458,1.65,10.62,10.62,0,0,1,2.264,4.1,5.967,5.967,0,0,1-.694,4.755,6.2,6.2,0,0,1-4.044,2.818,26.962,26.962,0,0,1-13.176-.491,3.969,3.969,0,0,0-7.41,0A24.614,24.614,0,0,1,1328.186,2106.972Zm-8.662-42.574c-.3.494-4.446,7.7-.914,19.005a24.953,24.953,0,0,0,1.385,3.483l.018.037a23.782,23.782,0,0,1,2.079,5.784,3.737,3.737,0,0,1-.864,3.181,8.829,8.829,0,0,0-1.886,3.392,4.2,4.2,0,0,0,.492,3.347,4.413,4.413,0,0,0,2.876,2,25.173,25.173,0,0,0,12.292-.445,5.583,5.583,0,0,0,3.069-2.282c.051-.08.1-.162.147-.246a1.035,1.035,0,0,0,.13-.5h1.785a1.033,1.033,0,0,0,.13.5q.07.126.147.246a5.583,5.583,0,0,0,3.069,2.282,25.173,25.173,0,0,0,12.292.445,4.412,4.412,0,0,0,2.876-2,4.2,4.2,0,0,0,.492-3.347,8.827,8.827,0,0,0-1.886-3.392,3.737,3.737,0,0,1-.864-3.181,23.789,23.789,0,0,1,2.078-5.784l.018-.037a24.952,24.952,0,0,0,1.385-3.483c3.562-11.4-.645-18.567-.917-19.011-.174-.21-3.9-4.443-19.713-4.443C1323.563,2059.95,1319.767,2064.109,1319.524,2064.4Zm39.763,22.879h0Z" transform="translate(-1315.386 -2058.165)" fill="#000072"/>
        </g>
      </g>
      <g id="Group_98" data-name="Group 98" transform="translate(832.839 655.292)">
        <g id="Group_58" data-name="Group 58" transform="translate(0 1.535)">
          <g id="Group_54" data-name="Group 54" transform="translate(0.897 0.898)">
            <g id="Group_53" data-name="Group 53">
              <path id="Path_38" data-name="Path 38" d="M869.5,765.548c-10.447-.716-11.887-6.027-10.459-11.475,1.093-4.182,3.875-8.446,5.571-10.779a13.793,13.793,0,0,0,2.015-4.058c5.962-19.372,19.015-13.17,19.015-13.17s.038.256.1.724C886.437,732.27,890.066,766.958,869.5,765.548Z" transform="translate(-858.574 -725.122)" fill="#f9c041"/>
            </g>
          </g>
          <g id="Group_55" data-name="Group 55" transform="translate(0.897 2.566)" opacity="0.3">
            <path id="Path_39" data-name="Path 39" d="M869.5,811.772c-10.447-.716-11.887-6.027-10.459-11.475l.047.07a4.791,4.791,0,0,0,8.582-1.4,54.774,54.774,0,0,0,1.475-6.907c.773-5.474,5.811-18.352,16.6-19.046C886.437,778.495,890.066,813.182,869.5,811.772Z" transform="translate(-858.574 -773.015)" fill="#000072"/>
          </g>
          <g id="Group_56" data-name="Group 56" transform="translate(1.069 0.898)" opacity="0.7">
            <path id="Path_40" data-name="Path 40" d="M868.78,745.674a13.8,13.8,0,0,0,2.015-4.058c5.961-19.372,19.015-13.17,19.015-13.17s.038.256.1.724c.374,2.926,1.582,14.181-.5,23.82,2.89-10.078,1.5-23.029,1.1-26.2-.061-.468-.1-.724-.1-.724s-13.053-6.2-19.015,13.17a13.79,13.79,0,0,1-2.015,4.058c-1.7,2.332-4.478,6.6-5.571,10.779q-.177.677-.292,1.348A37.6,37.6,0,0,1,868.78,745.674Z" transform="translate(-863.512 -725.122)" fill="#fff"/>
          </g>
          <g id="Group_57" data-name="Group 57">
            <path id="Path_41" data-name="Path 41" d="M845.855,741.617q-.618,0-1.257-.044c-5.795-.4-9.5-2.235-11-5.463-2.647-5.667,2.282-13.839,5.456-18.206a12.88,12.88,0,0,0,1.883-3.8c2.19-7.114,5.578-11.723,10.07-13.7a13.029,13.029,0,0,1,10.182-.015l.429.2.071.469a90.87,90.87,0,0,1,.77,14.132c-.271,10.33-2.435,17.767-6.432,22.1A13.258,13.258,0,0,1,845.855,741.617Zm10.166-40.463a10.622,10.622,0,0,0-4.326.9c-3.984,1.765-7.032,6-9.058,12.579a14.662,14.662,0,0,1-2.145,4.321c-2.369,3.259-7.626,11.382-5.282,16.4,1.212,2.6,4.412,4.088,9.51,4.437a11.813,11.813,0,0,0,9.988-3.7c8.179-8.874,5.744-30.669,5.278-34.257A11.962,11.962,0,0,0,856.021,701.154Z" transform="translate(-832.839 -699.359)" fill="#000072"/>
          </g>
        </g>
        <g id="Group_64" data-name="Group 64" transform="translate(51.693 1.536)">
          <g id="Group_60" data-name="Group 60" transform="translate(0.892 0.897)">
            <g id="Group_59" data-name="Group 59">
              <path id="Path_42" data-name="Path 42" d="M2359,765.548c10.447-.716,11.887-6.027,10.459-11.475-1.093-4.182-3.875-8.446-5.571-10.779a13.8,13.8,0,0,1-2.015-4.058c-5.961-19.372-19.015-13.17-19.015-13.17s-.038.256-.1.724C2342.057,732.27,2338.427,766.958,2359,765.548Z" transform="translate(-2342.068 -725.122)" fill="#f9c041"/>
            </g>
          </g>
          <g id="Group_61" data-name="Group 61" transform="translate(0.892 2.566)" opacity="0.3">
            <path id="Path_43" data-name="Path 43" d="M2359,811.772c10.447-.716,11.887-6.027,10.459-11.475l-.046.07a4.791,4.791,0,0,1-8.582-1.4,54.709,54.709,0,0,1-1.476-6.907c-.773-5.474-5.811-18.352-16.595-19.046C2342.057,778.495,2338.427,813.182,2359,811.772Z" transform="translate(-2342.068 -773.015)" fill="#000072"/>
          </g>
          <g id="Group_62" data-name="Group 62" transform="translate(0.892 0.897)" opacity="0.7">
            <path id="Path_44" data-name="Path 44" d="M2364.482,745.674a13.793,13.793,0,0,1-2.015-4.058c-5.961-19.372-19.015-13.17-19.015-13.17s-.038.256-.1.724c-.374,2.926-1.582,14.181.5,23.82-2.89-10.078-1.5-23.029-1.1-26.2.062-.468.1-.724.1-.724s13.054-6.2,19.015,13.17a13.793,13.793,0,0,0,2.015,4.058c1.7,2.332,4.478,6.6,5.571,10.779q.178.677.292,1.348A37.609,37.609,0,0,0,2364.482,745.674Z" transform="translate(-2342.07 -725.122)" fill="#fff"/>
          </g>
          <g id="Group_63" data-name="Group 63">
            <path id="Path_45" data-name="Path 45" d="M2333.093,741.622a13.256,13.256,0,0,1-10.165-4.315c-4-4.337-6.162-11.773-6.433-22.1a90.88,90.88,0,0,1,.77-14.132l.071-.469.428-.2a13.03,13.03,0,0,1,10.182.015c4.493,1.976,7.88,6.585,10.07,13.7a12.882,12.882,0,0,0,1.882,3.8c3.173,4.367,8.1,12.538,5.456,18.206-1.508,3.228-5.21,5.066-11,5.463Q2333.712,741.622,2333.093,741.622Zm-14.131-39.784c-.464,3.582-2.9,25.391,5.279,34.26a11.815,11.815,0,0,0,9.987,3.7c5.1-.349,8.3-1.842,9.509-4.437,2.344-5.019-2.913-13.142-5.282-16.4a14.639,14.639,0,0,1-2.145-4.321c-2.03-6.6-5.086-10.833-9.083-12.59A11.332,11.332,0,0,0,2318.962,701.838Z" transform="translate(-2316.469 -699.364)" fill="#000072"/>
          </g>
        </g>
        <g id="Group_84" data-name="Group 84" transform="translate(8.751 0)">
          <g id="Group_66" data-name="Group 66" transform="translate(0.887 0.893)">
            <g id="Group_65" data-name="Group 65">
              <path id="Path_46" data-name="Path 46" d="M1140.484,739.162c-36.391,0-31.689-16.084-29.648-20.8.216-.5.422-1.037.615-1.6a58.023,58.023,0,0,0,2.078-8.6c.2-1.18.349-2.37.466-3.562,2.455-24.772,26.489-23.661,26.489-23.661s24.034-1.111,26.489,23.661c.117,1.192.264,2.382.466,3.562a49.932,49.932,0,0,0,2.693,10.2C1172.173,723.078,1176.875,739.162,1140.484,739.162Z" transform="translate(-1109.455 -680.934)" fill="#f9c041"/>
            </g>
          </g>
          <g id="Group_67" data-name="Group 67" transform="translate(0.887 28.373)">
            <path id="Path_47" data-name="Path 47" d="M1170.132,1479.568c-.216-.5-.422-1.037-.615-1.6a11.745,11.745,0,0,0-9.71-.189,10.555,10.555,0,0,1-11.455-2.635q-.388-.413-.788-.871c-.885-1.016-1.7-1.906-2.447-2.681a6.426,6.426,0,0,0-9.269,0c-.743.774-1.562,1.665-2.448,2.681q-.4.458-.788.871a10.555,10.555,0,0,1-11.455,2.635,11.745,11.745,0,0,0-9.71.189c-.192.559-.4,1.095-.615,1.6-2.041,4.718-6.743,20.8,29.648,20.8S1172.173,1484.286,1170.132,1479.568Z" transform="translate(-1109.455 -1469.622)" fill="#fff"/>
          </g>
          <g id="Group_68" data-name="Group 68" transform="translate(0.887 37.306)" opacity="0.3">
            <path id="Path_48" data-name="Path 48" d="M1140.484,1747.811c-36.391,0-31.689-16.083-29.648-20.8q.208-.485.4-1.01c-1.295,5.979.468,16.732,29.244,16.732s30.539-10.757,29.244-16.736c.129.351.263.69.4,1.013C1172.173,1731.727,1176.875,1747.811,1140.484,1747.811Z" transform="translate(-1109.455 -1725.996)" fill="#000072"/>
          </g>
          <g id="Group_69" data-name="Group 69" transform="translate(0.888 0.893)" opacity="0.7">
            <path id="Path_49" data-name="Path 49" d="M1170.147,718.36a49.955,49.955,0,0,1-2.693-10.2c-.2-1.18-.349-2.37-.466-3.562-2.455-24.772-26.489-23.661-26.489-23.661s-24.034-1.111-26.489,23.661c-.117,1.192-.264,2.382-.466,3.562a58.023,58.023,0,0,1-2.078,8.6c-.192.559-.4,1.095-.615,1.6a14.637,14.637,0,0,0-1.181,8.319,15.832,15.832,0,0,1,1.379-6.336c.216-.5.422-1.037.615-1.6a58.045,58.045,0,0,0,2.078-8.6c.2-1.18.349-2.37.466-3.562,1.188-11.983,7.425-17.909,13.548-20.835.488.948,2.7,1.167,5.116.473,2.4-.689,4.15-2.034,4.087-3.092a24.826,24.826,0,0,1,3.738-.207s24.034-1.111,26.489,23.661c.117,1.192.264,2.382.466,3.562a49.909,49.909,0,0,0,2.693,10.2,17.337,17.337,0,0,1,1.178,3.884A16.117,16.117,0,0,0,1170.147,718.36Z" transform="translate(-1109.471 -680.934)" fill="#fff"/>
          </g>
          <g id="Group_76" data-name="Group 76" transform="translate(14.826 31.247)">
            <g id="Group_70" data-name="Group 70" transform="translate(8.191)">
              <path id="Path_50" data-name="Path 50" d="M1744.58,1552.107" transform="translate(-1744.58 -1552.107)" fill="none"/>
            </g>
            <g id="Group_71" data-name="Group 71">
              <path id="Path_51" data-name="Path 51" d="M1509.488,1552.107" transform="translate(-1509.488 -1552.107)" fill="none"/>
            </g>
            <g id="Group_72" data-name="Group 72" transform="translate(9.448 3.368)">
              <path id="Path_52" data-name="Path 52" d="M1795.947,1653.06c0,2.377-3.422,4.9-7.642,4.9s-7.643-2.521-7.643-4.9,3.422-4.3,7.643-4.3S1795.947,1650.684,1795.947,1653.06Z" transform="translate(-1780.662 -1648.757)" fill="#000072"/>
            </g>
            <g id="Group_73" data-name="Group 73" transform="translate(13.032 4.799)">
              <ellipse id="Ellipse_1" data-name="Ellipse 1" cx="4.058" cy="0.722" rx="4.058" ry="0.722" fill="#fff"/>
            </g>
            <g id="Group_74" data-name="Group 74" transform="translate(4.664 10.004)">
              <path id="Path_53" data-name="Path 53" d="M1643.964,1839.524a7.024,7.024,0,0,0,1.535,3.782,4.14,4.14,0,0,0,1.556,1.093l.223.085.231.068c.151.053.315.074.471.115.163.022.323.052.488.067s.328.035.5.03a9.308,9.308,0,0,0,1.023-.033c.171-.013.341-.029.508-.056s.333-.053.5-.086.324-.077.486-.114.317-.091.467-.154a5.806,5.806,0,0,0,.878-.4,5.9,5.9,0,0,0,1.507-1.187,7.107,7.107,0,0,0,.619-.789c.094-.142.187-.288.276-.438s.171-.314.245-.453l.022-.042a.3.3,0,0,1,.564.125,3.3,3.3,0,0,1-.026.629,4.2,4.2,0,0,1-.123.6,4.843,4.843,0,0,1-.488,1.147,5.178,5.178,0,0,1-1.776,1.795,5.92,5.92,0,0,1-1.141.542c-.2.077-.4.128-.595.19-.2.046-.4.1-.6.136s-.4.071-.6.091-.4.042-.6.053a9.755,9.755,0,0,1-1.209,0,6.323,6.323,0,0,1-2.42-.614,5.147,5.147,0,0,1-1.074-.694,4.8,4.8,0,0,1-.865-.926,6.1,6.1,0,0,1-.615-1.074,6.689,6.689,0,0,1-.378-1.146,7.212,7.212,0,0,1-.178-1.169,6.554,6.554,0,0,1,.011-1.182.3.3,0,0,1,.592-.006Z" transform="translate(-1643.337 -1839.239)" fill="#000072"/>
            </g>
            <g id="Group_75" data-name="Group 75" transform="translate(16.099 10.028)">
              <path id="Path_54" data-name="Path 54" d="M1973.511,1841.612c0-.011,0,0,0,0l0,.018.011.044.026.1c.02.068.042.138.067.208.05.14.108.28.169.418a4.85,4.85,0,0,0,.457.782,4.48,4.48,0,0,0,1.328,1.212,5.216,5.216,0,0,0,.837.4c.144.063.3.1.451.155s.31.087.471.117.32.067.486.086.329.048.5.063a8.5,8.5,0,0,0,1,.041,5.2,5.2,0,0,0,1.855-.345,3.947,3.947,0,0,0,1.491-1.054,7.974,7.974,0,0,0,1.665-3.679l0-.023a.3.3,0,0,1,.588.006,5.685,5.685,0,0,1,.088,1.193,6.671,6.671,0,0,1-.135,1.194,5.872,5.872,0,0,1-.985,2.287,5.042,5.042,0,0,1-.9.949,5.308,5.308,0,0,1-1.107.71,6.4,6.4,0,0,1-1.222.443c-.208.045-.418.093-.627.122s-.42.062-.627.067a10.5,10.5,0,0,1-1.229.012c-.2-.009-.409-.021-.615-.047s-.411-.054-.617-.09-.411-.088-.616-.134-.41-.111-.612-.188a6.292,6.292,0,0,1-3.136-2.312,6.241,6.241,0,0,1-.65-1.154,5.674,5.674,0,0,1-.229-.625c-.032-.108-.062-.216-.089-.329l-.038-.173-.017-.092-.019-.117a.992.992,0,0,1,1.964-.275Z" transform="translate(-1971.537 -1839.925)" fill="#000072"/>
            </g>
          </g>
          <g id="Group_79" data-name="Group 79" transform="translate(16.462 24.806)">
            <g id="Group_77" data-name="Group 77">
              <ellipse id="Ellipse_2" data-name="Ellipse 2" cx="3.599" cy="4.572" rx="3.599" ry="4.572" fill="#000072"/>
            </g>
            <g id="Group_78" data-name="Group 78" transform="translate(2.945 1.961)">
              <ellipse id="Ellipse_3" data-name="Ellipse 3" cx="1.49" cy="1.894" rx="1.49" ry="1.894" transform="translate(0.087 0.087)" fill="#fff"/>
              <path id="Path_55" data-name="Path 55" d="M1642.556,1427.466a2.032,2.032,0,1,1,1.578-1.981A1.816,1.816,0,0,1,1642.556,1427.466Zm0-3.787a1.864,1.864,0,1,0,1.4,1.807A1.646,1.646,0,0,0,1642.556,1423.679Z" transform="translate(-1640.979 -1423.505)" fill="#000072"/>
            </g>
          </g>
          <g id="Group_82" data-name="Group 82" transform="translate(40.174 24.806)">
            <g id="Group_80" data-name="Group 80">
              <ellipse id="Ellipse_4" data-name="Ellipse 4" cx="3.599" cy="4.572" rx="3.599" ry="4.572" fill="#000072"/>
            </g>
            <g id="Group_81" data-name="Group 81" transform="translate(1.184 2.048)">
              <ellipse id="Ellipse_5" data-name="Ellipse 5" cx="1.49" cy="1.894" rx="1.49" ry="1.894" fill="#fff"/>
            </g>
          </g>
          <g id="Group_83" data-name="Group 83">
            <path id="Path_56" data-name="Path 56" d="M1115.9,715.306c-15.956,0-26.07-3.08-30.061-9.154-3.14-4.778-1.6-10.13-.406-12.9a49.731,49.731,0,0,0,2.633-9.992c.18-1.05.326-2.162.458-3.5,1.31-13.223,8.711-19.179,14.689-21.848a32.044,32.044,0,0,1,25.375,0c5.978,2.668,13.379,8.624,14.689,21.848.133,1.337.278,2.448.458,3.5a49.692,49.692,0,0,0,2.633,9.992c1.2,2.765,2.733,8.117-.406,12.9C1141.97,712.227,1131.856,715.306,1115.9,715.306Zm-.426-58.227a29.866,29.866,0,0,0-11.594,2.5c-8.031,3.608-12.6,10.461-13.581,20.367-.135,1.361-.29,2.546-.475,3.625a50.069,50.069,0,0,1-2.754,10.4c-1.053,2.435-2.419,7.129.26,11.207,1.605,2.443,4.455,4.384,8.469,5.77,4.959,1.711,11.722,2.579,20.1,2.579s15.14-.868,20.1-2.579c4.014-1.385,6.864-3.326,8.469-5.77,2.68-4.078,1.313-8.772.26-11.207a50.075,50.075,0,0,1-2.754-10.4c-.185-1.078-.341-2.264-.475-3.625-.981-9.906-5.551-16.759-13.581-20.367a29.552,29.552,0,0,0-11.979-2.491l-.04,0-.041,0C1115.851,657.085,1115.716,657.079,1115.475,657.079Z" transform="translate(-1083.984 -655.292)" fill="#000072"/>
          </g>
        </g>
        <g id="Group_97" data-name="Group 97" transform="translate(28.007 34.615)">
          <g id="Group_88" data-name="Group 88" transform="translate(3.855 7.092)">
            <g id="Group_85" data-name="Group 85" transform="translate(0.893 0.82)">
              <path id="Path_57" data-name="Path 57" d="M1780.833,1895.59c6.5,0,8.836-4.451,7.587-8.531-.581-1.9-.353-6.234-.353-6.234s-6.924.55-7.236-5c-.312,5.546-7.236,5-7.236,5s.228,4.336-.353,6.234c-1.249,4.08,1.091,8.531,7.587,8.531" transform="translate(-1772.919 -1875.829)" fill="#f958a9"/>
            </g>
            <g id="Group_86" data-name="Group 86" transform="translate(7.789)">
              <path id="Path_58" data-name="Path 58" d="M1972.738,1853.124c.1,1.121.115,2.242.124,3.362s-.025,2.242-.075,3.363-.117,2.241-.246,3.362a25.605,25.605,0,0,1-.575,3.362.124.124,0,0,1-.241,0,25.606,25.606,0,0,1-.576-3.362c-.129-1.121-.2-2.242-.245-3.362s-.077-2.242-.075-3.363.028-2.241.124-3.362a.9.9,0,0,1,1.785,0Z" transform="translate(-1970.829 -1852.305)" fill="#000072"/>
            </g>
            <g id="Group_87" data-name="Group 87" transform="translate(0 0.77)">
              <path id="Path_59" data-name="Path 59" d="M1756.088,1895.094h0c-3.305,0-5.958-1.126-7.471-3.171a7.257,7.257,0,0,1-.969-6.514,24.3,24.3,0,0,0,.315-5.926l-.053-1.017,1.015.081c.031,0,3.2.223,5.014-1.368a3.787,3.787,0,0,0,1.261-2.788h1.782a3.786,3.786,0,0,0,1.261,2.788c1.815,1.59,4.983,1.37,5.015,1.368l1.012-.077-.051,1.013a24.29,24.29,0,0,0,.315,5.926,7.257,7.257,0,0,1-.969,6.514C1762.047,1893.968,1759.394,1895.094,1756.088,1895.094Zm-6.313-14.757a21.987,21.987,0,0,1-.424,5.594,5.494,5.494,0,0,0,.7,4.929c1.184,1.6,3.272,2.448,6.036,2.448h0c2.765,0,4.852-.847,6.037-2.448a5.5,5.5,0,0,0,.7-4.929,21.954,21.954,0,0,1-.424-5.594,8.787,8.787,0,0,1-5.328-1.809.993.993,0,1,0-1.967,0A8.786,8.786,0,0,1,1749.776,1880.338Z" transform="translate(-1747.281 -1874.391)" fill="#000072"/>
            </g>
          </g>
          <g id="Group_96" data-name="Group 96">
            <g id="Group_89" data-name="Group 89" transform="translate(0.552 5.255)">
              <path id="Path_60" data-name="Path 60" d="M1661.152,1799.591s-2.762,5.142-8.669,1.658c0,0-.538,6.034,5.779,6.034s6.318-6.247,6.318-6.247Z" transform="translate(-1652.472 -1799.591)" fill="#fff"/>
            </g>
            <g id="Group_90" data-name="Group 90" transform="translate(12.66 5.255)">
              <path id="Path_61" data-name="Path 61" d="M2003.428,1799.591s2.762,5.142,8.669,1.658c0,0,.538,6.034-5.78,6.034s-6.318-6.247-6.318-6.247Z" transform="translate(-2000 -1799.591)" fill="#fff"/>
            </g>
            <g id="Group_91" data-name="Group 91" transform="translate(0 0.793)" opacity="0.3">
              <path id="Path_62" data-name="Path 62" d="M1661.4,1677.113s-.776,2.55-4.456,3.156a4.518,4.518,0,0,1-3.187-.553c1.931-.953,3.191-2.446,3.191-3.887,0-2.376-3.421-4.3-7.642-4.3s-7.643,1.927-7.643,4.3c0,1.441,1.259,2.933,3.189,3.887a4.518,4.518,0,0,1-3.189.554c-3.679-.606-4.455-3.156-4.455-3.156s-3.187,7.926,5.61,8.733a10.169,10.169,0,0,1,12.972,0C1664.583,1685.038,1661.4,1677.113,1661.4,1677.113Z" transform="translate(-1636.641 -1671.524)" fill="#000072"/>
            </g>
            <g id="Group_92" data-name="Group 92" transform="translate(5.018)">
              <path id="Path_63" data-name="Path 63" d="M1795.947,1653.06c0,2.377-3.422,4.9-7.642,4.9s-7.643-2.521-7.643-4.9,3.422-4.3,7.643-4.3S1795.947,1650.684,1795.947,1653.06Z" transform="translate(-1780.662 -1648.757)" fill="#000072"/>
            </g>
            <g id="Group_93" data-name="Group 93" transform="translate(8.602 1.431)">
              <ellipse id="Ellipse_6" data-name="Ellipse 6" cx="4.058" cy="0.722" rx="4.058" ry="0.722" fill="#fff"/>
            </g>
            <g id="Group_94" data-name="Group 94" transform="translate(0.177 6.661)">
              <path id="Path_64" data-name="Path 64" d="M1655.193,1841.886l-.019.117-.017.092-.038.173c-.027.112-.057.221-.088.329a5.777,5.777,0,0,1-.229.625,6.231,6.231,0,0,1-.649,1.154,6.336,6.336,0,0,1-.883.993,6.642,6.642,0,0,1-2.253,1.319c-.2.077-.407.127-.611.188-.206.046-.411.1-.617.134s-.412.071-.617.09-.411.038-.615.046a10.39,10.39,0,0,1-1.229-.012c-.207-.006-.418-.045-.627-.067s-.419-.077-.627-.122a6.424,6.424,0,0,1-1.222-.443,5.3,5.3,0,0,1-1.108-.71,5.036,5.036,0,0,1-.9-.949,5.869,5.869,0,0,1-.984-2.286,6.627,6.627,0,0,1-.135-1.194,5.684,5.684,0,0,1,.088-1.193.3.3,0,0,1,.588-.007l0,.023a7.972,7.972,0,0,0,1.665,3.679,3.946,3.946,0,0,0,1.491,1.054,5.211,5.211,0,0,0,1.854.345,8.556,8.556,0,0,0,1-.041c.167-.015.334-.034.5-.063s.325-.054.485-.087.315-.079.471-.117.307-.093.451-.155a5.215,5.215,0,0,0,.837-.405,4.48,4.48,0,0,0,1.328-1.212,4.832,4.832,0,0,0,.457-.782c.062-.138.12-.278.17-.418.024-.07.047-.14.066-.208l.026-.1.011-.044,0-.018s0-.013,0,0a.991.991,0,1,1,1.964.275Z" transform="translate(-1641.728 -1839.924)" fill="#000072"/>
            </g>
            <g id="Group_95" data-name="Group 95" transform="translate(11.669 6.661)">
              <path id="Path_65" data-name="Path 65" d="M1973.511,1841.612c0-.011,0,0,0,0l0,.018.011.044.026.1c.02.068.042.138.067.208.05.14.108.28.169.418a4.85,4.85,0,0,0,.457.782,4.48,4.48,0,0,0,1.328,1.212,5.216,5.216,0,0,0,.837.4c.144.063.3.1.451.155s.31.087.471.117.32.067.486.086.329.048.5.063a8.5,8.5,0,0,0,1,.041,5.2,5.2,0,0,0,1.855-.345,3.947,3.947,0,0,0,1.491-1.054,7.974,7.974,0,0,0,1.665-3.679l0-.023a.3.3,0,0,1,.588.006,5.685,5.685,0,0,1,.088,1.193,6.671,6.671,0,0,1-.135,1.194,5.872,5.872,0,0,1-.985,2.287,5.042,5.042,0,0,1-.9.949,5.308,5.308,0,0,1-1.107.71,6.4,6.4,0,0,1-1.222.443c-.208.045-.418.093-.627.122s-.42.062-.627.067a10.5,10.5,0,0,1-1.229.012c-.2-.009-.409-.021-.615-.047s-.411-.054-.617-.09-.411-.088-.616-.134-.41-.111-.612-.188a6.292,6.292,0,0,1-3.136-2.312,6.241,6.241,0,0,1-.65-1.154,5.674,5.674,0,0,1-.229-.625c-.032-.108-.062-.216-.089-.329l-.038-.173-.017-.092-.019-.117a.992.992,0,0,1,1.964-.275Z" transform="translate(-1971.537 -1839.925)" fill="#000072"/>
            </g>
          </g>
        </g>
      </g>
    </g>
  </g>
</svg>
