<svg xmlns="http://www.w3.org/2000/svg" width="30.939" height="22.045" viewBox="0 0 30.939 22.045">
  <g id="Group_205" data-name="Group 205" transform="translate(0 -33.085)">
    <path id="Path_310" data-name="Path 310" d="M169.348,48.911c0-.035.024-.07.023-.1l-9.442,9.1,9.43,8.807c.006-.063-.011-.126-.011-.191V48.911Z" transform="translate(-138.432 -13.608)" fill="#fff"/>
    <path id="Path_311" data-name="Path 311" d="M29.586,126.9l-3.854,3.708a1.008,1.008,0,0,1-1.386.011L20.5,127.039l-9.492,9.149a2.187,2.187,0,0,0,.738.147h26.57a2.186,2.186,0,0,0,1.061-.292Z" transform="translate(-9.53 -81.205)" fill="#fff"/>
    <path id="Path_312" data-name="Path 312" d="M20.8,47.289l14.409-13.88a2.184,2.184,0,0,0-1.113-.324H7.524a2.19,2.19,0,0,0-1.394.52Z" transform="translate(-5.306 0)" fill="#fff"/>
    <path id="Path_313" data-name="Path 313" d="M0,52.1V69.371a2.192,2.192,0,0,0,.1.572l9.374-9.027Z" transform="translate(0 -16.459)" fill="#fff"/>
  </g>
</svg>
