<svg xmlns="http://www.w3.org/2000/svg" width="214.401" height="201.674" viewBox="0 0 214.401 201.674">
  <g id="Group_440" data-name="Group 440" transform="translate(-340.342 -250.037)">
    <path id="Path_1048" data-name="Path 1048" d="M341.568,377.887c8.876-24.477,39.659-67.373,66.265-72.514,8.7-1.68,16.884-.791,24.759-5.311,6.087-3.494,12.321-10.4,19.048-12.61,18.12-5.954,16.143.91,15.121-16.4-.51-8.672-12.449-12.876-15.487-20.042,37.9,8.745,25.327,31.52,28.789,31.885,8.252.868,22.218,7.488,29.04,12.471,6.465,4.724,11.768,11.519,17.194,17.844,13.135,15.313,11.8,29.211,19.063,45.919,9.656,22.229,14.283,29.53-11.53,35.981-7.413,1.851-20.385.379-24.753,7.783-5.54,9.394,10.043,13.178,5.694,23.127-1.474-.2-5.842.2-7.033-3.886,8.25,8.068-2.9-13.741.508-16.076,5.523,5.024,12.723,11.312,8.145,19.114-1.858-.921-6.457-.872-8.321-2.121.525,1.6-3.728,6.508-3.136,8.229-4.056,1.905-3.218-.1-6.77-3.194-5.581,19.4-28.54,2.164-26.788-12.537-15.123,3.6-25.173,8.119-40.852,6.283,1.2,8.814-11.136,25.62-20.012,25.876a31.179,31.179,0,0,0-.43-3.466c-3.588,7.389-12.475,8.514-17.533,1.652-12.408,10.588-14.559-5.579-9.724-14.251,6.134-11,13.39-13.705-2.219-19.035-16.282-5.564-49.587-8.55-37.789-35.975" transform="translate(0 0.288)" fill="#fcb029"/>
    <path id="Path_1049" data-name="Path 1049" d="M377.294,310.107c-3,22.477-14.984,43.456-14.984,65.937h2.995c19.481,20.978,65.935,10.491,91.41,3,25.477-6,44.959-6,34.468-34.468-7.492-19.48-23.977-38.963-35.964-53.947" transform="translate(19.23 34.963)" fill="none" stroke="#1a1818" stroke-miterlimit="10" stroke-width="0.799"/>
    <path id="Path_1050" data-name="Path 1050" d="M403.265,332.448c-7-4-11.989-10.988-16.985-17.983,7.995-3,15.986-5.994,23.977-5.994,2,7.991-3,15.984-8.991,20.98" transform="translate(40.213 50.585)" fill="none" stroke="#1a1818" stroke-miterlimit="10" stroke-width="0.799"/>
    <path id="Path_1051" data-name="Path 1051" d="M384.044,286.63c-10.99,21.979-45.956,46.954-42.959,71.928,3,22.979,24.976,17.983,40.96,22.979" transform="translate(0.491 31.466)" fill="none" stroke="#1a1818" stroke-miterlimit="10" stroke-width="0.799"/>
    <path id="Path_1052" data-name="Path 1052" d="M413.981,276.508c21.981,13.988,47.954,48.953,59.941,71.93,10.992,19.982-7.989,24.978-24.974,29.972" transform="translate(64.462 22.605)" fill="none" stroke="#1a1818" stroke-miterlimit="10" stroke-width="0.799"/>
    <path id="Path_1053" data-name="Path 1053" d="M363.375,298.592c11.989-6.991,18.979-20.98,33.965-15.984,22.979,2,43.961-12.989,62.94-5" transform="translate(20.162 21.501)" fill="none" stroke="#1a1818" stroke-miterlimit="10" stroke-width="0.799"/>
    <path id="Path_1054" data-name="Path 1054" d="M379.954,304.206s-2-3.995-1,3c0,0,2-3,1-3v1" transform="translate(33.554 45.857)" fill="none" stroke="#1a1818" stroke-miterlimit="10" stroke-width="0.799"/>
    <path id="Path_1055" data-name="Path 1055" d="M404.393,299.048v6.993h1c0-2,1-6.993,0-2" transform="translate(56.069 42.025)" fill="none" stroke="#1a1818" stroke-miterlimit="10" stroke-width="0.799"/>
    <path id="Path_1056" data-name="Path 1056" d="M343.131,324.452c4,18.981,16.985,16.983,30.97,18.981" transform="translate(2.441 64.574)" fill="none" stroke="#1a1818" stroke-miterlimit="10" stroke-width="0.799"/>
    <path id="Path_1057" data-name="Path 1057" d="M417.178,295.153c7.991,12.987,29.969,41.96,27.975,56.946,0,1,2.995,2,3.995,2v3a84.624,84.624,0,0,0,16.984-5c-2,2-3,0-5,0" transform="translate(67.261 38.927)" fill="none" stroke="#1a1818" stroke-miterlimit="10" stroke-width="0.799"/>
    <path id="Path_1058" data-name="Path 1058" d="M353.784,322.265c7-14.988,23.977-30.972,36.966-40.962,3,0,2,1,3,2" transform="translate(11.767 26.802)" fill="none" stroke="#1a1818" stroke-miterlimit="10" stroke-width="0.799"/>
    <path id="Path_1059" data-name="Path 1059" d="M388.41,314.13c1-1,7.993-2.995,11.989-2.995a12.027,12.027,0,0,0-6,12.987c3-2,4-4,7-6" transform="translate(42.078 52.917)" fill="none" stroke="#1a1818" stroke-miterlimit="10" stroke-width="0.799"/>
    <path id="Path_1060" data-name="Path 1060" d="M397.668,312.2c-2,3-3,6-5,8.991,3-1,4-2,5.994-4" transform="translate(45.809 53.849)" fill="none" stroke="#1a1818" stroke-miterlimit="10" stroke-width="0.799"/>
    <path id="Path_1061" data-name="Path 1061" d="M407.858,313.067c-2,4-5,8.991-6.993,12.989-2-5.994-7-9.99-12.987-9.99,2,7.991,9.988,4,13.987-3,0,1-2,4-2,4.994a49.816,49.816,0,0,0,7.993-6.991c-4,3-7.993,6.991-9.992,11.987,4-4,6-7.993,7.993-12.989-4.994,1-10.99,4-11.989,7" transform="translate(41.612 51.983)" fill="none" stroke="#1a1818" stroke-miterlimit="10" stroke-width="0.799"/>
    <path id="Path_1062" data-name="Path 1062" d="M373.784,324.185c1.251,10.63,15.941,13.128,24.38,12.816a28.432,28.432,0,0,0,19.69-8.439" transform="translate(29.274 64.341)" fill="none" stroke="#1a1818" stroke-miterlimit="10" stroke-width="0.799"/>
    <path id="Path_1063" data-name="Path 1063" d="M397.283,333.688c10.63,7.19,38.76.626,35.321-15" transform="translate(49.845 59.526)" fill="none" stroke="#1a1818" stroke-miterlimit="10" stroke-width="0.799"/>
    <path id="Path_1064" data-name="Path 1064" d="M396.784,333.54c3.126.626,5.313-.626,8.126-2.187" transform="translate(49.408 70.615)" fill="none" stroke="#1a1818" stroke-miterlimit="10" stroke-width="0.799"/>
    <path id="Path_1065" data-name="Path 1065" d="M376.141,340.519c-6.251,5.315-14.69,12.816-14.69,21.567,0,8.439,7.813,11.252,12.815,3.751" transform="translate(18.478 78.639)" fill="none" stroke="#1a1818" stroke-miterlimit="10" stroke-width="0.799"/>
    <path id="Path_1066" data-name="Path 1066" d="M370.242,361.835c-3.751,2.813,1.251,7.19,4.377,7.5,3.438,0,8.126-3.44,9.377-6.253-.626,14.692,12.5.626,15.628-4.062,2.813-5,5.313-10,7.815-15" transform="translate(25.002 81.703)" fill="none" stroke="#1a1818" stroke-miterlimit="10" stroke-width="0.799"/>
    <path id="Path_1067" data-name="Path 1067" d="M430.659,332.685c3.438,5,13.128,10.941,9.69,18.129-2.5,5.313-7.815,4.688-11.565.938" transform="translate(77.42 71.781)" fill="none" stroke="#1a1818" stroke-miterlimit="10" stroke-width="0.799"/>
    <path id="Path_1068" data-name="Path 1068" d="M434.515,344.019c.313,4.375-.311,6.564-5.313,6.564-3.126,0-5.626-1.251-6.251-4.688" transform="translate(72.314 81.703)" fill="none" stroke="#1a1818" stroke-miterlimit="10" stroke-width="0.799"/>
    <path id="Path_1069" data-name="Path 1069" d="M433.69,350.937c-.311,7.19-10.626,10.315-16.252,6.877s-6.877-12.5-6.253-18.129" transform="translate(61.887 77.909)" fill="none" stroke="#1a1818" stroke-miterlimit="10" stroke-width="0.799"/>
    <path id="Path_1070" data-name="Path 1070" d="M388.784,281.687a98.6,98.6,0,0,1,9.377-7.5" transform="translate(42.405 20.572)" fill="none" stroke="#1a1818" stroke-miterlimit="10" stroke-width="0.799"/>
    <path id="Path_1071" data-name="Path 1071" d="M397.284,274.916c6.251-4.064,12.19-6.564,19.692-6.564" transform="translate(49.846 15.465)" fill="none" stroke="#1a1818" stroke-miterlimit="10" stroke-width="0.799"/>
    <path id="Path_1072" data-name="Path 1072" d="M414.765,283.193c-.311-6.253.626-11.252-1.875-16.878-3.124-6.253-11.252-10-13.439-15.63,8.439,2.813,14.377,2.813,20.629,10.628a37.185,37.185,0,0,1,7.813,23.442" transform="translate(51.743 0)" fill="none" stroke="#1a1818" stroke-miterlimit="10" stroke-width="0.799"/>
    <path id="Path_1073" data-name="Path 1073" d="M414.951,268.519c8.751,2.187,16.252,3.751,24.067,9.064,6.877,4.688,11.877,12.5,17.5,18.441,10,10.941,17.5,25.631,17.816,40.634" transform="translate(65.311 15.612)" fill="none" stroke="#1a1818" stroke-miterlimit="10" stroke-width="0.799"/>
    <path id="Path_1074" data-name="Path 1074" d="M446.912,304.685c-2.189,2.813,9.377,18.443,11.877,22.5,2.189,4.064,5.939,18.754-4.375,15.316" transform="translate(93.049 47.271)" fill="none" stroke="#1a1818" stroke-miterlimit="10" stroke-width="0.799"/>
    <path id="Path_1075" data-name="Path 1075" d="M460.143,324.352c-2.189,7.188-4.064,6.564-10.628,5.939-1.251,3.438-6.564,6.564-9.064,3.438" transform="translate(87.633 64.487)" fill="none" stroke="#1a1818" stroke-miterlimit="10" stroke-width="0.799"/>
  </g>
</svg>
