<svg id="Group_152" data-name="Group 152" xmlns="http://www.w3.org/2000/svg" width="21" height="21.004" viewBox="0 0 21 21.004">
  <path id="Path_281" data-name="Path 281" d="M196,193c-3.411,0-3.406,5.155,0,5.155S199.409,193,196,193Z" transform="translate(-185.473 -185.076)" fill="#393e3f"/>
  <path id="Path_282" data-name="Path 282" d="M106.678,100.679v0c-5.155.005-5.643.1-5.643,6.337,0,6.162.177,6.339,6.337,6.339,3.378,0,6.127.4,6.291-3.213C114.128,99.934,113.286,100.669,106.678,100.679Zm.693,10.308a3.97,3.97,0,0,1,0-7.94h0a3.97,3.97,0,0,1,0,7.94Zm4.127-7.17a.927.927,0,1,1,.927-.927A.928.928,0,0,1,111.5,103.817Z" transform="translate(-96.842 -96.514)" fill="#393e3f"/>
  <path id="Path_283" data-name="Path 283" d="M19.485,3.753A4.5,4.5,0,0,0,15.536-.689a18.838,18.838,0,0,0-3.088-.1C3.573-.781,1.627-1.176-.124.64h0C-1.769,2.349-1.433,4.165-1.433,9.68c0,4.581-.8,9.172,3.384,10.253a99.68,99.68,0,0,0,14.183,0,4.5,4.5,0,0,0,3.352-4.325C19.513,15.263,19.513,4.1,19.485,3.753Zm-3.127,11c-1.163,2.984-4.291,2.668-7.325,2.668-3.144,0-6.177.283-7.324-2.668A16.135,16.135,0,0,1,1.3,9.686c0-2.265-.069-3.847.406-5.065C2.859,1.672,5.866,1.954,9.034,1.954c2.944,0,4.949-.185,6.432,1.3,1.465,1.464,1.3,3.414,1.3,6.435C16.764,11.961,16.834,13.519,16.358,14.75Z" transform="translate(1.494 0.818)" fill="#393e3f"/>
  <path id="Path_284" data-name="Path 284" d="M255.875,66.965h0Z" transform="translate(-245.346 -64.193)" fill="#393e3f"/>
</svg>
