<svg xmlns="http://www.w3.org/2000/svg" width="66" height="66.193" viewBox="0 0 66 66.193">
  <g id="Group_283" data-name="Group 283" transform="translate(-683.111 -2548.111)">
    <g id="Group_260" data-name="Group 260" transform="translate(692.015 2558.772)">
      <g id="Group_259" data-name="Group 259">
        <path id="Path_404" data-name="Path 404" d="M84.9,106.67h31.478V82.9H84.9v23.77Z" transform="translate(-84.9 -82.9)" fill="#a0bbb8"/>
      </g>
    </g>
    <g id="Group_262" data-name="Group 262" transform="translate(683.111 2558.767)">
      <g id="Group_261" data-name="Group 261">
        <path id="Path_405" data-name="Path 405" d="M37.427,82.871s-6.191-.458-8.118,6.965c-1.232,4.8-.648,16.789-.648,16.789H37.4V82.871Z" transform="translate(-28.523 -82.865)" fill="#a0bbb8"/>
      </g>
    </g>
    <g id="Group_264" data-name="Group 264" transform="translate(714.589 2558.767)">
      <g id="Group_263" data-name="Group 263">
        <path id="Path_406" data-name="Path 406" d="M228.611,89.852c1.927-7.439,8.118-6.981,8.118-6.981s6.191-.458,8.118,6.965c1.232,4.8.648,16.789.648,16.789H228.011C227.963,106.641,227.363,94.669,228.611,89.852Z" transform="translate(-227.825 -82.865)" fill="#a0bbb8"/>
      </g>
    </g>
    <g id="Group_265" data-name="Group 265" transform="translate(714.599 2559.278)">
      <path id="Path_407" data-name="Path 407" d="M233.938,86.1a14.55,14.55,0,0,1,2.132,3.585,24.11,24.11,0,0,1,1.437,9.492,52.71,52.71,0,0,1-1.153,10.187h-8.324s-.6-11.972.648-16.789C229.721,88.517,232.027,86.811,233.938,86.1Z" transform="translate(-227.886 -86.1)" fill="#d9e8e6"/>
    </g>
    <g id="Group_266" data-name="Group 266" transform="translate(702.961 2548.111)">
      <rect id="Rectangle_154" data-name="Rectangle 154" width="1.232" height="24.513" fill="#30393b"/>
    </g>
    <g id="Group_267" data-name="Group 267" transform="translate(714.585 2580.205)">
      <path id="Path_408" data-name="Path 408" d="M227.8,220.938h34.526V218.6h-32.41Z" transform="translate(-227.8 -218.6)" fill="#a0bbb8"/>
    </g>
    <g id="Group_268" data-name="Group 268" transform="translate(709.989 2579.178)">
      <circle id="Ellipse_7" data-name="Ellipse 7" cx="1.374" cy="1.374" r="1.374" fill="#a0bbb8"/>
    </g>
    <g id="Group_269" data-name="Group 269" transform="translate(710.4 2578.831)">
      <circle id="Ellipse_8" data-name="Ellipse 8" cx="1.374" cy="1.374" r="1.374" fill="#b6d1d3"/>
    </g>
    <g id="Group_270" data-name="Group 270" transform="translate(699.739 2569.417)">
      <circle id="Ellipse_9" data-name="Ellipse 9" cx="2.827" cy="2.827" r="2.827" fill="#f9c041"/>
    </g>
    <g id="Group_271" data-name="Group 271" transform="translate(700.623 2568.675)">
      <circle id="Ellipse_10" data-name="Ellipse 10" cx="2.827" cy="2.827" r="2.827" fill="#b6d1d3"/>
    </g>
    <g id="Group_272" data-name="Group 272" transform="translate(700.607 2569.465)">
      <path id="Path_409" data-name="Path 409" d="M140.184,150.6a2.693,2.693,0,0,0-.458,1.532,2.827,2.827,0,0,0,4.77,2.053,2.829,2.829,0,0,1-5.2-1.548A2.883,2.883,0,0,1,140.184,150.6Z" transform="translate(-139.3 -150.6)" fill="#9eb4b5"/>
    </g>
    <g id="Group_273" data-name="Group 273" transform="translate(702.329 2570.381)">
      <path id="Path_410" data-name="Path 410" d="M150.2,157.521a1.121,1.121,0,1,0,1.121-1.121A1.126,1.126,0,0,0,150.2,157.521Z" transform="translate(-150.2 -156.4)" fill="#f9c041"/>
    </g>
    <g id="Group_274" data-name="Group 274" transform="translate(695.537 2548.111)">
      <path id="Path_411" data-name="Path 411" d="M114.655,15.4,107.2,18.748l7.455,2.985Z" transform="translate(-107.2 -15.4)" fill="#f9c041"/>
    </g>
    <g id="Group_275" data-name="Group 275" transform="translate(696.932 2559.764)" opacity="0.21">
      <path id="Path_412" data-name="Path 412" d="M130.569,91.614c-4.075-.411-8.166-.663-12.24-.727a3.174,3.174,0,0,1-2.132-.553.485.485,0,0,1-.158-.237c-.095-.363.411-.553.806-.553,3.1-.095,6.191-.19,9.271-.253,1.374-.047,2.732-.063,4.106-.063.853,0,4.375-.347,4.817.774.3.758-.853,1.358-1.406,1.516A7.7,7.7,0,0,1,130.569,91.614Z" transform="translate(-116.027 -89.178)" fill="#fff"/>
    </g>
    <g id="Group_276" data-name="Group 276" transform="translate(688.972 2559.873)" opacity="0.21">
      <path id="Path_413" data-name="Path 413" d="M70.7,91.786c-.505,0-1.011-.016-1.516-.016a10.862,10.862,0,0,1-1.769-.111,9.509,9.509,0,0,1-1.437-.347c-.063-.016-.142-.047-.19-.063a.5.5,0,0,1-.142-.237.829.829,0,0,1,.474-.853,2.412,2.412,0,0,1,1.011-.205,11.091,11.091,0,0,1,4.2.237C72.608,90.633,71.786,91.8,70.7,91.786Z" transform="translate(-65.632 -89.87)" fill="#fff"/>
    </g>
    <g id="Group_277" data-name="Group 277" transform="translate(702.297 2582.542)">
      <rect id="Rectangle_155" data-name="Rectangle 155" width="3.949" height="31.762" fill="#a0bbb8"/>
    </g>
    <g id="Group_278" data-name="Group 278" transform="translate(702.329 2582.542)">
      <path id="Path_414" data-name="Path 414" d="M154.133,233.4v1.927l-3.933,2.7V233.4Z" transform="translate(-150.2 -233.4)" fill="#f9c041"/>
    </g>
  </g>
</svg>
