<?xml version="1.0" standalone="no"?>
<!DOCTYPE svg PUBLIC "-//W3C//DTD SVG 1.1//EN" "http://www.w3.org/Graphics/SVG/1.1/DTD/svg11.dtd" >
<svg xmlns="http://www.w3.org/2000/svg" xmlns:xlink="http://www.w3.org/1999/xlink" version="1.1">
<metadata>
Created by FontForge 20190801 at Tue Sep 20 03:18:47 2016
 By www-data
JenWagnerCo
</metadata>
<defs>
<font id="LouisvilleBold" horiz-adv-x="461" >
  <font-face 
    font-family="LouisvilleBold"
    font-weight="700"
    font-stretch="normal"
    units-per-em="1000"
    panose-1="2 0 8 3 0 0 0 0 0 0"
    ascent="800"
    descent="-200"
    x-height="787"
    cap-height="795.5"
    bbox="-37 -221 846 926"
    underline-thickness="50"
    underline-position="-150"
    unicode-range="U+0020-F8FE"
  />
<missing-glyph horiz-adv-x="364" 
d="M66 33h199v600h-199v-600zM33 0v666h265v-666h-265z" />
    <glyph glyph-name=".notdef" horiz-adv-x="364" 
d="M66 33h199v600h-199v-600zM33 0v666h265v-666h-265z" />
    <glyph glyph-name=".null" horiz-adv-x="0" 
 />
    <glyph glyph-name="nonmarkingreturn" horiz-adv-x="333" 
 />
    <glyph glyph-name="space" unicode=" " horiz-adv-x="300" 
 />
    <glyph glyph-name="exclam" unicode="!" horiz-adv-x="171" 
d="M149 777q-25 -86 -12 -264q3 -45 11 -114q0 -8 2 -19q1 -15 2 -19q0 -7 1 -14q1 233 11 444q1 9 10 9q1 0 3 -1v2q1 9 10 8t8 -10q-8 -87 -14 -228q-2 -42 -4 -101q0 -3 -1.5 -44.5t-1.5 -52.5q-2 -39 -3 -68q0 -55 1 -86v-1q0 -3 -2 -6q-1 -4 -1 -5l-1 -1v-1
q-1 -5 -5 -21v-3q0 -2 -1 -4q-1 -5 -3 -13q-2 -7 -9 -7h-2q-7 2 -7 9v2q1 1 1 3q-1 1 -2 3q-1 1 -1 3q-1 4 2 7v1q1 3 4 11q1 23 -2 62q-2 26 -6 65q-1 14 -3 36l-2 19q-2 11 -2 19q-8 69 -11 114q-13 182 13 271q3 8 11.5 5.5t5.5 -10.5zM154.5 72.5q8.5 -0.5 8.5 -9.5v-2
v-5v-13q3 5 5 9l4 4q2 3 6 3v1q7 6 13 -1q1 -1 2 -3v-1v-3v-3q0 -3 -0.5 -9t-1.5 -9v-1q1 -5 -2 -8q-1 -1 -3 -2q-2 -5 -8 -5h-1q-3 1 -6 3q-1 -3 -2 -5l-1.5 -1.5t-0.5 -1.5q-2 -2 -5 -3q-5 -1 -9 2q-2 2 -3.5 4.5t-2.5 7.5q-1 6 -1 17q-1 16 -1 26q1 9 9.5 8.5z" />
    <glyph glyph-name="quotedbl" unicode="&#x22;" horiz-adv-x="247" 
d="M55 640q3 15 11 35q-1 2 -1 3q0 6 5 9q5 10 9 15l3 3q6 4 12 0q3 -2 4 -7v-5q-5 -74 -5 -112q-1 -21 -1 -39q2 -42 4 -67q1 0 1 -1q0 -8 -8 -9h-2q-8 0 -8 8q-4 31 -5 69v7v26q-1 42 -2 59q0 -1 -1 -2q-2 -22 -2 -55q0 -8 1 -26q1 -51 -1 -76q-1 -8 -9 -8h-1q-8 1 -8 9v1
q2 18 -3 60q-1 5 -1 7q-4 33 -3 51q1 26 11 45zM220 497q0 3 1 6q2 30 3 41q8 103 11 171q1 8 9 8h1q8 0 8 -9q-1 -16 0 -33q1 1 2 3l4 2q3 1 6 0l3 -3t1 -2q1 -1 1 -2v-1v-1v-13q-1 -28 -2 -54q-2 -67 0 -81q1 -9 -7 -10q-2 -26 -5 -53q-1 -8 -9 -8h-1q-8 1 -8 9v1
q2 24 2 54q0 -5 -1 -21q-1 -4 -1 -5q-1 -9 -10 -8.5t-8 9.5z" />
    <glyph glyph-name="numbersign" unicode="#" horiz-adv-x="482" 
d="M208 496q8 -1 17 -2q0 1 0.5 2.5t0.5 2.5v3l1 1q4 15 5 19q10 38 17 93q-2 -3 -3 -7q-18 -49 -38 -112zM157 269h1q7 27 16 52t17 53q12 38 28 98q-6 0 -11 1q-3 0 -7 1q-14 -47 -29 -98v-5q-6 -32 -12 -77q-1 -6 -3 -25zM362 457q-36 3 -82 8q-21 2 -43 5
q-17 -63 -29 -101q-8 -28 -17 -54q-8 -23 -15 -46q74 -1 124 0q5 0 9 1q7 31 16 63q17 63 37 124zM353 272q7 34 13 66q5 31 10 61q-8 -36 -22 -105l-1 -4q-2 -10 -4 -18h4zM343 228l2 8h-3l-2 -8h3zM339 210h-3q-14 -67 -27 -115q-2 -5 -5 -22q20 71 35 137zM331 271
q2 10 4 22q1 3 1 5q4 17 7 31h-1q-7 -30 -14 -58h3zM322 229q1 4 1 7h-2q-1 -3 -2 -7h3zM318 211q-1 0 -2 1q-5 -26 -9 -50q5 21 11 49zM432 474q-13 1 -27 2q0 -1 -1 -2h18h10zM357 477q6 -1 11 -2v2h-11zM302 236h-28q14 -3 27 -4q1 2 1 4zM422 238h-21q-1 0 -5.5 -0.5
t-8.5 -0.5h-4h-11h-9l-2 -10q42 0 76 10h1zM114 17q-12 -10 -22 -2q-1 -10 -1.5 -18.5t-8.5 -8.5q-1 0 -1 1q-8 0 -8 8v1q2 40 3 48q1 2 1 4q1 2 2 3q12 76 41 193q-23 3 -45 7q-7 0 -14 1q-5 0 -8 3q-1 1 -2 1q-8 2 -6 10.5t10 6.5l20 -4q17 0 47 -1h4q13 55 29 110
q9 53 19 95q-45 1 -83 6q-5 1 -8 1q-7 2 -11 4t-6 6q-8 2 -7 10q1 9 10 8q1 0 13 -2h9q13 0 37 -2q21 -2 52 -6q5 22 12 42q27 86 67 133q6 7 13 1t1 -13q-4 -4 -7 -8q1 -2 2 -5t1 -8q0 -8 -1 -21q-6 -57 -18 -103q-2 -8 -5 -19q-1 -3 -2 -5v-1q14 0 38 1q47 1 70 1h24
q9 26 18 49q4 49 4 93q0 9 9 9t9 -9q0 -21 -1 -43q13 29 25 50q2 4 8 4q2 0 4 -1q5 -3 5 -8q0 -2 -2 -4q-24 -43 -44 -107q-1 -17 -3 -34q35 -2 67 -6h4h2l1 -1h3q9 -1 13 -2q5 -2 8 -6q3 -7 -3 -13q-14 -14 -83 -12q-8 0 -17 1q-7 -58 -19 -120q-5 -30 -12 -61l18 2t10 -8
t-8 -10q-9 -2 -19 -3h10h4.5t8 0.5t5.5 0.5h22q17 1 28 0q7 0 11 -2q3 0 5 -2q4 -3 5 -8q0 -8 -7 -14q-3 -3 -10 -6q-3 -2 -7 -3q-2 0 -3 -1h-1q-39 -12 -86 -11q-19 -81 -43 -170q-14 -47 -20 -53q-4 -3 -8.5 -2t-7.5 5q-1 3 -1 8q0 6 1 17q1 15 5 38q-5 57 15 162
q-13 2 -27 4q-24 4 -68 13q-23 5 -34 8q-1 -5 -3 -11q0 -1 -1 -5t-2 -7l-1 -4q-2 -9 -4 -16q-5 -20 -9 -37q-13 -45 -31 -95q-2 -6 -8 -6h-3q-6 2 -6 9q0 1 1 3q14 40 29 146q-24 -101 -34 -168q0 -1 1.5 -5.5t1.5 -5.5q1 -4 3 -6q6 4 11 -2q6 -6 0 -12z" />
    <glyph glyph-name="dollar" unicode="$" horiz-adv-x="450" 
d="M424 47q-12 -13 -29 -23q-45 -26 -106 -20q-60 5 -106 37q-41 29 -55 69q-1 -4 -1 -8q11 -27 38 -50q42 -35 104 -49q48 -10 90 -2q4 1 9 3q37 13 56 43zM141 131q9 -45 53 -75q41 -29 96 -34q56 -5 96 18q44 25 52 76q7 44 -8 89q-8 19 -19 38q-21 38 -58 82
q-25 30 -72 80l-14 16l-15 15q-16 18 -28 31q-31 35 -51 61q-52 70 -60 125q-2 20 1 39q10 71 54 103q18 21 42 21q5 0 11 -1q11 2 23 1q-2 10 0 31v1q1 14 1 19v1q0 8 9 8v1q9 0 9 -9q0 -3 1 -7q4 2 8 1q3 -1 6 -4q3 -4 6 -11q4 -8 -5 -12q-2 -1 -5 0q0 -9 1 -21q6 0 8 -5
q3 -1 5 -2q33 -12 62 -37q19 -13 35 -31q44 -52 48 -122q1 -9 -8 -9h-3q0 -9 -1 -17q0 -9 -9 -8.5t-8 9.5q5 71 -33 128q-14 20 -33 36q-26 19 -56 26q-3 1 -5 1l17 -17q37 -41 71 -102q30 -56 36 -88q2 -9 -7 -10.5t-10 6.5q-6 30 -35 84q-32 59 -68 98q-19 21 -37 32
q-30 -1 -53 -15q-18 -11 -30 -29l-2 -8q-20 -69 20 -147q17 -33 47 -72q22 -28 59 -72q6 -5 18 -19q41 -48 61 -73q33 -41 53 -75q6 -9 10 -18q64 -109 39 -190q-18 -57 -79 -78q-11 -4 -24 -7q-36 -11 -80 -7q5 -3 4 -8h1q7 -6 17 -43q3 -9 -6 -11.5t-11 6.5q-4 13 -6 20
q-1 -2 -2 -7.5t-1.5 -9.5t-1.5 -6q-1 -7 -9 -7h-2q-7 2 -7 9q0 1 1 2q3 14 -2 34l-2 5q-1 4 -1 5q-1 7 0 11q1 2 3 4h-3q-64 13 -105 47q-39 33 -41 72q-6 18 -6 38q0 9 9 9t9 -9t1 -17l4 -2l-2 10q-2 8 7 10t10 -7z" />
    <glyph glyph-name="percent" unicode="%" horiz-adv-x="606" 
d="M350 571q-3 -18 -8 -35q-7 -33 -21 -53q-6 -9 -13 -14q-11 -11 -22 -12q-9 -1 -17 4q-2 1 -3 2q-33 14 -43 49q-8 20 -5 49q3 39 24 77q12 23 27 35q8 6 17 9q26 20 47 -2q25 -24 31 -101q1 -9 -8 -10q-3 0 -6 2zM425 358q78 137 109 201q23 46 34 78q-63 -108 -143 -279
zM242 -6q-2 -5 -8 -5q-2 0 -4 1q-5 3 -5 8q0 3 1 4q34 66 86 176q6 14 13 29q7 16 25 54t34 73t18 39q41 89 61 127q8 16 21 44l5 11q3 6 5 11q39 83 71 123q1 1 4 5l1 1l2 2q4 5 7 7q11 8 16 -4q1 0 2 -1q4 -2 4 -7q0 -3 -2 -5l-2 -4q-1 -39 -46 -132q-33 -66 -122 -222
l-1 -1q-59 -103 -83 -148q-50 -118 -58 -158q-1 -9 -10 -8q-6 1 -7 7q-10 -29 -8 -44q1 -9 -7.5 -10t-10.5 8q-1 11 2 27zM557 131q-3 1 -6 3q-26 13 -27 59q-2 53 22 86q-8 -5 -14 -21q-14 -33 -12 -82q2 -46 17 -55q5 -3 13 3zM589 287q14 -18 22 -36v7q-1 26 -17 29
q-2 1 -5 0zM566 298q16 10 32 7q30 -6 31 -47q1 -20 -7 -45q0 -5 1 -10q0 -38 -23 -60q-9 -8 -19 -12q-11 -14 -21 -21q-17 -14 -33 -4q-22 13 -25 69q-2 53 13 90q9 21 22 29.5t29 3.5zM574 242q0 6 1 14q1 13 -1 16q-2 2 -6 5q-4 -4 -7 -9q-21 -27 -20 -74q1 -36 18 -45
q5 -2 11 -2q4 7 9 15q16 29 24 53q-2 17 -11 34q0 -4 -1 -8q0 -9 -9 -8.5t-8 9.5zM289 478q3 1 7 4q8 8 15 23q8 16 14 36q2 9 3 18q10 63 -7 95q-16 14 -36 -1q-2 -1 -3 -2q-14 -21 -21 -52q-10 -47 1 -88q2 -8 5 -15l-24 18q8 -13 24 -18q7 -2 17 -2q9 0 8 -9q0 -4 -3 -7z
M243 514q-5 22 -5 46q-3 -24 3 -42z" />
    <glyph glyph-name="ampersand" unicode="&#x26;" horiz-adv-x="531" 
d="M293 350q21 27 33 44q18 24 31 43q-4 -4 -8 -9q0 -1 -9 -11.5t-18.5 -22t-13.5 -16.5q-10 -11 -18 -22q2 -3 3 -6zM260 307l-4 6q-40 -54 -62 -98l-8 -18q15 28 40 65q15 20 34 45zM422 637q10 -13 15 -28q-1 11 -5 20q-5 11 -16 19q3 -5 6 -11zM178 107q1 9 3 18
q8 34 13 47q-17 -37 -16 -65zM197 54q3 -3 5 -6q26 -27 82 -9q56 19 110 69q8 7 14 14l5 5q-4 5 -7 9t-13 17q-5 5 -11.5 11t-10.5 10.5t-6 5.5q-45 45 -71 78l-14 18q-3 -5 -7 -10q-32 -41 -39 -54q-12 -20 -23 -47q-5 -11 -12 -44q-8 -31 -4 -56q1 -6 2 -11zM258 15
q8 0 16 1h1l10 4q-15 -4 -27 -5zM280 333q1 1 1 2q-1 3 -3 6l-2 -2zM283 661q43 23 86 9q10 -3 19 -7l-2 2q-7 3 -16 6q-45 13 -73 -1q-6 -3 -11 -6zM255 617q-19 -41 -26 -90q8 -67 52 -153q6 7 13 16q4 5 13.5 16.5t18.5 21.5l9 11q24 29 38 47q20 26 33 46q17 51 1 91
q0 2 -1 4q-15 17 -43 26q-40 13 -78 -12q-17 -11 -30 -24zM230 432q4 -11 9 -21q11 -27 28 -55l2 2q-27 51 -42 96q1 -12 3 -22zM432 99q-2 -3 -5 -6q-58 -65 -121 -88q-14 -5 -27 -7q-74 -30 -107 24q-51 85 6 201q24 48 68 107q-6 11 -11 23q-16 35 -22 74q-23 63 -16 113
q4 27 16 51q12 56 61 87q33 35 68 34q31 -2 55 -32q83 -35 46 -119l-4 -8q-8 -50 -49 -120q-23 -38 -56 -85q-12 -17 -22 -30q53 -87 121 -165q12 16 21 31q9 17 14 33q16 48 -3 85l-4 2q-9 2 -6 11q0 1 1 2q-2 3 -4 5t-2 6q-6 5 -2 12q6 8 13 2q24 -16 34 -41q5 -7 7 -15
q3 -11 2 -25q0 -17 -4 -35q-10 -47 -45 -97q31 -33 55 -52q26 -21 36 -22q9 -1 8 -10t-10 -8q-17 1 -50 29q8 -11 14 -22q2 -1 3 -1q8 -3 6 -11q0 -1 -1 -2l6 -12q3 -8 -5 -12t-12 5t-9 18q-13 7 -26 21t-31 39q-3 5 -7 10zM182 43l6 -12q10 -16 26 -22q-13 8 -23 20
q-5 6 -9 14z" />
    <glyph glyph-name="quotesingle" unicode="'" horiz-adv-x="113" 
d="M122 508v-14v-41q0 -9 -9 -9t-9 9v3q-4 2 -4 7v1q3 22 4 50v46q0 15 1 28v4q-1 42 0 60q-2 23 4 56q2 7 8 8l2 6q1 7 8 7h2q8 -2 8 -9q0 -1 -1 -2q-8 -37 -10 -86v-2q0 -2 1 -5t4.5 -16.5t3.5 -14.5q3 -9 -6 -11q-2 -1 -5 0v-13q-1 -41 -2 -62z" />
    <glyph glyph-name="parenleft" unicode="(" horiz-adv-x="273" 
d="M272 -173h-1q-4 0 -8 1q-5 1 -9 4q-28 18 -49 48q-113 116 -125 319q-11 174 54 328q46 133 148 207q8 5 13 -2t-2 -13q-14 -10 -27 -21q3 -1 6 -3q6 -5 5 -15q-1 -5 -4 -13q-2 -3 -4 -7l-7 -12q-47 -90 -70 -151q-32 -84 -41 -160q-14 -130 21 -249q43 -148 93 -226
l7 -8l1 -1q3 -4 5 -7q2 -1 2.5 -2t0.5 -2q1 -1 1 -2q1 -4 -1 -7q0 -1 -1 -2q-3 -5 -8 -4zM100 318q-6 -60 -2 -118q8 -134 63 -232q0 2 -1 4q-22 60 -35 119q-27 114 -25 227zM256 675q-10 -8 -24 -25q-11 -12 -23 -27q-4 -6 -7 -10t-4 -5q-26 -39 -47 -87q-14 -41 -22 -86
q-29 -160 13 -340q14 -58 35 -117q16 -46 33 -74q4 -7 9 -13q9 -9 18 -17q-23 39 -43 91q-20 49 -39 117q-36 124 -21 256q8 80 41 165q24 63 71 154l2 2l2.5 5t2.5 4q2 4 3 7z" />
    <glyph glyph-name="parenright" unicode=")" horiz-adv-x="224" 
d="M190 518q13 -59 15 -120q6 -113 -22 -241q-4 -37 -14 -66q-6 -21 -15 -44q-10 -58 -26 -112q25 55 49 141q24 88 39.5 181.5t12.5 129.5q-4 40 -22 88q-7 20 -17 43zM148 601q-33 54 -83 96q-1 0 -1 1q48 -90 80 -197q33 -114 40 -220q6 60 3 116q-5 105 -39 204zM61 703
q0 3 3 7q6 7 13 1q24 -21 45 -44q-10 22 -22 44q-4 8 4 12t12 -4q29 -55 49 -110q11 -19 21 -41q26 -52 38 -87q18 -50 22 -93q4 -37 -11.5 -132t-40.5 -185q-29 -106 -61 -164q-18 -34 -36 -49q-1 0 -2 -1q-10 -23 -18 -37q-5 -9 -8 -14q-3 -3 -5 -4q-6 -5 -12 -2
q-7 5 -8 14q0 5 2 12q2 3 4 8l4 8q2 2 3 5q-3 0 -5 1q-5 2 -6 7v4q0 1 1 4q1 2 3 8q4 7 14 26q28 55 42 85t25 57q3 6 6 13q24 143 8 297q-22 205 -103 351q-1 2 -1 4q0 5 5 8q2 1 4 1q5 0 8 -4q2 -3 3 -6z" />
    <glyph glyph-name="asterisk" unicode="*" horiz-adv-x="305" 
d="M191 596q11 30 10 53q-6 -26 -14 -52q2 0 4 -1zM40 617q0 -1 1 -2q1 -5 6 -12q7 -11 13 -18q32 -34 83 -27l9 27q-13 4 -27 11q-26 8 -28 9q-20 6 -31 9q-14 3 -22 3h-4zM260 467q11 -9 23 -10q9 -1 8.5 -10t-9.5 -8q-25 3 -47 26q-15 16 -32 47q-2 3 -8 14l-6 11
q-2 4 -4 6q-17 -30 -39 -54q-9 -22 -19 -38q0 -4 -2 -9q-5 -8 -24 -26q-2 -3 -6 -3t-6.5 3t-2.5 6q0 4 3 7q8 8 17 22v1q-2 -1 -3 -2q-8 -4 -12.5 4t3.5 12q10 5 21 16q11 25 22 57q-55 -4 -90 34q-7 8 -16 21q-5 8 -7 15q-4 11 0 18q6 8 20 8q10 0 26 -4q5 -1 11 -3v2
q5 8 13 4q20 -13 37 -21q7 -2 9 -3q10 -3 18 -5l8 24v2q1 2 1.5 4.5t1.5 3.5q3 11 6 20q2 6 3 11q5 11 8 17q2 4 4 6q2 1 3 2q0 2 1 4q1 9 10 7.5t7 -10.5q-1 -5 -1 -10q19 -34 -1 -92q33 3 63 31q3 2 6 2q4 0 7 -3q2 -2 2 -6t-3 -6q-14 -14 -30 -26q42 -1 58 21q5 7 12.5 2
t1.5 -13q-19 -26 -63 -28q-16 0 -34 2q-5 -2 -10 -5q4 -5 8.5 -12t7.5 -12t4 -6l2 -4q22 -33 26 -45q2 -6 2 -9q0 -9 -9 -10zM217 534l6 -8l-3 6q-4 5 -8.5 12.5t-8.5 12.5q-1 0 -2 -1q4 -5 8 -11z" />
    <glyph glyph-name="plus" unicode="+" horiz-adv-x="444" 
d="M298 433q7 39 9 58q-5 -28 -9 -58zM280 127v-30q0 -27 -1 -44q2 14 2 30q1 21 2 46q-1 -1 -3 -2zM313 240q-5 1 -11 2v-2h11zM106 247l14 -2q41 -5 110 -6h28v8q-7 0 -15 1q-59 6 -99 3q-20 -1 -38 -4zM295 15v-1q-1 0 -1 -2q-2 -6 -5 -16q-2 -6 -9 -6h-2v-6q0 -9 -9 -9
t-9 9q2 74 -1 219v18h-29q-70 1 -112 6q-24 3 -37 8q-5 2 -9 4l-12 -6q-9 -3 -12.5 5t4.5 12q4 2 8 3q-2 11 8 18q6 4 16 6l10 2h4h2h1q37 2 83 -1q26 -1 74 -6q-1 47 -1 80q-4 34 -4 59q-1 43 5 81q1 7 2 10l1 1q1 2 3 3q4 3 9 1l4 -4q1 -2 1 -6q1 -10 -1 -47
q-1 -25 -1 -48q5 48 13 92q1 1 2 6v2q1 5 2 9q3 14 7 20q3 6 8 8q7 3 14 -2q4 -3 5 -9q1 -3 1 -9q0 -8 -2 -23q-2 -19 -10 -66q-10 -61 -11 -79q-2 -33 -3 -83q34 -3 60 -4q53 -3 95 2q9 2 10 -7q1 -6 -4 -9q4 -2 4 -6v-2q0 -7 -7 -8q-57 -9 -159 -12v-9v-10q0 -85 -2 -121
q-1 -27 -3 -46q1 -1 1.5 -2t0.5 -2q1 -2 1 -3v-1q0 -1 -1 -1v-1q0 -1 -1 -5q-1 -3 -1.5 -4t-0.5 -2z" />
    <glyph glyph-name="comma" unicode="," horiz-adv-x="147" 
d="M114 95q-2 11 -1 19q1 14 12 19q6 2 11 -2q3 -2 4 -6q3 -4 5 -12q2 -13 4 -36q2 -17 3 -37v-4q1 -5 3 -9q10 -37 14 -66q5 -39 -4 -58q-12 -25 -45 -13q-5 -8 -11 -16q-6 -7 -13 -1.5t-1 13.5q9 12 16 24q0 1 1 2l6 21q1 0 1 1q5 14 6 18q2 5 2 6.5t1 1.5v1
q10 55 -16 124q-3 6 2 10zM150 -31q-5 -35 -21 -64q8 -2 12.5 -1t7.5 7q7 14 2 48q-1 5 -1 10z" />
    <glyph glyph-name="hyphen" unicode="-" horiz-adv-x="264" 
d="M62 291q11 -2 36 -7q7 -1 12 -2q16 2 34 3q5 3 10 1q1 -1 2 -1h5q29 1 78 0q30 -1 39 -1t9 -9t-9 -9h-16q1 -2 1 -4v-1q0 -8 -8 -9q-42 -3 -98 4q-13 2 -28 5h-18q-28 1 -50 -5q-1 -1 -3 -1q-6 0 -8 7q-1 1 -1 2q0 7 7 9h2q-7 3 -6 10q1 9 10 8z" />
    <glyph glyph-name="period" unicode="." horiz-adv-x="154" 
d="M152 73q1 0 2 1q3 1 4 2l2 2l-1 1l-1 1q-8 5 -16 3q5 -3 10 -10zM138 51q0 -1 0.5 -1.5t1.5 -0.5v1q-1 0 -2 1zM141 25q-22 6 -30 23q-7 15 1 31q7 16 23 21t32 -5q14 -9 10 -22q-3 -10 -15 -16q-1 0 -3 -1v-5q0 -10 -7 -15q1 -3 0 -5q-3 -9 -11 -6z" />
    <glyph glyph-name="slash" unicode="/" horiz-adv-x="285" 
d="M234 667q-12 -20 -17 -31q-27 -60 -49 -136q-7 -26 -14 -55q6 19 16 46t17.5 46.5t8.5 23.5q25 68 38 106zM60 41q11 56 33 126q7 22 15 44l-12 -30q-20 -48 -37 -89q-16 -68 -16 -112q0 -9 -9 -9t-9 9q0 23 4 53q-1 -1 -3 -1t-4 1q-5 2 -5 8q0 2 1 4q13 29 25 60
q4 17 9 36q18 66 48 153q6 25 16 70q21 93 35 141q22 78 50 139q12 27 32 56q5 8 8 11l5 5q6 4 12 0q4 -3 5 -9q0 -3 -1 -8q-1 -7 -6 -22q-13 -42 -43 -122q0 -1 -23.5 -65t-30.5 -83q-15 -39 -26 -72q-9 -24 -16 -46q-1 -6 -3 -12q14 35 30 78q7 21 25.5 71t35.5 95.5
t18 47.5q17 46 30 80q16 44 38 96q2 6 8 6q2 0 4 -1q5 -2 5 -8q0 -2 -1 -4q-16 -38 -38 -96q-7 -19 -13 -38q-13 -39 -29 -95q-1 -2 -2 -5q-17 -61 -28 -95q-13 -40 -44 -125q-29 -81 -43 -123q-22 -68 -33 -124q-2 -8 -10.5 -6.5t-6.5 10.5z" />
    <glyph glyph-name="zero" unicode="0" horiz-adv-x="424" 
d="M265 21q-52 32 -97 127q-54 114 -61 245q-3 -75 6 -144q20 -151 83 -207q10 -9 19 -15q12 -5 26 -8q3 -1 6 -1q9 0 18 3zM357 738q-22 12 -44 15q-42 6 -72 -21q-111 -101 -117 -282q-5 -154 61 -294q47 -100 99 -125q13 10 26 28q50 68 78 217l8 46v87v13q0 165 -26 291
q-1 2 0 5q-5 7 -11 12q-3 4 -2 8zM305 25h3q30 1 50 43q23 46 32 134q-27 -101 -65 -154q-10 -13 -20 -23zM115 586q-28 -78 -33 -137q-7 -93 12 -196q-18 144 11 289q5 23 10 44zM363 755q-8 11 -17 19q-70 30 -126 -21q-38 -35 -66 -104q30 55 75 96q36 33 86 26
q24 -3 48 -16zM395 119q28 72 33 189q4 73 -1 158q-3 -72 -13 -146q0 -1 -1 -2q-1 -56 -4 -101q-4 -56 -14 -98zM408 719q5 -8 9 -17q3 -6 -2 -11q12 -54 20 -121q17 -142 11 -263q-7 -151 -51 -230q-52 -94 -150 -77q-19 0 -39 12q-23 11 -44 33q-25 27 -45 72
q-31 69 -45 160.5t-8 173.5q6 66 38 151q35 93 81 151q56 70 113 64q31 -2 60 -28q24 -10 49 -29q7 -6 1 -13q-2 -2 -5 -3q4 -11 7 -25z" />
    <glyph glyph-name="one" unicode="1" horiz-adv-x="293" 
d="M269 813q-3 -1 -7 -4l1 -1q3 3 6 5zM225 757q9 18 19 31q-3 -2 -6 -5q-9 -14 -13 -26zM278 797q-2 -1 -5 -3q4 -12 6 -36q3 -33 4 -91v-35q2 99 -2 153q0 6 -1 10q0 1 -0.5 1t-0.5 1h-1zM192 751q11 20 26 37q3 4 6 7q10 14 21 23q19 18 34 11q14 -6 18 -28q3 -6 4 -14
q15 -79 15 -175q0 -69 -9 -174q-2 -19 -5 -54q-11 -128 -13 -191q-3 -106 11 -188q1 -9 -8 -11q-3 0 -6 2q-2 -2 -4 -3h-3q-6 0 -8 6q-3 7 -4 11q-2 -3 -6 -3h-1q-8 0 -9 7q-5 32 -3 36l2 2q0 25 1 69q1 34 3 90q0 9 1 33t1.5 47t0.5 24q2 53 3 91q6 171 5 261q-1 57 -4 89
q-1 13 -3 21q-8 -11 -16 -26.5t-10 -20.5q-3 -9 -11.5 -6t-5.5 11v1h-4q-3 0 -6 3q-4 -3 -9 0q-8 4 -4 12z" />
    <glyph glyph-name="two" unicode="2" horiz-adv-x="389" 
d="M165 39q27 59 62 161.5t63 204.5q37 140 49 237q-5 -17 -10 -36q-18 -62 -67 -217q0 -2 -1 -3q-54 -173 -74 -244q-15 -55 -20 -86q-1 -10 -2 -17zM197 40q53 103 109 330q32 129 46.5 232.5t8.5 152.5v-6v-2q10 -106 -54 -346q-61 -227 -124 -366q5 2 14 5zM182 15
q-2 0 -3 -1q2 0 3 1zM174 658q-14 -3 -21 5q-2 -6 -8 -6q-9 0 -9 9q1 40 36 82q32 38 75 60q21 10 39 14q9 3 17 5q51 9 71 -47q13 -46 -0.5 -156t-49.5 -258q-52 -208 -103 -317l24 8q2 1 4 1q13 6 26 10q26 8 55 8q15 5 27 14q7 6 12.5 -1t-1.5 -13q-2 -1 -4 -3h2
q19 5 32 16q6 5 12 -1.5t-1 -12.5q-9 -8 -22 -14v-1q-1 -9 -10 -7q-5 1 -10 1h-1q-15 -3 -46 -7h-3q-45 -5 -64 -14q-1 -1 -6.5 -4.5t-12.5 -7.5t-9 -6q-10 -6 -18 -9q-5 -3 -9 -5q-7 -6 -14 -13q-3 -2 -6 -2q-4 0 -7 3q-3 2 -3 6l1 1q-12 1 -18 11q-13 21 19 140
q19 71 74 244q0 2 1 4q49 154 66 215q29 101 32 136q-2 14 -5 25q-10 37 -40 31q-28 -6 -66 -42q-34 -32 -51 -63q-4 -6 -5 -11l-1 -1q8 1 10 -6q3 -8 -4 -11q1 -8 -7 -10z" />
    <glyph glyph-name="three" unicode="3" horiz-adv-x="437" 
d="M436 222q-15 -53 -40 -100q-47 -85 -106 -113q-1 0 -6 -2l-4 -2q-10 -5 -17 -7q-3 -1 -6 -1q52 -24 101 33q54 64 76 181q1 6 2 11zM436 324q1 21 0 40q-4 17 -10 31q8 -37 10 -71zM269 474q29 59 51 120q-8 -16 -18 -34q-4 -7 -13.5 -26t-19 -37t-9.5 -19
q-12 -23 -23 -42l14 10q3 6 7 11q4 7 8 12q1 3 2 4q0 1 1 1zM119 582q0 7 1 17q0 41 35 96q34 54 81 92q50 42 84 37q12 -2 21 -10q28 -8 33 -44q2 -21 -5 -53q-3 -38 -20 -94q-24 -77 -64 -156q15 6 31 11q82 22 118 -40q16 -28 19 -71q16 -69 -1 -159q-23 -122 -81 -190
q-32 -38 -68.5 -45t-74.5 21q-7 5 -2 12q0 1 1 1q-3 6 2 10q6 7 12 0q5 -5 17 -1q5 1 12 4q-3 2 -6 6q-6 7 1 12.5t13 -1.5q3 -4 6 -3q7 2 20 20q0 1 3.5 5.5t4.5 5.5q4 6 7 10q71 73 91 156.5t-8 184.5q-4 14 -11 23q-35 23 -91 3q-2 -1 -5.5 -2.5t-6.5 -2.5l-3 -1
q-8 -3 -14 -5t-11 -4l-2 -2q-5 -7 -9 -14q-16 -22 -25 -33q-6 -7 -10 -11q-3 -2 -5 -3q-9 -4 -13 5q-1 1 -1 2q-13 -13 -23 -22q-4 -4 -9 -8q-2 -2 -5 -2q-5 0 -7 3q-3 3 -3 6t2 6v2q0 3 2 6q56 64 112 171q68 129 75 214v25q-1 1 -2 1q-19 18 -41 17q-52 -21 -98 -81
q-56 -72 -57 -145q-1 -9 -10 -9t-8 9v11q-3 3 -4 7z" />
    <glyph glyph-name="four" unicode="4" 
d="M267 360q1 154 14 310q-6 -18 -12 -37q-36 -110 -71 -184q-1 -2 -6 -11t-10.5 -19t-6.5 -11q-2 -4 -5 -8q-9 -17 -13 -28q-3 -6 -4 -10h12h13h7q46 0 82 -2zM328 707q-1 -14 0 -31q1 -12 2 -35q2 -35 2 -49q1 -44 3 -110v27q1 111 -7 198zM101 357q0 3 1 5q2 7 7 17
q2 4 5 9l11 19q1 1 10 18t19 36.5t14 26.5l4 8q-7 -12 -16 -28q-1 -2 -3 -5q-23 -43 -35 -66q-9 -16 -13 -24q-1 -1 -1 -2q-5 -8 -8 -14h5zM119 357q3 0 13 1h3q-1 13 20 50q2 5 4 9q1 2 6.5 11.5t10.5 18t6 9.5q23 49 47 118q-18 -40 -45 -94q-4 -8 -14 -27t-19 -36.5
t-10 -18.5l-2 -4q-2 -3 -5 -8t-5 -7q-2 -5 -4 -8q-4 -8 -6 -14zM336 790q18 -118 17 -281q0 -63 -4 -152q106 -4 131 -18q7 -5 2.5 -13t-12.5 -3q-5 3 -16 6q2 -2 2 -6q0 -9 -9 -9q-40 0 -99 6q-1 -11 -1 -23q-1 -18 -1 -23q-1 -12 -1 -22q-4 -93 -4 -154q0 -67 5 -101
q1 -2 1 -3q2 -12 4 -19q1 -1 1 -3q0 -6 -7 -8q-1 -1 -3 -1q-6 0 -8 7q-7 19 -8 24q-1 2 -0.5 4t1.5 4v1v6q0 -1 -1 -2q-1 -9 -10 -7.5t-7 10.5q16 115 13 296v16q-4 0 -10 1q-16 2 -27 3q1 -170 17 -321q1 -9 -8 -10t-10 8q-16 153 -17 324q-22 2 -42 3h-19h-37q-24 1 -39 3
t-22 6h-1h-17q-4 1 -6 1h-2q-3 1 -5 3q-3 3 -3 7q0 1 0.5 2l1.5 3q1 3 3 7l9 18q0 1 1 1l13 25q12 22 36 65q2 5 3 6q54 98 77 152q6 11 12 27q2 4 7 16q16 40 26 60q5 11 11 20q1 7 2 13q2 8 10 7l8 12q1 2 1 4q2 7 9 7h2q7 -2 7 -9q3 -5 -1 -9q0 -1 -1 -1q-1 -7 -3 -12
q-22 -204 -23 -405q6 0 12 -1h24q-1 26 -3 76q-3 108 -4 158q0 13 -2 48q-1 22 -2 35q-2 64 10 98l-2 14q-2 9 7 10.5t11 -7.5z" />
    <glyph glyph-name="five" unicode="5" horiz-adv-x="453" 
d="M245 565q7 72 -13 141q-1 -24 -1 -89q0 -52 -1 -79q0 -32 -1 -58q12 43 16 85zM217 754q-15 -3 -20 -6q-2 0 -2 -6v-1v-1q-4 -59 -2 -155q1 -23 2 -64q3 -78 3 -111v-12q5 10 9 19q4 45 5 122q1 26 1 78q0 66 1 89q1 32 5 41q-2 6 -2 7zM459 200q0 99 -68 180
q-25 30 -69 31q11 -5 22 -12l14 -6q34 -15 59 -57q19 -32 31 -74q8 -32 11 -62zM237 -31q23 -30 61 -23q17 3 36 14q-57 -23 -97 9zM359 765h-5q-6 -1 -10 -1q-12 -1 -21 -2q-63 -5 -84 -18q7 -21 9 -28q22 -75 15 -153q-7 -73 -39 -150q0 -7 -1 -13q19 13 40 18
q36 16 76.5 9.5t64.5 -35.5q76 -90 73 -202q-3 -95 -59 -174q-54 -76 -116 -88q-34 -6 -60 12t-40 57q-3 9 6 12h3q1 3 4 5q8 4 12 -4q5 -10 12 -18q5 3 9 -1q13 -11 39 -8q16 2 45 11q50 16 77 57q13 22 21 47q2 9 4 19q15 85 -28 176q-29 61 -70 90q-47 17 -83 9h-1
q-29 -19 -42 -49q-2 -5 -8 -5h-3q-3 -9 -4 -21q-1 -8 -9 -8h-1q-8 1 -8 9v1q-3 -2 -6 -2t-5 1q-4 3 -4 8q0 2 1 4q9 15 17 30v50q0 33 -3 110q-1 42 -2 65q-2 96 2 156v1v2v0q0 6 2 9q2 7 8 10q8 6 28 9q3 8 12 9q26 2 78 4q19 0 29 1q61 2 101 11q8 2 10 -6.5t-6 -10.5
q-1 -1 -2 -1q-1 -6 -7 -7q-8 -1 -22 -2q-13 -2 -44 -5h-5z" />
    <glyph glyph-name="six" unicode="6" horiz-adv-x="517" 
d="M233 333q15 18 29 33q-10 -9 -19 -20q-5 -7 -10 -13zM223 348q-29 -32 -45 -68q-28 -61 -10 -109q1 -3 1 -5q43 -83 127 -106q70 -20 121 36q46 51 53 134q8 84 -29 133q-41 54 -119 35q-51 -40 -108 -121q-4 -6 -11 -3q-2 -6 -5 -12q-2 -8 -10.5 -5.5t-5.5 11.5
q16 47 41 80zM486 214q10 47 7 93q-4 54 -24 88.5t-51 40.5q-28 4 -63 -15q63 1 100 -47q41 -55 33 -145q-1 -7 -2 -15zM195 701q-14 -20 -26 -47q-34 -75 -48 -181q20 128 74 228zM105 235q-16 88 -7 192q9 109 39 196q-40 -78 -52 -170q-15 -116 20 -218zM262 37
q57 -14 103 4q-35 -10 -74 1q-102 28 -147 135q-19 43 -27 95q6 -50 19 -91q5 -19 12 -36q28 -42 65 -72q28 -23 49 -36zM332 15h5q90 6 144 108q50 94 40 202q-4 51 -23.5 85.5t-50.5 46.5q-65 24 -167 -56q16 9 34 14q59 46 107 38q38 -6 62 -45t28 -100q4 -58 -11 -116.5
t-46 -100.5q-49 -67 -122 -76zM263 744q-11 1 -22 -3q-44 -62 -74 -153.5t-36 -186.5q-7 -96 14 -171q3 28 16 57q25 56 73 99q133 120 220 88q36 -14 58 -52.5t27 -95.5q10 -112 -42 -211q-58 -112 -159 -118q-35 -2 -75 19q-4 2 -8 5q-6 1 -12 3q-72 22 -110 112
q-31 46 -48 101q-33 103 -18 219q14 103 62.5 190t123.5 139q11 12 23 22q6 5 12 -1q4 2 7 4q8 4 12 -4t-4 -12q-20 -10 -38 -23l-8 -8q4 0 8 -1q9 -1 8 -9.5t-10 -8.5z" />
    <glyph glyph-name="seven" unicode="7" horiz-adv-x="429" 
d="M432 741q4 19 1 24q-5 5 -30 6h-35l4 -2q15 0 25 -1q22 -3 31 -14q3 -4 4 -13zM127 776q31 10 70 12q23 1 70 0q32 -1 49 -1q12 1 27 1h12q9 0 12 1h36q35 -1 44 -13.5t1 -45.5q-2 -7 -13 -43t-12 -40q-19 -64 -44 -176q-2 -8 -6 -25q-11 -53 -18 -80q-6 -27 -12 -52
q0 -4 -1 -7q-7 -38 -13 -67q-4 -22 -7 -41q-12 -61 -21 -98l-6 -44q-2 -10 -9 -38q-3 -14 -5.5 -20.5t-6.5 -8.5q-8 -5 -13 3q-1 2 -2 6q-1 7 6 9q1 5 3 12q-1 0 -2 1q-8 5 -3 12q7 10 21 71q14 92 42 213q1 8 3.5 21t4.5 23t2 11q12 65 15 80q1 2 7 25.5t13.5 53.5t10.5 44
q3 13 6 25q15 61 21 98q4 21 5 34v9v1v1q-2 2 -8 4q5 -8 5 -17q-2 -48 -22 -124q-12 -49 -42 -143q-1 -4 -2 -9q-25 -78 -35 -113q-17 -60 -24 -101q-10 -53 -17 -107q-5 -38 -5 -57q-1 -5 0 -8q2 -1 3 -2q7 -7 0 -13q-5 -6 -11 -4t-9 9q-2 5 -1 18q0 20 5 59q7 54 17 108
q7 42 25 103q10 35 34 114q2 4 3 8q29 94 42 143q19 74 21 119q0 14 -23 21h-12q-10 0 -26 -1q-27 -3 -34 -2q-10 0 -30 2q-11 1 -17 1q-29 2 -47 -1q-24 -3 -41 -16q-8 -5 -13 2.5t2 12.5q6 4 11 7q-3 0 -7 -0.5t-6 -0.5h-3q-18 -2 -23 -1q-9 0 -9 9q0 6 6 8q1 4 6 5z" />
    <glyph glyph-name="eight" unicode="8" horiz-adv-x="423" 
d="M240 427q-9 -12 -11 -15l-18 -27q-39 -56 -62 -103q-33 -67 -17 -134q8 -35 29 -66q11 -12 23 -23q-6 7 -11 15q-36 59 -22 140q10 63 55 149q14 28 34 64zM292 762q-79 7 -139 -23q-46 -24 -60 -62q-2 -5 -3 -11q1 -14 6 -29q8 -24 23 -49q25 -31 73 -71q10 -9 25 -21
q2 -1 20 -16q24 37 38 59q27 44 42 77q4 8 7 15q10 56 -4 119l-4 2q-11 6 -24 10zM121 740q11 8 24 15q30 15 67 21q-46 0 -80 -26q-6 -5 -11 -10zM367 709q-4 0 -7 3q1 -37 -19 -86q0 -3 -1 -5q-4 -19 -10 -36q20 39 29 68q10 32 8 56zM356 745q-1 2 -3 4v-2q2 -1 3 -2z
M268 430l20 -24l20 -20q-20 25 -40 44zM345 15q17 10 29 27q57 75 -7 210q-34 72 -93 142l-20 20q-19 -33 -32 -59q-43 -84 -54 -144q-12 -74 21 -127q38 -63 115 -72q21 -2 41 3zM403 55q4 5 6 11q35 72 -22 194l-6 12q-7 12 -17 24q11 -19 19 -36q31 -65 35 -120
q4 -48 -15 -85zM70 640q-9 33 2 63q4 9 9 18q5 10 11 20q29 43 87 62q57 18 112 5q61 -15 92 -61q5 -8 -2 -13q0 -2 1 -3q9 -34 -6 -83q-12 -39 -42 -95q-12 -22 -29 -52q-6 -10 -31 -52l6 -6q68 -64 117 -162q3 -5 7 -10q59 -96 36 -191q-15 -66 -74 -86q-22 -8 -47 -8
q-15 -3 -31 -2q-56 3 -106 48q-20 17 -35 39q-2 2 -3 4q-46 58 -42 127q3 49 35 115q23 45 72 121q4 5 8 11q-1 2 -2 3q-10 9 -18 17q-1 0 -2 1q-4 3 -10 8l-3 2q-2 1 -4.5 3t-3.5 3q-31 22 -47 37q-25 22 -36 44q-20 39 -21 73zM313 778q0 2 -1 4q-12 5 -25 8q-29 7 -61 4
q17 -1 36 -5t33 -9q10 -1 18 -2z" />
    <glyph glyph-name="nine" unicode="9" 
d="M110 387q-13 14 -24 34q-21 36 -24 91q0 -25 3 -46q9 -45 36 -72q4 -4 9 -7zM156 371q24 3 51 27q45 40 103 147l55 107q20 40 32 57q-1 6 -2 11q-10 24 -17 37q-11 20 -27 34q-4 4 -9 8q-34 13 -73 9q-3 0 -6 -1q-53 -16 -104 -69q-30 -32 -53 -70q-25 -67 -26.5 -132
t21.5 -106q28 -47 55 -59zM412 725q1 0 1 1q-2 8 -6 16l4 -16q1 0 1 -1zM370 99q9 7 18 15q30 33 52 125q4 20 7 41q-11 -55 -26 -96q-22 -57 -51 -85zM123 746q43 72 98 93q57 23 114 -13q17 -6 31 -18q15 -9 27 -20q27 -24 38 -59q6 -2 12 -9q14 -18 21 -73
q29 -90 17 -252q-7 -88 -24 -161q-7 -33 -17 -61q-36 -109 -104 -137q-50 -21 -88 8q-7 5 -1.5 12t12.5 2q29 -23 70 -6q18 8 34 22q-4 -1 -8 -3q-16 -6 -48 -12q-21 -5 -31 -7q-8 -2 -10.5 6.5t6.5 11.5q-7 4 -12 12t3 12.5t12 -3.5q4 -7 10.5 -7.5t22.5 5.5q2 1 3 1
q9 3 14 4q44 9 75.5 88t45.5 207q8 77 7 153q-3 29 -7 55q-6 34 -14 58q-3 -3 -7 -2q-9 1 -7 10v4t-1 3q-2 -1 -4 -1q-2 -1 -4 0q-1 -1 -2 -3q-4 -4 -7 -8q-1 -2 -1 -4q-1 -2 -1.5 -4.5t-1.5 -3.5v-2q-12 -40 -36 -93q-31 -69 -65 -119q-43 -64 -84 -86q-53 -29 -100 10
q-90 74 -69 199q5 25 14 51q20 84 67 140zM198 806q29 14 60 19q9 3 17 4q-24 3 -47 -6q-15 -6 -30 -17z" />
    <glyph glyph-name="colon" unicode=":" horiz-adv-x="164" 
d="M162 439q0 -1 -1 -2l-1 -2q-4 -7 -12 -3q-4 -1 -8 -1q-10 1 -15 9t-2 20v7q1 8 8 19q6 10 19 7q6 -1 12 -5q9 -1 13.5 -8t0.5 -17q0 -10 -6 -17q-3 -4 -8 -7zM139 51q-4 8 2 23q6 18 21 14q9 -2 17 -15q15 -29 6 -50q-5 -11 -11 -16q-8 -7 -17 -4q-10 4 -15 22
q-5 15 -3 24v2zM169 32q-5 -2 -9 1l-1 1h-1q0 -2 1 -4q1 -5 3 -8q1 0 1 -1q3 3 5 9q1 1 1 2zM158 70v-2q-3 -7 -3 -10q1 0 2 -1l2 -1q2 -2 4.5 -3.5t4.5 -3.5q-2 8 -5 15l-4 6h-1z" />
    <glyph glyph-name="semicolon" unicode=";" horiz-adv-x="182" 
d="M142 80q13 -11 22 -25q-2 10 -4 18q-6 18 -12 24q-4 5 -10 1q-4 -3 3 -16q0 -1 1 -2zM119 92l-1 1q0 12 9 19q19 13 34 -2q9 -10 16 -32q9 -30 10 -58v-7l6 -10q12 -23 12 -41q1 -23 -16 -39q-13 -13 -27 -23q-3 -9 -5 -17t-11 -5.5t-6 10.5v2q-3 0 -5 1q-9 3 -8 13
q0 10 14 30q31 48 19 88q-2 4 -6 9l-7 9q-7 10 -9 13q-6 9 -10 16q-5 4 -11 8q-7 5 -2 12q1 2 4 3zM184 -21q-1 -4 -2 -9q-3 -16 -10 -39q2 2 4 5q17 16 8 43zM154 413q1 -1 2 -3q3 -8 -5 -11.5t-12 4.5q-5 10 -5 21q-9 3 -12 11q-6 12 4 30q6 10 18 12t20 -5q6 0 9.5 -3.5
t3.5 -10.5q0 -5 -1 -11q2 -24 -18 -33q-2 0 -4 -1z" />
    <glyph glyph-name="less" unicode="&#x3c;" horiz-adv-x="579" 
d="M171 293q-27 -2 -45 -4q-13 -2 -25 -5q7 -4 18 -10q22 8 52 19zM274 168q-2 2 -11 10q-1 1 -2 1q-37 22 -63 36q-39 18 -60 29q-6 3 -11 5q-4 2 -7 4q-10 -1 -21 -4q-1 -1 -2 -1q-7 0 -9 7v3q0 6 6 8q1 0 2 1q-3 1 -5 2q-7 5 -12 9q-2 -1 -4 -1q-6 -3 -7 -7q0 -5 6 -12
q32 -37 102 -72q56 -29 142 -59l12 -4q-21 15 -56 45zM523 439q-52 -15 -152 -55h-1q-86 -35 -131 -49q-25 -8 -74 -25q6 1 15 1q3 0 10 1q25 1 38 2q12 4 29 10.5t28.5 10.5t14.5 5q27 11 50 19q158 57 242 72h1q8 0 9 -8v-1q0 -8 -7 -9q-44 -8 -89 -23q-31 -11 -75 -31
q-5 -2 -13 -6q-2 0 -4 -1t-3 -2q-4 -2 -7 -3q-16 -7 -27 -12q-62 -26 -110 -35q-16 -3 -35 -4q-26 -10 -36 -13q-22 -8 -40 -15q8 -1 15 -4q30 -11 68 -42q10 -8 24 -20q2 -2 11 -9q7 -5 32 -19.5t30 -17.5q64 -37 107 -59q20 -1 41 3q9 1 10.5 -7.5t-6.5 -10.5l-10 -2
q30 -13 58 -23q6 -2 6 -9v-3q-2 -6 -9 -6q-1 0 -3 1q-23 8 -97 31q-76 23 -121 39q-87 30 -144 60q-73 37 -107 76q-11 12 -11 25q1 16 18 22q3 1 5 2q1 1 6 4q2 1 5 2q4 2 14 5q16 6 44 16q60 20 91 30q44 14 130 48q1 1 2 1q100 40 153 55q9 3 11.5 -6t-6.5 -11z" />
    <glyph glyph-name="equal" unicode="=" horiz-adv-x="481" 
d="M347 153q-150 7 -265 11q-9 0 -8.5 9t9.5 8q196 -6 395 -17q9 0 9 -9l-1 -1q0 -8 -8 -8h-1q-25 1 -71 -4q-26 -3 -90 -12q-10 -1 -17 -2q-90 -13 -134 -14q-68 -2 -88 20q-6 6 0.5 12.5t12.5 -0.5q15 -16 75 -14q43 1 132 13q6 1 16 3q22 3 34 5zM118 341q-9 0 -13 2
q-16 -1 -27 -4q-1 -1 -2 -1q-7 0 -9 7v3q0 6 6 8q32 9 38 10h5q2 -1 3.5 -1.5t2.5 -2.5q14 1 33 1q31 -1 111 -5q26 -1 40 -2q133 -6 188 5q1 1 2 1q7 0 9 -8v-2q0 -7 -7 -8q-198 -41 -345 1q-16 0 -29 -1q-2 -3 -6 -3z" />
    <glyph glyph-name="greater" unicode="&#x3e;" horiz-adv-x="545" 
d="M310 354q9 -5 17 -10q47 -29 87 -42q20 -7 62 -15h2l25 -5q-16 18 -82 39q-7 2 -51 15t-60 18zM547 252q-11 4 -21 7q-4 -12 -15 -24q1 0 1 -1q2 -1 3 -2q7 4 13 8q5 3 9 5q6 4 10 7zM446 275q8 -5 15 -8q22 -13 35 -22q10 10 12 18q-12 3 -33 6q-1 0 -2 1q-17 3 -27 5z
M58 496q2 -2 3 -4q8 -8 24 -19q10 -7 22 -15q3 -2 8 -5q-11 12 -19 24q-20 12 -33 17q-2 1 -5 2zM403 160q-35 -15 -78 -31q-16 -7 -24 -11q-4 -1 -7 -2q-1 -1 -2 -1h-1q-3 -1 -45 -21q-23 -12 -51 -21q-9 -3 -21 -6q-1 0 -4 -1t-6 -1.5t-3 -1.5q-8 -2 -13 -3
q-16 -5 -30 -10l-22 -8q-32 -13 -53 -23q-2 -1 -4 -1q-6 0 -8 6q-1 1 -1 3q0 6 5 9q28 13 54 23q12 5 26 10q-2 2 -3 4q-2 9 6 11q102 31 239 79q72 33 109 58q9 6 16 12q-12 7 -30 18q-39 22 -120 65q-3 1 -7 3l-105 55q-52 28 -68 38q-37 20 -54 31q-13 8 -23 15
q-18 13 -27 22q-14 15 -9 27q4 9 16 8q6 0 15 -4q8 -3 20 -10q1 1 3 2q8 4 12 -4q2 -4 4 -9q5 -2 9 -5q14 -8 29 -19l4 -2t3.5 -2.5t3.5 -2.5t3 -1l1 -1q21 -14 82 -57l10 -8q23 -8 50 -17q13 -4 64.5 -19.5t58.5 -17.5q50 -16 72.5 -30t26.5 -31q16 -4 30 -9v-1h2
q6 -3 9 -8t0 -12q-2 -3 -5 -6q-5 -5 -15 -11q-4 -3 -9 -6q-9 -5 -19 -10q-1 -1 -2 -1q-4 -8 -11 -14q-9 -6 -24 -12q-2 -1 -8 -3l-12 -4l-5 -1q-29 -10 -54 -19z" />
    <glyph glyph-name="question" unicode="?" horiz-adv-x="492" 
d="M492 603q16 50 -19 86q-46 49 -122 43q-20 -1 -40 -6q30 0 57 -4q84 -14 113 -69q7 -13 9 -24q3 -13 2 -26zM261 212q3 -13 8 -23q1 8 3 26q0 1 1 13t1 16q2 19 3 32q5 45 14 69q-6 -7 -10 -15q-34 -54 -20 -118zM273 47q-3 -1 -6 -6q-3 -6 0 -9q1 5 3 9q1 3 3 6zM285 11
q0 -1 1 -2q1 -9 -8 -10t-10 8q-1 2 -1 4q-2 1 -5 2q-10 6 -13 15.5t2 20.5q6 11 16 14.5t20 -2.5q20 -11 18 -33q-1 -4 -4 -6l-2 -2q-6 -6 -14 -9zM127 538q-25 10 -28 32q-3 19 12 43q20 33 63 66q-48 -20 -72 -47q-38 -42 -6 -84q5 -7 -2.5 -12.5t-12.5 1.5q-40 55 7 107
q40 44 123 67l24 6q59 29 114 33q85 7 138 -49q53 -57 6 -139q-24 -43 -84 -105q-4 -4 -27 -27.5t-28 -28.5q-28 -29 -38 -45q-14 -22 -21 -82q-2 -13 -3 -31q0 -4 -1 -17l-1 -12q-3 -39 -9 -46q-9 -10 -19 -2q-5 4 -9 13q-6 12 -9 29q-16 72 22 132q14 24 40 50
q16 16 48 45l6 5q47 41 67 65q32 37 43 76q7 27 3 45q-2 7 -8 18q-25 48 -100 60q-57 10 -124 -4q-13 -7 -26 -15q-63 -38 -89 -81q-11 -19 -9 -32q1 -11 16 -17q9 -3 5.5 -11.5t-11.5 -5.5z" />
    <glyph glyph-name="at" unicode="@" horiz-adv-x="735" 
d="M513 548q4 0 8 -1q27 -4 45 -22q-1 4 -3 7q-4 12 -23 16q-13 3 -27 0zM497 268q1 3 2 7t7 23l5 18l2 6q-52 -101 -89 -103q-21 -1 -31 28q-8 22 -8 59q0 79 29 155l4 10q-30 -45 -39 -103q-10 -59 6 -107q14 -44 41 -48q30 -4 66 48q2 4 5 7zM569 458q0 -15 -1 -30
q8 33 -2 58t-34 35q-33 14 -69 -6q-18 -23 -32 -61q-28 -73 -28 -148q0 -32 6 -50.5t15 -18.5q12 1 32 26q24 31 54 94q2 4 4 6q5 4 10 2q3 0 5 -3q5 9 11 15q1 31 1 78q0 9 9 9q2 0 3 -1q3 3 7 3q9 0 9 -8zM368 256q-7 20 -9 44q3 -43 15.5 -74t29.5 -41t36 4q7 4 13 11
q-15 -7 -30 -5q-37 6 -55 61zM430 513q-25 -16 -42 -47q-32 -58 -31 -141q0 23 4 46q11 71 52 124q8 10 17 18zM583 415q-3 -8 -11 -5q-3 1 -5 4l-2 -16q5 -18 14 -29q4 23 4 46zM578 250q-4 6 -6 15q-5 16 -9 43q0 5 -1 13q0 1 -0.5 4t-0.5 5v3q-2 17 -4 26q-2 -40 -5 -51
q0 -3 -2 -5v-1q-2 -37 8 -49q6 -8 20 -3zM202 468q-19 -73 -11 -146q22 -111 91 -194q45 -54 100 -81t111 -22q71 6 132 66q-88 -63 -185 -40q-104 24 -175.5 130t-68.5 231q1 29 6 56zM469 744q60 11 115 -6q32 -10 60 -28q-69 59 -154 59q-112 -1 -184 -74
q-77 -77 -106 -176q3 8 6 15q24 56 69.5 102.5t106.5 77.5q43 24 87 30zM612 247q5 1 12 5q20 11 49 44q9 10 16 20q-9 -11 -19 -21q-34 -32 -58 -48zM590 235q-31 -12 -46 7q-12 15 -13 49v2q-8 -17 -18 -33q-2 -5 -4 -9q-29 -56 -58.5 -76.5t-55.5 -5.5q-22 13 -36 47.5
t-18 81.5q-9 104 31 176q35 64 98 74q15 12 32 17q20 5 42 1q28 -6 36 -27q13 -32 18 -60q2 -12 4 -31l2 -15q1 -9 2 -16q0 -6 -5 -9q-1 -27 -6 -52q4 -2 9 -3q19 -5 42.5 6.5t44.5 36.5q41 49 46 113q-12 83 -69 145q-68 72 -159 75q-18 0 -37 -2q-36 -7 -72 -24
q-5 -3 -10 -5q-40 -22 -77 -59q-95 -95 -99 -227q-3 -120 65 -221q68 -100 165 -123q106 -25 201 61l2 2l3 3l5 5q7 6 11 10q18 17 28 31l6 12q3 8 3 16t9 8h2q4 5 10 2q8 -4 4 -12q-5 -9 -9 -18l-2 -4q-2 -6 -5 -12q-8 -19 -24 -43q-4 -6 -10 -13l-8 -12
q-75 -102 -184 -105q-100 -2 -187 76q-88 78 -117 197q-6 23 -8 48q-8 38 -8 76q-4 180 128 312q77 78 196 78q95 1 170 -67q92 -83 96 -185v-13q1 -14 1 -29q1 -3 1 -6q7 -113 -71 -202q-62 -71 -95 -50q-1 0 -2 1zM578 337q1 -1 1 -2t1 -13q1 -7 1 -12q5 -38 13 -53
q25 15 63 51q49 48 70 108q-10 -17 -22 -31q-24 -29 -52.5 -42.5t-53.5 -7.5q-5 1 -9 3q-4 -3 -9 -2q-1 1 -3 1z" />
    <glyph glyph-name="A" unicode="A" horiz-adv-x="451" 
d="M427 66q3 -28 5 -56l2 -4q0 26 -6 55q0 3 -1 5zM338 800l-1 -1q-1 -1 -3 -4q-4 -6 -9 -18q-1 -2 -2 -5q2 3 4 4q4 6 8.5 7.5t8.5 0.5q-3 8 -5 13q-1 2 -1 3zM316 263q21 -1 37 -1q0 2 -1 3q-16 0 -36 -2zM355 664q3 -53 10 -101q7 -50 17 -136q1 -6 2 -20q1 0 1 -1
q-10 132 -20 222q-2 14 -5 28q-1 7 -5 8zM354 684q1 -1 2 -1q2 0 3 -1q-3 24 -6 47q0 -24 1 -45zM392 215h-12q12 -58 26 -114q-2 25 -4 57l-4 20q-4 19 -6 37zM384 266h-2h-11v-3h13v3zM369 381l-4 24q-4 16 -6 29q-11 52 -18 91q7 -122 27 -241h13q-4 37 -12 97zM140 15
q2 1 4 1q-3 6 -5 13q0 -7 1 -14zM246 276q5 0 13 1q26 2 40 3q28 2 50 3q-26 160 -30 322q-17 -78 -53 -238q-12 -53 -20 -91zM456 3q-2 8 -4 17q0 -9 -1 -17v-2q2 1 5 2zM262 233q-12 1 -25 3l-2 -6q13 2 27 3zM381 233h8q0 1 -1 2q-3 -1 -7 -2zM242 428q4 12 7 22q1 4 2 7
v1q18 80 24 117q-4 -15 -9 -30q-3 -11 -9 -31q-1 -2 -2 -5.5t-1 -6.5l-1 -2q-3 -8 -24 -76.5t-27 -87.5q-1 -2 -1 -4q-31 -117 -42 -193q7 34 16 71q14 56 39 131q10 46 17 80q2 7 9 7h2zM171 42q-2 -10 -3 -19q-1 -5 -1 -9q3 12 6 25q-1 2 -2 3zM121 13h1q-8 75 39 246
q9 36 22 78q11 41 24 87q17 60 38 130q7 23 16 51q0 1 2.5 9t5 16.5t3.5 11.5q2 4 7 31q7 33 12 52q9 37 17 59q12 30 26 34q8 2 14 -3q4 -4 7 -10q4 -8 8 -23q1 -8 3 -18l1 -10q9 -60 16 -123q7 -45 14 -101q5 -42 14 -131q1 -10 3 -31q12 -115 22 -184q16 -99 38 -177
q1 -4 -1 -7q3 -8 -5 -12q-15 -6 -21 -7h-7q-1 -5 -5 -6q-9 -3 -12 5l-2 6q-4 2 -5 7q-1 7 -1 13q-32 100 -53 210q-22 1 -44 1q-49 -1 -87 -5q-8 -37 -14 -65q-11 -54 -39 -162q-2 -7 -9 -7q-1 0 -2 0.5t-2 0.5h-1q-4 -3 -10 -2q-5 0 -7 5q-1 1 -1 3q-1 1 -2 1q-16 9 -24 9
q-8 1 -8 9v1q0 8 9 8z" />
    <glyph glyph-name="B" unicode="B" horiz-adv-x="480" 
d="M294 761q19 -13 33 -30q46 -56 35 -125q-7 -41 -34 -90q-20 -34 -58 -84q-4 -5 -17 -22q16 16 31 35q49 62 72 127q26 75 5 125q-17 43 -67 64zM274 399q63 53 101 134q36 77 26 136q-8 54 -55 80q21 -19 32 -45q23 -57 -5 -138q-24 -68 -75 -132q-16 -21 -33 -38
q5 2 9 3zM393 70q-13 -8 -34 -20q-1 -1 -4 -3q20 10 38 23zM235 70q-4 21 -10 53v1q-15 71 -19 105q1 -34 3 -61q11 -52 26 -98zM174 207l2 -8q5 -19 16 -48q-1 7 -1 14q-7 34 -12 72q-12 86 -17 227q-1 16 -2 49q-3 85 -5 126q-1 14 -2 27q1 -28 3 -72q0 -5 1.5 -38
t1.5 -41q1 -37 2 -65q4 -103 5 -170q4 -39 8 -73zM226 43q1 -5 3 -10q0 -1 1 -1q-2 5 -4 11zM185 118q7 -42 14 -69q-2 17 -3 40q-4 12 -11 29zM220 773q-24 -2 -46 -8q1 -2 1 -5q1 -3 -1 -6q18 -96 29 -260q1 -19 3 -58q2 -32 4 -52q5 6 11 14q1 2 16 21t19 24q37 49 56 82
q26 46 32 84q10 61 -31 110q-34 41 -93 54zM466 161q-25 -29 -67 -60q-66 -49 -132 -79q7 0 15 1q17 13 52 33q1 1 8 5t8 4q36 21 55 35q29 20 46 39q8 11 15 22zM422 324q-3 2 -8 3q-44 16 -97.5 16t-102.5 -17q2 -25 4 -51q5 -49 24 -147q1 -1 1 -2q11 -58 16 -87
q64 28 129 76q84 63 93 108q6 32 -47 89q-5 6 -12 12zM255 355q70 13 133 -1q-25 18 -40 21q-23 6 -51 -3q-18 -5 -42 -17zM143 796q15 8 35 8q13 1 40 -3q11 -1 17 -2h2q6 -1 8 -6q3 0 7 -1q40 -2 77 -15q78 -28 90 -105q10 -64 -28 -146q-32 -70 -86 -122q6 -1 12 -1
q8 -1 21 -4q1 -1 6 -2t6 -1q7 -2 13 -3q1 -1 3 -1q37 -7 67 -33q22 -20 43 -53q14 -18 19 -40q17 -48 1 -96q-19 -56 -76 -102q-58 -47 -122 -60q-4 -3 -9 -6q-4 -1 -10 -3q-4 -3 -7 -6q-3 -2 -6 -2v-8q1 -9 -8 -9.5t-9 8.5q-1 5 -1 9h-2q-7 -3 -13 -4q-19 -4 -29 5
q-21 19 -39 140q-5 32 -9 72q-7 29 -7 58q-1 8 -1 17q-4 51 -8 107q-10 136 -13 256.5t3 147.5q1 9 10 7q2 0 3 -1z" />
    <glyph glyph-name="C" unicode="C" horiz-adv-x="474" 
d="M332 15q-4 1 -7 2q-4 2 -7 3q-20 -2 -40 3q23 -14 54 -8zM196 155q18 -57 43 -93q19 -15 41 -21q-51 38 -84 114zM305 787q13 4 28 5h4q-12 3 -24 0q-8 -2 -15 -6q3 1 7 1zM386 39l6 6q2 2 4 5q-19 -14 -39 -21q-1 -1 -2 -1q6 -1 12 -1q10 5 19 12zM441 79v-1l1 1h-1z
M169 189q-27 114 -20 248q2 20 3 39q1 14 3 28q-16 -86 -10 -173q0 -7 1 -13q5 -59 17 -107zM445 657v4q-1 1 -1 2v-6h1zM366 807q-24 17 -49 16q-36 -1 -73 -43q-57 -67 -84 -178q-1 -4 -2 -9q28 92 77 159q35 48 73 57q28 7 54 -6q1 1 2 3q1 0 2 1zM454 238q18 -6 34 -6
q8 0 8 -10v-2q1 -2 1 -4v-1q0 -5 -4 -7q-10 -93 -38 -142q-29 -50 -74 -56q-24 -18 -51 -20q-47 -4 -94 41q-22 21 -39 49q-4 4 -7 9q-31 48 -47 117q-11 47 -15 110q-4 39 -5 86q-4 108 20 204q27 115 88 186q41 48 86 49q39 2 74 -33q28 -27 48 -70q25 -33 35 -71
q5 -1 6 -6q4 -17 -7 -24q-1 -1 -2 -1q-1 -1 -2 -1l-1 -1q-10 -4 -28 -2q-6 1 -13 2h-3q-3 1 -4 1q-3 1 -5 1q-8 1 -8 9v1q0 4 3 6q-2 11 -5 35q-2 21 -4 31q-22 24 -43 37q-26 16 -49 14q-55 -18 -92 -99q-36 -79 -47 -196q-8 -126 18 -235q38 -160 132 -201q15 2 31 8
q49 18 79 67q18 53 13 100v2q-8 4 -5 12q1 2 4 4v2q4 9 12 5z" />
    <glyph glyph-name="D" unicode="D" horiz-adv-x="503" 
d="M348 75q-31 -18 -62 -33l-12 -6q40 12 74 39zM173 749q-11 -90 1 -341q11 -217 28 -336q-8 114 -15 322q-7 196 -7 304q-3 29 -7 51zM231 -4q5 2 10 3q26 9 53 25q-30 -11 -63 -14l-1 -1q-2 -1 -3 -2q0 -2 1 -5q2 -1 2 -4q1 -1 1 -2zM474 198q-24 -40 -56 -74
q-11 -15 -22 -28q10 9 19 18q38 39 59 84zM188 26h2h2q-22 98 -36 381q-9 193 -4 298q-10 -125 0 -317q9 -149 31 -356q4 -2 5 -6zM251 45q15 11 18 13q7 5 20 13h1q45 28 66 45q33 26 51 57q36 59 40.5 157.5t-23.5 193.5q-29 100 -86 159q-60 63 -140 62v-46q3 -29 5 -65
q6 -84 9 -221q1 -40 3 -135q2 -137 4 -191q1 -15 2 -28q1 -14 2 -25q12 4 28 11zM409 144q-7 -8 -14 -17q4 4 9 8q2 4 4 7q1 1 1 2zM501 320q1 41 -6 85v-6q-1 -96 -30 -181q25 48 36 102zM507 435q-8 81 -45 154q14 -38 23 -81q13 -36 22 -73zM407 617q20 -40 34 -88
q22 -73 25 -150.5t-13 -139.5q23 76 24 160q0 54 -10 104q-8 20 -17 40q-19 39 -43 74zM187 -4q9 -4 23 -3q-2 3 -3 5q-11 -3 -20 -2zM178 -1q-1 1 -1 2q-8 0 -9 8q-25 223 -34 378q-12 217 3 350q-5 20 -4 33q1 20 16 26q6 2 15 2q2 4 6 5q9 2 11 -6q0 -1 1 -2h2h1q3 5 9 5
q4 0 9 -1q38 6 81 -11q56 -22 114.5 -80.5t91.5 -135.5t36 -159q2 -49 -7 -95q-1 -47 -14 -88q-22 -72 -77 -129q-42 -43 -119 -90q-31 -18 -63 -29q-48 -15 -72 1q-7 5 -2 12q2 4 6 4zM242 770q114 -38 194 -165q-13 29 -29 54q-63 95 -166 117q2 -3 1 -6zM224 765
q-8 2 -17 4q-1 0 -7 2q-1 -3 -1 -8q12 0 25 -1q-1 1 0 3z" />
    <glyph glyph-name="E" unicode="E" horiz-adv-x="423" 
d="M307 772l32 2q-18 -1 -32 -2zM213 197q3 -48 5 -86q1 -1 1 -3q2 34 -6 89zM204 648q-1 -10 -1 -21q0 -70 2 -161q4 72 4 108q1 14 -4 56q-1 11 -1 18zM207 744v-2q0 1 1 2h-1zM394 778l-2 2q-1 -2 -3 -2h5zM179 755q-4 -19 4 -57q1 -6 3 -14q0 17 1 30q2 36 6 42q2 2 6 4
h-1q-12 -2 -17 -4q-1 -1 -2 -1zM198 81q2 -11 4 -20.5t4 -17.5q-3 28 -6 67q-1 22 -3 45q0 -43 1 -74zM175 650q-1 -41 -1 -82q0 -153 5 -272q1 -24 2 -46q0 5 0.5 14t0.5 15.5v8.5q1 20 1 26q-1 34 -1 101v50q0 102 -5 168q-1 8 -2 17zM220 382h-1v-14l12 2q-3 1 -5 2
q-8 2 -6 10zM332 373q0 -3 -2 -5h10v5h-8zM338 347v3q-15 -1 -43 1q27 -4 43 -4zM353 328q-3 -7 -11 -6q-5 1 -7 7q-17 0 -52 6q-4 1 -7 1q-37 6 -57 5v-31q1 -29 9 -88q1 -4 1 -6q10 -70 8 -109q0 -12 -7 -43l-3 -12q-1 -9 -2 -16q2 -21 4 -35h9h2q5 1 12 3q5 1 11 3
q1 1 7.5 3t7.5 3q9 2 12 3q11 0 41 -2h4q12 1 27 -1q30 0 44 6q-1 4 -1 5q-1 9 8 10t10 -8q0 -1 1 -6q1 -1 1 -2q10 -5 17 -10q5 -2 4 -8q1 -7 -6 -9q-17 -4 -125 -7q-16 -1 -31 -1h-1q-1 -1 -2 -1q-5 -3 -8 -5q-4 -2 -7 -3q-15 -7 -23 -9q-7 -2 -11 -2q-8 0 -12 6
q-3 4 -5 13l-2 2h-1q-5 0 -9 1q-6 1 -8 4q-12 15 -15 90q-13 78 -19 217q-5 119 -5 273q0 99 3 174q0 2 1 4q0 8 2 16q1 5 7 7q2 2 6 3q7 2 19 5q24 5 58 10q85 13 129 10q1 0 3 -1q0 1 1 1h10q11 -2 17 -16q4 -7 7 -19q3 -9 -5.5 -11.5t-11.5 5.5q0 2 -1 3q-29 -1 -100 -7
q-42 -3 -67 -6h-6q-12 -26 -8 -85q1 -11 3 -30q5 -43 4 -58q0 -36 -4 -109q0 -9 -1 -14q-1 -29 -2 -51q55 -9 121 -9q3 3 6 3h1q8 0 9 -8q1 -9 4 -24q0 -1 1 -2v-1v-3q3 -11 4 -19q1 -9 -8 -10q-3 0 -5 1zM203 761q2 0 5 1q4 1 9 2q-7 -1 -14 -3z" />
    <glyph glyph-name="F" unicode="F" horiz-adv-x="487" 
d="M205 448q0 -41 1 -83q0 17 -1 83zM238 51q1 51 -3 114q-2 48 -10 127q1 -132 5 -202q4 -21 8 -39zM226 622l1 -10v28q-1 -9 -1 -18zM256 756q3 3 6 4q27 5 60 8q-45 -1 -86 -8q0 -1 0.5 -2t0.5 -3q3 -1 5 -4q2 2 5 3q5 1 9 2zM271 411q-12 -1 -23 -2v-7q11 5 23 9z
M203 791q68 9 121 10q81 2 123 -13q6 -3 6 -9q2 0 4 1q4 0 7 -2h25q9 0 9 -9v-1l6 -2q9 -2 6.5 -11t-11.5 -6q-22 6 -48 10h-9q-24 -3 -77 -6q-3 -1 -6 -1q-47 -5 -109 -16q-5 -1 -8 3q-1 -3 -2 -7q2 -16 3 -27q1 -16 2 -92q2 -110 3 -186q17 1 53 4q3 1 4 1q36 4 57 4
q9 0 9 -9t-9 -9q-6 0 -13 -1q1 -5 -2 -8q5 1 10 3q8 3 11.5 -5.5t-5.5 -11.5q-8 -3 -16 -5q5 -6 0 -11q-8 -10 -29 -12q-15 -1 -38 1q-13 1 -29 3h-2q1 -22 6 -93q11 -175 17 -234v-1q1 -2 2 -8v-1q0 -1 1 -4l1 -4q0 -1 0.5 -2t0.5 -2v-1q0 -1 -1 -4h-1q1 -5 1 -9l1 -1
q0 -8 -8 -9h-2q-7 0 -8 7q-3 15 -4 24q0 -8 -1 -16q-1 -9 -10 -9q-6 1 -8 7v-2q1 -1 1 -2q0 -7 -8 -8q-1 -1 -2 -1q-7 0 -8 8q-6 40 -6 42v1v2q1 0 1 1q-1 16 -2 36q-20 113 -24.5 286.5t8.5 296.5q-1 14 -2 27q-1 40 0 72q1 4 4 6q-2 2 -3 5q-1 9 8 10z" />
    <glyph glyph-name="G" unicode="G" horiz-adv-x="525" 
d="M289 126q0 2 -1 4q-27 87 -40 214q-12 132 -4 249q-28 -122 -13 -262q14 -123 58 -205zM213 518q-1 -8 -2 -15q-15 -80 -13 -114q4 -73 35 -168q-13 50 -20 108q-10 95 0 189zM405 806q2 -1 5 -3q7 0 13 -2q-8 4 -18 5zM368 804q-44 -14 -73 -64q41 45 84 58q1 1 3 1
q-7 3 -14 5zM477 59q-10 -14 -20 -25q4 3 8 7q1 2 3 3l6 8q1 3 3 7zM499 394l8 -4q11 -8 19 -21q-1 6 -1 10q-1 7 -3 12q-1 2 -1 3q-7 5 -22 0zM437 375q-5 2 -8 4q-7 -1 -12 -1q6 -7 20 -3zM334 32q-6 8 -12 19q-23 23 -41 53q26 -49 53 -72zM470 680q-5 8 -11 20
q-1 2 -4 7.5t-5.5 10.5t-2.5 6q-19 37 -34 52q-5 5 -10 9q-8 -1 -18 -4q-31 -9 -63 -39t-50 -66q-11 -57 -13 -146.5t7 -184.5q19 -194 70 -283q19 -19 40 -31q18 -10 33 -12q34 16 65 69q16 28 28 62q7 36 13 76q7 49 10 88q-6 45 -29 61q-5 4 -32 -8q-3 -2 -6 -3
q-17 -8 -28 -8q-19 -1 -29 14q-4 6 1 11q-5 4 -3 10q2 8 11 6q5 -1 13 -1q4 5 10 2q12 2 32 9h3q28 9 40 11q23 3 35 -5q3 -2 4 -8v-4q1 -7 1 -17q1 -24 0 -54q-2 -87 -15 -157q-15 -88 -45 -131q-3 -6 -6 -10q-2 -2 -4 -3q-13 -15 -28 -22q-9 -6 -19 -10q-25 -9 -48 -3h-7
q-74 6 -133 149q-58 141 -63 245q-2 36 13 118q17 96 43 170q34 94 76 128q26 22 55 18q17 4 33 3q40 -3 67 -36q28 -35 30 -95q1 -9 -8 -10q-1 0 -3 1q0 -5 -4 -8q-8 -4 -12 3z" />
    <glyph glyph-name="H" unicode="H" horiz-adv-x="502" 
d="M472 328q-5 -63 -6 -115q-2 -81 7 -147q-2 110 -1 262zM289 370q-17 1 -27 2v-5q6 0 14 -1h35q-12 2 -22 4zM231 758q-6 -30 -4 -74q2 -33 9 -85q1 -8 3 -23q4 -25 6 -40q-1 28 -4 74v3q-8 120 -7 181q1 9 10 8.5t8 -9.5q-1 -60 6 -179q1 -1 1 -3q7 -111 6 -169
q-1 -25 -2 -52q4 0 9 -1q3 4 8 2q6 -1 11 -3q6 0 14 -1q34 -2 52 -3q60 -2 101 0q6 89 10 145q1 14 1 28q1 38 -2 112q-4 88 -2 131q1 9 10 9t8 -9q0 -13 -1 -25q7 -1 8 -8q0 -4 1 -8q3 23 7 33q4 8 12 4.5t5 -11.5q-20 -46 -24 -399v-4q12 1 25 3q9 1 10 -8t-8 -10
q-3 0 -7 -1q1 -8 -7 -9l-14 -2q-2 -230 2 -338q1 -1 1 -4q1 -5 2 -7h-1q2 -3 1 -6v-2q-1 -1 -1 -2v-2v-1q0 -8 -8 -9h-1q-8 0 -9 8q0 4 -1 7q-8 -2 -10 7q-7 34 -11 70q-2 -22 -2 -39v-1v-12q1 -10 1 -13v-3q1 -3 -1 -6q0 -1 -1 -2q-1 -9 -9 -9q-9 0 -9 9q0 41 1 44
q2 34 5 87q3 49 14 186q0 9 1 16q1 10 1 18q-38 -4 -88 -4q-32 0 -91 1q-10 1 -16 1q-1 -16 -3 -40q-1 -23 -2 -35q-8 -113 -3 -180v-5q1 -5 1 -7q1 -10 2 -17q2 -14 4 -21q0 -1 1 -3q6 -2 6 -7q2 -9 -7 -10q-8 -2 -13 5q-2 4 -4 10q-3 9 -5 24q0 -25 3 -41q0 -1 1 -2v-2v-1
v-1l2 -6v-3q0 -6 -6 -8q-2 -1 -3 -1q-7 0 -8 7q-10 32 -10 35v2v1q0 2 2 4l1 1q-1 25 0 62q1 43 7 149q1 12 2 19q2 43 4 73q-4 2 -4 7q0 6 5 8q2 52 1 89q0 31 -8 84q-1 -22 -2 -55q0 -1 -2 -42q0 -2 -0.5 -7t-0.5 -9v-5q-1 -13 -1 -22q-2 -33 -3 -57q-11 -226 -7 -305
q1 -3 2 -8q1 -9 2 -12q0 -1 1 -2q1 -3 0 -6q0 -2 -1 -4q-1 0 -1 -1v-2v-1q0 -8 -8 -9h-1q-8 0 -9 8q-6 42 -5 46q1 1 2 3q-3 81 7 294q1 24 3 57q0 9 1 22q0 14 1 21q1 26 2 42q2 47 3 78q1 26 0 80v16q-2 82 6 127q2 9 11 7t7 -10.5t-3 -17.5q2 -3 1 -7z" />
    <glyph glyph-name="I" unicode="I" horiz-adv-x="182" 
d="M160 523q1 14 1 27q1 22 0 66q-1 -43 -1 -93zM185 751q-7 -39 -6 -101v-12q2 33 5 66q1 3 2 11t1 12q1 16 -2 24zM150 12v2q0 3 1 12v7l-2 4q-3 8 -4 24q-2 26 -1 76q0 22 2 50q2 45 2 49q0 54 -3 164q-2 61 -2 92q-3 176 10 291q1 9 10 8t8 -10t-2 -17q2 13 6 25
q2 9 10.5 6.5t6.5 -11.5q-1 -5 -3 -10q3 0 4 -2q14 -16 12 -46q-1 -5 -2 -13q0 -7 -1 -11q-14 -152 -18 -340q-3 -117 -3 -340q0 -9 -9 -9v-12q0 -9 -9 -9q-7 0 -8 7q-3 1 -4 3q-4 4 -1 10z" />
    <glyph glyph-name="J" unicode="J" horiz-adv-x="324" 
d="M289 164q14 82 17 204q3 104 -3 251q0 10 -1 34q2 -141 1 -224q-2 -163 -14 -265zM319 682q2 -47 2 -63q6 -147 3 -251q-3 -142 -22 -231q15 63 22 152q10 130 2 294q-3 52 -7 99zM326 765q11 -47 18 -181q8 -165 -2 -297q-13 -173 -57 -249q-23 -37 -53 -50
q-15 -12 -34 -12q-35 -1 -77 36l-1 1q-52 38 -78 112q-12 31 -12 54q0 2 1 4v4q0 9 9 9t9 -9q0 -26 10 -56l2 -4q-15 50 -3 99q2 9 11 7t6 -11q-11 -47 5 -95q13 -38 47 -87q16 -22 32 -29.5t42 -4.5q22 2 39 23q3 5 5 11q37 105 40 389q1 83 -1 224q-2 107 -2 140q0 9 9 9
t9 -9v-51q0 5 1 11v4q0 6 1 14v5q1 4 1 5q0 9 9 8t9 -10l-1 -7q5 -2 6 -7z" />
    <glyph glyph-name="K" unicode="K" horiz-adv-x="484" 
d="M202 4v1q-7 1 -8 8q-17 121 -23 325q-10 82 -14 137q1 -58 4 -123q9 -238 26 -353q4 1 11 4h1q2 1 3 1zM175 783q-3 0 -6 -1q-4 -24 -6 -55q5 30 12 56zM204 768q1 11 -2 14q-1 3 -5 3q2 -3 2 -7q-3 -28 -6 -65q4 34 11 54v1zM340 571q7 14 14 26q-19 -28 -37 -58
q9 14 23 32zM254 415q-12 -20 -23 -39q-3 -7 -6 -13q7 11 14 24t15 28zM423 12q-5 8 -12 24q-2 4 -3 7q-2 4 -6 13.5t-7.5 17.5t-4.5 9l-6 12q20 -49 33 -83h6zM487 784q-5 -2 -11 -5q-8 -5 -12 3q-2 3 -1 6q-43 -35 -144 -209q-7 -13 -15 -26q98 157 176 227q2 2 6 2
q0 1 1 2zM261 377q-5 -49 48 -171q11 -26 24 -55q15 -30 44 -89q3 -6 6 -11q-9 21 -31 75q-36 90 -54 140q-9 25 -16 47q-13 36 -19 66l-2 10q-2 -3 -3 -5q3 -3 3 -7zM155 797q25 7 38 6q17 0 25 -11q5 -9 4 -26q0 -9 -4 -36q-1 -6 -6 -8q-14 -97 -8 -318q41 84 100 184
q116 201 159 222q8 4 12 -4q1 -4 0 -7q10 4 16 5q16 2 17 -12q0 -10 -16 -34l-4 -6q-2 -2 -8 -10.5t-7 -9.5q-1 -2 -4 -3q-32 -52 -105 -154q-2 -3 -7 -10q-1 -2 -2 -3q-4 -8 -9 -16q-8 -16 -19 -36q-4 -7 -19.5 -35.5t-17.5 -31.5q-8 -15 -14 -26q1 -16 5 -34q7 -30 18 -64
q7 -19 16 -39q15 -37 42 -90l26 -52q15 -29 23 -47q1 -2 8.5 -19t9.5 -21t3 -7l13 -26q2 -2 2 -3q1 0 2 -1h1l4 2q8 3 11.5 -5t-4.5 -12q-21 -10 -56 -10q-3 0 -6 2q-4 1 -6 6t-5 12v1l-22 44q-29 59 -44 89q-14 30 -25 55q-45 105 -49 159q-21 -35 -36 -59q9 -196 21 -283
q5 0 8 -5q5 -7 -3 -12q-3 -1 -5 -3t-6 -3h-1h-1l-15 -6h-1h-1q-9 -3 -13 -5q-2 -1 -4 -1q-2 -2 -4 -2h-2q-8 0 -9 7v3l-2.5 2.5t-0.5 1.5v3t-1 5q0 4 -1.5 14.5t-2.5 14.5q0 3 -0.5 4.5t-0.5 2.5t1 3v1l1 1q-14 129 -21 311q-12 293 8 430q-2 2 -2 4q-3 9 6 11z" />
    <glyph glyph-name="L" unicode="L" horiz-adv-x="395" 
d="M175 95q2 -27 3 -45q1 -17 2 -27l2 -8q0 -1 5 -1h1q-3 10 -6 26q-3 22 -7 55zM398 47q-23 9 -78 5q-21 -1 -48 -4q-4 0 -18 -2t-15 -2q-2 0 -3 1q2 -8 5 -11h1q2 -1 5 -1q8 -1 21 -1q20 0 60 2q6 0 14 1q46 2 57 2q0 5 -1 8v2zM177 785q-3 -22 -2.5 -149.5t3.5 -253.5
q4 -157 12 -253q5 -55 10 -86q3 -16 6 -25q2 0 5 1q2 1 4 1q2 1 3 1q3 2 6 2q1 1 2 1q-17 24 -28 131q-10 97 -14 246q-3 130 -1 242.5t9 145.5q-2 -1 -4 -1q-5 -1 -11 -1v-2zM237 62q1 0 15 2t18 2q28 3 48 4q62 4 89 -7q5 -2 7 -7q2 -4 2 -9q1 -6 1 -17v-5q2 -4 0 -9
q0 -1 -1 -2v-4v-4q0 -9 -9 -9q-5 0 -8 4q-8 -3 -20 -5q-20 -2 -57 0q-8 0 -20 1q-48 4 -58 2q-1 -1 -4 -1q-1 -1 -3.5 -1.5t-3.5 -1.5l-8 -2q-18 -4 -26 2l-2 2q-6 -1 -10 -1q-14 0 -20 9q-4 6 -7 43q-2 33 -4 90q-4 103 -7 263q-6 372 0 397q2 9 10 7q3 -1 5 -2h1
q13 2 20 3q12 1 21 1t9 -9q0 -5 -4 -7q0 -2 -1 -3q-7 -23 -9 -138t1 -249q4 -147 14 -244q6 -54 12 -86q2 -6 3 -12q3 3 6 3z" />
    <glyph glyph-name="M" unicode="M" horiz-adv-x="637" 
d="M377 502q-14 49 -22 73q-17 59 -31 104q-21 68 -35 82l-2 2q-1 -1 -3 -4q3 -10 6 -23q1 -1 1.5 -4.5t0.5 -5.5l1 -2q11 -44 53 -149q17 -44 31 -73zM577 783q-11 -89 -5 -243q1 -20 2 -56q3 -60 4 -88q0 -7 1 -15q0 35 1 107q3 149 2 221v11q0 21 -1 35q-1 17 -4 28z
M271 18q-7 55 -14 184q0 6 -1 12q2 -63 5 -108q4 -66 10 -88zM404 414q-2 2 -3 5t-2 7v1v3q-2 5 -3 10q-11 8 -28 41q-16 31 -37 84q7 -21 14 -39q21 -55 36 -85q9 -17 16 -25l5 -5q1 1 2 3zM638 -6q0 114 -9 249q-7 125 -29 354q0 -39 -2 -109q-1 -80 -1 -120
q-1 -79 1 -141q4 -25 13 -73q21 -109 27 -160zM557 772q-6 -9 -13 -23q-1 -2 -2 -5q-13 -30 -45 -122q-3 -7 -5 -13q-8 -25 -15 -44q36 72 51 109q22 53 29 98zM257 727q-1 4 -1 5q-3 7 -4 12q-1 -16 -1 -38v-32q3 31 6 53zM238 785l-1 -1q0 -7 -1 -17q2 8 3 15q-1 2 -1 3z
M250 8q3 1 5 1q-7 22 -12 96q-4 73 -7 192q-4 221 -1 323v14v6t-0.5 7.5t-0.5 6.5v4q-1 26 -1 44q-1 -13 -1 -28q-5 -126 -6 -260q-2 -164 3 -266q3 -60 8 -94q5 -35 10 -41q2 -2 3 -5zM621 -15q-5 41 -14 93q5 -48 12 -93h2zM234 0q-17 18 -23 147q-5 103 -3 267
q1 134 6 261q2 53 4 86q1 16 2 25q1 12 4 15q13 11 24 -1h1q1 1 3 2q7 4 14 -1q3 -2 6 -7q3 -6 6 -15q12 7 24 -5q17 -18 39 -90q14 -44 32 -103q7 -25 23 -79q8 -28 13 -43q2 2 4 5q8 12 19 36q8 18 17 42q19 58 19 60q27 82 46 126q7 17 14 29q9 23 17 36q11 20 22 20
q11 1 19 -8q4 -2 7 -7q4 -6 7 -18q5 -17 8 -48q1 -16 2 -37q0 -3 0.5 -13.5t0.5 -12.5v-2q2 -13 5 -47q24 -248 31 -376q9 -135 9 -249q3 -2 4 -6q3 -9 -6 -11q-16 -5 -42 -15q-9 -4 -12 4q-2 6 2 10q-18 109 -22 248l-8 48q-10 68 -12 123q-1 28 -4 87q-1 37 -2 56
q-4 88 -2 146q-3 -9 -7 -18q-15 -38 -52 -110q-2 -5 -3 -7q-36 -71 -52 -111q-2 -8 -4 -11q-3 -8 -7 -12q-2 -3 -4 -4q-4 -8 -7 -12q-6 -8 -13 -8q-16 0 -38 41q-16 30 -37 87q-10 27 -22 61q-16 44 -35 106q-6 -62 -6 -166q0 -142 10 -318q9 -159 16 -196q1 -9 -8 -11h-3
q-2 -2 -5 -2q-8 0 -13 -1q-3 -1 -15 -6q-8 -4 -12 4q-2 5 0 8q0 1 -1 1z" />
    <glyph glyph-name="N" unicode="N" horiz-adv-x="443" 
d="M139 265q1 18 3 55q5 85 5 122q-1 55 15 198q9 76 18 118q5 26 11 39q0 1 1 3q-2 2 -4 2q-4 0 -8 -9q-6 -11 -9 -31q-3 -12 -4 -27q-1 -2 -1.5 -6.5t-0.5 -7.5v-4q-24 -185 -26 -356q-1 -50 0 -96zM176 28q-1 -2 -4 -3q-2 -1 -3 -1q1 -3 2 -7h1h1h1h1l1 -1h1q0 6 -1 12z
M176 42q-18 316 18 578q4 27 21 92v4v3q-1 1 -4 19l-4 24q-2 8 -4 15q-3 -9 -6 -22q-9 -42 -17 -117q-16 -142 -15 -196q0 -37 -5 -123q-2 -42 -3 -65q-3 -69 0 -116q5 -55 19 -96zM231 769q-7 16 -14 23q4 -11 7 -26q1 -4 2 -10q2 7 4 12q0 1 1 1zM250 770q2 -5 4 -11
q-1 4 -1.5 7.5t-1.5 6.5q0 -1 -1 -3zM241 742q-4 -12 -7 -27q6 -27 19 -82q3 -14 4 -20q14 -58 23 -101q-4 43 -9 77q-13 92 -27 143q-2 5 -3 10zM155 7q-38 125 -34 354q2 172 26 358q0 1 0.5 4t0.5 7.5t1 6.5q2 16 4 29q4 22 11 35q10 21 26 19q8 -1 14 -7q4 3 9 2
q15 -4 27 -24q1 2 2 3q4 5 9 5q6 0 10 -4q2 -3 4 -7q3 -6 5 -18q4 -17 7 -49l4 -69q12 -103 37 -225q18 -88 51 -223q12 -49 25 -87q13 -32 27 -61l1 -1q4 -6 8 -9l2 -2v3v44q-1 11 -2 47.5t-2 67.5l-1 31q-1 48 -2 88q-3 28 -7 70q-1 13 -2 22q-15 165 -17 241
q-3 111 13 144q-3 2 -3 6q0 9 9 9q3 0 7 1q5 1 9 2q6 5 12 1q1 -1 2 -3q3 0 6 -1q7 -2 7 -9q4 -4 1 -10q-14 -32 -19 -142q-2 -42 -3 -95q3 -49 10 -133q0 -5 1 -16q14 -184 16 -252q1 -56 -3 -87q-3 -35 -15 -44q0 -3 -2 -5q-5 -8 -14 -7q-5 1 -10 5q-2 1 -3 3q-7 7 -15 21
q-3 5 -7 12q-13 24 -22 48q-43 117 -68 222q-26 95 -68 281q-2 7 -5 20q-7 30 -11 47q-10 -45 -12 -59q-38 -275 -16 -610q0 -6 -6 -9q-3 -2 -6.5 -1t-6.5 1h-2h-1l-1 1h-1h-1h-1h-1h-1l-1 1h-1h-1h-2q-3 1 -6 3q-2 2 -2 4z" />
    <glyph glyph-name="O" unicode="O" horiz-adv-x="550" 
d="M284 29q-21 26 -39 64q-23 53 -37 123q5 -52 17 -92q21 -65 59 -95zM418 752q-50 0 -90 -28q-19 -24 -36 -57q-54 -104 -77 -253q2 -114 31 -211q39 -126 107 -163q25 -15 49.5 -1.5t46.5 53.5q44 79 60 219q16 144 -9 266q-24 120 -82 175zM202 509q13 119 57 193
q45 78 116 89q3 5 8 5h3q2 6 9 6q92 0 140 -130q23 -62 32 -145q8 -61 7 -127q-3 -158 -49 -276q-52 -132 -137 -145q-28 -4 -54 8q-90 15 -126 132q-32 102 -16 253q-1 72 10 137zM400 769q0 1 -1 2q-9 -1 -19 -5q10 2 20 3zM282 706q16 18 34 31q9 11 19 20
q-30 -17 -53 -51zM438 758q56 -60 80 -177q25 -125 9 -272q-17 -143 -63 -226q-24 -44 -53 -60q-33 -18 -67 1q-69 38 -109 157q11 -45 27 -80q33 -75 77 -96q10 -2 20 -2q84 0 138 120q50 110 56 271q3 68 -4 131q-10 80 -34 138q-30 74 -77 100v-3v-2z" />
    <glyph glyph-name="P" unicode="P" horiz-adv-x="418" 
d="M207 705q3 29 7 57q-3 -2 -5 -12q-3 -15 -2 -45zM200 58q-2 27 -2 66q0 49 1 171q1 48 1 78q2 152 -2 234q-1 5 -2 18v5q-1 6 -1.5 12t-1.5 9q-4 -102 -4 -259q0 -298 8 -384h4h3q-7 43 -6 45v2q1 1 1 2zM216 781q1 -1 3 -1q0 1 1 2q-2 -1 -4 -1zM222 18q1 -2 0 -4v-2
t-1 -1v-1.5t1 -1.5q1 1 2 1v1q0 4 1 11v34v3v4.5v5v4.5v1q1 23 1 28q1 30 2 65q1 29 0 89v3q0 31 -1 63h-1q-9 2 -6 11q1 5 6 7q0 2 -1 5q-3 3 -2 8q0 2 2 3q-2 27 -6 70q0 -24 -1 -52q0 -28 -1 -78q-1 -122 -1 -170q1 -57 3 -90q2 -10 2 -13q1 -3 1 -4zM403 410
q-32 -47 -87 -74q-4 -2 -11 -5q-9 -6 -12 -7q-9 -5 -16 -9q-19 -8 -32 -9q1 -23 1 -48v-3q1 -60 0 -89q-1 -36 -2 -66q0 -5 -1 -27v-1v-18v-34q-1 -7 -1 -11v-4q-1 -2 -1 -3q-1 -3 -4 -4q-1 -1 -2 -1q-2 -5 -7 -6q-8 -1 -22 -1h-5h-8q-1 -1 -2 -1q-1 -1 -2 -1q-2 0 -5 2
q-5 2 -5 8q-1 2 0 4v5q-1 0 -1.5 1t-1 1.5t-0.5 1.5t-1 2q0 2 1 5l-1 1v1v5v1v1q0 1 0.5 2l1.5 3v1q-6 119 -6 359q0 153 4 254q4 105 11 133q-1 6 4 9q2 3 6 3q69 35 136 -11q62 -44 92 -132q28 -83 11 -160q-4 -39 -21 -64q-5 -7 -11 -14zM237 782q0 3 3 5q-6 -1 -12 -3
q3 -1 5 -3q2 0 4 1zM389 422q17 26 25 57q2 6 3 12q3 26 -1 55q1 -54 -16 -99q-5 -13 -11 -25zM247 340h-3v-1q1 1 3 1zM349 396q22 24 34 57q26 69 9 153q-17 81 -62 127t-97 29q-10 -56 -10 -124q0 -56 7 -141q2 -18 5 -50q5 -57 7 -89q28 1 71 22l4 2q1 0 12.5 5.5
t14.5 6.5t5 2z" />
    <glyph glyph-name="Q" unicode="Q" horiz-adv-x="511" 
d="M353 764q-23 1 -44 -8q-10 -10 -20 -23q-31 -38 -58 -95q5 8 9 16q52 80 113 110zM202 618q19 44 41 80q-3 -3 -5 -7q-20 -31 -36 -73zM301 23q-7 0 -14 1q-101 14 -136 134q-12 40 -15 89q0 -26 2 -51q9 -140 82 -169q56 -23 102 -7q-11 1 -21 3zM159 208q3 -24 10 -45
q16 -57 50 -88q-28 33 -46 86q-8 22 -14 47zM489 576q17 -125 2 -256q-8 -66 -23 -121q29 88 35 192q3 58 -2 112q-4 38 -12 73zM388 777l14 2q9 1 10 -8q1 -3 -1 -6q21 -13 37 -45q2 -2 4 -5l10 -16q1 51 -39 80q-34 24 -71 8q4 -1 7 -2q4 2 8 1q11 -4 21 -9zM414 209
q5 -23 18 -52l2 -4q3 10 7 20q-8 13 -17 25q-2 4 -10 11zM504 24q-2 3 -3 8q-2 3 -3 8q-1 2 -2 5.5l-2 7t-2.5 7t-1.5 5.5l-1 2q-12 36 -26 65q-4 -7 -9 -14q-1 -2 -2 -3l10 -18q3 -6 10.5 -18.5t13.5 -24t7 -11.5q5 -10 9 -17v0zM529 10q5 -2 6 -6q2 -9 -7 -11
q-10 -2 -13 -2q-4 0 -9 -1h-2h-2h-6t-6 2q-1 -1 -3 -1q-2 -1 -3 -1q-7 0 -8 7q-9 30 -38 96q-27 -41 -60 -59q-69 -62 -165 -24q-83 33 -93 185q-8 112 26 253q16 159 77 253q34 52 76 71q9 8 18 15q2 5 7 5q14 9 27 14q44 16 83 -13q49 -36 46 -102q-1 -8 -9 -8
q8 -14 14 -29q26 -64 34 -150q8 -71 3 -144q-9 -120 -49 -207q18 -36 33 -80l2 -5q1 -6 3.5 -12.5t3.5 -10.5t3 -7q3 -11 6 -15q0 -1 1 -1q8 -4 4 -12zM512 8q-2 2 -3 4q1 -2 1 -4h1h1zM435 226q-1 -5 -5 -7q6 -6 9 -10q5 -7 9 -13q17 57 25 126q13 115 1.5 221.5
t-41.5 165.5q-23 31 -52 47q-68 -21 -125 -112q-65 -101 -90 -240q-4 -18 -6 -36q-1 -116 29 -201q39 -109 114 -126q44 -2 81 24q5 6 10 13q15 21 29 50q-34 73 -51 90q-3 2 -3 6t3 6.5t6 2.5t5 -1q14 3 29 4q5 7 12 2q2 -1 3 -2q8 -1 8 -9v-1z" />
    <glyph glyph-name="R" unicode="R" horiz-adv-x="543" 
d="M250 327q6 -163 18 -244q-1 26 -2 59v180v2l-12 2q-2 0 -4 1zM267 18q-2 1 -3 3q-2 5 -3 10q1 -8 3 -13h3zM478 522q17 58 5 116q-15 80 -74 118q-34 22 -78 24q23 -9 45 -26q39 -15 64 -52q32 -48 33 -119q6 -31 5 -61zM388 345q-4 5 -9 10q-1 0 -2 -1q6 -13 13 -28
q-2 11 -2 19zM411 311q11 -50 39 -126q4 -10 8 -21q19 -45 26 -63q26 -58 42 -81q3 -5 0 -10q1 -2 1 -3q2 1 3 1l1 1q3 1 4 1q1 1 7 3q-4 5 -8 12q-1 3 -3 7q0 1 -1 2q0 1 -1 2v1q-4 11 -10 24q-3 8 -20 53t-21 55q-24 62 -45 103q-11 21 -22 39zM254 764q-12 -95 -5 -373
v-36q3 1 5 1q9 0 9 -8h1.5t1.5 -1q1 89 0 143q-1 172 -11 277h-1v-3zM291 26v-1v-1v-6l1 -1q0 -5 -4 -7q1 -3 1 -6q-2 -9 -11 -7q-3 1 -7 1l-1 1h-1h-1h-1l-1 1h-1h-1h-1h-1l-1 1h-1h-1h-1q-4 1 -6 5q-2 1 -3 3q-11 21 -19 139q-6 100 -10 250q-9 336 0 390q2 9 11 7.5
t7 -10.5v-2q1 1 3 1q105 34 178 -13q65 -42 82 -129q17 -85 -21 -164q-7 -17 -17 -32q-21 -52 -68 -82l3 -3q8 -2 8 -10q22 -30 43 -71q22 -42 46 -105q4 -9 21 -54.5t20 -53.5q5 -13 10 -24q3 -6 4 -10q3 -5 5 -8q1 -1 2 -1q8 0 9 -8q2 -8 -7 -10h-2q0 -6 -6 -8
q-8 -4 -9 -4q-1 -1 -3 -1.5t-2 -1.5q-3 -1 -11.5 -4.5t-12.5 5.5q-1 2 0 4q-15 25 -17 29v2v2q-11 22 -25 57q-1 3 -3 7q-13 31 -27 65l-10 25t-9 23t-5 11q-18 43 -32 75q-13 30 -24 54q-36 -22 -77 -22v-2v0v-179q2 -74 6 -113v-2.5v-1.5h1zM293 762q15 2 28 2
q-23 8 -48 6q10 -106 11 -280q1 -54 0 -140q7 2 16 4q7 3 15.5 6t17.5 7q2 0 4.5 1.5t4.5 2.5l3 1q28 11 52 30q46 57 56 141q2 19 2 38q-3 14 -7 27q-24 84 -81 130q-32 12 -72 6q-9 -1 -10 8t8 10z" />
    <glyph glyph-name="S" unicode="S" horiz-adv-x="475" 
d="M285 479q-11 16 -19 31q-34 60 -39 107q-9 76 14 113q21 36 64 30q31 -4 63.5 -30.5t55.5 -66.5q-14 55 -47 86q-34 31 -78 28q-20 -1 -38 -10q-9 -8 -17 -18q-29 -39 -29 -109q0 -48 21 -96q18 -29 49 -65zM201 77q-2 1 -4 3q9 -14 23 -25q-6 5 -10 10q-5 6 -9 12z
M182 162q-4 -3 -5 -7q-1 -5 0 -11q2 -2 3 -4q0 11 2 22zM435 272q6 -13 10 -26q5 -13 9 -26q18 -53 12 -108q-5 -42 -29 -70q32 21 40 61q14 72 -32 152q-5 9 -10 17zM422 626q-19 47 -53 79.5t-67 37.5q-30 4 -46 -22q-19 -32 -11 -102q5 -43 37 -101q13 -23 33 -53
q7 -11 18 -27q4 -5 9 -14q8 -10 10 -13q11 -17 19 -29q22 -24 38 -44q32 -40 52 -74q49 -86 34 -165q-12 -60 -71 -84q-22 -9 -49 -11q-32 -9 -69 -5q-58 7 -98 42q-42 36 -45 88q-9 20 -2 35t28 21q6 1 9 -4q6 -4 4 -10q-12 -46 13 -83q16 -15 34 -27q54 -36 100 -36
q53 1 78 53q30 63 10 136q-8 23 -20 46q-16 30 -42 64q-16 21 -50 61l-3 4q-31 36 -46 56q-24 32 -40 59q-9 16 -16 31q-5 9 -10 17q-26 47 -28 90q-4 66 31 109q16 20 38 31q26 19 57 20q46 1 84 -36q36 -35 51 -92q8 -1 8 -9q0 -18 -10 -37q-1 -3 -4 -5l-4 -2q-8 -4 -11 5
z" />
    <glyph glyph-name="T" unicode="T" horiz-adv-x="532" 
d="M309 29q3 -2 2 -6v-2q0 -2 -1 -3h1h3v4q0 57 -4 132q-3 44 -9 138q-1 19 -2 32q4 -217 9 -293q1 -1 1 -2zM335 26h-3h-1q1 -2 1 -4t-1 -4q3 1 5 1q0 4 -1 7zM327 780h22q-3 0 -7 1h-20q2 0 5 -1zM526 778l-1 1q-3 4 -6 5q-37 -4 -86 -5h-45q14 0 39 -1q11 0 18 -1
q29 1 75 1h6zM99 763q21 7 46 11q-26 -4 -48 -10q1 -1 2 -1zM323 673q-6 -75 -4 -170q2 -66 9 -173v1l3 45q6 130 6 193q-1 104 -17 180q-1 4 2 8h-4q-5 -36 -8 -75q2 1 5 1q9 -1 8 -10zM82 779q50 15 117 19q45 3 123 1h20q61 -2 91 -2q35 0 63 3l4 2q12 3 22 0q2 0 3 -1
q8 -3 14 -10q4 -6 7 -13h1q9 0 9 -9q0 -5 -5 -8q1 -2 1 -5q2 -9 -7 -10.5t-11 7.5v3q-2 0 -9 1q-4 0 -5 1q-28 0 -75 1q-64 0 -110 -2q2 -2 2 -4q17 -78 18 -184q0 -63 -6 -194l-3 -45q-5 -100 -4 -164q2 -88 14 -157q2 -9 -7 -10q-5 -1 -8 2q-5 0 -11.5 -0.5t-18.5 -0.5
q-4 -1 -7 -1t-6 3q-4 2 -5 6q-5 21 -4 25v2t1 2q-7 102 -10 354q-5 288 3 364q-56 -2 -100 -6q-18 -4 -35 -9q-3 -1 -6 0q-2 -2 -4 -2h-12h-16q-6 1 -13 5v-1q-9 -3 -12 6q-1 1 -1 3l-1 1q-5 4 -3 10q-3 2 -4 5q-3 9 6 12z" />
    <glyph glyph-name="U" unicode="U" horiz-adv-x="495" 
d="M403 34q-19 -14 -41 -19h11q13 5 27 16q2 1 3 3zM233 755q-17 -91 -26 -159q-9 -64 -13 -121v-22q-1 -187 39 -322q11 -39 35 -71q8 -9 16 -17q7 -4 15 -7q-7 11 -13 24q-34 75 -49 235q-8 81 -11 177q-2 54 -2 108v3v3q0 37 5 104v8q3 38 4 57zM226 768q5 -1 7 -6v8
q-2 0 -3 -1q-2 0 -4 -1zM485 788q0 -1 -1 -1q-3 -1 -7 -4q6 -1 7 -7q11 -68 11 -171q0 -33 -2 -95q-1 -18 -1 -25q4 -49 4 -98q1 -91 -9 -162q-5 -63 -18 -108q-10 -35 -25 -61q5 6 9 13q34 54 43 162q5 59 3 155v7v6q0 8 -1 12v26v13q0 27 2 80q1 41 1 62q1 103 -11 171
q0 3 -1 6q0 1 -0.5 4t-0.5 4q-1 7 -2 10zM459 792q22 18 34 12q6 -3 10 -11q1 -4 3 -13q0 -1 0.5 -4t0.5 -4q1 -2 1 -4v0v-2t1 -2v-3q11 -67 10 -169q0 -21 -1 -62q-2 -54 -2 -80v-13v-25q1 -5 1 -12v-4v-6v-4q2 -96 -3 -157q-10 -112 -46 -170q-34 -55 -91 -61
q-19 -6 -36 0q-7 1 -15 2q-28 6 -53 29q-33 20 -50 59q-57 131 -50 335q1 26 3 53q2 143 27 305q1 6 7 8q2 4 8 4q7 0 13 -2l5 -2q2 -1 4 -1h3q9 0 8 -9q0 -28 -4 -83v-7q-5 -67 -5 -103v-3v-3q0 -54 2 -107q3 -96 11 -176q15 -158 48 -230q10 -23 22 -37q58 -5 94 46
q34 47 48 139l2 12q1 14 2 29q3 50 3 139q-1 46 0 62v28q-1 19 -3 37q-3 30 -2 96q1 17 1 26q1 90 -14 135q-2 3 0 6q0 4 3 7z" />
    <glyph glyph-name="V" unicode="V" horiz-adv-x="463" 
d="M421 514q-4 -22 -10 -58q-1 -8 -2 -12q-21 -119 -29 -184q-5 -35 -8 -67q28 176 49 321zM344 35q-1 4 -2 11q0 1 -1.5 8.5t-2.5 8.5q-2 13 -4 24q-9 41 -32 118q-4 14 -15 49t-21 68l-10 34q-13 42 -23 75q-9 34 -17 63q6 -35 13 -69q41 -196 94 -338q1 0 1.5 -2.5
t2 -5.5t1.5 -5q5 -12 9 -22q1 -3 2 -5q3 -8 5 -14v2zM175 792l-4 -2q-1 -1 -4 -2l3 -16.5t1 -11.5q1 18 4 32zM195 797q-14 -51 5 -154q14 -80 51 -207q9 -33 22 -75l11 -33q10 -33 20.5 -68.5t14.5 -48.5q16 -55 25 -89v4q3 34 12 103q1 6 1 7q10 75 12 115q2 27 13 87
q5 29 22 117q2 8 3 13q15 80 22 123q3 21 5 41q1 13 5 40v3q1 13 0 20q-2 9 7 11q6 0 9 -4q4 -1 8 -1l3 -1h2q2 0 11 -1t7.5 -10t-10.5 -8q-4 1 -5 1q-11 -22 -11 -72q-1 -5 -1 -16q0 -34 -2 -49q-31 -233 -83 -549l-4.5 -42t-4.5 -23v-1q1 -9 1 -10t-1 -2q-1 -3 -4 -5
q-1 -1 -3 -1v-1q-3 -4 -6 -6q-2 -1 -3 -2q-5 -2 -10 1l-4 4q-2 3 -5 8q-5 8 -12 23q-1 3 -3 7q-5 11 -10 25l-4 8q0 1 -1 4l-1 1q-50 122 -72 260q-5 33 -16 77q-6 23 -21 81q-11 39 -16 61q-34 135 -26 215q0 3 2 5q-1 1 -1 2v2q-1 1 -1 2q-2 4 0 8q2 5 7 6h2t3 1l1 1
q2 5 8 6q2 1 5 1q0 1 2.5 1.5t3.5 0.5l8 2h1q8 0 9 -8v-1q0 -5 -3 -7v-3z" />
    <glyph glyph-name="W" unicode="W" horiz-adv-x="592" 
d="M229 533q-11 111 -18 216q-3 -81 14 -191q2 -12 4 -25zM562 47q-1 -2 -2 -3l-1 -1q1 0 1 -1q1 2 2 5zM564 154q0 -42 1 -83v-1q1 21 0 62q-1 12 -1 22zM369 431q7 23 15 40l4 10l-1 2q-1 0 -3 -2q-3 -4 -6 -12q-5 -14 -9 -38zM583 636q2 9 3 19q2 13 2 31q-3 -25 -5 -50z
M503 143q-6 16 -11 31q-4 15 -12 63q-1 2 -4 22t-6.5 42t-5.5 31q-12 74 -22 112q-7 23 -13 36q-3 6 -6 8l-2 2h-1v-1q-3 -2 -6 -7l-4 -6v-1q2 -5 4 -12q1 -6 1 -7q5 -16 22 -86q17 -71 29 -116q20 -73 39 -120q-1 4 -2 9zM216 806q2 -2 9 -8.5t8 -7.5q8 -8 6 -24
q-1 -6 -6 -8q2 -75 42 -371q17 -123 32 -220q3 -22 6 -43q2 -10 4 -18q-1 10 -2 27q-1 36 -1 44q5 52 27 149q3 58 8 95q5 35 12 54q9 26 25 26q7 1 12 -3q1 2 3 4q12 15 24 12q16 -4 31 -49q15 -50 40 -186q1 -1 4 -19t6.5 -37t4.5 -27q6 -28 10 -47q4 -12 12 -31l1 -2
l5 -10q0 9 1 17q6 79 7 129q4 291 35 543q-4 2 -5 6q-1 8 7 10q1 9 10 8q2 0 3 -1q4 1 7 -1q1 -1 3 -2q9 -1 9 -9q0 -7 -7 -9q0 -69 -4 -155q-3 -51 -10 -154q-13 -186 -14 -278q-1 -13 1 -55q1 -14 1 -23q2 -53 -1 -77q-2 -17 -7 -25q-10 -14 -25 -3q-28 22 -57 88
q-21 52 -44 134q-13 45 -30 117q-16 69 -20 81q-13 -41 -26 -111q-10 -54 -19 -117q0 -3 -0.5 -7.5t-0.5 -7v-3.5q-3 -80 -6 -114q-4 -53 -14 -63q-6 -5 -13 -2l-2 2q-3 -1 -7 0q-4 2 -6 7q-1 3 -3 10l-1 8q-7 48 -13 74q-24 107 -32 174l-6 46q-3 14 -5 25q-26 111 -38 187
q-22 145 -11 245q1 9 10 8h1q6 1 9 -2z" />
    <glyph glyph-name="X" unicode="X" horiz-adv-x="503" 
d="M449 142q0 3 -1 5t-1 4q-1 1 -1 2t-1 2q-16 53 -26 78q-13 34 -43 98q-2 5 -12 27l3 -9q7 -18 11 -31q30 -84 54 -137q8 -20 17 -39zM169 38q0 11 2 22q-5 -13 -8 -23zM190 69q32 55 62 129q22 53 59 160v2q11 30 17 47q-4 -7 -8 -15q-63 -123 -94 -203q-29 -73 -36 -120
zM272 612q19 -47 46 -109l8 -18q3 5 5 10q-1 1 -1 2q-26 53 -58 115zM494 765l-3 3q-42 -56 -140 -273q0 -1 1 -2q23 44 31 60q7 14 13 27t20 35q3 5 5 9q44 86 61 129q4 8 11 6q0 1 1 3v3zM358 438q-3 -6 -5 -13q6 -13 15.5 -33.5t16 -34.5t8.5 -18q19 -41 30 -67l-2 6
q-26 76 -63 160zM185 774q0 -2 1 -4q0 -2 1 -3q15 -43 47 -107q-11 31 -18 55q0 1 -0.5 2.5t-1.5 1.5q-3 7 -6 11q-6 13 -11 22q-7 12 -12 22zM170 759q-6 19 -2 29q5 13 19 11q17 -2 36 -22q6 -5 1 -12q3 -18 9 -43q2 -3 3 -5q71 -132 105 -201q108 237 146 275q2 3 6 3
l2 2q7 5 12 -3q7 -9 9 -18q0 -2 1 -5q1 -6 2 -9v-2q0 -7 -7 -9h-1q-5 -29 -38 -80q-6 -11 -15 -24l-4 -6q-3 -5 -7 -11t-8.5 -13t-6.5 -10q-10 -19 -32 -61q-16 -36 -32 -80q-1 -2 -2 -3q44 -94 72 -178q13 -40 36 -116q0 -2 1 -5q24 -79 37 -118v-1v-1q1 -1 1 -2l2 -4
q2 1 5 0q9 -2 6 -11q-2 -7 -5 -10q-7 -5 -14 0q-1 0 -1 1q-6 -1 -9 4q-6 11 -11 22q-2 1 -3 3q-35 53 -68 127q-23 54 -54 139q-4 13 -11 31l-2 7l-4.5 13.5l-3.5 10.5t-3 6q-3 -11 -9 -26v-1q-37 -109 -59 -162q-36 -88 -76 -152q-2 -3 -6 -4v-1q0 -4 -2 -6q-2 -6 -8 -7
l-17 -2q-6 -1 -9 4h-1q-8 2 -6 11q20 85 155 391q6 14 12 27q-10 28 -20 52q-16 37 -53 110q-2 3 -3 4q-23 46 -35 71q-17 36 -28 66q-2 2 -2 4z" />
    <glyph glyph-name="Y" unicode="Y" horiz-adv-x="508" 
d="M310 392q-32 104 -56 176q-22 64 -42 120q9 -30 28 -92q25 -84 39 -125q16 -44 31 -79zM474 792q-32 -61 -53 -139q-14 -54 -32 -162q-4 -21 -5 -30q2 7 4 13q12 46 26 94q8 28 16 54q7 27 14 52q17 65 30 118zM503 823q-1 0 -2 1h-1q-1 -4 -2 -7q2 2 3 4zM362 87v-27
q1 -4 1 -7q2 -15 3 -24q1 -2 1 -5q1 -1 1 -2h3l1 -1q-6 37 -10 66zM467 820q16 21 26 22q3 1 7 0h2t1 -0.5t1 -0.5h1q8 -1 16.5 0t10 -8t-7.5 -10q-5 -1 -9 -1q5 -5 1 -11q-19 -27 -69 -194q-9 -33 -24 -85q-2 -6 -4 -14l-1 -2v-1v-1v-1h-1v-2q-2 -5 -2 -7q-5 -17 -8 -28
q-1 -4 -2 -6q-11 -40 -19 -74q-5 -19 -7 -28q-1 -6 -3 -12q-10 -43 -12 -60v-1q0 -1 -0.5 -2t-0.5 -2q6 -3 5 -10q-1 -6 -3 -20q0 -88 23 -229q5 1 8 -2q7 -6 1 -13q-3 -2 -5 -5l-3 -4q-4 -5 -9 -6q-3 -1 -10 1l-1 1h-1h-2q-4 1 -7 2q-2 1 -3 2q-7 0 -9 7q-2 11 -1 14
q-1 12 -2 30q-3 34 -5 51q-1 15 -4 47q-2 17 -3 26q-4 43 -3 72q1 16 4 30q-1 1 -1 2q-2 3 -4 7q-2 6 -5 12q0 2 -1 3v1v1q-1 0 -1 1q-116 232 -147 430q-7 19 -15 37q-3 8 5 12q2 1 4 0q2 6 8 6q3 1 5 -1q8 2 11 -5q38 -97 79 -218q27 -81 70 -219q0 -1 1 -2q1 -4 1 -5
q2 -6 3 -10l2 -4q3 16 7 46q1 5 2.5 20t3 27t1.5 14q3 16 9 54q18 109 33 163q23 89 61 156q0 4 2 7z" />
    <glyph glyph-name="Z" unicode="Z" horiz-adv-x="433" 
d="M144 -1q-3 -1 -5 -1q-1 -1 -1 -2zM283 38h-6q-3 0 -7 -2q6 1 13 2zM331 50q0 -1 1 -1q8 -1 11 -1q13 -2 22 -3q8 1 10 1q5 0 9 1q-15 0 -41 2q-7 0 -12 1zM180 752q28 8 60 7q13 0 45 -4q12 -2 21 -3q76 -7 82 -76q1 -11 1 -23q2 5 4 9q9 26 9 45q-1 27 -20 41q-2 2 -4 3
q-17 6 -44 7q-17 0 -46 1q-27 2 -40 2q-44 1 -79 -3q4 -4 11 -6zM168 28q32 26 51 88q13 41 28 127q0 3 1 8q0 3 1 8q3 19 6 32l-18 -54q-16 -48 -32 -86l-9 -18q-8 -25 -18 -50l-23 -49q0 -1 -1 -2q-3 -8 -6 -14q4 1 9 2l8 2q1 4 3 6zM438 69q-1 3 -1 6q-2 9 7 10.5
t11 -7.5q3 -18 -1 -29q0 -3 -1 -5q-3 -4 -8 -6q-9 -7 -29 -8q-3 -2 -8 -3q-7 -2 -18 -2q-10 0 -25 2q-7 -1 -19.5 -2t-22 -2t-13.5 -1q-101 -9 -124 -19q-2 -1 -8 -5l-6 -4q-4 -2 -6 -4q-5 -3 -9 -5q-24 -13 -36 -8q-4 1 -6 6v3q0 1 0.5 2.5l1.5 4.5q2 4 5 12l5 10
q-1 22 22 68q4 9 10 20q4 7 9 17q1 0 2.5 3.5t3.5 7t3 4.5q1 3 3 5q11 34 30 101q1 2 1 4q21 72 33 107q20 59 41 105q6 13 14 28q5 11 9 22q7 16 21 40q5 9 12 21q3 5 6 11l4 6q2 3 3 5q4 7 7 12q12 44 9 73q-5 53 -66 59q-8 1 -21 3q-31 4 -44 4q-25 1 -47 -5
q-3 -5 -10 -4q-1 0 -3 1q-4 -1 -7 2q-27 11 -26 34q0 13 12 19q9 5 22 1q27 5 62 3q13 0 41 -3q18 -1 28 -2q49 -3 76 -20q38 -14 38 -53q0 -23 -14 -56q-1 -1 -1 -2q-3 -8 -7 -17q-11 -27 -31 -64q-6 -16 -13 -34q-8 -23 -21 -53q-2 -3 -13.5 -30t-14.5 -33
q-14 -32 -19 -49q-10 -37 -24 -120l-1 -4v-4l-2 -8q-14 -87 -27 -129q-11 -33 -24 -56q20 8 42 11q20 3 44 3q14 0 45 -2q51 -4 78 -1h6h1q5 0 7 1z" />
    <glyph glyph-name="bracketleft" unicode="[" horiz-adv-x="261" 
d="M106 322q-1 -30 -2 -62q-2 -37 -2 -73q4 115 4 135zM108 665v1v-1zM158 -174q-8 -3 -14 -6q-15 -6 -26 -8q-16 -3 -26 3q-17 9 -23 52q-4 31 -3 82q1 27 3 65q1 5 2 19.5t1 15.5q1 16 1 22q0 24 -1 73v128q2 100 12 178q1 8 2 79v5v6v4q1 9 1 15q0 40 1 62q-1 15 -2 28
q-2 49 7 59q2 2 6 3h2q2 0 6 1q7 1 20 2q5 1 18.5 2t27 2.5t14.5 1.5q6 1 12 1q65 7 73.5 9.5t11.5 -6.5q1 -7 -5 -10q3 -8 -5 -12q-7 -3 -17 -5q-2 -5 -7 -6q-8 -2 -39 -2h-2.5h-3.5q-1 -1 -3 -1q-4 0 -4 -1q-5 0 -8 -1q-33 -4 -51 -8q-6 -2 -11 -3q-1 -4 -2 -9
q-1 -10 -3 -29q-4 -36 -8 -98q0 -7 -1 -14q1 -3 1 -7q1 -6 4 -35.5t4 -33.5q3 -34 3 -44q1 -12 -2 -83q0 -12 -1.5 -48t-2.5 -70.5t-1 -37.5q-1 -23 -2 -43q-4 -126 -5 -193q-1 -42 -1 -64q0 -10 1 -16q4 -2 10 -3q4 1 8 3l8 2q19 8 21 8q14 4 43 7h1q36 5 51 11q9 3 12 -6
q1 -1 0 -3q6 1 9 -4q5 -8 -3 -13q-2 -1 -5 -2q0 -1 -1 -1q-4 -2 -9 -4q-34 -12 -77 -17q-12 -1 -22 -2zM115 689q2 4 6 6q-7 0 -12 -1h-3v-1q-1 -3 -1 -9q4 3 10 5z" />
    <glyph glyph-name="backslash" unicode="\" horiz-adv-x="290" 
d="M219 136q-29 77 -80 189q-11 25 -25 55q-3 6 -10 21q7 -17 17 -41l1 -4q39 -101 63 -151q17 -37 34 -69zM49 727q14 -51 39 -113q16 -40 48 -112q0 -1 1 -3l2 -4q19 -43 28 -65q14 -32 42 -100q41 -102 67 -176q35 -101 37 -132q1 -12 -4 -17q-4 -5 -11 -4q-4 0 -9 3
q-10 7 -27 30h-1q-7 0 -9 6.5t-4 13.5q-42 61 -80 144q-23 50 -63 152q0 2 -1 3q-35 91 -55 135q-32 73 -66 127q-20 32 -20 41q0 10 9 11q4 0 8 -3q2 -1 5 -3q-7 23 -9 42q-1 9 8 10t10 -8q2 -25 15 -59q5 -12 12 -26q13 -17 20 -29q32 -55 80 -158q2 -4 5 -9q0 -1 2 -6
l2 -4q6 -13 10 -21q66 -142 125 -332q19 -28 30 -38q-2 29 -36 125q-26 73 -67 175q-27 68 -41 100q-10 22 -28 65q-1 2 -2 3q0 1 -0.5 2t-1.5 2q-32 72 -48 112q-25 63 -40 116q-2 8 6.5 10.5t11.5 -6.5z" />
    <glyph glyph-name="bracketright" unicode="]" horiz-adv-x="218" 
d="M141 674q27 -3 44 -15q30 -21 35 -113q2 -37 1 -84q1 12 1 26q4 72 -2 128q-4 45 -38 55q-17 5 -41 3zM181 -100q-2 -25 -4 -43q-2 -16 -5 -27q5 0 10 1q0 3 1 7q2 11 5 32q3 37 7 99q2 42 4 86q-1 -14 -2 -27q-6 -89 -16 -128zM159 -139q-9 -10 -22 -16q-10 -6 -23 -9
q3 -1 9 -2q22 -3 30 -4q4 12 6 29v2zM47 681q13 1 40 5q6 1 10 1q29 5 46 5q26 1 44 -4q46 -13 51.5 -70.5t1.5 -130.5q-2 -44 -10 -132q-1 -10 -1 -15q-12 -129 -10 -198q1 -44 -6 -174q-4 -62 -7 -100q-3 -21 -5 -33q-1 -7 -3 -11q-2 -7 -8 -9q-10 -4 -25 -3q-3 -8 -8 -12
t-10 -4t-12 3v1h-1h-1q-27 14 -41 20q-37 4 -52 -6q-2 -1 -5 -1q-5 0 -8 4q-1 2 -1 5q0 5 4 7q6 4 14 7q-21 4 -44 4q-9 0 -9 9t9 9q39 0 74 -12q2 0 3 -1q2 1 5 2q5 1 8 1q25 6 39 13q18 9 28 27q3 5 6 15q1 19 1 43q1 27 1 75q-1 50 0 61q2 15 8 62q0 2 1 11t1 10
q2 13 3 23q3 27 6 50t5 45q2 137 -2 239q-2 51 -5 81q-2 15 -3 23l-1 5q-14 11 -71 5q-10 -1 -24 -3q-41 -5 -51 -5q-9 0 -9 9t9 9t49 5q14 2 24 3q22 2 38 2q-13 2 -30 1q-17 0 -44 -4q-1 -1 -4.5 -1.5t-6.5 -1.5h-3q-9 -1 -11 8q0 3 1 5q-5 2 -6 8q0 9 8 10z" />
    <glyph glyph-name="asciicircum" unicode="^" horiz-adv-x="376" 
d="M379 270q9 24 -13 125q-4 18 -9 39q-2 8 -8 30.5t-10.5 41.5t-5.5 22q-1 5 -3 13l-1 7q-1 6 -2.5 15.5t-3 20t-3 20.5t-2.5 15q-6 29 -12 49q3 -25 7 -77q0 -3 1.5 -24t1.5 -27q3 -30 5 -53q8 -92 21 -143q15 -58 37 -74zM113 319l-12 -22q-2 -5 -8 -5q-2 0 -4 1
q-5 2 -5 8q0 2 1 4q20 36 45 110q0 2 5 15q2 7 5 18q4 16 8 26q8 29 19 51v3q42 118 86 182q1 1 1 2q1 2 2 3q5 7 10 10q2 0 3 1q15 9 27 -4q25 -26 40 -100q1 -5 2.5 -15t3 -20.5t3 -20t2.5 -16.5l1 -6q1 -7 2 -12q1 -3 6 -22t10.5 -41t7.5 -31q5 -21 9 -39
q25 -113 11 -140q-2 -4 -6 -6q-6 -5 -13 -2q-32 16 -51 89q-13 52 -21 146q-2 22 -5 53q0 6 -1.5 27t-1.5 24q-5 61 -9 86q-2 17 -5 26l-3 6v0l-1 1q-1 0 -2 -1q-8 -8 -20 -34q-5 -12 -12 -28q4 1 7 -1q8 -4 4 -12q-10 -18 -32 -50q-2 -3 -2 -3.5t-1 -0.5q-9 -28 -12 -37
q-22 -63 -37 -97q-5 -11 -17 -35q-9 -15 -13 -24q-1 -4 -3 -10l-8 -20q-4 -15 -2 -29q1 -9 -7 -10q-4 -1 -7 2z" />
    <glyph glyph-name="underscore" unicode="_" horiz-adv-x="510" 
d="M455 -80q25 2 47 6q13 2 13 9q0 9 9 9t9 -9q0 -13 -10 -20q-6 -5 -18 -7l-14 -2q-2 -7 -8 -7h-1q-14 1 -28 3q-54 -4 -151 1q-15 1 -41 2q-35 2 -55 3h-7q-16 -1 -52 -7q-7 -1 -11 -2q-28 -4 -46 -5q-26 -1 -47 4l-4 2h-3q-4 -2 -8 -3q-1 -1 -3 -1q-6 0 -8 6q-1 1 -1 3
q0 6 5 8q7 3 14 5q60 18 209 14q66 -1 146 -7q27 -2 58 -5h6z" />
    <glyph glyph-name="grave" unicode="`" horiz-adv-x="178" 
d="M97 747q13 -19 44 -64q1 -1 1 -2q2 -2 19 -26.5t21 -29.5q8 -13 13 -19l3 -6q1 -1 1 -2q3 -5 3 -5.5t-3 -4.5q-8 -10 -20 -7q-9 1 -19 10q-14 10 -32 33q-16 17 -31 42q-13 19 -35 59q-1 2 -1 4q0 5 5 8q2 1 4 1q5 0 8 -5q26 -48 58 -90q3 -4 6 -7q12 -13 23 -22
q4 -3 4 -8q1 -1 2 -1q3 -3 5 -4q-4 5 -9 13q-4 5 -21 30t-19 27q0 1 -1 1q-31 46 -44 66q-5 7 2.5 12t12.5 -3z" />
    <glyph glyph-name="a" unicode="a" horiz-adv-x="394" 
d="M170 264q-3 -26 -4 -52q-8 -104 7 -180q-10 108 -2 231zM349 268q4 -29 7 -56v11q-1 27 -1 45h-6zM346 301q5 1 8 -3v5h-9q0 -1 1 -2zM206 307q24 4 58 8q26 2 60 5h2q-3 24 -6 50q-7 76 -17 187q-1 7 -2.5 25.5t-3 35t-1.5 18.5q-4 41 -6 63q0 6 -1 15q-2 14 -4 25
q-3 15 -5 24h-1l-3 -6q-6 -11 -8 -19q-15 -46 -27 -93q-17 -99 -26 -159q-5 -49 -7 -102q-2 -37 -2 -77zM206 288q10 2 22 4q20 3 56 5h6q25 1 38 2q0 2 -1 3h-2q-33 -3 -59 -5q-36 -4 -60 -8v-1zM377 -2q-7 1 -7 9q0 1 1 3q-2 3 -3 5l-3 6q-1 1 -1 1.5t-1 1.5v4t1 3
q-9 35 -8 40q0 3 2 5q-13 68 -27 192q-59 -3 -125 -20q1 -21 1 -43q3 -66 9 -178q2 -3 1 -6q-3 -20 -19 -24q-8 -3 -27 0h-3q-4 0 -7 1q-9 0 -8 9q0 6 6 8q-20 83 -11 199q4 60 20 163q1 6 3 21q2 13 6 36q6 39 8 57q14 85 27 142q16 72 38 130q3 8 5 14q2 5 4 9q3 6 6 10
q4 6 8 8q14 10 27 -2q11 -10 21 -38q30 -85 59 -354q12 -108 25 -256q1 -10 2.5 -31.5t3 -39t1.5 -19.5q2 -14 2 -23q1 -1 1 -2q1 -4 1 -6q2 -2 1 -5v-1q0 -1 -1 -2q0 -2 0.5 -2.5t0.5 -1.5q0 -5 -5 -8q1 -6 0 -9l-1 -2v-4q-1 -9 -10 -9l-4 2q-1 -3 -3 -4t-5 -1q-5 0 -8 5
q-2 3 -4 7zM354 286h1v1q-1 0 -1 -1zM253 276q-12 -1 -23 -2q-13 -2 -24 -4v-4q24 6 47 10zM350 321q1 0 2 1h2q-1 47 -3 91q-5 140 -20 227q-12 66 -29 106q0 -2 1 -4q2 -12 3 -26q2 -9 2 -15q2 -22 6 -63q0 -2 1.5 -18.5t3 -35t2.5 -26.5q10 -110 17 -186q3 -27 5 -51h7z
M393 18q0 4 5 7q-3 17 -3 20l1 1v1q-1 7 -2 16q0 1 -1.5 19t-3 39t-2.5 31q-7 86 -14 154h-1q1 -29 2 -83q1 -86 3 -123q1 -23 2 -40q1 -2 1 -3q3 -8 4 -11q0 -1 1 -1q3 -4 2 -8q0 -3 -2 -4q3 -10 5 -18h1h3v1q-1 1 -1 2zM199 24q-7 114 -10 180q0 21 -1 41q-6 -123 5 -231
q5 1 6 7v3z" />
    <glyph glyph-name="b" unicode="b" horiz-adv-x="429" 
d="M140 366h-1q6 -230 19 -334q-9 120 -17 334h-1zM140 385q-1 20 -1 39q-3 85 -4 152q0 -67 2 -142q0 -25 1 -50q1 1 2 1zM241 785q37 -9 61 -34q15 -16 25 -38q-4 30 -22 47q-22 21 -64 25zM179 4q-2 -3 -5 -5q-7 -7 -13 0l-1 1q-2 -4 -6 -5q-9 -1 -10 8q-18 104 -25 431
q-5 229 0 330l-2 4q0 3 1 9q-1 0 -1 1q-1 4 2 8q1 7 4 17q2 7 9 7h2q7 -2 7 -9q0 -1 -1 -2q0 -3 -1 -7q6 2 11 3q2 1 5 1q116 22 163 -23q40 -40 22 -122q1 -16 0 -32q-7 -81 -52 -153q-11 -19 -24 -34q42 10 75 7q53 -6 82 -46q31 -44 31 -131q0 -109 -91 -177
q-60 -45 -163 -73q6 -3 5 -10q-1 -9 -10 -8q-1 1 -3 1h-1q-5 1 -7 4q-2 2 -3 5zM155 483q0 -28 2 -59q0 -13 1 -28l3 3q-1 19 -2 39q-2 22 -4 45zM156 758q0 -5 -1 -11q-2 -29 -3 -82v-4q3 -29 8 -70q1 -10 3 -29q11 -83 13 -123l2 -26q30 28 60 69q27 37 47 76q14 45 15 86
q3 69 -31 100q-36 34 -113 14zM159 356q2 -38 4 -79q0 49 -1 76q-2 1 -3 3zM315 693q4 -23 3 -50v-4l4 14q-1 22 -7 40zM260 456q7 9 13 19q30 48 42 104q-6 -14 -13 -27q-16 -52 -42 -96zM416 244q-2 -7 -3 -14q-17 -67 -75 -118q-24 -20 -76 -51l-1 -1h-2q-23 -15 -34 -22
q77 25 125 61q84 63 84 163q0 55 -13 92q3 -11 5 -23q5 -41 -10 -87zM398 248q7 48 -14 85q-24 45 -76 53q-57 9 -128 -28q1 -29 1 -81q1 -26 1 -39q2 -122 10 -191q114 49 173 135q22 32 33 66zM253 403q30 5 57 1q61 -10 90 -62q5 -8 8 -17v4q-4 32 -21 54t-44 29
q-39 10 -90 -9zM160 367v2q-1 2 0 5h-2q1 -5 1 -9q0 1 1 2z" />
    <glyph glyph-name="c" unicode="c" horiz-adv-x="443" 
d="M335 42q-22 -3 -45 5q-47 18 -86 80.5t-59 148.5q-19 86 -13 175q-11 -83 -6 -157q12 -171 102 -238q58 -44 107 -14zM260 791h-1q-87 -18 -132 -141q-41 -113 -33 -266q4 -65 17 -125q-2 16 -3 33q-11 154 40 313q17 54 39 96l4 10q14 40 46 61q12 12 23 19zM395 665
q-26 78 -59 107q-20 17 -42 14q28 -5 51 -31q15 -17 26 -40q7 -15 17 -44l1 -3q13 -37 22 -53l2 2q-5 13 -13 42q-4 1 -5 6zM402 595q-14 21 -30 67q-1 3 -1 4q-9 27 -16 41q-10 21 -23 36q-33 37 -71 22q-7 -3 -13 -7q-23 -23 -44 -64q-38 -110 -50 -198q-14 -111 9 -216
q18 -82 54.5 -141t78.5 -75t79 18q1 1 2 1q35 50 44 116q1 6 7 7q8 22 23 22q2 0 5 -1h2q7 -2 7 -9v-1q3 -8 -1 -19q0 -3 -2 -5q-11 -33 -21 -55q-15 -36 -32 -62q-46 -67 -112 -70q-95 -4 -157 116q-55 105 -64 261q-9 157 34 274q49 132 146 152q38 8 72 -10
q28 -15 53 -49q13 -17 23 -41q5 -15 13 -43q0 -1 1 -3q10 -35 17 -52q4 -8 -5 -12q-2 -1 -4 0v-3q-1 -4 -1 -6q-1 -8 -10 -7q-6 1 -8 6q-1 1 -2 3q-2 1 -3 3z" />
    <glyph glyph-name="d" unicode="d" horiz-adv-x="438" 
d="M151 790q124 3 210 -106q77 -99 96 -247t-30 -263q-54 -128 -172 -154q-1 -1 -6 -2.5l-10 -3t-10 -2.5l-5 -2q-12 -4 -21 -6q-27 -6 -42 -4q-10 1 -16 6q-2 -6 -8 -6q-9 0 -9 9q0 6 -1 16v3v4q0 16 -2 52q0 5 -0.5 19.5t-1.5 28t-1 14.5q-1 41 -3 72q-4 101 -6 180
q-4 156 -1 251q5 121 22 145q6 8 13 2q3 -2 4 -6zM144 773q-10 -32 -14 -125q-2 -75 0 -190q2 161 14 315zM149 276q3 60 6 112q15 279 5 349q-13 -179 -13 -346q0 -62 2 -115zM152 55q-1 -16 -1 -22q2 -2 2 -6q0 -7 9 -9q-5 17 -10 37zM350 164q6 9 12 19q58 97 52 222
q-3 61 -22 119q11 -53 12 -112q1 -143 -54 -248zM183 21q-1 -1 -3 -1v-2q9 1 19 4q9 2 20 5q28 9 32 10q109 25 159 144q47 111 29 253q-18 144 -92 238q-56 72 -131 92q43 -20 81 -55q5 -5 11 -10q29 -29 52 -66q65 -101 72 -227q6 -131 -54 -232t-173 -145q-6 -4 -13 -8
h-9zM295 686l-10 10q-12 11 -27 20q-17 10 -48 25q-27 13 -36 17q16 -50 -1 -371q-3 -58 -7 -127q-2 -36 -8 -122q6 -60 17 -101l22 8q35 20 57 36q38 28 59 57q35 49 54 122t19 152q-1 82 -23 152.5t-62 115.5z" />
    <glyph glyph-name="e" unicode="e" horiz-adv-x="363" 
d="M196 23l-1 1q-15 21 -23 134q-1 9 -2 19q0 -19 1 -36q1 -53 3 -84q1 -16 3 -25l2 -7q3 -3 17 -5v3zM195 100v45v40v81q0 19 -5 56q-4 1 -7 1q2 -93 7 -163q2 -34 5 -60zM183 343v-2h4v2h-3h-1zM182 361h2q-1 6 -2 14v-14zM374 763q-35 10 -89 7q-61 -4 -79 -24
q-5 -5 -9.5 -35.5t-7.5 -81.5q-4 -56 -6 -128q4 -34 11 -82q4 -30 8 -56q41 5 76 1q9 -1 8 -10q0 -1 -1 -2q6 -4 7 -12q1 -3 -1 -5v-1q2 -9 -7 -10q-19 -4 -26 -4q-14 -1 -24 1q-1 0 -2 1q-6 -1 -13 0h-11q5 -36 5 -55v-82v-40v-84q0 -18 1 -28v-1q4 -1 10 0q5 0 11 1l2 1h2
q3 1 5 1q7 1 39 -1q11 -1 18 -1q25 -1 38 0q7 1 11 3l1 1q3 9 11 7q5 -1 6 -6q2 0 3 -1q8 -3 5 -11q-9 -21 -26 -24q-7 -1 -16 1h-1q-8 -1 -18 -1q-7 0 -20 1q-9 0 -13 1q-5 0 -29 -1q-15 -1 -24 -1q-51 -1 -63 10q-7 6 -10 43q-2 32 -3 86q-1 79 1 186q-2 3 -2 7q0 3 2 6
q1 25 2 51q2 74 6 140q-8 82 -3 136q5 62 26 92q4 11 8 15q19 18 89 20h48q24 -1 31 -1q4 0 7 -3l10 -1q9 -1 8 -10q0 -2 -1 -4q1 -3 0 -6q-2 -8 -11 -6z" />
    <glyph glyph-name="f" unicode="f" horiz-adv-x="281" 
d="M131 26v7q1 11 3 43q1 12 1 20q0 3 1 5q-5 19 -5 33q0 11 -6 127q-3 -43 0 -132q2 -68 6 -103zM116 413q-2 16 -2 31q-7 112 -2 184v2q0 21 1 39q0 48 4 76q1 16 4 25q-4 -1 -7 -1.5t-5 -1.5q-15 -33 -14 -107q0 -55 10 -153q2 -17 5 -42q4 -36 6 -52zM163 772h-20
q-2 -1 -3 -2q-1 -2 -2 -6q-2 -7 -4 -21v-7q6 14 13 25q4 7 16 11zM140 408q8 0 25 -1q9 0 13 -1q24 -1 38 3q9 2 11 -7q1 -5 -3 -9q5 -7 -2 -13q-17 -13 -52 -11q-5 0 -14 1q-14 2 -18 2q0 -11 1 -23q1 -14 2 -30q0 -1 2 -21.5t4 -42.5t3 -30q4 -47 5 -72q0 -19 -1 -50
q1 -6 3 -15q1 -5 2 -6q9 -38 6 -59q6 -18 -11 -32q-8 -6 -17 -6q-12 0 -17 10q-10 21 -13 133q-3 90 0 134q2 31 -3 88q-3 30 -12 113q-3 25 -4 42q-11 98 -11 155q-1 79 16 115q3 7 16 11q8 2 23 3q3 0 6 1q27 13 77 15q53 2 81 -8q9 -3 6 -12q-1 -1 -1 -2q2 -2 3 -6
q1 -9 -8 -10q-3 0 -7 -1q-3 -1 -5 -1t-10 1h-3h-3h-2q-8 -1 -13 -1q-15 0 -27 -1q-27 -2 -44 -5q-9 -2 -15 -5q-4 -2 -5 -3q-25 -36 -32 -122q1 -71 5 -178q0 -21 1 -44q2 1 4 1zM264 785q-12 1 -26 2q3 -1 15 -1q6 -1 11 -1z" />
    <glyph glyph-name="g" unicode="g" horiz-adv-x="376" 
d="M239 790q-51 -12 -83 -85q-38 -84 -43 -226q-2 -69 4 -138q1 11 1 22q9 113 27 203q24 117 60 180q16 27 34 44zM371 200q-10 -57 -27 -101q-5 -13 -11 -24q13 19 22 43q22 57 22 126q0 -10 -2 -21t-4 -23zM361 722q2 0 3 1q9 1 10 3q1 1 1 4v2q-9 -1 -10 8q-4 43 -34 54
q-4 1 -8 1q16 -10 27 -25q16 -21 11 -48zM342 718q6 24 -7 42q-16 21 -44 29q-42 -16 -74 -73q-44 -79 -64 -219q-14 -97 -12.5 -193.5t15.5 -164.5q20 -59 45 -85q25 -27 47 -30h2q34 12 67 75q24 49 36 105q2 11 3 22q4 25 4 46q0 30 -10 43l-5 5q-6 -1 -20 -5h-2
q-18 -5 -25 -6h-9q-6 -6 -11.5 -5.5t-9.5 4.5q-2 3 -2 7q-1 5 -1 15v2q-1 8 7 10q7 2 10 -5q4 1 7 -1l2 -2q7 1 28 6q4 1 6 1q25 6 37 4q23 -2 27 -24q19 -117 -17 -210q-34 -85 -95 -112q-30 -14 -59.5 -7t-52.5 33q-50 59 -52 193v18q-22 118 -18 243q5 146 44 233
q47 105 131 99q21 9 45 5q11 -1 20 -4q1 0 3 -1q32 -4 46 -29q9 -14 14 -49q1 -1 1 -2v-1q1 -9 -8 -11l-2 -4q-4 -5 -10 -7q-4 -2 -12 -3q-1 0 -7 -1q-5 -1 -9 -2q-9 -2 -11 7q0 4 2 7v2zM138 134q12 -64 41 -97q5 -6 10 -11q-14 15 -27 38q-14 25 -23 70h-1z" />
    <glyph glyph-name="h" unicode="h" horiz-adv-x="425" 
d="M184 146q1 35 5 158q1 29 1 52h-8q-1 -92 2 -210zM193 589q-1 -8 -2 -22q-6 -68 -7 -99q-1 -46 -2 -94h9q1 64 2 115q1 54 0 100zM175 765l-2 -2q-5 -67 -6 -275q1 24 6 80l3 42q8 97 -1 155zM413 277q1 -15 1 -29v40q0 -6 -1 -11zM424 780q3 -1 5 -2q0 2 1 4q-1 0 -2 -1
h-1h-1q-1 -1 -2 -1zM416 19q-6 28 -13 127q-1 7 -1 13q-4 -87 13 -139v-1h1zM414 774l-1 -1q-1 -2 -3 -10q-2 -10 -3 -26q-3 -32 -3 -87q-2 -100 4 -250v-11q0 2 1 3q5 70 4 203v10q-1 111 1 166q0 2 1 4zM199 782q14 -112 12 -293q-1 -51 -2 -114h10h7q8 0 16 0.5t11 0.5
q22 0 38 1q57 2 87 6q7 1 12 2v14q-6 151 -4 252q0 55 3 87q3 36 9 45q1 3 3 4l6 4q2 3 5 4q6 3 10 4l6 2l5 1h2q7 0 9 -7q5 -3 4 -8q-12 -117 -15 -413q-3 -252 6 -339q1 -2 1 -3v-1q1 -2 1 -4v-1v-1.5v-1.5v-2q2 -3 1 -7v-2q0 -7 -7 -8q-1 -1 -2 -1l-1 1q-2 -1 -5 -2h-4
h-1q-4 -1 -10 -2q-9 -1 -11 8v2q-2 1 -3 4q-22 67 -11 192q3 30 8 72q-2 44 -4 89l-10 -2q-32 -4 -89 -6q-16 -1 -38 -1q-4 0 -12 -0.5t-15 -0.5h-8h-11q0 -24 -1 -54q-4 -128 -5 -172q0 -49 1 -80q0 -2 1 -5q2 -13 3 -17t1 -5q2 -3 1 -6q-1 -1 -1 -3q-1 0 -2 -1v-1v-1l1 -1
q0 -8 -8 -9h-2q-2 0 -5 2q-2 0 -4 -0.5t-3 -0.5q-3 -1 -6 1q-1 0 -2 1q-1 -3 -4 -5q-2 -2 -5 -2q-5 0 -7 5q-7 10 -8 13v2q0 4 3 7v1q-1 7 -1 19q-2 31 -4 86q-2 103 -2 253q-1 360 8 400q2 9 11 7q3 0 5 -3q6 5 12 1h1q1 1 3 1q9 1 10 -8z" />
    <glyph glyph-name="i" unicode="i" horiz-adv-x="126" 
d="M122 257q0 -3 -1 -6q-3 -65 -1 -117q1 52 2 123zM112 739q-5 -22 -6 -48q-2 -41 5 -102q2 -16 6 -43q1 -8 2 -14q-3 128 -7 207zM99 543l-2 -114q-1 -80 1 -149q11 90 13 130q1 27 -3 64q-2 21 -9 69zM139 785q14 -81 10 -186q-2 -59 -10 -150v-22q5 -356 -12 -414
q-2 -8 -11 -6l-4 2l-2 2q-1 -2 -4 -2q-8 -2 -11 6q-11 46 -11 104q0 16 1 32q-7 107 -6 279q3 308 19 361q0 1 1 1h-1q0 9 10 9v1q2 4 6 5h3q5 0 8 -5q2 1 4 1h1q8 0 9 -7v-2q0 -3 -2 -5q2 -2 2 -4z" />
    <glyph glyph-name="j" unicode="j" horiz-adv-x="269" 
d="M220 747q1 -8 3 -33q-1 36 -5 50q1 -12 2 -14v-3zM242 388q-3 -57 -8 -149q-1 -11 -1 -37q0 -32 -1 -49q0 -8 -1 -15q7 22 9 37q11 91 2 213zM41 123h-1q9 -39 42 -81q27 -35 55 -31q4 1 8 3q-4 1 -8 3q-29 0 -49 28q-7 11 -12 25q-24 27 -34 51q-1 1 -1 2zM243 649
q2 -56 2 -118q7 -56 10 -95q16 -156 3 -263q-3 -27 -19 -65q-17 -44 -40 -73q-2 -2 -4 -5q3 2 5 3q26 18 44 71q15 42 24 100q6 44 6 73q0 85 -9 189q-7 71 -22 183zM67 118h-4q2 -4 5 -8q0 3 -1 8zM35 143q2 0 6 -2l3 -1q2 0 4 -1q4 -1 7 -1q7 -2 11 -2q2 0 2 1q6 6 12 1
q6 -4 3 -11q2 -1 2 -4q2 -24 5 -36l2 -8q20 -23 42 -38q4 -3 8 -5h3q37 7 53 41q14 28 16 77q1 16 1 48q0 27 1 39q7 128 9 206q2 43 2 83q-2 15 -5 35q-12 98 -16 141q-3 31 -4 39q-2 0 -4 1q-8 3 -5 12q3 7 6 12q0 5 -1 13q-3 2 -4 6q0 8 8 10q1 1 3 1t3 -1q14 2 26 0
q2 0 3 -1q5 -2 6 -8q1 -5 2 -15q2 -19 3 -29q1 -6 2 -17q1 -15 2 -23q3 -19 3 -23q2 -7 5 -27q15 -116 22 -189q10 -104 10 -190q0 -30 -6 -76q-9 -60 -25 -103q-20 -58 -50 -79q-19 -13 -40 -12q-16 -11 -32 -13q-38 -6 -71 37q-42 54 -49 102q-1 9 8 10h4h4z" />
    <glyph glyph-name="k" unicode="k" horiz-adv-x="396" 
d="M123 664q2 -39 6 -88q2 -26 6 -71q1 10 1 20q4 148 0 245q-8 -48 -13 -106zM129 92q0 8 1 13q-3 39 -3 94q0 17 1 50q0 21 1 31q0 33 1 66q-2 49 -12 150q-1 8 -1 15q-1 -8 -1 -17q-1 -113 7 -284q1 -3 2 -26t2 -46.5t1 -32.5q1 -7 1 -13zM379 762q-28 -26 -56 -71
q-10 -17 -19 -35q-32 -61 -72 -152q-5 -12 -20 -45q-4 -12 -9 -24q7 14 14 31l8 16q4 10 7 16q44 95 73 149q36 66 74 115zM213 333q-9 29 -10 44q-1 1 -1 2q0 -14 11 -46zM370 -2q1 0 1 1q-2 1 -4 4q-2 2 -1 5q-1 -2 -4 -5q0 -1 0.5 -2.5t0.5 -2.5h7zM153 797
q6 -108 1 -272q-1 -26 -3 -79q-2 -58 -3 -89q7 16 16 36q1 2 5.5 13t12.5 28.5t13 30.5q24 63 48 114q32 71 64 120q33 60 67 107q5 7 12 2l2 -2q10 -1 16 -3q1 1 3 2q8 4 12 -4q3 -6 -1 -10q2 -8 -2 -19q-3 -8 -11 -6q-43 -53 -84 -128q-29 -53 -73 -147q-3 -7 -7 -17
q-5 -11 -7 -16q-16 -33 -26 -56q3 -4 6 -9q9 -2 7 -11q50 -75 101 -201q29 -69 58 -151v-1.5t1 -2.5t4 -11q0 -1 1 -4q0 -1 0.5 -2.5t1.5 -2.5q2 -7 4 -12v-3q0 -6 -6 -9q-1 -1 -3 -1h-4q-4 -1 -21 -1q-10 0 -10 9q0 1 1 1l-2 2q-2 0 -3 1q-4 3 -4 9q0 1 -1 5q-1 3 -1 5
q-6 14 -21 44q0 1 -10.5 22t-13.5 28q-16 32 -27 57q-7 13 -12 26q-57 122 -67 169q-14 -28 -28 -54q-3 -6 -10 -5q1 -35 0 -79q0 -46 -1 -112v-2v-8v-4q1 -4 1.5 -9.5t0.5 -8.5q1 -7 1 -14q1 -19 1 -29q0 -7 -1 -10t-2 -4q-4 -20 -19 -21q-11 -1 -17 9q-4 9 -3 23q0 3 3 5
q-1 24 -3 69q0 9 -1 32.5t-2 46.5t-2 26q-8 171 -7 285q1 95 7 171q-2 74 7 135q1 9 10 8q2 0 4 -1q3 5 9 3q5 0 7 -5q1 1 2 1q9 0 9 -9zM360 20q4 -2 5 -5q0 2 -1 5l-1 2q-28 83 -57 153q-37 90 -73 153q2 -8 5 -17q18 -51 48 -125q27 -65 51 -118q11 -25 19 -38
q3 -7 5 -10h-1z" />
    <glyph glyph-name="l" unicode="l" horiz-adv-x="351" 
d="M106 791q-1 -13 0 -49q4 27 10 52q-4 -1 -10 -3zM142 20q-15 2 -19 6q-11 10 -17 42q1 -25 3 -39q1 -7 3 -11l1 -3q5 -5 37 1q-5 2 -8 4zM112 232q1 -40 3 -72q2 -52 8 -83q3 -17 6 -27q-1 7 -2 17q-4 31 -9 86q-3 35 -6 79zM134 771q-11 -81 -19 -289l4 -74
q9 -154 17 -254q5 -54 9 -85q2 -16 4 -25q1 -3 1 -6q7 -1 17 -1q29 -1 73 1q101 4 122 11q9 3 12 -5q1 -6 -3 -10q2 -3 1 -6q-2 -9 -15 -13q-8 -3 -21 -4q-21 -2 -59 -2h-28q-45 1 -53 0q-3 -1 -11 -3q-1 0 -3 -1l-4 -1q-5 -1 -9 -2q-9 -2 -16 -3q-17 -4 -28 -4q-17 0 -24 7
q-10 8 -13 65q-2 44 -1 116q1 54 3 119q2 37 4 67q2 45 1 139v22q-9 202 -7 258q-3 2 -4 4q-3 8 5 12q1 1 3 1q2 2 5 2q14 6 24 5q4 5 10 3q8 -2 6 -11q2 -3 3 -6q2 -9 -3 -23q-1 -2 -3 -4z" />
    <glyph glyph-name="m" unicode="m" horiz-adv-x="611" 
d="M201 669v27q0 32 3 51q4 19 11 28q-2 3 -4 5q-2 -2 -4 -7q-3 -8 -6 -24q-5 -29 -8 -81q-2 -43 -2 -100q4 50 9 90q0 6 1 11zM354 442q1 0 2 2v1l-5 10q-2 5 -4 12q-1 0 -1 2l-2 4q-8 19 -20 48q-2 4 -4 10q2 -7 4 -13q12 -41 27 -72q2 -4 3 -4zM608 21l1 -1q-1 6 -1 8v1
v1q-2 28 -5 94v8q0 9 -0.5 19t-1 21t-0.5 16q-4 71 -7 111q-4 51 -23 152q-1 6 -1 9q-5 23 -8 39q3 -71 6 -130q3 -44 5 -84q0 -1 1 -3v-1q14 -63 17 -96q1 -1 2 -18t3 -37.5t3 -30.5q3 -35 5 -56q2 -14 4 -22zM610 4h1v1zM621 -12q-2 -1 -4 -1q-2 -1 -4 -1q-1 0 -3.5 -0.5
t-6.5 -1.5t-6 -1q-9 -2 -11 7q-1 4 2 7q-14 29 -13 35q0 3 3 6q-12 69 -23 245q-14 62 -16 96q-4 39 -3 88q1 29 4 88q1 14 1 21v3q0 10 -1 23q-1 30 -1 38q-1 24 -2 39q-8 54 -15 83q-19 -9 -38 -46q-21 -39 -43 -115q-5 -15 -19 -65l-13 -50q-8 -27 -13 -40q-4 -8 -7 -13
q-5 -7 -11 -8q-5 0 -9 3q-1 0 -2 1q-1 -1 -3 -2q-6 -5 -14 -3q-6 1 -10 6q-3 3 -6 9q-15 31 -27 73q-8 26 -21 77q-2 10 -3 14q-6 24 -11 42q-22 50 -40 91q-7 -27 -13 -68v-13q1 -28 1 -33q-8 -107 -2 -320q3 -116 11 -189q9 -85 23 -99q6 -7 -1 -13q-4 -4 -10 -2
q-2 0 -4 1q-5 3 -10 5q-3 3 -7 4q-8 -1 -10 7q-7 28 -15 113l-2 22q-11 131 -16 274q-6 150 -2 244q6 115 28 128q11 6 21 -4q3 -4 7 -11q4 7 9 10q5 4 11 0q2 -1 4 -4q3 -3 5 -9q5 -10 11 -28q2 -5 4 -11l15 -47q11 -30 30 -89q1 -2 1.5 -4t1.5 -4q27 -85 45 -127
q5 15 12 38q3 8 9 31.5t12 45.5t6 23q21 79 41 119q15 31 32 48q14 21 29 31q10 6 18 -4q3 -4 6 -14q1 0 1 -1l4 -4q8 -3 13 -14q4 -8 6 -22q1 -8 2 -17q0 -3 1 -6v-5q2 -37 1 -82q2 -11 3 -24q1 -5 2.5 -15.5t2.5 -19t1 -9.5q5 -37 17 -105q1 -3 2 -8q19 -103 23 -154
q3 -40 7 -112v-12t0.5 -16.5t1 -16.5t0.5 -13.5v-6.5q3 -71 6 -99v-3q1 -4 1 -5q1 -2 1 -4v-1.5t-1 -1.5q1 -2 1 -4q4 -2 5 -7q2 -9 -7 -10q-3 -1 -6 -1z" />
    <glyph glyph-name="n" unicode="n" horiz-adv-x="427" 
d="M326 131q-25 128 -71 318q-20 79 -36 137q8 -40 21 -120q2 -12 3 -17q6 -35 11 -60q8 -44 13 -70q7 -32 15 -62q18 -71 44 -126zM368 61q-3 0 -6 1q3 -4 6 -7v4v2zM404 753q-14 -101 -17 -243v-63q2 20 6 40q22 135 11 266zM390 306q2 -46 5 -90v26q3 107 16 226
q1 12 4 30v1v3t0.5 4t0.5 4.5t0.5 5.5t1 5.5t0.5 4.5v3q8 66 11 107q7 93 -1 154q-1 0 -2 1l-5 1h-2q17 -151 -8 -308q-15 -87 -21 -178zM386 109q2 15 0 39v-39zM386 68v-10q-1 -17 -8 -22q-4 -4 -9 -3q5 -6 8 -6q1 0 2 2q7 11 10 42l-2 -2q0 -1 -1 -1zM146 776q-1 0 -1 -1
l-1 -1v-1q-11 -29 -16 -63q-1 -24 0 -56q1 -27 3 -65q0 -5 1 -22.5t1 -19.5q2 -37 2 -136q1 14 2 31q4 58 6 81q0 5 1 15q1 30 3 63q3 49 4 82q0 7 4 31q3 12 5 19q1 5 2 7q-2 8 -5 15q-3 8 -6 13t-5 8zM150 18q-16 42 -24 121q-6 62 -8 156q0 38 -1 113q0 72 -1 103
q0 -2 -0.5 -11t-0.5 -10q-7 -129 -7 -200q0 -170 37 -282l3 5q2 2 3 4q-1 0 -1 1zM131 -6q-41 117 -41 296q0 71 7 201q0 1 0.5 10t0.5 11q1 13 1 22q1 18 2 55q1 31 2 46q2 44 7 76q0 32 4 53q4 24 12 33q13 15 30 -1q9 -8 19 -36l5 -15q0 -1 1 -3q16 -18 41 -101
q22 -71 50 -187q48 -196 72 -323q3 -19 13 -38q6 -11 11 -14h1v13q-1 1 -1 2.5v2.5q-1 56 -1 85q0 58 3 102l2 22q-5 105 -3 205q3 182 26 297q2 8 11 7q3 -1 5 -3q1 0 3 -2h3h5q2 0 6 -1q2 3 6 4q8 2 10 -7q11 -67 3 -172q-3 -41 -11 -107v-3t-0.5 -4.5t-1 -5.5t-0.5 -5.5
t-0.5 -5t-0.5 -4t-1 -2.5v-1q-2 -19 -3 -30q-13 -118 -16 -225q0 -14 -1 -44v-13q-1 -67 -3 -98q-4 -50 -14 -66q-9 -14 -23 -11q-11 3 -23 19q-23 30 -57 116q-14 34 -33 127q-5 23 -10 44q-6 30 -13 71q-5 26 -14 72q-3 16 -5 27q-25 136 -40 198q-2 11 -5 21
q-1 -6 -2 -13q0 -4 -1 -7v-2q-2 -38 -4 -82q-1 -20 -3 -63q-1 -10 -1 -15q-2 -23 -6 -81q-6 -93 -7 -144q-3 -156 28 -253v-2q4 -3 3 -8q-3 -13 -16 -31q0 -1 -2 -3l-2 -3q-2 -4 -4 -6q-5 -8 -12 -3h-1q-8 -3 -11 6z" />
    <glyph glyph-name="o" unicode="o" horiz-adv-x="403" 
d="M227 774q18 12 37 16q-18 0 -37 -16zM196 52q-47 39 -72 137q-30 119 -18 270q1 7 1 15q-10 -66 -11 -129q7 -129 45 -221q9 -22 19 -41q16 -19 36 -31zM213 23q21 -14 44 -16q78 -6 119 99q31 83 32 211q-7 -123 -35 -200q-41 -110 -116 -103q-24 1 -44 9zM267 808
q4 3 8 1q3 -1 6 -3q17 -4 32 -18h1q7 6 13 0q40 -39 63 -168q4 -19 6 -38q26 -106 30 -224q4 -158 -34 -258q-45 -118 -137 -111q-64 6 -109 84q-34 42 -51 110q-18 71 -17 162q0 15 -1 31q-2 154 44 266q18 44 42 75q13 25 27 44q37 48 77 47zM333 738q7 -11 14 -23
q-5 16 -12 29q-2 -1 -5 0q2 -3 3 -6zM370 610q18 -89 22 -190q-2 82 -13 158q-4 17 -9 32zM268 770q-17 -4 -33 -13q-28 -19 -50 -60q-49 -89 -61 -240q-12 -147 18 -264q31 -124 94 -144q69 -21 106 78q34 91 33 249q-1 104 -17 199t-41 154q-21 30 -44 38q-3 1 -5 3z" />
    <glyph glyph-name="p" unicode="p" horiz-adv-x="446" 
d="M198 702q0 26 -2 52q-19 -114 -17 -297q1 -101 9 -254q1 -14 2 -33q0 -1 1 -14.5t1 -17.5q1 21 3 47q1 18 4 53q1 15 2 26q-1 18 -1 36q-1 -1 -2 -1q-8 -5 -12.5 3t3.5 12l10 6v15l-1 1q-8 4 -4 12q1 4 5 5q-1 39 0 96q-2 10 -4 27l-3 30q-8 69 -7 112q2 47 13 84z
M214 22q6 1 10 2v4q1 3 1 4q-1 11 -3 28q-1 13 -4 33l-1 8q-1 8 -2 16.5t-2 11.5q-1 11 -2 20q-3 -68 4 -122q0 -2 -1 -5zM432 702q6 -9 11 -19q31 -56 26 -119.5t-46 -116.5q-29 -38 -69 -65q-27 -19 -77 -43l-19 -9l-20 -10l-16 -8q-1 -19 -3 -48v-4q1 -35 8 -90
q1 -16 4 -38q1 -4 2 -12.5t2 -16.5l1 -8q2 -20 4 -33q2 -15 3 -25v-2t1 -4q3 0 5 -3q5 -7 -2 -12q-1 -2 -3 -3v-1q0 -9 -9 -9q-5 0 -7 3q-5 -1 -15 -2h-2q-5 -1 -8 -1q-9 -2 -10 7q-1 2 0 4v2v3q-1 1 -1 2v3q-1 6 -2 15q-1 6 -3 16l-1 8q-2 8 -2 10q-3 11 -4 19q-5 27 -6 45
q0 4 -1 18l-1 14q-1 19 -1 33q-9 154 -10 254q-2 200 21 320q-3 2 -4 6q-2 9 6 11h2q0 3 1 6q2 8 11 6q6 -1 7 -7q13 2 27 4q2 4 7 4q18 0 36 -3q53 -3 93 -29q42 -26 64 -72zM419 472q24 38 30 81q-7 -39 -26 -73zM227 352q1 1 2 1q81 32 130 98q45 62 47 132q1 71 -45 119
q-51 55 -147 65q1 -19 1 -37q1 0 3 -1q8 -3 4.5 -11.5t-6.5 -17.5q2 -63 1 -197v-29v-24q2 -23 4 -40q2 -33 2 -59q2 1 4 1zM229 783q93 -13 145 -68q51 -54 50 -133q-2 -75 -51 -142q0 -1 -1 -2q21 23 35 50q40 75 26 154q-4 27 -16 51q-52 78 -144 92q-21 1 -44 -2z" />
    <glyph glyph-name="q" unicode="q" horiz-adv-x="474" 
d="M378 96q-2 3 -4 7q-26 -30 -60 -46q-58 -28 -106 2q7 -6 14 -10q31 -12 65 -7q51 8 91 54zM416 155q7 17 13 34q31 103 30 220.5t-34 227.5q2 -10 2 -16q17 -121 19 -208q4 -128 -22 -213q-6 -18 -13 -34q3 -5 5 -11zM393 115q-2 3 -4 8q-2 -2 -3 -4l4 -8q1 2 3 4z
M404 133l2 2q-1 1 -2 3q-1 3 -3 6q0 -1 -1 -2q1 -2 4 -9zM441 168q23 48 32 101q11 68 4 148q2 -126 -31 -233q-2 -8 -5 -16zM344 799q4 -2 7 -4q-29 28 -58 24q-8 -1 -15 -4q6 2 12 2q29 1 54 -18zM374 203q6 -16 17 -39q0 1 1 2l-8 16q-5 12 -10 23v-2zM408 81q-1 1 -1 2
h-1zM347 220q3 -15 8 -31q8 -25 21 -52l4 6q-23 53 -33 77zM351 262l-1 -1q4 -10 10 -24q1 -2 3 -4q-7 15 -12 29zM462 0h1q0 1 0.5 2t1.5 1v1v1l1 5q-3 5 -5 10l-2 4h-1q-1 0 -2 2q-1 0 -2 1.5t-3 3.5q-2 5 0 9q-17 36 -29 62l-3 -3q24 -55 34 -79q0 -1 0.5 -2t1.5 -2
q1 -2 4 -11q1 -2 3 -5zM326 238l-4 4q-9 10 -3 20q4 6 14 11q6 3 17 8l4 1q3 1 4 2q5 1 8 3q8 3 11.5 -5t-4.5 -12q-2 -1 -5 -2q13 -34 33 -79l6 17q25 81 21 207q-2 86 -18 205q-2 12 -6 42q-5 1 -7 6q-24 87 -62 118q-18 8 -38 6q-30 -4 -62.5 -33t-60.5 -78l-4 -6
q-38 -90 -55.5 -197t-3.5 -175q0 -3 1 -8q3 -15 4 -21q14 -71 30 -109q24 -54 66 -85q42 -30 94 -5q34 16 58 47q-17 33 -26 63q-9 29 -12 55zM481 -4q-3 -4 -9 -15q-4 -8 -12 -4q-1 0 -1 1q-2 0 -4 1h-1q-7 0 -8 7q-2 5 -4 11q-1 0 -1.5 1t-1.5 2t-2 4q-1 1 -1 2
q-8 12 -16 23q-15 22 -26 40q-25 -25 -53 -39q-59 -30 -115 -4q-6 3 -12 7q-65 26 -104 111q-57 126 -39 292q16 147 81 261q20 35 42 61q46 72 96 79q74 10 134 -122q2 -5 -1 -9q42 -110 60 -207q25 -129 8 -233q-14 -81 -58 -147q17 -35 44 -91q3 -6 9 -17q1 -2 1 -4
q0 -5 -5 -8h-1v-3z" />
    <glyph glyph-name="r" unicode="r" horiz-adv-x="385" 
d="M152 76q-1 12 -1 27v23q0 37 -2 54q0 11 -1 20q-1 -22 -1 -39q-1 -51 5 -85zM124 751q-15 -66 -6 -347q4 -124 11 -253v10q0 22 2 61q2 50 2 68q0 4 -1 33.5t-2.5 65.5t-1.5 44q-2 51 -3 93q-2 102 -2 161q1 36 2 55q1 5 1 9h-2zM146 756q0 1 -1 1v-1h1zM321 536
q12 14 20 28q35 67 -34 138q12 -19 19 -40q22 -65 -5 -126zM225 391q-1 5 -1 11q-2 4 -3 8q1 -9 4 -19zM358 25q6 4 11 -1q7 -6 1 -12q-4 -5 -9 -6l2 -6q4 5 7 10l8 10l2 2q-3 7 -5 10q-32 70 -73 167q-22 53 -39 95q2 -8 4 -15q11 -35 33 -95q30 -79 39 -110q0 -1 1 -3
t1.5 -4.5t1.5 -3.5q2 -9 5 -16q4 -11 8 -18zM121 10q-13 124 -21 393q-10 320 11 367q4 9 12 5q3 -1 4 -5q6 3 12 5q4 2 9 3q21 5 44 3q3 3 7 3q34 0 68 -23q7 -4 13 -9q49 -21 73 -55q36 -49 17 -116q-13 -44 -47.5 -85.5t-81.5 -71.5v-19q17 -56 78 -199q37 -89 69 -159
l1 -1l2 -2q1 -2 3 -4q5 4 11 0q7 -6 1 -13q-3 -5 -5 -7v-2q0 -5 -5 -8q-2 -1 -4 -1q-4 -5 -7 -10l-12 -16q-3 -5 -8 -4q-1 -1 -3 -2h-3q-6 0 -8 6q-5 11 -13 32q-1 2 -8.5 19.5t-8.5 21.5q-25 59 -42 103q-18 47 -32 88q-32 93 -43 156q-19 -9 -38 -15q-6 -2 -10 3
q-1 -1 -3 -2l-1 -1q2 -34 6 -88q7 -80 9 -119q2 -17 2 -55v-23q1 -56 10 -88q2 -9 -7 -11l-2 -2q-8 -5 -13 2q-16 26 -23 70q3 -40 5 -62q1 -9 -8 -10t-10 8zM161 739q-12 0 -15 -4q-2 -3 -2 -18v-13q-4 -83 0 -185q2 -49 6 -103q19 8 37 17q36 23 37 23q18 12 32 23
q26 23 42 50q34 61 11 127q-21 61 -75 91q-1 1 -3 2q-10 3 -20 5q-1 0 -8 1.5t-8 1.5q-12 2 -20 3q-3 1 -6 1q2 -4 0 -8v-1q1 -2 1 -4q0 -9 -9 -9z" />
    <glyph glyph-name="s" unicode="s" horiz-adv-x="385" 
d="M171 561q7 -17 17 -37q17 -35 65 -121q11 -21 19 -34q55 -101 73 -161q24 -75 7 -127q7 7 12 15q21 33 12 83q-7 44 -39 107q-23 45 -69 118q-7 11 -17 26q-55 87 -75 122q-2 5 -5 9zM298 20q8 2 16 5q45 17 63 59q-16 -24 -46 -40q-13 -16 -33 -24zM158 747q2 4 4 7
q5 8 11 14q-16 -10 -24 -24q-8 -13 -10 -30l6 14q6 10 13 19zM318 774q8 -4 15 -9q-9 9 -21 15zM357 723q-6 5 -11 11q6 -14 11 -31q-1 12 0 20zM376 723q0 -3 -2 -5q0 -10 1 -26q0 -9 -9 -9q-6 -1 -8 5q-2 -3 -6 -4q-9 -2 -11 6q-10 44 -33 69q-49 23 -94 7q-25 -9 -41 -28
q-18 -34 -12 -80q5 -49 42 -113q15 -25 37 -59q12 -17 42 -60q38 -53 57 -82q29 -47 45 -85q41 -97 12 -176q-20 -54 -76 -74q-49 -19 -105 -6q-57 14 -86 53q-9 12 -14 25q-14 19 -22 40q-5 2 -8 6q-6 10 4 21q6 8 22 16q2 3 5 3q1 1 2 1q7 4 12 -4v-2q6 -4 3 -10
q-7 -22 -6 -42q2 -2 3 -4q20 -31 61 -53q18 -10 36 -15q26 -4 50 3t43 17q5 7 9 16q24 49 -1 129q-18 58 -72 157q-8 14 -19 34q-48 87 -65 122q-32 66 -39 110q-2 13 -3 26q-2 5 -3 11q-31 118 98 143q46 10 87 -7q43 -17 58 -57q3 -1 5 -3t3.5 -7t-2.5 -9z" />
    <glyph glyph-name="t" unicode="t" horiz-adv-x="386" 
d="M215 113q-3 62 -4 136q-1 68 2 197q0 28 1 38q0 27 9 90q2 11 3 17q0 30 1 56q2 32 3 57l-2 10q-19 -121 -23 -305q-5 -188 10 -296zM132 745h-1.5h-1.5h-2q-7 -1 -12 -3h-3q-6 0 -8 6q-1 2 -1 3q0 7 7 9q17 4 21 5h1h1q5 1 11 3q1 2 4 4q24 9 53 14q-51 -6 -87 -20
q-8 -4 -11.5 4.5t4.5 12.5q55 22 143 25q73 3 145 -7l1 -1v0h2h2q3 -1 4 -2q5 -2 5 -8q0 -3 -2 -6q0 -1 -1 -2l-1 -1l-2 -2q-5 -7 -12 -2q-4 2 -4 6q-12 2 -23 3v-2l8 -2q8 -2 5.5 -11t-10.5 -6q-38 10 -111 3l-2 -8q-2 -10 -3 -27q-2 -12 -3 -28q3 -17 3 -37q-1 -28 -7 -73
v-5q-2 -85 -2 -197q0 -342 9 -397v-2q0 -8 -8 -9h-1q-6 0 -9 6q-3 -1 -7 0q-9 3 -6 12q1 4 5 5q-1 4 -1 7q-1 4 -3 8q-1 2 -2 6q-7 15 -8 18q-31 95 -24 363q6 240 32 353q-43 -6 -82 -15l-1 -1z" />
    <glyph glyph-name="u" unicode="u" horiz-adv-x="402" 
d="M296 39q-35 -1 -66 31q-36 36 -54 102q-20 76 -29 171q-6 67 -9 174q-1 8 -1 18q-1 -40 0 -79q4 -218 46 -340q1 -2 2 -6v-1q1 -4 2 -5q1 -3 2 -5q10 -31 20 -47q14 -14 30 -20q34 -15 57 7zM353 100q25 44 26 120q1 13 1 37q2 87 2 131q1 97 -5 172q-2 27 -9 72
q0 -15 1 -38q4 -89 6 -143q4 -129 -2 -214q-5 -84 -20 -137zM330 48l-2 -2q-7 -8 -19 -20q-3 -2 -5 -4q69 27 92 141q18 90 7 250q-1 20 -3 41v-66q0 -44 -2 -131q0 -25 -1 -37q-1 -81 -28 -129q-16 -29 -39 -43zM134 773h1q3 0 5 -1q2 7 3 14q-9 -1 -10 -6v-1q2 -3 1 -6z
M366 796l6 1q7 2 12 -1q4 -2 10 -9q2 -3 2 -6q2 -2 1 -5q-4 -33 1 -99q2 -27 5 -66q1 -13 4 -35q2 -28 3 -36q8 -77 11 -126q11 -162 -7 -254q-25 -126 -106 -156q-24 -9 -51 -4.5t-45 21.5q-9 8 -16 20q-35 35 -59 107q-29 90 -39 227q-8 116 -2 238q6 105 19 160
q-1 6 1 11q4 20 33 20h1q3 1 6 1q9 -2 7 -11q-8 -37 -14 -84q3 -49 6 -154q0 -26 1 -39q3 -106 9 -172q9 -94 29 -169q16 -61 48 -94q29 -29 59 -25q9 1 18 6q6 7 8 14q22 55 28 161q6 84 2 212q-2 55 -6 143q-7 155 -7 201q0 9 9 9q7 0 9 -7q1 1 2 0.5t2 -0.5zM372 779
q-2 -42 8 -111v7q-5 67 -1 102l-2 2l-1 1h-1q-1 -1 -3 -1zM128 747q-9 -54 -14 -135q-6 -121 2 -236q9 -116 31 -198q-25 115 -28 277q-2 137 12 255q-1 19 -3 37z" />
    <glyph glyph-name="v" unicode="v" horiz-adv-x="416" 
d="M201 291q-5 34 -9 61q-7 38 -14 69q6 -39 12 -74q6 -29 11 -56zM356 409q-3 -10 -6 -26q-7 -26 -10 -41q-23 -91 -33 -150q-11 -58 -14 -105q34 168 63 322zM265 7v1q0 1 -1 2q-6 15 -15 43q-17 50 -38 125q-22 73 -38 166q-11 57 -27 167q-6 43 -9 62q-1 7 -5 24v3
t-3 13q0 1 -0.5 3t-0.5 3v2l-1 2q-5 23 -6 27v2v3q-1 8 -5 27q0 1 -1 4v2q-5 27 -8 41q-5 21 -7 31l-1 1q13 -129 42 -283q0 -5 2 -13q1 -3 1 -5l1 -3q6 -32 17 -97q17 -106 31 -159q22 -87 55 -154l2 -5q2 -6 4.5 -12t3.5 -8q4 -10 7 -15zM366 531q9 41 14 75q3 14 4 43
q-1 -2 -1 -4q-3 -22 -7 -48q-4 -28 -10 -66zM122 780q-4 4 -8 4h-1q1 -7 1 -8v-2v-1h1v-2q1 -3 2 -7q1 -5 3 -12zM140 787v-1q5 -6 0 -11q-6 -60 7 -141q9 -55 30 -139q3 -11 11 -39q12 -45 21 -101q6 -34 16 -101q3 -24 5 -34q6 -45 31 -131q3 -14 5 -20v-1q1 -1 1.5 -3.5
t1.5 -3.5q1 21 4 44q10 84 44 243q1 3 1 6l2 7q1 7 2 13q4 14 6 25q2 13 11 74q1 7 5 33l4 27q6 39 10 67q4 26 7 48q11 68 19 107q9 49 17 55q7 6 13 -1q1 -2 1 -4q6 3 11 0q4 2 8 -1q8 -4 4 -12q-14 -23 -20 -58q-5 -26 -7 -68q0 -6 -1 -19q-2 -56 -7 -81
q-46 -257 -108 -555v-2q-1 -3 -1 -5l-2 -6q-3 -5 -7 -7q-3 -2 -7 0q-3 -4 -7 -6q-7 -3 -14 3q-3 2 -6 8q-5 6 -10 19l-3 9t-4 10l-2 5q-34 69 -57 157q-13 55 -31 161q-11 66 -17 96q0 2 -2 8q-1 9 -2 14q-32 174 -44 315q-1 9 8 10q4 0 7 -3q2 5 7 6q4 0 6 -1h7
q12 0 23 -11q2 -2 3 -4z" />
    <glyph glyph-name="w" unicode="w" horiz-adv-x="584" 
d="M508 11q-3 -3 -6 -3q2 -6 4 -9l1 1q0 4 1 11zM291 248q-5 -43 -10 -101q0 -3 -2 -32q1 13 3 31q5 65 9 102zM376 484q-7 10 -12 11q-17 4 -33 -37q2 3 3 6q14 22 34 22q4 0 8 -2zM577 713q2 -3 1 -6q-32 -106 -46 -267q-6 -61 -13 -197q-1 -14 -2 -24q0 -5 2 -50
q16 223 56 482q3 15 4 50v10q1 4 1 9q-1 -4 -3 -7zM434 242v2v1q-20 92 -33 141q-12 41 -21 63q-5 11 -9 16l-3 3q-8 0 -15 -8q7 0 11 -4t11 -25q6 -17 15 -49q11 -38 41 -145q1 -1 1 -2q5 -17 9 -31q-1 4 -1 7q-2 8 -6 31zM189 597q1 -49 4 -80q2 -11 4 -24q11 -64 16 -92
q4 -21 6 -42q-12 107 -30 238zM179 786q46 -302 66 -491q2 -21 5 -61q1 -13 2 -19q4 -54 9 -87q2 16 2 20q7 80 14 136q12 103 30 159q10 35 23 52q17 23 38 18q27 -6 48 -85q13 -49 32 -160q2 -11 4 -23q3 -15 8 -39l4 -21l5 -20q10 -47 15 -73q5 -22 9 -37q2 -2 3 -5v7
v3.5v5.5l-1 2q-1 42 1 97q1 24 4 73v12q1 16 2 42q6 131 11 192q18 183 70 288q1 2 4 4q1 4 3 9q3 9 11.5 6t5.5 -11q-8 -23 -10 -70v-9q-1 -36 -4 -53q-48 -315 -63 -581v-3q0 -2 -0.5 -6t-0.5 -6q0 -15 -1 -27q-2 -18 -4 -29q-1 -7 -3 -11q-3 -8 -9.5 -9.5t-11.5 2.5l-7 7
q-4 6 -9 17q-2 7 -5 15q-1 1 -1.5 2.5t-1.5 2.5v2q-11 28 -61 206q-1 1 -1 2q-30 107 -41 145q-9 31 -15 48q-3 8 -5 13q-5 -8 -11 -27q-5 -14 -9 -33q-3 -12 -3 -15q-2 -12 -8 -66q-8 -65 -13 -102q-6 -49 -12 -84q-5 -47 -11 -59q-2 -2 -3 -4q-7 -24 -14 -32l-6 -4
q-7 -2 -12 2q-3 2 -4 7q-1 2 -1 4v1q0 3 -1 5l-2 2q-2 2 -3 5q-2 4 -4 12q-2 12 -5 33l-4 46q-7 49 -20 141q-21 149 -30 223q0 7 -1 13q0 4 -1 9q-21 123 -29 195q-6 54 -7 102q-1 9 8 9.5t9 -8.5q2 -48 8 -101q2 -21 5 -41l-2 28q-2 42 -8 75q-1 5 2 8v2q-1 9 8 10t10 -8z
" />
    <glyph glyph-name="x" unicode="x" horiz-adv-x="407" 
d="M269 468q0 -2 -1 -3q0 -2 -9 -30q6 18 11 32zM286 524q1 -3 1 -5q4 9 7 19q9 26 37 88q9 22 16 37q1 9 3 22q1 9 2 13q0 5 1 10q-13 -29 -26 -65q-19 -49 -41 -119zM378 93q1 -6 3 -11q5 -20 12 -37v2l1 1q-9 29 -24 81q4 -20 8 -36zM173 759q4 -10 8 -21q14 -20 27 -47
q-17 37 -35 68zM97 1q-13 36 11 92q8 19 23 47l3 6l8 14t5 10q9 16 13 26q27 63 67 194q3 10 13 45l11 35q5 16 9 30q-13 42 -26 80q-11 31 -40 90q-1 1 -1.5 2t-0.5 2q-18 35 -26 55q-19 29 -37 43q-7 6 -1.5 13t12.5 1q3 -2 6 -5q0 3 -1 6q-3 8 6 10.5t11 -5.5v-1q0 1 1 1
q7 5 12 -3q58 -88 102 -234q17 53 33 94q35 94 70 147q3 5 10 4q4 1 8 -2q3 -3 3 -7q2 -3 1 -6q-3 -23 -10 -49q-9 -33 -27 -78q-4 -25 -10 -41q-23 -68 -54 -148q3 -14 7 -29q9 -39 18 -81q11 -40 26 -93q2 -8 15 -57t16 -59q20 -73 32 -108q1 -2 4 -6q5 -7 7 -9q3 -1 4 -5
q1 -1 1 -2q0 -3 -1 -5.5t-4 -4.5q2 -4 4 -7q1 -2 1 -4q0 -5 -5 -8q-2 -1 -4 -1t-3 1q-3 -3 -7 -5q-3 -1 -6 0q-1 -5 -5 -7q-2 -1 -3 -1q-6 0 -9 6q-12 30 -18 44.5t-6 16.5v2q1 2 3 5q-3 12 -6 26q-1 5 -2 11q-6 25 -13 65q-1 6 -2 10q-2 10 -5.5 28.5t-6 33.5t-3.5 17
q0 4 -1 8l-4 16q-8 28 -23 82q-6 24 -9 33q-6 22 -11 41q-15 -37 -34 -84q-28 -87 -46 -139q-8 -20 -27 -62q-19 -43 -27 -66q-12 -37 -13 -66q0 -9 -9 -9t-9 9q0 8 1 16q-2 -6 -5 -12q1 -1 1 -3q3 -8 -5 -11t-12 5z" />
    <glyph glyph-name="y" unicode="y" horiz-adv-x="426" 
d="M305 320q14 21 29 74q12 46 31 145l6 32q6 33 10 54q-14 -46 -29 -103q-9 -39 -22 -94l-10 -40q-9 -40 -11 -50q-1 -2 -1 -3q-1 -7 -3 -15zM271 299q-9 8 -19 25q4 -10 7 -18q6 -15 11 -24q1 4 1 9v8zM296 266q2 14 4 24q1 2 3 4q-2 -1 -3 -1q-4 -13 -7 -21q2 -3 3 -6z
M295 262q-9 -25 -10 -61v-30q1 -19 3 -41q1 -10 3 -21q-1 17 -1 34q-1 74 5 119zM318 285q-11 -41 -10 -141q0 -63 5 -107v-2q1 -1 1 -3v-2v-1q0 -4 1 -8v-1q0 -8 -8 -9h-1h-3q0 -1 -1 -3q1 -1 1 -3q2 -9 -7 -10.5t-11 7.5q-11 67 -16 129q-1 21 -2 39v33q1 29 5 48
q-9 -2 -17 6q-14 13 -30 55q-6 17 -12 36q-2 7 -4 13v2l-2 5q-17 57 -30 101q-21 57 -37 109q-11 36 -19 69q-22 67 -44 131q-3 8 5 11t11 -5q4 -11 8 -21l-2 22q0 8 9 8.5t9 -8.5q4 -59 21 -133q24 -72 56 -177l6 -16q-8 25 -15 55q-30 110 -51 261q-1 9 8 10.5t10 -7.5
q21 -151 50 -260q35 -133 64 -182q3 -7 7 -12q38 212 151 476q2 4 6 5l2 4q4 8 12 4t4 -12q0 -1 -1 -2q1 -3 -1 -6q-5 -12 -11 -24q-9 -27 -19 -67q-10 -44 -28 -135q-4 -24 -6 -31q-19 -101 -31 -146q-19 -71 -39 -90q-3 -2 -4 -3l1 -1h3q8 -2 6 -11z" />
    <glyph glyph-name="z" unicode="z" horiz-adv-x="452" 
d="M291 44h-7q-21 0 -32 -4q17 2 39 4zM315 554q-3 -7 -6 -13q2 3 5 8q1 3 1 5zM354 638q-3 -16 -8 -35q19 33 31 57q21 42 28 78v7q-1 -4 -3 -9q-2 -7 -6 -15q-1 -1 -2.5 -3.5t-2.5 -5t-2.5 -4.5t-2.5 -4v-1q-17 -34 -32 -65zM182 36q-11 1 -17 3t-6 7q-1 2 -1 3q1 1 1 2
q0 2 1 4q2 5 5 13q5 14 16 39v1q3 8 8 18q1 3 1.5 5t1.5 4q2 5 4 8q6 16 7 18q25 69 89 303l2 10q-54 -110 -89 -199q-13 -32 -24 -62q-4 -16 -10 -41q-1 -2 -1 -3v-1.5t-1 -1.5q0 -3 -1 -6q-12 -48 -21 -75q-7 -23 -14 -41q-2 -11 0 -16q1 -3 4 -5q16 4 39 12q3 1 6 1z
M411 66q-5 0 -10 -1l-26 -4q9 0 16 1q11 2 20 4zM171 745q27 3 38 5q31 3 55 5q36 2 59 -1q31 -4 43 -17q5 -6 2 -29q1 1 1 3q1 0 2.5 3.5t4 8t3.5 6.5q4 8 6 13q6 16 3 20q-10 3 -25 4q-29 3 -74 3h-8q-16 -2 -40 -6q-4 -1 -10 -2h-2q-2 0 -4.5 -0.5t-3.5 -0.5
q-11 -2 -18 -3q-20 -3 -31 -3q-9 -1 -9 8v4q-7 0 -13 -1q12 -9 21 -20zM447 70h-3q1 -5 -3 -9l-4 -3l-3 -3q3 3 7 3zM132 742q-14 20 -12 28q2 7 10 7q2 5 7 5q54 5 142 5h9q77 9 107 -8q16 -4 21 -11q10 -13 6 -34q-7 -37 -29 -82q-14 -29 -43 -78q-13 -22 -19 -32
q-10 -38 -22 -83q-64 -235 -89 -304q-1 -3 -8 -19q-1 -3 -3 -8q0 -1 -2 -4q0 -2 -2 -4q-4 -11 -7 -19l-1 -1q-10 -25 -15 -38q-2 -4 -3 -7q15 -2 46 2q30 3 89 12q5 1 11 2q55 9 74 12q38 5 55 5h2q1 3 3 6q2 5 8 5q2 0 3 -1q6 -2 6 -8q0 -2 -1 -4q-1 -1 -3 -5v-2
q-2 -2 -3 -5q-2 -4 -3 -7q-1 -2 -2 -3q0 -1 -1 -2q0 -1 -2 -4q0 -1 -1 -1l-4 -8q-2 -5 -8 -5v-1q-3 -2 -6 -3h-3q-3 -1 -9 -1q-8 -1 -29 -3l-20 -2q-12 -1 -21 -1q-27 -3 -47 -5q-57 -5 -88 -9q-26 -4 -35 -7q-37 -12 -54 -8h-2q-11 -3 -17 -3q-4 -1 -7 0q-6 1 -9 5t-1 9
q0 2 2 5l1 1q6 13 12 27q1 3 1 6q17 77 48 164q10 36 19 63q56 156 154 363l1 1q8 38 12 60q1 11 1 17l1 3q-14 16 -87 12q-24 -2 -53 -5q-10 -1 -32 -4q-1 -4 -5 -6q-8 -4 -12 4q-4 6 -16 18q-1 -2 -3 -4q-7 -5 -12 2z" />
    <glyph glyph-name="braceleft" unicode="{" horiz-adv-x="283" 
d="M38 246q4 2 7 4q7 4 13 8q-8 -4 -14 -8zM160 -10q-1 20 -3 38q-2 20 -5 37v-7.5t0.5 -6t0.5 -3.5v-2q4 -33 7 -56zM134 432q1 -2 1 -5q1 -3 4 -18t3 -19q4 -19 6 -32q3 -25 1 -37q6 5 9 12q8 18 0 45q-4 11 -11 27q-2 6 -7 15q0 1 -1 3l-2.5 5t-2.5 4zM116 157
q6 -18 12 -40q-3 19 -5 30q-3 5 -7 10zM113 448q1 -8 3 -20q8 -56 9 -79t-1 -40q4 5 6 10q4 8 0 37q-2 11 -5 31q-1 3 -4 18.5t-3 18.5q-3 13 -5 24zM270 692q-19 1 -36 -1q-4 -1 -7 -2q-85 -56 -102 -115q-3 -9 -4 -17q-1 -19 1 -42q1 -4 2 -9q6 -24 25 -63l4 -8t4 -7
q4 -9 7 -15q7 -17 11 -30q10 -33 -1 -58q-10 -20 -35 -34l-14 -8q-5 -4 -9 -8q-14 -30 -45 -44q8 -6 16 -15q29 -15 46 -41q4 -7 7 -22q27 -46 35 -123q3 -29 5 -87q1 -42 3 -60q0 -4 1 -7v-1q12 -15 28 -11q22 6 56 41q6 7 12.5 1t0.5 -13q-37 -40 -64 -46q-13 -4 -24 0
q2 -3 3 -5q6 -5 15 -4q18 2 48 24q7 6 12.5 -1.5t-2.5 -12.5q-33 -25 -55 -28h-1q8 -6 16 -7q21 -2 50 25q6 6 12.5 -0.5t-0.5 -12.5q-68 -63 -109 5l-1 1q-2 2 -4 5q-5 9 -9 24q-2 6 -4 13q-11 18 -19 50q-6 27 -15 82q-1 2 -2 10.5t-1 9.5q-2 8 -4 20q-15 88 -33 129
q-4 9 -8 17q-21 14 -47 21q-3 0 -6 1q-1 0 -7 -1q-9 -1 -12 -1t-5 1q-2 0 -3 -1q-12 -3 -19 -3q-5 0 -9 3q-5 4 -5 11q1 10 11 17q6 4 17 6q7 2 15 2q9 10 22 19q16 9 50 21h2q10 4 17 7q6 21 4 54q-1 23 -9 77q-4 29 -6 46q-5 47 -2 80q3 43 20 74q6 11 13 20q1 2 2 3
q29 51 98 60q31 20 70 40q9 4 13 -4t-4 -12q-15 -7 -28 -14h2q9 1 10 -8q2 -7 -6 -10q-1 -9 -10 -8z" />
    <glyph glyph-name="bar" unicode="|" horiz-adv-x="134" 
d="M125 716q-1 14 -3 24v2q0 7 7 9h2q8 0 9 -8q2 -12 3 -19q3 0 6 -2q4 -2 7 -7q5 -8 -3 -13q-2 -1 -5 -1v-2v-2q0 -2 -1 -3q0 -1 -1 -2l-2 -2q1 -25 0 -60q0 -43 -5 -160q-1 -45 -2 -72q-5 -145 -1 -223q1 -16 5 -54q3 -34 4 -52q3 -69 -7 -114q-3 -13 -7 -18q-7 -8 -16 -2
q-5 3 -8 11q-17 40 -23 147q-4 84 -2 217q1 65 5 161q0 1 0.5 15t1 30t1 32.5t0.5 23.5q2 50 2 76q0 13 10 25v1h1q2 3 3 5q-5 57 -14 83q-1 1 -1 3q0 6 6 8q1 1 3 1q6 0 8 -6q12 -31 17 -52zM102 100q1 54 4 188q1 37 2 59q4 165 2 252q0 11 -1 21q0 -20 -1 -49
q0 -6 -0.5 -23t-1 -33t-1 -30t-0.5 -15q-4 -95 -5 -160q-2 -128 2 -210zM121 143q-2 -85 0 -138q0 -9 -9 -9q4 -22 9 -36q9 43 6 108q-1 18 -4 51q-2 15 -2 24zM126 647v34q-1 -3 -2 -5q1 -14 2 -29z" />
    <glyph glyph-name="braceright" unicode="}" horiz-adv-x="332" 
d="M200 551v3q-7 25 -25 46q-5 6 -11 11q-2 2 -5 2q-11 4 -25 5q50 -41 66 -67zM110 637h21q-20 11 -42 17q11 -9 21 -17zM154 337l-4 -36q-3 -31 21 -45q21 -12 63 -14q14 -1 41 -1q38 0 48 -4h1l1 1l2 1q3 2 5 4q3 2 4 4q-4 1 -11 2h-18h-1q-122 3 -141 52q-8 21 0 53
q3 13 9 30l5 15l3 7q2 6 2 8q-2 -6 -5 -13q-1 -2 -3 -7t-4 -9.5t-2 -5.5q-6 -15 -8 -21q-4 -12 -8 -21zM186 -44q-1 6 -6 23q-3 7 -4 14l-15 33q0 -6 1 -11q3 -18 19 -49q4 -7 5 -10zM154 246q6 -6 15 -9q-3 2 -6 3q-5 3 -9 6zM41 677q77 2 133 -50q29 -13 39 -42
q5 -13 5 -28q4 -14 6 -29q2 -28 -5 -62q-5 -22 -18 -58q0 -1 -3 -8l-2 -7l-5 -15q-6 -16 -8 -28q-7 -27 -1 -42q15 -39 124 -41h1h20q8 -1 14 -3q10 -2 13 -8t0.5 -13t-10.5 -14q-3 -2 -7 -4q0 -1 -1 -2q0 -1 -1 -3q-1 -8 -12 -19q-23 -21 -66 -48q-2 0 -8.5 -4t-7.5 -5
q-6 -4 -11 -7q-17 -18 -30 -33q-10 -12 -17 -22q-1 -4 -2 -7v-20q2 -24 12 -56q11 -25 15 -37q8 -22 8 -39q0 -8 -2 -16v-7q-1 -57 -57 -105q-21 -18 -39 -14q-7 1 -14 5q-1 0 -3 -1q-18 -1 -29 13q-5 7 2 12q4 4 9 1l2 4q7 6 13 0t10 -9q6 2 13 6q18 12 40 37
q-31 -16 -65 -3q-8 3 -5 11.5t11 5.5q28 -11 54 4q18 10 28 21q1 6 1 12q0 18 -13 46q-2 3 -7 12q-17 33 -20 54q-5 28 8 56q1 20 12 36q20 30 54 59q20 17 52 39q3 2 5 4q9 10 14 15h-4q-7 -1 -33 -4q-22 -3 -36 -3q-33 -2 -54 6q-29 11 -38 40q-7 20 6 64q3 8 6 17
q8 48 25 92q5 12 12 28q8 17 10 22q10 21 10 33q0 17 -19.5 40t-70.5 63q-20 -1 -44 -5q-9 -2 -10.5 7t7.5 10q14 3 26 4q-14 11 -31 24h-10q-9 0 -9.5 9t8.5 9z" />
    <glyph glyph-name="asciitilde" unicode="~" horiz-adv-x="507" 
d="M210 328q2 -2 3 -4q13 -15 29 -45q5 -9 12 -23q0 -1 2.5 -6t5 -10.5t3.5 -7.5q19 -37 32 -57q18 -27 35 -38q19 -12 40 -5q26 8 57 42q4 4 7 9q-47 -25 -78 -22q-30 3 -55 32q-17 18 -38 57q-14 27 -18 33q-22 39 -37 45zM81 186v-1q-3 -9 -11.5 -6t-5.5 11q11 37 32 71
q43 85 81 84q4 0 8 -1q24 10 46 -8q14 -12 32 -44l18 -34q20 -36 35 -53q21 -24 44 -26q36 -4 93 36q6 14 10 31q12 43 12 82q0 9 9 9t9 -9q0 -41 -12 -87q-1 -2 -2 -5q22 21 30 41q9 22 -6 37q-7 7 -0.5 13.5t13.5 -0.5q23 -23 10 -57q-11 -27 -43 -54q-7 -7 -15 -13
q-11 -25 -25 -41q-67 -74 -120 -40q-21 13 -41 43q-14 21 -33 59q-1 2 -3.5 7.5t-5 10.5t-3.5 6q-6 14 -11 22q-24 46 -41 55q-34 -17 -63 -57l-10 -16q-4 -7 -7 -14l-3 -6q-3 -6 -5.5 -11.5t-3.5 -7.5q-3 -6 -2 -9q0 -1 3 -6q10 -12 14 -18q5 -7 -2 -12.5t-12 2.5
q-4 4 -13 16z" />
    <glyph glyph-name="exclamdown" unicode="&#xa1;" horiz-adv-x="175" 
d="M158 48v58q0 78 -4 161q-1 -81 2 -176q1 -22 2 -43zM176 88q0 -116 -9 -200q1 -5 1 -10q1 -1 2 -3.5t2 -7.5q15 73 4 221zM164 502q-2 -5 -7 -6q-8 -5 -16 -4q-14 1 -15 13q0 10 10 21q7 7 15 8q5 7 13 2q3 -1 5 -5q5 -8 3 -15l-2 -4v-3q-1 -5 -6 -7zM179 -156
q-1 -2 -2.5 -3.5t-3.5 -2.5q0 -4 1 -8v-2q0 -7 -8 -9h-1q-4 0 -6 3q-3 -11 -7 -14q-7 -5 -13 1q-2 2 -3 5.5t-2 9.5q-2 19 -3 70q-1 22 -1 48v30v1v46v8q0 118 1 179q3 103 11 196q1 9 9 9h1q8 -1 8 -9v-1q-1 -8 -2 -17q7 -2 8 -8q2 -35 15 -153q6 -53 9 -87q8 -93 9 -155
q0 -81 -12 -130q-2 -6 -8 -7z" />
    <glyph glyph-name="cent" unicode="&#xa2;" horiz-adv-x="463" 
d="M167 497q13 7 28 12q7 8 15 14q-23 -10 -43 -26zM100 395q-3 -11 -6 -23q-21 -103 23 -213q20 -52 50 -88q-34 59 -44 139q-14 115 27 222q11 28 23 48q-50 -27 -73 -85zM324 487q-44 21 -102 10q-9 -2 -17 -4l-2 -2q-20 -24 -36 -66q-40 -102 -26 -212q10 -86 49 -144
q15 40 16 42q23 68 60 188q4 13 13 45q29 92 45 143zM330 504q1 3 1 5q-33 21 -68 16q-14 -2 -27 -7q52 6 94 -14zM210 49l-2 -4h1q0 2 1 4zM194 -82q-5 32 7 91l-6 4q-14 -33 -29 -68q-1 -4 -1 -6v-2q2 -3 1 -6q0 -9 -9 -8q-8 0 -10 9q-1 3 0 9q0 2 1 5v1v3l1 1q1 5 3 12
q6 22 21 61l2 6q-42 38 -70 99q-26 56 -35 117.5t2 115.5q4 21 11 39q31 103 125 140q71 28 133 -4q7 21 15 42q2 6 8 6h1q4 24 7 44q1 8 9 8h1q8 -1 8 -9v-1q-6 -48 -20 -109q18 -13 37 -34q19 -20 47 -57q1 -1 4 -5l6 -8l3 -3q8 -10 13 -17q2 -3 5 -6q5 -7 -2 -12.5
t-13 1.5l-4 6q-6 6 -13 17l-3 4q-3 3 -6 7t-4 5q-21 27 -34 42q16 -24 27 -51q10 -15 28 -44l3 -3l1 -3q7 -11 11 -17q5 -8 -2.5 -12.5t-12.5 2.5q-4 7 -11 17q-1 1 -2 3v-1q1 -9 -8 -10t-10 7q-3 25 -13 52q-6 9 -13 18q-24 32 -47 51q-25 -90 -65 -203q0 -2 -1 -4
q-5 -15 -8 -26q-11 -33 -18 -57q-20 -62 -31 -105q-6 -23 -10 -42q41 -33 86 -19q68 22 125 147q4 8 12 4.5t5 -12.5q-25 -54 -54 -91q5 4 9 9q28 29 45 75q4 9 12 5.5t5 -11.5q-8 -23 -18 -39q6 7 13 16q5 7 12 1.5t2 -12.5q-105 -144 -218 -120q-22 5 -43 16
q-9 -51 -5 -78q2 -9 -7 -10.5t-11 7.5z" />
    <glyph glyph-name="sterling" unicode="&#xa3;" horiz-adv-x="491" 
d="M135 516q-1 15 0 28q3 38 11 67q10 34 28 58q46 65 127 61q-2 1 -4 1q-58 17 -103 -31q-7 -7 -13 -15q-52 -62 -49 -140q1 -14 3 -29zM456 26q-18 -14 -39 -28q17 9 35 24zM163 42q-1 -2 -3 -3q14 -3 31 -11q3 -1 5 -2q-7 5 -15 9q-9 4 -18 7zM157 61q26 29 34 75
q3 16 4 33q-12 -58 -46 -108h8zM136 43l-8 -2l7 1zM81 19h4q5 7 9 13q-6 -3 -10 -6t-3 -7zM440 483q-3 20 0 59q1 6 1 9q-16 56 -38 94q-18 31 -42 51q-19 10 -40 14q-40 7 -75 -6.5t-58 -45.5q-15 -21 -24 -52q-8 -27 -11 -63q-2 -30 8 -80q4 -26 22 -96q4 -19 7 -32
q18 -3 32 -6q45 -2 86 9q8 2 11 -6v-3q15 1 28 0q22 -2 31 -13q5 -4 3.5 -10t-7.5 -9t-20 -2q-49 3 -113 13q-3 1 -6 1q-25 1 -39 2v-1q24 -113 13 -177q-8 -45 -33 -77q7 -2 13 -5q18 -9 49 -35v-1q17 -15 26 -21q9 -4 17 -6q27 -10 51 -11h5q18 5 51.5 24.5t59.5 40.5
q34 28 45 49v5q-1 5 4 8q0 11 -12 17q-7 5 -2.5 12.5t12.5 3.5q30 -18 16 -51q-3 -41 -48 -78q-61 -50 -124 -49q-2 -1 -4 -1q-32 -6 -62 9q-9 5 -18 11q-12 5 -30 14q-1 1 -10 5.5l-11 5.5q-12 5 -20 9q-21 9 -36 11q-4 1 -8 1q-14 -9 -31 -16q-7 -3 -13 -5q-4 -4 -7 -8
t-7 -4q-3 0 -6 2t-3 7v3q-7 3 -9 10q-5 15 9 27q8 7 25 12q6 2 15 4q7 9 11 13q4 3 6 5q3 1 6 1q55 84 45 185q-3 25 -9 54q-5 1 -10 1q-11 3 -30 8q-1 0 -5 1t-8 2.5t-5 1.5l-10 2q-44 9 -69 13q-8 1 -8 9v1q1 8 9 8h1q26 -4 53 -9q1 1 3 0t5 -1q16 -3 58 -10q5 -1 9 -2
q-5 18 -16 54q-17 52 -23 76q-10 42 -12 76q-3 85 53 152q6 8 14 16q52 55 121 36q39 -11 69 -37q58 -30 81 -89q10 -26 8 -64q0 -3 -1 -6q5 -18 11 -40q2 -9 -7 -11q-3 -1 -6 1q0 -9 1 -17.5t-7.5 -10t-10.5 7.5z" />
    <glyph glyph-name="currency" unicode="&#xa4;" 
d="M134 279q-15 55 -9 116q4 34 15 64q-17 -36 -20 -78q-4 -55 14 -102zM373 493l3 -3q13 -15 21 -23q-10 15 -24 26zM345 524q4 6 11 2q25 -13 44 -33q-6 10 -13 19q-34 43 -97 43l12 -4q21 -8 41 -25zM403 438q-16 12 -41 40q0 1 -1 2l-1 1q-19 22 -29 31q-17 15 -36 22
q-61 23 -104 -21q-39 -42 -47.5 -120t19.5 -138q22 -49 63 -66q22 -7 43 -8q56 1 98 55q46 57 53 141q1 17 0 34q0 4 -1 7q-3 10 -6 19q-5 -3 -10 1zM73 138q13 24 33 47q13 16 38 41q-11 15 -20 32q-27 56 -22 124q4 54 28 97q-47 13 -79 53q-5 7 2 12.5t12 -1.5
q14 -17 34.5 -30t40.5 -17q2 2 4 5q40 56 104 68q102 18 153 -46q9 -11 16 -24q11 16 32 40l4 4q4 4 8.5 9t6.5 6q0 1 1 2q6 7 13 1t0 -13q0 -1 -1 -2l-6.5 -6.5t-8 -8.5t-4.5 -4q-25 -28 -37 -47q11 -30 13 -66q13 -62 -10 -125q-14 -38 -38 -67q1 -1 2 -1l2 -1l2 -1
q4 -2 6 -5t3 -3q3 -4 9 -10q2 -3 2 -6l3.5 -3.5l2.5 -2.5l1 -1q29 -32 50 -35q9 -1 8 -10t-9 -8q-18 2 -36 15q-11 9 -27 26l-4 4l-8 10t-6 6q-8 9 -13 12q-14 -13 -29 -23q-37 -23 -80 -22q-9 0 -18 1q-17 3 -32 9q-2 0 -4 1q-34 13 -59 39q-24 -25 -36 -39
q-20 -23 -31 -44q-5 -8 -12.5 -3.5t-3.5 11.5z" />
    <glyph glyph-name="yen" unicode="&#xa5;" horiz-adv-x="470" 
d="M281 301q0 1 1 2q3 8 7 17q-10 -12 -19 -13v-3q5 2 9 -1zM249 298h2v8q-4 0 -8 2q3 -6 6 -10zM80 417q-11 4 -16 7l-4 4h-11h-1q-6 0 -8 5q-3 -2 -5 -4q-7 -6 -13 0.5t0 12.5q11 12 40 14q20 2 52 0q12 -1 31 -3h6q-29 45 -49 81q-38 67 -59 125q-3 8 6 11q-9 17 -14 23
q-2 2 -2 5q0 5 4 7q2 2 5 2q5 0 8 -3q10 -13 41 -72q5 -10 31 -60.5t30 -58.5q7 -12 12 -23q12 -22 22 -40h3q9 0 9 -9q0 -5 -3 -7q21 -38 36 -63q11 -18 20 -29q1 8 9 8q9 0 9 -9v-15h1q3 3 7 9q8 11 19 32q18 34 49 102v1q52 136 97 208q5 8 12.5 3t3.5 -12
q-7 -11 -13 -22q1 -4 -2 -7q-9 -14 -31 -61q-8 -18 -20 -47l-5 -11q-5 -11 -10.5 -23.5t-7.5 -17.5q-4 -9 -7 -17q-2 -5 -4 -9l-2 -6q51 5 122 3q8 0 8 -8v-1q0 -9 -8 -9l-1 1q-19 0 -49 -3q-6 0 -13 -1q1 -2 1 -4q-1 -9 -10 -9q-10 0 -22 2q-2 1 -4 1h-1h-1q-1 1 -2 1
q-16 3 -29 3q-4 -10 -9 -23.5t-8.5 -23t-3.5 -11.5q-16 -40 -27 -68q31 0 94 -3q51 -2 74 -3q9 0 9 -9q0 -2 -1 -3q7 -3 13 -6q8 -4 4 -12t-12 -4q-25 13 -73 17q-48 -1 -125 -5q-4 -3 -8 -5q-2 -1 -4 -1v-1q1 -91 3 -135q4 -72 13 -125v-1q0 -8 -8 -9h-1q-8 0 -9 7
q-2 12 -5 25q1 -20 3 -36q1 -1 1 -2q0 -7 -8 -8q-1 -1 -2 -1q-7 0 -8 8q-12 88 -14 156q-3 79 8 126q-87 -4 -121 -5q-24 -6 -45 -15q-9 -3 -12 5.5t5 11.5q16 6 33 11q3 5 8 5h8q48 12 109 16q-10 18 -23 50q-1 2 -12 29q-13 23 -30 56q-29 0 -72 -2q1 -4 0 -7
q-3 -8 -11 -6z" />
    <glyph glyph-name="brokenbar" unicode="&#xa6;" horiz-adv-x="124" 
d="M127 255q-3 -47 -1 -144v-1q1 -48 1 -73q0 -9 -9 -9t-9 9q-2 -2 -5 -2h-1q-8 1 -8 9v1q1 16 -1 79v4q-2 60 -1 80q1 18 7 24q3 3 8 3q1 11 1 22q1 8 9 8h1q8 -1 8 -9v-1zM119 452q-15 -7 -25 6q-7 8 -10 26q-4 27 -1 78q2 22 5 50l5 46v12q1 7 1 10q1 18 3 26q3 8 8 11
q7 4 16 -1q1 -1 3 -2q2 19 5 37q2 8 9 8h2q7 -1 7 -9v-1q-5 -33 -7 -72q1 -12 1 -28q-1 -13 -2 -33q-1 -1 -1 -4v-6l-1 -3q0 -6 -1 -9v-7v-9q-2 -60 -4 -90q0 -9 -9 -8.5t-9 9.5v2q-8 0 -8 9v19q0 63 14 166q-2 9 -6 13q-2 -6 -2 -19q0 -2 -1 -9v-14q-4 -33 -6 -46
q-2 -27 -4 -50q-3 -49 1 -73q2 -14 6 -18q1 -2 3 -1q8 4 12 -4t-4 -12z" />
    <glyph glyph-name="section" unicode="&#xa7;" horiz-adv-x="417" 
d="M351 319q23 -31 40 -57q-4 10 -9 18q-11 19 -31 39zM329 89l2 -2q17 -3 30 3q11 5 20 17q-27 -16 -52 -18zM211 457q-25 30 -32 38q-14 16 -23 28l2 -6q6 -12 15.5 -24t21.5 -24q7 -6 16 -12zM419 138q-3 -3 -6 -7q-1 0 -1 -1q-5 -17 -13 -29q4 3 7 6q12 13 13 31z
M90 308q1 46 38 84q-45 -30 -42 -67q1 -8 4 -17zM283 -175q43 3 73 25q15 12 26 26q-4 -3 -9 -7q-37 -32 -90 -44zM146 209q40 -54 112 -104q11 -8 25 -15q-1 4 1 8q0 1 1 1q-9 7 -46 35q-43 33 -66 52q-15 12 -27 23zM194 419q-61 -34 -79 -77q-14 -35 -1 -75
q13 -16 33 -34q12 -12 29 -25q15 -13 37 -29q8 -6 19 -15l2 -2q3 -2 6.5 -4t6.5 -4.5t5 -3.5q32 -25 51 -40q11 -6 33 -1.5t43 18.5q10 6 18 14q8 29 6 63q-22 47 -74 114q-20 26 -47 58q-3 2 -7 5q-1 1 -4 3h-1l-2 2h-1q-1 1 -1 2q-37 27 -56 43q-6 -2 -11 -4q0 -6 -5 -8z
M371 563q8 46 -26 74q-31 27 -80.5 29t-82.5 -22q-4 -3 -7 -5q-10 -16 -15 -38q-6 -23 -7 -42q10 -17 40 -53q7 -8 67 -78q14 -8 24 -15q17 -11 30 -23q36 -31 70 -78.5t51 -91.5q11 -27 0 -55q1 -2 1 -4q12 -78 -81 -96l2 -2q4 -3 8 -7l17 -17q6 -5 10 -10q11 -12 17 -26
q6 -11 9 -22q14 -31 9 -61q-9 -64 -64 -96q-49 -29 -111 -22q-41 5 -74 25q-10 3 -19 8q-51 28 -51 90q-2 6 -3 13q-1 9 8 10h1q1 9 2 17.5t10 7.5t8 -10q-8 -52 20 -89q9 -10 20 -19q12 -9 26 -15q30 -6 65 0q57 9 97 43q34 28 40 65q0 20 -5 37q-12 21 -33 45q-8 6 -17 11
q-13 8 -40 19q-1 0 -3 1q-39 17 -57 29q-115 80 -147 163v1q-27 31 -33 58q-8 33 11 63q27 40 108 77l-3 3q-3 3 -7 6q-18 15 -28 33q-4 8 -7 16q-25 49 -11 104q15 65 63 85q42 17 96 -3q15 -6 29 -13q36 -16 61 -43q10 -11 17 -23q28 -34 36 -69q2 -9 -7 -11q-7 -2 -10 5
q-2 -5 -9 -5q-9 0 -8 9q0 23 -8 44q1 -15 -1 -30q-2 -9 -10.5 -7.5t-7.5 10.5z" />
    <glyph glyph-name="dieresis" unicode="&#xa8;" horiz-adv-x="262" 
d="M69 705q6 0 8 -6q1 6 2 10q0 8 8 8q1 0 2 -1q8 0 8 -8q0 -1 -1 -2q-1 -16 -2 -38v-2v-18q-1 -23 -3 -33v-1q1 -4 -1 -7q-1 -3 -2 -5q-3 -4 -7.5 -4.5t-8.5 3.5q-2 2 -3 6q-1 5 -3 14q0 4 -1 10q-1 5 -3 11q-2 11 -2 33v20v1q0 8 9 9zM231 632q3 34 5 47q0 1 1 1
q2 11 3 26q1 8 9 8h1q8 -1 8 -9v-1q-2 -17 -2 -41q2 5 4 9q4 9 5 15q2 7 9 7h3q6 -2 6 -9v-2q-4 -15 0 -36v-4q2 -9 3 -15q1 -8 -8 -9t-10 8q-1 4 -2 13q-10 -24 -12 -39q-1 -8 -9 -8h-1q-8 1 -8 9v1q1 9 2 20q-8 2 -7 9z" />
    <glyph glyph-name="copyright" unicode="&#xa9;" horiz-adv-x="699" 
d="M467 62q7 4 13 8q92 56 137 176q46 121 15 231q-34 123 -155 176q-114 50 -223 -5q-100 -50 -157 -162q-39 -76 -43 -154q2 -19 6 -37q30 -137 176 -219q123 -46 231 -14zM67 505q15 33 36 63q40 58 95 96q-17 -10 -33 -23q-64 -52 -98 -136zM474 46q-102 -54 -209 -4
q-2 1 -3 1q-4 -2 -7 -1q-137 33 -198 156q-55 110 -28 243q28 135 125 214q108 88 261 63q197 -32 272 -175q32 -60 35.5 -132.5t-22.5 -142.5t-75 -124.5t-114 -83.5q-18 -9 -37 -14zM485 422q-2 5 -3 12q-1 1 -2 5.5t-1 5.5q-14 51 -28 72q-20 30 -63 39q-5 1 -11 2
q-36 -16 -69 -59q-10 -13 -18 -28q-16 -48 -20 -101q-4 -51 5.5 -90.5t30.5 -58.5q22 -20 56 -14q41 8 95 53q7 6 12.5 -1t-1.5 -13q-17 -14 -34 -25q0 -5 -3 -8q3 -1 4 -3q5 -8 -3 -13q-34 -21 -60 -25q-35 -5 -66 16q-78 53 -74 157q2 31 12 64q10 59 35 102q14 24 31 39
q50 65 112 31q65 -13 88 -131q1 -6 -4 -9q1 -7 1 -15q1 -9 -8 -9q-2 -1 -3 -2q-9 -2 -11 7zM616 573q-128 145 -278 127q-64 -8 -121.5 -45.5t-98.5 -96.5q-16 -22 -28 -46q60 104 156 152q117 58 238 5q129 -56 165 -187q33 -116 -15 -242q-32 -84 -90 -142q97 62 139 177
q24 66 21.5 134.5t-33.5 125.5q-36 69 -107 112q34 -26 65 -62q6 -7 -0.5 -13t-12.5 1z" />
    <glyph glyph-name="ordfeminine" unicode="&#xaa;" horiz-adv-x="266" 
d="M246 708q3 -9 1 -20q0 -3 -1 -7q5 11 4 20q0 3 -4 7zM179 576q-1 -2 -3 -4q-4 -5 -11 -13l-13 -16q-7 -9 -12 -15q-14 -18 -23 -30q-12 -15 -18 -26q-3 -15 1 -30q1 -7 4 -10q5 1 10 3q9 8 17 19q19 27 37 84q5 14 11 38zM220 666q8 14 9 25q-1 -2 -9.5 -11.5
t-11.5 -12.5q-37 -41 -63 -74q-17 -20 -30 -38q-47 -62 -58 -97q-7 -18 -3 -27q3 -7 14 -9q-2 3 -2 8q-1 5 1 12q0 4 2 8q0 2 1 5q1 0 1 1v2q3 9 10 21q5 21 20 45q20 31 67 76q1 0 4.5 4t10 9.5t10.5 10.5q1 1 1 2q11 32 22 39q2 1 4 1zM222 569q-1 -2 -2 -3
q-16 -37 -24 -53q-12 -24 -23 -42q32 45 49 88v5v5zM185 532q5 11 19 41q12 27 17 36v1v6v9q-3 -3 -12 -11q-3 -10 -10 -34q-9 -32 -14 -48zM22 682q1 19 30 34q24 13 60 20q66 14 105 1q4 -1 8 -1q40 -8 43 -33q2 -19 -14 -42q-6 -8 -15 -18v-9v-8q1 0 1 1q2 8 9 8h2
q7 -2 7 -9v-2q-1 -5 -2 -11q2 -5 3 -15q1 -21 -3 -88q7 -64 32 -106q4 -8 -3.5 -12.5t-12.5 3.5q-12 20 -20 45v-9q0 -16 2 -25q0 -4 1 -6h-1q5 -2 5 -7q3 1 6 -2q8 -5 2 -12q-5 -8 -12.5 -8.5t-12.5 6.5q-6 8 -10 28q-5 31 -8 94q-1 9 -1 19q-14 -28 -36 -57
q-19 -27 -46 -43q-19 -12 -33 -9h-2q-16 -7 -34 -6q-26 2 -34 21q-7 15 2 40q12 38 60 101q14 19 31 40q27 32 64 74q2 3 11 13t10 11q4 5 6 7q1 0 1 1l-1 1q-1 1 -3 2q-11 5 -32 6q-17 -1 -34 -5q-41 -9 -67 -27q-27 -21 -25 -46q1 -9 -8 -10t-9 8q-3 34 29 60
q-11 -7 -14 -9q-10 -5 -19 -11q-1 -8 -10 -7q-9 0 -8 9z" />
    <glyph glyph-name="guillemotleft" unicode="&#xab;" horiz-adv-x="426" 
d="M93 214q-1 -5 -1 -9q1 -23 48 -35q-18 15 -31 27q-9 9 -16 17zM204 385q12 14 22 28q5 7 12.5 2t2.5 -13h-1q3 -2 5 -6q4 -10 -4 -23q-6 -9 -18 -22q-10 -9 -27 -24q-1 -2 -14 -13t-16 -14q-20 -18 -33 -31t-22 -24q0 -14 13 -30q24 -27 92 -60q0 -1 2 -1q15 -4 26 -6
q9 -2 7 -10q0 -3 -2 -5l10 -10q3 -5 4 -10q1 -8 -5 -12.5t-16 -1.5q-6 1 -14 6q-4 2 -8 5t-10 7l-4 4q-20 14 -33 24q-7 2 -15 3q-82 14 -84 56q0 13 7 28q-7 13 -7 27q0 28 37 61q27 24 93 65zM138 318q-8 -6 -15 -12q-31 -27 -31 -48q0 -3 1 -7q0 1 1 1q1 6 3 12
q7 20 35 48zM289 211q-2 1 -3 2q-15 11 -12 23q2 9 17 22q25 21 36 30q25 23 62 76q2 2 5 7l2 4q3 4 3 5q4 5 6 9q7 10 13 14q13 8 21 -5q0 -1 0.5 -2t0.5 -2q3 -9 -2 -20q-4 -10 -15 -23q-9 -11 -24 -26q-4 -3 -8 -8q-7 -10 -12 -18q-24 -42 -22 -71q3 -35 43 -70q2 0 4 -1
q22 -10 37 -11q9 -1 8 -10q-1 -7 -8 -8q2 -1 3 -2q4 -3 4 -8q0 -2 -1 -5q-3 -4 -8 -4q-2 0 -5 2q-38 25 -62 41q-25 12 -38 15q-46 13 -45 44zM322 191q3 -1 6 -3q-5 3 -6 3zM291 233v-1q1 0 2 -1l4 8l-3 -3zM349 192l2 -2q-10 18 -11 36q-2 23 7 48q-33 -34 -39 -54
q6 -3 23 -13q9 -5 12 -7q5 -4 6 -8z" />
    <glyph glyph-name="logicalnot" unicode="&#xac;" horiz-adv-x="542" 
d="M126 366q17 -1 58 -3q9 -1 17 -1q-22 3 -43 4h-32zM84 381q34 5 75 3q34 -2 101 -12q76 -11 114 -12q13 0 27 -3h4q69 3 102 16h3q6 0 8 -6q1 -1 1 -3q0 -6 -6 -8q-18 -7 -32 -11q26 1 45 3q6 36 10 54q2 7 9 7h2q7 -2 7 -9v-2q-4 -15 -7 -45l6 2q2 1 4 1q6 0 8 -6
q1 -2 1 -3q0 -6 -6 -9q-9 -3 -15 -8q-2 -25 -4 -61q0 -5 -1 -17.5t-2 -23.5v-11q-1 -12 -1 -21q-1 -30 -5 -57q-1 -8 -9 -8h-3q-9 2 -7 11q0 2 1 12q-1 -7 -3 -13q-1 -7 -8 -7q-2 0 -3 1q-7 1 -7 8q0 1 1 2q3 17 2 63v24q0 46 9 72q5 14 13 25q-27 -3 -69 -3q-59 1 -159 8
q-24 2 -57 5q-3 0 -24 1.5t-26 2.5q-28 2 -47 4q-49 3 -77 4q-9 0 -9 9t9 9h18q-1 0 -1 1q-1 9 8 11z" />
    <glyph glyph-name="registered" unicode="&#xae;" horiz-adv-x="634" 
d="M373 568q-17 4 -36 -9t-25 -50q-1 -7 -3 -20q16 36 38 59q13 15 26 20zM340 355q19 12 36 29q-32 -26 -36 -29zM398 554q-2 1 -5 1q-15 0 -33 -19q-17 -17 -30 -44.5t-14 -45.5q-3 -41 -4 -94q5 6 15 15q5 4 24 20t21 17q36 32 50 57q0 1 1 2q4 18 -0.5 40.5t-16.5 40.5
q-3 5 -8 10zM284 130q6 55 3 160v3q-2 29 -3 45q-3 49 -3 84q-6 36 -16 69q-3 8 5.5 11t11.5 -6l4 -14q2 16 6 31q1 3 3 5q3 16 9 28q8 18 24 28q44 30 81 -5q18 -8 31 -35q18 -38 0 -77q-1 -2 -1 -4q-12 -34 -36.5 -65t-56.5 -51l-20 -9q3 -10 14 -25q13 -7 14 -7
q34 -20 66 -49q21 -20 56 -58q6 -7 -1 -13t-13 0q-33 38 -55 58q-14 13 -29 24l4 -4q7 -8 17 -17l7 -7q6 -7 13.5 -14.5l15 -15t11.5 -10.5q7 -9 13 -15h2q2 -1 3 -3q1 0 1 -1q2 -3 10 -18q2 -2 2 -4q0 -5 -5 -8q-2 -1 -4 -1q-6 0 -8 5q-2 4 -7 9q0 1 -1 1l-3 3q0 1 -1 2
q-6 7 -15 17l-11 11l-15.5 15.5l-14.5 14.5l-6 6q-10 10 -17 18q-26 27 -41 46q-6 3 -9 5t-6 3v-2q0 -90 -2 -139q-1 -7 -7 -9q-1 -9 -3 -18q-1 -8 -8 -8h-2q-8 1 -8 9q0 1 1 1zM333 700q-33 -1 -66 -10q-24 -7 -45 -16q-31 -22 -61 -61q26 26 55 44q55 35 117 43zM381 59
q-80 -4 -175 39q-14 6 -26 13q51 -55 116 -73q42 0 85 21zM429 66q-37 -25 -74 -37q83 0 169 58q91 60 110 177q14 82 -10 170q6 -47 1 -95q-7 -76 -37.5 -138t-79.5 -98q-36 -27 -79 -37zM591 556q19 -30 32 -65q48 -117 29 -230q-21 -125 -118 -189q-124 -83 -239 -53h-1
q-44 0 -85 19q-53 24 -95 75t-66 120q-24 70 -25 142t22 136q45 125 168 179q2 1 3 2q43 29 94 34q79 7 143 -22.5t107 -92.5q17 -25 31 -55zM79 482q19 77 66 139q6 8 13 16q-67 -50 -96 -132q-22 -61 -21 -130t24 -136q23 -65 62.5 -114t88.5 -71q3 -1 7 -3
q-57 37 -97 102v1q-44 45 -62 109q-29 105 15 219zM440 673q-116 32 -214 -31q-88 -56 -130 -165q-12 -46 -13 -95q-1 -120 57 -217q31 -32 74 -51q117 -53 208 -32q15 11 31 24q6 6 12 -1q2 -3 2 -6q16 8 30 18q46 34 75 93t35 131q10 111 -32 207q-43 69 -102 109
q-14 9 -28 16q-2 -1 -5 0z" />
    <glyph glyph-name="macron" unicode="&#xaf;" horiz-adv-x="304" 
d="M56 639h-1h-1q-1 0 -2 1q-8 -1 -15 -1q-9 0 -9 9q0 3 1 5q-4 0 -9 1q-8 0 -8 8v1q0 9 9 9v-1q50 -2 158 -9q5 -1 16 -1h7q1 0 3 -1q23 -2 57 -4l30 -2q17 -1 27 -2q8 0 8 -9t-9 -9q-100 7 -254 6h-1q-1 -1 -3 -1q-2 -1 -4 0z" />
    <glyph glyph-name="degree" unicode="&#xb0;" horiz-adv-x="292" 
d="M255 470q20 42 19 98q-1 32 -10 57q-1 2 -3 3l-3 2l-2 2q-16 14 -26 20q-15 8 -32 11q-11 1 -22 0q-5 -4 -10 -9q-6 -6 -13 1l-1 1q-5 -3 -11 -6q-25 -29 -40 -69q-19 -54 -8 -98q4 -20 15 -34q10 -9 22 -14q47 -21 91 6q18 11 34 29zM291 539q10 34 5 65q-4 2 -9 5
q4 -19 5 -40q0 -15 -1 -30zM209 679q15 -4 30 -12l6 -4q-2 2 -3 4q-15 14 -33 12zM280 636q5 -4 9 -7q-7 18 -20 31q6 -11 11 -24zM312 614q3 -3 2 -7q7 -46 -14 -96q-12 -28 -30 -51q-5 -9 -10 -17q-42 -58 -118 -37q-29 9 -47 31q-18 19 -26 47q-12 43 2 91q14 49 46 79
q6 5 12 9q8 9 16 15q45 38 93 21q58 -20 73 -79q1 -3 1 -6z" />
    <glyph glyph-name="plusminus" unicode="&#xb1;" horiz-adv-x="532" 
d="M321 325v9q-1 3 -1 6q-1 -7 -1 -15h2zM109 333q44 1 102 -2q29 -1 69 -3q0 22 -2 54q-2 57 -2 73q-1 7 0 28q0 9 9 9v-1q9 0 9 -8v-1v-8q6 0 9 -6q4 -7 -4 -12q0 -1 -1 -2q-2 -5 -3 -6q0 -1 -1 -2q0 -15 2 -64q2 -33 2 -56h3q10 99 8 172q0 9 9 9t9 -8q1 -32 7 -111
q3 -33 5 -52v-12q103 -6 164 -7q6 0 9 -5q17 5 30 13q8 5 12.5 -2.5t-3.5 -12.5q-38 -24 -109 -26q-41 -1 -101 6q4 -97 -11 -153q-3 -9 -11.5 -6.5t-6.5 11.5q15 54 11 150q-4 1 -8 1q-11 -88 -28 -171q-1 -7 -9 -7h-1q-8 2 -8 9q0 1 1 2q11 53 11 139v33h-2q-19 0 -45 -1
q-169 -2 -202 -2q-9 0 -9 9t9 9h17q0 3 3 5q2 3 7 4q9 2 11 -6v-1q2 0 4 -1h1q1 0 1 -1q21 1 69 1q-20 1 -36 1q-9 0 -9 9t9 9zM126 47q56 9 130 8q45 -1 135 -7h3q98 -6 147 -7q9 0 9 -8v-1q0 -9 -9 -9q-54 1 -133 -2q5 -3 4 -9q-1 -9 -10 -8q-47 9 -108 10q-35 0 -115 -2
q-17 0 -29 -1q-27 -1 -53 -1q-9 0 -9 9t9 9q23 0 53 1q36 1 147 6q-21 1 -41 2q-73 1 -127 -8q-9 -1 -10.5 8t7.5 10z" />
    <glyph glyph-name="uni00B2" unicode="&#xb2;" horiz-adv-x="280" 
d="M91 590q6 16 14 30q-17 -21 -24 -44zM230 505q-23 -36 -64 -86q-2 -2 -17.5 -20.5t-31.5 -37t-21 -25.5q-4 -5 -8 -9l10 2q1 0 2 1q28 31 50 58q45 56 72 103zM68 297q1 2 3 4.5t5 4.5h-3q-3 -5 -5 -9zM141 306q50 6 118 4q-65 11 -118 -4zM59 549q-1 45 38 90
q33 36 74 51l10 6q19 9 36 11q26 4 40 -11q19 -9 23 -30q1 -7 1 -16q6 -25 1 -56q-8 -49 -44 -112q-29 -49 -74 -105q-16 -20 -33 -40q97 16 166 -10q9 -3 5.5 -11.5t-11.5 -5.5q-4 -6 -11 -5l-16 4q5 -3 5 -8q0 -9 -9 -9q-93 2 -158 -9q-1 0 -6 -2l-1 -1q-7 -2 -12 -3
q-5 0 -10 3l-8 -4q-5 -2 -7 -3q-2 0 -3 -0.5t-2 -0.5h-3q-9 2 -7 11q2 11 11 25q-6 5 -5 12q0 5 6 11q4 4 10 9l2 2q5 4 11 9q2 2 4 3l1 1q20 19 61 75q53 71 84 128q22 39 30 66q1 24 -6 44q-3 8 -7 13q-16 5 -45 -2q-16 -10 -36 -29q-26 -26 -53 -62l-4 -6q-9 -23 -11 -45
q-1 -9 -10 -8t-8 10v4h-3q-3 -3 -6 -3q-9 0 -10 9z" />
    <glyph glyph-name="uni00B3" unicode="&#xb3;" horiz-adv-x="287" 
d="M274 667q-1 7 -4 11q-6 8 -23 7q16 -5 27 -18zM268 586q-11 -23 -27 -47l12 16q10 16 15 31zM286 438q12 35 4 51q-5 9 -19 11q-10 0 -26 -4q5 -2 9 -5q6 -5 10 -11q20 -14 22 -42zM118 442q9 3 18 10q-3 1 -4 5q-1 1 -1 3q0 4 3 6q-1 1 -1 2q0 6 5 8q33 18 57 32
q41 50 64 101q7 16 11 29q-12 35 -53 34q-14 0 -31 -6q-36 -17 -66 -45t-44 -59q-3 -6 -10 -5q0 -3 1 -6q2 -8 -6 -11q-8 -1 -11 5l-1 1q-9 2 -6 11q2 6 5 12q1 8 5 16q6 12 22 27q2 2 8.5 7.5t7 6t0.5 1.5q41 37 79 52q13 8 26 14q55 26 83 17q19 -7 22 -27q3 -19 -9 -49
q-1 -1 -2 -3q3 -16 0 -33v-2q3 -8 3 -12q4 -23 -23 -47q-9 -8 -22 -17l-6 -6q17 4 31 3q24 -1 33 -20q15 -30 -14 -91q-16 -34 -43 -69q-6 -10 -13 -18q-7 -11 -15 -21q-29 -37 -60 -47q-22 -14 -42 -20q-8 -2 -11 6.5t6 11.5q8 2 16 6q-1 1 -1 3q1 5 6 8q-1 1 -1 3
q-1 9 8 10q35 4 71 42q5 5 9 10q22 37 31 75q8 40 -3 61q-17 9 -49 3l-1 -1q-5 -6 -13 -12q-20 -15 -62 -32q-2 -1 -3 -1q-6 0 -9 6v3q0 6 5 9z" />
    <glyph glyph-name="acute" unicode="&#xb4;" horiz-adv-x="231" 
d="M103 581q-1 -4 -2 -7q-2 -9 -10.5 -7t-6.5 11q1 3 2 7q-2 4 0 8q7 25 38 57q17 18 47 44q30 25 38 32q19 17 29 28q3 3 7 3q3 0 6 -2q3 -3 3 -7q0 -3 -2 -6q-11 -11 -32 -30l-4 -4q6 -6 1 -12q-58 -66 -91 -99q-7 -7 -18 -14q-3 -1 -5 -2z" />
    <glyph glyph-name="uni00B5" unicode="&#xb5;" horiz-adv-x="419" 
d="M409 464l3 3v2q-2 -2 -3 -5zM209 48q7 7 16 20q17 24 38 67q-16 -29 -31 -49q-7 -16 -10 -19q0 -1 -1.5 -3.5t-2.5 -3.5q-3 -5 -6 -8q-2 -2 -3 -4zM154 436q0 -1 -1 -3l-2 -19q0 1 1 3q2 13 2 19zM420 267l-1 1v-14q-1 -16 -2 -29q1 10 2 21q0 11 1 21zM46 -98
q8 64 33 188q0 1 1 2q22 113 30 170q4 25 8 62q0 5 1 13q-17 -52 -31 -104q-3 -18 -13 -90q-4 -23 -6 -38q-7 -43 -24 -127q-6 -31 -9 -48q0 -31 3 -55q1 -9 -8 -10.5t-10 7.5q0 4 -1 8h-2q-9 2 -8 11q4 19 8 41q1 98 36 242q8 31 17 63q1 10 4 25q26 150 69 240q2 6 3 13
q2 6 8 6q3 6 7 9q11 11 18 -1h5q15 -3 15 -20q1 -8 -3 -23q0 -2 -1 -4l-4 -16q-1 -10 -8 -45q-8 -44 -12 -68q-10 -55 -15 -100q-4 -35 -6 -65q1 -20 2 -37q3 -45 10 -72q1 -6 3 -11q5 -6 10 -6q14 -1 38 30q1 2 3 4q6 13 19 43q36 81 57 126q9 19 17 36q30 63 51 99
q12 27 20 46q9 20 15 31q7 15 13 17q8 3 14 -3q3 -4 5 -10q1 -5 2 -12h1q5 -4 7 -11q7 -20 4 -88v-1q1 -1 1 -2v-1q0 -8 -7 -122q-1 -18 -6 -55v-1q-6 -46 -6 -70q0 -9 -9 -9t-9 9v16q-4 -25 -11 -48q-2 -7 -9 -7q1 -3 -1 -5q-5 -6 -11.5 -5.5t-8.5 8.5q-1 4 0 13q1 12 4 28
q3 17 7 40q2 8 4 21q1 1 2 5q0 4 1 5q1 6 2 10q12 63 18 99q3 55 7 87q5 37 2 52q-12 -22 -35 -76q-5 -13 -25.5 -63.5t-21.5 -54.5q-21 -51 -37 -86q-30 -67 -53 -99q-14 -20 -26 -29q-16 -12 -30 -7q-29 10 -42 50q-1 4 -3 9q-10 27 -13 76q-3 31 -3 69q-7 -43 -26 -137
v-3q-25 -123 -33 -186q-1 -9 -10 -8t-8 10z" />
    <glyph glyph-name="paragraph" unicode="&#xb6;" horiz-adv-x="475" 
d="M414 -121q1 24 -5 69q-5 46 -8 95q2 -53 5 -92q3 -44 7 -68q1 -2 1 -4zM427 629q-1 -8 -2 -17q-5 -57 -5 -130q0 -43 -2 -128q-2 -72 -2 -107q-2 -178 11 -297q3 -23 4 -41q1 27 1 63q0 1 0.5 12t0.5 24.5t0.5 28.5t0.5 22q2 105 3 178q2 179 -2 280q-2 62 -6 98
q-1 8 -2 14zM213 572q-38 -29 -67 -61q-76 -82 -58 -140q16 -55 119 -76q1 149 6 277zM230 145q0 -92 4 -153v11q0 60 -4 142zM234 587q-1 -1 -2 -1v-23zM247 690q-5 -1 -9 -2q5 1 9 2zM45 356q-18 25 -29 53q-27 64 -11 124q3 12 7 22q-18 -27 -25 -56q-18 -75 44 -131z
M355 694q-16 0 -32 -3h4h3q15 2 25 3zM189 675v2l-12 -4zM493 679q5 -2 5 -8v-4q-3 -5 -9 -5h-3q-22 9 -53 7q16 -20 20 -151q4 -102 2 -282q-1 -72 -3 -177q0 -6 -0.5 -17t-0.5 -22.5v-22t-1 -17.5v-8q-1 -53 -1 -73q-1 -69 0 -85v-1q0 -8 -8 -9h-1q-8 0 -9 9q-2 32 -2 36
v2v2t1 3t1 5q-1 -3 -1 -4q-2 -6 -5 -9q-5 -5 -12 -4q-5 1 -8 7q-2 2 -4 7q-3 8 -5 22q-5 25 -8 69q-5 77 -7 188q-1 79 5 203q2 43 6 105q1 4 2.5 35.5t2.5 39.5q2 41 4 67q2 49 3 78q-39 -8 -83 -28q-34 -16 -68 -37q-1 -38 -1 -103q0 -48 2 -176q1 -19 1 -34q4 0 8 -1
q8 0 8 -8v-1q-1 -9 -9 -9q-1 0 -1 1h-6q1 -35 1 -64q3 -205 -5 -307q4 -7 7 -9q8 -4 3 -12q-4 -7 -12 -3q-1 -11 -2 -20q1 -2 1 -3q1 -4 -2 -7q-2 -15 -4 -28q-1 -8 -9 -8l-1 1q-8 1 -8 8v2q3 16 5 35q-19 101 -22 358v50q-60 5 -112 43q-3 2 -5 5q-43 18 -71 44
q-70 63 -49 149q19 81 107 141q92 62 217 69q3 0 10 1q46 2 67 2q37 0 66 -6q24 -6 46 -15q4 -2 5 -6q5 -2 5 -8v-2zM281 669q-38 -3 -64 -7q-77 -11 -121 -38q-58 -35 -74 -95q-14 -54 10 -114q18 -43 52 -76q-9 12 -14 26q-20 69 62 158q35 38 82 72q1 16 2 30q1 8 9 8h1
q8 0 8 -9q0 -8 -1 -16q1 1 3 2q0 7 1 13q1 9 9 9l1 -1q8 0 8 -8v-1q29 18 58 31t55 21q-18 -1 -56 -3q-9 -1 -14 -1q-9 0 -17 -1z" />
    <glyph glyph-name="periodcentered" unicode="&#xb7;" horiz-adv-x="150" 
d="M121 367q2 8 9 15q8 9 18 11q14 2 20 -10q9 -18 2 -45t-23 -38q-18 -12 -31 2q-9 10 -9.5 28t8.5 30q3 4 6 7zM154 369l-2 6h-1q-3 0 -6 -3h1q5 -1 8 -3zM148 328q-5 -4 -8 -7q-8 -5 -13 2l-2 4q1 -9 4 -13q3 -2 8 1q6 4 11 13zM138 355q0 -4 2 -8q1 2 2 3l2 4q-1 0 -2 1
h-4zM125 329q0 2 2 4q-1 2 -2 3v-5v-2z" />
    <glyph glyph-name="cedilla" unicode="&#xb8;" horiz-adv-x="219" 
d="M218 -140q1 1 1 2q12 39 -1 51q-8 7 -24 7q16 -12 22 -32q3 -14 2 -28zM195 -157q9 19 3 40q-6 20 -23 27q-19 8 -45 -7q-2 -1 -4 -1q-5 0 -8 4q-1 2 -1 5q0 4 3 6q-3 2 -4 5q-4 8 4.5 20.5t34.5 37.5q4 5 14 13q0 1 1 1q0 1 1 1q2 7 7 13q4 5 10 3q1 2 3 4
q6 6 12.5 -0.5t0 -13t-16.5 -15.5v-6v-3q1 -9 0 -14q-1 -10 -7 -18q-2 -4 -5 -8q1 1 3 1q36 3 52 -11q22 -20 6 -70q-4 -13 -23 -25q-3 -1 -5 -2q-16 -28 -51 -39q-9 -3 -21 -4q-8 -1 -14 0q-10 1 -14 7q-3 5 0 10q1 2 3 4q2 1 5 2q4 2 13 6q2 0 10 3t8 4q13 4 21 8
q16 6 27 12zM135 -68q4 0 8 1q16 12 22 22q4 6 4 14l-2 -2q-21 -21 -30 -32q-1 -2 -2 -3z" />
    <glyph glyph-name="uni00B9" unicode="&#xb9;" horiz-adv-x="192" 
d="M190 577q-1 -25 -2 -55q1 36 2 55zM84 615q3 4 10 12t13.5 15.5t6.5 8.5q16 19 26 29q26 28 41 31q13 1 20 -10q4 -6 7 -18q8 -8 8 -57q0 -41 -3 -102q-5 -81 -13 -137q-3 -29 -9 -47q-2 -6 -8 -6v-1q2 -1 3 -2q7 -7 0 -13q-2 -3 -5 -4q-1 -3 -1 -6q-1 -8 -9 -8h-1
q-8 1 -8 9v1q3 26 5 118q2 65 3 95q2 80 9 129q0 6 1 11q-6 -5 -13 -12q-2 -3 -6 -7q-18 -19 -24 -24q-7 -5 -12 -7q-9 -4 -16 2l-1 1q-7 -9 -10 -13q-6 -7 -13 -1t-1 13z" />
    <glyph glyph-name="ordmasculine" unicode="&#xba;" horiz-adv-x="248" 
d="M93 504q9 -40 29 -66q27 -35 55 -28q33 9 53 74q18 62 7 127q-13 76 -64 93q-4 1 -6 5q-16 -10 -31 -34q-27 -43 -38 -107q-6 -33 -5 -64zM173 732q12 4 24 3q13 -1 27 -10q9 -5 22 -16q16 -13 21 -16q8 -5 3 -12.5t-12 -3.5q-7 5 -21 16q4 -7 8 -15q24 -50 21 -123
q-3 -74 -31 -122q-34 -57 -89 -49q-48 8 -64 68q-6 22 -7 50q-3 15 -5 31q-6 72 27 137q12 24 25 38q19 21 43 23q4 1 8 1z" />
    <glyph glyph-name="guillemotright" unicode="&#xbb;" horiz-adv-x="405" 
d="M198 199q6 6 9 10q-4 -4 -9 -10zM125 367q3 -5 6 -9q9 -13 21 -19l1 -1q16 -8 27 -23q26 -34 38 -57q9 16 7 27q-1 15 -29 32q-1 0 -14 8t-17 10q-23 15 -37 30q-1 1 -3 2zM401 251q0 1 -1 1q-2 2 -5 3q0 1 -1 1l-2 1q-9 4 -13 8q-25 20 -57 61l-26 34q-14 19 -23 29
q-2 3 -2 6q0 4 3 7q3 2 6 2q4 0 6.5 -3t7.5 -7q13 -6 18 -10l2 -2q7 -4 5 -11q3 -3 8 -10q18 -18 22 -21.5t7 -6.5q32 -31 47 -49q10 -12 14 -19q2 -2 3 -4q8 -8 8 -19q1 -9 -9 -21q-4 -5 -9 -10l-15 -13q-6 -6 -49 -39q-17 -12 -28 -21l-4 -2q-5 -4 -8 -6t-4 -2.5t-2 -0.5
q-1 -1 -3 -1q-7 0 -9 7q-2 8 3 16q3 4 9 9l3 3l3 3q25 29 57 50q4 3 7 4q20 20 31 33zM115 441q2 -33 20 -56q2 -4 5 -7q9 -6 19 -13q4 -2 21 -12t19 -11q24 -15 34 -28q14 -18 10 -41q-3 -17 -17 -38q8 -32 -24 -55l-15 -10q-2 -2 -9.5 -6.5t-8.5 -4.5q-24 -15 -40 -28
q-3 -2 -6 -2q-4 0 -7 4q-2 2 -2 5q0 5 4 7q3 3 6 5q0 3 3 5q31 28 52 50q4 9 12 18t15 18q-9 23 -41 64q-8 11 -21 17q0 1 -1 1q-15 8 -27 25q-16 23 -40 81q-1 2 -1 3q0 7 6 9q1 1 3 1q6 0 8 -6q3 -7 7 -13q-2 8 -2.5 17t8.5 9.5t10 -8.5z" />
    <glyph glyph-name="onequarter" unicode="&#xbc;" horiz-adv-x="683" 
d="M289 401q0 31 -1 72q0 26 -1 58q-4 -50 -2 -86v-8q0 -5 1 -9q1 -14 2 -24q0 -2 1 -3zM325 648q-2 -23 -3 -51l1 -1q3 -5 -1 -10v-27v-17q0 -4 -1 -7q1 0 1 -1q4 -31 7 -53q4 -41 1 -70q-3 -36 -18 -56q-2 -3 -6 -4q-6 -3 -11 -1q-19 10 -25 51q-1 12 -2 25q-1 5 -1 11v7
v1q-2 43 3 100q1 11 6 24v3l1 3q8 24 7 53q0 9 9 9t9 -8q0 -3 1 -10h1q1 9 1 11q1 11 2 19t9 8h1q8 0 8 -9zM307 398q0 -5 -1 -10q0 -6 -5 -8q-2 -3 -6 -4q3 -4 5 -7q12 19 13 58q-3 -15 -6 -29zM267 46q-8 -13 -11 -16q-2 -2 -5 -3q-6 -2 -10 3q-2 3 -2 7q0 2 2 6
q3 7 12 22q39 72 51 94q31 55 53 95q25 46 47 84q73 141 184 304q3 3 7 4l30 52q2 4 8 4q2 0 4 -1q5 -2 5 -8q0 -2 -2 -4q-31 -56 -91 -167q-65 -121 -96 -176q-71 -128 -126 -220q-4 -9 -7 -17q-28 -66 -43 -93v-3q0 -3 -2 -6q-3 -4 -17 -17q-3 -2 -6 -2q-4 0 -7 3
q-2 2 -2 6t3 6q3 4 8 10v1q0 3 2 6q1 2 4 3q5 9 11 21q-2 0 -4 2zM637 222q-8 70 -9 114v3q-19 -27 -32 -47q-3 -10 -3 -11q-12 -43 -22 -65q-2 -5 -4 -9q4 0 10 1q10 2 29 6h2q3 1 7 2t7 2h1q2 1 6 2q3 1 8 2zM664 205v1q-1 0 -2 -1h2zM630 384q-3 -4 -7.5 -12.5
t-8.5 -21.5q6 10 14 20q0 1 1 2q1 7 1 12zM660 187q2 -14 4 -32l4 -24q-1 7 -1 17q-1 18 -1 23q-1 9 -1 16h-5zM658 414q-13 -18 -12 -77q1 -43 9 -112l8 2q-1 21 -2 40q-2 96 5 154q1 9 10 8t8 -10q-7 -57 -5 -151q1 -16 2 -33q1 0 2 -1q2 -1 4 -3h4q1 1 2 1q7 0 8 -8
q1 -1 0 -2q1 -7 -7 -8l-12 -2v-10h4q8 -2 13 -2q9 -2 7.5 -10.5t-10.5 -7.5q-5 1 -13 2q0 -5 1 -12l1 -23q1 -14 1 -23q1 -25 2 -42q0 -14 1 -25q1 -1 1 -3q1 -1 1 -2q0 -3 -4 -33q0 -3 -2 -5q0 -5 -3 -24q-1 -8 -9 -8h-1q-8 2 -8 9v2q-1 1 -2 3q-2 5 1 9q0 1 1 5l1 1
q-1 14 -4 39q-3 18 -7 47q0 1 -1.5 12.5t-3.5 23.5t-2 17q-3 21 -6 38q-20 2 -35 1q-38 -1 -67 -22q-3 -1 -6 -1q-4 0 -7 3q-2 3 -2 6q0 4 4 7q7 5 14 15q-2 2 -2 4q-9 21 40 97q7 25 9 31q10 33 17 49q12 24 27 26h2q3 11 8.5 18.5t12.5 2t2 -12.5z" />
    <glyph glyph-name="onehalf" unicode="&#xbd;" horiz-adv-x="546" 
d="M218 566q5 35 12 80q-1 0 -1 1q-2 1 -3 2q-8 -26 -8 -69v-14zM199 385q1 33 7 88q0 5 -1 11q-5 67 -5 96q0 50 12 82q5 14 18 7q2 -1 3 -2q3 21 7 45q2 8 9 8h2q7 -2 7 -9v-2q-4 -27 -8 -59l2 -2q7 -5 1 -12q-2 -2 -5 -3q-4 -41 -8 -103q-1 -16 -3 -47q-6 -104 -11 -152
q-1 -8 -9 -8q-1 0 -1 1q-8 0 -8 8v2q0 5 1 11q-7 1 -8 8q-4 28 -2 31v1zM232 109q12 36 32 85q28 68 90 203q-28 -48 -46 -90v-1l-1 -2l-2 -4q-2 -6 -5 -11l-12 -28q-17 -41 -32 -78q-8 -21 -14 -39q-7 -19 -13 -36q1 1 3 1zM551 338q1 12 -2 19q-3 11 -16 12q10 -7 15 -22
q2 -4 3 -9zM208 -31q-19 -1 -23 21q-2 15 3 41q9 43 37 119q7 19 15 39q14 37 32 79l12 28q2 6 4 11l2 4q0 1 1 2l1 1q23 53 66 126q1 3 10.5 19t11.5 20q13 22 23 39q32 58 55 111q17 40 27 69q2 6 8 6q2 0 3 -1q6 -2 6 -8v-3q-13 -36 -27 -70q-12 -28 -27 -62
q-20 -44 -72 -157l-4 -10q-64 -137 -92 -205q-26 -64 -38 -105v-1q0 -9 1 -12q2 -5 0 -9q-1 -2 -3 -3q-2 -2 -4 -2q-2 -9 -3 -16q-1 -8 -9 -8h-1q-8 1 -8 9v1q3 26 5 40q-10 -32 -14 -54q-5 -24 -3 -35q1 -4 2 -5t2 -1q9 1 9.5 -8t-8.5 -10zM394 256q0 40 30 73q22 26 63 47
q21 12 43 11q28 0 36 -24q6 -16 1 -41q-16 -79 -81 -148q-5 -5 -9 -10q-20 -25 -24 -31q-5 -7 -21 -20q-8 -7 -12 -11h10q22 2 74 8q27 6 36 6q2 0 4 -1q5 1 12 1q8 2 9.5 -7t-7.5 -10q-30 -4 -50 -7q-10 -2 -28 -5q-1 -1 -2 -1q-31 -7 -45 -9q-24 -4 -31 1q-5 3 -7 9
q-2 0 -3 1q-6 5 -5.5 12t10.5 16q5 6 19 18q32 27 47 42q15 20 17 22q34 45 46 77q16 38 6 66q-7 17 -21 17t-35 -13q-17 -12 -34 -29.5t-20 -27.5q-2 -4 -5 -6q-5 -12 -5 -26q0 -9 -9 -9t-9 9z" />
    <glyph glyph-name="threequarters" unicode="&#xbe;" horiz-adv-x="675" 
d="M212 493q39 36 72.5 82.5t47.5 81.5l2 6q-14 -27 -49 -74q-6 -8 -13 -18q-1 -1 -13 -17t-24.5 -32t-16.5 -21q-3 -5 -6 -8zM304 317q40 32 56 67q4 10 7 19q-10 -19 -17.5 -31t-26.5 -34q-10 -11 -19 -21zM357 495l8 -8q-3 5 -8 8zM309 713q-22 2 -49 -19q29 15 49 19z
M208 485q0 1 1 2l-3 -3h1h2zM547 261q2 13 7 30q-6 -15 -7 -26v-4zM178 608q2 17 18 42.5t38 45.5q25 23 50 32q30 10 53 -5q8 -5 10 -14q10 -8 10 -24q-1 -15 -9 -35q-22 -57 -84 -129q19 4 38 1q9 -1 17 -4q22 2 37 -3q38 -13 30 -65q-1 -1 -1 -3q8 -34 -8 -70
q-27 -59 -112 -107l-5 -3q-4 -3 -5 -3q-14 -8 -24 -11q-25 -8 -41 6q-7 6 -1 13q3 3 8 3q-7 7 -11 18q-2 9 6.5 11.5t11.5 -5.5q6 -19 21 -16q16 2 42 24q20 17 42 43q18 20 25 31q23 38 32 66q-2 9 -7 17q-15 25 -42 36q-13 -2 -30 -7q-15 -4 -35 -11q-4 -2 -13.5 -5.5
t-17 -6.5t-8.5 -3q-8 -3 -13 -4q-3 -1 -6 -1q-5 -1 -8 2q-4 3 -4 8q0 2 1 5q1 4 4 10q5 8 17 24q4 6 16 22t24.5 32t12.5 17q7 9 13 17q36 48 50 75q7 14 9 23q-6 1 -14 -1q-18 -4 -47 -18q-32 -17 -46.5 -33.5t-23.5 -50.5q-3 -8 -11.5 -6t-5.5 11v1q-4 3 -3 8zM599 365
q-2 -7 -5 -15q-2 -5 -7 -19t-5 -15q-7 -18 -10 -29q-3 -9 -5 -17q1 3 2 5q21 44 35 102q2 9 10.5 7t6.5 -11q-14 -60 -35 -106l-13 -25q-1 -3 -2 -5q3 -1 20 -3q27 -3 49 -7q6 105 22 222q1 9 10 7.5t8 -10.5v-1q1 1 3 1q9 -2 8 -11q-16 -103 -25 -214q5 -1 11 -2q2 0 4 -1
q5 -1 10 -3q9 -2 7 -10.5t-11 -6.5l-8 2q-5 -3 -14 -3q-7 -101 -7 -205q0 -9 -9 -9h-3q-3 -1 -6 -1q-9 1 -18 16q-4 8 3.5 12.5t12.5 -3.5q3 13 2 41q-1 13 -2 30v7q0 7 -0.5 12.5t-0.5 6.5q0 47 2 96q-3 1 -7 2q-35 -3 -54 4q-18 6 -26 19q-24 14 -23 41q1 16 12 39
q3 9 9 21q1 1 3 5.5t5 10t4 7.5q18 36 24 61q3 9 11.5 6.5t6.5 -11.5q-4 -14 -10 -28q8 -3 5 -12zM389 259q26 45 65 117q0 1 1 2q96 175 147 261q5 7 12.5 2.5t3.5 -11.5q-51 -86 -148 -261v-2q-116 -209 -176 -307q-7 -20 -8 -29q0 -9 -9 -8q-3 0 -5 2l-1 -1q-3 -4 -6 -6
q-1 -1 -3 -1q-5 -1 -8 2q-2 2 -3 5v3q0 6 13 33q24 53 36 75q17 30 36 64q38 77 100 195q7 14 15 28q18 35 57 107.5t71 131.5t33 61q3 5 8 5q2 0 4 -2q5 -2 5 -8q0 -2 -1 -4q-23 -43 -88 -167q-68 -130 -106 -202q-12 -24 -24 -45q-11 -21 -21 -40z" />
    <glyph glyph-name="questiondown" unicode="&#xbf;" horiz-adv-x="468" 
d="M164 -64q7 -44 54 -75q-33 27 -54 75zM330 346q1 -5 3 -10q3 -7 12 -21q-2 16 -15 31zM165 30q2 6 6 12q24 45 69 95q33 37 73 71q30 25 34 44q1 4 1 7q-13 -21 -37 -47q-13 -14 -51 -52q-55 -55 -75 -86q-16 -24 -20 -44zM352 -137q4 3 9 6q13 11 34 33l3 3q4 3 7 6.5
t5 5.5q8 8 15 14q2 3 5 5q7 6 13 -1q2 -2 2 -6q16 17 30 37q6 7 13 2t2 -12q-58 -80 -130 -109q-15 -11 -30 -17q-30 -11 -62.5 -7t-60.5 23q-55 37 -61 93q-3 21 2 44q0 2 -1 4q-11 45 23 97q21 33 78 89q37 37 50 51q25 27 36 48q5 7 7 14q-3 6 -9 16l-1 1q0 1 -1 1v1
q-10 15 -14 24q-6 15 -7 30q0 9 9 9q3 0 5 -1q6 3 11 -1q39 -34 27 -79q0 -1 1 -3q6 -17 3 -35q-3 -16 -16 -32q-9 -10 -24 -23q-39 -33 -72 -69q-43 -48 -66 -91q-14 -27 -20 -51q19 -67 53.5 -100t80.5 -32q25 1 51 12zM298 473q4 7 9 12q7 8 13 10q13 6 18 -8
q9 -26 -3 -39q-10 -10 -28 -7q-17 4 -21 14t5 16q3 1 7 2zM323 476q-1 -1 -2 -3l-4 -4v-3q1 -5 -3 -7q5 -1 8 2t1 15z" />
    <glyph glyph-name="Agrave" unicode="&#xc0;" horiz-adv-x="471" 
d="M408 530q15 -147 28 -239q6 -41 12 -78l-20 165q-4 26 -6 48q-8 59 -14 104zM362 728q1 1 3 2q8 4 14 -2q0 1 -1 2q-2 11 -4 19q-5 -8 -12 -21zM172 245q-2 1 -3 4q-1 0 -1 1q-30 -94 -41 -168q2 7 4 18q0 1 2.5 10.5t2.5 12.5q3 14 6 24q11 49 22 77q4 10 8 21zM180 264
q15 35 43 98q2 4 7 15q35 78 52 119q28 66 44 120q2 4 5 20q4 22 6 32q3 14 6 23q-21 -43 -36 -82q-12 -29 -31 -75l-16 -39q-9 -24 -16 -40q-42 -103 -65 -172l-8 -24l2 2q4 1 7 3zM412 279q4 1 7 1q0 4 -1 9q-14 101 -34 299q-4 41 -5 59q-4 32 -9 50q-1 3 -2 9
q-2 -3 -4 -8q-4 -12 -9 -34q-2 -10 -7 -31q-3 -18 -4 -22q-17 -56 -45 -122q-17 -41 -52 -120q-5 -10 -7 -15q-24 -51 -37 -82q14 4 30 7q26 4 63 4h27q54 1 79 4h1q8 0 9 -7v-1zM340 865q1 -3 3 -6l2 -4q9 -8 14 -15q2 -2 2.5 -3.5t1.5 -3.5v-3q0 -4 -3 -6q4 -5 8 -9
q6 -6 -0.5 -12.5t-12.5 0.5q-4 5 -9 9l-2 -2q-4 -1 -7 0q-1 0 -3 1q-3 2 -17 26q-7 13 -10 20q-1 4 -1 7q-8 13 -12 20q-1 2 -1 4q0 5 4 8q2 1 5 1q5 0 7 -4q7 -10 13 -19q1 0 1 -1q1 1 1 2q3 8 11.5 5t5.5 -11q-1 -2 -1 -4zM105 51q10 101 57 238q23 69 65 173q7 16 17 40
q8 21 16 39q19 46 30 75q21 53 49 106q12 24 20 37q5 7 8 11q2 2 5 4q7 4 12.5 -2t11.5 -39q6 -27 13 -76q12 -78 30 -228q3 -23 6 -49q24 -191 30 -237q14 -114 20 -140v-2q0 -7 -7 -9h-2q-7 0 -9 7q-7 36 -17 75l-2 8q-2 8 -4.5 17t-5 19l-3.5 14q-7 31 -11 57
q-6 36 -12 73q-26 -4 -94 -5h-17q-79 -1 -112 -11h-2q-2 0 -4 1q-6 -15 -12 -29q-11 -27 -22 -75q-2 -10 -5 -24q-1 -3 -3 -12.5t-2 -10.5q-6 -27 -10 -41q-2 -7 -3 -13l1 -1l-1 -2l-1 -1v-2h-1q-1 -2 -5 -11q-3 -5 -8 -5q-2 0 -4 1q-5 3 -5 8q0 2 1 4q1 3 3 8h-3
q-9 1 -8 10z" />
    <glyph glyph-name="Aacute" unicode="&#xc1;" horiz-adv-x="440" 
d="M352 681q3 1 6 0q-2 3 -3 5q-2 -2 -3 -5zM306 573q-16 -43 -30 -91q1 1 2 5q11 29 16 44q1 4 7 26q3 9 5 16zM177 39q-2 3 -2 6v17q0 -1 -1 -5t-1 -5q-1 -3 -1 -5q0 -4 1 -10q0 -1 3 -16q0 9 1 18zM221 248q9 1 12 1q23 4 40 7q78 12 125 27q-2 53 -5 101q-8 138 -22 229
v1q0 2 -0.5 4t-0.5 3q-1 8 -2 15q-2 10 -4 15q-16 -8 -34 -61q-5 -15 -11 -38q-6 -22 -8 -27q-5 -15 -16 -44q-5 -14 -7 -21q-46 -129 -65 -202zM160 7q0 4 -2.5 14.5t-2.5 12.5q-1 8 -1 15q1 2 2 7v4q1 5 2 6q3 17 6 39q10 60 22 122q-3 2 -4 6q-1 9 7 10q31 147 78 287
q17 50 42 106q14 33 25 51q6 10 11 15q4 3 8 4q7 2 12 -3q14 -15 24 -67q11 -38 17 -114q6 -51 16 -163q0 -2 0.5 -9.5t0.5 -8.5q3 -29 5 -50q4 -1 5 -5q1 -2 1 -3q0 -6 -5 -8q7 -67 12 -111q10 -86 22 -120q3 -9 -6 -12t-11 6q-12 36 -23 124q-3 19 -5 39q0 -16 1 -33
q1 -62 1 -144v-7q0 -9 -9 -9t-9 9v3l-1 2v1v2v1v2v2v13v14q1 3 1 4v1v1v1v0q-1 53 -1 104q-1 19 -1 37q-1 12 -2 53v6q-26 -9 -87 -25q-48 -13 -74 -22q-3 -1 -5 -1q-9 -3 -11 5q-2 5 1 9q-2 -1 -4 -1q-20 -116 -25 -225q0 -9 -9 -9q-7 0 -9 7q-2 -2 -4 -3q-9 -1 -11 8z
M297 781q27 31 45 49q19 19 35 31q5 5 13 15q2 4 7 4q3 0 5 -2q4 -3 4 -7v-1q1 0 1 -2q1 -2 1 -4q0 -5 -5 -8q-7 -3 -13 -9q-8 -11 -21 -30q-2 -2 -5 -6q-15 -22 -23 -34q-6 -7 -13 -2h-1q-2 -3 -6 -3q-3 0 -6 2q-2 -2 -4 -5q-6 -7 -13 -1t-1 13z" />
    <glyph glyph-name="Acircumflex" unicode="&#xc2;" horiz-adv-x="437" 
d="M372 700q2 0 4 -1t3 -3q0 8 -1 14q-3 -4 -6 -10zM180 81l-2 8v-21q1 7 2 13zM380 564q-1 -7 -1 -18q-3 -40 -3 -55q1 -1 1 -2q3 -79 5 -116v37q-1 111 -2 154zM371 663q2 -4 3 -9q0 4 -1 8q0 3 -1 5q-1 -2 -1 -4zM369 288q-4 54 -10 201v1q-1 16 2 57q1 16 1 25
q2 39 -1 61q-1 -1 -2 -4q0 -1 -1 -2q-7 -20 -10 -31q-13 -37 -47 -138q-46 -133 -67 -206q19 5 86 23q2 0 5 1q27 7 44 12zM205 230q-5 -28 -8 -54q5 25 12 51q-2 1 -4 3zM209 244q3 1 5 2q21 79 70 218q34 100 47 138q3 10 10 31l1 2q1 3 2 5q-6 -11 -13 -26
q-7 -16 -15 -38q-8 -21 -17 -50l-2 -5q-2 -5 -3.5 -10.5t-3.5 -10.5t-2.5 -6.5t-7.5 -20.5t-14.5 -41t-11.5 -31q-29 -84 -43 -145q-2 -6 -3 -12h1zM300 750q-5 -9 -9 -17t-12 -4t-4 12q7 13 17 35q0 1 1 3q0 1 2 4q12 28 19 43q12 23 25 41q12 16 27 14q12 2 23 -8
q11 -9 21 -33q6 -13 18 -44v-2q19 -51 30 -64q2 -3 2 -6q0 -4 -4 -7q-2 -2 -5 -2q-4 0 -7 4q-14 17 -37 68q-14 33 -20 44q-12 24 -21 31q-11 -7 -24 -34q-11 -25 -16 -37q-7 -19 -10 -38q-1 -9 -10 -8q-4 1 -6 5zM164 11q-18 106 41 316q45 158 109 304q7 15 28 54
q13 23 21 35q6 8 10 12q2 3 5 4q6 3 11 0q4 -3 5 -9q0 -2 1 -7q1 -9 2 -25q3 -28 6 -87q1 -10 3 -38t3.5 -55t1.5 -29q5 -82 9 -139q21 -310 40 -367q3 -8 -5.5 -11t-11.5 6q-19 58 -41 370q-1 17 -2 35v-49q1 -137 7 -211q2 -38 6 -66q4 -21 8 -41q4 -18 8 -34q-2 -1 -3 -2
q-8 -4 -12 4q-6 10 -11 28q-4 17 -8 42q-14 83 -23 192q-1 14 -2 26q-8 -2 -14 -4h2q8 0 9 -7v-2q0 -7 -7 -9q-18 -4 -27 -7q-3 -1 -7 -2q-1 -1 -7 -4l-6 -2q-9 -4 -12 4q-1 1 -1 2q-17 -2 -32 -6q-21 -6 -37 -14q-2 -1 -4 -1h-2q-19 -73 -27 -136q3 -17 7 -33q3 -8 -6 -11
q-3 -1 -6 1l-2 -18q0 -4 -1 -12q4 1 7 2q9 3 11.5 -5.5t-5.5 -11.5q-4 -1 -7 -2q-5 -2 -6 -3q-3 -1 -5 -1q-6 -1 -10 3q-3 3 -3 8v6q-6 1 -8 7z" />
    <glyph glyph-name="Atilde" unicode="&#xc3;" horiz-adv-x="497" 
d="M349 682v-1q3 -1 5 -4q-1 7 -2 12q-1 -4 -3 -7zM365 712h-1q4 -7 9 -39q2 -18 5 -46q-2 36 -6 58q-2 14 -4 21q-2 4 -3 5v1zM179 190q4 30 10 62q-9 -37 -14 -67q1 2 2 3zM382 276q-41 -13 -81 -30q-16 -7 -30 -14q57 23 111 34v10zM381 295q-1 57 -3 100q-8 175 -38 267
q-1 -3 -3 -7q-7 -17 -15 -39q-6 -15 -8 -21q-39 -112 -81 -287q-12 -47 -20 -88q31 21 81 43q43 19 87 32zM247 753q-3 -6 -10 -5q-9 1 -8 10q6 28 16 48q8 26 32 35l10 4q31 12 88 -3q8 -3 22 -7q31 -9 44 -12q21 -4 33 -2q14 3 20 15q1 1 2 4q0 8 -2 20q-1 9 8 11q1 4 1 9
q0 9 9 9t9 -9q0 -27 -7 -45q-2 -38 -37 -42q-16 -2 -43 3l-49 14q-6 2 -10 3q-62 18 -87 12q-2 0 -3 -1q-14 -8 -24 -25q-4 -15 -3 -37q1 -9 -8 -9h-3zM171 25q-28 62 -14 160q6 41 23 105q1 4 5.5 20t4.5 18q39 143 84 261q27 69 48 104q13 20 23 29q15 13 28 6
q12 -6 17 -40q5 -28 7 -77q3 -62 4 -225q0 -4 0.5 -7.5t0.5 -4.5v-22v-4q2 -25 4 -48q5 -1 6 -6v-2q0 -6 -4 -8q0 -7 1 -13l16 2q9 1 10 -8t-8 -10q-8 -1 -17 -2q19 -198 34 -246q2 -9 -6.5 -11.5t-11.5 6.5q-4 15 -9 40q-1 -3 -4 -4q1 -2 1 -3q1 -3 2 -4q2 -4 1 -8
q-1 -1 -1 -2q-1 -7 -7 -9h-2q-7 0 -9 6q-15 45 -13 49q1 3 3 5q-1 15 -2 34q-2 38 -4 129v13q-73 -16 -157 -55q-8 -4 -12 4q-3 -2 -5 -4q-15 -75 -17 -120q1 -18 4 -35q0 -4 -2 -6q1 -1 1 -2q2 -9 -7 -11q-4 -1 -7 1q-6 0 -9 5zM175 182v0q-9 -57 -2 -100q-2 45 4 95
q-2 3 -2 5z" />
    <glyph glyph-name="Adieresis" unicode="&#xc4;" horiz-adv-x="445" 
d="M443 39q-2 12 -5 27q-4 18 -10 47q0 1 -1 7.5t-3 14.5t-3.5 16.5t-2.5 12.5q5 -45 6 -52q1 -15 3 -27q7 -29 16 -46zM366 240q8 0 14 1q-6 48 -12 112q-2 23 -10.5 117.5t-9.5 108.5q-6 55 -10 83q-1 10 -3 19q0 2 -1 3q-1 5 -3 9l-2 -4q-3 -6 -6 -16q-6 -13 -11 -30
q-2 -5 -4 -11q-1 -1 -1 -3l-1 -1v-1q-5 -15 -13 -40q-14 -53 -26 -103q-9 -54 -17 -113q-8 -62 -13 -117q19 2 42 3q36 1 65 0h1.5h1.5t14 -1q8 -1 8 -9v-1q0 -4 -3 -6zM361 803q-5 4 -4 10v2q0 9 6 16t15 8q4 4 8 5q6 3 11.5 -1t4.5 -11q0 -4 -2 -8q-4 -9 -13 -18
q-10 -10 -20 -7q-4 1 -6 4zM222 25q-18 38 -5 200h-1q-16 -103 -20 -195q6 -5 3 -12q-1 -2 -3 -3v-5q-1 -9 -10 -9t-8 9v12q-17 22 -10 99q6 71 33 189q21 91 50 197l4 12q28 162 52 200q4 5 8 9q8 6 15 5q3 0 5 -2q5 2 9 1q7 -3 11 -16q3 -9 7 -26q6 -29 13 -83
q6 -44 13 -108q4 -29 8 -71q1 -1 2.5 -15.5t3 -29.5t2.5 -20q7 -68 10 -82q3 -18 7 -39q4 -2 5 -7q0 -4 -2 -6q4 -22 10 -51q1 -5 2 -11q1 -5 3.5 -17t4.5 -22l2 -11q6 -29 9 -47q6 -27 9 -45v-1q1 -2 4 -24v-1q0 -8 -8 -9h-1q-8 0 -9 8v2l-1 1v2q-1 1 0 2l-1 1v6q-1 3 -1 4
q-6 -4 -11 1v-4l1 -1q0 -8 -8 -9h-2q-7 0 -8 7q-1 3 -1 6l-2 2v3v1q-1 2 -2 8q-1 7 -1 8v2v1.5v3.5q-2 16 -4 37q-8 29 -15 70q-6 32 -11 71q-27 -1 -61 -1q-20 1 -58 2q-20 1 -29 2q-13 -160 3 -194q4 -8 -4 -12t-12 5zM242 807q8 19 15 27q5 5 11 5q9 0 11 -9v-6
q4 -7 -3 -12l-1 -1v-1q-1 -4 -4 -7q-3 -4 -15 -12q-2 -2 -5 -2q-5 0 -8 4q-1 3 -1 5v1q-2 4 0 8z" />
    <glyph glyph-name="Aring" unicode="&#xc5;" horiz-adv-x="459" 
d="M421 120q-2 16 -3 34q-2 33 -4 72q0 -38 3 -70q1 -19 4 -36zM396 264q1 29 3 63q2 33 6 89v2q-12 143 -22 209q-10 -18 -20 -44q-27 -67 -61 -181q-20 -69 -42 -151q20 6 45 8h31q38 1 58 5h2zM367 665l-4 2q-2 -4 -4 -10q-11 -26 -26 -72q-22 -67 -37 -118
q-4 -15 -10 -36q12 37 26 79q7 19 22 58l21 57q6 19 12 40zM406 661q4 -14 7 -33v12q-1 13 -3 20q-2 0 -4 1zM454 29q5 2 9 -1q-15 52 -26 113q6 -75 17 -112zM359 745q2 -23 21 -44q3 -2 5 -6q4 -1 7 -4q2 -2 3 -5q1 -1 3 -1q21 12 36 42q17 33 9 53q-9 20 -49 9
q-6 -2 -11 -4q-20 -17 -24 -40zM222 2q-17 -5 -25 6v1l-1 -1q-1 -9 -10 -7.5t-7 10.5q3 22 7 44q1 70 30 188q10 41 23 91l40 138q15 51 37 119q15 46 26 73q4 9 7 16q-3 5 -6 11q-4 7 2 11q-9 21 -5 44v2q0 36 33 52q3 3 6 5q43 30 69 12q24 -17 23 -69q-1 -72 -35 -86
q-4 -2 -7 -2q1 -8 2 -19.5t0 -26.5v-2v-2v0v-2v0q1 -36 -2 -90q-1 -24 -3 -55q1 -36 2 -103q1 -8 1 -11q8 -89 17 -150q14 -96 36 -171q3 -8 -6 -11q-6 -1 -10 3q0 -4 -3 -6l-1 -1l-1 -1l-1 -1q-1 0 -1 -1q-4 -2 -7 -2q-3 -1 -5 0q-1 0 -2 -1q-8 -4 -12 4q-27 54 -34 144
q-3 40 -3 91q-3 -1 -7 -1q-2 -6 -8 -6q-16 0 -35 -1q-3 -1 -6 -1q-5 -1 -11 -2h-3t-4 -1h-3q-46 -6 -66 -10q-24 -96 -31 -135q-1 -4 -2 -11q-1 -1 -2.5 -7t-1.5 -7q-2 -7 -3 -12q-5 -21 -3 -30q0 -1 1 -2q0 -1 0.5 -1h1.5h5q8 3 10.5 -5.5t-6.5 -11.5zM451 720l-1 -1
q-12 -25 -31 -41h1q0 -1 1 -1q4 0 8 2q17 7 22 41z" />
    <glyph glyph-name="AE" unicode="&#xc6;" horiz-adv-x="822" 
d="M440 657q0 -3 -2 -4q-7 -7 -13 0l-1 1q6 -27 12 -67q10 -59 16 -118q0 61 -3 109q-3 47 -9 79zM426 707q-7 11 -13 9q-7 -2 -14 -6q3 -1 5 -3h22zM221 231h-5q-3 0 -6 2q0 -2 -1 -3q6 0 12 1zM434 685v-5q0 -8 2 -12q1 -1 2 -3h1q-2 9 -4 16q0 2 -1 4zM549 -2q11 2 26 3
q-38 -1 -67 -5q16 0 41 2zM694 340q-23 1 -51 -2q-20 -3 -45 -8q26 0 47 1q9 0 9 -9t-9 -9q-2 0 -15.5 -0.5t-16.5 -1.5q-18 0 -31 -1q-58 -2 -107 -5h-1q-2 0 -4 1q0 -38 1 -75q2 -58 4 -107q4 -51 9 -112v-2q23 5 52 7q3 4 8 4q15 -1 31 -2q21 1 44 1q29 0 60 -1
q68 -1 104 -4q9 -1 9 -9q0 -1 -1 -1q0 -8 -8 -8h-1q-5 0 -10 1q-3 -3 -6 -3h-1q-32 3 -78 -1q-18 -1 -42 -4q-9 -1 -23 -2q-50 -6 -68 -7q-11 -1 -21 -2q-20 -1 -34 -1q-9 0 -9 9q0 4 3 7q-10 -2 -19 -4t-11 6q-1 6 3 10q-4 36 -6 76q-22 234 -61 543q-1 25 -2 36
q-2 9 -3 16q-1 0 -2 -1h-3t-3 1q-3 -5 -5 -11q-5 -11 -11 -26q-5 -13 -13 -35q-7 -19 -8 -22q-43 -91 -89 -214q-21 -54 -44 -120q29 1 70 1q8 -1 25 -1q70 -1 109 1h1q8 0 9 -9q0 -9 -9 -9q-8 -1 -15 -1l16 -4q9 -2 6.5 -11t-10.5 -6q-79 21 -216 0q-4 -11 -8 -23
q-1 -4 -6 -18.5t-12.5 -37t-13.5 -38.5q-11 -46 -18 -90q-2 -8 -10.5 -6.5t-7.5 10.5l2 12h-1q-6 2 -6 8q0 2 1 3q12 35 38 130q6 24 13 48q1 1 1 2q-2 2 -2 4v2q0 6 6 8q23 82 39 134q47 158 87 245q54 117 105 131q16 4 28 -12q5 -6 8 -15q18 1 43 2q20 1 42 2q18 1 44 2
q33 2 54 3q138 6 209 2q9 0 9 -9q-1 -9 -9 -9h-1q-52 3 -112 -2q-9 -1 -17 -1q1 -2 1 -4v-2q-1 -8 -9 -8q-1 0 -1 1q-22 4 -49 6q-14 -2 -33 -4q-24 -4 -25 -4q-67 -9 -111 -11q-8 0 -8.5 8.5t8.5 9.5l28 2h-14q-11 -1 -19 -1q-12 -1 -23 -2q0 -1 1 -2q10 -38 14 -107
q3 -55 3 -132v-3v-3v-5v-7v-89q21 2 71 8q12 2 19 3q88 10 135 7q8 0 8 -9t-9 -9z" />
    <glyph glyph-name="Ccedilla" unicode="&#xc7;" horiz-adv-x="615" 
d="M406 784q60 5 118 -32q18 -12 31 -28l-6 12q-18 27 -41 42q-38 24 -87 14l-1 -1q-7 -3 -14 -7zM278 41q-93 56 -128 168q10 -63 44 -106t84 -62zM311 726q-81 -63 -127 -190q-1 -3 -2 -5q14 28 32 58q43 74 89 127zM337 -64q8 11 12 20q3 8 3 14h-1q-6 -14 -11 -26
q0 -2 -1 -4zM379 -160q8 10 12 22q16 42 -15 56q-2 1 -5 1q-6 1 -13 -2q1 -1 3 -2q21 -11 21 -47q0 -14 -3 -28zM605 538q-4 14 -8 40q-3 12 -4 17q-5 12 -13 37q-1 2 -1 3q-1 1 -1 3q-12 36 -23 55q-16 27 -41 44q-72 47 -145 21q-25 -22 -52 -53q-45 -53 -87 -125
q-35 -58 -50 -97q-22 -56 -31 -119q-2 -51 6 -97q4 -22 10 -43q12 -33 31 -64q50 -80 124 -117q12 -6 24 -11q27 -6 54 -3q62 11 110 54.5t67 115.5q2 9 11 6q1 0 2 -1q12 38 15 72q0 9 9 8.5t9 -9.5q-4 -51 -27 -104q0 -2 -1 -4q-43 -117 -125 -151q-46 -19 -99 -9
q-3 -4 -2 -8q0 -2 1 -10q2 -9 2 -16q0 -12 -4 -23q-3 -7 -7 -14q8 2 15 1q5 -1 10 -3q21 -9 27.5 -31t-3.5 -47q-7 -19 -20.5 -33.5t-29.5 -19.5q-19 -18 -45 -8q-9 3 -6 11q2 3 4 5q-5 5 -1 11q5 8 12 3q1 0 3 -1l2 -2q2 -1 3 -2q3 -1 15 -1h4q1 2 2 3q14 18 13 46
q0 25 -11 32q-14 7 -40 -19q-3 -3 -6.5 -3t-6 3t-2.5 6.5t2.5 6.5t5.5 5q0 2 1 5q1 4 3 11q4 12 12 31l2 4q5 12 11 28q0 1 1.5 4.5t3 6.5t1.5 4t1 2q0 4 3 9l3 3q-78 4 -136 52q-65 55 -80 147q-8 50 -6 105q-1 15 -1 29q0 139 68 266q63 119 154 175q35 21 69 28
q62 26 109 -16q23 -20 39 -48q37 -56 50 -153q10 -20 23 -34q6 -7 -1 -13t-13 1q-1 1 -2 3q0 -4 1 -7q2 -9 -6.5 -11t-10.5 7z" />
    <glyph glyph-name="Egrave" unicode="&#xc8;" horiz-adv-x="532" 
d="M388 697q20 2 32 4q-18 -2 -32 -4zM257 629q18 22 50 37q6 3 13 5q-6 -1 -13 -2q-30 -7 -41 -19q-6 -5 -9 -21zM266 317l10 4q-3 -1 -6 -1q-3 -1 -5 0v-1v-3zM379 780q-1 -1 -3 -1q1 -5 -3 -8q-7 -5 -13 2q-11 15 -26 42q-27 29 -41 46q-6 7 1 13q5 3 10 1q1 2 2 3
q3 2 6 2q4 0 7 -4q5 -7 12 -17q1 -2 3.5 -5.5t5.5 -7.5l2 -4q22 -32 37 -49q3 -3 3 -6q0 -4 -3 -7zM265 337q24 6 71 16q44 10 65 15h2q7 0 9 -7v-2q0 -7 -6 -9q-8 -1 -14 -3q-11 -3 -21 -6q0 -3 -2 -6q-3 -4 -13 -10q-20 -11 -76 -37q-8 -3 -12 5q-1 3 0 6q-1 0 -1 1
q7 -74 8 -82q5 -49 5 -68q0 -7 -2 -22q-1 -6 -2 -15q-1 -2 -1 -4q0 -3 -1 -4q0 -5 -1 -8q-1 -7 -2 -13q9 -58 20 -82q7 -1 17 -1q2 1 4 3q1 0 4 2t5.5 3.5t3.5 1.5q7 4 10 5q34 12 92 15q14 1 34 1q28 8 32 10q9 4 13 -4q1 -2 0 -5q25 1 39 3q1 1 2 1q7 0 9 -8v-2
q0 -7 -8 -8q-2 -1 -40.5 -8t-52.5 -9q-23 -4 -43 -7q-35 -6 -61 -9q-14 -3 -25 -5q-14 -4 -22 -5q-4 -1 -7 -1q-6 -1 -8 0q-12 -2 -20 3q-5 4 -9 14l-2 2q-9 10 -9 36v12q-3 23 -7 54q-9 93 -13 223q-4 131 0 225q5 108 21 123q32 31 121 45q22 4 52 7q4 0 22 2t21.5 2.5
t5.5 0.5q9 1 10 -8q1 -5 -3 -8v-3q0 -6 -5 -8q-20 -10 -68 -21q-1 0 -7.5 -1.5t-8.5 -2.5q-10 -2 -16 -4q-37 -9 -59 -19q-29 -13 -45 -31q-12 -15 -17 -109q0 -13 -1 -28q2 -36 6 -82q2 -28 5 -63q1 1 2 1z" />
    <glyph glyph-name="Eacute" unicode="&#xc9;" horiz-adv-x="477" 
d="M298 5q-7 10 -12 35v-11q1 -9 1 -15q1 -2 1 -4q3 -3 10 -5zM253 555q3 -92 12 -203q3 -34 6 -66q4 136 3 153q-1 12 -5 34q-2 7 -5 22q-3 18 -4 23q-5 22 -7 37zM263 699q-7 -4 -9 -9q-1 -3 -2 -12q4 12 11 21zM295 333q-2 -1 -5 -1q0 -23 -2 -65q0 -25 -1 -43
q-1 -42 -1 -73q1 -12 3 -22q13 -97 24 -114q0 8 1 20q0 5 1 12q0 1 1 7l1 6q1 6 1 7q0 112 -23 266zM292 351h-1v-1zM312 771q-5 -6 -11 -2q-8 4 -4 12q28 51 89 103q2 2 6 2t7 -3q2 -3 2 -6q0 -4 -3 -7q-47 -40 -76 -95q-3 -7 -10 -4zM430 726q-2 0 -5 -1q-6 -1 -10 -2
q-28 -5 -47 -10q-68 -17 -84 -36q-9 -10 -9 -52q0 -37 7 -94q4 -28 9 -61q2 -11 5.5 -32t6.5 -38l3 -17l2 -14q7 -1 12 -1q57 -1 89 3q0 1 1 0q8 1 9 -7v-2q0 -7 -8 -8q-7 -1 -16 -3q6 -1 7 -7q2 -9 -7 -10q-17 -3 -52 -1q-14 1 -21 1h-9q23 -155 23 -267q0 -2 -1 -9l-1 -6
q-1 -6 -1 -8q-1 -6 -1 -11q-2 -14 -1 -22v-2q11 0 40 9q0 1 1 1q27 9 38 10q1 1 3 2q5 4 11 -1q4 0 16 -2h9q27 -2 32 3q6 7 12 1q1 0 1 -1h1q9 -4 5 -12q-5 -11 -22 -15q-10 -2 -28 -2h-13q-18 1 -22 0q-2 0 -11.5 -2t-17.5 -4l-8 -2q-16 -4 -28 -6q-26 -4 -43 -3
q-24 2 -33 15q-5 5 -6 28q-1 18 -1 51q0 29 1 71q-11 86 -21 200q-10 125 -13 224q-3 105 3 123q8 18 39 26q14 3 35 6q17 5 45 11q6 1 16 3l8 1l8 2q19 4 29 6q3 4 8 3l6 2q8 3 12 -5v-5q2 1 3 1q9 2 11 -7t-7 -11l-15 -3q-2 0 -5 -1z" />
    <glyph glyph-name="Ecircumflex" unicode="&#xca;" horiz-adv-x="440" 
d="M225 435q-4 -52 -6 -106q-4 -121 4 -207q8 -94 27 -114q1 -1 3 -1q-10 8 -10 21l-2 32q-2 33 -4 74t-3 63q-4 83 -7 151v7q-4 4 -2 9q0 2 2 4q-2 36 -2 67zM246 321q2 -57 6 -123q1 -22 3 -63t4 -73l2 -33q0 -5 2 -7q1 0 2 -1q0 1 1 1h2q7 0 20 0.5t30 1.5q-17 3 -29 17
q-16 17 -28 114q-9 70 -15 166zM324 707q-22 -4 -38 -9q-25 -8 -31 -19q-2 -5 -5 -15q1 0 1 1q2 5 4 8q9 15 40 26q12 4 29 8zM313 349q20 -2 35 2q-10 0 -30 -1q-3 -1 -5 -1zM350 369h4q4 1 8 1q10 0 15 -2q8 -2 9.5 -8.5t-5.5 -11.5q-7 -6 -12 1q-1 1 -2 3h-5h-3
q4 -2 5 -6q3 -9 -6 -11q-1 -2 -3 -3q-2 -2 -5 -3q-5 -1 -13 -2q-13 -2 -37 -3q-2 0 -17 -1t-18 -1h-1q6 -96 15 -165q11 -91 24 -104q15 -17 51 -11q5 1 13 2q7 2 11 2q5 1 20 1h5q10 0 16 1q3 1 5 1q1 1 2 1q7 6 12.5 -1t-1.5 -13q-5 -4 -16 -6q-6 -1 -17 -1h-6h-17
q-3 -1 -11 -2q-5 -1 -8 -2q81 3 91 4q9 1 10 -8q1 -8 -6 -10q-2 -3 -5 -4q-24 -11 -88 -14q-19 -1 -59 -2h-21h-4l-2 -1h-4q-5 -1 -9 -1h-14q-9 1 -13 5q-24 25 -33 126q-8 88 -4 210q4 116 16 209q4 28 8 51q3 77 15 98q9 17 41 27q22 7 61 13q9 1 23 3l11 2q7 1 11 1
q32 5 42 9q9 3 12 -6q1 -4 -1 -7q8 2 11 -6q3 -9 -5.5 -12t-25.5 -6q-4 -1 -30.5 -5.5t-32.5 -5.5q-16 -3 -28 -5q-17 -6 -30 -12q-20 -10 -32 -23q-6 -25 -8 -97q-2 -83 3 -191q18 -2 55 1q20 1 30 1h3zM254 763q1 2 8 13t9 13q9 15 15 24q16 24 26 37q9 11 16 18
q8 8 15 11q4 2 9 2q5 1 9 0q7 0 13 -2q14 -7 30 -34q10 -18 26 -54l7 -10q2 -4 1 -8v-1q1 -2 1 -4q0 -6 -5 -8q-2 -1 -4 -1q-6 0 -8 6l-8 18q-19 28 -23 34q-14 21 -22 30.5t-13 13.5q-7 -5 -20 -20q-9 -11 -29 -38q-1 -1 -9 -12q-5 -8 -9 -13q-12 -16 -22 -29q-3 -4 -7 -4
q-3 0 -5 2q-4 3 -4 7q0 3 2 5q0 2 1 4z" />
    <glyph glyph-name="Edieresis" unicode="&#xcb;" horiz-adv-x="482" 
d="M258 43q-4 17 -9 41q2 -13 4 -23q3 -11 5 -18zM239 673q-3 -11 -5 -30q-4 -31 -4 -80q-1 -96 9 -226q9 -131 23 -222q6 -33 11 -56v5q1 2 1 3q0 22 -6 93q-1 13 -4.5 50t-6.5 68l-3 31q-1 20 -3 37l-2 4q0 3 1 6v9q-4 3 -4 7t3 7q-11 129 -13 200q-2 67 3 94zM344 22
q16 5 24 8q13 5 19 6q11 1 41 -1q5 -1 8 -1q11 -1 19 -1q-4 1 -10 2q-4 0 -9 1q-25 6 -32 5t-23 -5q-6 -1 -15 -4q-1 0 -8 -2t-9 -2l-15 -5q-3 0 -6 -1q-12 -5 -20 -7q-10 -2 -17 -1h-1h-3q2 -4 3 -5q2 -1 14 1t31 9q4 1 9 3zM301 368q-20 -2 -33 -3v-3q6 1 20 3v1q8 1 13 2
zM272 345q-1 0 -2 -1q1 0 2 1zM260 776q-1 1 -2 1q-9 8 -4 20q4 7 12 10q3 1 7 0q0 1 1 2q2 3 6 4q8 2 11 -6q2 -4 0 -10q-1 -10 -7 -18q-3 -2 -5 -4q-1 -1 -1 -3q-3 -8 -12 -6q-7 3 -6 10zM439 733q-15 -6 -57 -15q-1 0 -14.5 -2.5t-17.5 -2.5q-35 -7 -55 -14
q-25 -8 -34 -17q-2 -1 -3 -8q-2 -8 -3 -22q-2 -27 -1 -72q2 -71 12 -197q17 1 50 4h2h1q41 3 62 5q9 1 10 -8t-8 -10h-5q0 -3 -2 -5q1 -1 1 -4q-1 -3 -3 -6q-3 -2 -4 -2h-3h-3v0v1h-1q-5 1 -13 0q-29 -4 -79 -34q1 -6 1 -14q11 -120 14 -149q5 -71 5 -94v-4v-5v-11
q0 -7 1 -11v-3h1q12 2 29 6q3 1 5 2q5 2 11 5l10 5q6 3 9 5q11 5 17 6q20 3 56 2h3q41 -1 60 3q9 2 11 -7v-4q4 -5 0 -11q-3 -5 -7 -8q4 -6 -2 -11q-10 -9 -28 -11q-12 -1 -32 1q-4 0 -9 1q-27 2 -36 1q-5 -1 -16 -5l-24 -8q-5 -2 -9 -3q-21 -7 -33 -10q-19 -3 -28 2
q-7 4 -13 20q-8 1 -14 4q-10 5 -17 40q-6 28 -11 77q-9 90 -12 226q-4 128 -2 228q1 49 4 78q2 34 8 41q14 18 50 28q25 6 67 9q15 2 48 3q40 2 53 4q9 2 10.5 -7t-7.5 -11h-4zM384 791q1 2 1 4q0 1 1 2v1v4q1 3 5 10q3 5 8 5q3 0 5 -2q2 -1 4 -4l4 -2q7 -2 8 -8t-4 -12
q-2 -3 -9 -8q-5 -5 -11 0q-2 -1 -4 -1q-9 2 -8 11z" />
    <glyph glyph-name="Igrave" unicode="&#xcc;" horiz-adv-x="171" 
d="M155 43h1q-2 12 -4 29q-2 16 -3 36v18q-2 27 -5 63q-2 -28 -1 -52q1 -55 12 -94zM176 36q1 1 1 2q0 37 -6 87q-1 16 -5 49q-7 51 -9 77q-4 44 -3 79q2 48 10 144q3 38 5 57q5 66 5 114q-2 -13 -6 -30q0 -2 -1 -7q-4 -20 -7 -33q-2 -41 -4 -96q-2 -34 -3 -79
q-1 -16 -2 -38q0 -1 -0.5 -16t-0.5 -18v-4q1 -13 2 -27l6 -69q6 -67 8 -101v-3q1 -3 1 -8v-7q1 -20 3 -36q2 -24 6 -37zM172 798q3 -5 6 -9q5 -7 -2.5 -12t-12.5 2q-7 11 -17 24q-3 2 -6 5q-15 13 -30 23q-7 5 -2 12q0 2 2 3q-5 5 -9 8q-3 3 -3 6.5t3 6.5t6.5 3t6.5 -3
q6 -5 10 -9q1 -1 4 -3l2 -2q1 -1 2 -1q3 -3 6 -7q15 -20 27 -34l5 -6l1.5 -1.5t0.5 -2.5v-2v-1zM186 752q11 -86 1 -222q-2 -20 -5 -58q-8 -95 -10 -142q-1 -35 3 -77q2 -26 8 -77q5 -33 6 -49q6 -51 6 -89q0 -6 -2 -13q-2 -5 -4 -8q-3 -6 -8 -7q-10 -3 -16 7q-3 4 -5 10
q-1 -2 -1 -3q-2 -2 -4 -3q-4 -3 -9 -1q-3 1 -5 4q0 2 -0.5 3.5l-1.5 4.5v1v1q-1 2 -1 3q-12 41 -13 100q-1 41 4 99q1 16 3 87q-8 117 2 201q2 24 8 54q2 40 5 70q3 37 7 59q4 26 11 32q2 1 5 2q-1 4 -1 9q-2 9 7 10t10 -8z" />
    <glyph glyph-name="Iacute" unicode="&#xcd;" horiz-adv-x="176" 
d="M158 289l2 -22q-1 35 -2 69q-1 -24 0 -47zM179 416q0 -44 -1 -128v-21v-31l2 28q3 88 -1 152zM163 16q3 43 -1 88q-3 28 -10 77q-2 12 -2 16q-9 55 -10 91q-2 50 4 151v2v2q5 90 4 137q-1 75 -17 134v3q0 7 7 8q1 1 2 1t2 -1q2 5 7 6h1q8 0 9 -8t2 -20q4 6 8 11
q7 6 13.5 -0.5t-0.5 -12.5q-5 -5 -9 -15q0 -1 1 -2q4 -8 -4 -12h-1q-1 -4 -1 -7q-2 -20 -1 -43q3 -24 5 -49q2 -12 5 -27q2 -9 5 -27q12 -65 14 -95q5 -67 2 -161q-3 -56 -9 -144q-1 -4 -2.5 -27t-2.5 -28q-1 -12 -1 -21v-28q0 -9 -9 -9h-1h-1h-1q-8 1 -8 9v1zM187 875v-1
q3 -1 4 -2q2 -3 2 -6q0 -4 -3 -7q-12 -10 -23 -26q-8 -10 -21 -33q-14 -24 -22 -34q-5 -8 -13 -2q-2 1 -3 3q-3 -4 -8 -4q-2 0 -4 1q-5 2 -5 8q0 2 1 4q5 9 11 19q-8 4 -3 12q12 22 52 52q2 2 6 5l3 2l2 2q7 5 11 8q3 2 6 2q4 0 7 -3z" />
    <glyph glyph-name="Icircumflex" unicode="&#xce;" horiz-adv-x="216" 
d="M163 168q1 20 1 40q-2 45 -10 115q2 -49 7 -119q0 -16 2 -36zM167 367v9l-3 67q-3 94 -5 148q-9 -73 4 -188q1 -14 4 -36zM155 677q0 7 -1 14q0 1 1 3q-4 -3 -9 -2q-2 -4 -3 -16q2 3 7 3q3 0 5 -2zM158 605q-1 20 -2 37l-3 -33q3 -1 5 -4zM35 758q24 47 45 74
q54 68 89 50q2 -1 4 -3q6 -2 12 -9q11 -11 25 -45q0 -1 2 -6t3 -6q3 -7 5 -11q7 -16 12 -22q3 -2 3 -6t-2.5 -6.5t-6.5 -2.5q4 -7 8 -8q8 -3 5.5 -11.5t-11.5 -5.5q-12 4 -20 21q-5 10 -12 32q-1 2 -3 8.5t-2 8.5q-13 40 -24 51q-2 2 -4 3q-4 0 -9 -5q-26 -25 -63 -74
q-3 -3 -7 -8q-1 -1 -1.5 -2t-1.5 -2q-2 -3 -3 -4q-6 -7 -13 -2q-1 1 -2 3q-7 -12 -12 -20q-2 -5 -8 -5q-2 0 -4 1q-5 3 -5 8q0 2 1 4zM172 692q4 -80 10 -248q2 -52 3 -67q10 -282 17 -354v-1q0 -8 -8 -8q0 -1 -1 -1q-8 0 -9 9q0 5 -1 10v2v0v1v1q0 1 -1 3q0 2 -1 15
q-1 9 -2 15v3v1v1v1v1v1q0 1 1 2q-2 22 -3 51q-1 -4 -1 -5q-7 -61 -5 -127l1 -1q0 -8 -9 -8l-1 -1q-8 0 -8 9q-2 34 -5 93l-6 112q-5 74 -7 125q-5 106 -5 181q0 5 -1 21q0 3 -1.5 18t-1.5 17q-2 22 -2 38q-3 49 -1 74q2 17 7 25q8 15 22 8q6 -3 5 -10q2 2 5 2q9 0 9 -9z
" />
    <glyph glyph-name="Idieresis" unicode="&#xcf;" horiz-adv-x="182" 
d="M150 501v52q-1 43 -4 78q-2 -45 0 -96q1 -31 3 -65q1 15 1 31zM168 501v-79q-1 -74 -1 -112v-11q17 -147 21 -217q7 -34 17 -64q3 -9 -5 -12q-8 -2 -11 5q-1 -18 -5 -23q-6 -11 -15 -4q-4 2 -7 8q-3 8 -8 25q-8 28 -16 71.5t-8 58.5q-1 66 8 175q1 7 2 24q1 8 2 15
q-1 3 -1 7q-11 98 -13 166q-4 90 6 165q1 9 10 7.5t7 -10.5q0 -6 -1 -12q8 0 9 -8q11 -80 9 -171v-4zM170 80q-8 36 -13 78q-4 39 -6 85q-3 -52 -3 -96q0 -13 8 -55t15 -70q1 20 -1 51v7zM109 799q0 -9 -9 -9q-3 0 -7 2q-5 4 -7 10v1l-1 1q-2 2 -2 4l-1 1q-1 3 0 5q1 4 5 6
q1 1 2 1q1 3 3 5q2 5 5 6q11 7 15 -5q3 -6 -1 -24q0 -2 -2 -4zM192 813q0 -8 -8.5 -11.5t-20.5 1.5q-6 2 -9 6q-7 9 2 16q7 6 36 6q10 0 10 -9t-10 -9z" />
    <glyph glyph-name="Eth" unicode="&#xd0;" horiz-adv-x="386" 
d="M142 128q-1 12 -2 33q-1 18 -1 29q-1 -15 -1 -29q2 -17 4 -33zM352 513q-44 83 -129 128q-5 3 -12 7q-3 2 -7 4l-3 2q-2 1 -3 1q-7 5 -12 7q-20 11 -35 15q-2 -4 -5 -5q6 -3 13 -8q5 -3 11 -6q7 -3 19.5 -9.5t21.5 -10.5l9 -5q87 -51 137 -137l-4 14q-1 2 -1 3zM389 343
q-2 11 -3 22q-3 -38 -13 -75q-28 -117 -97 -194q-38 -43 -81 -62q39 -1 58 5q11 4 16 11q3 5 6 19q3 16 6 23q6 15 17 27q85 95 91 224zM212 16q-29 -1 -74 3v-6q10 -2 27 -2q10 1 25 2q1 0 4.5 0.5t5.5 0.5l3 1q5 0 9 1zM389 242q-25 -76 -78 -135q-9 -9 -13 -21
q-3 -6 -6 -20.5t-6 -21.5q59 39 87 124q11 34 16 74zM270 353q-57 4 -120 0q4 -72 5 -122q0 -23 3 -69q3 -49 3 -73q1 -2 1 -10v-7q1 -13 0 -19q-2 -7 -6 -10t-9 -1q-3 1 -6 3q-2 2 -3 5v-12q65 3 125 70q66 74 93 186q17 70 12 136q-45 122 -157 187l-3 2l-10 5l-12 6
l-13 6.5l-11 5.5q-6 4 -11.5 7t-9.5 5q-1 -22 -1 -61v-44q2 -45 6 -118q0 -7 1 -23q0 -9 1 -17h33q63 0 98 -1q8 -1 8 -9v-1q0 -8 -9 -8h-20q9 -1 14 -1q8 -1 8 -9v-1q-1 -8 -9 -8h-1zM93 365q-12 0 -24 1q-4 -4 -9 -2q-10 4 -12 9q-11 0 -12 1q-8 0 -8 8v1q0 9 9 9v-1
q19 -1 68 -1v30v7q1 147 -2 220q-1 20 -2 34q-1 0 -2 2q-6 7 1 12q0 1 1 1v1v1v2q1 2 3 4l1 1h1l1 1h2h1h2l1 -1q1 0 2 -1q22 10 54 1q15 -4 39 -15l5 -2l5 -2q111 -51 150 -165q29 -55 36 -119q4 -29 3 -59q11 -96 -17 -181q-24 -72 -71 -115t-114 -50l-3 -1h-5.5t-4.5 -1
q-15 -1 -27 -2q-34 -1 -47 9q-7 5 -2 12q2 3 4 4v3h-1q-8 1 -8 9v1q1 7 8 8q-1 15 -6 89q-2 22 -3 39q-3 54 -4 89q-1 41 -1 92q-22 -2 -45 -6q-9 -2 -10.5 7t7.5 11q18 3 36 5zM212 668l1 -1q4 -2 7 -3q6 -4 12 -7q15 -8 29 -17q-22 17 -49 28z" />
    <glyph glyph-name="Ntilde" unicode="&#xd1;" horiz-adv-x="441" 
d="M393 45q-6 16 -13 39q-6 18 -12 42l-4 14q-4 14 -4 16q-2 5 -3 10q-10 35 -28 108q-20 80 -30 117q0 1 -1 2q-9 23 -20 49q-6 16 -17 40q0 1 -7 19q1 -3 1 -6q4 -15 5 -21q30 -121 49 -190q28 -103 56 -186q8 -22 22 -45q3 -5 6 -8zM411 47q1 1 1 2q-7 15 -14 40
q-6 18 -11 41q-1 3 -2 8.5t-2 9.5l-1 4q-11 40 -24 80q9 -35 16 -61q2 -5 3 -10q0 -2 2 -8.5t4 -13.5t2 -8q7 -24 12 -42q8 -25 14 -42zM431 253q3 -28 7 -76q5 -60 8 -91q1 23 1 55q0 72 -6 231q0 3 -0.5 15t-0.5 20q-5 136 -6 182v37q-5 -27 -7 -54q0 -6 1 -15
q4 -42 4 -59q0 -144 -1 -245zM173 692q5 5 11 7q-1 2 -2 3q-5 -3 -9 -10zM175 54q-1 18 -3 42q-12 143 -16 212q-11 186 5 328v3v4l1 1v6q0 7 1 13q1 8 3 14q-12 -30 -18 -87q-8 -84 -3 -215q8 -189 30 -321zM428 18l2 4q0 1 -0.5 1t-0.5 1q-1 -5 -1 -6zM362 767
q25 -4 50 23q-3 -2 -7 -4q-23 -15 -43 -19zM171 757q0 -2 -1 -4q-3 -8 -11 -6q-9 3 -6 12q0 1 -0.5 4t-1 4.5t-0.5 2.5q-2 7 1 12q1 4 7 10q1 1 3 4l3 2q3 3 5 6q26 55 62 49q16 -2 34 -17q9 -7 32 -28q13 -12 20 -18q12 -5 23 -6q23 -2 55 17q37 22 40 61q1 6 6 7v1
q-3 8 6 11t11 -6q11 -33 -12 -69q-41 -64 -88 -57q-18 3 -39 17q-6 4 -11 9q-8 4 -16 10q-3 2 -8 5q-1 0 -2 1l-2 1l-3 3q-29 20 -51 25q-15 2 -41 -26l-1 -1l-4 -8q-5 -13 -10 -28zM166 10q-11 39 -23 148t-16 217q-5 132 4 217q10 104 41 125q13 9 23 -3q6 -6 9 -18
q1 -2 2 -6q1 0 1 -1l2 -4l1 -1l1 -2q53 -92 105 -284q55 -137 84 -241q0 -1 0.5 -5t2 -9.5t1.5 -8.5q4 -17 8 -31q1 19 1 43v106q-5 66 -8 118q-5 112 4 202q-1 6 -1 12q-4 64 7 97q3 9 11 6q5 -2 6 -6h2q0 14 1 22q1 9 10 8t8 -9q-3 -26 -1 -112q1 -48 6 -183q1 -20 1 -35
q6 -158 6 -231q0 -51 -2 -79q-3 -35 -13 -41q-1 0 -2 -1q-2 -9 -6 -14q-10 -12 -23 -4q-5 3 -10 10q-8 1 -16 7q-10 7 -21 24q-16 25 -24 49q-28 83 -56 188q-19 68 -49 189q-2 7 -5 21q-21 85 -32 126q-6 19 -9 28q-5 12 -9 19q-1 -5 -2 -13q-1 -21 -1 -58q0 -21 1 -50
v-15.5v-13.5q1 -43 1 -132v-104q1 -165 21 -268q2 -9 -7 -10.5t-11 7.5l-2 12h-1q-2 -1 -4 1q0 -2 1 -4q2 -9 -6.5 -11.5t-11.5 6.5zM430 56v-2v-1q0 -1 1 -3q0 3 -1 6z" />
    <glyph glyph-name="Ograve" unicode="&#xd2;" horiz-adv-x="548" 
d="M395 16l2 2q5 4 11 0q19 5 37 18q64 93 93 250q13 73 14 142q-4 93 -28 158q-36 103 -100 97q-49 -5 -90 -52q-47 -66 -81 -179q-22 -89 -24 -186q-1 -15 0 -30q4 -55 19 -99q38 -111 130 -121h17zM369 -1q-82 12 -124 99q10 -39 25 -65q38 -66 99 -34zM402 -1
q-46 -34 -84 -27t-64 52q-40 70 -43 205q-4 -54 0 -99q10 -136 79 -163q67 -27 127 35q-8 -2 -15 -3zM213 370q1 7 2 15q18 144 75 242q64 109 143 97q94 -15 125 -156q13 -62 12 -139q2 -40 0 -82q-7 -146 -53 -244q-25 -52 -59 -79q-79 -112 -175 -74q-79 31 -90 179
q-9 107 20 241zM371 870q16 -21 34 -44q7 -7 13 -15q0 -1 1 -1q6 1 11 3q9 4 12.5 -4t-4.5 -12q-4 -2 -9 -4l9 -10q6 -7 -0.5 -13t-12.5 1q-12 14 -15 17q-1 1 -1 2q-1 0 -2 1q-12 2 -25 9q-18 12 -37 40q-3 4 -8 11q0 1 -3 5.5t-4 5.5q-7 11 -11 15q-2 3 -2 6q0 4 3 7
q2 2 6 2t7 -3q6 -7 10 -9v-1q8 0 15 -7h1q2 2 5 2q5 0 7 -4z" />
    <glyph glyph-name="Oacute" unicode="&#xd3;" horiz-adv-x="502" 
d="M235 116q35 -67 100 -75q66 -7 113 92q29 63 43 154q2 29 2 59q-1 140 -41 243q-34 85 -82 103q-44 -22 -84.5 -119t-57.5 -221q-19 -142 7 -236zM419 57q-39 -39 -86 -33q-32 3 -58 19q21 -20 49 -23q55 -7 95 37zM342 697q-4 3 -4 7q-38 -27 -71 -96q-48 -99 -62 -228
q-5 -35 -5 -69q3 46 10 93q25 150 82 238q23 37 50 55zM411 687q33 -31 57 -92q20 -50 31 -115q-5 67 -20 118q-23 75 -62 93q-1 0 -1 -1q-2 -2 -5 -3zM368 711q5 2 9 3q-2 2 -4 3l-2 2q-8 -2 -16 -5q6 -1 13 -3zM218 109q-9 17 -16 38q-31 95 -15 235q15 132 63 234
q53 110 119 120q6 1 14 -4q5 -3 11 -9q2 -2 5 -6q1 0 2 -1q17 -2 34 -10q58 -30 80 -149q19 -107 5 -240q-8 -67 -24 -127q-10 -50 -28 -88q-13 -29 -29 -50q-44 -63 -98 -61q-91 3 -123 118zM395.5 878q2.5 -2 3.5 -6q4 4 8 7q2 3 5 3q5 0 7 -4q3 -2 3 -5q0 -5 -4 -7
q-27 -24 -62 -84l-4 -6l-3 -6q-5 -8 -12.5 -3.5t-3.5 12.5l1 1q-2 -1 -4 -1q-3 0 -6 2q-3 3 -3 7t2 6q9 11 21 29l2 2q16 26 37 52q3 3 7 3q3 0 5.5 -2z" />
    <glyph glyph-name="Ocircumflex" unicode="&#xd4;" horiz-adv-x="557" 
d="M250 492q39 97 88 158q26 34 52 53q-37 -11 -71 -58q-42 -58 -69 -153zM429 64q5 5 9 11q63 77 90 220q25 137 6 260q-9 60 -29 103q-18 26 -43 33q-2 0 -3 1q-55 11 -115 -72q-58 -83 -91 -210q-33 -133 -17 -232q19 -110 94 -134q53 -16 99 20zM224 361q0 -2 -1 -4v-5
q1 4 1 9zM291 14q-48 37 -71 114q-15 50 -18 114q-5 -45 -3 -83q6 -119 75 -140q9 -3 17 -5zM371 22q-23 -2 -46 5q-29 9 -51 30q24 -32 57 -45q21 1 40 10zM441 51q-32 -34 -69 -49h2q64 -4 113 94q6 12 11 25q-8 -14 -16 -26q-19 -27 -41 -44zM564 307q-17 -131 -61 -219
q-54 -108 -130 -104q-24 2 -44 9q-29 -1 -60 8q-81 26 -88 157q-5 88 25 202q2 23 6 47q26 158 92 249q57 79 123 67q13 5 26 5q0 3 1 5q5 8 13 3q8 -6 16 -13q1 -1 3 -1q67 -29 87 -155q18 -113 -7 -250zM473 707q-3 2 -7 2q4 -1 8 -3q0 1 -1 1zM404 849q4 0 8 -2
q12 4 21 2q3 0 5 -1l-1 6q-2 7 -4 10l-1 1q-6 0 -28 -16zM480 766v1q-1 0 -2 -1q-2 -1 -4 -1q-5 0 -8 5l-2 4q-3 6 -9 17l-9 9q-16 16 -27 23q-4 2 -7 4q-5 -2 -11 -5q-13 -8 -48 -31q-7 -13 -14 -30q-2 -5 -8 -5q-2 0 -4 1q-5 2 -5 8q0 2 1 4q1 4 3 7q-3 1 -5 4q-5 7 2 12
q9 6 14 10q14 31 21 41.5t14 12.5q2 1 6 1q7 1 14 6q29 21 41 20q9 -1 15 -9q3 -5 6 -15q4 -18 9 -34q4 -13 9 -25l3 -3l18 -18q6 -7 0 -13q-2 -1 -4 -1t-5 0.5t-4 0.5z" />
    <glyph glyph-name="Otilde" unicode="&#xd5;" horiz-adv-x="538" 
d="M490 683q-24 32 -58 47h-1q-39 -7 -82 -78q-55 -90 -91 -233q-15 -58 -23 -114q-4 -80 8 -140q21 -112 87 -122q49 -7 89 29l10 12q33 44 59 109q27 80 34 183q11 143 -15 254q-8 30 -17 53zM228 147q4 -48 18 -79q22 -24 51 -35q16 -6 31 -8q-74 11 -100 122zM418 748
q1 2 3 3q-26 -1 -55 -27q25 21 52 24zM434 749l-3 1q1 -1 3 -1zM217 306q3 55 13 111q25 146 80 240q-59 -93 -92 -224q-37 -143 -20 -249q5 -33 15 -60q-3 18 -4 37q-3 64 8 145zM492 720q13 -16 23 -42q25 -40 37 -98q24 -119 -9 -270q-8 -35 -18 -68q-23 -102 -64 -163
q-40 -59 -92 -71q-43 -20 -86 -4q-33 13 -52 54q-39 45 -51 123q-17 110 20 257q35 138 98 234q69 105 133 96q35 -5 61 -48zM397 843q-6 7 -8 10q-19 26 -30 30t-23 -11q3 -1 5 -2q9 -3 22 -10q4 -2 11 -6l6 -3q4 -1 6 -3q6 -3 11 -5zM297 824q1 6 2 11q3 14 9 26h-3
q-7 -1 -9 -12q-1 -9 1 -25zM286 788q-11 43 -8 64q4 24 25 27q7 1 15 -1q22 31 47 22q16 -6 38 -36q3 -3 9 -11q12 -17 19 -25q26 -10 42 -9q4 4 7 9q19 25 19 57q0 9 9 9t9 -9v-3q1 0 1 -1q13 -40 -9 -63q-11 -12 -28 -16q-21 -16 -42 -4q-9 5 -18 14q-9 4 -20 9
q-9 4 -23 11q-3 2 -6 3l-1 1q-4 2 -5 2q-7 4 -11 6q-12 6 -21 10q-4 2 -8 3q-12 -22 -14 -65q0 -9 -9 -8h-2q-1 -2 -4 -3q-8 -2 -11 7z" />
    <glyph glyph-name="Odieresis" unicode="&#xd6;" horiz-adv-x="514" 
d="M360 678q-63 -92 -97 -274q-26 -144 -12 -247q16 -114 77 -133q62 -18 101 76q37 88 40 232q3 141 -28 242q-31 102 -81 104zM333 670q-37 -27 -70.5 -119.5t-44.5 -206.5q-14 -141 14 -234q32 -104 110 -112q71 -7 121 100q47 100 55 250q9 149 -26 253
q-36 107 -103 111q-8 -7 -16 -17q54 -13 85 -116q32 -104 29 -248q-3 -147 -41 -238q-21 -50 -50 -72q-33 -26 -73 -14q-72 22 -90 147q-14 107 13 253q26 141 74 237zM451 794q-4 -1 -8 1q-3 2 -3 5q-4 4 -4 9q1 7 9 13q3 3 6 5q1 0 2 1q3 5 7 8q9 9 18 -1q5 -7 2 -15
q-2 -5 -7 -10q-3 -3 -7 -6v-2q0 -9 -9 -10q-3 0 -6 2zM426 724q-5 1 -10 1q61 -21 93 -119q36 -107 27 -259q-9 -153 -57 -256q-55 -119 -139 -111q-90 9 -125 125q-29 97 -15 241q13 135 56 237q43 106 95 113q12 17 25 28q2 5 7 6q23 17 46 12q9 -2 7.5 -10.5t-10.5 -7.5z
M312 794v7q-1 3 -1 5q-1 0 -1 1q-8 6 -5 15t13 9v1q1 0 1 0.5t1 0.5q5 7 11 9q9 2 15 -5q9 -12 -5 -25q-3 -4 -7 -6q-1 -4 -4 -6v-6q0 -9 -9 -9t-9 9z" />
    <glyph glyph-name="multiply" unicode="&#xd7;" horiz-adv-x="491" 
d="M325 197q-16 17 -33 38q-2 -1 -3 -3l7 -7q19 -19 29 -28zM122 471q40 -46 108 -112q13 -13 32 -31q1 -2 15 -15t18 -17q7 -6 13 -12q91 92 146 145v2q1 1 1 1.5t1 0.5q1 2 5 6l1.5 1.5t1.5 0.5q1 1 2 1q11 9 34 30q2 2 6 2t7 -3q2 -3 2 -6q0 -4 -3 -7q-33 -29 -98 -93
q39 30 81 58q2 2 5 2q5 0 7 -4q2 -2 2 -5q0 -5 -4 -8q-84 -57 -179 -142q41 -40 71 -72q55 -58 94 -109q5 -7 -2 -12.5t-13 2.5q-37 50 -92 107q-30 31 -71 72q-3 -2 -5 -4l-3 -3q28 -33 52 -60q57 -63 100 -95q4 -2 4 -7q0 -3 -2 -5q-3 -4 -7 -4q-3 0 -6 2
q-78 58 -102 77.5t-60 56.5l-8 8q-20 -18 -41 -38q-70 -75 -111 -146q-4 -8 -12 -3.5t-3 11.5q8 14 17 28q-3 -2 -5.5 -5t-6 -3t-6.5 3t-3 6.5t3 6.5q85 87 153 156q-14 16 -35 39q-4 4 -8 9q-44 51 -59 67q-30 32 -46 43q-4 3 -4 8q0 3 2 5q3 4 7 4q3 0 5 -2q3 -2 7 -4
q4 5 12 5q10 0 10 -9q0 -6 -6 -8q1 -1 1 -2v-2q11 -10 25.5 -26t59.5 -67q4 -5 7 -9q21 -23 34 -38l4 4q-18 21 -41 51q-7 7 -16 19q-77 97 -112 136q-2 3 -2 6q0 4 3 7q3 2 6 2q4 0 7 -3zM252 313q21 -27 38 -47l5 5q-6 6 -13 12q-2 3 -8 8.5t-13 12.5z" />
    <glyph glyph-name="Oslash" unicode="&#xd8;" horiz-adv-x="673" 
d="M386 3q-19 -1 -38 2q8 -2 18 -3q10 0 20 1zM571 530q10 -32 16 -70q0 12 -1 23q-6 26 -14 49q0 -1 -1 -2zM562 558q1 -2 2 -5q-1 3 -2 5zM215 130l-6 -8q8 -15 18 -27q-7 16 -12 35zM204 173q-13 67 -9 141q7 141 65 240q46 78 112 105q1 2 3 2q43 21 80 13q32 -2 67 -16
q-29 29 -67 37q-92 20 -170 -69q-73 -83 -102 -217q-29 -137 6 -242q2 -4 3 -8zM531 634q14 -13 26 -30q-9 18 -19 33q-3 -3 -7 -3zM474 32q-52 -51 -110 -48q-21 2 -40 11q33 -21 72 -24q86 -5 137 114q3 6 5 13q-5 -8 -11 -15q-24 -32 -53 -51zM220 190q-13 95 3 196
q5 33 13 64q-19 -65 -23 -137q-3 -64 7 -123zM656 666l18 14q-1 0 -3 -1q-6 -3 -15 -13zM437 419l-12 -16q81 83 126 132q-2 4 -3 9q-24 -24 -48 -51q-31 -35 -63 -74zM335 285l-1 -1q-11 -15 -19 -25q-43 -57 -72 -95q4 -20 9 -37q17 -56 44 -88q18 -8 38 -13
q71 -17 128 20q21 21 39 50q56 89 77 221q1 17 0 33q-1 92 -21 165q-50 -54 -156 -162q-1 -1 -2 -3q-40 -40 -64 -65zM423 430q22 28 44 54q37 45 72 83q-7 15 -14 27q-22 38 -51 54q-20 7 -44 6q-19 -1 -37 -7q-32 -12 -59 -40q-70 -74 -94 -223q-14 -91 -4 -177
q33 35 72 76q8 10 10 13q64 84 105 134zM98 22q32 34 66 76q11 14 23 28q-49 -54 -89 -104zM112 -21h-4h-5l-1 -1h-9q-7 -1 -12 0q-6 -7 -13 -14q-3 -2 -6.5 -2t-6 2.5t-2.5 6.5t2 6l10 10q-1 0 -1 1q-3 8 2 19q2 6 8 13l4 6h1q2 3 2 4q44 55 98 114q-4 9 -7 17
q-36 110 -6 252q29 138 105 225q85 97 188 75q78 -17 116 -107q17 18 34 34q3 3 9 10l12 14q5 6 8 10q15 16 25 21q18 10 29 -7q2 -3 3 -6q0 -1 1 -2q4 -14 -8 -29q-7 -11 -29 -29q-20 -16 -26 -22q-21 -24 -40 -46q7 -32 10 -68q17 -80 7 -170q-7 -69 -28 -129
q-12 -61 -32 -109q-57 -131 -156 -124q-88 5 -142 90q-33 25 -55 63q-51 -61 -98 -111h1h1q4 1 5 1h6q9 0 9 -9t-9 -9zM622 614q-19 -16 -37 -33q1 -3 2 -7q16 18 33 38z" />
    <glyph glyph-name="Ugrave" unicode="&#xd9;" horiz-adv-x="526" 
d="M467 128q17 33 29 75q-13 -41 -29 -75zM315 37q-22 8 -41 22q26 -37 49 -46q18 -6 34 4q-9 1 -17 5q-13 5 -25 15zM216 659q-18 -117 -18 -239v-7q0 -46 1 -71q0 -8 1 -16q1 35 6 98q0 1 1 8.5t1 9.5q1 11 1 18q2 24 4 78q0 28 1 41q1 36 3 63v2v3q0 4 -1 12zM284 75
q-6 9 -11 19q-24 44 -41 107q-10 40 -15 74q1 -78 18 -134q5 -11 10 -20q17 -29 39 -46zM324 53q12 -4 25 -6q22 -3 46 12q35 58 65 179q33 129 54 297q3 24 5 47v66q1 60 7 102q1 9 10 7.5t8 -10.5q0 -2 -1 -4q3 -3 3 -7q8 -155 -7 -307q0 -3 -1 -7q-1 -121 -19 -199
q-24 -110 -86 -172q-22 -22 -44 -30l-4 -4q-32 -33 -68 -21q-36 13 -71 75q-17 29 -28 63q-22 50 -31 126q-5 36 -6 82q-1 25 -1 71v7q0 65 6.5 143t16.5 127q0 7 5 24q2 7 9 7q1 0 2 -1q7 -1 7 -8q0 -2 -1 -3q0 -2 -1 -6q2 0 3 -1q3 10 6 19t11.5 6t5.5 -12
q-10 -30 -15 -74q1 -10 1 -16q1 -44 -3 -132q-1 -16 -1 -24q-5 -112 1 -178q3 -35 17 -85q16 -61 39 -104q17 -32 35 -49zM520 423v14v15q-18 -122 -42 -218q-17 -65 -35 -113q57 109 77 302zM369 771q-6 14 -15 34q-1 3 -1 4q-14 32 -18 41q-4 7 -8 17q-1 0 -1 1l-1 2
q-1 3 -2 4q-1 2 -1 4v1.5v1.5q0 6 5 8q2 1 4 1q6 0 8 -5q12 -27 29 -51q21 -27 44 -47q4 -3 4 -7q0 -3 -2 -6q-3 -3 -7 -3t-6 2q-7 6 -13 12q-2 0 -3 1l-4 2q3 -5 5 -9q3 -9 -5 -12.5t-12 4.5z" />
    <glyph glyph-name="Uacute" unicode="&#xda;" horiz-adv-x="549" 
d="M392 1q-12 -2 -24 -3q-16 -10 -34 -15q3 -1 7 -2q26 -4 51 20zM276 22q-29 18 -50 51q9 -24 22 -42q17 -28 41 -33q-7 11 -13 24zM305 8v-1l8 -10l10 2q4 1 7 1q-13 3 -25 8zM261 57q-45 116 -61 281q-3 30 -5 62v-16v-32q-1 -85 2 -131v-1q7 -51 21 -89q16 -46 43 -74z
M290 34q28 -16 65 -18q4 -1 8 0q45 30 81 111q41 94 68 254q15 87 25 195q4 37 8 82q0 6 2.5 33t2.5 31q1 9 9 9h1q8 -1 8 -9v-1q-1 -14 -2 -31q8 -2 6 -10q-3 -15 -7 -54q-1 -4 -4 -29q-1 -21 -1 -26q-2 -33 -3 -57q-4 -67 -8 -119q-11 -117 -30 -198q-23 -101 -62 -155
q-11 -16 -32 -28q-9 -13 -19 -23q-31 -33 -68 -27q-18 2 -32 15q-45 -1 -74 42q-44 67 -53 197q-9 67 -7 161q1 34 3 72v1q-1 44 -1 68q-1 91 16 145v14v2v2q0 9 9 9v-1q5 0 7 -3h1q9 -4 6 -12q-3 -6 -5 -13q-1 -91 0 -148q2 -97 10 -176q16 -170 64 -286q4 -11 8 -19z
M413 28q12 19 24 46q-18 -31 -39 -52q8 3 15 6zM502 201q13 58 22 133q-30 -168 -67 -259q26 49 45 126zM297 779q14 16 37 44q1 0 3 2.5t4 5.5t3 4q6 7 10 12q17 21 31 36q3 3 7 3q3 0 6 -3q3 -2 3 -6t-3 -6q-15 -17 -39 -56l-2 -3l-2 -2q-25 -39 -41 -57q-6 -7 -12.5 -1
t-0.5 13q-2 1 -3 2q-7 6 -1 12z" />
    <glyph glyph-name="Ucircumflex" unicode="&#xdb;" horiz-adv-x="523" 
d="M235 130q19 -74 58 -96q-32 31 -58 96zM525 676q-4 -20 -7 -52q-4 -39 -7 -130v-10q0 5 1 9q13 86 13 183zM236 695q-3 -52 0 -150q4 -127 17 -233q15 -136 43 -210q22 -60 49 -75q32 9 60 51q35 54 62 161q9 39 18 86q2 20 3 42q2 39 5 128q3 91 7 131q5 61 17 85
q3 6 11 4q2 2 5 2q9 0 9 -9q1 -13 1 -33q0 -7 1 -17v-19q3 -87 2 -142q-1 -86 -8 -158q-12 -113 -42 -199q-21 -59 -60 -95q-27 -36 -66 -41q-13 -1 -26 4h-2q-19 -3 -39 3q-36 10 -60 49q-18 31 -28 80q-7 29 -13 87l-4 40l-6 34q-11 68 -11 108q-1 54 17 146q0 4 2 12v4
q6 62 15 122q1 3 3 6q3 5 9 5q9 0 9 -9zM296 57q-9 17 -17 39q-28 76 -44 214q-13 106 -17 234v17q-13 -153 -2 -291q12 -65 30 -115q22 -65 50 -98zM477 142l2 4q29 84 41 195q6 63 8 137q-1 -6 -2 -14l-1 -6l-2 -12t-2 -8q-8 -59 -13 -84q-2 -16 -5 -31q-8 -113 -26 -181z
M422 57q20 27 34 76q5 16 9 35q-20 -62 -45 -100q-12 -18 -25 -31l6 4q11 7 21 16zM254 755q9 8 18 18q4 5 36 42q0 1 1 3q11 16 19 29q16 22 30 28q15 7 29 -3q8 -7 16 -19q21 -15 43 -55q10 -18 11 -33q1 -5 -1 -9q-4 -9 -13 -6q-7 2 -17 16q-8 11 -20 39q-9 11 -15 17
q-16 18 -25 20q-3 -1 -5 -2q-14 -7 -34 -30q-1 -2 -4 -5l-2 -2q-4 -8 -9 -15q-9 -15 -19 -32q2 -5 -0.5 -9t-6.5 -8q-6 -7 -16 -24q-2 -5 -8 -5q-2 0 -4 1q-5 3 -5 8q0 3 2 5q0 1 2 4t3.5 6t2.5 4q0 1 1 2q-6 -2 -10 2q-6 6 0 13z" />
    <glyph glyph-name="Udieresis" unicode="&#xdc;" horiz-adv-x="540" 
d="M270 37q-1 2 -2 3l-6 8q4 -6 8 -11zM286 46q19 -22 39 -33q46 -4 81 49q45 67 71 216q20 112 29 262q5 86 5 166q0 9 9 9t9 -9q0 -45 4 -121q1 5 2 11l1 8q1 9 2 17.5t1 11.5q4 38 6 51q2 9 11 7.5t7 -10.5q-2 -12 -6 -50q-1 -2 -1.5 -8l-1 -12t-1 -11t-0.5 -6
q-3 -24 -5 -43q-5 -36 -9 -67q1 -13 2 -27q1 -28 1 -52q0 -51 -7 -112q-9 -83 -27 -147q-23 -82 -59 -123q-34 -39 -79 -39q-26 -12 -53 -4q-19 5 -32 26q-6 3 -13 6q-38 22 -54 116q-2 12 -4 26q-11 45 -14 97q-3 60 4 138q2 32 7 72q2 30 5 62q5 74 13 132q0 4 3 6v11
q1 19 3 29q1 7 2 12q2 7 7 10q6 3 11 0q4 -1 7 -5q3 -5 6 -13q1 -4 2 -9l1 -5q10 -42 9 -103q-1 -22 -4 -63q-1 -18 -1 -26q0 -1 -1 -15.5t-2.5 -33t-1.5 -28.5q-6 -97 -5 -173q0 -106 13 -170q4 -18 8 -33zM521 485v8q-1 -14 -2 -27q1 9 2 19zM403 9q18 9 33 26
q33 38 55 116q17 62 26 144q4 38 6 75l-6 -32q-30 -170 -71 -259q-20 -45 -43 -70zM252 695q-1 -9 -2 -23q0 -10 -1 -21v-16v-7q-3 -39 -15 -128q-3 -24 -5 -41q-4 -74 -5 -137q0 -98 8 -165q4 -17 10 -33q6 -18 16 -36q-11 62 -11 161q-1 76 5 174q1 10 2 28.5t2 33t1 15.5
q0 8 2 26q2 41 3 63q1 58 -8 98v1q-1 0 -1 1v2q-1 2 -1 4zM301 798q-3 -8 -11 -6t-6 11q1 6 3 12v3l2 4q4 17 9 23q2 4 5 5q6 3 11 0t7 -10q1 -5 2 -11q2 -2 2 -5q1 -5 -3 -10q0 -4 -1 -7t-3 -5q-4 -6 -10 -4q-2 0 -4 1q-1 -1 -3 -1zM452 797q-2 -3 -7 -3q-3 -1 -6 2
q-5 -2 -9 3q-1 2 -1 4q-1 0 -1 1t1 5q0 3 2 7q1 8 3 11q1 2 3 4q4 2 8 1q3 2 6 3q8 3 15 -2q10 -6 8 -16q0 -6 -8 -12q-5 -5 -14 -8z" />
    <glyph glyph-name="Yacute" unicode="&#xdd;" horiz-adv-x="586" 
d="M330 318q-2 3 -4 5.5t-4 5.5q5 -9 11 -16q-1 2 -3 5zM143 691q11 -21 41 -59q1 -2 2 -3l1 -1l1 -2q18 -23 27 -36q-10 20 -17 30q-14 21 -36 49q-10 14 -19 22zM369 879q2 -2 3 -6q4 4 7 8q3 3 7 3q3 0 6 -2.5t3 -6.5t-3 -6q-14 -15 -31 -41q-1 -2 -3 -5l-1 -2l-1 -2
q-23 -35 -40 -51q-2 -3 -6 -3q-3 -3 -5.5 -6.5t-7.5 -3.5q-3 0 -5 2q-4 3 -4 7t3 6q5 6 10 13q-5 -6 -9 -11q-6 -6 -13 -0.5t-1 12.5t16 18q2 2 4 5l2 2l2 2q36 42 54 66q3 4 7 4q3 0 6 -2zM98 693q55 -62 89 -107q21 -29 39 -55q-4 8 -5 11q-12 27 -47 73l-1 1l-2 2
q-1 2 -2 3q-32 42 -45 69l-1 1q-1 3 -1 4q-2 2 -3 5q-2 5 -2 9q0 7 7 11q6 4 15 -1q5 -3 12 -9q10 -11 25 -30q23 -28 37 -50q18 -27 66 -141q3 -8 7 -16q10 -24 24 -59l11 -27q7 -16 10 -25q10 -22 15 -34l5 -5q1 0 2 -1q1 1 1 2q8 14 25 41q1 1 1.5 2.5t1.5 2.5
q28 46 42 71q12 21 27 46q7 14 16 31q2 4 5 9q52 102 65 127q32 62 43 78q5 8 12 3q6 -4 4 -10q2 1 4 1t4 -1q5 -3 5 -8q0 -2 -1 -4q0 -1 -10.5 -22t-23 -45.5t-17.5 -34.5q-33 -66 -61 -116q-67 -121 -126 -196q-6 -7 -12 -11v-1q1 -2 1 -6q1 -4 1 -14q1 -32 -1 -122
q0 -15 -1 -44q0 -10 -0.5 -31.5t-1 -38t-0.5 -18.5q-1 -9 -9 -9h-1q-8 1 -8 9v1v16q0 1 -1 1q-1 -7 -2.5 -14.5t-8.5 -7.5q-1 0 -2 1q-7 1 -7 8v2q4 21 4 52q0 18 -2 57q-1 18 -2 30q-2 43 1 71q3 33 14 58q-4 3 -8 7q-14 16 -27 42q-9 19 -21 50l-4 12l-4 9q-12 35 -21 51
q-29 55 -75 116q-33 44 -88 107q-6 6 1 12t13 -1z" />
    <glyph glyph-name="Thorn" unicode="&#xde;" horiz-adv-x="434" 
d="M125 606q1 26 1 42q1 20 -1 37v-79zM311 227q21 6 39 14q75 34 87 99q13 64 -39 124q-33 39 -86 64q67 -51 79 -134q6 -44 -7.5 -82.5t-44.5 -64.5q-13 -11 -28 -20zM119 204q-1 1 -3 1v-14q-2 -25 17 -141q1 11 1.5 24.5t0.5 40.5v13q1 37 0 74zM121 222q7 -1 13 -1
q-1 46 -5 130q0 3 -1 11q-1 17 -1 31l-2 14t-1 14q-1 -22 -1 -45q-2 -84 -6 -154h3h1zM300 242q36 28 56 59t17 57q-8 58 -47 89q-27 22 -85 38q-5 2 -12 3q-1 1 -4 1.5t-5 1.5l-3 1q-40 11 -60 20q-9 4 -17 9q1 -47 5 -126q9 -79 13 -123q2 -29 3 -54q85 -5 139 24z
M360 438q-21 50 -64 80q-68 47 -156 25q10 -8 25 -15q18 -8 57 -19l2 -1q1 0 3 -0.5l4 -1t3 -0.5q7 -2 12 -4q61 -17 91 -41q13 -10 23 -23zM270 201q-37 -21 -69 -27q-23 -4 -38 0q0 -21 -1 -41q0 -22 -4 -61v-5q-2 -28 -3 -43q-1 -10 -1 -19q0 -22 -3 -29q-2 -4 -5 -5
q-6 -4 -11 0q-3 3 -6 9q-2 5 -4 15q-2 -5 -7 -6h-1q-8 0 -9 8q-15 108 -10 274q0 31 2 87q1 28 1 39q4 135 5 218q-1 49 1 92v8q0 9 9 9t9 -9v-7q2 2 5 3q9 1 11 -8q4 -24 3 -55q0 -18 -2 -55v-3q-1 -10 -1 -18q12 2 28 3q55 2 69 -1q113 -28 174 -98q57 -67 43 -139
q-14 -75 -98 -112q-38 -18 -87 -24zM219 197q-28 0 -57 2v-6q18 -9 57 4z" />
    <glyph glyph-name="germandbls" unicode="&#xdf;" horiz-adv-x="459" 
d="M324 395q47 17 71 61q6 11 11 24q-24 -36 -56 -60q-6 -4 -23 -10h-1l-2 -1q-13 -4 -16 -7q1 0 2 -1q4 -2 11 -5q1 0 3 -1zM287 8l2 -4q0 -1 3 -2q5 -1 13 0q17 2 30 9q39 18 68 57q-29 -22 -62 -41q-29 -15 -46 -18q-5 -1 -8 -1zM388 676q24 -27 36 -66q-4 28 -19 48
q-7 10 -17 18zM159 25q-26 51 -35 172.5t6 239.5q15 123 52 196q-26 -32 -42 -77q-26 -68 -30 -170q-3 -69 5 -181q0 -1 1 -17.5t1 -21.5q0 -1 1 -14t1 -16q1 -25 4 -43q4 -41 13 -60q4 -10 8 -12q3 -2 9 2q3 2 6 1v1zM162 7q-14 -9 -26 -2q-10 5 -17 20q-9 22 -14 66
q-3 19 -4 44q0 3 -1 16t-1 14q0 4 -1 20.5t-1 18.5q-8 113 -5 183q4 104 31 176q32 88 100 130q2 1 5 3q44 38 101 26q61 -13 91 -53q26 -35 22 -86q-1 -21 -8 -44q-1 -52 -23 -92q-22 -39 -60 -59q1 0 1 -1q22 -6 37 -13q43 -19 66 -51q30 -41 27 -105q-1 -29 -17 -68
q-5 -12 -11 -23q-7 -18 -16 -36q-35 -68 -95 -97q-16 -7 -36 -10q-12 -1 -20 1q-12 3 -16 14q-2 7 5 11h-1q-10 5 -10 17q0 9 9 9t9 -9v-1h3h5q15 3 41 17q54 30 74 51q20 22 31 41q15 45 13 90q-3 67 -43 106q-43 44 -122 38h-1q-8 0 -9 9q0 9 9 9l12 2q-3 2 -4 5
q-9 13 5 23q6 4 21 9q1 0 2 1h1q15 5 19 8q54 40 76 107q0 21 -4 42q-14 71 -61 101q-49 32 -113 -4q-17 -16 -32 -41q-42 -72 -59 -205q-14 -117 -5 -239q9 -116 33 -163q4 -8 -4 -12q-3 -1 -6 -1q5 -8 -3 -13z" />
    <glyph glyph-name="agrave" unicode="&#xe0;" horiz-adv-x="405" 
d="M293 764l-3 3l-2 -2q-43 -36 -64 -144q-3 -12 -5 -27q18 68 35 108q4 12 9 22q8 19 15 29q7 9 15 11zM129 19q-1 0 -2 1q1 -2 1 -4q0 2 1 3zM411 27v9q0 10 -1 23q0 8 -1 12q-3 35 -4 50q-4 41 -8 79q-11 113 -23 206q-8 65 -17 118q2 -14 2 -16q5 -47 10 -107
q12 -68 18 -115q4 -30 5 -98q0 -17 1 -25q1 -92 18 -136zM175 277h-3v-4q1 2 3 4zM191 297q8 0 19 1q34 2 47 3q65 6 100 16q-2 18 -2 27q-2 31 -4 55q-3 16 -7 37q0 2 -1 4q-23 127 -30 192q0 1 -0.5 5.5t-0.5 10.5t-1 9q-1 26 -3 46q-3 23 -7 39q-3 -1 -9 -8
q-10 -11 -20 -37q-1 -1 -1 -2q-10 -27 -21 -68q-9 -32 -19 -75q-1 -3 -3.5 -14t-5 -21t-2.5 -12l-16 -62q-14 -52 -23 -89q-4 -27 -6 -54q-1 -3 -1 -5q8 1 17 2zM115 1q-21 48 0 148q5 23 14 56l3 9q2 10 5 20.5t4 14.5v1q2 15 5 30q-1 1 -1 3v1q0 5 4 7q5 26 12 56
q2 8 3 15q5 30 14 87q3 20 5 29q2 14 4 26q0 2 1 4q0 6 3.5 29.5t3.5 24.5q6 37 11 63q10 51 25 86q18 45 45 67q12 11 23 4q9 -5 14 -18q2 -5 3 -10q8 -9 15 -28q11 -28 23 -81q19 -86 38 -236q12 -93 23 -207q4 -38 8 -79l4 -50q1 -5 1 -13q1 -13 1 -24q0 -14 -2 -22
q-1 -7 -3 -10q-5 -9 -14 -5q-10 4 -16 21q-1 2 -1 4q-4 -2 -8 -1q-9 1 -7 10q0 1 2 3v1v1q1 5 0 15q-1 17 -4 49q-1 8 -2 17q-1 6 -2.5 19t-2.5 23t-1 11q-4 45 -10 122h-1q-18 -4 -53 -14q-38 -10 -56 -14q-31 -7 -56 -7q-5 0 -7 4l-1 -1q-9 -3 -12 6q-4 -38 -10 -99
q-1 -11 -2 -17q-11 -109 -16 -160q-1 -9 -10 -8t-8 10v2q-8 -3 -11 5zM303 811q-46 21 -62 32q-10 5 -11 10q-3 5 1 10q3 3 7 3h2l-2 6q-4 9 4.5 12.5t11.5 -5.5q1 -3 3 -5q3 -7 9 -12q4 -2 18 -10q20 -11 36 -21q4 -3 4 -8q0 -2 -1 -4q-3 -5 -8 -5h-1q-4 -6 -11 -3z" />
    <glyph glyph-name="aacute" unicode="&#xe1;" horiz-adv-x="428" 
d="M316 818q-3 -2 -7 -9q-5 -9 -11 -24v-1q1 1 2 3q10 10 20 7q2 -1 3 -2q-2 11 -4 18q-2 5 -3 8zM390 229q6 -57 13 -100q-9 69 -13 100zM289 719q10 21 19 34q8 10 14 15q-3 7 -7 8l-2 -2q-4 -4 -9 -15q-7 -14 -15 -40zM364 324q-6 78 -12 201q-13 106 -23 202q-1 1 -1 4
v5q0 3 -1 5v6q-2 -2 -4 -5q-13 -18 -30 -55q-16 -36 -33 -81q-1 -7 -3 -14q-10 -50 -32 -151q-23 -104 -33 -154q30 12 79 21q9 1 19 3q4 1 10 1h2q2 1 4 1.5t3 0.5q37 6 55 10zM194 258q-4 0 -7 4q-4 -20 -6 -31v-1v-2q-1 -3 -1 -6q-1 -3 -1 -4h-1v-2q-2 -7 -4 -20
q-1 -6 -5 -21q-12 -55 -16 -84q-7 -47 -7 -84q1 -9 -8 -9q-9 -1 -9 8q-4 -17 -9 -32q-1 -7 -8 -7h-3q-6 2 -6 9v2q20 77 45 234l11 66q6 39 11 67q13 78 24 137q32 157 74 270l13 39q7 17 13 28q9 15 18 18q6 1 12 -1q10 -5 21 -56q0 -4 1 -8q3 -2 5 -5q1 -2 2 -5v-1v-1
q15 -38 15 -104v-22q4 -29 9 -62q9 -67 20 -160q1 -6 2.5 -20.5t2.5 -26.5l2 -12q3 -26 4 -33q3 -25 10 -75q13 -101 21 -152q2 -10 3 -20v-1q1 -2 1.5 -5l1 -6t1 -6.5t1.5 -5.5q2 -10 3 -19q2 -19 1 -30q0 -8 -2 -13q-4 -8 -11 -10q-4 -1 -8 2q-1 1 -2 3q-1 1 -2 3
q-1 3 -2 7q-2 8 -4 21q-1 3 -2 8q-8 -2 -11 6q-26 80 -42 279q-4 -2 -9 -3q3 -2 3 -5q1 -9 -8 -10q-33 -4 -74 -12q-17 -3 -38 -8l-38 -8q-2 -1 -5 -1q-1 -1 -2 -1zM303 912q4 4 9 6q1 2 3 3t5 1q5 0 7 -4q2 -2 2 -5q0 -4 -4 -7q-2 -1 -3 -2q-21 -15 -46 -47q-1 -1 -2.5 -3
t-2.5 -3.5t-3 -3.5l-1 -2q-5 -7 -9 -11q-6 -7 -13 -2q0 1 -1 1q-3 -2 -7 -5q-2 -2 -5 -2q-5 0 -7 3t-2 6q0 4 3 7q13 10 31 28l5 5l1 1q3 4 4 5q19 19 32 29q2 2 4 2z" />
    <glyph glyph-name="acircumflex" unicode="&#xe2;" horiz-adv-x="430" 
d="M328 647v12q-1 14 -1 20q-2 25 -5 42v-7v-3q-1 -17 0 -24zM358 565q-1 9 -1 17q-4 73 -14 118q1 -9 1 -20q1 -6 2 -20q1 -39 4 -55q5 -20 8 -40zM183 269q20 5 60 12q4 1 21 4t19 3q58 10 85 18q-10 56 -13 73q-7 40 -13 72q-24 140 -38 234q-1 8 0 27v2q1 25 -3 32
q-6 -7 -11 -16q-5 -11 -12 -24q-1 -6 -3 -12l-4 -13q-61 -191 -94 -412q3 1 6 0zM329 895q-9 0 -22 -12q-6 -5 -12 -12q14 7 29 5q12 -1 25 -9q-8 14 -14 21q-3 4 -6 7zM407 808q2 -3 3 -5q2 -2 2 -4q3 -4 5 -6q7 -6 0.5 -12.5t-13 0t-12.5 16.5q-23 29 -36 41
q-19 18 -34 20q-18 3 -38.5 -17.5t-45.5 -68.5q-2 -4 -7 -4q-3 -5 -9 -5q-2 0 -4 1q-5 2 -5 8q0 2 1 4q15 28 22 41q15 27 31 54q25 39 44 45q14 5 26 -4q9 -2 17 -10q15 -13 35 -57l1 -3l2 -4l1 -2q2 -5 4 -9q6 -12 10 -19zM135 10q-2 26 0 59q2 15 5 46q2 17 3 25l6 58
q-2 -12 -6 -30.5t-6.5 -31.5t-3.5 -17q-16 -83 -26 -123q-4 -21 -9 -39q-2 -7 -9 -7h-2q-7 2 -7 9v2q5 17 10 40q10 45 32 160q33 178 52 264q36 164 74 274q3 10 5 15q5 14 10 25q8 19 15 29q12 16 24 17q10 1 17 -8q3 0 5 -1q16 -5 23 -25q22 -61 28 -168q0 -14 2 -43
q2 -56 4 -83q18 -194 72 -443q2 -9 -7 -11t-11 7q-1 -6 -7 -6l-1 -1q-8 0 -9 8q-9 62 -27 168q-7 38 -17 97v2q-1 1 -1.5 4t-0.5 6q-15 -5 -33 -10q8 0 8 -8v-1q0 -8 -8 -9q-12 0 -21 -2q-4 0 -9 -1h-2h-1l-4 -1q-7 -1 -15 -1h-1q-61 -8 -105 -22h-3q-3 0 -6 2
q-7 -49 -11 -97q-1 -8 -3 -25q-4 -30 -5 -46q-2 -31 0 -55q1 -9 -8 -10t-10 8z" />
    <glyph glyph-name="atilde" unicode="&#xe3;" horiz-adv-x="458" 
d="M463 53q-4 2 -4 7q-1 0 -1 2v3q0 2 -1 4v4v4v3q-2 31 -5 63q-2 10 -5 21q-5 28 -13 60q-3 14 -23 91q7 -48 9 -61q7 -34 18 -99v-2l1 -1v-1v-2q11 -68 18 -102q0 -2 1 -6.5t2 -9.5t1 -6q0 -2 1 -4q2 13 1 32zM321 776q-3 -4 -7 -12l4 2q4 1 7 1q-2 6 -4 9zM385 278h13
q-3 21 -10 66q-1 9 -11 74q-9 55 -13 83q-3 20 -6 38q-15 96 -25 149q-6 31 -10 47q-1 2 -1 3q-21 -17 -47 -86l-2 -4q-6 -20 -13 -43q-24 -87 -50 -225q-8 -45 -16 -95q10 -1 21 -1q47 2 87 3q53 2 69 1h7q1 -1 2 -1q2 -1 3 -3q3 -3 2 -6zM157 287h1q21 102 44 190
q3 13 7 25q-22 -57 -38 -111q-53 -168 -63 -307v-5q-1 -4 -1 -6q-1 -13 -1 -21q0 -17 5 -25q2 4 4 10q5 18 11 54q3 21 6 48q1 3 1.5 9.5t1 11t0.5 5.5q5 33 18 98q-6 1 -7 8v1q0 3 3 6q-1 0 -1 0.5t1 0.5q0 8 8 8zM265 826q-16 -3 -23 -12q-13 -17 -15 -25q11 20 27 31
q5 3 11 6zM223 739q-2 -1 -4 0q-9 2 -7 11l2 6q-9 21 -6 33.5t20 35.5q13 18 44 20q20 1 55 -6q7 -1 18 -4q28 -6 38 -7q16 -2 24 -1q-2 12 -11 32q-4 8 5 12q2 1 4 0q1 4 4 5q8 4 12 -4q13 -25 12 -40q-1 -10 -7 -15q-1 -13 -11 -17q-9 -5 -27 -1q-5 1 -14 3q-2 1 -9 3
t-8 2q-26 7 -43 8q-30 3 -50 -10q-21 -14 -31 -48q1 -3 3 -7q4 -8 -4 -12q-5 -3 -9 1zM136 34q4 21 10 62q2 8 7.5 44t5.5 40q7 47 13 83h-1q-13 -67 -18 -101l-1 -4q0 -5 -0.5 -11.5t-1.5 -9.5q-3 -27 -6 -49q-6 -37 -12 -56q-4 -13 -8 -19q-3 -5 -8 -6q-6 -3 -12 2
q-15 10 -16 43q0 9 1 23l1 5v5q10 141 63 311q36 115 113 299q5 12 12 29q2 6 6 14q0 1 1 3l2 4q2 5 3 8q0 1 2 6q3 7 6 13q6 12 11 17q6 8 14 7q8 -2 14 -10q3 -5 5 -14q2 -3 3 -9l1 -3v-3q1 -5 3 -10v-1q7 -11 12 -33q3 -11 4 -24l2 -14q11 -83 45 -231q2 -6 4 -18
q27 -114 37 -171q11 -59 17 -110q22 -115 2 -150q-2 -4 -5 -6q-5 -3 -10 -1q-5 3 -8 10t-6 24l-1 10q-2 9 -2 11q-7 35 -19 103q0 3 -1 6q-10 64 -17 99q-1 3 -2 9q-11 0 -16 -1q-2 -3 -6 -5h-4q-7 -1 -9 6q-43 1 -104 3q-20 1 -50 3q-11 -1 -21 -1q-6 -39 -14 -88
q-1 -4 -6.5 -39.5t-6.5 -44.5q-6 -41 -10 -62q-2 -9 -10.5 -7.5t-7.5 10.5z" />
    <glyph glyph-name="adieresis" unicode="&#xe4;" horiz-adv-x="448" 
d="M295 708q-10 -23 -21 -50q-17 -41 -28 -70l-1 -1q-8 -39 -31 -140q-21 -89 -31 -138q36 7 86 4q11 -1 34 -3q49 -4 73 -4q-16 68 -29 127q-25 113 -43 208l-1 9q-1 8 -3 20t-3 20v3q-1 8 -2 15zM418 261q-1 -1 -3 -1h-6q10 -46 21 -92q-5 42 -12 93zM416 278
q-18 136 -48 330q0 1 -1 3q0 3 -1 7v3v2l-1 1q-1 9 -2 13q-2 15 -4 26q-10 51 -27 79q-6 11 -12 14q-3 1 -6 -1q1 -4 2 -10q7 -31 15 -95q0 -5 1 -9q7 -53 13 -83q29 -145 60 -281q4 1 8 1h3zM196 293q21 0 50 3q-28 0 -50 -3zM295 282q56 -6 88 -5q-1 6 -2 11
q-27 -1 -86 -6zM149 283q0 7 6 9q5 33 11 65q18 102 41 177q17 74 36 127q3 10 5 20q11 42 20 65q12 27 23 30q9 3 15 -4q23 11 41.5 -20.5t29.5 -85.5q2 -11 4 -26q1 -6 2 -13q0 -1 0.5 -3.5t0.5 -3.5q1 -3 1 -6q0 -2 1 -3q30 -195 48 -331t24 -211v-1q1 -1 1 -2
q1 -2 1 -24q6 -22 11 -44q1 -1 1 -2q0 -7 -7 -9h-3q-7 0 -8 7q-1 5 -4 14q-7 1 -7 9q0 4 -1 9q-1 1 -2 2.5t-1 3.5q-1 4 1 7q0 3 1 7l-12 48q-16 62 -26 104q-8 32 -15 61q-37 -1 -103 5q-9 1 -23 3q-61 6 -85 7q-7 -43 -9 -56q-3 -18 -6 -34q-10 -75 -10 -138q0 -9 -9 -9
q-2 0 -5 1q-2 -12 -3 -21q-2 -8 -9 -8h-2q-7 2 -7 9v2q1 5 2 11q3 24 9 66q1 4 5 37t5 42q8 58 14 100q-4 3 -4 7h1zM366 804l-2 -6q-6 -9 -15 -6q-7 1 -14 10q0 1 -1 2q-4 1 -6 5q-2 8 5 11q2 4 7 6q3 1 7 2v1q0 3 1 5v3l2 2q2 3 5 4q5 1 8 -2q1 -1 2 -3q1 -1 1.5 -2.5
t0.5 -3.5q0 -4 1 -8h1q3 -3 5 -6q2 -7 -3 -11q-2 -2 -5 -3zM236 802q0 15 3 22q3 6 7 8q6 2 12 -2q6 -5 5.5 -14.5t-6.5 -16.5q-2 -2 -6 -3q-2 -3 -6 -3q-9 0 -9 9z" />
    <glyph glyph-name="aring" unicode="&#xe5;" horiz-adv-x="442" 
d="M304 733q-3 10 -5 19q-3 8 -5 15q-1 0 -1 1q-2 0 -4.5 -2t-4.5 -6q5 -3 11 -10q4 -7 9 -17zM261 773q-5 -5 -10 -12q-16 -24 -29 -54q-32 -76 -57 -353q-4 -45 -7 -96q2 19 6 39q8 47 26 132q19 92 25 128q1 3 1 6l1 15q1 15 1 19q2 21 3 37q5 47 13 75q10 36 27 48
q2 3 3 5q3 5 6 9q-5 1 -9 2zM232 845q0 34 29 61q23 20 48.5 20t44.5 -22q31 -37 17 -74q-11 -31 -46 -48q-7 -4 -14 -6q5 -5 9 -14q15 -30 28 -102q6 -32 12 -76l3 -27q2 -12 2 -14q12 -56 26 -145q2 -10 5 -30q2 -10 3 -18q1 -5 2 -11q1 -2 4 -19t4 -25h6q9 0 9 -9t-9 -9
h-2q29 -161 52 -237q1 -1 1 -3q0 -6 -7 -8q-1 -1 -2 -1q-7 0 -9 7q-13 44 -25 93q8 -59 13 -102q2 -9 -7 -10t-10 8q-14 105 -35 253q-20 0 -42 2h-12q-32 1 -56 1q-46 0 -78 -3q-9 -1 -10 8q-1 5 4 8q-2 3 -2 5t1 4q-1 5 3 9q3 3 8 4q6 2 20 3q29 3 88 3q15 0 20 -1
q3 0 6 -1l4 -1h4q3 0 5 -1q1 0 1 -1h2h9q9 0 9 -9t-9 -9q-11 0 -28 -1h20q21 -1 30 -1q-11 76 -21 140q-9 53 -16 97q-19 80 -40 141q-7 26 -11 38q-7 18 -13 27q-3 4 -5 5q-16 -33 -26 -88q-2 -12 -6 -42q-1 -6 -2 -9q-3 -27 -8 -51q-1 -22 -3 -32q-6 -33 -17 -89
q-15 -77 -20 -101q-6 -30 -10 -55q-9 -45 -15 -82q-10 -103 3 -184q1 -8 -8 -9.5t-10 7.5q-4 23 -6 46q-4 -35 -5 -62q0 -9 -9 -9q-9 1 -9 9v1q6 169 24 362q25 279 58 358q13 32 30 57q4 6 8 11q-17 13 -16 40q0 12 4 23zM259 874q3 2 6 3q1 1 2 1q10 8 20 13q29 13 54 -2
q3 -3 6 -5q-3 4 -6 9q-14 16 -33 15q-18 -1 -35 -16q-8 -8 -14 -18zM254 825l4 -6q6 -10 13 -16q14 5 26 -4q1 -1 2 -3q15 3 27 16q16 16 18 34t-13 27q-17 10 -36 2q-19 -9 -32 -28q-7 -12 -9 -22z" />
    <glyph glyph-name="ae" unicode="&#xe6;" horiz-adv-x="721" 
d="M509 23q10 -2 22 -3q30 -2 78 5q13 1 31 4q-7 1 -19 2q-28 2 -38 2q-6 0 -42 -6q-14 -2 -23 -3q-5 -1 -9 -1zM469 45q5 105 2 252q-2 48 -4 128l-22 2v-20q-1 -29 -1 -57q1 -44 2 -110q0 -1 0.5 -28t1.5 -34q0 -33 1 -55q1 -41 0 -65q1 -2 1 -3l2 -8q3 -3 8 -5q1 0 2 1
q4 1 7 2zM466 448v1q-3 75 -4 110q-1 21 -4 63q-3 34 -4 53q-5 -100 -8 -230h5q2 2 6 2q4 1 9 1zM620 773q7 1 13 1q-39 12 -94 12q-28 -1 -60 -4v-3q-1 -4 -2 -7h49q15 4 29 6q34 5 65 -5zM481 754h-7v-4q4 2 7 4zM351 621q-8 -15 -15 -31q-13 -28 -28 -60q-5 -12 -13 -29
q-2 -5 -9 -18q-12 -28 -21 -46q33 62 80 151q0 1 16 31t20 37q17 32 24 46q1 1 1 2q1 2 2 3q2 5 5 10q3 7 7 15q-10 -13 -20 -29q-24 -35 -49 -82zM243 297q50 6 97 9q41 3 66 2q12 0 19 -1q0 21 1 43q-1 29 -1 58q-1 153 6 244q3 44 8 75q1 2 1 4l-11 -22q-4 -7 -5 -10
q-1 -1 -2 -3q0 -1 -1 -2q-7 -14 -24 -47q-4 -7 -20 -36.5t-16 -31.5q-55 -103 -93 -176l-23 -46q-16 -31 -29 -59h14h2q3 0 11 -1zM91 10q-3 10 0 27q-4 -6 -7 -12q-3 -5 -8 -5q-3 0 -5 1q-4 3 -4 8q0 3 1 5q25 40 72 153q1 4 7 17.5t16.5 39l17.5 42.5q13 35 26 64
q5 12 10 23q9 21 14 33q59 140 104 223q16 33 30 60q28 54 48 83q12 17 21 25q6 5 11 7q7 3 13 0q3 -2 5 -5l2 2q5 7 12 2q2 -1 3 -3q31 3 59 4q60 0 103 -14q9 -3 6 -11q-1 -2 -3 -4q8 1 15 1q9 1 10 -7.5t-8 -9.5l-14 -2q1 -3 -1 -6q-4 -8 -12 -4q-9 5 -18 8
q-25 -1 -64 -1h-22h-2q-23 -7 -51 -22q-2 -1 -6 -1q-2 -34 4 -107q3 -43 4 -65q1 -35 4 -108q13 2 41 6q43 8 66 10q9 1 10 -8q0 -2 -1 -4q5 -1 7 -6q3 -8 -5 -12q-33 -12 -85 -13h-32q2 -78 4 -127q3 -144 -2 -248q39 9 97 11h26q52 1 78 4q0 5 5 8q7 5 12 -3l1 -1
q3 -5 4 -7t0 -5q4 2 7 6q6 7 13 1t1 -13q-5 -6 -13 -11q10 1 18 1q9 0 9 -9t-9 -9q-24 0 -89 -10q-22 -3 -35 -5q-50 -7 -83 -5q-27 2 -48 10q-6 -8 -18 -5q-9 2 -7 11q1 3 3 5l-1 1h-1q-9 3 -16 8h-1q-9 0 -9 9v15q-1 8 -2 22q-3 31 -4 84q-1 54 0 127h-1q-3 0 -7 1v-1
q0 -8 -8 -9q-30 -3 -73 -3q-25 0 -56 1q-46 0 -68 -3h-1q-3 0 -6 2q-23 -49 -41 -89q-8 -21 -18 -43q-4 -11 -9 -21q-35 -88 -28 -109q2 -8 -6.5 -11t-11.5 6z" />
    <glyph glyph-name="ccedilla" unicode="&#xe7;" horiz-adv-x="456" 
d="M381 26q10 13 19 31q-23 -39 -54 -62l-8 -6q22 9 43 37zM444 652q-1 3 -2 5q-1 6 -3 10l-1 -1q-2 0 -3 -1v-1q5 -6 9 -12zM292 759q54 16 114 -56q-18 30 -29 45q-16 21 -30 28q-16 8 -34 0q-6 -2 -12 -7q-5 -5 -9 -10zM262 22q5 -6 10 -10q30 -27 63 -2q16 12 30 28
q-37 -21 -85 -19q-10 1 -18 3zM334 -101q2 -3 5 -6q6 -9 9 -19q1 3 0 6q-1 10 -14 19zM286 -212l-10 -4q-3 -2 -7 -4q-2 -1 -4 -1q-5 0 -8 5q-1 2 -1 4q0 6 5 8l6 4q-4 5 -6 13q-2 9 7 11t11 -7q1 -6 3 -8q7 4 14 9q22 15 35 29q5 19 -7 36q-9 13 -31 27l-1 1h-2
q-4 -2 -5 -2q-8 -3 -12 -1q-6 1 -8 7q-1 3 0 7q0 3 1 5q-1 1 -2 1q-16 11 -18 21q-1 6 2 12q10 17 18 26q-29 20 -55 61q-42 39 -57 129q-3 12 -4 25q-25 105 -19 214q12 196 119 329q21 25 39 38q20 20 39 26q39 14 73 -26q35 -41 59 -120q4 -14 8 -32q1 -3 3 -10t3 -13
l2 -7q1 -4 -1 -8q3 -9 5 -18q1 -9 -8 -10.5t-10 7.5q-5 32 -41 81q-3 5 -8 11l-1 2q-2 3 -4 5.5t-3 3.5q-67 91 -121 61q-8 -5 -16 -12q-53 -92 -84 -246q-14 -71 -18 -139q1 -20 2 -41q2 -28 14 -81q16 -66 36 -117q12 -31 25 -53q17 -9 37 -10q72 -3 116 51q8 16 21 48
q0 1 0.5 2t1.5 2q16 40 26 60q5 8 12.5 4t3.5 -12q-5 -10 -9 -20q3 -2 3 -6q1 -3 0 -6q-23 -94 -58 -143t-78 -49q-7 0 -13 1l-6 -18q-1 -2 -1 -4l-5 -15q12 4 21 4h6q50 -8 55 -44q4 -27 -22 -60q-23 -31 -49 -41q-11 -3 -19 -3zM264 -48q1 -2 8 -7q6 15 8 26q1 3 1 6
q-7 -8 -17 -25zM427 703q-17 42 -40 69q-18 21 -38 23q3 -1 6 -3q18 -9 37 -34q12 -15 31 -48l2 -4v-1z" />
    <glyph glyph-name="egrave" unicode="&#xe8;" horiz-adv-x="359" 
d="M192 731q-3 -3 -5 -6v-3q0 -2 -1 -3q0 -8 -1 -23q-1 -28 -3 -76q5 71 10 111zM199 -5q-17 -1 -24 13q-2 5 -4 24q-2 8 -3 22q-2 30 -3 81v1q-3 98 -3 242q0 135 2 239q1 51 3 80q1 22 2 29q-2 0 -4 -1q-3 -1 -4 -1q-1 -4 -2 -7q-1 -9 -2 -25q-2 -31 -3 -84
q-1 -106 1 -247q3 -148 8 -249q4 -55 7 -87q2 -16 4 -26q1 -4 2 -7h2q8 1 21 3zM300 21h-11h-2q-2 -1 -4 -1q-5 -2 -9 -2q-19 -5 -32 -7q-3 -2 -4 -3q-7 -3 -12.5 -5t-10.5 -4q21 5 48 12q18 4 37 10zM328 438l-36 -5q-29 -4 -50.5 -7.5t-37.5 -6.5q-8 -1 -14 -2
q-1 -22 -2 -43q-6 -145 -5 -239q2 -66 5 -98q0 -2 1 -4v-2v-3q8 -5 31 -3q7 1 16 3q8 4 9 4q8 4 12 5q8 2 28 2q24 5 34 7q13 3 22 4v1q2 8 11 6q8 -2 7 -10q3 -3 2 -7q8 4 12 -3q5 -7 -2 -12q-12 -8 -104 -32q-39 -10 -64 -15q-14 -3 -23 -4q-4 -1 -7 0q-7 0 -10 4
q-6 8 -11 45q-3 33 -6 88q-6 102 -9 249q-2 142 -1 248q1 54 3 85q2 36 7 42q4 6 37 12q1 0 1 1q4 2 9 4q-4 3 -4 8q1 9 10 8h1q3 4 8 2q3 0 5 -2q28 -1 86 2q8 1 12 1q11 1 19 1q7 2 11 3q5 2 10 -2h22q9 0 9 -9t-9 -9q-18 0 -40 -1q-8 -2 -20 -4q-8 -3 -21 -4
q-5 -1 -11 -1l-30 -5h-3q-24 -4 -38 -6q-9 -78 -18 -265q36 0 64 2q47 6 78 21q8 4 12 -4t-4 -12q-27 -13 -64 -20q23 2 38 5q7 2 10 -5h1l1 1q8 0 9 -8v-2q0 -7 -7 -8q-1 -1 -2 -1zM207 450q1 1 2 1h-18v-4q7 3 11 3q2 1 5 0zM261 801q-10 8 -30 23q-11 7 -16 11l-2 1
q-16 11 -19 14q-1 1 -1.5 1t-1 0.5t-1 1.5t-1.5 2v5q1 3 4 6q2 1 4 1h2q2 0 3 -1v0h1l2 -2q1 2 3 3q7 5 12 -3q10 -15 28 -29l1 -1q31 -21 40 -26q5 -3 5 -8q0 -2 -1 -4q-3 -5 -8 -5q-2 0 -4 1q-7 4 -13 7q-4 0 -7 2z" />
    <glyph glyph-name="eacute" unicode="&#xe9;" horiz-adv-x="400" 
d="M201 416q1 -81 2 -168q2 57 -2 168zM233 733h-2q-12 -3 -19 -6q-5 -3 -6 -4q-6 -8 -8 -45q-2 -31 -1 -82q0 -13 1 -29v62q0 5 1 10q0 40 11 64q1 7 3 13t12 11l6 4zM221 365v3q3 38 5 61q4 62 3 85q0 18 -10 74q-2 9 -3 15q0 -52 3 -166q1 -43 2 -72zM289 355q1 1 1 2
q-3 0 -7 -1q-22 -2 -45 -5v-4q5 1 12 3q3 0 6 -1q8 1 21 4q7 1 12 2zM321 851q-31 -24 -63 -70q-5 -7 -12 -2q-4 3 -4 7q0 1 -1 1q-2 -4 -7 -4q-3 0 -5 2q-4 3 -4 8q0 3 2 5q3 4 8 10l9 12q3 4 5 7q21 31 53 63q3 3 6 3q4 0 7 -2v-1q5 0 8 -4q4 -5 1 -10q2 1 5 1q5 0 8 -4
q1 -2 1 -5q0 -4 -4 -7q-6 -4 -13 -10zM377 734q-27 -2 -81 -10q-31 -5 -48 -9q-8 -2 -12 -4q-5 -5 -9 -13q-4 -28 6 -87q1 -8 3 -20q11 -57 11 -77q1 -24 -3 -87q-2 -23 -4 -58q22 4 42 5q21 2 32 1q9 0 12 -3q6 -3 6 -10l8 2q9 3 11.5 -5.5t-6.5 -11.5q-13 -4 -43 -9
q-1 0 -3.5 -0.5t-3.5 -0.5q-18 -3 -28 -5q-1 0 -1 -1q-3 0 -5 -1q-11 -2 -16 -5q-2 -2 -4.5 -2t-4.5 2q-2 -25 -2 -26q-2 -25 -3 -44q-8 -112 -10 -172q-1 -71 5 -91h1h14q17 1 43 5q3 1 4 1q9 4 25 5q27 10 44 13q26 4 48 0q4 3 8.5 1.5t6.5 -6.5q5 -4 3 -10q-3 -8 -12 -5
h-1q-1 0 -2 -1q-7 -3 -17 -4q-12 -2 -41 -3h-4q-3 -1 -6 -1t-7 -1q-12 -2 -27 -4q-30 -11 -44 -14q-3 -2 -6 -3q-14 -5 -25 -6q-14 -1 -23 6l-3 3q-3 3 -5 9t-3 16q-1 9 -1 21q-2 15 -3 34q-4 59 -7 158q-4 162 -2 261q0 7 -1 26q0 4 -1 22.5t-1 19.5q-1 36 -2 61
q-2 118 12 138q11 15 90 26q26 4 56 7q18 1 35 3q9 1 9 -8q1 -1 0 -2q2 -2 2 -4q1 -3 -1 -6q3 -2 4 -6q0 -9 -9 -10z" />
    <glyph glyph-name="ecircumflex" unicode="&#xea;" horiz-adv-x="377" 
d="M250 385q1 170 -19 282q0 -39 5 -102q2 -24 4 -55q1 -6 3.5 -38.5t3.5 -37.5q3 -37 3 -49zM248 298q1 31 1 55q0 -18 -1 -55zM262 21q-4 2 -7 6q-8 9 -10 26q-1 12 -1 36v17q-1 -15 -1 -28q-1 -28 -1 -41v-12q6 -3 20 -4zM250 659q1 70 3 84q-11 -2 -16 -5q-1 0 -1 -2
l1 -1q0 -6 1 -16l2 -8q1 -5 2 -11l1 -2l1 -4q3 -18 6 -35zM309 871l-3 3q-4 4 -7 3q-5 -1 -12 -10q6 3 12 4q5 1 10 0zM370 738q-25 5 -69 6q-15 1 -27 0q-3 -2 -4 -4q-2 -8 -2 -121q1 -98 3 -230q13 -3 41 -2q17 2 26 1q17 0 30 -5q9 -4 5.5 -12t-11.5 -5q-4 1 -7 2
q1 -2 1 -5q1 -9 -8 -9v-1q-1 -9 -10 -8q-19 3 -32 0q-9 -2 -34 -13q2 -122 5 -207q2 -53 4 -82q0 -6 1 -11q11 -2 33 0q4 1 16 1q13 1 18 1q15 1 23 2q4 1 6 2q1 0 1 1q3 5 9 4q2 1 5 1q9 -1 8 -10q-3 -23 -25 -24q-5 0 -16 -1q-2 0 -11.5 -1.5t-10.5 -1.5h-7l-7 -4
q-9 -4 -15 -7q-12 -4 -21 -3q-12 1 -19 10h-1q-29 2 -41 12q-3 3 -3 8v3v12q0 14 1 42q1 38 3 125v2v3q4 163 4 175t-3 48q-1 6 -3.5 38t-3.5 39q-2 31 -4 55q-6 77 -6 122q1 60 13 72q18 17 67 17q13 0 33 -1.5t25 -1.5q9 0 9 -9v-2q2 0 3 -1q3 -1 5 -3q4 -1 6 -2
q9 -1 7.5 -10t-10.5 -7zM272 359q20 6 39 8q9 2 23 3q-7 1 -21 0q-18 -2 -27 -1q-8 0 -15 1v-11h1zM210 806q2 2 14 12.5t14 13.5q10 9 17 14q1 2 2 3q5 7 6 11v1q2 6 9 16q23 31 46 11q9 -9 19 -28q19 -14 50 -53q2 -2 2 -5q0 -5 -3 -7t-6 -2q-4 0 -7 3q-9 12 -17 20
q4 -8 7 -12h1q6 -7 -0.5 -13t-12.5 0l-1 1q-5 6 -12 20q-2 4 -5 12q-4 10 -5 13l-5 10q-10 6 -18 6q-6 0 -14 -4t-17 -14q-12 -11 -41 -47q-3 -3 -7 -3q-3 0 -6 2q-1 2 -2 3q-5 -1 -9 3q-6 7 1 13z" />
    <glyph glyph-name="edieresis" unicode="&#xeb;" horiz-adv-x="344" 
d="M209 172v-6q10 105 13 188q-8 0 -8 8q0 9 9 9q2 42 2 82q1 146 -17 274l-4 -2v-18q0 -29 1 -82q0 -14 1 -31v-26q1 -25 1 -31v-32v-4v-3v-1v-5q1 -21 2 -28q2 -16 1 -47q0 -15 -2 -63q-1 -28 -2 -47v-38q1 -55 3 -97zM246 29q-17 13 -28 35q4 -26 9 -33q3 -5 19 -2z
M274 756q1 0 1 1q-2 -1 -4 -1h3zM325 361h4q9 -2 7.5 -11t-10.5 -7q-19 3 -45 2q-12 0 -33 -1q-6 -1 -8 -1q-4 -80 -13 -180q0 -4 -3 -19l-3 -14q-2 -8 -3 -14q6 -25 15 -43q15 -29 39 -39q13 3 19 3h8h5q3 -1 5 -1q9 -1 15 -1h7q8 2 16 6q2 1 3 3q4 8 12 4q6 -4 4 -11
q3 -5 -1 -10q-5 -6 -15 -9q-4 -2 -9 -4q-8 -2 -28 -2h-5h-1q-4 -1 -8 -1t-19 -1q-14 -2 -23 -2q-45 -3 -60 10q-8 8 -7 33q1 17 6 46q-3 30 -5 74q-4 36 -4 82q0 25 1 54q0 70 1 155v25v5q-3 52 -4 111q-2 53 -1 86q0 30 2 39q1 21 4 24q6 8 15 7q2 3 5 5q2 1 4 1l9 3
q11 1 29 4q13 2 31 4q8 0 25.5 2t30.5 3.5t14 1.5q8 2 10 -7q1 -4 -1 -7q4 -3 4 -8q-1 -9 -10 -8h-2q1 -2 1 -3q0 -9 -9 -9q-34 0 -69 -3q-21 -5 -36 -7q-6 -1 -13 2q-1 -1 -3 -1q19 -131 18 -279q0 -29 -1 -58h24h14q18 -1 27 -1t9 -9q0 -3 -1 -5q5 -1 10 -1q8 -1 8 -9v-1
q0 -7 -8 -8zM219 816v1q-1 1 -1 2q0 5 4 7q2 2 5 2q4 0 7 -2q3 1 5 0q5 0 8 -4q4 -6 2 -12q0 -2 -1 -3q0 -1 1 -2q5 -7 -2 -12.5t-13 2.5q0 1 -1 1q-3 -2 -7 -1q-6 -2 -10 -1t-6 3q-4 4 -2 9q1 5 6 9q2 1 5 1zM303 824q4 7 7 11q6 5 12.5 3t7.5 -10t-4 -17t-14 -13
q-8 -4 -12 -4.5t-7 0.5q-7 3 -6 11q1 6 11 15q3 2 5 4z" />
    <glyph glyph-name="igrave" unicode="&#xec;" horiz-adv-x="179" 
d="M124 535q-1 -11 -1 -22q-6 -74 -7 -204v-9q2 -44 6 -102v190q1 80 2 147zM173 739q-8 -14 -13 -120q-5 -92 -8 -230q-3 -238 2 -335v-1l1 -1q4 -3 3 -8q0 -2 -1 -4l-2 -2q0 -2 1 -3v-2q0 -7 -8 -9h-1q-3 0 -5 2q-2 -3 -5 -4q-8 -4 -11 5q-1 2 -2 9q-4 -1 -7 3q-1 1 -2 3
v1q-1 1 -1 2q0 2 -1 6v3l-3 3q0 2 -0.5 3.5t-1.5 3.5v11q-1 10 -1 30v15l-2 22q-8 104 -7 134v20v13q-3 82 -1 150q4 145 32 252q2 40 4 47q1 2 1 4q0 1 1 2q0 2 1.5 3.5t3.5 2.5q1 1 2 1q2 1 4 1q4 2 8 -1h2q3 5 5 9q5 8 12.5 3.5t3.5 -12.5q-5 -9 -10 -19q1 0 2 -1
q8 -4 4 -12zM174 819q-14 7 -26 19q-8 7 -19 22l-1 2l-2 2l-4 4q-6 8 -10 13q-1 0 -2 1q-1 2 -3 3q-4 3 -4 8q0 2 1 4q3 5 8 5q2 0 5 -2q45 -30 82 -60q7 -5 1 -12q-4 -6 -10 -3q-2 -3 -5 -4q-5 -4 -11 -2z" />
    <glyph glyph-name="iacute" unicode="&#xed;" horiz-adv-x="171" 
d="M127 719q-1 -25 -4 -67q0 -5 -1 -13q-4 -62 -5 -93q-1 -44 2 -81q1 22 3 51q4 107 5 139q1 39 0 64zM138 165q4 -46 10 -82q-2 48 -4 123q-1 73 -2 199l-2 -53q-1 -32 -2 -51q-2 -51 -2 -71q1 -10 1 -31q1 -20 1 -34zM182 878q1 -1 1 -2q1 1 2 0q5 1 8 -4q1 -2 1 -4
q0 -5 -4 -8q-15 -10 -42 -41l-1 -1q0 -1 -1 -2q-16 -19 -25 -27q-6 -7 -12 0q-3 3 -3 7q-3 0 -5.5 2.5t-2.5 6.5t2 7q6 5 11 10q18 27 59 58q2 2 5 2q4 0 7 -4zM157 755q2 -80 3 -270v-8v-3q1 -185 2 -268q2 -100 6 -153q1 -1 1 -2q2 -15 2 -17t1 -5q1 -2 0 -4q0 -1 -1 -3
q0 -1 0.5 -1t0.5 -1q0 -8 -8 -9h-2q-3 0 -5 2q-8 -2 -11 6q-5 16 -10 35v-27v-18v-5q0 -5 -1 -11v-9l-1 1q-2 8 -5 9q-7 -2 -11 4l-2 4q-1 3 -1 9v22q1 23 2 35q1 9 1 16v2v1q0 92 -2 138q-1 19 -3 58v1q-4 111 -10 166q-5 44 -4 96q1 32 5 94q1 9 1 13q5 64 5 102q0 9 9 9
q6 0 8 -5q3 2 6 2q1 1 1 0q4 1 6 -2q3 5 8 5q9 0 9 -9z" />
    <glyph glyph-name="icircumflex" unicode="&#xee;" horiz-adv-x="243" 
d="M147 31q0 32 -4 73q-3 -54 -3 -92q0 -3 -2.5 -6t-6.5 -3q-9 0 -9 9q0 259 5 522v89q-1 15 -1 40q-1 75 -1 95v15q0 9 9 9v-1q9 0 9 -8v-1v-14v-3q11 -2 21 -21q4 -8 -4 -12t-12 4q-3 5 -5 8q0 -20 1 -70q0 -25 1 -41v-90q-2 -77 -3 -150q3 37 10 118q1 7 1 11q6 68 8 104
q6 94 4 145q0 9 9 9t9 -9q2 -53 -2 -123q-1 -12 -2 -23q0 -11 -1 -23q-4 -67 -16 -218l-5 -60q-1 -37 -1 -68q1 -28 3 -72q1 -9 1 -23q5 -88 5 -120q0 -9 -9 -9t-9 9zM193 860q4 -4 8 -9l6 -6q-3 5 -5 8q-5 7 -9 7zM177 851l-7 -7h1q7 0 15 -2zM179 873v1q22 12 38 -11
q5 -8 18 -35q15 -32 26 -52q1 -2 1 -4q1 -2 3 -3q5 -7 -2 -12.5t-13 1.5q-8 11 -21 28q-11 14 -15 20q-22 19 -44 20q-10 1 -20 -2v-1q-1 -1 -5.5 -6.5t-5.5 -6.5q-6 -7 -11 -12l-3 -4q-3 -4 -7 -9.5t-7 -7.5l-2 -4l-13 -13q0 -1 -1 -1q-4 -10 -7 -20q-3 -9 -11.5 -6
t-5.5 12l4 10q-3 3 -4 8q0 3 1 8q0 2 1 3l1 3q17 63 37 89q21 26 47 19q10 -3 21 -12zM163 862q-5 4 -10 5q-15 5 -28 -12q-12 -16 -23 -48q17 23 38 32q13 15 23 23z" />
    </font>
</defs>
</svg>
