<svg id="eqQKPo974501" xmlns="http://www.w3.org/2000/svg" xmlns:xlink="http://www.w3.org/1999/xlink" viewBox="0 0 473 538.800000" shape-rendering="geometricPrecision" text-rendering="geometricPrecision"><style><![CDATA[#eqQKPo974502_tr {animation: eqQKPo974502_tr__tr 2000ms linear 1 normal forwards}@keyframes eqQKPo974502_tr__tr { 0% {transform: translate(73.200000px,496.738647px) rotate(0deg)} 25% {transform: translate(73.200000px,496.738647px) rotate(-18.941235deg)} 50% {transform: translate(73.200000px,496.738647px) rotate(3.456396deg)} 100% {transform: translate(73.200000px,496.738647px) rotate(3.456396deg)}} #eqQKPo974506_ts {animation: eqQKPo974506_ts__ts 2000ms linear 1 normal forwards}@keyframes eqQKPo974506_ts__ts { 0% {transform: translate(97.839890px,334.200000px) scale(1,1)} 49.500000% {transform: translate(97.839890px,334.200000px) scale(1,1)} 50% {transform: translate(97.839890px,334.200000px) scale(0,0);animation-timing-function: cubic-bezier(0.230000,1,0.320000,1)} 100% {transform: translate(97.839890px,334.200000px) scale(1,1)}} #eqQKPo974506 {animation: eqQKPo974506_c_o 2000ms linear 1 normal forwards}@keyframes eqQKPo974506_c_o { 0% {opacity: 0} 49.500000% {opacity: 0} 50% {opacity: 1} 100% {opacity: 1}} #eqQKPo974508_tr {animation: eqQKPo974508_tr__tr 2000ms linear 1 normal forwards}@keyframes eqQKPo974508_tr__tr { 0% {transform: translate(104.800000px,366.900000px) rotate(0deg)} 25% {transform: translate(104.800000px,366.900000px) rotate(-10.850646deg)} 50% {transform: translate(104.800000px,366.900000px) rotate(-6.849004deg)} 100% {transform: translate(104.800000px,366.900000px) rotate(-6.849004deg)}} #eqQKPo974509_tr {animation: eqQKPo974509_tr__tr 2000ms linear 1 normal forwards}@keyframes eqQKPo974509_tr__tr { 0% {transform: translate(107.200000px,364px) rotate(0deg)} 25% {transform: translate(107.200000px,364px) rotate(-4.085040deg)} 50% {transform: translate(107.200000px,364px) rotate(-3.329448deg)} 100% {transform: translate(107.200000px,364px) rotate(-3.329448deg)}} #eqQKPo9745010_tr {animation: eqQKPo9745010_tr__tr 2000ms linear 1 normal forwards}@keyframes eqQKPo9745010_tr__tr { 0% {transform: translate(111.238945px,367.888310px) rotate(0deg)} 25% {transform: translate(111.238945px,367.888310px) rotate(14.533685deg)} 50% {transform: translate(111.238945px,367.888310px) rotate(5.978891deg)} 100% {transform: translate(111.238945px,367.888310px) rotate(5.978891deg)}}]]></style><g id="eqQKPo974502_tr" transform="translate(73.200000,496.738647) rotate(0)"><g id="eqQKPo974502" transform="translate(-73.200000,-496.738647)"><path id="eqQKPo974503" d="M72.200000,487.800000C72.100000,488.300000,71.900000,488.800000,71.800000,489.200000C69.900000,485.900000,67,464.300000,61.100000,468.500000C56.800000,471.500000,62.300000,483.900000,62.700000,487.900000C63,491.200000,61.500000,492.100000,60.600000,494.500000C63.700000,495.800000,68.600000,496.200000,72,496.700000C76.100000,497.300000,73.600000,490.800000,72.200000,487.800000Z" fill="rgb(244,231,208)" stroke="none" stroke-width="1"/><path id="eqQKPo974504" d="M65.700000,490.700000C63.400000,487.800000,55.800000,467.400000,63.400000,467.400000C66.900000,467.400000,68.800000,486.500000,73.200000,492" fill="none" stroke="rgb(26,24,24)" stroke-width="0.799000" stroke-miterlimit="10"/></g></g><path id="eqQKPo974505" d="M145.800000,506.200000C142.400000,501,143.400000,493,139.500000,488.700000C131.400000,494.100000,133.500000,471.600000,133,467.800000C131.300000,455.700000,128.300000,443.500000,125.500000,431.300000C127.700000,433.300000,130.900000,431.600000,132,429.100000C133,426.700000,131.900000,423.700000,131.600000,421.400000C130.700000,414.600000,131.300000,407.400000,130,400.600000C128.500000,392.300000,126.200000,384.100000,123.200000,376.200000C121.800000,372.500000,119.900000,369.400000,118.200000,365.900000C116.900000,363.300000,116.500000,360.700000,114.100000,359C107.300000,354.200000,100.600000,359.600000,95.900000,364.800000C90.200000,371.100000,84.500000,377.400000,80.200000,384.800000C78.100000,388.300000,75.600000,391,73.200000,394.300000C70.100000,398.400000,68.700000,404,67.400000,408.900000C65.900000,414.400000,64.700000,428.900000,71.300000,431C76.700000,428.200000,79.700000,421.500000,82.100000,415.500000C81.500000,416.300000,80.900000,417,80.300000,417.700000L82.700000,413.900000C83.100000,413,83.400000,412.100000,83.800000,411.200000C83.800000,411.500000,83.800000,411.900000,83.800000,412.200000L82.700000,413.900000C82.500000,414.400000,82.300000,415,82.100000,415.500000C82.600000,414.800000,83.100000,414.100000,83.500000,413.400000C85.100000,417.100000,84.700000,425.100000,84.300000,429C83.900000,433.300000,80.600000,437.600000,79.400000,441.800000C77.500000,448.400000,77.600000,455.200000,75.200000,461.800000C72.100000,470.200000,74.300000,479.400000,72.200000,487.800000C73.600000,490.800000,70.900000,491.200000,66.600000,490.600000C63.200000,490.100000,63.600000,495.900000,60.500000,494.600000C60.300000,495,60.200000,495.500000,60,496.100000C59.400000,498.800000,60.900000,502.300000,61.700000,504.900000C63.500000,511.100000,69,518.400000,66.100000,524.300000C62.200000,532,68.200000,532.200000,74.800000,531.500000C76.300000,531.300000,77.700000,531.200000,79.200000,531.200000C80.200000,531.400000,81.200000,532.600000,82.200000,532.600000C84.900000,532.700000,86.200000,530.600000,88.200000,529.100000C89.900000,535.400000,94.700000,528.600000,97.400000,529.700000C99.900000,524.500000,105.200000,525.200000,110.200000,524.200000C112.600000,523.700000,115.400000,523.600000,117.800000,523.100000C122,522.300000,120.100000,523,123.300000,525.400000C125.900000,527.300000,128.700000,525.900000,132.100000,525.700000C132.900000,525.600000,133.300000,524.900000,134.300000,525C135.100000,525,135.900000,526.400000,136.500000,526.400000C138.300000,526.300000,138,524.700000,139.400000,524.600000C140.900000,524.400000,142.600000,525.600000,144.200000,525.700000C145.500000,525.700000,146.900000,525.600000,148.200000,525.300000C150.900000,525,155.500000,525.600000,156.300000,523.100000C158,517.900000,148.200000,509.900000,145.800000,506.200000Z" fill="rgb(244,231,208)" stroke="none" stroke-width="1"/><g id="eqQKPo974506_ts" transform="translate(97.839890,334.200000) scale(1,1)"><path id="eqQKPo974506" d="M365.200000,58.100000L363.500000,59.100000L363.600000,57.100000C363.600000,56.700000,363.600000,56.900000,363.600000,56.800000L363.300000,56.100000L362.600000,54.600000C362.200000,53.600000,361.600000,52.700000,361.100000,51.700000C360.100000,49.800000,359,47.900000,357.800000,46.100000C355.500000,42.400000,352.900000,39,350,35.700000C344.300000,29.200000,337.600000,23.600000,330.300000,19.100000C315.500000,10.200000,298.500000,5.500000,281.200000,5.500000C264,5.400000,247.100000,9.900000,232.200000,18.400000C217.400000,27,205.200000,39.400000,196.900000,54.300000L195,57.700000L191.700000,55.600000C182.900000,49.900000,173.100000,46,162.900000,44C152.800000,42,142.300000,42.400000,132.400000,45.200000C127.500000,46.600000,122.900000,48.700000,118.600000,51.400000C114.500000,54.100000,110.800000,57.500000,107.900000,61.400000C104.900000,65.600000,102.200000,70,100.100000,74.700000C99,77.100000,97.900000,79.500000,96.900000,82C95.900000,84.400000,95.100000,86.800000,94.400000,89.300000L92.500000,96L86.800000,91.700000C80.700000,87.100000,72.400000,85.500000,64.400000,86.600000C56.400000,87.700000,49,91.500000,43.500000,97.300000C38.100000,103.100000,35.200000,110.900000,35.400000,118.800000C35.500000,126.800000,38.200000,135,42.200000,142.600000L44.200000,146.400000L40.800000,149.100000C28.400000,159.200000,20.300000,173.500000,18.200000,189.300000C16,204.900000,19.900000,221.200000,29.900000,233.200000C34.900000,239.200000,41,244.200000,48,247.800000C55.100000,251.500000,62.700000,254,70.600000,255.500000C86.500000,258.500000,103.300000,257.800000,119.700000,255.300000L125.600000,254.400000L126.300000,260.300000C126.700000,264.700000,126.700000,269.200000,126.100000,273.600000C125.600000,277.800000,124.800000,282,123.700000,286C121.500000,294.100000,118.500000,301.900000,114.700000,309.300000C110.100000,318.200000,104.500000,326.600000,98.100000,334.200000C102.300000,333,106.500000,331.700000,110.600000,330.200000C120.600000,326.600000,130.300000,322,139.400000,316.400000C148.400000,310.900000,156.700000,304.300000,164.200000,296.800000C167.800000,293.100000,171.200000,289,174.200000,284.800000C177.100000,280.700000,179.500000,276.200000,181.300000,271.500000L184.500000,262.300000L190.500000,269.900000C197.100000,278.300000,206,284.600000,216.100000,288.200000C226.300000,291.700000,237.300000,292.600000,248,290.700000C258.700000,288.900000,268.900000,284.700000,277.700000,278.200000C286.400000,271.800000,293.200000,263,297.300000,253L299.900000,246.600000L304.600000,251.600000C311.700000,259.100000,322.400000,262.900000,333.300000,263.600000C344.400000,264.200000,355.400000,262.400000,365.700000,258.200000C376.100000,254.100000,385.300000,247.800000,392.900000,239.500000C400.300000,231.300000,405.300000,221.100000,407.100000,210.200000L407.500000,208L409.600000,207.500000C420.100000,205,429.700000,199.700000,437.400000,192.200000C445.200000,184.700000,450.700000,175.100000,453.200000,164.600000C455.700000,154,454.400000,142.900000,449.500000,133.200000C444.600000,123.500000,436.100000,115.800000,426.400000,110.500000L425.400000,110L425.700000,109C428.500000,100.700000,429.200000,91.900000,427.500000,83.300000C425.900000,74.600000,421.500000,66.600000,415,60.600000C408.100000,55,399.500000,51.900000,390.600000,51.600000C381.400000,51.300000,372.800000,53.600000,365.200000,58.100000Z" transform="translate(-97.839890,-334.200000)" opacity="0" fill="rgb(217,232,230)" stroke="rgb(57,62,63)" stroke-width="3"/></g><path id="eqQKPo974507" d="M84.400000,380.300000C87.300000,371.500000,103.100000,352.300000,114.800000,358.700000C120.100000,361.600000,121.200000,372.700000,123,378" fill="none" stroke="rgb(26,24,24)" stroke-width="0.799000" stroke-miterlimit="10"/><g id="eqQKPo974508_tr" transform="translate(104.800000,366.900000) rotate(0)"><path id="eqQKPo974508" d="M94.300000,357.600000C98.400000,359.400000,101.900000,362.900000,104.800000,366.900000" transform="translate(-104.800000,-366.900000)" fill="none" stroke="rgb(26,24,24)" stroke-width="0.799000" stroke-miterlimit="10"/></g><g id="eqQKPo974509_tr" transform="translate(107.200000,364) rotate(0)"><path id="eqQKPo974509" d="M98.400000,354.100000C102.500000,356.400000,106,359.400000,107.200000,364" transform="translate(-107.200000,-364)" fill="none" stroke="rgb(26,24,24)" stroke-width="0.799000" stroke-miterlimit="10"/></g><g id="eqQKPo9745010_tr" transform="translate(111.238945,367.888310) rotate(0)"><path id="eqQKPo9745010" d="M108.300000,353.500000C111.800000,357.600000,111.200000,363.400000,111.200000,368.100000" transform="translate(-111.238945,-367.888310)" fill="none" stroke="rgb(26,24,24)" stroke-width="0.799000" stroke-miterlimit="10"/></g><path id="eqQKPo9745011" d="M85.500000,379.200000C79.100000,383.900000,59.200000,424.700000,70.900000,430C75,426.500000,82.600000,416.600000,83.200000,410.700000" fill="none" stroke="rgb(26,24,24)" stroke-width="0.799000" stroke-miterlimit="10"/><path id="eqQKPo9745012" d="M85,403.700000C83.800000,406,85,411.900000,85,415.400000C85,420.700000,81.500000,428.200000,83.200000,432.900000C87.900000,448.700000,96.600000,432.900000,101.900000,432.300000C110.100000,431.100000,118.200000,450.400000,124.100000,432.300000C126.400000,424.700000,121.200000,416.500000,121.200000,409" fill="none" stroke="rgb(26,24,24)" stroke-width="0.799000" stroke-miterlimit="10"/><path id="eqQKPo9745013" d="M122.900000,376.800000C127.600000,385,129.300000,404.200000,131.100000,415.900000C131.100000,418.200000,133.400000,427.600000,131.100000,429.900000C128.200000,432.200000,125.300000,429.900000,124.700000,427" fill="none" stroke="rgb(26,24,24)" stroke-width="0.799000" stroke-miterlimit="10"/><path id="eqQKPo9745014" d="M101.900000,418.900000C99,418.900000,96.600000,418.300000,94.900000,415.400000C99.600000,415.400000,103.700000,413.100000,107.700000,414.200000C107.100000,416.500000,105.900000,418.900000,104.200000,420C103.600000,418.800000,102.400000,418.800000,101.900000,418.200000" fill="none" stroke="rgb(26,24,24)" stroke-width="0.799000" stroke-miterlimit="10"/><path id="eqQKPo9745015" d="M91.400000,393.200000C92,392.600000,91.400000,396.100000,92.600000,399C92.500000,396.800000,92.100000,394.700000,91.400000,392.600000C91.400000,394.600000,91.800000,396.600000,92.600000,398.400000" fill="none" stroke="rgb(26,24,24)" stroke-width="0.799000" stroke-miterlimit="10"/><path id="eqQKPo9745016" d="M111.200000,392C111.300000,394,111.100000,395.900000,110.600000,397.800000L110.600000,397.800000C110.600000,396.600000,111.200000,395.500000,111.200000,393.700000C111.300000,395.200000,110.800000,396.600000,110,397.800000" fill="none" stroke="rgb(26,24,24)" stroke-width="0.799000" stroke-miterlimit="10"/><path id="eqQKPo9745017" d="M103.100000,426.500000C103.100000,428.300000,102.500000,430,101.300000,430.600000" fill="none" stroke="rgb(26,24,24)" stroke-width="0.799000" stroke-miterlimit="10"/><path id="eqQKPo9745018" d="M95.500000,436.400000L106.600000,436.400000C106,437.600000,105.400000,437,104.300000,437" fill="none" stroke="rgb(26,24,24)" stroke-width="0.799000" stroke-miterlimit="10"/><path id="eqQKPo9745019" d="M100.100000,438.700000C100.800000,439.300000,101.800000,439.300000,102.400000,438.700000" fill="none" stroke="rgb(26,24,24)" stroke-width="0.799000" stroke-miterlimit="10"/><path id="eqQKPo9745020" d="M86.100000,395.500000C86.100000,399.600000,83.800000,407.200000,84.300000,409.500000" fill="none" stroke="rgb(26,24,24)" stroke-width="0.799000" stroke-miterlimit="10"/><path id="eqQKPo9745021" d="M120.600000,389.100000C121.700000,392.900000,121.900000,396.900000,121.200000,400.800000C121.200000,403.100000,118.900000,407.200000,120.600000,404.900000" fill="none" stroke="rgb(26,24,24)" stroke-width="0.799000" stroke-miterlimit="10"/><path id="eqQKPo9745022" d="M96.600000,416.500000C96.600000,416.500000,102.400000,415.900000,105.400000,415.900000L100.100000,415.900000C101.900000,416.900000,103.900000,417.700000,105.900000,418.200000C103,415.300000,99.500000,415.300000,97.100000,418.200000C99.400000,420.500000,100.600000,419.400000,102.900000,418.800000" fill="none" stroke="rgb(26,24,24)" stroke-width="0.799000" stroke-miterlimit="10"/><path id="eqQKPo9745023" d="M99.600000,417.700000C98.400000,417.700000,103.700000,418.300000,104.900000,418.300000C104.200000,417.800000,103.400000,417.600000,102.600000,417.700000" fill="none" stroke="rgb(26,24,24)" stroke-width="0.799000" stroke-miterlimit="10"/><path id="eqQKPo9745024" d="M83.200000,516.300000C78.500000,525.100000,82,542,89.600000,526.200000C87.800000,532,93.700000,536.100000,95.400000,529.100000C96.600000,529.700000,97.200000,530.300000,98.300000,530.900000C99.900000,529.400000,100.600000,527.200000,100.100000,525.100000" fill="none" stroke="rgb(26,24,24)" stroke-width="0.799000" stroke-miterlimit="10"/><path id="eqQKPo9745025" d="M142.200000,514.600000C142.200000,517.500000,142.800000,530.900000,137.500000,521.600000C138.100000,526.900000,126.400000,529.200000,128.200000,523.900000C128.800000,529.200000,125.300000,528.600000,122.900000,524.500000" fill="none" stroke="rgb(26,24,24)" stroke-width="0.799000" stroke-miterlimit="10"/><path id="eqQKPo9745026" d="M128.100000,447.500000C130.400000,469.700000,135.700000,497.100000,143.300000,516.400000" fill="none" stroke="rgb(26,24,24)" stroke-width="0.799000" stroke-miterlimit="10"/><path id="eqQKPo9745027" d="M113.600000,457.400000C115.400000,475.500000,115.400000,495.900000,120.600000,512.800000C119.400000,516.900000,124.100000,523.900000,122.400000,525.100000" fill="none" stroke="rgb(26,24,24)" stroke-width="0.799000" stroke-miterlimit="10"/><path id="eqQKPo9745028" d="M97.200000,459.200000C97.200000,473.800000,96.600000,490.100000,99.500000,504.700000C98.300000,508.800000,104.200000,524,98.300000,523.400000" fill="none" stroke="rgb(26,24,24)" stroke-width="0.799000" stroke-miterlimit="10"/><path id="eqQKPo9745029" d="M82,460.300000C84.900000,474.300000,82.600000,490.700000,82.600000,505.200000C82.600000,507.500000,82,520.400000,83.200000,518" fill="none" stroke="rgb(26,24,24)" stroke-width="0.799000" stroke-miterlimit="10"/><path id="eqQKPo9745030" d="M82,433.500000C77.300000,439.300000,76.200000,460.900000,75,470.300000C74.400000,475.600000,73.200000,493.100000,73.200000,493.600000" fill="none" stroke="rgb(26,24,24)" stroke-width="0.799000" stroke-miterlimit="10"/><path id="eqQKPo9745031" d="M76.800000,496.500000C73.900000,495.900000,69.800000,490.100000,65.700000,491.200000C54,495.300000,68,516.300000,71,522.100000C66.300000,523.300000,59.900000,527.900000,66.900000,532C68.700000,533.200000,75.700000,530.800000,78,530.200000" fill="none" stroke="rgb(26,24,24)" stroke-width="0.799000" stroke-miterlimit="10"/><path id="eqQKPo9745032" d="M106.600000,523.900000L106,523.900000" fill="none" stroke="rgb(26,24,24)" stroke-width="0.799000" stroke-miterlimit="10"/><path id="eqQKPo9745033" d="M106.600000,523.900000L106.600000,523.900000" fill="none" stroke="rgb(26,24,24)" stroke-width="0.799000" stroke-miterlimit="10"/><path id="eqQKPo9745034" d="M126.400000,431.100000C127.500000,439.200000,129.300000,447.200000,131.700000,455C131.700000,455.600000,131.700000,453.200000,131.100000,453.800000C133.400000,463.700000,134,477.100000,135.200000,485.300000" fill="none" stroke="rgb(26,24,24)" stroke-width="0.799000" stroke-miterlimit="10"/><path id="eqQKPo9745035" d="M101,525.400000C105.400000,525.400000,110.600000,525.400000,115,524.500000" fill="none" stroke="rgb(26,24,24)" stroke-width="0.799000" stroke-miterlimit="10"/><path id="eqQKPo9745036" d="M108.900000,524.500000C111.700000,524.400000,114.500000,523.500000,116.800000,521.900000" fill="none" stroke="rgb(26,24,24)" stroke-width="0.799000" stroke-miterlimit="10"/><path id="eqQKPo9745037" d="M135.200000,490.600000C136.500000,490.300000,137.700000,489.800000,138.900000,489.100000C139.300000,489.500000,140,489.500000,140.400000,489.800000C140.400000,497.500000,145.100000,505.100000,150.300000,511C152.900000,514.300000,159.100000,519.800000,154,523.400000C151.400000,525.200000,145.600000,523.800000,142.300000,524.100000" fill="none" stroke="rgb(26,24,24)" stroke-width="0.799000" stroke-miterlimit="10"/><path id="eqQKPo9745038" d="M83.800000,411.200000C83.500000,412,83.100000,412.900000,82.700000,413.900000L83.800000,412.200000C83.800000,411.900000,83.800000,411.500000,83.800000,411.200000Z" fill="none" stroke="none" stroke-width="1"/><path id="eqQKPo9745039" d="M80.300000,417.700000C80.900000,417,81.500000,416.300000,82.100000,415.500000C82.300000,414.900000,82.500000,414.400000,82.700000,413.900000L80.300000,417.700000Z" fill="rgb(244,231,208)" stroke="none" stroke-width="1"/></svg>