<svg id="e4ySev6YXwW1" xmlns="http://www.w3.org/2000/svg" xmlns:xlink="http://www.w3.org/1999/xlink" viewBox="0 0 473 538.800000" shape-rendering="geometricPrecision" text-rendering="geometricPrecision"><style><![CDATA[#e4ySev6YXwW3_ts {animation: e4ySev6YXwW3_ts__ts 2000ms linear 1 normal forwards}@keyframes e4ySev6YXwW3_ts__ts { 0% {transform: translate(95.850000px,334.523678px) scale(1,1)} 50% {transform: translate(95.850000px,334.523678px) scale(0,0);animation-timing-function: cubic-bezier(0.230000,1,0.320000,1)} 100% {transform: translate(95.850000px,334.523678px) scale(1,1)}} #e4ySev6YXwW3 {animation: e4ySev6YXwW3_c_o 2000ms linear 1 normal forwards}@keyframes e4ySev6YXwW3_c_o { 0% {opacity: 0} 49.500000% {opacity: 0} 50% {opacity: 1} 100% {opacity: 1}} #e4ySev6YXwW55_tr {animation: e4ySev6YXwW55_tr__tr 2000ms linear 1 normal forwards}@keyframes e4ySev6YXwW55_tr__tr { 0% {transform: translate(105.300000px,434.050000px) rotate(0deg)} 25% {transform: translate(105.300000px,434.050000px) rotate(10.654524deg)} 50% {transform: translate(105.300000px,434.050000px) rotate(-8.197736deg)} 100% {transform: translate(105.300000px,434.050000px) rotate(-8.197736deg)}}]]></style><path id="e4ySev6YXwW2" d="M129.100000,520.200000C129,520,128.800000,519.800000,128.600000,519.500000L128.800000,519.400000C128.800000,519.300000,128.700000,519.200000,128.700000,519.100000C128.100000,517.800000,127.700000,516.800000,127.700000,516.300000C127.600000,516,127.600000,515.700000,127.600000,515.400000C126.900000,513.400000,126.300000,511.400000,126.300000,509.700000C126.300000,502.900000,125.900000,496.200000,125.300000,489.400000C125.100000,488.300000,124.900000,487.200000,124.600000,486.200000C123.700000,482.700000,122.700000,479.200000,121.800000,475.700000C118.600000,463.500000,115.200000,450.800000,111.200000,438.700000L109.300000,434.700000C109.100000,434.200000,108.900000,433.700000,108.800000,433.100000C107.900000,428.700000,106.900000,424.200000,105.900000,420.300000C105,416.400000,104.200000,413,103.900000,411.100000L104.400000,411C104.400000,409.100000,104.800000,407.200000,105.900000,405.600000C108.600000,401.700000,109.300000,401.200000,107.700000,396.700000C106.200000,392.700000,106.100000,391.900000,108.600000,388.200000C112.300000,382.600000,117.100000,375.900000,113.500000,369.100000C112.100000,366.400000,109.500000,364.200000,107.800000,361.500000C105.900000,358.300000,104,355.100000,100.400000,353.800000C97.100000,352.600000,94.600000,353.300000,92.100000,355.800000C89,358.900000,90.200000,359.100000,85.800000,359C82.300000,358.900000,79.300000,359.800000,75.800000,360.100000C71.600000,360.500000,71.200000,359.800000,67.700000,358C60.600000,354.400000,57.100000,360.900000,55.600000,367C53.900000,373.600000,53.500000,380.500000,54.400000,387.300000C55.700000,395.700000,61.900000,395.400000,68,391.800000C69,396.600000,64.100000,402.500000,65.500000,406.800000C66.600000,410.100000,73.500000,414,76.900000,413.700000C76.100000,419.900000,74,426.400000,72.500000,432.700000C71.100000,439.700000,70.400000,446.700000,70.500000,453.800000C70.500000,462.200000,69.300000,470.300000,69.300000,478.800000C69.300000,487.100000,69.300000,495.300000,69.300000,503.600000C69.300000,512.500000,67.700000,520.500000,67.700000,529.500000L67.600000,530C69,535.200000,72.800000,531.400000,75.300000,531.100000C78.700000,530.800000,79.600000,533.300000,81.400000,528.800000C82.500000,526,82.400000,522.700000,82.200000,519.500000C82.100000,517.400000,80.600000,510.900000,82.300000,509.400000C82.800000,509,86.600000,509.600000,87.500000,509.400000C88.300000,509.200000,88.400000,507.800000,89.100000,507.700000C89.200000,507.600000,91.500000,507.900000,91.100000,508.100000C93,507.100000,92.800000,508.900000,93.500000,505.700000C93.900000,504.100000,93.200000,502.400000,93.100000,500.800000C92.900000,497.400000,93.200000,494,92.700000,490.700000C91.700000,483.500000,91.900000,476.400000,91.500000,469.300000C93.800000,469,95.400000,470.600000,97.500000,470.900000C99.600000,471.200000,101.300000,470.400000,103.500000,470.600000C104.700000,477.300000,104.500000,484.100000,104.800000,491.200000C105,494.800000,103.600000,511,110.500000,503.700000C112.800000,505.600000,112.300000,513.100000,112.900000,516.300000C113.700000,519.900000,113.400000,527.900000,116.600000,530.100000C117.900000,529.500000,119.100000,528.800000,120.300000,528C121.300000,529.200000,121.700000,530.500000,122.700000,531.700000C125.200000,529.800000,125.800000,526.800000,129.500000,527.500000C130.400000,525.500000,129.900000,522.900000,129.100000,520.200000Z" fill="rgb(249,192,65)" stroke="none" stroke-width="1"/><g id="e4ySev6YXwW3_ts" transform="translate(95.850000,334.523678) scale(1,1)"><path id="e4ySev6YXwW3" d="M363.200000,58.100000L361.500000,59.100000L361.600000,57.100000C361.600000,56.700000,361.600000,56.900000,361.600000,56.800000L361.300000,56.100000L360.600000,54.600000C360.200000,53.600000,359.600000,52.700000,359.100000,51.700000C358.100000,49.800000,357,47.900000,355.800000,46.100000C353.500000,42.400000,350.900000,39,348,35.700000C342.300000,29.200000,335.600000,23.600000,328.300000,19.100000C313.500000,10.200000,296.500000,5.500000,279.200000,5.500000C262,5.400000,245.100000,9.900000,230.200000,18.400000C215.400000,27,203.200000,39.400000,194.900000,54.300000L193,57.700000L189.700000,55.600000C180.900000,49.900000,171.100000,46,160.900000,44C150.800000,42,140.300000,42.400000,130.400000,45.200000C125.500000,46.600000,120.900000,48.700000,116.600000,51.400000C112.500000,54.100000,108.800000,57.500000,105.900000,61.400000C102.900000,65.600000,100.200000,70,98.100000,74.700000C97,77.100000,95.900000,79.500000,94.900000,82C93.900000,84.400000,93.100000,86.800000,92.400000,89.300000L90.500000,96L84.800000,91.700000C78.700000,87.100000,70.400000,85.500000,62.400000,86.600000C54.400000,87.700000,47,91.500000,41.500000,97.300000C36.100000,103.100000,33.200000,110.900000,33.400000,118.800000C33.500000,126.800000,36.200000,135,40.200000,142.600000L42.200000,146.400000L38.800000,149.100000C26.400000,159.200000,18.300000,173.500000,16.200000,189.300000C14,204.900000,17.900000,221.200000,27.900000,233.200000C32.900000,239.200000,39,244.200000,46,247.800000C53.100000,251.500000,60.700000,254,68.600000,255.500000C84.500000,258.500000,101.300000,257.800000,117.700000,255.300000L123.600000,254.400000L124.300000,260.300000C124.700000,264.700000,124.700000,269.200000,124.100000,273.600000C123.600000,277.800000,122.800000,282,121.700000,286C119.500000,294.100000,116.500000,301.900000,112.700000,309.300000C108.100000,318.200000,102.500000,326.600000,96.100000,334.200000C100.300000,333,104.500000,331.700000,108.600000,330.200000C118.600000,326.600000,128.300000,322,137.400000,316.400000C146.400000,310.900000,154.700000,304.300000,162.200000,296.800000C165.800000,293.100000,169.200000,289,172.200000,284.800000C175.100000,280.700000,177.500000,276.200000,179.300000,271.500000L182.500000,262.300000L188.500000,269.900000C195.100000,278.300000,204,284.600000,214.100000,288.200000C224.300000,291.700000,235.300000,292.600000,246,290.700000C256.700000,288.900000,266.900000,284.700000,275.700000,278.200000C284.400000,271.800000,291.200000,263,295.300000,253L297.900000,246.600000L302.600000,251.600000C309.700000,259.100000,320.400000,262.900000,331.300000,263.600000C342.400000,264.200000,353.400000,262.400000,363.700000,258.200000C374.100000,254.100000,383.300000,247.800000,390.900000,239.500000C398.300000,231.300000,403.300000,221.100000,405.100000,210.200000L405.500000,208L407.600000,207.500000C418.100000,205,427.700000,199.700000,435.400000,192.200000C443.200000,184.700000,448.700000,175.100000,451.200000,164.600000C453.700000,154,452.400000,142.900000,447.500000,133.200000C442.600000,123.500000,434.100000,115.800000,424.400000,110.500000L423.400000,110L423.700000,109C426.500000,100.700000,427.200000,91.900000,425.500000,83.300000C423.900000,74.600000,419.500000,66.600000,413,60.600000C406.100000,55,397.500000,51.900000,388.600000,51.600000C379.400000,51.300000,370.800000,53.600000,363.200000,58.100000Z" transform="translate(-95.850000,-334.523678)" opacity="0" fill="rgb(217,232,230)" stroke="rgb(57,62,63)" stroke-width="3"/></g><path id="e4ySev6YXwW4" d="M67.200000,357.200000C68.900000,359.400000,71.100000,362.400000,74.100000,362.800000C81,359.300000,83.600000,357.200000,90.500000,361.500000C91.800000,360.200000,94.400000,354.600000,96.100000,353.700000C101.300000,352,105.600000,358.900000,108.200000,362.300000C112.900000,367,115.500000,368.800000,114.200000,375.700000C113.300000,380,109.900000,389.500000,105.600000,392.100000C100.900000,385.200000,103.900000,362.800000,94.400000,362.800000" fill="none" stroke="rgb(26,24,24)" stroke-width="0.799000" stroke-miterlimit="10"/><path id="e4ySev6YXwW5" d="M67.200000,357.700000C53.800000,350.400000,52.500000,384.900000,56.400000,391.800000C59,396.500000,63.700000,396.100000,67.600000,393.100000C72.800000,389.600000,71.900000,386.200000,70.600000,381C69.700000,377.500000,66.300000,370.200000,70.200000,368.500000L70.200000,368.500000" fill="none" stroke="rgb(26,24,24)" stroke-width="0.799000" stroke-miterlimit="10"/><path id="e4ySev6YXwW6" d="M70.200000,391.800000C70.200000,392.200000,66.300000,403.900000,65.900000,407.800000C78,421.600000,82.300000,406.500000,89.200000,400L90.100000,400C91.400000,405.200000,94.400000,411.700000,100,411.200000C108.200000,410.800000,112.500000,394.400000,105.200000,392.200000" fill="none" stroke="rgb(26,24,24)" stroke-width="0.799000" stroke-miterlimit="10"/><path id="e4ySev6YXwW7" d="M87.900000,394.800000C85.700000,394.400000,84.400000,393.100000,83.600000,390.500000C86,390,88.500000,389.700000,90.900000,389.600000C90.900000,391.800000,90.500000,393.500000,88.700000,394.800000C88,394.800000,87.400000,394.500000,87,393.900000" fill="none" stroke="rgb(26,24,24)" stroke-width="0.799000" stroke-miterlimit="10"/><path id="e4ySev6YXwW8" d="M78,380.100000C78.400000,379.200000,77.600000,381.800000,78.400000,384C78.500000,381.700000,78.300000,379.400000,78,377.100000L78,382.700000C78,381.800000,77.600000,380.100000,77.600000,378.800000C77.300000,380.500000,77.400000,382.300000,78,384" fill="none" stroke="rgb(26,24,24)" stroke-width="0.799000" stroke-miterlimit="10"/><path id="e4ySev6YXwW9" d="M91.800000,378L91.800000,383.600000L91.800000,383.600000C92.300000,381.800000,92.600000,379.900000,92.700000,378C92.200000,379.500000,91.600000,380.900000,91,382.300000" fill="none" stroke="rgb(26,24,24)" stroke-width="0.799000" stroke-miterlimit="10"/><line id="e4ySev6YXwW10" x1="65.400000" y1="378" x2="65.400000" y2="378.400000" fill="none" stroke="rgb(26,24,24)" stroke-width="0.799000" stroke-miterlimit="10"/><line id="e4ySev6YXwW11" x1="79.700000" y1="397" x2="79.700000" y2="397.400000" fill="none" stroke="rgb(26,24,24)" stroke-width="0.799000" stroke-miterlimit="10"/><path id="e4ySev6YXwW12" d="M78.400000,403.900000C78,404.300000,77.500000,404.800000,77.100000,404.300000" fill="none" stroke="rgb(26,24,24)" stroke-width="0.799000" stroke-miterlimit="10"/><line id="e4ySev6YXwW13" x1="74.500000" y1="407.300000" x2="74.100000" y2="407.700000" fill="none" stroke="rgb(26,24,24)" stroke-width="0.799000" stroke-miterlimit="10"/><path id="e4ySev6YXwW14" d="M75.800000,402.100000C75.500000,401.800000,75,401.600000,74.500000,401.700000" fill="none" stroke="rgb(26,24,24)" stroke-width="0.799000" stroke-miterlimit="10"/><path id="e4ySev6YXwW15" d="M74.500000,400C75.500000,399.600000,76.500000,399.500000,77.500000,399.600000" fill="none" stroke="rgb(26,24,24)" stroke-width="0.799000" stroke-miterlimit="10"/><path id="e4ySev6YXwW16" d="M81.800000,401.300000C81.400000,401.300000,81.400000,401.700000,81.400000,402.200000" fill="none" stroke="rgb(26,24,24)" stroke-width="0.799000" stroke-miterlimit="10"/><path id="e4ySev6YXwW17" d="M96.500000,403C96.500000,403.900000,96.100000,403,96.100000,402.600000" fill="none" stroke="rgb(26,24,24)" stroke-width="0.799000" stroke-miterlimit="10"/><path id="e4ySev6YXwW18" d="M96.500000,397L97.400000,397" fill="none" stroke="rgb(26,24,24)" stroke-width="0.799000" stroke-miterlimit="10"/><path id="e4ySev6YXwW19" d="M101.700000,398.700000L101.700000,400.400000" fill="none" stroke="rgb(26,24,24)" stroke-width="0.799000" stroke-miterlimit="10"/><path id="e4ySev6YXwW20" d="M100.800000,405.200000C100.400000,405.200000,100.400000,404.800000,99.900000,404.300000" fill="none" stroke="rgb(26,24,24)" stroke-width="0.799000" stroke-miterlimit="10"/><path id="e4ySev6YXwW21" d="M95.200000,398.300000C94.800000,398.300000,94.800000,398.300000,94.800000,397.900000" fill="none" stroke="rgb(26,24,24)" stroke-width="0.799000" stroke-miterlimit="10"/><path id="e4ySev6YXwW22" d="M101.300000,398.700000C101.300000,399.100000,100.900000,399.100000,100.400000,399.100000" fill="none" stroke="rgb(26,24,24)" stroke-width="0.799000" stroke-miterlimit="10"/><line id="e4ySev6YXwW23" x1="98.700000" y1="400.800000" x2="98.700000" y2="400.400000" fill="none" stroke="rgb(26,24,24)" stroke-width="0.799000" stroke-miterlimit="10"/><line id="e4ySev6YXwW24" x1="102.100000" y1="396.500000" x2="102.100000" y2="397" fill="none" stroke="rgb(26,24,24)" stroke-width="0.799000" stroke-miterlimit="10"/><path id="e4ySev6YXwW25" d="M81.400000,411.200000C81,410.800000,85.700000,414.700000,87,415.100000C89.600000,415.100000,95.200000,412.100000,92.600000,410.800000" fill="none" stroke="rgb(26,24,24)" stroke-width="0.799000" stroke-miterlimit="10"/><path id="e4ySev6YXwW26" d="M86.600000,405.600000C87.300000,405.900000,88,406.100000,88.800000,406" fill="none" stroke="rgb(26,24,24)" stroke-width="0.799000" stroke-miterlimit="10"/><path id="e4ySev6YXwW27" d="M85.700000,390.900000C87,392.200000,87.400000,393.500000,89.600000,393.100000C88.700000,392.700000,87.400000,392.200000,86.600000,391.800000C87.800000,391.300000,89.200000,391,90.500000,390.900000C90.100000,390.900000,88.800000,391.300000,88.800000,391.800000C87.100000,392.700000,88.800000,391.400000,88.800000,391.400000" fill="none" stroke="rgb(26,24,24)" stroke-width="0.799000" stroke-miterlimit="10"/><path id="e4ySev6YXwW28" d="M79.700000,411.600000C77.100000,414.200000,82.300000,428,89.600000,426.700000C95.600000,425,96.900000,415.900000,98.200000,411.200000C98.200000,416.400000,95.600000,431.500000,88.300000,431.900000C81.800000,432.300000,79.700000,418.100000,79.200000,413.800000C78.800000,414.200000,79.200000,414.700000,79.600000,415.500000" fill="none" stroke="rgb(26,24,24)" stroke-width="0.799000" stroke-miterlimit="10"/><path id="e4ySev6YXwW29" d="M87,433.200000C86.600000,433.200000,84.800000,435.800000,87.900000,437.100000C91.800000,439.300000,93.900000,433.200000,88.300000,432.800000" fill="none" stroke="rgb(26,24,24)" stroke-width="0.799000" stroke-miterlimit="10"/><path id="e4ySev6YXwW30" d="M78,412.900000C73.700000,416.400000,73.700000,428.400000,72.800000,434C71.500000,443.100000,70.200000,452.100000,68.900000,461.600000C67.600000,473.300000,70.200000,485.800000,70.600000,497.400000C70.600000,503.400000,71.500000,509.500000,71,515.100000C71,519.800000,64.100000,530.600000,68.400000,531.500000L69.300000,531.500000" fill="none" stroke="rgb(26,24,24)" stroke-width="0.799000" stroke-miterlimit="10"/><path id="e4ySev6YXwW31" d="M71.100000,529C67.600000,533.300000,74.100000,534.200000,75.800000,529.900000" fill="none" stroke="rgb(26,24,24)" stroke-width="0.799000" stroke-miterlimit="10"/><path id="e4ySev6YXwW32" d="M75.800000,530.300000C77.500000,535,81.800000,530.700000,83.100000,526.400000C84.800000,521.200000,82.700000,512.600000,82.700000,507C82.300000,489.700000,84.900000,472,84,454.800000" fill="none" stroke="rgb(26,24,24)" stroke-width="0.799000" stroke-miterlimit="10"/><path id="e4ySev6YXwW33" d="M85.300000,467.300000C94.400000,467.300000,96.500000,477.700000,106.400000,466.900000" fill="none" stroke="rgb(26,24,24)" stroke-width="0.799000" stroke-miterlimit="10"/><path id="e4ySev6YXwW34" d="M104.700000,447.900000C106.900000,457.400000,105.600000,471.200000,109.900000,479.800000L109.500000,478.900000C109.900000,494.400000,115.500000,513.400000,114.700000,527.200000" fill="none" stroke="rgb(26,24,24)" stroke-width="0.799000" stroke-miterlimit="10"/><path id="e4ySev6YXwW35" d="M114.600000,526.900000C116.300000,525.600000,113.700000,527.800000,114.600000,529.100000C116.800000,531.700000,119.800000,530.800000,119.800000,526.500000C121.100000,531.700000,125.800000,531.700000,125.400000,526.100000C129.300000,532.100000,131.900000,523.500000,128.900000,520.100000" fill="none" stroke="rgb(26,24,24)" stroke-width="0.799000" stroke-miterlimit="10"/><path id="e4ySev6YXwW36" d="M90.900000,469.900000C89.200000,472.100000,91.300000,487.600000,91.800000,492.300000C91.800000,496.600000,93.500000,505.700000,92.700000,508.300000" fill="none" stroke="rgb(26,24,24)" stroke-width="0.799000" stroke-miterlimit="10"/><path id="e4ySev6YXwW37" d="M89.200000,505.300000C87,507,91.400000,511.800000,93.500000,506.600000" fill="none" stroke="rgb(26,24,24)" stroke-width="0.799000" stroke-miterlimit="10"/><path id="e4ySev6YXwW38" d="M86.200000,505.700000C85.300000,508.300000,86.200000,509.600000,88.800000,508.700000" fill="none" stroke="rgb(26,24,24)" stroke-width="0.799000" stroke-miterlimit="10"/><path id="e4ySev6YXwW39" d="M83.600000,506.200000C82.700000,509.700000,85.300000,510.900000,88.300000,508.400000" fill="none" stroke="rgb(26,24,24)" stroke-width="0.799000" stroke-miterlimit="10"/><path id="e4ySev6YXwW40" d="M103,472.100000L103,470.400000C105.200000,480.300000,107.300000,496.300000,104.700000,504.900000" fill="none" stroke="rgb(26,24,24)" stroke-width="0.799000" stroke-miterlimit="10"/><path id="e4ySev6YXwW41" d="M105.200000,504.900000C106.100000,507.500000,107.800000,507.900000,109.500000,505.300000" fill="none" stroke="rgb(26,24,24)" stroke-width="0.799000" stroke-miterlimit="10"/><path id="e4ySev6YXwW42" d="M109,502.700000C109.500000,503.600000,109.800000,504.700000,109.900000,505.700000" fill="none" stroke="rgb(26,24,24)" stroke-width="0.799000" stroke-miterlimit="10"/><path id="e4ySev6YXwW43" d="M112.100000,504.400000C111.700000,504.800000,111.700000,504.800000,111.200000,504.800000" fill="none" stroke="rgb(26,24,24)" stroke-width="0.799000" stroke-miterlimit="10"/><path id="e4ySev6YXwW44" d="M126.100000,503.500000C125.900000,498.600000,125.600000,494,124.900000,489.600000C125.500000,496.300000,125.900000,503,125.900000,509.900000C125.900000,511.600000,126.500000,513.600000,127.200000,515.600000C126.800000,513.300000,126.500000,511,126.400000,508.700000C126.300000,507,126.200000,505.300000,126.100000,503.500000Z" fill="none" stroke="none" stroke-width="1"/><path id="e4ySev6YXwW45" d="M124,482.600000C122.100000,469.600000,118.100000,456.400000,113.300000,444.200000C116.600000,454.600000,119.400000,465.300000,122.100000,475.700000C122.800000,478,123.400000,480.300000,124,482.600000Z" fill="rgb(249,192,65)" stroke="none" stroke-width="1"/><path id="e4ySev6YXwW46" d="M108.100000,425.100000C107.600000,424,107.100000,422.900000,106.600000,421.700000C106.900000,423,107.200000,424.300000,107.500000,425.600000C107.700000,425.400000,107.900000,425.200000,108.100000,425.100000Z" fill="rgb(249,192,65)" stroke="none" stroke-width="1"/><path id="e4ySev6YXwW47" d="M112.900000,443C113.100000,443.400000,113.200000,443.800000,113.400000,444.200000C112.800000,442.300000,112.200000,440.500000,111.600000,438.600000L109.700000,434.500000C109.500000,434.100000,109.300000,433.600000,109.200000,433.100000C109.200000,433,109.200000,432.900000,109.100000,432.700000L108.800000,432.700000C108.800000,436,111.800000,440.300000,112.900000,443Z" fill="rgb(26,24,24)" stroke="none" stroke-width="1"/><path id="e4ySev6YXwW48" d="M124.900000,489.600000C125.700000,494,125.900000,498.600000,126.100000,503.500000C126.200000,505.200000,126.300000,507,126.400000,508.700000C126.500000,511,126.700000,513.400000,127.200000,515.600000C127.700000,517.200000,128.400000,518.800000,128.800000,520.400000C128.900000,520.600000,129,520.600000,129.200000,520.600000C129.300000,520.600000,129.300000,520.600000,129.400000,520.500000C129.800000,520.300000,129.700000,520.100000,129.100000,518.900000C128.800000,518.200000,128.100000,516.800000,128.100000,516.300000C127.600000,513.700000,127.300000,511.100000,127.200000,508.500000C127.100000,506.800000,127,505,126.900000,503.300000C126.600000,497.500000,126.300000,491.400000,125,486C124.700000,484.800000,124.400000,483.600000,124,482.400000C124.300000,484.500000,124.600000,486.600000,124.800000,488.600000C124.800000,489.100000,124.900000,489.400000,124.900000,489.600000Z" fill="rgb(26,24,24)" stroke="none" stroke-width="1"/><path id="e4ySev6YXwW49" d="M106.600000,421.600000C106.600000,421.600000,106.600000,421.600000,106.600000,421.600000C106.600000,421.600000,106.600000,421.600000,106.600000,421.600000C106.600000,421.600000,106.600000,421.600000,106.600000,421.600000Z" fill="rgb(26,24,24)" stroke="none" stroke-width="1"/><path id="e4ySev6YXwW50" d="M106.600000,421.600000C106.600000,421.600000,106.600000,421.600000,106.600000,421.600000C106.500000,421.100000,106.400000,420.700000,106.300000,420.200000C105.400000,416.300000,104.600000,413,104.300000,411.100000L104,411.100000C104,414.600000,105.200000,418.300000,106.600000,421.600000Z" fill="rgb(26,24,24)" stroke="none" stroke-width="1"/><path id="e4ySev6YXwW51" d="M108.800000,431.500000C108.800000,431.500000,108.800000,431.400000,108.900000,431.400000C108.500000,429.600000,108.200000,427.900000,107.800000,426.200000L107.500000,425.800000C107.600000,425.700000,107.600000,425.700000,107.700000,425.600000C107.400000,424.300000,107.100000,422.900000,106.800000,421.700000C106.800000,421.700000,106.800000,421.700000,106.800000,421.700000C106.700000,422,107.300000,426.600000,108.800000,431.500000Z" fill="rgb(26,24,24)" stroke="none" stroke-width="1"/><path id="e4ySev6YXwW52" d="M127.300000,516.500000C127.300000,517,127.700000,518,128.300000,519.300000C128.300000,519.400000,128.400000,519.500000,128.400000,519.600000L128.200000,519.700000C128.400000,520,128.600000,520.300000,128.700000,520.400000C128.200000,518.800000,127.600000,517.200000,127.100000,515.600000C127.200000,515.900000,127.300000,516.200000,127.300000,516.500000Z" fill="rgb(26,24,24)" stroke="none" stroke-width="1"/><path id="e4ySev6YXwW53" d="M105.500000,420.400000C106.500000,424.400000,107.500000,428.900000,108.400000,433.200000C108.500000,433.800000,108.700000,434.300000,108.900000,434.800000L110.800000,438.800000C114.900000,450.900000,118.200000,463.600000,121.400000,475.800000C122.300000,479.300000,123.200000,482.800000,124.200000,486.300000C124.500000,487.400000,124.700000,488.500000,124.900000,489.500000C124.900000,489.200000,124.900000,488.900000,124.800000,488.700000C124.600000,486.600000,124.300000,484.600000,124,482.500000C123.400000,480.200000,122.800000,477.900000,122.200000,475.600000C119.500000,465.200000,116.600000,454.500000,113.400000,444.100000C113.200000,443.700000,113.100000,443.300000,112.900000,442.900000C111.800000,440.200000,108.800000,435.900000,108.800000,432.700000L108.500000,432.700000C108.400000,432.300000,108.500000,431.800000,108.700000,431.300000C107.200000,426.400000,106.600000,421.900000,106.500000,421.400000C105.100000,418,103.800000,414.400000,103.900000,411L103.400000,411.100000C103.800000,413.200000,104.600000,416.500000,105.500000,420.400000Z" fill="rgb(26,24,24)" stroke="none" stroke-width="1"/><path id="e4ySev6YXwW54" d="M109.100000,432.800000L109.100000,432.800000C109.100000,432.600000,109.100000,432.500000,109,432.300000C109.100000,432.400000,109.100000,432.600000,109.100000,432.800000Z" fill="rgb(26,24,24)" stroke="none" stroke-width="1"/><g id="e4ySev6YXwW55_tr" transform="translate(105.300000,434.050000) rotate(0)"><g id="e4ySev6YXwW55" transform="translate(-105.277063,-432.800000)"><path id="e4ySev6YXwW56" d="M118.500000,406C118.200000,413.500000,114.600000,419.800000,107.700000,426.100000L107.700000,426.100000C104.700000,426.100000,104.600000,429.300000,104.700000,430.100000C104.900000,431.100000,107.700000,432.800000,108.800000,431.300000C109.400000,429.900000,110.800000,428.300000,112.500000,426.400000C117.100000,421.200000,123.400000,414.100000,118.500000,406Z" fill="rgb(249,192,65)" stroke="none" stroke-width="1"/><path id="e4ySev6YXwW57" d="M116.700000,411.800000C116.700000,411.800000,116.700000,411.700000,116.700000,411.800000C116.700000,411.700000,116.700000,411.800000,116.700000,411.800000Z" fill="rgb(249,192,65)" stroke="none" stroke-width="1"/><path id="e4ySev6YXwW58" d="M112.700000,427.500000C113.400000,426.900000,114.200000,426.300000,114.700000,425.600000C115.600000,424.600000,116.500000,423.300000,117.300000,421.800000C115.900000,423.700000,114.400000,425.500000,113.100000,427C113,427.200000,112.800000,427.300000,112.700000,427.500000Z" fill="rgb(249,192,65)" stroke="none" stroke-width="1"/><path id="e4ySev6YXwW59" d="M116.700000,411.800000C115.300000,416.500000,112.500000,420.800000,108.100000,425.100000C108.200000,425.300000,108.300000,425.500000,108.300000,425.600000C112.700000,422.500000,115.300000,416.600000,116.700000,411.800000Z" fill="rgb(26,24,24)" stroke="none" stroke-width="1"/><path id="e4ySev6YXwW60" d="M117.400000,421.800000C120.800000,416.900000,123.200000,410.900000,118.500000,404.500000L117.800000,403.500000L117.800000,404.700000C117.800000,407.100000,117.500000,409.500000,116.800000,411.700000C117.500000,409.100000,117.900000,406.900000,118.100000,405.400000C122.400000,409.200000,120.300000,416.600000,117.400000,421.800000Z" fill="rgb(26,24,24)" stroke="none" stroke-width="1"/><path id="e4ySev6YXwW61" d="M109,432C109,432.100000,109,432.200000,109.100000,432.300000C109.100000,432.500000,109.200000,432.600000,109.300000,432.800000L109.500000,432.800000C109.300000,431.700000,110.900000,429.800000,112.800000,427.500000C111.100000,428.800000,109.400000,430.100000,109,432Z" fill="rgb(26,24,24)" stroke="none" stroke-width="1"/><path id="e4ySev6YXwW62" d="M107.700000,426.100000L107.900000,426.300000C114.800000,420,118.100000,413.500000,118.500000,405.900000C123.400000,414,117.200000,421.100000,112.500000,426.400000C110.800000,428.300000,109.400000,429.900000,108.800000,431.300000C108.800000,431.500000,108.900000,431.700000,108.900000,431.900000C109.400000,430,111,428.700000,112.600000,427.400000C112.700000,427.200000,112.900000,427.100000,113,426.900000C114.300000,425.400000,115.900000,423.600000,117.200000,421.700000C120.100000,416.500000,122.200000,409.100000,117.900000,405.300000C117.800000,406.800000,117.400000,409.100000,116.600000,411.600000C116.600000,411.600000,116.600000,411.600000,116.600000,411.700000C115.200000,416.600000,112.600000,422.400000,108.200000,425.500000C108.100000,425.300000,108,425.100000,108,425C107.800000,425.200000,107.700000,425.300000,107.500000,425.500000C107.600000,425.800000,107.600000,425.900000,107.700000,426.100000Z" fill="rgb(26,24,24)" stroke="none" stroke-width="1"/></g></g><path id="e4ySev6YXwW63" d="M109,432.300000C109,432.200000,109,432.100000,108.900000,432C108.900000,432,108.900000,432,108.900000,432.100000C109,432.100000,109,432.200000,109,432.300000Z" fill="rgb(26,24,24)" stroke="none" stroke-width="1"/><path id="e4ySev6YXwW64" d="M108.900000,432C108.900000,432,108.900000,432.100000,108.900000,432C108.800000,432.300000,108.800000,432.600000,108.800000,432.800000L109.100000,432.800000C109.100000,432.600000,109,432.500000,109,432.300000C109,432.200000,109,432.100000,108.900000,432Z" fill="rgb(26,24,24)" stroke="none" stroke-width="1"/><path id="e4ySev6YXwW65" d="M107.400000,425.800000L107.700000,426.200000C107.700000,426,107.600000,425.800000,107.600000,425.700000C107.500000,425.600000,107.400000,425.700000,107.400000,425.800000Z" fill="rgb(26,24,24)" stroke="none" stroke-width="1"/><path id="e4ySev6YXwW66" d="M108.900000,432.100000C108.900000,432.100000,108.900000,432,108.900000,432.100000C108.900000,431.800000,108.800000,431.700000,108.800000,431.500000C108.600000,432,108.500000,432.500000,108.600000,432.900000L108.900000,432.900000C108.900000,432.600000,108.900000,432.300000,108.900000,432.100000Z" fill="rgb(26,24,24)" stroke="none" stroke-width="1"/><path id="e4ySev6YXwW67" d="M109,432C109,431.800000,108.900000,431.600000,108.900000,431.400000C108.900000,431.400000,108.900000,431.500000,108.800000,431.500000C108.800000,431.700000,108.900000,431.800000,109,432C108.900000,432,109,432,109,432Z" fill="rgb(26,24,24)" stroke="none" stroke-width="1"/></svg>