<svg xmlns="http://www.w3.org/2000/svg" width="56.072" height="104.016" viewBox="0 0 56.072 104.016">
  <g id="Group_420" data-name="Group 420" transform="translate(-353.138 -219.615)">
    <path id="Path_625" data-name="Path 625" d="M367.234,254.838c-.007-.189,0-.378.01-.566-1.544,3.814-3.311,9.383-7.211,11.429-3.8-1.23-3.094-9.586-2.256-12.751.747-2.822,1.567-6.025,3.359-8.436a57.691,57.691,0,0,0,4.029-5.5c2.473-4.268,5.757-7.866,9.059-11.531,2.686-2.981,6.552-6.115,10.483-3.366,1.392.973,1.634,2.49,2.358,4,.975,2.034,2.054,3.821,2.892,5.944A77.417,77.417,0,0,1,393.9,248.1c.72,3.894.391,8.08.947,12,.186,1.315.817,3.068.221,4.419-.635,1.442-2.482,2.438-3.765,1.274,1.608,7,3.353,14.038,4.34,21.029.312,2.207-.925,15.166,3.746,12.026,2.257,2.489,1.651,7.067,3.624,10.072,1.383,2.108,7.02,6.747,6.1,9.674-.449,1.429-3.13,1.112-4.638,1.262a11.915,11.915,0,0,1-2.309.21c-.92-.074-1.874-.73-2.746-.64-.787.08-.621.985-1.673,1.03-.321.015-.789-.788-1.262-.82-.59-.04-.8.355-1.257.384-1.937.12-3.6.92-5.049-.164-1.863-1.392-.725-1.8-3.173-1.317-1.382.275-2.974.354-4.407.639-2.865.568-5.954.157-7.4,3.166-1.575-.617-4.316,3.287-5.272-.357-1.134.882-1.914,2.1-3.483,2.029-.55-.023-1.138-.7-1.731-.793a11.953,11.953,0,0,0-2.535.2c-3.782.381-7.258.288-5.039-4.146,1.7-3.388-1.48-7.609-2.524-11.157-.441-1.5-1.336-3.491-1.006-5.05.441-2.075,1.7-2.425,1.473-4.676-.231-2.289-3.395-9.426-.936-11.162,3.426-2.418,5.094,10.016,6.148,11.939,1.607-5.014.065-10.68,1.936-15.77,1.4-3.8,1.326-7.7,2.431-11.519.705-2.438,2.575-4.884,2.8-7.365.2-2.25.468-6.88-.479-8.989a13.019,13.019,0,0,1-1.846,2.466" transform="translate(0 -1.174)" fill="#fcb029"/>
    <path id="Path_626" data-name="Path 626" d="M375.914,236.678c1.682-5.043,10.76-16.14,17.486-12.441,3.025,1.681,3.7,8.07,4.707,11.1" transform="translate(-8.372 -1.335)" fill="none" stroke="#1a1818" stroke-miterlimit="10" stroke-width="0.799"/>
    <path id="Path_627" data-name="Path 627" d="M384.97,223.6a15.3,15.3,0,0,1,6.052,5.38" transform="translate(-11.712 -1.375)" fill="none" stroke="#1a1818" stroke-miterlimit="10" stroke-width="0.799"/>
    <path id="Path_628" data-name="Path 628" d="M388.7,220.406c2.353,1.346,4.371,3.027,5.044,5.717" transform="translate(-13.087 -0.196)" fill="none" stroke="#1a1818" stroke-miterlimit="10" stroke-width="0.799"/>
    <path id="Path_629" data-name="Path 629" d="M397.754,219.875c2.018,2.354,1.682,5.716,1.682,8.405" transform="translate(-16.426)" fill="none" stroke="#1a1818" stroke-miterlimit="10" stroke-width="0.799"/>
    <path id="Path_630" data-name="Path 630" d="M370.854,243.314c-3.7,2.69-15.132,26.228-8.406,29.254,2.353-2.017,6.725-7.734,7.061-11.1" transform="translate(-2.64 -8.644)" fill="none" stroke="#1a1818" stroke-miterlimit="10" stroke-width="0.799"/>
    <path id="Path_631" data-name="Path 631" d="M375.692,265.688c-.672,1.345,0,4.707,0,6.725,0,3.026-2.018,7.4-1.009,10.087,2.69,9.079,7.734,0,10.761-.336,4.708-.672,9.415,10.424,12.779,0,1.345-4.371-1.682-9.08-1.682-13.45" transform="translate(-7.814 -16.895)" fill="none" stroke="#1a1818" stroke-miterlimit="10" stroke-width="0.799"/>
    <path id="Path_632" data-name="Path 632" d="M411.072,241.183c2.69,4.708,3.7,15.8,4.708,22.53,0,1.345,1.345,6.724,0,8.07-1.682,1.345-3.363,0-3.7-1.681" transform="translate(-21.338 -7.858)" fill="none" stroke="#1a1818" stroke-miterlimit="10" stroke-width="0.799"/>
    <path id="Path_633" data-name="Path 633" d="M389.537,277.856a4.1,4.1,0,0,1-4.035-2.017c2.69,0,5.045-1.345,7.4-.673a5.732,5.732,0,0,1-2.018,3.363c-.336-.673-1.009-.673-1.345-1.009" transform="translate(-11.908 -20.32)" fill="none" stroke="#1a1818" stroke-miterlimit="10" stroke-width="0.799"/>
    <path id="Path_634" data-name="Path 634" d="M382.306,255.9c.336-.336,0,1.681.673,3.363a14.322,14.322,0,0,0-.673-3.7,9.926,9.926,0,0,0,.673,3.363" transform="translate(-10.73 -13.162)" fill="none" stroke="#1a1818" stroke-miterlimit="10" stroke-width="0.799"/>
    <path id="Path_635" data-name="Path 635" d="M400.025,255.033a12.644,12.644,0,0,1-.335,3.362h0c0-.672.335-1.344.335-2.353a3.908,3.908,0,0,1-.672,2.353" transform="translate(-17.016 -12.965)" fill="none" stroke="#1a1818" stroke-miterlimit="10" stroke-width="0.799"/>
    <path id="Path_636" data-name="Path 636" d="M392.371,286.463a2.618,2.618,0,0,1-1.009,2.353" transform="translate(-14.069 -24.556)" fill="none" stroke="#1a1818" stroke-miterlimit="10" stroke-width="0.799"/>
    <path id="Path_637" data-name="Path 637" d="M386.035,295.52h6.389c-.336.672-.672.336-1.345.336" transform="translate(-12.105 -27.896)" fill="none" stroke="#1a1818" stroke-miterlimit="10" stroke-width="0.799"/>
    <path id="Path_638" data-name="Path 638" d="M390.3,297.65a1.022,1.022,0,0,0,1.345,0" transform="translate(-13.677 -28.681)" fill="none" stroke="#1a1818" stroke-miterlimit="10" stroke-width="0.799"/>
    <path id="Path_639" data-name="Path 639" d="M376.891,258.23c0,2.354-1.345,6.726-1.009,8.07" transform="translate(-8.341 -14.144)" fill="none" stroke="#1a1818" stroke-miterlimit="10" stroke-width="0.799"/>
    <path id="Path_640" data-name="Path 640" d="M408.722,252.369a15.21,15.21,0,0,1,.337,6.725c0,1.345-1.345,3.7-.337,2.354" transform="translate(-20.333 -11.983)" fill="none" stroke="#1a1818" stroke-miterlimit="10" stroke-width="0.799"/>
    <path id="Path_641" data-name="Path 641" d="M387.1,277.211s3.362-.336,5.044-.336h-3.026a14.079,14.079,0,0,0,3.362,1.345c-1.681-1.682-3.7-1.682-5.043,0,1.345,1.345,2.018.672,3.363.336" transform="translate(-12.498 -21.02)" fill="none" stroke="#1a1818" stroke-miterlimit="10" stroke-width="0.799"/>
    <path id="Path_642" data-name="Path 642" d="M389.707,278.473a18.592,18.592,0,0,0,3.026.336,2.02,2.02,0,0,0-1.345-.336" transform="translate(-13.423 -21.609)" fill="none" stroke="#1a1818" stroke-miterlimit="10" stroke-width="0.799"/>
    <path id="Path_643" data-name="Path 643" d="M374.137,368.5c-2.69,5.043-.672,14.795,3.7,5.716-1.008,3.363,2.354,5.716,3.363,1.682.672.336,1.009.673,1.682,1.009a3.411,3.411,0,0,0,1.008-3.363" transform="translate(-7.269 -54.81)" fill="none" stroke="#1a1818" stroke-miterlimit="10" stroke-width="0.799"/>
    <path id="Path_644" data-name="Path 644" d="M422.167,366.9c0,1.681.337,9.415-2.69,4.035.336,3.027-6.389,4.371-5.381,1.345.336,3.026-1.68,2.691-3.027.336" transform="translate(-21.337 -54.22)" fill="none" stroke="#1a1818" stroke-miterlimit="10" stroke-width="0.799"/>
    <path id="Path_645" data-name="Path 645" d="M415.865,305.643c1.345,12.777,4.372,28.581,8.744,39.678" transform="translate(-23.105 -31.629)" fill="none" stroke="#1a1818" stroke-miterlimit="10" stroke-width="0.799"/>
    <path id="Path_646" data-name="Path 646" d="M402.549,314.7c1.008,10.424,1.008,22.193,4.035,31.945-.673,2.354,2.017,6.389,1.009,7.062" transform="translate(-18.195 -34.968)" fill="none" stroke="#1a1818" stroke-miterlimit="10" stroke-width="0.799"/>
    <path id="Path_647" data-name="Path 647" d="M387.616,316.3c0,8.406-.336,17.821,1.345,26.228-.672,2.353,2.69,11.1-.672,10.76" transform="translate(-12.678 -35.558)" fill="none" stroke="#1a1818" stroke-miterlimit="10" stroke-width="0.799"/>
    <path id="Path_648" data-name="Path 648" d="M373.782,317.361c1.682,8.071.336,17.486.336,25.893,0,1.345-.336,8.742.336,7.4" transform="translate(-7.586 -35.95)" fill="none" stroke="#1a1818" stroke-miterlimit="10" stroke-width="0.799"/>
    <path id="Path_649" data-name="Path 649" d="M370.835,292.857c-2.69,3.363-3.363,15.8-4.035,21.185-.336,3.026-1.009,13.114-1.009,13.451" transform="translate(-4.639 -26.914)" fill="none" stroke="#1a1818" stroke-miterlimit="10" stroke-width="0.799"/>
    <path id="Path_650" data-name="Path 650" d="M363.716,348.57c-1.682-.336-4.035-3.7-6.389-3.026-6.725,2.353,1.346,14.459,3.027,17.821-2.69.673-6.389,3.362-2.354,5.716,1.009.672,5.043-.673,6.389-1.009" transform="translate(-0.546 -46.311)" fill="none" stroke="#1a1818" stroke-miterlimit="10" stroke-width="0.799"/>
    <path id="Path_651" data-name="Path 651" d="M395.959,375.427h-.336" transform="translate(-15.641 -57.363)" fill="none" stroke="#1a1818" stroke-miterlimit="10" stroke-width="0.799"/>
    <path id="Path_652" data-name="Path 652" d="M396.009,375.427h0" transform="translate(-15.69 -57.363)" fill="none" stroke="#1a1818" stroke-miterlimit="10" stroke-width="0.799"/>
    <path id="Path_653" data-name="Path 653" d="M356.972,337.2c-1.345-1.682-5.716-13.451-1.345-13.451,2.017,0,3.7,10.76,4.708,12.442" transform="translate(-0.192 -38.308)" fill="none" stroke="#1a1818" stroke-miterlimit="10" stroke-width="0.799"/>
    <path id="Path_654" data-name="Path 654" d="M414.268,290.727a91.339,91.339,0,0,0,3.026,13.786c0,.336,0-1.009-.336-.672,1.345,5.716,1.682,13.45,2.354,18.158" transform="translate(-22.516 -26.128)" fill="none" stroke="#1a1818" stroke-miterlimit="10" stroke-width="0.799"/>
    <path id="Path_655" data-name="Path 655" d="M391.1,376.461a43.393,43.393,0,0,0,8.07-.5" transform="translate(-13.972 -57.559)" fill="none" stroke="#1a1818" stroke-miterlimit="10" stroke-width="0.799"/>
    <path id="Path_656" data-name="Path 656" d="M398.289,375.073a8.132,8.132,0,0,0,4.539-1.513" transform="translate(-16.624 -56.675)" fill="none" stroke="#1a1818" stroke-miterlimit="10" stroke-width="0.799"/>
    <path id="Path_657" data-name="Path 657" d="M422.334,344.509a8.8,8.8,0,0,0,2.1-.841c.21.21.631.21.841.42,0,4.419,2.736,8.837,5.681,12.2,1.473,1.894,5.05,5.05,2.1,7.154-1.473,1.052-4.84.21-6.733.421" transform="translate(-25.491 -45.652)" fill="none" stroke="#1a1818" stroke-miterlimit="10" stroke-width="0.799"/>
  </g>
</svg>
