<svg xmlns="http://www.w3.org/2000/svg" width="66.014" height="122.473" viewBox="0 0 66.014 122.473">
  <g id="Group_315" data-name="Group 315" transform="translate(-353.197 -219.615)">
    <path id="Path_625" data-name="Path 625" d="M369.738,260.514c-.008-.222,0-.446.012-.667-1.82,4.5-3.9,11.058-8.5,13.47-4.482-1.45-3.647-11.3-2.659-15.029.88-3.326,1.847-7.1,3.959-9.943a68,68,0,0,0,4.749-6.479c2.914-5.03,6.785-9.271,10.677-13.591,3.166-3.513,7.722-7.207,12.356-3.968,1.64,1.147,1.925,2.935,2.779,4.711,1.149,2.4,2.421,4.5,3.409,7.005a91.244,91.244,0,0,1,4.642,16.548c.849,4.589.461,9.523,1.116,14.141.219,1.55.963,3.616.26,5.208-.748,1.7-2.925,2.874-4.438,1.5,1.895,8.255,3.952,16.546,5.115,24.784.368,2.6-1.09,17.874,4.415,14.174,2.66,2.933,1.946,8.329,4.271,11.871,1.63,2.485,8.274,7.951,7.19,11.4-.529,1.684-3.689,1.31-5.467,1.488a14.044,14.044,0,0,1-2.721.248c-1.084-.087-2.209-.86-3.236-.754-.927.094-.732,1.161-1.971,1.213-.378.017-.93-.929-1.488-.966-.695-.048-.937.418-1.482.452-2.283.141-4.242,1.085-5.951-.193-2.2-1.64-.854-2.124-3.74-1.552-1.629.324-3.5.417-5.194.753-3.376.67-7.018.185-8.721,3.731-1.856-.728-5.086,3.875-6.214-.421-1.337,1.039-2.256,2.469-4.105,2.392-.649-.027-1.341-.821-2.04-.934a14.087,14.087,0,0,0-2.988.235c-4.457.449-8.555.339-5.939-4.886,2-3.993-1.745-8.968-2.975-13.149-.52-1.769-1.575-4.114-1.185-5.952.52-2.445,2-2.858,1.736-5.51-.272-2.7-4-11.11-1.1-13.155,4.037-2.849,6,11.8,7.246,14.071,1.894-5.91.077-12.588,2.282-18.586,1.646-4.475,1.563-9.071,2.866-13.576.831-2.874,3.035-5.757,3.3-8.68.238-2.652.551-8.108-.565-10.594a15.342,15.342,0,0,1-2.176,2.907" transform="translate(0 -0.815)" fill="#fcb029"/>
    <path id="Path_626" data-name="Path 626" d="M375.914,239.032c1.982-5.944,12.682-19.023,20.608-14.663,3.566,1.981,4.36,9.511,5.548,13.078" transform="translate(-5.813 -0.927)" fill="none" stroke="#1a1818" stroke-miterlimit="10" stroke-width="0.799"/>
    <path id="Path_627" data-name="Path 627" d="M384.97,223.6a18.03,18.03,0,0,1,7.133,6.341" transform="translate(-8.132 -0.955)" fill="none" stroke="#1a1818" stroke-miterlimit="10" stroke-width="0.799"/>
    <path id="Path_628" data-name="Path 628" d="M388.7,220.406c2.774,1.586,5.151,3.567,5.944,6.738" transform="translate(-9.087 -0.136)" fill="none" stroke="#1a1818" stroke-miterlimit="10" stroke-width="0.799"/>
    <path id="Path_629" data-name="Path 629" d="M397.754,219.875c2.378,2.774,1.982,6.737,1.982,9.907" transform="translate(-11.405)" fill="none" stroke="#1a1818" stroke-miterlimit="10" stroke-width="0.799"/>
    <path id="Path_630" data-name="Path 630" d="M372.726,243.314c-4.359,3.17-17.834,30.912-9.907,34.479,2.773-2.378,7.926-9.116,8.322-13.078" transform="translate(-1.833 -6.001)" fill="none" stroke="#1a1818" stroke-miterlimit="10" stroke-width="0.799"/>
    <path id="Path_631" data-name="Path 631" d="M375.922,265.688c-.792,1.585,0,5.548,0,7.926,0,3.567-2.378,8.718-1.189,11.888,3.171,10.7,9.116,0,12.682-.4,5.548-.792,11.1,12.286,15.061,0,1.585-5.152-1.982-10.7-1.982-15.852" transform="translate(-5.425 -11.73)" fill="none" stroke="#1a1818" stroke-miterlimit="10" stroke-width="0.799"/>
    <path id="Path_632" data-name="Path 632" d="M411.072,241.183c3.171,5.548,4.36,18.627,5.549,26.553,0,1.585,1.585,7.925,0,9.511-1.982,1.585-3.964,0-4.36-1.981" transform="translate(-14.815 -5.456)" fill="none" stroke="#1a1818" stroke-miterlimit="10" stroke-width="0.799"/>
    <path id="Path_633" data-name="Path 633" d="M390.258,278.37c-1.982,0-3.567-.4-4.756-2.377,3.171,0,5.946-1.585,8.72-.793a6.756,6.756,0,0,1-2.378,3.964c-.4-.794-1.19-.794-1.585-1.19" transform="translate(-8.268 -14.109)" fill="none" stroke="#1a1818" stroke-miterlimit="10" stroke-width="0.799"/>
    <path id="Path_634" data-name="Path 634" d="M382.306,255.963c.4-.4,0,1.981.793,3.963a16.879,16.879,0,0,0-.793-4.36,11.7,11.7,0,0,0,.793,3.963" transform="translate(-7.45 -9.138)" fill="none" stroke="#1a1818" stroke-miterlimit="10" stroke-width="0.799"/>
    <path id="Path_635" data-name="Path 635" d="M400.145,255.033a14.9,14.9,0,0,1-.4,3.962h0c0-.792.4-1.584.4-2.773a4.606,4.606,0,0,1-.792,2.773" transform="translate(-11.814 -9.002)" fill="none" stroke="#1a1818" stroke-miterlimit="10" stroke-width="0.799"/>
    <path id="Path_636" data-name="Path 636" d="M392.551,286.463a3.085,3.085,0,0,1-1.189,2.773" transform="translate(-9.768 -17.049)" fill="none" stroke="#1a1818" stroke-miterlimit="10" stroke-width="0.799"/>
    <path id="Path_637" data-name="Path 637" d="M386.035,295.52h7.53c-.4.792-.792.4-1.585.4" transform="translate(-8.404 -19.368)" fill="none" stroke="#1a1818" stroke-miterlimit="10" stroke-width="0.799"/>
    <path id="Path_638" data-name="Path 638" d="M390.3,297.65a1.2,1.2,0,0,0,1.585,0" transform="translate(-9.496 -19.914)" fill="none" stroke="#1a1818" stroke-miterlimit="10" stroke-width="0.799"/>
    <path id="Path_639" data-name="Path 639" d="M377.081,258.23c0,2.774-1.585,7.927-1.189,9.512" transform="translate(-5.791 -9.82)" fill="none" stroke="#1a1818" stroke-miterlimit="10" stroke-width="0.799"/>
    <path id="Path_640" data-name="Path 640" d="M408.789,252.369a17.926,17.926,0,0,1,.4,7.926c0,1.585-1.585,4.361-.4,2.775" transform="translate(-14.117 -8.32)" fill="none" stroke="#1a1818" stroke-miterlimit="10" stroke-width="0.799"/>
    <path id="Path_641" data-name="Path 641" d="M387.1,277.271s3.962-.4,5.944-.4h-3.567a16.594,16.594,0,0,0,3.962,1.585c-1.981-1.982-4.359-1.982-5.944,0,1.585,1.585,2.378.792,3.963.4" transform="translate(-8.677 -14.594)" fill="none" stroke="#1a1818" stroke-miterlimit="10" stroke-width="0.799"/>
    <path id="Path_642" data-name="Path 642" d="M389.725,278.473a21.911,21.911,0,0,0,3.567.4,2.381,2.381,0,0,0-1.585-.4" transform="translate(-9.32 -15.004)" fill="none" stroke="#1a1818" stroke-miterlimit="10" stroke-width="0.799"/>
    <path id="Path_643" data-name="Path 643" d="M374.354,368.5c-3.171,5.944-.792,17.437,4.359,6.737-1.188,3.964,2.775,6.737,3.964,1.982.792.4,1.189.793,1.982,1.189a4.02,4.02,0,0,0,1.188-3.963" transform="translate(-5.047 -38.055)" fill="none" stroke="#1a1818" stroke-miterlimit="10" stroke-width="0.799"/>
    <path id="Path_644" data-name="Path 644" d="M424.149,366.9c0,1.981.4,11.1-3.17,4.756.4,3.567-7.53,5.152-6.341,1.585.4,3.567-1.98,3.172-3.567.4" transform="translate(-14.814 -37.645)" fill="none" stroke="#1a1818" stroke-miterlimit="10" stroke-width="0.799"/>
    <path id="Path_645" data-name="Path 645" d="M415.865,305.643c1.585,15.059,5.153,33.686,10.305,46.764" transform="translate(-16.042 -21.96)" fill="none" stroke="#1a1818" stroke-miterlimit="10" stroke-width="0.799"/>
    <path id="Path_646" data-name="Path 646" d="M402.549,314.7c1.188,12.286,1.188,26.157,4.755,37.65-.793,2.775,2.378,7.53,1.189,8.323" transform="translate(-12.633 -24.279)" fill="none" stroke="#1a1818" stroke-miterlimit="10" stroke-width="0.799"/>
    <path id="Path_647" data-name="Path 647" d="M387.621,316.3c0,9.907-.4,21,1.585,30.912-.792,2.773,3.171,13.078-.792,12.682" transform="translate(-8.802 -24.688)" fill="none" stroke="#1a1818" stroke-miterlimit="10" stroke-width="0.799"/>
    <path id="Path_648" data-name="Path 648" d="M373.782,317.361c1.982,9.512.4,20.609.4,30.517,0,1.585-.4,10.3.4,8.718" transform="translate(-5.267 -24.961)" fill="none" stroke="#1a1818" stroke-miterlimit="10" stroke-width="0.799"/>
    <path id="Path_649" data-name="Path 649" d="M371.736,292.857c-3.171,3.963-3.963,18.627-4.756,24.968-.4,3.567-1.189,15.456-1.189,15.853" transform="translate(-3.221 -18.686)" fill="none" stroke="#1a1818" stroke-miterlimit="10" stroke-width="0.799"/>
    <path id="Path_650" data-name="Path 650" d="M365.328,349.126c-1.982-.4-4.756-4.36-7.53-3.567-7.926,2.773,1.586,17.041,3.567,21-3.171.793-7.53,3.962-2.775,6.737,1.189.792,5.944-.793,7.53-1.189" transform="translate(-0.379 -32.154)" fill="none" stroke="#1a1818" stroke-miterlimit="10" stroke-width="0.799"/>
    <path id="Path_651" data-name="Path 651" d="M396.02,375.427h-.4" transform="translate(-10.859 -39.828)" fill="none" stroke="#1a1818" stroke-miterlimit="10" stroke-width="0.799"/>
    <path id="Path_652" data-name="Path 652" d="M396.054,375.427h0" transform="translate(-10.894 -39.828)" fill="none" stroke="#1a1818" stroke-miterlimit="10" stroke-width="0.799"/>
    <path id="Path_653" data-name="Path 653" d="M357.551,339.607c-1.585-1.983-6.737-15.853-1.585-15.853,2.378,0,4.36,12.682,5.548,14.664" transform="translate(-0.133 -26.597)" fill="none" stroke="#1a1818" stroke-miterlimit="10" stroke-width="0.799"/>
    <path id="Path_654" data-name="Path 654" d="M414.268,290.727a107.653,107.653,0,0,0,3.567,16.248c0,.4,0-1.189-.4-.792,1.585,6.737,1.982,15.852,2.774,21.4" transform="translate(-15.633 -18.141)" fill="none" stroke="#1a1818" stroke-miterlimit="10" stroke-width="0.799"/>
    <path id="Path_655" data-name="Path 655" d="M391.1,376.551a51.144,51.144,0,0,0,9.511-.594" transform="translate(-9.701 -39.964)" fill="none" stroke="#1a1818" stroke-miterlimit="10" stroke-width="0.799"/>
    <path id="Path_656" data-name="Path 656" d="M398.289,375.343a9.584,9.584,0,0,0,5.35-1.783" transform="translate(-11.542 -39.35)" fill="none" stroke="#1a1818" stroke-miterlimit="10" stroke-width="0.799"/>
    <path id="Path_657" data-name="Path 657" d="M422.334,344.66a10.372,10.372,0,0,0,2.48-.992c.248.248.744.248.992.5,0,5.208,3.224,10.415,6.7,14.384,1.736,2.232,5.952,5.952,2.48,8.431-1.736,1.24-5.7.248-7.936.5" transform="translate(-17.699 -31.696)" fill="none" stroke="#1a1818" stroke-miterlimit="10" stroke-width="0.799"/>
  </g>
</svg>
