<svg id="e85319ndDoN1" xmlns="http://www.w3.org/2000/svg" xmlns:xlink="http://www.w3.org/1999/xlink" viewBox="0 0 473 538.800000" shape-rendering="geometricPrecision" text-rendering="geometricPrecision"><style><![CDATA[#e85319ndDoN2_ts {animation: e85319ndDoN2_ts__ts 2000ms linear 1 normal forwards}@keyframes e85319ndDoN2_ts__ts { 0% {transform: translate(99.956070px,334.100000px) scale(1,1)} 49.500000% {transform: translate(99.956070px,334.100000px) scale(1,1)} 50% {transform: translate(99.956070px,334.100000px) scale(0,0);animation-timing-function: cubic-bezier(0.165000,0.840000,0.440000,1)} 100% {transform: translate(99.956070px,334.100000px) scale(1,1)}} #e85319ndDoN2 {animation: e85319ndDoN2_c_o 2000ms linear 1 normal forwards}@keyframes e85319ndDoN2_c_o { 0% {opacity: 0} 49.500000% {opacity: 0} 50% {opacity: 1} 100% {opacity: 1}} #e85319ndDoN3_to {animation: e85319ndDoN3_to__to 2000ms linear 1 normal forwards}@keyframes e85319ndDoN3_to__to { 0% {transform: translate(74.624763px,441.910172px);animation-timing-function: cubic-bezier(0.390000,0.575000,0.565000,1)} 25% {transform: translate(74.624763px,421.910172px);animation-timing-function: cubic-bezier(0.470000,0,0.745000,0.715000)} 50% {transform: translate(74.624763px,442.597379px)} 100% {transform: translate(74.624763px,442.597379px)}}]]></style><g id="e85319ndDoN2_ts" transform="translate(99.956070,334.100000) scale(1,1)"><path id="e85319ndDoN2" d="M366.200000,58L364.500000,59L364.600000,57C364.600000,56.600000,364.600000,56.800000,364.600000,56.700000L364.300000,56L363.600000,54.500000C363.200000,53.500000,362.600000,52.600000,362.100000,51.600000C361.100000,49.700000,360,47.800000,358.800000,46C356.500000,42.300000,353.900000,38.900000,351,35.600000C345.300000,29.100000,338.600000,23.500000,331.300000,19C316.500000,10,299.500000,5.300000,282.100000,5.400000C264.900000,5.300000,248,9.800000,233.100000,18.300000C218.300000,26.900000,206.100000,39.300000,197.800000,54.200000L195.900000,57.600000L192.600000,55.500000C183.800000,49.800000,174,45.900000,163.800000,43.900000C153.700000,41.900000,143.200000,42.300000,133.300000,45.100000C128.400000,46.500000,123.800000,48.600000,119.500000,51.300000C115.400000,54,111.700000,57.400000,108.800000,61.300000C105.800000,65.500000,103.100000,69.900000,101,74.600000C99.900000,77,98.800000,79.400000,97.800000,81.900000C96.800000,84.300000,96,86.700000,95.300000,89.200000L93.400000,95.900000L87.700000,91.600000C81.600000,87,73.300000,85.400000,65.300000,86.500000C57.300000,87.600000,49.900000,91.400000,44.400000,97.200000C39,103,36.100000,110.800000,36.300000,118.700000C36.400000,126.700000,39.100000,134.900000,43.100000,142.500000L45.100000,146.300000L41.700000,149C29.300000,159.100000,21.200000,173.400000,19.100000,189.200000C16.900000,204.800000,20.800000,221.100000,30.800000,233.100000C35.800000,239.100000,41.900000,244.100000,48.900000,247.700000C56,251.400000,63.600000,253.900000,71.500000,255.400000C87.400000,258.400000,104.200000,257.700000,120.600000,255.200000L126.500000,254.300000L127.200000,260.200000C127.600000,264.600000,127.600000,269.100000,127,273.500000C126.500000,277.700000,125.700000,281.900000,124.600000,285.900000C122.400000,294,119.400000,301.800000,115.600000,309.200000C111,318.100000,105.400000,326.500000,99,334.100000C103.200000,332.900000,107.400000,331.600000,111.500000,330.100000C121.500000,326.500000,131.200000,321.900000,140.300000,316.300000C149.300000,310.800000,157.600000,304.200000,165.100000,296.700000C168.700000,293,172.100000,288.900000,175.100000,284.700000C178,280.600000,180.400000,276.100000,182.200000,271.400000L185.400000,262.200000L191.400000,269.800000C198,278.200000,206.900000,284.500000,217,288.100000C227.200000,291.600000,238.200000,292.500000,248.900000,290.600000C259.600000,288.800000,269.800000,284.600000,278.600000,278.100000C287.300000,271.700000,294.100000,262.900000,298.200000,252.900000L300.800000,246.500000L305.500000,251.500000C312.600000,259,323.300000,262.800000,334.200000,263.500000C345.300000,264.100000,356.300000,262.300000,366.600000,258.100000C377,254,386.200000,247.700000,393.800000,239.400000C401.200000,231.200000,406.200000,221,408,210.100000L408.400000,207.900000L410.500000,207.400000C421,204.900000,430.600000,199.600000,438.300000,192.100000C446.100000,184.600000,451.600000,175,454.100000,164.500000C456.600000,153.900000,455.300000,142.800000,450.400000,133.100000C445.500000,123.400000,437,115.700000,427.300000,110.400000L426.300000,109.900000L426.600000,108.900000C429.400000,100.600000,430.100000,91.800000,428.400000,83.200000C426.800000,74.500000,422.400000,66.500000,415.900000,60.500000C409,54.900000,400.400000,51.800000,391.500000,51.500000C382.400000,51.200000,373.700000,53.500000,366.200000,58Z" transform="translate(-99.956070,-334.100000)" opacity="0" fill="rgb(249,192,65)" stroke="rgb(57,62,63)" stroke-width="3"/></g><g id="e85319ndDoN3_to" transform="translate(74.624763,441.910172)"><g id="e85319ndDoN3" transform="translate(-74.624763,-441.910172)"><path id="e85319ndDoN4" d="M36.500000,397.500000C37,402.100000,40.600000,406.900000,39.400000,411.300000C38,416.200000,36.500000,420.300000,35.600000,425.400000C34.700000,430.400000,34.300000,435,34.300000,440.400000C34.300000,443.300000,33.700000,447.100000,34.800000,449.800000C36,452.600000,39.500000,454.300000,41.100000,451.100000C40.400000,453.300000,38,454.300000,37.400000,456.400000C36.800000,458.300000,36.900000,461.900000,37.100000,463.900000C37.600000,468.600000,39.600000,473.900000,40.800000,478.600000C43,487,45.100000,495.600000,44.700000,504.300000C44.400000,512,42.100000,519.400000,43.700000,527.100000C44.400000,530.600000,46.400000,538.400000,50.300000,533C50.500000,534.100000,51.200000,535.700000,52.600000,535.800000C54.100000,535.900000,53.900000,534.100000,54.900000,534C56.100000,533.800000,59.800000,535.600000,60.700000,536.400000C61,532,61.400000,527.600000,62,523.300000C62.400000,520.800000,62.300000,513.100000,64.500000,511.700000C66.400000,510.500000,71.900000,512.900000,74.500000,513C78,513.100000,82,512.600000,85.400000,511.900000C84.600000,512.100000,83,514.200000,82.600000,514.800000C86.700000,516.100000,86.200000,520.200000,87.300000,523.700000C88.100000,526.500000,89.200000,529.300000,90.700000,531.900000C91.400000,533.100000,91.500000,534.400000,93,534.900000C95.700000,535.900000,94.800000,534,96.400000,532.700000C97.200000,532,96.600000,531.500000,97.700000,531.100000C98.200000,530.900000,98.900000,532.300000,99.500000,532.100000C100.900000,531.800000,101.300000,530.600000,102.100000,529.200000C103.200000,530.100000,104.500000,530.800000,105.800000,531.400000C107.800000,528.100000,107.600000,524,106.900000,520.400000C106.100000,516.200000,105.900000,513.100000,106.900000,508.900000C109.700000,508.900000,113.200000,507.200000,115.900000,506.400000C117.900000,505.900000,123.600000,506.400000,124.700000,504.700000C121.400000,500.400000,116,499.800000,111.700000,497.700000C112.300000,496.800000,113.500000,496.300000,114.400000,496.300000C102.900000,495.500000,103.200000,483.100000,102.500000,474.300000C101.700000,464.200000,99.300000,454.200000,98.800000,444C98.600000,438.500000,96,433.400000,96.400000,427.900000C96.700000,422.900000,97,418.400000,94.300000,413.800000C92,409.800000,89.500000,407.800000,89.700000,402.800000C91.100000,403.600000,92.100000,405.800000,94,406.200000C93.300000,403.100000,90.600000,400.200000,90.300000,396.900000C91.500000,397.700000,92.500000,398.900000,93.700000,399.700000C97.800000,396.300000,92,381.500000,90.900000,377.400000C92.800000,376.500000,95.800000,378.500000,98.300000,378C98.400000,374.500000,94.200000,370.300000,92.500000,367.400000C93.300000,367.700000,94.300000,367.500000,95.200000,367.700000C94.800000,364.800000,91.900000,362.400000,89,362.400000C89.200000,362.300000,89.800000,361.900000,90.200000,361.800000C90,359.300000,86.100000,359.900000,84.300000,359.300000C85.700000,357.900000,89.900000,356.100000,92.100000,355.200000C92,354.900000,91.900000,354.700000,91.800000,354.400000C88.600000,354.200000,85.200000,353.400000,82.200000,353.700000C79.200000,354,75.800000,355.400000,72.900000,355.900000C74.200000,354.400000,75.500000,352.700000,75.200000,350.700000C72.400000,351.500000,68.500000,354,66.100000,355.900000C67.100000,353.400000,69.400000,350.800000,69.800000,348.200000C66.200000,349,63.500000,351.800000,60.200000,353.300000C61.700000,351.500000,63.500000,349.900000,63.900000,347.500000C59.900000,347.300000,55.600000,352.500000,53.700000,355.200000C53.600000,353.100000,54.600000,350.200000,53.400000,348.400000C51.200000,351.600000,48.800000,355,47.600000,358.700000C43.700000,356.900000,40.300000,356.100000,35.800000,356.600000C32.500000,356.900000,27.100000,357.200000,24.600000,359.300000C27.600000,360.500000,30.500000,361.900000,33.600000,362.300000C30.600000,364.100000,27.500000,365.200000,24.900000,368.400000C26.600000,368.500000,28.400000,368.700000,29.800000,367.900000C28.200000,370.500000,26.500000,373.100000,25,375.700000C25.800000,375.200000,26.800000,374.900000,27.700000,374.500000C26.600000,375.900000,26.400000,378.400000,26.400000,380C27.300000,379.800000,28.400000,379.900000,29.200000,379.500000C29.200000,381.600000,29.300000,383.500000,30.300000,385.400000C32.500000,384,35.300000,380.200000,38.100000,380.900000C36.600000,386.300000,35.900000,391.700000,36.500000,397.500000Z" fill="rgb(216,231,229)" stroke="none" stroke-width="1"/><g id="e85319ndDoN5"><g id="e85319ndDoN6"><path id="e85319ndDoN7" d="M49.300000,358.700000C51.200000,354.500000,53.800000,350.800000,56,346.800000C55.500000,346.700000,55,346.700000,54.500000,346.600000C55,349.800000,54.500000,352.700000,53.600000,355.700000C53.400000,356.400000,54.500000,357,54.900000,356.200000C57.100000,351.700000,60.400000,348.400000,65.500000,347.600000C65.200000,347.200000,64.900000,346.800000,64.600000,346.500000C63.300000,349.100000,61.700000,351.200000,59.700000,353.300000C59.100000,354,59.900000,355.100000,60.700000,354.600000C64.600000,352.100000,68.100000,349.200000,72.200000,347C71.900000,346.700000,71.500000,346.300000,71.200000,346C69.500000,349.100000,67.500000,351.900000,66.200000,355.200000C66,355.800000,66.700000,356.300000,67.200000,356C69,354.800000,71.100000,352.700000,73.100000,351.900000C74.600000,350.400000,75,350.500000,74.200000,352.100000C73.700000,353,73.300000,353.800000,72.800000,354.700000C72.500000,355.300000,73.300000,355.800000,73.700000,355.200000C74.900000,353.400000,75.700000,351.700000,76.300000,349.600000C76.400000,349.200000,75.900000,348.700000,75.500000,349C72.500000,351,69.400000,352.900000,66.400000,354.900000C66.700000,355.200000,67.100000,355.400000,67.400000,355.700000C68.700000,352.600000,70.700000,349.800000,72.400000,346.900000C72.800000,346.200000,72,345.600000,71.400000,345.900000C67.300000,348,63.700000,350.800000,59.900000,353.300000C60.200000,353.700000,60.600000,354.200000,60.900000,354.600000C63,352.400000,64.700000,350.200000,66,347.400000C66.300000,346.800000,65.800000,346.100000,65.100000,346.300000C59.700000,347.200000,56,350.900000,53.700000,355.700000C54.100000,355.900000,54.600000,356.100000,55,356.200000C56,352.900000,56.400000,349.900000,56.100000,346.500000C56,345.700000,55,345.400000,54.600000,346.100000C52.700000,349.200000,47.800000,354.600000,48.200000,358.500000C48.300000,358.900000,49.100000,359.200000,49.300000,358.700000L49.300000,358.700000Z" fill="rgb(35,31,32)" stroke="none" stroke-width="1"/></g></g><g id="e85319ndDoN8"><g id="e85319ndDoN9"><path id="e85319ndDoN10" d="M49,358.200000C40.700000,354.100000,31.700000,355.300000,23.600000,359.400000C23.100000,359.700000,23.400000,360.400000,23.900000,360.400000C27.700000,360.700000,31.200000,361.900000,34.700000,363C34.700000,362.600000,34.700000,362.200000,34.700000,361.800000C30.200000,362.900000,26,364.900000,22.800000,368.300000C22.300000,368.800000,22.600000,369.800000,23.400000,369.700000C26.300000,369.600000,28.900000,369.100000,31.600000,368.200000C31.300000,367.800000,31,367.400000,30.600000,366.900000C28.200000,370.200000,25.800000,373.600000,23.300000,376.700000C22.600000,377.500000,23.600000,378.600000,24.500000,377.900000C26,376.700000,27.500000,375.600000,29,374.400000C28.600000,374.100000,28.100000,373.900000,27.700000,373.600000C26.800000,375.700000,26.300000,377.900000,25.300000,379.900000C25,380.500000,25.500000,381.200000,26.200000,381C27.700000,380.600000,28.400000,380.100000,29.700000,379.200000C30.200000,378.800000,29.800000,378.100000,29.200000,378.400000C28.100000,379.100000,27,379.500000,25.700000,379.600000C26,380,26.300000,380.300000,26.600000,380.700000C27.700000,378.600000,28.200000,376.400000,29.100000,374.200000C29.400000,373.400000,28.600000,372.600000,27.900000,373.200000C26.500000,374.500000,24.800000,375.500000,23.400000,376.700000C23.800000,377.100000,24.200000,377.500000,24.600000,377.900000C27.300000,374.600000,29.800000,371.200000,32.300000,367.700000C32.700000,367.100000,32,366.200000,31.300000,366.400000C28.700000,367.300000,26.200000,367.800000,23.500000,367.900000C23.700000,368.400000,23.900000,368.900000,24.100000,369.300000C27.200000,366,30.900000,364.100000,35.200000,362.800000C35.800000,362.600000,35.800000,361.700000,35.200000,361.600000C32.600000,360.900000,30,359.900000,27.300000,359.500000C26.900000,359.400000,25.700000,359.200000,25.700000,359.300000C25.700000,359.300000,30,357.700000,30.300000,357.600000C36.600000,355.700000,42.800000,356.500000,49,358.400000C49,358.600000,49.200000,358.300000,49,358.200000L49,358.200000Z" fill="rgb(35,31,32)" stroke="none" stroke-width="1"/></g></g><g id="e85319ndDoN11"><g id="e85319ndDoN12"><path id="e85319ndDoN13" d="M74.400000,356.600000C80.100000,354.300000,87.800000,353.300000,93.700000,355.500000C93.600000,355.100000,93.600000,354.700000,93.500000,354.300000C89.500000,356.900000,84.800000,358.200000,80.500000,360.300000C79.800000,360.600000,80.300000,361.900000,81.100000,361.600000C82.900000,361,84.800000,360.400000,86.800000,360.400000C88.400000,360.400000,89.200000,360.600000,90.500000,361.700000C92.600000,363.500000,90.400000,363,88.200000,362.700000C88.100000,363.200000,88.100000,363.700000,88,364.200000C91.700000,364.500000,94.700000,366.600000,96.400000,369.800000C96.600000,369.400000,96.800000,369.100000,97,368.700000C95.100000,368.800000,94.100000,368.900000,92.200000,368.200000C91.400000,367.900000,90.900000,369.100000,91.600000,369.500000C93.800000,370.800000,96.300000,372.100000,97.500000,374.500000C99.600000,378.600000,94.500000,376.300000,92.400000,375.300000C91.900000,375,91.100000,375.500000,91.300000,376.200000C91.800000,377.500000,91.800000,377.700000,92.400000,378.900000C92.700000,378.500000,93,378.100000,93.300000,377.800000C92.100000,377.600000,90.900000,377.200000,89.900000,376.600000C89.400000,376.300000,88.700000,377,89.200000,377.500000C90.600000,378.700000,91.300000,379.100000,93.100000,379.400000C93.700000,379.500000,94,378.700000,93.800000,378.200000C93.500000,377.400000,93.200000,376.700000,92.900000,375.900000C92.500000,376.200000,92.200000,376.500000,91.800000,376.800000C94.100000,377.900000,96.400000,378.300000,99,378.800000C99.500000,378.900000,99.900000,378.600000,99.900000,378.100000C100.500000,373.300000,96.200000,370.600000,92.500000,368.500000C92.300000,368.900000,92.100000,369.400000,91.900000,369.800000C93.700000,370.500000,95.200000,370.400000,97.100000,370.300000C97.700000,370.300000,98,369.700000,97.700000,369.200000C95.700000,365.400000,92.300000,363.200000,88.100000,362.800000C87.300000,362.700000,87.100000,364.100000,87.900000,364.300000C89.700000,364.500000,91.300000,364.400000,93.100000,364.300000C93.500000,364.300000,94,363.800000,93.800000,363.400000C91.600000,358,85.600000,358.800000,80.900000,360.400000C81.100000,360.800000,81.300000,361.300000,81.500000,361.700000C85.800000,359.600000,90.500000,358.300000,94.500000,355.700000C95,355.400000,94.900000,354.700000,94.300000,354.500000C88.700000,352.400000,79.500000,352.900000,74.500000,356.400000C74,356.300000,74.100000,356.700000,74.400000,356.600000L74.400000,356.600000Z" fill="rgb(35,31,32)" stroke="none" stroke-width="1"/></g></g><g id="e85319ndDoN14"><g id="e85319ndDoN15"><path id="e85319ndDoN16" d="M29.400000,377.800000C28.600000,380.100000,28.500000,382.500000,28.500000,384.900000C28.500000,385.500000,29.200000,386,29.800000,385.600000C32.800000,383.800000,35.700000,381.800000,38.900000,380.300000C40.100000,379.700000,39,377.800000,37.800000,378.500000C34.700000,380.200000,31.800000,382.100000,28.900000,384.200000C29.300000,384.400000,29.700000,384.700000,30.200000,384.900000C30.100000,382.600000,30.100000,380.200000,30.300000,377.900000C30.300000,377.300000,29.600000,377.300000,29.400000,377.800000L29.400000,377.800000Z" fill="rgb(35,31,32)" stroke="none" stroke-width="1"/></g></g><g id="e85319ndDoN17"><g id="e85319ndDoN18"><path id="e85319ndDoN19" d="M39.200000,379.200000C35.900000,382.400000,36.200000,389.500000,36.200000,393.700000C36.200000,399,36.600000,405,39.400000,409.600000C39.600000,409.900000,40.100000,410,40.300000,409.600000C41.300000,407.400000,42.200000,405.300000,42.900000,403C42.500000,403,42.200000,403,41.800000,403C42.800000,407,42.900000,411.200000,45.200000,414.700000C45.500000,415.100000,46.100000,415.200000,46.400000,414.700000C48.200000,411,48.500000,407.400000,48.500000,403.400000C48,403.400000,47.600000,403.400000,47.100000,403.400000C47.200000,407.800000,48.200000,412.300000,50.200000,416.200000C50.300000,416.400000,50.500000,416.500000,50.800000,416.500000C51,416.500000,51.100000,416.500000,51.300000,416.500000C51.700000,416.500000,51.900000,416.200000,51.900000,415.900000C52.100000,413.900000,51.400000,410,52.400000,408.200000C54.300000,404.900000,54.500000,409.900000,54.800000,411.300000C55.500000,414.800000,56,418,57.900000,421.100000C58.100000,421.400000,58.700000,421.400000,58.800000,421C59.700000,416.500000,59.300000,411.900000,60.900000,407.500000C60.500000,407.500000,60.200000,407.500000,59.800000,407.500000C61.200000,411.100000,61.600000,414.900000,63.800000,418.200000C64.100000,418.700000,64.700000,418.500000,64.900000,418.100000C66.400000,414.600000,66.400000,411.200000,66.400000,407.400000C66,407.500000,65.700000,407.600000,65.300000,407.700000C67,410.600000,68.300000,420,73.600000,416.900000C74.200000,416.500000,73.700000,415.700000,73.100000,416C69.100000,417.800000,67.800000,409.600000,66.400000,407.200000C66.100000,406.700000,65.300000,406.900000,65.300000,407.500000C65.300000,411,65.200000,414.500000,63.800000,417.800000C64.200000,417.800000,64.500000,417.700000,64.900000,417.700000C62.700000,414.600000,62.200000,410.900000,60.900000,407.400000C60.700000,406.900000,60,406.900000,59.800000,407.400000C59.100000,409.400000,58.700000,411.300000,58.500000,413.500000C58.300000,415.500000,58.900000,422.800000,57,417.200000C55.700000,413.300000,55.400000,409.200000,53.600000,405.400000C53.500000,405.200000,53.200000,405.200000,53.200000,405.400000C52.700000,406.400000,52.400000,407.200000,52.100000,408.300000C51.900000,409.300000,51.900000,410.300000,51.800000,411.400000C51.600000,412.400000,51.500000,413.400000,51.300000,414.400000C51.300000,415.700000,51.200000,415.800000,50.900000,414.600000C49.100000,411.900000,48.800000,406.700000,48.700000,403.600000C48.700000,402.700000,47.300000,402.700000,47.300000,403.600000C47.300000,405.600000,47.400000,407.900000,47,409.900000C46.600000,412,46.300000,415.100000,44.900000,410.900000C44,408.300000,43.800000,405.600000,43.100000,403C43,402.500000,42.200000,402.500000,42,403C41.800000,403.900000,40.400000,408.700000,40,408.600000C39.500000,408.500000,38.700000,405.400000,38.600000,404.900000C37.700000,401.800000,37.500000,398.500000,37.600000,395.200000C37.700000,389.900000,39.800000,384.700000,39.800000,379.600000C39.600000,379.200000,39.300000,379.100000,39.200000,379.200000L39.200000,379.200000Z" fill="rgb(35,31,32)" stroke="none" stroke-width="1"/></g></g><g id="e85319ndDoN20"><g id="e85319ndDoN21"><path id="e85319ndDoN22" d="M74.400000,416.400000C74.100000,413,74.900000,409.800000,75.800000,406.500000C75.500000,406.500000,75.200000,406.500000,75,406.500000C75.900000,410.200000,76.800000,413.900000,79.400000,416.900000C79.700000,417.200000,80.100000,417.100000,80.400000,416.900000C82.500000,414.900000,80.100000,409,79.600000,406.700000C79.200000,406.900000,78.800000,407.200000,78.400000,407.400000C80.600000,410.100000,82.800000,412.400000,86.200000,413.600000C86.500000,413.700000,87,413.500000,87.100000,413.100000C87.600000,410,87.100000,407.200000,86.100000,404.200000C85.700000,404.400000,85.200000,404.600000,84.800000,404.800000C86,406.700000,87.700000,407.800000,89.600000,409C90,409.300000,90.700000,408.900000,90.700000,408.400000C90.600000,405.700000,90.100000,403.600000,88.300000,401.600000C87.900000,401.200000,87.300000,401.700000,87.600000,402.200000C88.700000,404.300000,89.200000,406.200000,89.300000,408.500000C89.700000,408.300000,90,408.100000,90.400000,407.900000C88.700000,406.800000,87.200000,405.900000,86.200000,404.100000C85.800000,403.400000,84.600000,403.900000,84.900000,404.700000C85.700000,407.400000,86.300000,410,85.900000,412.800000C86.200000,412.600000,86.500000,412.500000,86.800000,412.300000C83.600000,411.300000,81.600000,409,79.600000,406.500000C79.100000,405.900000,78.300000,406.600000,78.400000,407.200000C78.700000,409,80.800000,414.800000,79.600000,416C79.900000,416,80.300000,416,80.600000,416C78.100000,413.300000,77.200000,409.800000,76,406.400000C75.900000,406,75.300000,406,75.200000,406.400000C74.200000,409.800000,73.300000,412.900000,73.600000,416.500000C73.400000,417,74.400000,417,74.400000,416.400000L74.400000,416.400000Z" fill="rgb(35,31,32)" stroke="none" stroke-width="1"/></g></g><g id="e85319ndDoN23"><g id="e85319ndDoN24"><path id="e85319ndDoN25" d="M87.500000,400.900000C88.600000,404.300000,91.300000,406.100000,94.800000,406C95.200000,406,95.500000,405.700000,95.500000,405.300000C95.300000,401.500000,93.100000,398.700000,91.600000,395.300000C91.100000,395.600000,90.600000,395.900000,90,396.200000C91,397.600000,91.900000,398.700000,93.100000,399.900000C93.600000,400.500000,94.400000,400.100000,94.700000,399.500000C97.200000,393.200000,93.600000,383.600000,91,377.800000C90.600000,376.800000,89.300000,377.600000,89.400000,378.500000C90.300000,385.100000,95.500000,392.200000,92.800000,399C93.300000,398.900000,93.900000,398.700000,94.400000,398.600000C93.300000,397.500000,92.300000,396.400000,91.400000,395.100000C90.800000,394.300000,89.400000,395.300000,90,396.200000C90.900000,397.600000,92.100000,399.100000,92.700000,400.700000C94.700000,406.800000,89.900000,403.700000,88.100000,400.600000C87.900000,400.400000,87.400000,400.600000,87.500000,400.900000L87.500000,400.900000Z" fill="rgb(35,31,32)" stroke="none" stroke-width="1"/></g></g><g id="e85319ndDoN26"><g id="e85319ndDoN27"><path id="e85319ndDoN28" d="M64.900000,394.600000C61.700000,394.100000,59.500000,392.800000,57.500000,390.200000C57.500000,390.700000,57.500000,391.100000,57.500000,391.600000C61.900000,387.200000,67.800000,389.300000,73.300000,389.400000C73,388.900000,72.700000,388.400000,72.400000,387.900000C70,391.700000,66.500000,392.300000,62.900000,394.200000C62.200000,394.600000,62.500000,395.700000,63.300000,395.700000C67.600000,395.500000,71.900000,392.400000,74.200000,388.900000C74.600000,388.200000,74.100000,387.400000,73.300000,387.400000C67.100000,387.300000,61,385.300000,56.100000,390.200000C55.700000,390.600000,55.700000,391.200000,56.100000,391.600000C58.400000,394.200000,61.300000,396.300000,64.900000,395.200000C65.200000,395.100000,65.300000,394.600000,64.900000,394.600000L64.900000,394.600000Z" fill="rgb(35,31,32)" stroke="none" stroke-width="1"/></g></g><g id="e85319ndDoN29"><g id="e85319ndDoN30"><path id="e85319ndDoN31" d="M59.200000,389.100000C57.800000,389.800000,56.900000,390,56.600000,391.700000C56.500000,392.300000,56.900000,392.700000,57.500000,392.600000C60.200000,392.200000,62.300000,391.700000,64.400000,390C65.100000,389.400000,64.200000,388.200000,63.400000,388.700000C61.700000,389.800000,60.100000,390.900000,58.700000,392.200000C58,392.900000,58.700000,394,59.600000,393.800000C62.400000,393.200000,64.900000,392.100000,67.300000,390.700000C67,390.200000,66.700000,389.600000,66.300000,389.100000C64.800000,390.200000,63.300000,391.500000,61.800000,392.600000C61.100000,393.100000,61.200000,394.100000,62,394.400000C65.200000,395.500000,68.300000,394.100000,70.400000,391.600000C71.100000,390.800000,70.200000,389.500000,69.200000,390.100000C66.900000,391.500000,64.700000,393.100000,63,395.300000C62.300000,396.200000,63.100000,397.300000,64.200000,396.800000C65.700000,396.100000,69.600000,394.100000,69.400000,392C69.300000,391.500000,68.700000,391,68.200000,391.500000C66.800000,393,65.100000,394.300000,63.200000,395.200000C63.600000,395.700000,64,396.200000,64.400000,396.700000C66,394.700000,68,393.200000,70.200000,391.900000C69.800000,391.400000,69.400000,390.900000,69,390.400000C67.300000,392.400000,65.100000,393.500000,62.500000,392.600000C62.600000,393.200000,62.700000,393.800000,62.700000,394.400000C64.200000,393.300000,65.600000,392,67.200000,390.900000C68.200000,390.200000,67.300000,388.600000,66.200000,389.300000C63.900000,390.600000,61.500000,391.600000,58.900000,392.200000C59.200000,392.700000,59.500000,393.200000,59.800000,393.800000C61.100000,392.500000,62.500000,391.400000,64.100000,390.300000C63.800000,389.900000,63.400000,389.400000,63.100000,389C61.400000,390.700000,59.200000,390.900000,57,391.400000C57.300000,391.600000,57.600000,391.900000,58,392.100000C58,390.900000,58.900000,390.600000,59.500000,389.900000C59.800000,389.300000,59.500000,388.900000,59.200000,389.100000L59.200000,389.100000Z" fill="rgb(35,31,32)" stroke="none" stroke-width="1"/></g></g><g id="e85319ndDoN32"><g id="e85319ndDoN33"><path id="e85319ndDoN34" d="M34.900000,376C35.100000,376,35.100000,375.700000,34.900000,375.700000C34.700000,375.700000,34.700000,376,34.900000,376L34.900000,376Z" fill="rgb(35,31,32)" stroke="none" stroke-width="1"/></g></g><g id="e85319ndDoN35"><g id="e85319ndDoN36"><path id="e85319ndDoN37" d="M35.900000,374.200000C41,374.700000,46.100000,373,51.200000,372.700000C54.600000,372.400000,58.400000,371.900000,58.900000,376.100000C59.100000,378.200000,58.500000,380.800000,57.500000,382.700000C55.300000,386.800000,51.200000,389,46.600000,388.900000C43.400000,388.900000,42.400000,387.500000,42,384.400000C41.500000,380.900000,41.400000,377.500000,42.100000,374C42.300000,373.200000,41.100000,372.900000,40.800000,373.700000C39,378.800000,40.200000,384.400000,41,389.600000C41.100000,389.900000,41.400000,390.200000,41.700000,390.300000C53.500000,394.400000,63.800000,383.900000,60.400000,372.100000C60.300000,371.800000,60,371.500000,59.700000,371.400000C51.800000,370.100000,43.700000,372.300000,35.900000,373.500000C35.400000,373.600000,35.500000,374.200000,35.900000,374.200000L35.900000,374.200000Z" fill="rgb(35,31,32)" stroke="none" stroke-width="1"/></g></g><g id="e85319ndDoN38"><g id="e85319ndDoN39"><path id="e85319ndDoN40" d="M60,376.600000C61.700000,375.400000,63.800000,374.500000,65.900000,375.300000C66.300000,375.400000,68.200000,376.300000,67.700000,375C67.300000,374,65,374,64.200000,374C62.400000,374.100000,60.800000,374.700000,59.700000,376.100000C59.400000,376.400000,59.700000,376.900000,60,376.600000L60,376.600000Z" fill="rgb(35,31,32)" stroke="none" stroke-width="1"/></g></g><g id="e85319ndDoN41"><g id="e85319ndDoN42"><path id="e85319ndDoN43" d="M68.400000,372.900000C67.900000,378.600000,69.300000,385.700000,75.300000,388.200000C79.900000,390.100000,86.900000,388.400000,88.800000,383.400000C89.200000,382.300000,89.400000,381,89.500000,379.800000C89.600000,378.100000,90.200000,375,89.700000,373.400000C89.300000,371.800000,87.200000,371.300000,85.700000,371C82.700000,370.400000,79.500000,370.700000,76.500000,370.900000C73.700000,371,70.300000,370.600000,67.600000,371.200000C66.900000,371.300000,66.900000,372.300000,67.400000,372.700000C70,374.300000,75.100000,373,78,372.900000C79.900000,372.800000,81.900000,372.700000,83.800000,372.800000C84.800000,372.900000,86.800000,372.900000,87.500000,373.600000C88.300000,374.400000,88.100000,376.900000,88.100000,377.900000C88.100000,380.600000,88.200000,383.600000,85.900000,385.400000C83.700000,387.100000,79.600000,387.300000,76.800000,386.600000C71.100000,385,69.800000,378.100000,69.100000,373C69.200000,372.300000,68.500000,372.300000,68.400000,372.900000L68.400000,372.900000Z" fill="rgb(35,31,32)" stroke="none" stroke-width="1"/></g></g><g id="e85319ndDoN44"><g id="e85319ndDoN45"><path id="e85319ndDoN46" d="M50.100000,378.900000C50.100000,379.100000,50.100000,379.200000,50,379.400000C50,379.600000,49.700000,379.600000,50,379.600000C50.100000,379.800000,50.300000,380,50.400000,380.100000C50.400000,380,50.500000,379.600000,50.400000,380C50.400000,379.900000,50.500000,379.700000,50.500000,379.600000C50.300000,379.800000,50,380,49.800000,380.200000C50,380.200000,50.100000,380.200000,50.300000,380.300000C50,380,49.800000,379.800000,49.500000,379.500000C49.300000,380.700000,49.500000,382.100000,49.900000,383.300000C50.300000,384.400000,51.700000,384.100000,51.800000,383C51.900000,381.900000,51.900000,380.600000,51.900000,379.500000C51.900000,378.300000,50.300000,378.200000,49.900000,379.200000C49.500000,380.100000,49.400000,382.700000,50.800000,383C51.300000,383.100000,51.700000,382.600000,51.800000,382.200000C52,381.400000,51.600000,380.600000,51.900000,379.800000C51.200000,379.700000,50.500000,379.600000,49.900000,379.500000C49.900000,380.600000,49.800000,381.900000,50,383C50.600000,382.800000,51.200000,382.700000,51.800000,382.500000C51.300000,381.600000,51.400000,380.500000,51.300000,379.500000C51.300000,379.100000,51,378.600000,50.500000,378.700000C50.300000,378.700000,50.200000,378.700000,50,378.800000C49.500000,378.900000,49.200000,379.200000,49.300000,379.800000C49.300000,379.800000,49.400000,380.500000,49.400000,380.100000C49.400000,380.700000,50.100000,380.900000,50.600000,380.600000C51.100000,380.200000,50.900000,379.700000,50.900000,379.100000C50.600000,378.600000,50.100000,378.600000,50.100000,378.900000L50.100000,378.900000Z" fill="rgb(35,31,32)" stroke="none" stroke-width="1"/></g></g><g id="e85319ndDoN47"><g id="e85319ndDoN48"><path id="e85319ndDoN49" d="M77.900000,380.400000C77.900000,380.500000,77.900000,380.600000,77.900000,380.700000C77.900000,380.600000,78,380.500000,78,380.400000C77.700000,380.800000,77.800000,381.300000,77.800000,381.800000C77.800000,382.400000,77.800000,382.900000,77.800000,383.500000C77.800000,384.300000,78.800000,384.700000,79.400000,384.200000C79.700000,383.900000,79.900000,383.600000,80.100000,383.300000C80.200000,383.200000,80.300000,383,80.400000,382.900000C80.500000,382.700000,80.600000,382.700000,80.300000,382.900000C80.100000,382.900000,80,383,79.800000,383C79.800000,383,79.800000,383,79.800000,383C79.500000,382.800000,79.300000,382.700000,79,382.500000C79,382.500000,79,382.500000,79,382.500000C79,382.300000,78.900000,382.200000,78.900000,382C78.900000,381.900000,79,381.800000,78.900000,382C78.900000,382.100000,78.800000,382.200000,78.800000,382.300000C78.700000,382.700000,78.900000,383.200000,79.300000,383.400000C79.700000,383.600000,80.300000,383.500000,80.500000,383C80.700000,382.500000,80.900000,382,80.600000,381.500000C80.400000,381.200000,80.100000,381,79.800000,381C79.200000,381.100000,79,381.400000,78.700000,381.900000C78.500000,382.200000,78.200000,382.700000,78,382.900000C78.500000,383.100000,79.100000,383.300000,79.600000,383.600000C79.600000,383,79.400000,382.400000,79.100000,381.800000C78.900000,381.400000,78.800000,380.700000,78.400000,380.500000C78.500000,380.600000,78.500000,380.700000,78.600000,380.800000C78.600000,380.700000,78.500000,380.600000,78.500000,380.500000C78.700000,379.800000,78,379.900000,77.900000,380.400000L77.900000,380.400000Z" fill="rgb(35,31,32)" stroke="none" stroke-width="1"/></g></g><g id="e85319ndDoN50"><g id="e85319ndDoN51"><path id="e85319ndDoN52" d="M38.400000,408.700000C38.200000,408.700000,38.100000,408.700000,37.900000,408.700000C37.700000,408.700000,37.600000,408.800000,37.500000,409C37.400000,409.300000,37.500000,409.600000,37.600000,410C37.700000,410.200000,38,410.200000,38.100000,410C38.200000,409.700000,38.400000,409.200000,38.200000,408.900000C38.200000,409,38.100000,409.100000,38.100000,409.200000C38.200000,409.200000,38.300000,409.200000,38.400000,409.200000C38.600000,409,38.600000,408.700000,38.400000,408.700000L38.400000,408.700000Z" fill="rgb(35,31,32)" stroke="none" stroke-width="1"/></g></g><g id="e85319ndDoN53"><g id="e85319ndDoN54"><path id="e85319ndDoN55" d="M36.800000,425.900000C34.700000,432.900000,30.500000,445.900000,35.300000,452.600000C39.700000,458.800000,43,449,42.600000,445.300000C42.500000,444.600000,41.500000,444.600000,41.500000,445.300000C41.400000,447.600000,41.400000,452.800000,44,454C46.700000,455.200000,47.900000,451.100000,48.400000,449.300000C47.900000,449.400000,47.400000,449.400000,46.900000,449.500000C47.600000,451,48.500000,451.900000,49.400000,453.300000C49.700000,453.700000,50.300000,453.900000,50.700000,453.500000C53.100000,450.800000,54.200000,448,54.200000,444.400000C54.200000,439.300000,53.500000,435.100000,54.500000,430C54.600000,429.300000,53.800000,429,53.400000,429.500000C48.600000,436.500000,55.700000,445.300000,49.600000,452.400000C50,452.500000,50.500000,452.500000,50.900000,452.600000C50,451.300000,49,450.300000,48.400000,448.900000C48.100000,448.200000,47.100000,448.500000,46.900000,449.100000C46.200000,451.600000,44.100000,453.500000,43,450.200000C42.500000,448.700000,42.500000,447.200000,42.600000,445.600000C42.200000,445.600000,41.900000,445.600000,41.500000,445.600000C41.500000,447.500000,40.700000,454.200000,37.200000,452.600000C34.800000,451.500000,35,445.200000,35,443C35.200000,437.400000,36.500000,431.900000,37.300000,426.300000C37.400000,425.700000,36.900000,425.600000,36.800000,425.900000L36.800000,425.900000Z" fill="rgb(35,31,32)" stroke="none" stroke-width="1"/></g></g><g id="e85319ndDoN56"><g id="e85319ndDoN57"><path id="e85319ndDoN58" d="M94.400000,424.800000C96,433.800000,98.300000,443.100000,95.100000,452C95.600000,451.900000,96.100000,451.900000,96.600000,451.800000C95.200000,449,93.800000,446.300000,92.900000,443.200000C92.400000,443.300000,91.800000,443.500000,91.300000,443.600000C91.800000,445.400000,92.600000,447.800000,91,449.300000C89.600000,450.500000,90.100000,450.100000,89.700000,448.200000C89.600000,447.600000,88.700000,447.500000,88.400000,448C87.500000,450,86.300000,451.600000,85.800000,453.800000C86.200000,453.700000,86.600000,453.700000,87.100000,453.600000C85,448.800000,84.600000,443.700000,84.100000,438.500000C83.900000,435.900000,83.900000,432.800000,82.500000,430.500000C82.300000,430.100000,81.600000,430.200000,81.600000,430.700000C82.100000,438.400000,82.600000,447.100000,85.900000,454.200000C86.100000,454.700000,87,454.600000,87.200000,454C87.600000,452,88.800000,450.400000,89.600000,448.500000C89.200000,448.400000,88.700000,448.400000,88.300000,448.300000C88.500000,449.400000,88.700000,450.400000,88.800000,451.500000C88.900000,452,89.600000,452.200000,90,452C93.700000,450.100000,93.900000,446.700000,92.900000,443C92.600000,442,91,442.400000,91.300000,443.400000C92.100000,446.600000,93.600000,449.400000,95.200000,452.300000C95.500000,453,96.500000,452.700000,96.700000,452.100000C99.500000,443.700000,98.300000,432.500000,94.900000,424.300000C94.800000,424.300000,94.300000,424.400000,94.400000,424.800000L94.400000,424.800000Z" fill="rgb(35,31,32)" stroke="none" stroke-width="1"/></g></g><g id="e85319ndDoN59"><g id="e85319ndDoN60"><path id="e85319ndDoN61" d="M37.300000,427.900000C37.600000,425.900000,38,424.100000,38.900000,422.200000C39.600000,420.800000,40.700000,419.400000,41.100000,417.900000C41.200000,417.600000,40.800000,417.500000,40.700000,417.600000C38.300000,419.900000,36.600000,424.500000,36.900000,427.800000C36.900000,428.100000,37.300000,428.200000,37.300000,427.900000L37.300000,427.900000Z" fill="rgb(35,31,32)" stroke="none" stroke-width="1"/></g></g><g id="e85319ndDoN62"><g id="e85319ndDoN63"><path id="e85319ndDoN64" d="M40,407.700000C33.900000,418.500000,32.900000,431.900000,33.800000,444.100000C33.800000,444.200000,34,444.200000,34,444.100000C35,431.500000,35.700000,419.700000,40.400000,407.900000C40.500000,407.700000,40.200000,407.500000,40,407.700000L40,407.700000Z" fill="rgb(35,31,32)" stroke="none" stroke-width="1"/></g></g><g id="e85319ndDoN65"><g id="e85319ndDoN66"><path id="e85319ndDoN67" d="M34,444.900000C35,444.900000,35,443.300000,34,443.300000C33,443.300000,32.900000,444.900000,34,444.900000L34,444.900000Z" fill="rgb(35,31,32)" stroke="none" stroke-width="1"/></g></g><g id="e85319ndDoN68"><g id="e85319ndDoN69"><path id="e85319ndDoN70" d="M37.500000,453.400000C34,460.700000,37.200000,470.400000,39.200000,477.700000C40.500000,482.400000,42,487.100000,42.900000,491.900000C43.900000,496.800000,43.300000,501.200000,43.500000,506.100000C43.500000,506.600000,44.100000,506.700000,44.400000,506.300000C48.900000,500.500000,44.600000,489.100000,42.800000,483C39.900000,473.300000,36.400000,463.800000,38,453.600000C38,453.300000,37.600000,453.100000,37.500000,453.400000L37.500000,453.400000Z" fill="rgb(35,31,32)" stroke="none" stroke-width="1"/></g></g><g id="e85319ndDoN71"><g id="e85319ndDoN72"><path id="e85319ndDoN73" d="M43.600000,504.800000C42.900000,510.500000,42.400000,516.300000,42.200000,522.100000C42,526.200000,41.900000,532,44.800000,535.300000C45.300000,535.800000,46.200000,535.300000,46,534.600000C44.400000,529.500000,43.600000,524.800000,43.800000,519.300000C44,514.500000,45,509.600000,44.500000,504.700000C44.400000,504.300000,43.600000,504.300000,43.600000,504.800000L43.600000,504.800000Z" fill="rgb(35,31,32)" stroke="none" stroke-width="1"/></g></g><g id="e85319ndDoN74"><g id="e85319ndDoN75"><path id="e85319ndDoN76" d="M45.500000,534.200000C45.600000,535.300000,45.900000,536.800000,47.300000,536.700000C48.700000,536.600000,49.800000,535.100000,50.600000,534.100000C50.700000,533.900000,50.700000,533.600000,50.600000,533.400000C50.500000,533.200000,50.400000,533.100000,50.200000,533.100000C50,533,49.700000,533.100000,49.500000,533.300000C48.900000,534,48.300000,534.800000,47.500000,535.200000C46.700000,535.600000,46.300000,534.700000,46,534.100000C46,533.800000,45.500000,533.800000,45.500000,534.200000L45.500000,534.200000Z" fill="rgb(35,31,32)" stroke="none" stroke-width="1"/></g></g><g id="e85319ndDoN77"><g id="e85319ndDoN78"><path id="e85319ndDoN79" d="M49.700000,533.100000C50.200000,534.800000,50.900000,536.900000,53,537C54.100000,537,54.600000,536.100000,55.500000,535.800000C57.600000,535,58.100000,536,60.200000,537.900000C60.600000,538.300000,61.300000,538.100000,61.500000,537.600000C62.800000,533.100000,63.300000,528.500000,63.800000,523.900000C64.400000,518.800000,65.700000,513.700000,66.100000,508.600000C66.100000,508.200000,65.600000,508.100000,65.400000,508.400000C63,512.500000,62.700000,517.500000,62.200000,522.100000C61.800000,525.300000,61.500000,528.600000,61,531.800000C60.900000,532.400000,60.800000,535,60.400000,535.400000C59.400000,536.300000,57.700000,534.100000,56.900000,533.100000C56.600000,532.700000,56,532.900000,55.700000,533.200000C52.800000,535.300000,51.100000,535.100000,50.500000,532.700000C50.400000,532.200000,49.600000,532.500000,49.700000,533.100000L49.700000,533.100000Z" fill="rgb(35,31,32)" stroke="none" stroke-width="1"/></g></g><g id="e85319ndDoN80"><g id="e85319ndDoN81"><path id="e85319ndDoN82" d="M90.700000,407.300000C94.900000,415.100000,95.500000,424.300000,96.700000,432.900000C98,442.900000,100.100000,452.700000,101.300000,462.700000C103.700000,483.500000,104.300000,504.600000,105.700000,525.500000C105.800000,526.600000,107.500000,526.600000,107.400000,525.500000C105.800000,503.300000,104.900000,481.100000,102,459C100.800000,449.500000,98.700000,440.100000,97.200000,430.700000C95.900000,422.600000,95.600000,414.200000,91,407.100000C90.900000,406.900000,90.600000,407.100000,90.700000,407.300000L90.700000,407.300000Z" fill="rgb(35,31,32)" stroke="none" stroke-width="1"/></g></g><g id="e85319ndDoN83"><g id="e85319ndDoN84"><path id="e85319ndDoN85" d="M106.200000,524.200000C106.300000,526.900000,106,529.500000,105.200000,532.200000C105.600000,532.100000,106,532.100000,106.400000,532C105.400000,530.500000,103.800000,529.700000,102.700000,528.200000C102.400000,527.800000,101.500000,527.700000,101.400000,528.400000C101.300000,529.200000,101.300000,530.400000,100.700000,531C100.600000,531.800000,100.200000,531.900000,99.400000,531.300000C98.600000,531.200000,98,530.800000,97.800000,530C97.300000,529.300000,96.200000,529.600000,96.200000,530.400000C96.100000,531.800000,95.900000,534.400000,94,534.800000C91.900000,535.300000,90.900000,532.900000,90.400000,531.400000C90,530.400000,88.400000,530.800000,88.700000,531.900000C89.500000,534.200000,91.100000,537,94,536.600000C97,536.200000,97.800000,532.900000,97.900000,530.400000C97.400000,530.500000,96.800000,530.700000,96.300000,530.800000C97.100000,532.100000,98.500000,534.400000,100.400000,533.800000C102.400000,533.200000,102.600000,530.200000,102.800000,528.500000C102.400000,528.700000,102,528.800000,101.600000,529C102.700000,530.300000,104.300000,531.200000,105.300000,532.600000C105.600000,533,106.400000,533.100000,106.500000,532.400000C107.100000,529.600000,107.700000,526.800000,106.800000,524C106.700000,523.800000,106.200000,523.800000,106.200000,524.200000L106.200000,524.200000Z" fill="rgb(35,31,32)" stroke="none" stroke-width="1"/></g></g><g id="e85319ndDoN86"><g id="e85319ndDoN87"><path id="e85319ndDoN88" d="M90.700000,533.400000C87.700000,524.700000,88,514,82.900000,506.200000C82.300000,505.200000,80.800000,506.100000,81.400000,507.100000C86.200000,515.500000,85.500000,525.400000,89.900000,533.800000C90.100000,534.300000,90.900000,534,90.700000,533.400000L90.700000,533.400000Z" fill="rgb(35,31,32)" stroke="none" stroke-width="1"/></g></g><g id="e85319ndDoN89"><g id="e85319ndDoN90"><path id="e85319ndDoN91" d="M68.600000,509.200000C68.600000,509.100000,68.600000,508.900000,68.700000,508.800000C68.600000,508.900000,68.600000,509,68.500000,509.100000C69.100000,508.900000,69.100000,508.100000,68.400000,508.100000C67.700000,508.100000,67.800000,509,68.300000,509.100000C68.200000,509,68.200000,508.900000,68.100000,508.800000C68.100000,508.900000,68.100000,509.100000,68.200000,509.200000C68.200000,509.500000,68.600000,509.500000,68.600000,509.200000L68.600000,509.200000Z" fill="rgb(35,31,32)" stroke="none" stroke-width="1"/></g></g><g id="e85319ndDoN92"><g id="e85319ndDoN93"><path id="e85319ndDoN94" d="M67,509.900000C70.100000,513.700000,77.900000,514.500000,82.400000,513.700000C83.400000,513.500000,83.100000,511.900000,82.200000,512C76.900000,512.100000,72.300000,511.200000,67.200000,509.600000C67,509.600000,66.900000,509.800000,67,509.900000L67,509.900000Z" fill="rgb(35,31,32)" stroke="none" stroke-width="1"/></g></g><g id="e85319ndDoN95"><g id="e85319ndDoN96"><path id="e85319ndDoN97" d="M104.900000,492.700000C108.200000,495.400000,112.400000,496.200000,116.300000,497.500000C116.400000,497,116.400000,496.400000,116.500000,495.900000C114,496.100000,111.800000,497.100000,109.400000,497.800000C108.500000,498.100000,108.700000,499.400000,109.600000,499.400000C112.400000,499.700000,115.100000,500.600000,117.800000,501.300000C118.200000,501.400000,120.400000,502.400000,120.100000,501.300000C120,501.100000,116.100000,501.100000,115.900000,501.100000C115.100000,501.100000,115.100000,502.300000,115.900000,502.400000C119.400000,502.500000,122.400000,503.200000,125.500000,505C125.600000,504.500000,125.600000,504,125.700000,503.600000C119.200000,504.700000,112.400000,505.700000,106.300000,507.900000C105.300000,508.300000,105.700000,509.700000,106.700000,509.500000C113.200000,508.100000,119.600000,506.400000,126.100000,505.100000C126.800000,505,126.900000,504,126.300000,503.700000C123,501.900000,119.700000,501.300000,115.900000,501.300000C115.900000,501.700000,115.900000,502.100000,115.900000,502.600000C117.800000,502.500000,119.700000,502.400000,121.500000,502.400000C121.900000,502.400000,122.100000,501.800000,121.700000,501.700000C117.900000,500.100000,113.800000,499.200000,109.800000,498.100000C109.800000,498.600000,109.800000,499.200000,109.800000,499.700000C112,499.100000,114.100000,498,116.500000,497.800000C117.400000,497.700000,117.600000,496.500000,116.700000,496.200000C112.800000,495,109,494.300000,105.500000,492.100000C105,491.500000,104.400000,492.300000,104.900000,492.700000L104.900000,492.700000Z" fill="rgb(35,31,32)" stroke="none" stroke-width="1"/></g></g></g></g></svg>