<svg id="eKpykPEs7zc1" xmlns="http://www.w3.org/2000/svg" xmlns:xlink="http://www.w3.org/1999/xlink" viewBox="0 0 473 538.800000" shape-rendering="geometricPrecision" text-rendering="geometricPrecision"><style><![CDATA[#eKpykPEs7zc75_ts {animation: eKpykPEs7zc75_ts__ts 2000ms linear 1 normal forwards}@keyframes eKpykPEs7zc75_ts__ts { 0% {transform: translate(100.700000px,340.720651px) scale(1,1)} 50% {transform: translate(100.700000px,340.720651px) scale(0,0);animation-timing-function: cubic-bezier(0.230000,1,0.320000,1)} 100% {transform: translate(100.700000px,340.720651px) scale(1,1)}} #eKpykPEs7zc75 {animation: eKpykPEs7zc75_c_o 2000ms linear 1 normal forwards}@keyframes eKpykPEs7zc75_c_o { 0% {opacity: 0} 49.500000% {opacity: 0} 50% {opacity: 1} 100% {opacity: 1}} #eKpykPEs7zc94_tr {animation: eKpykPEs7zc94_tr__tr 2000ms linear 1 normal forwards}@keyframes eKpykPEs7zc94_tr__tr { 0% {transform: translate(102.257965px,397.763672px) rotate(31.729473deg)} 25% {transform: translate(102.257965px,397.763672px) rotate(-9.284944deg)} 50% {transform: translate(102.257965px,397.763672px) rotate(17.243338deg)} 100% {transform: translate(102.257965px,397.763672px) rotate(17.243338deg)}}]]></style><path id="eKpykPEs7zc2" d="M165.300000,451.700000C163.400000,447.300000,162.200000,443.100000,161.100000,439C161.500000,441.300000,161.600000,443.600000,161.400000,446C161.300000,446.700000,160.300000,446.900000,160.200000,446.200000C159,439.700000,158.100000,433.800000,155.200000,427.800000C152.300000,422,148.400000,417.300000,144.200000,412.400000C140.200000,407.700000,136.700000,402.600000,131.300000,399.300000C126.100000,396.100000,120.200000,394.600000,114.300000,393.200000C114.200000,393.800000,113.100000,393.800000,113.100000,393.100000C113.100000,392.700000,113.100000,392.200000,113.100000,391.800000C109.800000,391.600000,106.700000,391.700000,103.800000,391.800000C103.800000,391.800000,103.800000,391.900000,103.800000,391.900000L103.800000,391.900000C104.200000,392.100000,104.100000,392.600000,103.600000,392.700000C103.100000,392.800000,102.600000,392.800000,102.100000,392.900000C100.500000,393.300000,97.700000,393.600000,92.900000,395.100000C91.300000,395.800000,89.800000,396.700000,88.300000,397.700000C88,397.900000,87.900000,397.600000,88,397.300000C84.100000,399.700000,80.400000,403.400000,76.700000,405.400000C70.600000,409,64.100000,408.300000,57.300000,409.600000C36.400000,413.600000,12.300000,447.300000,5.300000,466.500000L6.300000,465.500000C-3,487,23.200000,489.300000,36.100000,493.700000C48.300000,497.800000,42.600000,500,37.800000,508.600000C34,515.400000,35.700000,528.100000,45.400000,519.800000C49.400000,525.200000,56.400000,524.300000,59.200000,518.500000C59.400000,519.400000,59.400000,520.300000,59.500000,521.200000C66.500000,521,76.100000,507.800000,75.200000,500.900000C87.500000,502.400000,95.400000,498.800000,107.300000,496C105.900000,507.500000,123.900000,521,128.300000,505.800000C131.100000,508.200000,130.400000,509.800000,133.600000,508.300000C133.200000,506.900000,136.300000,503.300000,136.100000,501.900000C136,501.700000,135.900000,501.400000,135.800000,501.100000C136.500000,501.800000,137,502.200000,137.400000,502.400000C137.600000,502.400000,137.700000,502.500000,137.900000,502.500000C139.700000,502.300000,134.600000,491.500000,135.900000,488.900000C135.900000,488,136.200000,487.100000,136.800000,486C140.200000,480.200000,150.400000,481.400000,156.200000,479.900000C176.500000,474.900000,172.900000,469.100000,165.300000,451.700000Z" fill="rgb(247,191,63)" stroke="none" stroke-width="1"/><g id="eKpykPEs7zc3"><g id="eKpykPEs7zc4"><path id="eKpykPEs7zc5" d="M48.300000,440.400000C45.500000,458,36.700000,474.200000,36,492.200000C36,492.600000,36.300000,492.900000,36.700000,492.900000C39.200000,493,39.700000,494.300000,41.700000,495.800000C43.600000,497.300000,45.700000,498.400000,47.900000,499.400000C53,501.600000,58.500000,502.500000,64.100000,502.900000C76.600000,503.600000,89.300000,501.400000,101.400000,498.400000C107.300000,496.900000,113,495.300000,118.900000,494C123.900000,492.900000,129.100000,492,133.700000,489.700000C142.600000,485.300000,142.300000,476.300000,139.300000,467.900000C133.400000,451.500000,121.300000,437.700000,110.500000,424.300000C109.600000,423.100000,107.900000,424.800000,108.900000,425.900000C119.700000,439.400000,132.700000,453.700000,137.800000,470.600000C139.600000,476.600000,140,483.100000,134.100000,486.800000C129.300000,489.800000,123.100000,490.600000,117.700000,491.800000C104.600000,494.600000,92,498.700000,78.600000,500.100000C71.600000,500.800000,64.500000,501.100000,57.500000,499.900000C54.400000,499.400000,51.400000,498.600000,48.600000,497.400000C47.300000,496.800000,46,496.200000,44.700000,495.400000C43.100000,494.400000,41.700000,492.600000,40.100000,491.900000C39.700000,491.700000,39.200000,491.500000,38.800000,491.300000C38.400000,491.100000,37.500000,491.600000,37.200000,491.400000C37.100000,491.300000,37.600000,488.200000,37.700000,487.700000C38.100000,482.200000,39.300000,476.800000,40.800000,471.500000C43.700000,461.200000,47.300000,451.100000,48.800000,440.400000C48.600000,440.300000,48.300000,440.200000,48.300000,440.400000L48.300000,440.400000Z" fill="rgb(35,31,32)" stroke="none" stroke-width="1"/></g></g><g id="eKpykPEs7zc6"><g id="eKpykPEs7zc7"><path id="eKpykPEs7zc8" d="M85.500000,470C80.600000,465.500000,76.600000,461.200000,72.700000,455.700000C72.500000,456.100000,72.300000,456.600000,72.200000,457C74.900000,456,77.500000,455,80.300000,454.200000C81.600000,453.800000,83,453.400000,84.300000,453.100000C85.200000,452.900000,88.600000,451.900000,89.400000,452.400000C91.800000,453.900000,89.100000,459.500000,88.200000,461.200000C86.900000,463.600000,85,465.500000,83,467.300000C82.100000,468.100000,83.400000,469.300000,84.300000,468.600000C89.400000,464.200000,93,458.100000,91.600000,451.200000C91.500000,450.800000,91.100000,450.500000,90.700000,450.500000C84,450.700000,77.800000,452.900000,71.600000,455.300000C71.100000,455.500000,70.700000,456.100000,71.100000,456.600000C74.800000,461.700000,79,468.300000,85.100000,470.600000C85.500000,470.700000,85.800000,470.200000,85.500000,470L85.500000,470Z" fill="rgb(35,31,32)" stroke="none" stroke-width="1"/></g></g><g id="eKpykPEs7zc9"><g id="eKpykPEs7zc10"><path id="eKpykPEs7zc11" d="M38.700000,419.100000C33.200000,428.900000,25,436.900000,17.900000,445.500000C11.900000,452.800000,5.400000,461.200000,4.300000,470.900000C3.500000,478.400000,6.300000,486.100000,13.300000,489.600000C20.600000,493.300000,29.400000,492.600000,37.100000,494.900000C38.400000,495.300000,39,493.200000,37.700000,492.800000C30.700000,490.800000,23.200000,491.100000,16.400000,488.700000C6.700000,485.300000,4.500000,474.700000,7.500000,465.700000C13.500000,447.600000,31.300000,436.400000,39.400000,419.500000C39.500000,419.100000,38.900000,418.700000,38.700000,419.100000L38.700000,419.100000Z" fill="rgb(35,31,32)" stroke="none" stroke-width="1"/></g></g><g id="eKpykPEs7zc12"><g id="eKpykPEs7zc13"><path id="eKpykPEs7zc14" d="M112.600000,404.700000C128.200000,416.700000,140.700000,431.700000,151.300000,448.300000C155.200000,454.400000,164,465.200000,160.500000,472.700000C156.900000,480.500000,146.200000,480,139.800000,483.800000C139.200000,484.200000,139.400000,485.200000,140.200000,485.200000C146.800000,485,157.600000,480.900000,161.500000,475.300000C166.500000,468.200000,160.400000,459.500000,156.700000,453.300000C150.900000,443.700000,144.200000,434.500000,136.900000,425.900000C130.100000,417.900000,122.400000,409.300000,113,404.100000C112.500000,403.900000,112.200000,404.400000,112.600000,404.700000L112.600000,404.700000Z" fill="rgb(35,31,32)" stroke="none" stroke-width="1"/></g></g><g id="eKpykPEs7zc15"><g id="eKpykPEs7zc16"><path id="eKpykPEs7zc17" d="M38.400000,421.100000C43.500000,418.100000,47.300000,413.400000,52.400000,410.400000C58.700000,406.700000,65.400000,409.900000,72.200000,409.300000C86.600000,408,99.500000,400.600000,114.100000,405.200000C115,405.500000,115.600000,404.100000,114.700000,403.700000C101.300000,397.600000,85,406.600000,71.400000,407.400000C65.400000,407.700000,59.400000,405.400000,53.900000,408.500000C48.100000,411.800000,43.700000,417.100000,38.100000,420.700000C37.800000,420.800000,38.100000,421.300000,38.400000,421.100000L38.400000,421.100000Z" fill="rgb(35,31,32)" stroke="none" stroke-width="1"/></g></g><g id="eKpykPEs7zc18"><g id="eKpykPEs7zc19"><path id="eKpykPEs7zc20" d="M62,444.300000C61.900000,443.800000,61.700000,443.100000,61.200000,443C61.100000,443,61,443,60.800000,443C60.700000,443,60.400000,443.300000,60.600000,443.100000C60.800000,443,60.500000,443.100000,60.400000,443.200000C60.200000,443.300000,60,443.500000,60,443.800000C59.700000,444.700000,60,445.900000,60.100000,446.800000C60.200000,447.700000,61.200000,448,61.800000,447.300000C62.500000,446.300000,64,443.700000,61.800000,443.500000C61.300000,443.500000,60.800000,444,60.800000,444.500000C60.800000,445.200000,60.800000,445.800000,60.800000,446.500000C60.800000,447.700000,62.800000,447.700000,62.700000,446.500000C62.700000,446.300000,62.700000,446.200000,62.600000,446.100000C62.600000,446,62.500000,445.900000,62.400000,445.800000C62.300000,445.700000,62.400000,446,62.400000,445.700000C62.300000,445.400000,62.200000,445,61.800000,444.900000C61.900000,445.100000,62,445.200000,62.100000,445.400000L62.100000,445.400000C62.100000,444.800000,61.200000,444.800000,61.200000,445.400000L61.200000,445.400000C61.300000,445.200000,61.400000,445.100000,61.500000,444.900000C61.200000,445,61,445.400000,60.900000,445.700000C60.900000,445.900000,60.900000,445.700000,60.900000,445.700000C60.800000,445.800000,60.800000,445.900000,60.700000,446C60.600000,446.100000,60.600000,446.300000,60.600000,446.400000C60.600000,447.600000,62.500000,447.600000,62.500000,446.400000C62.500000,445.700000,62.500000,445.100000,62.500000,444.400000C62.200000,444.700000,61.900000,445,61.500000,445.400000C61.100000,445.400000,60.900000,445,60.800000,444.700000C60.800000,444.800000,60.800000,444.600000,60.800000,444.600000C60.800000,444.700000,60.700000,444.800000,60.700000,444.900000C60.700000,445,60.600000,445.100000,60.700000,445C60.700000,445.100000,60.700000,445.100000,60.600000,445.200000C60.500000,445.300000,60.500000,445.400000,60.400000,445.600000C60.200000,445.900000,60.100000,446.200000,59.900000,446.500000C60.500000,446.600000,61,446.600000,61.600000,446.700000C61.500000,445.900000,61.300000,445.100000,61.300000,444.400000C61.300000,444.300000,61.300000,444.200000,61.300000,444C61.300000,443.900000,61.300000,443.800000,61.200000,443.700000C61.200000,443.600000,61.100000,443.600000,61.100000,443.500000L61.100000,443.500000C61.200000,443.500000,61.200000,443.900000,61.100000,444.100000C61,444.200000,60.800000,444.200000,60.800000,444.200000L60.700000,444.200000C60.700000,444.200000,60.600000,444.200000,60.700000,444.200000C60.700000,444.200000,60.800000,444.200000,60.900000,444.300000C60.900000,444.300000,60.800000,444.300000,60.900000,444.300000C61,444.400000,61,444.400000,61.100000,444.500000C61.200000,444.600000,61.200000,444.700000,61.300000,444.800000C61.700000,444.700000,62.100000,444.600000,62,444.300000L62,444.300000Z" fill="rgb(35,31,32)" stroke="none" stroke-width="1"/></g></g><g id="eKpykPEs7zc21"><g id="eKpykPEs7zc22"><path id="eKpykPEs7zc23" d="M98.900000,437.300000C98.900000,437.200000,98.900000,437.100000,98.900000,437C98.900000,436.600000,98.400000,436.600000,98.300000,437C98.300000,437.200000,98.400000,436.800000,98.300000,437C98.200000,437.200000,98.200000,437.300000,98.100000,437.400000C98,437.900000,98,438.500000,98,439.100000C97.900000,440.300000,97.900000,441.500000,97.900000,442.700000C97.900000,443.100000,98.300000,443.500000,98.700000,443.500000C99,443.500000,99.200000,443.500000,99.500000,443.500000C100,443.500000,100.300000,443.100000,100.300000,442.700000C100.400000,441.600000,100.700000,440.500000,100.700000,439.400000C100.700000,438.600000,99.400000,438.200000,99.100000,439C98.800000,439.700000,98.700000,440.700000,99.100000,441.400000C99.200000,441.600000,99.600000,441.700000,99.800000,441.600000C100.200000,441.300000,100.400000,441,100.500000,440.500000C100.600000,440.300000,100.800000,439.600000,100.600000,439.900000C100.100000,439.800000,99.500000,439.600000,99,439.500000C99,440.600000,98.700000,441.700000,98.700000,442.800000C99,442.500000,99.300000,442.200000,99.500000,442C99.200000,442,99,442,98.700000,442C99,442.300000,99.200000,442.500000,99.500000,442.800000C99.400000,441.600000,99.400000,440.400000,99.400000,439.200000C99.400000,438.700000,99.400000,438.100000,99.300000,437.600000C99.300000,437.400000,99.200000,437.300000,99.100000,437.100000C99,436.800000,99.100000,437.200000,99,437C99,436.600000,98.400000,436.600000,98.400000,437C98.400000,437.100000,98.400000,437.200000,98.400000,437.300000C98.400000,437.700000,98.800000,437.700000,98.900000,437.300000L98.900000,437.300000Z" fill="rgb(35,31,32)" stroke="none" stroke-width="1"/></g></g><g id="eKpykPEs7zc24"><g id="eKpykPEs7zc25"><path id="eKpykPEs7zc26" d="M8.300000,475C9.500000,480.100000,11.700000,484.900000,16.700000,487.200000C21.400000,489.400000,27.400000,489.900000,32.600000,490.600000C33.700000,490.800000,34,489.200000,32.800000,489C28.200000,488.400000,23.600000,488.900000,19.100000,487.600000C12.900000,485.800000,10,480.800000,8.600000,474.800000C8.600000,474.700000,8.200000,474.800000,8.300000,475L8.300000,475Z" fill="rgb(35,31,32)" stroke="none" stroke-width="1"/></g></g><g id="eKpykPEs7zc27"><g id="eKpykPEs7zc28"><path id="eKpykPEs7zc29" d="M117.300000,431.900000C122.800000,440.700000,129.100000,449.100000,133.700000,458.400000C136,463.100000,138.700000,468.500000,138.900000,473.800000C138.900000,475.100000,138.500000,476.200000,139.200000,477.300000C140.300000,478.900000,141.800000,477.700000,141.700000,480.300000C141.700000,480.900000,142.200000,481.200000,142.700000,481.100000C147.300000,480.300000,151.700000,478.900000,156.100000,477.200000C155.900000,476.700000,155.700000,476.100000,155.400000,475.600000C154.900000,475.900000,152.800000,475.900000,151.900000,475.900000C151.500000,475.900000,151.200000,476.500000,151.700000,476.700000C153.700000,477.600000,154.300000,478.300000,156.300000,477.100000C157.100000,476.600000,156.600000,475.100000,155.600000,475.500000C151.300000,477.200000,146.900000,478.600000,142.300000,479.500000C142.600000,479.800000,143,480,143.300000,480.300000C143.300000,479.500000,143.300000,478.700000,143.300000,477.900000C143.300000,477.500000,143,477.200000,142.500000,477.100000C139.400000,476.700000,139.200000,469,138.200000,466.500000C136.600000,462.300000,134.500000,458.300000,132.200000,454.400000C127.600000,446.600000,122.400000,439.200000,117.600000,431.500000C117.500000,431.500000,117.100000,431.700000,117.300000,431.900000L117.300000,431.900000Z" fill="rgb(35,31,32)" stroke="none" stroke-width="1"/></g></g><g id="eKpykPEs7zc30"><g id="eKpykPEs7zc31"><path id="eKpykPEs7zc32" d="M24.300000,443.700000C27.900000,436.500000,33.100000,430.200000,38.800000,424.400000C40.900000,422.200000,52.300000,409.700000,55.400000,413.100000C55.600000,413.300000,55.800000,413,55.800000,412.800000C55.300000,411.600000,54.700000,410.800000,53.100000,411.200000C51.800000,411.500000,49.500000,414,48.500000,414.900000C46.500000,416.600000,44.500000,418.300000,42.600000,420.100000C35.300000,426.900000,28.400000,434.400000,24,443.500000C23.900000,443.700000,24.200000,443.900000,24.300000,443.700000L24.300000,443.700000Z" fill="rgb(35,31,32)" stroke="none" stroke-width="1"/></g></g><g id="eKpykPEs7zc33"><g id="eKpykPEs7zc34"><path id="eKpykPEs7zc35" d="M75.200000,458C76.200000,457.300000,77.800000,457,79,456.700000C80.800000,456.300000,82.600000,456,84.500000,455.800000C84.400000,455.500000,84.300000,455.300000,84.200000,455C82.400000,456.500000,80.800000,457.700000,79.800000,459.900000C79,461.800000,78.900000,463.700000,79.200000,465.700000C79.300000,466.100000,79.800000,466.300000,80.100000,466.100000C82.100000,464.600000,83.600000,462.700000,85.400000,461C85.600000,460.800000,85.300000,460.500000,85.100000,460.600000C83,461.800000,81.400000,463.600000,79.400000,465C79.700000,465.100000,80,465.200000,80.300000,465.400000C79.700000,461.700000,81.100000,457.500000,84.600000,455.800000C85,455.600000,84.800000,455,84.400000,454.900000C81.600000,454.800000,77,455.500000,74.800000,457.500000C74.600000,457.700000,75,458.200000,75.200000,458L75.200000,458Z" fill="rgb(35,31,32)" stroke="none" stroke-width="1"/></g></g><g id="eKpykPEs7zc36"><g id="eKpykPEs7zc37"><path id="eKpykPEs7zc38" d="M85.100000,456.800000C83.600000,459.100000,82.500000,461.500000,80.900000,463.700000C80.600000,464.100000,81.100000,464.600000,81.500000,464.400000C83.500000,463.800000,84.900000,462.500000,86.200000,460.900000C86.400000,460.700000,86.100000,460.400000,85.900000,460.600000C84.400000,461.800000,83.100000,462.700000,81.200000,463.400000C81.400000,463.600000,81.600000,463.900000,81.800000,464.100000C83.200000,461.800000,84,459.200000,85.500000,456.900000C85.700000,456.800000,85.300000,456.600000,85.100000,456.800000L85.100000,456.800000Z" fill="rgb(35,31,32)" stroke="none" stroke-width="1"/></g></g><g id="eKpykPEs7zc39"><g id="eKpykPEs7zc40"><path id="eKpykPEs7zc41" d="M89.800000,456C87.700000,459.200000,85.700000,462.600000,84,466C84.300000,466,84.700000,466.100000,85,466.100000C83.200000,461.600000,79.100000,458.600000,74.400000,457.900000C74,457.800000,73.700000,458.100000,73.800000,458.500000C75.700000,466.300000,83.400000,460.600000,85.800000,456.300000C85.400000,456.100000,85,456,84.600000,455.800000C84.300000,457.200000,83.300000,458.300000,83,459.700000C82.900000,460.200000,83.500000,460.800000,84,460.500000C86.400000,458.900000,88.300000,456.900000,90.400000,454.900000C90.900000,454.400000,90.200000,453.400000,89.600000,453.900000C86.100000,456.400000,83.100000,459.500000,81.400000,463.400000C81,464.200000,82,465.200000,82.700000,464.400000C85.700000,461.300000,87.500000,457.800000,89.100000,453.800000C89.300000,453.300000,88.700000,452.800000,88.200000,452.900000C85.200000,453.600000,79,455.200000,78.500000,458.900000C78.400000,459.400000,79,459.900000,79.400000,459.400000C81.900000,456.600000,85,455.100000,88.600000,454.200000C88.300000,453.900000,88.100000,453.500000,87.800000,453.200000C86.200000,456.900000,84.400000,460.200000,81.500000,463.200000C81.900000,463.500000,82.400000,463.900000,82.800000,464.200000C84.500000,460.300000,87.200000,457.500000,90.400000,454.800000C90.100000,454.500000,89.800000,454.200000,89.500000,453.900000C87.600000,455.900000,85.600000,457.700000,83.300000,459.300000C83.600000,459.600000,84,459.800000,84.300000,460.100000C84.600000,458.700000,85.500000,457.600000,85.800000,456.200000C86,455.500000,85,455.100000,84.600000,455.700000C83.200000,457.900000,78.300000,463.900000,75.600000,460C73.700000,457.200000,79.500000,459.900000,80.400000,460.600000C82.200000,462.100000,83.200000,464.200000,83.900000,466.300000C84,466.700000,84.700000,466.900000,84.900000,466.400000C86.700000,463,88.800000,459.600000,90.100000,456C90.300000,456,89.900000,455.800000,89.800000,456L89.800000,456Z" fill="rgb(35,31,32)" stroke="none" stroke-width="1"/></g></g><g id="eKpykPEs7zc42"><g id="eKpykPEs7zc43"><path id="eKpykPEs7zc44" d="M53.300000,474.600000C54.300000,481.500000,61.300000,484,67.500000,484.800000C75.400000,485.800000,82.700000,483.900000,88.500000,478.300000C88.900000,477.900000,88.300000,477.200000,87.800000,477.600000C82.500000,482.500000,75.900000,484.600000,68.700000,484C62.500000,483.500000,55.300000,481.300000,53.800000,474.400000C53.700000,474.200000,53.300000,474.300000,53.300000,474.600000L53.300000,474.600000Z" fill="rgb(35,31,32)" stroke="none" stroke-width="1"/></g></g><g id="eKpykPEs7zc45"><g id="eKpykPEs7zc46"><path id="eKpykPEs7zc47" d="M88,478.500000C95.900000,484.300000,120.200000,479.700000,116.200000,466.400000C116.100000,466,115.400000,466,115.400000,466.500000C116,479.400000,97.500000,482.800000,88.200000,478C88,477.900000,87.700000,478.300000,88,478.500000L88,478.500000Z" fill="rgb(35,31,32)" stroke="none" stroke-width="1"/></g></g><g id="eKpykPEs7zc48"><g id="eKpykPEs7zc49"><path id="eKpykPEs7zc50" d="M87.300000,487.100000C89.500000,487.600000,92.300000,486.900000,94,485.300000C94.200000,485.100000,94,484.700000,93.700000,484.800000C92.600000,485.100000,91.800000,485.700000,90.700000,486.100000C89.600000,486.500000,88.500000,486.600000,87.400000,486.500000C87.100000,486.500000,87,487.100000,87.300000,487.100000L87.300000,487.100000Z" fill="rgb(35,31,32)" stroke="none" stroke-width="1"/></g></g><g id="eKpykPEs7zc51"><g id="eKpykPEs7zc52"><path id="eKpykPEs7zc53" d="M46.700000,498.400000C41.400000,502.900000,32.800000,510.200000,35,518.200000C36.500000,523.900000,43.800000,523.900000,45.900000,518.600000C46.100000,518.100000,45.500000,517.900000,45.100000,518.200000C43,519.900000,40.300000,522.600000,37.700000,520C35.300000,517.700000,35.800000,513.200000,37,510.500000C39,505.800000,43.300000,502.100000,47.100000,498.800000C47.400000,498.600000,47,498.200000,46.700000,498.400000L46.700000,498.400000Z" fill="rgb(35,31,32)" stroke="none" stroke-width="1"/></g></g><g id="eKpykPEs7zc54"><g id="eKpykPEs7zc55"><path id="eKpykPEs7zc56" d="M47.100000,517.400000C44.800000,519.900000,46.600000,522.900000,49.600000,524C53.200000,525.200000,57,522,58.700000,519.100000C58.400000,519,58,518.900000,57.700000,518.800000C57.700000,523.300000,59.600000,526,64,523.200000C70.800000,518.800000,73.600000,510.900000,77.100000,504C77.400000,503.400000,76.500000,502.900000,76.200000,503.500000C73.800000,508.500000,71.400000,513.900000,67.600000,518C64.900000,521,58.700000,526.600000,58.800000,518.700000C58.800000,518.100000,58.100000,518,57.800000,518.400000C56.700000,520.100000,55.100000,521.700000,53.100000,522.300000C52,522.600000,43.600000,522.800000,47.800000,518.100000C48.300000,517.600000,47.500000,516.900000,47.100000,517.400000L47.100000,517.400000Z" fill="rgb(35,31,32)" stroke="none" stroke-width="1"/></g></g><g id="eKpykPEs7zc57"><g id="eKpykPEs7zc58"><path id="eKpykPEs7zc59" d="M135.600000,487.300000C137.500000,490.100000,140.400000,492.200000,142.200000,495C143.600000,497.100000,144.200000,499.500000,142.700000,501.800000C140.600000,504.900000,137.300000,503.700000,134.900000,501.700000C134.400000,501.200000,133.600000,502,134.100000,502.500000C137.700000,506,143.400000,505.700000,144.600000,500.100000C145.700000,494.500000,139.200000,490.600000,136.400000,486.900000C136,486.400000,135.300000,486.800000,135.600000,487.300000L135.600000,487.300000Z" fill="rgb(35,31,32)" stroke="none" stroke-width="1"/></g></g><g id="eKpykPEs7zc60"><g id="eKpykPEs7zc61"><path id="eKpykPEs7zc62" d="M134.400000,503.800000C134.500000,505.900000,134.600000,507.800000,132.100000,508.200000C131.100000,508.400000,129.800000,508.300000,128.800000,508C127.400000,507.500000,126.900000,506.400000,126.400000,505.100000C126.200000,504.500000,125.100000,504.500000,125.200000,505.300000C125.400000,508.900000,129.100000,510,132.200000,509.500000C135.300000,509,135.700000,506.500000,135.500000,503.800000C135.600000,503,134.400000,503,134.400000,503.800000L134.400000,503.800000Z" fill="rgb(35,31,32)" stroke="none" stroke-width="1"/></g></g><g id="eKpykPEs7zc63"><g id="eKpykPEs7zc64"><path id="eKpykPEs7zc65" d="M125.700000,506.200000C125.100000,511.700000,117.200000,513.500000,113.200000,510.500000C109.400000,507.600000,108.800000,501.800000,109.200000,497.400000C109.300000,496.500000,107.900000,496.500000,107.800000,497.400000C107.300000,503,108.600000,511.200000,114.900000,513.100000C120,514.600000,126.100000,511.800000,126.700000,506.200000C126.800000,505.600000,125.700000,505.600000,125.700000,506.200000L125.700000,506.200000Z" fill="rgb(35,31,32)" stroke="none" stroke-width="1"/></g></g><g id="eKpykPEs7zc66"><g id="eKpykPEs7zc67"><path id="eKpykPEs7zc68" d="M75.800000,407.100000C78.300000,405.200000,80.800000,403.100000,83.100000,401.100000C83.200000,401,83.100000,400.800000,82.900000,400.900000C80.200000,402.400000,77.500000,404.500000,75.400000,406.700000C75.200000,406.900000,75.500000,407.300000,75.800000,407.100000L75.800000,407.100000Z" fill="rgb(35,31,32)" stroke="none" stroke-width="1"/></g></g><g id="eKpykPEs7zc69"><g id="eKpykPEs7zc70"><path id="eKpykPEs7zc71" d="M160.700000,445.700000C158.400000,448.900000,165.300000,457.100000,166.800000,459.400000C169.500000,463.400000,176.400000,475.600000,166.900000,475.200000C166.500000,475.200000,166.400000,475.700000,166.700000,475.900000C173.200000,479.400000,173.300000,470.500000,172.200000,466.600000C171.300000,463.400000,169.500000,461,167.600000,458.300000C165.800000,455.700000,160.400000,449.400000,161.300000,446C161.500000,445.500000,160.900000,445.400000,160.700000,445.700000L160.700000,445.700000Z" fill="rgb(35,31,32)" stroke="none" stroke-width="1"/></g></g><g id="eKpykPEs7zc72"><g id="eKpykPEs7zc73"><path id="eKpykPEs7zc74" d="M166.700000,474.700000C166.100000,476.400000,165.500000,478.600000,163.600000,479.100000C162.200000,479.500000,160.400000,479,158.900000,478.900000C158.700000,478.900000,158.400000,479,158.300000,479.200000C157,482,154.700000,483,151.800000,481.900000C151.600000,481.800000,151.300000,482.100000,151.400000,482.300000C152,483.700000,153.400000,484.100000,154.900000,483.800000C157.200000,483.300000,158.200000,480.700000,160.100000,480.300000C161.800000,480,163.400000,480.800000,165.100000,479.800000C166.700000,478.800000,167.300000,476.700000,167.800000,475C167.900000,474.300000,166.900000,474,166.700000,474.700000L166.700000,474.700000Z" fill="rgb(35,31,32)" stroke="none" stroke-width="1"/></g></g><g id="eKpykPEs7zc75_ts" transform="translate(100.700000,340.720651) scale(1,1)"><path id="eKpykPEs7zc75" d="M365.700000,62.500000L364,63.500000L364.100000,61.500000C364.100000,61.100000,364.100000,61.300000,364.100000,61.200000L363.800000,60.500000L363,59C362.600000,58,362,57.100000,361.500000,56.100000C360.500000,54.200000,359.400000,52.300000,358.200000,50.500000C355.900000,46.800000,353.300000,43.400000,350.400000,40.100000C344.700000,33.600000,338,28,330.700000,23.500000C316,14.500000,299,9.800000,281.700000,9.900000C264.500000,9.800000,247.600000,14.300000,232.700000,22.800000C217.900000,31.400000,205.700000,43.800000,197.400000,58.700000L195.500000,62.100000L192.200000,60C183.400000,54.300000,173.600000,50.400000,163.400000,48.400000C153.300000,46.400000,142.800000,46.800000,132.900000,49.600000C128,51,123.400000,53.100000,119.100000,55.800000C115,58.500000,111.300000,61.900000,108.400000,65.800000C105.400000,70,102.700000,74.400000,100.600000,79.100000C99.500000,81.500000,98.400000,83.900000,97.400000,86.400000C96.400000,88.800000,95.600000,91.200000,94.900000,93.700000L93,100.400000L87.200000,96C81.100000,91.400000,72.800000,89.800000,64.800000,90.900000C56.800000,92,49.400000,95.800000,43.900000,101.600000C38.500000,107.400000,35.600000,115.200000,35.800000,123.100000C35.900000,131.100000,38.600000,139.300000,42.600000,146.900000L44.600000,150.700000L41.200000,153.400000C28.800000,163.500000,20.700000,177.800000,18.600000,193.600000C16.400000,209.200000,20.300000,225.500000,30.300000,237.500000C35.300000,243.500000,41.400000,248.500000,48.400000,252.100000C55.500000,255.800000,63.100000,258.300000,71,259.800000C86.900000,262.800000,103.700000,262.100000,120.100000,259.600000L126,258.700000L126.700000,264.600000C127.100000,269,127.100000,273.500000,126.500000,277.900000C126,282.100000,125.200000,286.300000,124.100000,290.300000C121.900000,298.400000,118.900000,306.200000,115.100000,313.600000C110.500000,322.500000,104.900000,330.900000,98.500000,338.500000C102.700000,337.300000,106.900000,336,111,334.500000C121,330.900000,130.700000,326.300000,139.800000,320.700000C148.800000,315.200000,157.100000,308.600000,164.600000,301.100000C168.200000,297.400000,171.600000,293.300000,174.600000,289.100000C177.500000,285,179.900000,280.500000,181.700000,275.800000L184.900000,266.600000L190.900000,274.200000C197.500000,282.600000,206.400000,288.900000,216.500000,292.500000C226.700000,296,237.700000,296.900000,248.400000,295C259.100000,293.200000,269.300000,289,278.100000,282.500000C286.800000,276.100000,293.600000,267.300000,297.700000,257.300000L300.300000,250.900000L305,255.900000C312.100000,263.400000,322.800000,267.200000,333.700000,267.900000C344.800000,268.500000,355.800000,266.700000,366.100000,262.500000C376.500000,258.400000,385.700000,252.100000,393.300000,243.800000C400.700000,235.600000,405.700000,225.400000,407.500000,214.500000L407.900000,212.300000L410,211.800000C420.500000,209.300000,430.100000,204,437.800000,196.500000C445.600000,189,451.100000,179.400000,453.600000,168.900000C456.100000,158.300000,454.800000,147.200000,449.900000,137.500000C445,127.800000,436.500000,120.100000,426.800000,114.800000L425.800000,114.300000L426.100000,113.300000C428.900000,105,429.600000,96.200000,427.900000,87.600000C426.300000,78.900000,421.900000,70.900000,415.400000,64.900000C408.500000,59.300000,399.900000,56.200000,391,55.900000C381.900000,55.700000,373.300000,58,365.700000,62.500000Z" transform="translate(-100.700000,-340.720651)" opacity="0" fill="rgb(217,232,230)" stroke="rgb(57,62,63)" stroke-width="3"/></g><path id="eKpykPEs7zc76" d="M137.900000,502.500000C137.700000,502.500000,137.600000,502.400000,137.400000,502.400000C137.600000,502.400000,137.700000,502.500000,137.900000,502.500000Z" fill="none" stroke="none" stroke-width="1"/><path id="eKpykPEs7zc77" d="M92.900000,395.100000C97.700000,393.600000,100.500000,393.300000,102.100000,392.900000C99.900000,393.100000,97.700000,393.300000,95.600000,394C94.700000,394.300000,93.800000,394.700000,92.900000,395.100000Z" fill="none" stroke="none" stroke-width="1"/><path id="eKpykPEs7zc78" d="M145.800000,411.900000C150.900000,417.700000,156.300000,424.700000,159.200000,432.300000C157.500000,426.800000,155.100000,421.300000,150.300000,415.700000C146,410.700000,141.900000,405.400000,136.800000,401.700000C136.500000,401.500000,136.200000,401.300000,135.900000,401.100000C139.600000,404.300000,142.500000,408.200000,145.800000,411.900000Z" fill="rgb(247,191,63)" stroke="none" stroke-width="1"/><path id="eKpykPEs7zc79" d="M114.900000,392C116.700000,392.500000,118.600000,392.900000,120.400000,393.500000C118.500000,392.800000,116.600000,392.300000,114.900000,392Z" fill="rgb(247,191,63)" stroke="none" stroke-width="1"/><path id="eKpykPEs7zc80" d="M114.300000,391.900000C114.300000,391.900000,114.200000,391.900000,114.300000,391.900000C114.200000,391.900000,114.200000,391.900000,114.300000,391.900000C114.200000,391.900000,114.300000,391.900000,114.300000,391.900000Z" fill="rgb(247,191,63)" stroke="none" stroke-width="1"/><path id="eKpykPEs7zc81" d="M137.900000,502.500000C139.100000,502.800000,140.600000,503,141.700000,503.200000C143.400000,497.100000,135.700000,494,135.900000,488.900000C134.600000,491.400000,139.600000,502.200000,137.900000,502.500000Z" fill="rgb(247,191,63)" stroke="none" stroke-width="1"/><path id="eKpykPEs7zc82" d="M137.400000,502.400000C137,502.200000,136.500000,501.800000,135.800000,501.100000C135.900000,501.400000,136,501.700000,136.100000,501.900000C136.100000,501.900000,136.100000,501.800000,136.100000,501.800000C136.400000,502,136.900000,502.200000,137.400000,502.400000Z" fill="rgb(247,191,63)" stroke="none" stroke-width="1"/><path id="eKpykPEs7zc83" d="M137.400000,502.400000C136.900000,502.300000,136.400000,502.100000,136.100000,501.800000C136.100000,501.800000,136.100000,501.900000,136.100000,501.900000C137.300000,504.300000,140.200000,504,141.300000,504.200000C141.400000,503.900000,141.600000,503.500000,141.600000,503.200000C140.500000,502.900000,139,502.800000,137.800000,502.500000C137.700000,502.500000,137.600000,502.400000,137.400000,502.400000Z" fill="rgb(247,191,63)" stroke="none" stroke-width="1"/><path id="eKpykPEs7zc84" d="M141.600000,503.200000C142,503.300000,142.300000,503.400000,142.600000,503.500000C146.200000,497.400000,140.500000,492.400000,136.200000,488.500000C136.100000,488.600000,136,488.700000,135.900000,488.900000C135.700000,494,143.400000,497.100000,141.600000,503.200000Z" fill="rgb(247,191,63)" stroke="none" stroke-width="1"/><path id="eKpykPEs7zc85" d="M102.900000,391.800000C101.500000,391.800000,100.200000,391.900000,98.800000,392.200000C100.100000,392.100000,101.500000,391.900000,102.900000,391.800000C102.900000,391.800000,102.900000,391.800000,102.900000,391.800000Z" fill="rgb(35,31,32)" stroke="none" stroke-width="1"/><path id="eKpykPEs7zc86" d="M92.900000,395.100000C93.800000,394.700000,94.700000,394.300000,95.600000,394C97.700000,393.300000,99.900000,393.100000,102.100000,392.900000C102.600000,392.800000,103,392.600000,103.300000,392.400000C103.100000,392.400000,102.900000,392.200000,102.900000,392C102.900000,392,102.900000,392,102.900000,391.900000C101.500000,392,100.100000,392.100000,98.800000,392.300000C94.900000,393.200000,91.200000,395.200000,88,397.300000C88,397.300000,88,397.400000,88,397.400000C89.200000,396.700000,90.500000,396,91.700000,395.600000C92.100000,395.400000,92.500000,395.200000,92.900000,395.100000Z" fill="rgb(35,31,32)" stroke="none" stroke-width="1"/><path id="eKpykPEs7zc87" d="M103.300000,392.300000C103,392.500000,102.600000,392.700000,102.100000,392.800000C102.600000,392.700000,103.100000,392.700000,103.600000,392.600000C104.100000,392.500000,104.200000,392,103.800000,391.800000C103.800000,392.200000,103.600000,392.400000,103.300000,392.300000Z" fill="rgb(35,31,32)" stroke="none" stroke-width="1"/><path id="eKpykPEs7zc88" d="M88.300000,397.700000C89.800000,396.700000,91.300000,395.900000,92.900000,395.100000C92.500000,395.200000,92.100000,395.400000,91.700000,395.500000C90.400000,395.900000,89.200000,396.500000,88,397.300000C87.900000,397.600000,88,397.900000,88.300000,397.700000Z" fill="rgb(35,31,32)" stroke="none" stroke-width="1"/><path id="eKpykPEs7zc89" d="M103.800000,391.800000C103.700000,391.800000,103.700000,391.800000,103.600000,391.800000C103.700000,391.800000,103.700000,391.800000,103.800000,391.800000C103.800000,391.800000,103.800000,391.800000,103.800000,391.800000Z" fill="rgb(35,31,32)" stroke="none" stroke-width="1"/><path id="eKpykPEs7zc90" d="M114,391.900000C114.100000,391.900000,114.200000,391.900000,114.200000,391.900000C114.200000,391.900000,114.200000,391.800000,114.200000,391.800000C114,391.800000,113.900000,391.800000,113.700000,391.800000C113.800000,391.900000,113.900000,391.900000,114,391.900000Z" fill="rgb(35,31,32)" stroke="none" stroke-width="1"/><path id="eKpykPEs7zc91" d="M103.800000,391.800000C103.800000,391.800000,103.800000,391.800000,103.800000,391.800000C103.800000,391.800000,103.800000,391.800000,103.800000,391.800000C103.800000,391.800000,103.800000,391.800000,103.800000,391.800000Z" fill="rgb(35,31,32)" stroke="none" stroke-width="1"/><path id="eKpykPEs7zc92" d="M103.700000,391.900000C103.800000,391.900000,103.800000,391.900000,103.700000,391.900000L103.700000,391.900000C103.800000,391.900000,103.800000,391.800000,103.700000,391.900000C103.800000,391.800000,103.800000,391.800000,103.700000,391.900000C103.800000,391.800000,103.800000,391.800000,103.700000,391.900000Z" fill="rgb(35,31,32)" stroke="none" stroke-width="1"/><path id="eKpykPEs7zc93" d="M113.800000,391.800000C113.600000,391.800000,113.300000,391.800000,113.100000,391.800000C113.100000,392.200000,113.100000,392.700000,113.100000,393.100000C113.100000,393.800000,114.200000,393.800000,114.300000,393.200000C114.200000,393.200000,114.100000,393.200000,114,393.100000C113.400000,393,113.600000,392.200000,114.200000,391.900000C114.200000,391.900000,114.200000,391.900000,114.200000,391.900000C114.100000,391.900000,114,391.900000,114,391.900000C113.900000,391.900000,113.800000,391.900000,113.800000,391.800000Z" fill="rgb(35,31,32)" stroke="none" stroke-width="1"/><g id="eKpykPEs7zc94_tr" transform="translate(102.257965,397.763672) rotate(31.729473)"><g id="eKpykPEs7zc94" transform="translate(-102.257965,-397.763672)"><path id="eKpykPEs7zc95" d="M92.500000,367.200000C92.500000,367.200000,92.500000,367.200000,92.500000,367.200000C92.500000,367.200000,92.500000,367.100000,92.500000,367.200000Z" fill="none" stroke="none" stroke-width="1"/><path id="eKpykPEs7zc96" d="M103.900000,387.100000C103.900000,388.700000,103.800000,390.200000,103.800000,391.700000C104.200000,391,104.100000,389.600000,103.900000,387.100000Z" fill="none" stroke="none" stroke-width="1"/><path id="eKpykPEs7zc97" d="M103.500000,381.700000C103.500000,381.400000,103.400000,381.200000,103.300000,380.900000C103.400000,381.200000,103.400000,381.400000,103.500000,381.700000Z" fill="none" stroke="none" stroke-width="1"/><path id="eKpykPEs7zc98" d="M97.100000,368.500000C96.200000,368.200000,95.300000,367.800000,94.400000,367.700000C97.800000,368.700000,100.600000,369.800000,102.900000,371C101.100000,369.900000,99.200000,369.100000,97.100000,368.500000Z" fill="none" stroke="none" stroke-width="1"/><path id="eKpykPEs7zc99" d="M107.500000,374C110.700000,377.700000,112.600000,382.100000,113.600000,386.700000C113.500000,383.100000,112.600000,378.300000,107.500000,374Z" fill="rgb(247,191,63)" stroke="none" stroke-width="1"/><path id="eKpykPEs7zc100" d="M105.200000,372.700000C104.500000,372,103.700000,371.500000,102.900000,371C100.600000,369.800000,97.800000,368.700000,94.400000,367.700000C94.300000,367.700000,94.100000,367.600000,94,367.600000C93.100000,367.500000,92.700000,367.300000,92.500000,367.200000C92.500000,367.200000,92.500000,367.200000,92.400000,367.200000C92.400000,367.300000,92.600000,367.500000,92.800000,368C94.300000,371.700000,99.400000,373.900000,101.600000,377.300000C102.300000,378.400000,102.800000,379.600000,103.200000,380.900000C103.300000,381.200000,103.300000,381.400000,103.400000,381.700000C103.800000,383.400000,103.900000,385.300000,103.800000,387.100000C103.800000,389.400000,103.500000,390.600000,103.700000,391.700000C103.700000,391.700000,103.700000,391.700000,103.700000,391.700000C102.800000,393.900000,104.900000,397.700000,108.200000,397.700000C111,397.700000,113.400000,395.300000,112.900000,391.700000C112.700000,384.800000,110.500000,377.600000,105.200000,372.700000Z" fill="rgb(247,191,63)" stroke="none" stroke-width="1"/><path id="eKpykPEs7zc101" d="M113.800000,391.800000C114,391.800000,114.100000,391.800000,114.300000,391.800000C114.200000,390.100000,114,388.400000,113.600000,386.700000C113.600000,389.400000,113.200000,391.400000,113.800000,391.800000Z" fill="rgb(35,31,32)" stroke="none" stroke-width="1"/><path id="eKpykPEs7zc102" d="M103.600000,391.800000C103.700000,391.800000,103.700000,391.800000,103.800000,391.800000C103.800000,391.800000,103.800000,391.800000,103.800000,391.800000C103.800000,390.300000,103.900000,388.800000,103.900000,387.200000C103.800000,386,103.700000,384.500000,103.600000,382.700000C103.600000,382.400000,103.500000,382.100000,103.500000,381.800000C103.400000,381.500000,103.400000,381.300000,103.300000,381C101.600000,375.300000,93.600000,372.100000,91.400000,367C91.800000,367.100000,92.100000,367.200000,92.500000,367.300000C92.500000,367.300000,92.500000,367.300000,92.600000,367.300000C93.200000,367.500000,93.900000,367.600000,94.500000,367.800000C95.400000,368,96.300000,368.400000,97.200000,368.600000C99.300000,369.200000,101.200000,370,103,371.100000C104.800000,372,106.300000,373.100000,107.500000,374.100000C107.400000,374,107.400000,374,107.300000,373.900000C103,369,97.300000,368.200000,91.500000,365.900000C91,365.700000,90.700000,366.300000,90.900000,366.700000C92.500000,370,95.400000,372,97.900000,374.600000C103.100000,379.800000,102.300000,385.200000,102.900000,391.900000C103.100000,391.800000,103.400000,391.800000,103.600000,391.800000C103.600000,391.800000,103.600000,391.800000,103.600000,391.800000Z" fill="rgb(35,31,32)" stroke="none" stroke-width="1"/><path id="eKpykPEs7zc103" d="M105.200000,372.700000C110.500000,377.600000,112.700000,384.800000,113.100000,391.800000C113.300000,391.800000,113.600000,391.800000,113.800000,391.800000C113.200000,391.400000,113.600000,389.400000,113.600000,386.700000C112.600000,382,110.800000,377.700000,107.500000,374C106.300000,373,104.800000,371.900000,103,371C103.700000,371.500000,104.500000,372,105.200000,372.700000Z" fill="rgb(35,31,32)" stroke="none" stroke-width="1"/><path id="eKpykPEs7zc104" d="M92.900000,368C92.700000,367.400000,92.500000,367.200000,92.500000,367.200000C92.100000,367.100000,91.800000,367,91.400000,366.900000C93.600000,372,101.600000,375.200000,103.300000,380.900000C103,379.600000,102.500000,378.400000,101.700000,377.300000C99.500000,373.900000,94.400000,371.700000,92.900000,368Z" fill="rgb(35,31,32)" stroke="none" stroke-width="1"/><path id="eKpykPEs7zc105" d="M94.400000,367.700000C93.800000,367.500000,93.200000,367.400000,92.500000,367.200000C92.600000,367.300000,93.100000,367.500000,94,367.600000C94.100000,367.600000,94.300000,367.600000,94.400000,367.700000Z" fill="rgb(35,31,32)" stroke="none" stroke-width="1"/><path id="eKpykPEs7zc106" d="M103.600000,382.600000C103.700000,384.400000,103.800000,385.900000,103.900000,387.100000C103.900000,385.300000,103.800000,383.400000,103.500000,381.700000C103.500000,382,103.600000,382.300000,103.600000,382.600000Z" fill="rgb(35,31,32)" stroke="none" stroke-width="1"/></g></g><path id="eKpykPEs7zc107" d="M103.600000,391.800000C103.600000,391.800000,103.600000,391.800000,103.600000,391.800000C103.400000,391.800000,103.100000,391.800000,102.900000,391.800000C102.900000,391.800000,102.900000,391.800000,102.900000,391.900000C103.100000,391.800000,103.400000,391.800000,103.600000,391.800000Z" fill="rgb(35,31,32)" stroke="none" stroke-width="1"/><path id="eKpykPEs7zc108" d="M103.700000,391.900000C103.700000,391.900000,103.600000,391.800000,103.600000,391.800000C103.400000,391.800000,103.100000,391.800000,102.900000,391.800000C102.900000,391.800000,102.900000,391.800000,102.900000,391.900000C102.900000,392.200000,103.100000,392.300000,103.300000,392.300000C103.500000,392.200000,103.600000,392.100000,103.700000,391.900000Z" fill="rgb(35,31,32)" stroke="none" stroke-width="1"/><path id="eKpykPEs7zc109" d="M103.300000,392.300000C103.500000,392.300000,103.800000,392.200000,103.800000,391.900000C103.800000,391.900000,103.800000,391.900000,103.700000,391.900000C103.600000,392.100000,103.500000,392.200000,103.300000,392.300000Z" fill="rgb(35,31,32)" stroke="none" stroke-width="1"/><path id="eKpykPEs7zc110" d="M114.400000,391.900000C114.400000,391.900000,114.300000,391.900000,114.300000,391.900000C114.500000,391.900000,114.700000,392,115,392C114.800000,392,114.600000,391.900000,114.400000,391.900000Z" fill="rgb(35,31,32)" stroke="none" stroke-width="1"/><path id="eKpykPEs7zc111" d="M159.200000,432.300000C159.900000,434.500000,160.500000,436.700000,161.100000,439C160.700000,436.700000,160.100000,434.500000,159.200000,432.300000Z" fill="rgb(35,31,32)" stroke="none" stroke-width="1"/><path id="eKpykPEs7zc112" d="M132.700000,398.600000C128.900000,396.200000,124.700000,394.700000,120.500000,393.500000C125.900000,395.400000,132,398.400000,135.900000,401.100000C134.900000,400.200000,133.800000,399.400000,132.700000,398.600000Z" fill="rgb(35,31,32)" stroke="none" stroke-width="1"/><path id="eKpykPEs7zc113" d="M114.300000,393.100000C114.300000,393.100000,114.300000,393.100000,114.300000,393.100000C120.200000,394.600000,126.100000,396.100000,131.300000,399.300000C136.700000,402.600000,140.200000,407.700000,144.200000,412.400000C148.400000,417.300000,152.300000,422,155.200000,427.800000C158.100000,433.800000,159,439.700000,160.200000,446.200000C160.300000,446.900000,161.300000,446.700000,161.400000,446C161.600000,443.600000,161.500000,441.300000,161.100000,439C160.500000,436.700000,159.900000,434.500000,159.200000,432.300000C156.200000,424.700000,150.800000,417.600000,145.800000,411.900000C142.500000,408.200000,139.600000,404.300000,135.900000,401.100000C132,398.400000,125.900000,395.400000,120.500000,393.500000C118.700000,393,116.800000,392.500000,115,392C114.800000,392,114.600000,391.900000,114.300000,391.900000C114.300000,391.900000,114.300000,391.900000,114.300000,391.900000C114.300000,392.300000,114.300000,392.700000,114.300000,393.100000Z" fill="rgb(35,31,32)" stroke="none" stroke-width="1"/><path id="eKpykPEs7zc114" d="M114.200000,391.900000C113.500000,392.100000,113.400000,393,114,393.100000C114.100000,393.100000,114.200000,393.100000,114.300000,393.200000C114.300000,393.200000,114.300000,393.200000,114.300000,393.100000C114.300000,392.700000,114.300000,392.300000,114.200000,391.900000Z" fill="rgb(35,31,32)" stroke="none" stroke-width="1"/></svg>