<svg id="eJwsNlYiLBH1" xmlns="http://www.w3.org/2000/svg" xmlns:xlink="http://www.w3.org/1999/xlink" viewBox="0 0 473 458.800000" shape-rendering="geometricPrecision" text-rendering="geometricPrecision"><style><![CDATA[#eJwsNlYiLBH3_ts {animation: eJwsNlYiLBH3_ts__ts 2000ms linear 1 normal forwards}@keyframes eJwsNlYiLBH3_ts__ts { 0% {transform: translate(112.207489px,239.800000px) scale(0,0)} 50% {transform: translate(112.207489px,239.800000px) scale(0,0);animation-timing-function: cubic-bezier(0.165000,0.840000,0.440000,1)} 100% {transform: translate(112.207489px,239.800000px) scale(1,1)}} #eJwsNlYiLBH3 {animation: eJwsNlYiLBH3_c_o 2000ms linear 1 normal forwards}@keyframes eJwsNlYiLBH3_c_o { 0% {opacity: 0} 49.500000% {opacity: 0} 50% {opacity: 1} 100% {opacity: 1}} #eJwsNlYiLBH88_tr {animation: eJwsNlYiLBH88_tr__tr 2000ms linear 1 normal forwards}@keyframes eJwsNlYiLBH88_tr__tr { 0% {transform: translate(74.100000px,299.702087px) rotate(0deg)} 25% {transform: translate(74.100000px,299.702087px) rotate(-46.895429deg)} 50% {transform: translate(74.100000px,299.702087px) rotate(2.846940deg)} 100% {transform: translate(74.100000px,299.702087px) rotate(2.846940deg)}}]]></style><path id="eJwsNlYiLBH2" d="M122,414.500000C121,409.500000,119,404.500000,119.500000,399.500000C120,393.600000,122.600000,389.200000,120,383.500000C118.100000,379.300000,114.300000,376.200000,112.600000,371.900000C110,365.300000,107.700000,358.200000,104.400000,351.500000C100.700000,344,101.400000,336.300000,98.600000,328.500000C96.300000,321.900000,92.100000,316.800000,89.100000,310.500000C86.300000,304.500000,85.800000,297.300000,78.600000,294.900000C78.600000,294.700000,78.600000,294.600000,78.600000,294.400000C77.300000,294.400000,75.700000,294.600000,73.800000,295C72,297.600000,69.200000,299.800000,66.800000,302.100000C59.500000,309,52.100000,316.300000,48.500000,326C45.900000,333.100000,43.800000,341.100000,43.500000,348.500000C43.200000,356.400000,46.700000,364,45.400000,371.700000C44.200000,378.900000,42.400000,385.600000,42.400000,392.900000C42.400000,400.700000,40.300000,407.500000,39.500000,415C38.800000,421.500000,34.700000,434.700000,45.900000,431.300000C52.800000,429.100000,52.600000,419.700000,55.800000,414.500000C54.900000,414.100000,54.600000,413.600000,53.500000,413.400000C57.900000,413.500000,63.200000,411.100000,66.400000,408.100000C65,413.800000,59,425.800000,61.900000,432C65.600000,440,76.800000,436.400000,81.400000,432C83.500000,435.400000,83.600000,446,88.800000,445.900000C92.100000,440.800000,93.200000,438.100000,94.500000,432.100000C98,430.500000,100.500000,434.400000,104,434.400000C107.600000,434.300000,108.500000,431.300000,111.700000,431.900000C114.300000,432.400000,113.200000,436.400000,117.600000,434.100000C120.600000,432.500000,121.700000,426.500000,126,430C128.500000,427.600000,122.700000,418.100000,122,414.500000Z" fill="rgb(237,236,237)" stroke="none" stroke-width="1"/><g id="eJwsNlYiLBH3_ts" transform="translate(112.207489,239.800000) scale(0,0)"><path id="eJwsNlYiLBH3" d="M375.100000,41.300000L373.400000,42L373.500000,40.500000C373.500000,40.200000,373.500000,40.300000,373.500000,40.300000L373.200000,39.800000L372.500000,38.700000C372.100000,38,371.500000,37.300000,371,36.600000C370,35.200000,368.900000,33.900000,367.700000,32.500000C365.300000,29.800000,362.700000,27.300000,359.900000,25C353.900000,20.100000,347.300000,16.100000,340.200000,13C325.500000,6.500000,308.200000,3.200000,291.100000,3.200000C274.300000,3.100000,257.700000,6.200000,242.100000,12.500000C227.300000,18.600000,215.100000,27.700000,206.800000,38.400000L204.900000,40.800000L201.600000,39.300000C192.500000,35.100000,182.700000,32.300000,172.800000,30.900000C162.700000,29.400000,152.300000,29.700000,142.300000,31.700000C137.500000,32.700000,132.900000,34.200000,128.500000,36.200000C124.600000,38,120.900000,40.400000,117.800000,43.400000C114.800000,46.300000,112.200000,49.500000,110,53C108.900000,54.700000,107.800000,56.500000,106.800000,58.200000C105.800000,59.900000,105,61.600000,104.300000,63.400000L102.400000,68.300000L96.700000,65.200000C90.600000,61.900000,82.300000,60.700000,74.300000,61.500000C66.300000,62.300000,58.700000,65.100000,53.400000,69.200000C48,73.300000,45.200000,78.900000,45.300000,84.700000C45.400000,90.500000,48.100000,96.400000,52.100000,101.800000L54.100000,104.600000L50.700000,106.600000C38.400000,113.700000,30.200000,124.300000,28.100000,135.600000C25.900000,146.800000,29.800000,158.600000,39.800000,167.200000C45.200000,171.800000,51.300000,175.300000,57.900000,177.700000C65.200000,180.400000,72.800000,182.200000,80.500000,183.200000C96.400000,185.400000,113.200000,184.900000,129.600000,183L135.500000,182.300000L136.200000,186.600000C136.600000,189.800000,136.600000,193,136,196.100000C135.500000,199.200000,134.700000,202.200000,133.600000,205.100000C131.400000,211.100000,128.300000,216.700000,124.600000,221.900000C119.800000,228.500000,114.200000,234.600000,108,239.800000C112.200000,238.900000,116.400000,238,120.500000,236.900000C130.300000,234.400000,140,231.100000,149.300000,227C158,223.200000,166.400000,218.500000,174.100000,212.900000C177.700000,210.300000,181,207.400000,184.100000,204.200000C186.900000,201.400000,189.300000,198.200000,191.200000,194.600000L194.400000,188L200.400000,193.500000C207,199.500000,215.900000,204.100000,226,206.600000C236.400000,209.100000,247.200000,209.700000,257.900000,208.400000C268.300000,207.300000,278.300000,204.200000,287.600000,199.400000C296.300000,194.800000,303.200000,188.500000,307.200000,181.200000L309.800000,176.600000L314.500000,180.200000C321.600000,185.600000,332.300000,188.300000,343.200000,188.900000C354.100000,189.400000,365.100000,188.100000,375.600000,185C385.900000,182,395.400000,177.500000,402.800000,171.600000C410.200000,165.700000,415.200000,158.300000,417,150.500000L417.400000,148.900000L419.500000,148.600000C429.500000,147,438.900000,143.300000,447.300000,137.600000C455,132.200000,460.700000,125.300000,463.100000,117.700000C465.600000,110,464.300000,101.600000,459.400000,95.100000C454.500000,88.100000,446,82.600000,436.300000,78.800000L435.300000,78.400000L435.600000,77.700000C438.400000,71.900000,439.100000,65.400000,437.400000,59.200000C435.400000,52.400000,431,46.500000,424.900000,42.800000C417.400000,38.600000,409,36.400000,400.500000,36.300000C391.500000,36.300000,383,37.900000,375.100000,41.300000Z" transform="translate(-112.207489,-239.800000)" opacity="0" fill="rgb(217,232,230)" stroke="rgb(57,62,63)" stroke-width="3"/></g><g id="eJwsNlYiLBH4"><g id="eJwsNlYiLBH5"><path id="eJwsNlYiLBH6" d="M89.500000,427.200000C87.800000,428.900000,88.200000,431.100000,87.500000,433.200000C88.100000,433.200000,88.700000,433.200000,89.300000,433.200000C88.900000,431.500000,88.600000,429.900000,88.300000,428.200000C88.100000,427.100000,86.600000,427.300000,86.300000,428.200000C86,429.200000,85.300000,430.600000,84.900000,431.700000C85.600000,431.800000,86.300000,431.900000,87,432C87,430.800000,87,429.600000,87,428.500000C87,427.300000,85.200000,427.100000,84.900000,428.200000C84.500000,429.500000,84.100000,430.700000,83.500000,432C84.200000,432.100000,84.900000,432.200000,85.600000,432.300000C85.700000,429.300000,86.500000,428.700000,88.100000,427.100000C87.500000,427,86.900000,426.900000,86.300000,426.900000C86.300000,427,86.400000,427.100000,86.400000,427.100000C86.500000,428.200000,88,428.800000,88.500000,427.700000C89,426.700000,89.600000,425.900000,90.100000,425C89.400000,424.900000,88.700000,424.800000,88,424.700000C88.100000,425.500000,88.200000,426.300000,88.200000,427.100000C88.100000,428.500000,90,428.500000,90.500000,427.400000C91.200000,425.800000,91.100000,424.600000,90.800000,422.900000C90.500000,421.600000,88.500000,421.900000,88.500000,423.200000C88.500000,423.900000,88.500000,424.700000,88.500000,425.400000C89.200000,425.200000,90,425,90.700000,424.800000C90.300000,424,90,423.200000,89.600000,422.300000C89.200000,421.400000,87.500000,421.600000,87.400000,422.600000C87.300000,424.300000,86.600000,425.700000,85.200000,426.700000C85.800000,427.200000,86.500000,427.700000,87.100000,428.200000C87.300000,427.900000,87.500000,427.700000,87.600000,427.400000C86.900000,427.100000,86.100000,426.800000,85.400000,426.500000C85.100000,427.900000,84.600000,429.100000,83.900000,430.300000C84.700000,430.500000,85.400000,430.700000,86.200000,430.900000C86.300000,430.300000,86.400000,429.700000,86.400000,429C86.700000,427.500000,84.600000,426.900000,84.100000,428.400000C84,428.700000,83.900000,428.900000,83.800000,429.200000C84.300000,428.900000,84.800000,428.600000,85.300000,428.400000C85.400000,428.500000,85.600000,428.600000,85.700000,428.700000C85.200000,427.900000,83.600000,427.900000,83.500000,429C83.400000,429.800000,83.300000,430.700000,83,431.500000C83.800000,431.600000,84.600000,431.700000,85.400000,431.800000C85.400000,431.300000,85.400000,430.700000,85.400000,430.200000C85.400000,428.900000,83.300000,428.500000,83,429.900000C82.400000,432.400000,82.400000,435.200000,83.900000,437.400000C84.500000,438.200000,85.800000,438.100000,86.100000,437.100000C86.700000,435.200000,87,433.300000,87.200000,431.300000C86.500000,431.500000,85.700000,431.700000,85,431.900000C86.300000,434.800000,85.600000,438.300000,86.200000,441.400000C86.400000,442.400000,87.900000,442.600000,88.400000,441.700000C90.500000,437.800000,89.800000,433.600000,90.500000,429.400000C89.700000,429.400000,88.900000,429.400000,88.100000,429.400000C88.800000,433.400000,88.800000,437.300000,88.300000,441.400000C88.200000,442.600000,90.100000,443.100000,90.600000,442C92.400000,438,91.500000,433.900000,91.300000,429.600000C90.500000,429.700000,89.700000,429.800000,88.800000,429.900000C89.300000,433.400000,89.700000,437,90.200000,440.500000C90.400000,441.800000,92.400000,441.600000,92.600000,440.500000C93.300000,437.400000,93.500000,434.300000,93.700000,431.200000C92.900000,431.300000,92.100000,431.400000,91.200000,431.500000C91.700000,433.400000,91.900000,435.200000,92,437.200000C92.100000,438.800000,94.300000,438.800000,94.500000,437.200000C95,433.100000,93.100000,430.700000,91.700000,427C91.100000,425.500000,88.900000,426.100000,89.300000,427.700000C90.500000,432.100000,90.200000,435.900000,87.800000,439.900000C88.400000,439.800000,89.100000,439.700000,89.700000,439.700000C88.500000,438.800000,87.700000,437.600000,87.300000,436.100000C86.900000,435.100000,85.200000,434.800000,85,436.100000C84.700000,437.700000,84.600000,439.100000,84.700000,440.800000C85.500000,440.800000,86.300000,440.800000,87.100000,440.800000C86.900000,439.200000,86.500000,437.900000,85.800000,436.400000C85.300000,435.200000,83.600000,436,83.600000,437C83.400000,439.700000,83.600000,442.100000,85.100000,444.400000C85.700000,445.300000,87,445.100000,87.300000,444.100000C87.900000,442.200000,87.800000,440.300000,87.900000,438.300000C87.100000,438.400000,86.300000,438.500000,85.500000,438.600000C86.100000,440.600000,86.400000,442.600000,87.100000,444.600000C87.400000,445.400000,88.500000,445.900000,89.200000,445.100000C90.900000,443.100000,91.600000,440.700000,92.500000,438.300000C91.700000,438.100000,90.900000,437.900000,90.100000,437.600000C89.900000,438.900000,89.700000,440.200000,89.500000,441.400000C89.300000,442.600000,90.600000,443.600000,91.600000,442.600000C92.400000,441.900000,93.100000,441.200000,93.700000,440.400000C93.100000,439.800000,92.600000,439.300000,92,438.700000C90.500000,440.500000,89,442.600000,87.100000,444C86,444.900000,87.100000,446.800000,88.200000,446C90.300000,444.500000,92,442.300000,93.700000,440.400000C94.700000,439.200000,93.100000,437.600000,92,438.700000C91.300000,439.500000,90.600000,440.200000,89.800000,440.800000C90.500000,441.200000,91.200000,441.600000,91.900000,442C92.100000,440.700000,92.200000,439.600000,92.400000,438.200000C92.600000,436.600000,90.500000,436,90,437.500000C89.300000,439.500000,88.700000,441.600000,87.300000,443.200000C88,443.400000,88.700000,443.600000,89.400000,443.700000C88.700000,441.700000,88.300000,439.700000,87.800000,437.700000C87.400000,436.300000,85.500000,436.700000,85.400000,438C85.300000,439.800000,85.400000,441.400000,84.900000,443.100000C85.600000,443,86.400000,442.900000,87.100000,442.800000C85.800000,440.800000,85.700000,438.800000,85.900000,436.600000C85.200000,436.800000,84.400000,437,83.700000,437.200000C84,438.300000,84.300000,439.300000,84.600000,440.400000C84.800000,441.900000,87.100000,442,87,440.400000C86.800000,439,86.900000,437.700000,87.200000,436.300000C86.400000,436.300000,85.700000,436.300000,84.900000,436.300000C85.600000,438.200000,86.400000,439.700000,87.900000,440.900000C88.500000,441.400000,89.400000,441.400000,89.800000,440.700000C92.500000,436.300000,92.900000,431.600000,91.600000,426.700000C90.800000,426.900000,90,427.100000,89.200000,427.400000C90.400000,430.700000,92.300000,433.200000,91.900000,436.900000C92.700000,436.900000,93.600000,436.900000,94.400000,436.900000C94.300000,434.700000,94.100000,432.700000,93.500000,430.600000C93.200000,429.200000,91.100000,429.600000,91,430.900000C90.800000,433.800000,90.600000,436.700000,89.900000,439.600000C90.700000,439.600000,91.500000,439.600000,92.300000,439.600000C91.800000,436.100000,91.400000,432.500000,90.900000,429C90.700000,427.600000,88.400000,427.900000,88.400000,429.300000C88.500000,432.900000,89.600000,436.900000,88,440.400000C88.800000,440.600000,89.600000,440.800000,90.300000,441C90.800000,436.800000,90.800000,432.600000,90,428.400000C89.800000,427.200000,87.800000,427.200000,87.600000,428.400000C87,432.300000,87.800000,436.600000,85.800000,440.100000C86.500000,440.200000,87.300000,440.300000,88,440.400000C87.300000,437,88,433.600000,86.500000,430.300000C85.900000,429.100000,84.400000,429.900000,84.300000,430.900000C84.100000,432.700000,83.800000,434.300000,83.300000,436C84,435.900000,84.800000,435.800000,85.500000,435.700000C84.300000,434,84.400000,432,84.800000,430.100000C84,430,83.200000,429.900000,82.400000,429.800000C82.400000,430.300000,82.400000,430.900000,82.400000,431.400000C82.400000,432.800000,84.400000,433,84.800000,431.700000C85.100000,430.900000,85.300000,430.100000,85.300000,429.200000C84.600000,429.300000,83.800000,429.400000,83.100000,429.500000C83.300000,429.900000,83.600000,430.200000,84.100000,430.300000C84.800000,430.500000,85.400000,430.100000,85.600000,429.500000C85.700000,429.200000,85.800000,429,85.900000,428.700000C85.100000,428.500000,84.300000,428.300000,83.600000,428.100000C83.400000,429.200000,83.300000,429.500000,83.300000,430.600000C83.300000,431.800000,84.900000,432.200000,85.600000,431.200000C86.500000,429.800000,87,428.400000,87.400000,426.800000C87.700000,425.400000,85.900000,424.700000,85.200000,425.900000C85,426.200000,84.800000,426.400000,84.700000,426.700000C83.900000,427.900000,85.600000,429.100000,86.600000,428.200000C88.200000,426.700000,89.100000,425.300000,89.400000,423C88.700000,423.100000,87.900000,423.200000,87.200000,423.300000C87.600000,424.100000,87.900000,424.900000,88.300000,425.800000C88.800000,426.900000,90.500000,426.300000,90.500000,425.200000C90.500000,424.500000,90.500000,423.700000,90.500000,423C89.700000,423.100000,88.900000,423.200000,88.200000,423.300000C88.100000,424.400000,88,425.400000,87.900000,426.500000C88.700000,426.600000,89.400000,426.700000,90.200000,426.800000C90.300000,425.700000,90,424.800000,89.900000,423.800000C89.700000,422.800000,88.200000,422.700000,87.800000,423.500000C87.200000,424.400000,86.700000,425.300000,86.200000,426.200000C86.900000,426.400000,87.600000,426.600000,88.300000,426.800000C88.200000,426.100000,88.100000,425.700000,87.700000,425.200000C87.300000,424.700000,86.500000,424.800000,86.100000,425.200000C84,427.400000,83.200000,428.900000,83.100000,432C83.100000,433.300000,84.800000,433.300000,85.200000,432.300000C85.700000,431,86.200000,429.800000,86.600000,428.500000C85.900000,428.400000,85.200000,428.300000,84.500000,428.200000C84.500000,429.400000,84.500000,430.600000,84.500000,431.700000C84.500000,432.900000,86.200000,433.100000,86.600000,432C87.200000,430.400000,87.500000,429.900000,88,428.500000C87.300000,428.500000,86.700000,428.500000,86,428.500000C86.300000,430.200000,86.700000,431.700000,87.200000,433.400000C87.500000,434.200000,88.800000,434.300000,89,433.400000C89.400000,431.700000,89,429.300000,90.300000,428C91.200000,427.500000,90.200000,426.500000,89.500000,427.200000L89.500000,427.200000Z" fill="rgb(246,154,140)" stroke="none" stroke-width="1"/></g></g><g id="eJwsNlYiLBH7"><g id="eJwsNlYiLBH8"><path id="eJwsNlYiLBH9" d="M61.700000,368.500000C63.700000,371.300000,66.700000,376.300000,70.800000,376.200000C73.200000,376.100000,76.300000,373.300000,78.700000,372.500000C83,371,86.500000,372.400000,90.200000,374.600000C90.600000,374.800000,91.200000,374.800000,91.500000,374.400000C95,370.300000,96.900000,361.600000,104,366.100000C108.500000,369,111.300000,374.500000,115.100000,378.300000C119.900000,383.200000,120.400000,387.900000,118.500000,394.300000C117.600000,397.200000,116.500000,400.100000,115.100000,402.900000C114.300000,404.500000,112.300000,409,110.400000,409.700000C109.100000,410.100000,110.200000,410.700000,109.200000,409.200000C108.700000,408.500000,108.400000,407.100000,108.200000,406.300000C107.700000,404.400000,107.300000,402.500000,106.900000,400.600000C106,396.100000,105.500000,391.600000,104.600000,387.100000C103.600000,381.900000,101.900000,375.200000,95.700000,374.600000C94.700000,374.500000,94.700000,376.100000,95.700000,376.100000C108.100000,376.200000,103.900000,404.300000,108.800000,412C109,412.400000,109.600000,412.600000,110,412.300000C116.600000,407.800000,120.400000,397.400000,121.300000,389.800000C121.800000,385.600000,120.800000,382.200000,118,378.900000C116.100000,376.700000,114,374.900000,112.200000,372.600000C110.700000,370.700000,109.300000,368.700000,107.600000,366.900000C105.200000,364.500000,101.300000,361.700000,97.600000,363.200000C96.600000,363.600000,95.900000,364.500000,95.200000,365.300000C94,366.800000,92.700000,370.700000,91.200000,371.500000C89.700000,372.300000,86.300000,370.100000,84.400000,369.800000C82.700000,369.500000,81,369.600000,79.400000,370.100000C77.200000,370.700000,75.200000,371.900000,73.100000,372.800000C70.200000,374.100000,68.900000,374.200000,66.200000,372.100000C64.800000,371,63.500000,369.400000,62.300000,368.100000C62,367.900000,61.500000,368.200000,61.700000,368.500000L61.700000,368.500000Z" fill="rgb(35,31,32)" stroke="none" stroke-width="1"/></g></g><g id="eJwsNlYiLBH10"><g id="eJwsNlYiLBH11"><path id="eJwsNlYiLBH12" d="M62.200000,368.600000C46.300000,358.700000,45.100000,395.600000,45.900000,403.100000C46.700000,411.100000,51.400000,419.900000,60.800000,414.900000C65.800000,412.300000,69.100000,408.400000,68.400000,402.600000C67.900000,398.100000,61.100000,385.900000,66.100000,382.700000C66.800000,382.300000,66.200000,381.300000,65.500000,381.600000C59.200000,385.100000,65.400000,396.600000,66.300000,401.700000C67,406.100000,65.800000,409,62.100000,411.600000C58.900000,414,54.500000,415.600000,51.100000,412.400000C48.500000,410,48,405.800000,47.600000,402.600000C46.500000,393.900000,46.200000,362.700000,62,369.100000C62.300000,369.400000,62.500000,368.800000,62.200000,368.600000L62.200000,368.600000Z" fill="rgb(35,31,32)" stroke="none" stroke-width="1"/></g></g><g id="eJwsNlYiLBH13"><g id="eJwsNlYiLBH14"><path id="eJwsNlYiLBH15" d="M65.600000,410.900000C64.100000,413.800000,63.200000,417,62.300000,420.200000C61.500000,422.800000,58.800000,428.300000,59.700000,431C60.800000,434.400000,67.200000,438.200000,70.700000,438.500000C73.900000,438.800000,76.700000,437.200000,79,435C82.100000,432,84.300000,428.300000,86.700000,424.800000C87.100000,424.200000,88.800000,421.200000,89.800000,421.400000C90.400000,421.500000,90.700000,424.500000,90.900000,425C91.700000,427.500000,92.800000,430,94.500000,432.100000C99.800000,438.400000,107.700000,436,111.700000,429.600000C114.200000,425.400000,117.700000,411.100000,109,410.900000C108.500000,410.900000,108.100000,411.600000,108.500000,412C111.100000,414.100000,112.500000,415.700000,112.600000,419.300000C112.700000,422.700000,111.500000,426.200000,109.700000,429.100000C107.400000,432.700000,103.600000,435.100000,99.300000,433.600000C94.500000,431.900000,92.100000,425.500000,90.500000,421.100000C90.500000,421,90.400000,420.900000,90.200000,420.900000C87.300000,420.900000,84.700000,425.100000,83,427.100000C79.800000,431.100000,76,437.600000,70,436.600000C66.700000,436,61.400000,432.700000,61.400000,429.100000C61.300000,426.800000,62.600000,423.900000,63.200000,421.800000C64.100000,418.700000,66.300000,414.500000,65.800000,411.100000C65.900000,410.800000,65.700000,410.700000,65.600000,410.900000L65.600000,410.900000Z" fill="rgb(35,31,32)" stroke="none" stroke-width="1"/></g></g><g id="eJwsNlYiLBH16"><g id="eJwsNlYiLBH17"><path id="eJwsNlYiLBH18" d="M87.700000,414.500000C85.300000,413.400000,83.900000,411.700000,83.100000,409.100000C82.900000,409.500000,82.700000,409.800000,82.500000,410.200000C85.400000,409.800000,88.400000,409.200000,91.300000,409.200000C91,408.900000,90.700000,408.600000,90.400000,408.300000C90.400000,409.700000,90.300000,411,89.600000,412.300000C89.400000,412.700000,88.900000,413.600000,88.400000,413.800000C87.800000,414,87.100000,413.600000,86.600000,413.400000C86.400000,413.300000,86.100000,413.600000,86.200000,413.800000C86.500000,414.600000,87,415.300000,87.800000,415.600000C88.900000,416,89.500000,415.400000,90.200000,414.600000C91.800000,412.900000,92.200000,410.700000,92.200000,408.400000C92.200000,407.900000,91.800000,407.500000,91.300000,407.500000C88.200000,407.600000,85.100000,408.100000,82,408.600000C81.600000,408.700000,81.200000,409.200000,81.400000,409.700000C82.500000,412.600000,84.200000,415,87.600000,415C87.800000,415,87.900000,414.600000,87.700000,414.500000L87.700000,414.500000Z" fill="rgb(35,31,32)" stroke="none" stroke-width="1"/></g></g><g id="eJwsNlYiLBH19"><g id="eJwsNlYiLBH20"><path id="eJwsNlYiLBH21" d="M75.500000,396.700000C75.500000,396.600000,75.600000,396.600000,75.600000,396.500000C75.500000,396.500000,75.300000,396.400000,75.200000,396.400000C75.200000,396.400000,74.700000,398,74.700000,398.200000C74.600000,399.300000,74.800000,400.500000,75.100000,401.600000C75.400000,402.400000,76.600000,402.300000,76.600000,401.400000C76.700000,398.500000,76.600000,395.600000,76.100000,392.600000C75.900000,391.600000,74.400000,391.900000,74.400000,392.800000C74.400000,395.100000,74.400000,397.400000,74.400000,399.700000C75,399.700000,75.600000,399.700000,76.200000,399.700000C76.100000,398.100000,75.800000,396.500000,75.700000,394.900000C75.700000,393.900000,74.100000,393.600000,73.800000,394.600000C73.300000,396.800000,73.400000,399.600000,74.500000,401.700000C74.900000,402.400000,76.200000,402.100000,76.100000,401.300000C75.800000,399.200000,75.200000,397.300000,75.600000,395.200000C75,395.100000,74.400000,395,73.700000,394.900000C73.700000,396.500000,74.200000,398.100000,74.300000,399.700000C74.400000,400.800000,76.100000,400.900000,76.100000,399.700000C76.100000,397.400000,76.100000,395.100000,76.100000,392.800000C75.500000,392.900000,75,393,74.400000,393C74.800000,395.700000,74.900000,398.500000,75,401.300000C75.500000,401.200000,76,401.200000,76.500000,401.100000C76,399.800000,76.100000,398.600000,75.900000,397.300000C75.800000,396.900000,75.800000,396.500000,75.600000,396.200000C75.500000,396.100000,75.300000,396,75.200000,396.200000C75.100000,396.300000,75.100000,396.300000,75,396.500000C75,396.800000,75.400000,397,75.500000,396.700000L75.500000,396.700000Z" fill="rgb(35,31,32)" stroke="none" stroke-width="1"/></g></g><g id="eJwsNlYiLBH22"><g id="eJwsNlYiLBH23"><path id="eJwsNlYiLBH24" d="M92.200000,393.800000C91.800000,394.600000,91.800000,395.600000,91.800000,396.500000C91.700000,398,91.700000,399.400000,91.600000,400.900000C91.600000,401.800000,92.900000,402,93.200000,401.100000C93.800000,398.800000,94.300000,396.400000,94.400000,394C94.400000,393,93,392.800000,92.700000,393.800000C92.200000,395.600000,90.900000,397.400000,90.900000,399.400000C90.900000,399.800000,91.400000,400.100000,91.700000,399.700000C93,398.200000,93.800000,396.200000,94.300000,394.300000C93.700000,394.200000,93.200000,394.100000,92.600000,394.100000C92.600000,396.400000,92,398.600000,91.600000,400.800000C92.100000,400.900000,92.600000,400.900000,93.200000,401C93.200000,399.500000,93.100000,398.100000,93,396.600000C92.900000,395.700000,93,394.700000,92.600000,393.900000C92.500000,393.700000,92.300000,393.700000,92.200000,393.800000L92.200000,393.800000Z" fill="rgb(35,31,32)" stroke="none" stroke-width="1"/></g></g><g id="eJwsNlYiLBH25"><g id="eJwsNlYiLBH26"><path id="eJwsNlYiLBH27" d="M59.500000,394C59.500000,394.200000,59.500000,394.400000,59.500000,394.500000C59.600000,394.800000,60.100000,394.800000,60.200000,394.500000C60.200000,394.300000,60.300000,394.200000,60.200000,394C60.200000,393.500000,59.600000,393.500000,59.500000,394L59.500000,394Z" fill="rgb(35,31,32)" stroke="none" stroke-width="1"/></g></g><g id="eJwsNlYiLBH28"><g id="eJwsNlYiLBH29"><path id="eJwsNlYiLBH30" d="M76.900000,417.400000C76.900000,417.500000,76.900000,417.600000,76.900000,417.800000C76.900000,418,77,418.200000,77.200000,418.300000C77.400000,418.400000,77.600000,418.400000,77.800000,418.300000C78,418.200000,78.100000,418,78.100000,417.800000C78.100000,417.700000,78.100000,417.600000,78.100000,417.400000C78,416.600000,77,416.600000,76.900000,417.400000L76.900000,417.400000Z" fill="rgb(35,31,32)" stroke="none" stroke-width="1"/></g></g><g id="eJwsNlYiLBH31"><g id="eJwsNlYiLBH32"><path id="eJwsNlYiLBH33" d="M75.700000,425.700000C75.500000,425.900000,75.200000,426.200000,74.900000,426.200000C74.700000,426.200000,74.600000,426.200000,74.400000,426.300000C74.500000,426.300000,74.600000,426.300000,74.700000,426.300000C74.600000,426.300000,74.500000,426.200000,74.400000,426.200000C74.200000,426.200000,74.100000,426.300000,74.100000,426.500000C74.200000,426.700000,74.200000,426.700000,74.300000,426.900000C74.400000,427.100000,74.600000,427.100000,74.800000,427.100000C75.400000,427,75.700000,426.500000,76,426.100000C76.200000,425.800000,75.900000,425.600000,75.700000,425.700000L75.700000,425.700000Z" fill="rgb(35,31,32)" stroke="none" stroke-width="1"/></g></g><g id="eJwsNlYiLBH34"><g id="eJwsNlYiLBH35"><path id="eJwsNlYiLBH36" d="M70.900000,430C70.800000,430.100000,70.700000,430.200000,70.600000,430.200000C70.200000,430.300000,69.900000,430.700000,70.200000,431C70.500000,431.300000,71,431.100000,71,430.600000C71,430.500000,71.100000,430.400000,71.200000,430.300000C71.500000,430.100000,71.200000,429.800000,70.900000,430L70.900000,430Z" fill="rgb(35,31,32)" stroke="none" stroke-width="1"/></g></g><g id="eJwsNlYiLBH37"><g id="eJwsNlYiLBH38"><path id="eJwsNlYiLBH39" d="M73,423.500000C72.500000,423,71.900000,422.700000,71.200000,422.800000C70.500000,422.800000,70.500000,423.800000,71.200000,423.800000C71.700000,423.800000,72,423.800000,72.400000,424.100000C72.800000,424.400000,73.400000,423.900000,73,423.500000L73,423.500000Z" fill="rgb(35,31,32)" stroke="none" stroke-width="1"/></g></g><g id="eJwsNlYiLBH40"><g id="eJwsNlYiLBH41"><path id="eJwsNlYiLBH42" d="M71.400000,421.600000C72.500000,421.100000,73.700000,421,74.900000,420.800000C75.100000,420.800000,75.100000,420.400000,74.900000,420.300000C73.600000,420.100000,72.100000,420,70.800000,420.600000C70.100000,420.900000,70.700000,421.900000,71.400000,421.600000L71.400000,421.600000Z" fill="rgb(35,31,32)" stroke="none" stroke-width="1"/></g></g><g id="eJwsNlYiLBH43"><g id="eJwsNlYiLBH44"><path id="eJwsNlYiLBH45" d="M80.100000,422.300000C79.300000,422.200000,78.800000,423.100000,79,423.800000C79.200000,424.300000,79.900000,424.300000,80.100000,423.800000C80.200000,423.600000,80.200000,423.400000,80.200000,423.300000C80.200000,423.200000,80.200000,423.200000,80.200000,423.100000C80.100000,423.200000,80.200000,423.200000,80.200000,423.200000C80.700000,423,80.600000,422.300000,80.100000,422.300000L80.100000,422.300000Z" fill="rgb(35,31,32)" stroke="none" stroke-width="1"/></g></g><g id="eJwsNlYiLBH46"><g id="eJwsNlYiLBH47"><path id="eJwsNlYiLBH48" d="M97.800000,424.900000C97.700000,425.400000,97.900000,424.700000,97.700000,425.100000C97.700000,425.200000,97.600000,425.200000,97.600000,425.400000C97.800000,425.200000,98,425.100000,98.200000,424.900000C98.400000,425,98.200000,424.900000,98.100000,424.700000C98,424.600000,97.900000,424.400000,97.900000,424.300000C97.800000,424.100000,97.500000,424.100000,97.500000,424.300000C97.400000,424.800000,97.400000,425.500000,97.900000,425.800000C97.800000,425.700000,97.800000,425.600000,97.700000,425.500000L97.700000,425.500000C97.800000,425.900000,98.300000,426,98.600000,425.700000C98.800000,425.500000,98.800000,425.200000,98.800000,424.900000C98.700000,424.200000,97.800000,424.300000,97.800000,424.900000L97.800000,424.900000Z" fill="rgb(35,31,32)" stroke="none" stroke-width="1"/></g></g><g id="eJwsNlYiLBH49"><g id="eJwsNlYiLBH50"><path id="eJwsNlYiLBH51" d="M98.300000,417.100000C98.200000,417.100000,98,417,98.100000,417C97.700000,416.700000,97.300000,417.400000,97.700000,417.700000C98.100000,418,98.900000,417.700000,99.400000,417.600000C99.600000,417.500000,99.600000,417.200000,99.400000,417.200000C98.900000,417,98.200000,416.800000,97.700000,417.100000C97.300000,417.400000,97.700000,418.100000,98.100000,417.800000C98,417.800000,98.300000,417.800000,98.300000,417.700000C98.600000,417.600000,98.600000,417.200000,98.300000,417.100000L98.300000,417.100000Z" fill="rgb(35,31,32)" stroke="none" stroke-width="1"/></g></g><g id="eJwsNlYiLBH52"><g id="eJwsNlYiLBH53"><path id="eJwsNlYiLBH54" d="M104.200000,419.500000C104.200000,419.900000,104.100000,420.300000,104.100000,420.700000C104.100000,421.100000,104.200000,421.400000,104.400000,421.800000C104.500000,422,104.800000,422,104.900000,421.800000C105.100000,421.500000,105.200000,421.100000,105.200000,420.700000C105.200000,420.300000,105.100000,419.900000,105.100000,419.500000C105,419,104.300000,419,104.200000,419.500000L104.200000,419.500000Z" fill="rgb(35,31,32)" stroke="none" stroke-width="1"/></g></g><g id="eJwsNlYiLBH55"><g id="eJwsNlYiLBH56"><path id="eJwsNlYiLBH57" d="M103.700000,427.200000C103.300000,427.100000,103,426.500000,102.600000,426.300000C102.400000,426.200000,102.200000,426.400000,102.300000,426.600000C102.600000,427.200000,102.800000,428,103.500000,427.900000C104,427.800000,104.100000,427.300000,103.700000,427.200000L103.700000,427.200000Z" fill="rgb(35,31,32)" stroke="none" stroke-width="1"/></g></g><g id="eJwsNlYiLBH58"><g id="eJwsNlYiLBH59"><path id="eJwsNlYiLBH60" d="M96.700000,418.700000C96.600000,418.700000,96.600000,418.700000,96.500000,418.700000C96.500000,418.700000,96.700000,418.900000,96.500000,418.700000C96.400000,418.600000,96.300000,418.600000,96.200000,418.500000C96.300000,418.600000,96.400000,418.700000,96.500000,418.800000C96.500000,418.700000,96.400000,418.500000,96.300000,418.400000C96.200000,418.200000,96,418.200000,95.900000,418.400000C95.800000,418.600000,95.800000,418.700000,95.800000,418.800000C95.800000,418.700000,95.800000,418.700000,95.800000,418.800000C95.800000,418.900000,95.800000,419,95.800000,419.100000C95.900000,419.300000,96.100000,419.400000,96.300000,419.400000C96.400000,419.400000,96.600000,419.300000,96.700000,419.300000C97,419.200000,97,418.800000,96.700000,418.700000L96.700000,418.700000Z" fill="rgb(35,31,32)" stroke="none" stroke-width="1"/></g></g><g id="eJwsNlYiLBH61"><g id="eJwsNlYiLBH62"><path id="eJwsNlYiLBH63" d="M103.800000,419.400000C103.700000,419.800000,103.200000,419.700000,102.900000,419.800000C102.800000,419.900000,102.800000,420.100000,102.900000,420.200000C103.500000,420.500000,104.400000,420.300000,104.400000,419.500000C104.400000,419.200000,103.900000,419.100000,103.800000,419.400000L103.800000,419.400000Z" fill="rgb(35,31,32)" stroke="none" stroke-width="1"/></g></g><g id="eJwsNlYiLBH64"><g id="eJwsNlYiLBH65"><path id="eJwsNlYiLBH66" d="M101.300000,422.100000C101.200000,421.900000,101.200000,421.800000,101.100000,421.600000C101,421.400000,100.800000,421.400000,100.800000,421.600000C100.700000,421.800000,100.700000,421.900000,100.600000,422.100000C100.400000,422.700000,101.500000,422.700000,101.300000,422.100000L101.300000,422.100000Z" fill="rgb(35,31,32)" stroke="none" stroke-width="1"/></g></g><g id="eJwsNlYiLBH67"><g id="eJwsNlYiLBH68"><path id="eJwsNlYiLBH69" d="M104.600000,417C104.600000,417.300000,104.700000,417.500000,105,417.700000C105.100000,417.800000,105.300000,417.800000,105.500000,417.700000C105.700000,417.500000,105.800000,417.300000,105.900000,417C105.900000,416.100000,104.500000,416,104.600000,417L104.600000,417Z" fill="rgb(35,31,32)" stroke="none" stroke-width="1"/></g></g><g id="eJwsNlYiLBH70"><g id="eJwsNlYiLBH71"><path id="eJwsNlYiLBH72" d="M84.700000,410.100000C86,412.100000,87.100000,413.700000,89.800000,413.400000C90.500000,413.300000,90.900000,412.400000,90.200000,412C89,411.400000,87.700000,411,86.500000,410.300000C86.400000,410.800000,86.400000,411.300000,86.300000,411.800000C87.800000,411.300000,89.300000,410.800000,90.900000,410.800000C90.900000,410.200000,90.900000,409.600000,90.900000,409.100000C89.800000,409.200000,88.200000,409.600000,87.900000,410.800000C88,410.600000,88.200000,410.400000,88.300000,410.300000C88.300000,410.300000,87.700000,410.500000,87.800000,410.500000C88,410.600000,88.200000,410.700000,88.400000,410.800000L88.400000,410.800000C88.500000,411.100000,88.600000,411.400000,88.600000,411.700000C88.500000,412.100000,88.900000,411.500000,88.900000,411.300000C89,411.200000,89,411,89.100000,410.800000C89.300000,410.400000,89,410,88.500000,410.100000C87.700000,410.200000,86.300000,410.900000,86.900000,411.900000C87.300000,412.600000,88,412.300000,88.600000,412.100000C89.100000,411.900000,89.200000,411.600000,89.500000,411.300000C89.800000,411.100000,90.400000,410.900000,90.700000,410.900000C91.800000,410.800000,91.800000,409.100000,90.700000,409.200000C89,409.300000,87.300000,409.800000,85.700000,410.300000C85.100000,410.500000,84.800000,411.500000,85.500000,411.800000C86.700000,412.300000,88,412.800000,89.300000,413.300000C89.400000,412.800000,89.400000,412.400000,89.500000,411.900000C87.400000,412.300000,86.600000,410.800000,85.100000,409.700000C84.800000,409.500000,84.500000,409.800000,84.700000,410.100000L84.700000,410.100000Z" fill="rgb(35,31,32)" stroke="none" stroke-width="1"/></g></g><g id="eJwsNlYiLBH73"><g id="eJwsNlYiLBH74"><path id="eJwsNlYiLBH75" d="M61.500000,307.100000C65.200000,303.300000,68.600000,298.500000,73.600000,296.400000C81,293.200000,84.800000,303,87.600000,308.100000C94,319.800000,103.300000,334.400000,102.500000,348.300000C102.400000,349.300000,104.200000,349.300000,104.100000,348.300000C103.600000,339.700000,100.300000,331.300000,97.300000,323.300000C94.400000,315.800000,90.400000,308.500000,86,301.800000C83.500000,298,79.800000,293.100000,74.700000,294.900000C69.100000,296.900000,65,302.800000,61.100000,306.800000C61,307,61.300000,307.300000,61.500000,307.100000L61.500000,307.100000Z" fill="rgb(35,31,32)" stroke="none" stroke-width="1"/></g></g><g id="eJwsNlYiLBH76"><g id="eJwsNlYiLBH77"><path id="eJwsNlYiLBH78" d="M43.400000,382C43.500000,392.700000,41.300000,403.200000,39.900000,413.800000C39.500000,416.800000,39.500000,420.400000,38.600000,423.300000C38.200000,424.700000,37.200000,425.700000,36.700000,426.900000C36,428.600000,35.800000,430.400000,37.200000,431.800000C38.100000,432.800000,39.500000,433.200000,40.800000,432.700000C44.300000,431.400000,40.700000,431,42.200000,432.300000C45.200000,435,46.500000,430.300000,49.200000,431.900000C49.500000,432,49.900000,432,50.100000,431.800000C51.500000,430.100000,52.100000,429.200000,51.900000,427C51.900000,426.800000,51.500000,426.600000,51.400000,426.900000C51,428.400000,50.100000,429.300000,48.500000,429.600000C48.300000,429.300000,47.800000,429.300000,47.500000,429.600000C46.300000,431.100000,43.400000,434.700000,42.900000,430.100000C42.900000,429.900000,42.700000,429.700000,42.500000,429.900000C41.200000,431.300000,39.900000,430.700000,38.700000,428C39.400000,427.400000,40,426.700000,40.600000,426C41.100000,424.800000,40.600000,423.200000,40.500000,421.900000C40.400000,417.700000,40.900000,413.500000,41.400000,409.300000C42.600000,400.200000,44,391.200000,43.800000,382.100000C43.900000,381.700000,43.400000,381.700000,43.400000,382L43.400000,382Z" fill="rgb(35,31,32)" stroke="none" stroke-width="1"/></g></g><g id="eJwsNlYiLBH79"><g id="eJwsNlYiLBH80"><path id="eJwsNlYiLBH81" d="M43.600000,383.700000C45.600000,373.200000,49.500000,363.200000,51.700000,352.800000C51.800000,352.100000,50.900000,351.600000,50.500000,352.300000C45.900000,361.600000,44.600000,373.400000,43.200000,383.600000C43,383.900000,43.500000,384.100000,43.600000,383.700000L43.600000,383.700000Z" fill="rgb(35,31,32)" stroke="none" stroke-width="1"/></g></g><g id="eJwsNlYiLBH82"><g id="eJwsNlYiLBH83"><path id="eJwsNlYiLBH84" d="M103.800000,348.400000C104.800000,352.400000,106.500000,356.200000,107.700000,360.200000C109,364.300000,109.600000,368.800000,111.200000,372.800000C111.400000,373.300000,112.300000,373.300000,112.200000,372.700000C112,368.400000,110.300000,363.900000,109,359.900000C107.700000,356,106.500000,351.700000,104.200000,348.300000C104.100000,348,103.700000,348.100000,103.800000,348.400000L103.800000,348.400000Z" fill="rgb(35,31,32)" stroke="none" stroke-width="1"/></g></g><g id="eJwsNlYiLBH85"><g id="eJwsNlYiLBH86"><path id="eJwsNlYiLBH87" d="M117.900000,402.200000C119.100000,403,119.400000,406.600000,119.700000,407.900000C120.300000,410.500000,120.800000,413.100000,121.400000,415.700000C121.800000,417.700000,122.100000,419.900000,122.900000,421.800000C123.200000,422.700000,123.700000,423.400000,124.200000,424.100000C124.700000,424.800000,125.100000,425.400000,125.500000,426.100000C127.300000,428.300000,126.300000,429.500000,122.500000,429.600000C122.100000,429.300000,121.400000,429.400000,121.400000,430C121.600000,432.200000,118,433.400000,116.500000,433.700000C116.400000,433.700000,114.700000,433.800000,114.800000,433.900000C114.500000,434.100000,114.200000,434.400000,113.900000,434.600000C114.900000,435.500000,114.600000,435,112.900000,433.300000C112,432.600000,111.400000,431.600000,111.100000,430.500000C110.900000,430.100000,110.300000,430.100000,110.300000,430.600000C110.300000,433.700000,112.100000,436.500000,115.500000,435.800000C115.900000,435.700000,116,435.200000,115.900000,434.900000C115.700000,434.400000,115.200000,434,114.700000,433.700000C114.200000,433.300000,113.400000,433.800000,113.800000,434.400000C114.500000,435.600000,118,434.700000,119.200000,434.400000C121.500000,433.700000,122.700000,432.400000,122.700000,429.900000C122.300000,430,122,430.200000,121.600000,430.300000C123.800000,432.400000,127.500000,432.700000,128,428.800000C128.400000,425.400000,124.600000,422.400000,123.800000,419.300000C122.700000,415,122,410.700000,120.700000,406.500000C120.400000,405.400000,119.700000,401.800000,118.100000,401.700000C117.800000,401.800000,117.700000,402.100000,117.900000,402.200000L117.900000,402.200000Z" fill="rgb(35,31,32)" stroke="none" stroke-width="1"/></g></g><g id="eJwsNlYiLBH88_tr" transform="translate(74.100000,299.702087) rotate(0)"><g id="eJwsNlYiLBH88" transform="translate(-74.100000,-299.702087)"><path id="eJwsNlYiLBH89" d="M78.600000,294.400000C79,282.900000,91.900000,278.400000,97.500000,270.600000C91.400000,272.400000,87.400000,272.900000,82.400000,277.900000C77.400000,282.900000,77.300000,286,75.400000,292C75,293.100000,74.500000,294.100000,73.800000,295C73.100000,296,73,299.700000,75.500000,299.700000C78.600000,299.800000,78.400000,296.700000,78.600000,294.400000Z" fill="rgb(237,236,237)" stroke="none" stroke-width="1"/><g id="eJwsNlYiLBH90"><g id="eJwsNlYiLBH91"><path id="eJwsNlYiLBH92" d="M77.900000,296.100000C79.500000,284.600000,89.800000,278.500000,98.600000,272.500000C99,272.200000,99,271.600000,98.500000,271.400000C85.600000,268.600000,76,284.600000,73.100000,295.100000C72.900000,295.900000,74,296.200000,74.300000,295.400000C76.200000,289.700000,78.700000,284.300000,82.500000,279.700000C84.400000,277.400000,86.700000,275.200000,89.300000,273.700000C90.800000,272.900000,92.400000,272.300000,94.100000,272.200000C95.100000,272,96.100000,272.100000,97,272.300000C97,271.800000,96.700000,271.900000,96,272.800000C94,274.800000,90.900000,276.100000,88.600000,277.800000C86.500000,279.400000,84.400000,281.200000,82.600000,283.200000C79.300000,286.900000,77.100000,291,77.300000,296.100000C77.400000,296.300000,77.900000,296.400000,77.900000,296.100000L77.900000,296.100000Z" fill="rgb(35,31,32)" stroke="none" stroke-width="1"/></g></g></g></g><g id="eJwsNlYiLBH93"><g id="eJwsNlYiLBH94"><path id="eJwsNlYiLBH95" d="M59.400000,307.800000C52,313,48.300000,322.800000,46,331.200000C42.600000,343.600000,44,355.900000,45.200000,368.500000C45.300000,369.600000,46.800000,369.400000,46.700000,368.300000C43.800000,348.900000,43.100000,322.400000,59.600000,308.200000C59.800000,308,59.600000,307.700000,59.400000,307.800000L59.400000,307.800000Z" fill="rgb(35,31,32)" stroke="none" stroke-width="1"/></g></g><g id="eJwsNlYiLBH96"><g id="eJwsNlYiLBH97"><path id="eJwsNlYiLBH98" d="M55.800000,419.800000C53.600000,421.900000,52.800000,424.500000,52.800000,427.500000C52.800000,428.300000,54,428.500000,54.200000,427.700000C55.200000,423.300000,56.700000,419,58.100000,414.700000C57.700000,414.600000,57.300000,414.500000,56.800000,414.400000C56.400000,416.100000,56.600000,417.800000,56.700000,419.600000C56.700000,420.300000,57.700000,420.600000,58.100000,420C58.500000,419.100000,59.400000,419.100000,60.200000,418.800000C61,418.500000,60.700000,417.100000,59.800000,417.400000C58.400000,417.900000,57.500000,417.800000,56.900000,419.200000C57.400000,419.300000,57.800000,419.400000,58.300000,419.600000C58.200000,418,57.900000,416.400000,58.200000,414.800000C58.400000,414,57.200000,413.700000,56.900000,414.500000C55.500000,418.800000,53.900000,423.100000,52.800000,427.500000C53.300000,427.600000,53.700000,427.600000,54.200000,427.700000C54.200000,425.100000,54.600000,422.500000,56.200000,420.300000C56.400000,419.900000,56,419.700000,55.800000,419.800000L55.800000,419.800000Z" fill="rgb(35,31,32)" stroke="none" stroke-width="1"/></g></g><g id="eJwsNlYiLBH99"><g id="eJwsNlYiLBH100"><path id="eJwsNlYiLBH101" d="M74.600000,370.200000C75.900000,369.300000,77.700000,368.800000,79.300000,368.700000C80.900000,368.700000,82,369.300000,83.500000,369.700000C83.700000,369.700000,83.800000,369.600000,83.700000,369.400000C81.700000,366.200000,76.600000,368.100000,74.400000,369.900000C74.200000,370,74.400000,370.300000,74.600000,370.200000L74.600000,370.200000Z" fill="rgb(35,31,32)" stroke="none" stroke-width="1"/></g></g><g id="eJwsNlYiLBH102"><g id="eJwsNlYiLBH103"><path id="eJwsNlYiLBH104" d="M85.500000,367.800000C85.700000,368.100000,85.700000,368.300000,85.800000,368.600000C85.900000,368.800000,86.200000,368.800000,86.200000,368.600000C86.300000,368.300000,86.300000,368.100000,86.500000,367.800000C86.700000,367.400000,86.400000,367,86,367C85.600000,367,85.300000,367.400000,85.500000,367.800000L85.500000,367.800000Z" fill="rgb(35,31,32)" stroke="none" stroke-width="1"/></g></g><g id="eJwsNlYiLBH105"><g id="eJwsNlYiLBH106"><path id="eJwsNlYiLBH107" d="M82.300000,431.400000C83.200000,435.200000,81.800000,447.900000,88.300000,447.400000C91.700000,447.100000,93.100000,443.500000,94,440.700000C94.600000,438.600000,95,436.500000,95.100000,434.300000C95.200000,433.100000,95.600000,431.200000,94.900000,430.200000C94.800000,430.100000,94.500000,430,94.400000,430.200000C94.100000,430.900000,94.200000,431.700000,94.200000,432.500000C94.100000,434.200000,93.900000,435.900000,93.600000,437.600000C93.100000,440.100000,91.300000,446.800000,87.500000,445.600000C83.100000,444.300000,85,434.500000,83,431.100000C82.800000,430.800000,82.200000,431,82.300000,431.400000L82.300000,431.400000Z" fill="rgb(35,31,32)" stroke="none" stroke-width="1"/></g></g><g id="eJwsNlYiLBH108"><g id="eJwsNlYiLBH109"><path id="eJwsNlYiLBH110" d="M88.500000,425.700000C88.300000,429.600000,88.300000,433.600000,88.900000,437.400000C88.900000,437.500000,89.200000,437.500000,89.200000,437.400000C89.700000,433.500000,89.100000,429.600000,88.900000,425.700000C88.800000,425.400000,88.500000,425.400000,88.500000,425.700000L88.500000,425.700000Z" fill="rgb(35,31,32)" stroke="none" stroke-width="1"/></g></g><g id="eJwsNlYiLBH111"><g id="eJwsNlYiLBH112"><path id="eJwsNlYiLBH113" d="M88.700000,434C88.700000,434.700000,88.600000,435.300000,88.500000,435.900000C88.500000,436.100000,88.700000,436.300000,88.800000,436.100000C89.300000,435.500000,89.300000,434.700000,89.300000,434C89.300000,433.600000,88.700000,433.600000,88.700000,434L88.700000,434Z" fill="rgb(35,31,32)" stroke="none" stroke-width="1"/></g></g></svg>