<svg xmlns="http://www.w3.org/2000/svg" width="82.908" height="153.677" viewBox="0 0 82.908 153.677">
  <g id="Group_421" data-name="Group 421" transform="translate(-353.211 -219.615)">
    <path id="Path_625" data-name="Path 625" d="M373.972,270.108c-.01-.279,0-.56.015-.838-2.286,5.647-4.9,13.891-10.675,16.921-5.631-1.821-4.581-14.193-3.34-18.879,1.106-4.177,2.32-8.92,4.974-12.49,2.089-2.811,4.215-5.117,5.965-8.139,3.661-6.318,8.523-11.646,13.412-17.072,3.977-4.413,9.7-9.054,15.521-4.984,2.061,1.441,2.419,3.687,3.49,5.918,1.444,3.012,3.041,5.657,4.282,8.8a114.618,114.618,0,0,1,5.832,20.787c1.066,5.765.578,11.962,1.4,17.764.276,1.947,1.21,4.543.327,6.542-.94,2.134-3.675,3.61-5.574,1.887,2.38,10.37,4.964,20.784,6.425,31.133.462,3.267-1.369,22.453,5.547,17.8,3.342,3.685,2.445,10.463,5.365,14.911,2.048,3.121,10.393,9.988,9.031,14.323-.664,2.116-4.634,1.646-6.867,1.869a17.641,17.641,0,0,1-3.419.311c-1.362-.109-2.775-1.08-4.065-.948-1.164.119-.92,1.458-2.477,1.524-.475.022-1.168-1.167-1.869-1.214-.873-.06-1.177.525-1.862.568-2.868.178-5.329,1.363-7.475-.242-2.758-2.061-1.073-2.668-4.7-1.949-2.046.407-4.4.524-6.525.946-4.241.841-8.816.233-10.956,4.687-2.332-.914-6.389,4.867-7.805-.529-1.679,1.306-2.834,3.1-5.157,3-.815-.034-1.685-1.031-2.562-1.174a17.7,17.7,0,0,0-3.753.3c-5.6.565-10.746.426-7.46-6.138,2.511-5.016-2.191-11.266-3.737-16.518-.653-2.222-1.978-5.168-1.489-7.476.653-3.072,2.519-3.591,2.181-6.922-.342-3.39-5.026-13.956-1.386-16.525,5.072-3.579,7.542,14.828,9.1,17.676,2.379-7.424.1-15.812,2.866-23.348,2.067-5.621,1.964-11.395,3.6-17.053,1.044-3.61,3.812-7.232,4.143-10.9.3-3.332.692-10.186-.709-13.308a19.272,19.272,0,0,1-2.734,3.651" transform="translate(0 -0.208)" fill="#fcb029"/>
    <path id="Path_626" data-name="Path 626" d="M375.914,243.012c2.49-7.467,15.93-23.9,25.888-18.42,4.479,2.489,5.476,11.947,6.969,16.428" transform="translate(-1.486 -0.237)" fill="none" stroke="#1a1818" stroke-miterlimit="10" stroke-width="0.799"/>
    <path id="Path_627" data-name="Path 627" d="M384.97,223.6c3.485,1.492,6.472,4.48,8.96,7.965" transform="translate(-2.079 -0.244)" fill="none" stroke="#1a1818" stroke-miterlimit="10" stroke-width="0.799"/>
    <path id="Path_628" data-name="Path 628" d="M388.7,220.406c3.484,1.992,6.471,4.481,7.467,8.464" transform="translate(-2.323 -0.035)" fill="none" stroke="#1a1818" stroke-miterlimit="10" stroke-width="0.799"/>
    <path id="Path_629" data-name="Path 629" d="M397.754,219.875c2.988,3.485,2.49,8.463,2.49,12.444" transform="translate(-2.916 0)" fill="none" stroke="#1a1818" stroke-miterlimit="10" stroke-width="0.799"/>
    <path id="Path_630" data-name="Path 630" d="M375.892,243.314c-5.475,3.982-22.4,38.831-12.445,43.311,3.484-2.987,9.957-11.451,10.454-16.428" transform="translate(-0.469 -1.534)" fill="none" stroke="#1a1818" stroke-miterlimit="10" stroke-width="0.799"/>
    <path id="Path_631" data-name="Path 631" d="M376.312,265.688c-1,1.991,0,6.969,0,9.957,0,4.48-2.988,10.951-1.493,14.934,3.983,13.441,11.451,0,15.931-.5,6.97-1,13.939,15.433,18.919,0,1.991-6.472-2.49-13.442-2.49-19.913" transform="translate(-1.387 -2.999)" fill="none" stroke="#1a1818" stroke-miterlimit="10" stroke-width="0.799"/>
    <path id="Path_632" data-name="Path 632" d="M411.072,241.183c3.983,6.97,5.476,23.4,6.971,33.356,0,1.991,1.991,9.956,0,11.947-2.49,1.992-4.979,0-5.477-2.489" transform="translate(-3.788 -1.395)" fill="none" stroke="#1a1818" stroke-miterlimit="10" stroke-width="0.799"/>
    <path id="Path_633" data-name="Path 633" d="M391.477,279.239c-2.49,0-4.48-.5-5.974-2.986,3.983,0,7.469-1.992,10.954-1a8.487,8.487,0,0,1-2.988,4.979c-.5-1-1.494-1-1.991-1.494" transform="translate(-2.114 -3.607)" fill="none" stroke="#1a1818" stroke-miterlimit="10" stroke-width="0.799"/>
    <path id="Path_634" data-name="Path 634" d="M382.306,256.064c.5-.5,0,2.489,1,4.978a21.2,21.2,0,0,0-1-5.476,14.7,14.7,0,0,0,1,4.978" transform="translate(-1.905 -2.336)" fill="none" stroke="#1a1818" stroke-miterlimit="10" stroke-width="0.799"/>
    <path id="Path_635" data-name="Path 635" d="M400.348,255.033a18.72,18.72,0,0,1-.5,4.977h0c0-.994.5-1.99.5-3.484a5.786,5.786,0,0,1-1,3.484" transform="translate(-3.021 -2.301)" fill="none" stroke="#1a1818" stroke-miterlimit="10" stroke-width="0.799"/>
    <path id="Path_636" data-name="Path 636" d="M392.855,286.463c0,1.492-.5,2.987-1.493,3.484" transform="translate(-2.497 -4.359)" fill="none" stroke="#1a1818" stroke-miterlimit="10" stroke-width="0.799"/>
    <path id="Path_637" data-name="Path 637" d="M386.035,295.52h9.458c-.5.994-1,.5-1.991.5" transform="translate(-2.149 -4.952)" fill="none" stroke="#1a1818" stroke-miterlimit="10" stroke-width="0.799"/>
    <path id="Path_638" data-name="Path 638" d="M390.3,297.65a1.513,1.513,0,0,0,1.991,0" transform="translate(-2.428 -5.091)" fill="none" stroke="#1a1818" stroke-miterlimit="10" stroke-width="0.799"/>
    <path id="Path_639" data-name="Path 639" d="M377.4,258.23c0,3.485-1.991,9.958-1.493,11.948" transform="translate(-1.481 -2.511)" fill="none" stroke="#1a1818" stroke-miterlimit="10" stroke-width="0.799"/>
    <path id="Path_640" data-name="Path 640" d="M408.9,252.369a22.519,22.519,0,0,1,.5,9.957c0,1.992-1.992,5.478-.5,3.486" transform="translate(-3.609 -2.127)" fill="none" stroke="#1a1818" stroke-miterlimit="10" stroke-width="0.799"/>
    <path id="Path_641" data-name="Path 641" d="M387.1,277.372s4.977-.5,7.467-.5h-4.48a20.844,20.844,0,0,0,4.977,1.992c-2.489-2.49-5.475-2.49-7.467,0,1.992,1.991,2.988.994,4.978.5" transform="translate(-2.218 -3.731)" fill="none" stroke="#1a1818" stroke-miterlimit="10" stroke-width="0.799"/>
    <path id="Path_642" data-name="Path 642" d="M389.754,278.473c-1,0,3.486.5,4.48.5a2.991,2.991,0,0,0-1.992-.5" transform="translate(-2.383 -3.836)" fill="none" stroke="#1a1818" stroke-miterlimit="10" stroke-width="0.799"/>
    <path id="Path_643" data-name="Path 643" d="M374.721,368.5c-3.983,7.467-1,21.9,5.476,8.462-1.492,4.979,3.486,8.463,4.979,2.49,1,.5,1.493,1,2.49,1.493a5.049,5.049,0,0,0,1.492-4.978" transform="translate(-1.29 -9.729)" fill="none" stroke="#1a1818" stroke-miterlimit="10" stroke-width="0.799"/>
    <path id="Path_644" data-name="Path 644" d="M427.5,366.9c0,2.489.5,13.94-3.982,5.975.5,4.481-9.458,6.472-7.966,1.991.5,4.48-2.488,3.984-4.481.5" transform="translate(-3.787 -9.624)" fill="none" stroke="#1a1818" stroke-miterlimit="10" stroke-width="0.799"/>
    <path id="Path_645" data-name="Path 645" d="M415.865,305.643c1.992,18.917,6.473,42.315,12.945,58.744" transform="translate(-4.101 -5.614)" fill="none" stroke="#1a1818" stroke-miterlimit="10" stroke-width="0.799"/>
    <path id="Path_646" data-name="Path 646" d="M402.549,314.7c1.492,15.433,1.492,32.857,5.974,47.294-1,3.486,2.987,9.459,1.493,10.455" transform="translate(-3.23 -6.207)" fill="none" stroke="#1a1818" stroke-miterlimit="10" stroke-width="0.799"/>
    <path id="Path_647" data-name="Path 647" d="M387.629,316.3c0,12.445-.5,26.384,1.992,38.831-1,3.484,3.983,16.428-1,15.931" transform="translate(-2.25 -6.312)" fill="none" stroke="#1a1818" stroke-miterlimit="10" stroke-width="0.799"/>
    <path id="Path_648" data-name="Path 648" d="M373.782,317.361c2.49,11.949.5,25.889.5,38.335,0,1.991-.5,12.942.5,10.952" transform="translate(-1.347 -6.381)" fill="none" stroke="#1a1818" stroke-miterlimit="10" stroke-width="0.799"/>
    <path id="Path_649" data-name="Path 649" d="M373.259,292.857c-3.983,4.978-4.978,23.4-5.975,31.364-.5,4.48-1.493,19.415-1.493,19.914" transform="translate(-0.824 -4.777)" fill="none" stroke="#1a1818" stroke-miterlimit="10" stroke-width="0.799"/>
    <path id="Path_650" data-name="Path 650" d="M368.052,350.067c-2.49-.5-5.975-5.477-9.459-4.48-9.957,3.484,1.992,21.407,4.481,26.385-3.983,1-9.459,4.977-3.486,8.463,1.493.994,7.467-1,9.459-1.493" transform="translate(-0.097 -8.221)" fill="none" stroke="#1a1818" stroke-miterlimit="10" stroke-width="0.799"/>
    <path id="Path_651" data-name="Path 651" d="M396.121,375.427h-.5" transform="translate(-2.776 -10.182)" fill="none" stroke="#1a1818" stroke-miterlimit="10" stroke-width="0.799"/>
    <path id="Path_652" data-name="Path 652" d="M396.13,375.427h0" transform="translate(-2.785 -10.182)" fill="none" stroke="#1a1818" stroke-miterlimit="10" stroke-width="0.799"/>
    <path id="Path_653" data-name="Path 653" d="M358.53,343.668c-1.992-2.491-8.463-19.914-1.992-19.914,2.987,0,5.476,15.931,6.97,18.421" transform="translate(-0.034 -6.8)" fill="none" stroke="#1a1818" stroke-miterlimit="10" stroke-width="0.799"/>
    <path id="Path_654" data-name="Path 654" d="M414.268,290.727a135.227,135.227,0,0,0,4.48,20.41c0,.5,0-1.493-.5-1,1.992,8.463,2.49,19.913,3.485,26.883" transform="translate(-3.997 -4.638)" fill="none" stroke="#1a1818" stroke-miterlimit="10" stroke-width="0.799"/>
    <path id="Path_655" data-name="Path 655" d="M391.1,376.7a64.246,64.246,0,0,0,11.948-.747" transform="translate(-2.48 -10.217)" fill="none" stroke="#1a1818" stroke-miterlimit="10" stroke-width="0.799"/>
    <path id="Path_656" data-name="Path 656" d="M398.289,375.8a12.039,12.039,0,0,0,6.72-2.24" transform="translate(-2.951 -10.06)" fill="none" stroke="#1a1818" stroke-miterlimit="10" stroke-width="0.799"/>
    <path id="Path_657" data-name="Path 657" d="M422.334,344.914a13.03,13.03,0,0,0,3.115-1.246c.311.311.935.311,1.246.622,0,6.542,4.05,13.084,8.411,18.068,2.181,2.8,7.476,7.476,3.116,10.591-2.181,1.558-7.165.311-9.969.623" transform="translate(-4.525 -8.104)" fill="none" stroke="#1a1818" stroke-miterlimit="10" stroke-width="0.799"/>
  </g>
</svg>
