<svg id="eIGLNS4ePX81" xmlns="http://www.w3.org/2000/svg" xmlns:xlink="http://www.w3.org/1999/xlink" viewBox="0 0 473 458.800000" shape-rendering="geometricPrecision" text-rendering="geometricPrecision"><style><![CDATA[#eIGLNS4ePX82_ts {animation: eIGLNS4ePX82_ts__ts 2000ms linear 1 normal forwards}@keyframes eIGLNS4ePX82_ts__ts { 0% {transform: translate(119.239374px,238.900000px) scale(0,0)} 50% {transform: translate(119.239374px,238.900000px) scale(0,0);animation-timing-function: cubic-bezier(0.230000,1,0.320000,1)} 100% {transform: translate(119.239374px,238.900000px) scale(1,1)}} #eIGLNS4ePX82 {animation: eIGLNS4ePX82_c_o 2000ms linear 1 normal forwards}@keyframes eIGLNS4ePX82_c_o { 0% {opacity: 0} 49.500000% {opacity: 0} 50% {opacity: 1} 100% {opacity: 1}} #eIGLNS4ePX818 {animation: eIGLNS4ePX818_c_o 2000ms linear 1 normal forwards}@keyframes eIGLNS4ePX818_c_o { 0% {opacity: 1} 15% {opacity: 1} 20% {opacity: 1} 25% {opacity: 0} 30.500000% {opacity: 1} 36% {opacity: 1} 40% {opacity: 0} 45% {opacity: 1} 50% {opacity: 1} 100% {opacity: 1}} #eIGLNS4ePX819 {animation: eIGLNS4ePX819_c_o 2000ms linear 1 normal forwards}@keyframes eIGLNS4ePX819_c_o { 0% {opacity: 1} 15% {opacity: 1} 20% {opacity: 1} 25% {opacity: 0} 30.500000% {opacity: 1} 36% {opacity: 1} 40% {opacity: 0} 45% {opacity: 1} 50% {opacity: 1} 100% {opacity: 1}}]]></style><g id="eIGLNS4ePX82_ts" transform="translate(119.239374,238.900000) scale(0,0)"><path id="eIGLNS4ePX82" d="M384.200000,38.400000L382.500000,39.100000L382.600000,37.600000C382.600000,37.300000,382.600000,37.400000,382.600000,37.400000L382.300000,36.900000L381.600000,35.800000C381.200000,35.100000,380.600000,34.400000,380.100000,33.700000C379.100000,32.300000,378,31,376.800000,29.600000C374.400000,26.900000,371.800000,24.400000,369,22.100000C363,17.200000,356.400000,13.200000,349.300000,10.100000C334.600000,3.600000,317.300000,0.300000,300.200000,0.300000C283.400000,0.200000,266.800000,3.300000,251.200000,9.600000C236.400000,15.700000,224.200000,24.800000,215.900000,35.500000L214,37.900000L210.700000,36.400000C201.600000,32.200000,191.800000,29.400000,181.900000,28C171.800000,26.500000,161.400000,26.800000,151.400000,28.800000C146.600000,29.800000,142,31.300000,137.600000,33.300000C133.700000,35.100000,130,37.500000,126.900000,40.500000C123.900000,43.400000,121.300000,46.600000,119.100000,50.100000C118,51.800000,116.900000,53.600000,115.900000,55.300000C114.900000,57,114.100000,58.700000,113.400000,60.500000L111.500000,65.400000L105.800000,62.300000C99.700000,59,91.400000,57.800000,83.400000,58.600000C75.400000,59.400000,67.800000,62.200000,62.500000,66.300000C57.100000,70.400000,54.300000,76,54.400000,81.800000C54.500000,87.600000,57.200000,93.500000,61.200000,98.900000L63.200000,101.700000L59.800000,103.700000C47.500000,110.800000,39.300000,121.400000,37.200000,132.700000C35,143.900000,38.900000,155.700000,48.900000,164.300000C54.300000,168.900000,60.400000,172.400000,67,174.800000C74.300000,177.500000,81.900000,179.300000,89.600000,180.300000C105.500000,182.500000,122.300000,182,138.700000,180.100000L144.600000,179.400000L145.300000,183.700000C145.700000,186.900000,145.700000,190.100000,145.100000,193.200000C144.600000,196.300000,143.800000,199.300000,142.700000,202.200000C140.500000,208.200000,137.400000,213.800000,133.700000,219C128.900000,225.600000,123.300000,231.700000,117.100000,236.900000C121.300000,236,125.500000,235.100000,129.600000,234C139.400000,231.500000,149.100000,228.200000,158.400000,224.100000C167.100000,220.300000,175.500000,215.600000,183.200000,210C186.800000,207.400000,190.100000,204.500000,193.200000,201.300000C196,198.500000,198.400000,195.300000,200.300000,191.700000L203.500000,185.100000L209.500000,190.600000C216.100000,196.600000,225,201.200000,235.100000,203.700000C245.500000,206.200000,256.300000,206.800000,267,205.500000C277.400000,204.400000,287.400000,201.300000,296.700000,196.500000C305.400000,191.900000,312.300000,185.600000,316.300000,178.300000L318.900000,173.700000L323.600000,177.300000C330.700000,182.700000,341.400000,185.400000,352.300000,186C363.200000,186.500000,374.200000,185.200000,384.700000,182.100000C395,179.100000,404.500000,174.600000,411.900000,168.700000C419.300000,162.800000,424.300000,155.400000,426.100000,147.600000L426.500000,146L428.600000,145.700000C438.600000,144.100000,448,140.400000,456.400000,134.700000C464.100000,129.300000,469.800000,122.400000,472.200000,114.800000C474.700000,107.100000,473.400000,98.700000,468.500000,92.200000C463.600000,85.200000,455.100000,79.700000,445.400000,75.900000L444.400000,75.500000L444.700000,74.800000C447.500000,69,448.200000,62.500000,446.500000,56.300000C444.500000,49.500000,440.100000,43.600000,434,39.900000C426.500000,35.700000,418.100000,33.500000,409.600000,33.400000C400.600000,33.400000,392.100000,35.100000,384.200000,38.400000Z" transform="translate(-119.239374,-236.900000)" opacity="0" fill="rgb(244,231,208)" stroke="rgb(57,62,63)" stroke-width="3"/></g><g id="eIGLNS4ePX83" transform="matrix(0.99863000000000 -0.05233600000000 0.05233600000000 0.99863000000000 -1.99500000000000 262.15499999999997)"><path id="eIGLNS4ePX84" d="M214.600000,44.700000C219.700000,46.300000,223.200000,52.700000,229,53C229.200000,49.900000,228.900000,46.600000,229.100000,43.500000C230.700000,44.400000,231.600000,46.900000,233.300000,48.200000C233.700000,44,232.500000,40.400000,231.200000,36.500000C232.900000,38.300000,233.500000,40.700000,235.500000,42.400000C233.100000,37.900000,229.700000,34.100000,226.500000,30.200000C228.400000,31.800000,234,33.200000,236.400000,32.800000C236.500000,27.200000,225.800000,26.800000,222.900000,23.700000C228.600000,22.800000,231.600000,22.700000,235.900000,18.900000C225.200000,14.500000,212.200000,15,201.400000,16.500000C202,12.500000,198.500000,11.100000,196.500000,8.200000C195.100000,6.200000,194.400000,3.700000,192.600000,2.100000C191.200000,5.700000,193.200000,10.200000,193.400000,13.900000C188.800000,9.300000,187.700000,3.800000,180.800000,0.800000C179.400000,3.300000,181.700000,5.700000,182.500000,8.100000C180,4.300000,175.200000,-0.100000,170.700000,-1C171.600000,4.100000,173.600000,7,176.600000,11.300000C172.800000,8.300000,169.300000,5,164.500000,3.800000C164.800000,7.400000,167.600000,10.900000,169.100000,14.200000C165,10.800000,158.800000,13.200000,153.900000,12.500000C149,11.700000,144.100000,11.400000,139.100000,11.700000C141.600000,15.200000,151.200000,19.300000,155.500000,20C150.900000,21.600000,145.800000,18.800000,141.900000,21.200000C136.800000,24.400000,140.400000,27.700000,145,26.100000C139.700000,27,137.500000,29,134.300000,33.100000C136.500000,33.700000,139.400000,33.100000,141.100000,34.400000C137.800000,35.600000,132.700000,37.100000,131.200000,40.600000C132.800000,42.600000,134,46.300000,136.700000,43.500000C136.200000,44,135.500000,45,135,45.500000C137.100000,44.600000,139.300000,43.900000,141.500000,43.400000C141.100000,46.400000,138.600000,48.400000,138,51.300000C137.600000,53,138,55.200000,138,56.900000C134.100000,56.300000,129.200000,56.700000,125.400000,55.600000C123.800000,55.100000,122.100000,53.600000,120.500000,53.100000C118.200000,52.400000,117.100000,52.800000,114.800000,52.700000C111.200000,52.500000,107.500000,51.500000,103.800000,51.300000C100.100000,51.100000,97.400000,52.600000,93.700000,52.700000C86.800000,52.900000,80.300000,53.300000,74.300000,57C67.700000,61,62.600000,67.600000,56.900000,72.600000C52.100000,76.800000,48.200000,78.100000,42.800000,80.100000C37.800000,82,33.200000,84.600000,27.900000,86C19.800000,88.200000,6.400000,89,2.900000,98.800000C4.600000,99,9.100000,97,10.300000,98C12.100000,99.400000,9.700000,101.800000,9.500000,103.700000C14.300000,104,18.600000,102.600000,23,102.900000C25.100000,103,27.600000,102.800000,29.600000,103.300000C31.600000,103.800000,32.500000,105.200000,34.300000,105.900000C37.800000,107.400000,44,107.100000,48,108.100000C52.100000,109.100000,57.800000,109.200000,61.100000,112.200000C60.300000,112.900000,60.100000,114.300000,59.500000,115.100000C64.400000,116.600000,69.800000,113.600000,68.300000,120.800000C71.400000,121,75.600000,120,78.300000,121.800000C77.600000,122.500000,76.900000,124,75.900000,124.700000C83.700000,125.100000,89.100000,127.300000,95.800000,131C100.400000,133.500000,105.600000,138.100000,111.300000,136.300000C116.900000,134.500000,120.800000,130.500000,116.200000,125.200000C113.200000,121.700000,102.100000,119.700000,102.600000,113.900000C107.200000,114.900000,110.800000,119.400000,115.700000,120.400000C119.800000,121.100000,123.900000,121.600000,128,121.700000C131.400000,121.900000,135.700000,120.900000,139,121.700000C142.200000,122.500000,144.700000,125.300000,147.800000,126.500000C154.300000,129.100000,161.800000,130.200000,168.400000,132.900000C175.300000,135.800000,181.500000,140.300000,189,141.400000C190.500000,141.600000,190.700000,142,192.100000,140.900000C195,143,195.400000,144.900000,199.100000,145.800000C201.400000,146.300000,205.300000,147.500000,204.900000,143.700000C206.700000,146.400000,208.400000,149.500000,212.200000,147.400000C215.900000,145.300000,212.900000,142.100000,215.300000,139.500000C218.400000,136.100000,228.700000,143.300000,233.300000,143C233.900000,141.200000,234,139.300000,233.800000,137.500000C235.800000,140.900000,239.700000,146.100000,241,140C241.900000,135.800000,239.400000,131.400000,236.600000,128.500000C230.400000,122.100000,224.500000,123.800000,216.700000,121.600000C213.300000,120.600000,208.300000,119.300000,207.400000,115.500000C206.800000,112.900000,208.600000,107.800000,208.300000,104.500000C208,101.400000,206,96.900000,206.500000,94C206.700000,92.800000,208.400000,91.100000,208.800000,89.700000C209.100000,88.500000,207.900000,83.900000,209.100000,83.100000C212.800000,80.500000,213.200000,94,217.600000,86.200000C219.500000,82.800000,218.400000,77.400000,218.600000,73.600000C218.800000,69.800000,218.600000,65.900000,218,62.100000C217.500000,58.900000,218.600000,53.700000,216.700000,51.100000" fill="rgb(209,226,224)" stroke="none" stroke-width="1"/><path id="eIGLNS4ePX85" d="M201,17C201,14.200000,194.700000,5.100000,191.900000,0.200000C191.300000,4.700000,191.800000,9.300000,193.300000,13.500000C190.500000,7.200000,184.900000,1.600000,177.900000,0.900000C179.600000,4.600000,182,7.900000,184.900000,10.700000C179.300000,7.200000,174.400000,3,168.800000,0.200000C170.900000,4.400000,174.400000,8.600000,175.800000,12.800000L163.200000,4.400000C163.900000,7.100000,165.100000,9.800000,166.700000,12.100000" fill="none" stroke="rgb(26,24,24)" stroke-width="0.799000" stroke-miterlimit="10"/><path id="eIGLNS4ePX86" d="M201,17C212.200000,12.100000,224.900000,12.800000,236.100000,19.100000C231.200000,19.100000,225.600000,21.200000,220.700000,22.600000C226.300000,24,233.300000,27.500000,236.800000,31.700000C233,31.700000,229.200000,31,225.600000,29.600000C229.100000,34.500000,232.600000,39.400000,236.100000,43.600000C234.700000,42.200000,231.900000,40.800000,229.800000,38.700000C231.200000,41.500000,231.900000,45.700000,233.300000,47.800000C231.200000,47.800000,229.800000,46.400000,228.400000,45.700000" fill="none" stroke="rgb(26,24,24)" stroke-width="0.799000" stroke-miterlimit="10"/><path id="eIGLNS4ePX87" d="M165.200000,14.200000C159.600000,10.700000,144.200000,9.300000,137.800000,12.100000C142.700000,15.600000,150.400000,17.700000,156,20.500000C150.400000,18.400000,141.300000,17,139.200000,24C142,24,142.700000,24.700000,146.200000,24C140.800000,24.200000,135.900000,27.500000,133.600000,32.400000C136.400000,32.400000,137.800000,33.100000,140.600000,31.700000C135.700000,34.500000,129.400000,38.700000,130.800000,44.300000C133.600000,43.600000,137.100000,43.600000,140.600000,41.500000C139.900000,42.900000,139.900000,44.300000,139.200000,45C141.300000,45,142,44.300000,144.100000,42.900000" fill="none" stroke="rgb(26,24,24)" stroke-width="0.799000" stroke-miterlimit="10"/><path id="eIGLNS4ePX88" d="M227.600000,44.300000C228.200000,47.500000,228.400000,50.800000,228.300000,54.100000C224.300000,51.300000,220,48.700000,215.700000,46.400000" fill="none" stroke="rgb(26,24,24)" stroke-width="0.799000" stroke-miterlimit="10"/><path id="eIGLNS4ePX89" d="M214.300000,46.400000C218.500000,55.500000,219.900000,79.400000,213.600000,88.500000L213.600000,88.500000C212.100000,85.600000,211,82.500000,210.100000,79.400000C208.700000,84.300000,208.700000,91.300000,205.200000,95.500000C202.400000,90.600000,202.400000,85.700000,202.400000,80.100000C202.400000,83.600000,201,92.700000,198.200000,97.600000L197.500000,97.600000C196.100000,92.700000,197.500000,87.100000,194.700000,82.900000C191.200000,89.900000,191.900000,99,187.700000,104.600000C186.300000,98.300000,187.700000,92,184.900000,85.700000C182.800000,90.600000,182.800000,96.200000,179.300000,100.400000C177.200000,96.200000,177.200000,90.600000,177.200000,85.700000C174.400000,89.900000,173,102.500000,166.700000,98.300000" fill="none" stroke="rgb(26,24,24)" stroke-width="0.799000" stroke-miterlimit="10"/><path id="eIGLNS4ePX810" d="M165.900000,98.300000C166.600000,93.400000,165.200000,89.200000,163.800000,84.300000C162.400000,89.200000,161,94.800000,157.500000,98.300000L156.800000,97.600000C156.800000,93.400000,158.200000,89.200000,158.900000,85C156.100000,88.500000,153.300000,92,148.400000,93.400000C147.700000,89.900000,148.400000,85.700000,149.800000,81.500000C148.400000,84.300000,145.600000,85.700000,143.500000,87.100000C143.300000,83.800000,144.300000,80.600000,146.300000,78" fill="none" stroke="rgb(26,24,24)" stroke-width="0.799000" stroke-miterlimit="10"/><path id="eIGLNS4ePX811" d="M146.300000,76.600000C145,80.800000,140.800000,83.500000,136.500000,82.900000C136.500000,78,140,73.800000,142.100000,69.600000C140.900000,71.400000,139.500000,73,137.900000,74.500000C134.400000,67.500000,140.700000,52.800000,142.800000,45" fill="none" stroke="rgb(26,24,24)" stroke-width="0.799000" stroke-miterlimit="10"/><path id="eIGLNS4ePX812" d="M178.500000,68.200000C183.400000,68.900000,186.900000,66.100000,189.700000,62.600000C183.400000,55.600000,175,59.100000,166.600000,59.100000C169.400000,64,175,66.800000,180.600000,68.200000" fill="none" stroke="rgb(26,24,24)" stroke-width="0.799000" stroke-miterlimit="10"/><path id="eIGLNS4ePX813" d="M186.200000,60.500000C187.600000,61.900000,189,61.200000,189,64C185.500000,63.300000,182.700000,63.300000,179.900000,60.500000C182.200000,61.900000,184.300000,63.600000,186.200000,65.400000C182.500000,64.600000,178.900000,63.200000,175.700000,61.200000C177.800000,62.600000,179.900000,64.700000,182,66.100000C178.500000,67.500000,174.300000,66.100000,171.500000,62.600000C174.700000,64.400000,177.600000,66.700000,179.900000,69.600000C176.400000,68.200000,172.900000,64.700000,172.900000,64" fill="none" stroke="rgb(26,24,24)" stroke-width="0.799000" stroke-miterlimit="10"/><path id="eIGLNS4ePX814" d="" fill="none" stroke="rgb(26,24,24)" stroke-width="0.799000" stroke-miterlimit="10"/><path id="eIGLNS4ePX815" d="M219.200000,38.700000C208,38.700000,196.800000,33.800000,186.200000,36.600000L186.200000,36.600000C182,52,194,65.400000,210.800000,60.500000C212.200000,53.500000,213.600000,45.100000,211.500000,38.800000" fill="none" stroke="rgb(26,24,24)" stroke-width="0.799000" stroke-miterlimit="10"/><path id="eIGLNS4ePX816" d="M185.500000,42.200000C182.700000,39.400000,178.400000,38.800000,175,40.800000" fill="none" stroke="rgb(26,24,24)" stroke-width="0.799000" stroke-miterlimit="10"/><path id="eIGLNS4ePX817" d="M172.900000,37.300000C172.900000,49.900000,167.300000,61.200000,153.300000,57.600000C143.500000,55.500000,144.900000,47.800000,144.900000,38C148.400000,33.100000,168,37.300000,174.400000,35.900000" fill="none" stroke="rgb(26,24,24)" stroke-width="0.799000" stroke-miterlimit="10"/><path id="eIGLNS4ePX818" d="M198.900000,45.700000C198.900000,46.400000,198.900000,47.800000,199.600000,47.100000L199.600000,46.400000L198.900000,46.400000C199,48.100000,198.800000,49.700000,198.200000,51.300000L198.200000,46.400000C198.900000,47.800000,198.200000,49.200000,198.200000,50.600000" fill="none" stroke="rgb(26,24,24)" stroke-width="0.799000" stroke-miterlimit="10"/><path id="eIGLNS4ePX819" d="M159.600000,47.800000C159.600000,48.500000,158.900000,50.600000,158.900000,52C158.200000,51.300000,156.800000,48.500000,157.500000,50.600000" fill="none" stroke="rgb(26,24,24)" stroke-width="0.799000" stroke-miterlimit="10"/><path id="eIGLNS4ePX820" d="M175,116.600000C189,118,203.100000,125.700000,215,132C216.400000,136.900000,215,146,214.300000,148.800000" fill="none" stroke="rgb(26,24,24)" stroke-width="0.799000" stroke-miterlimit="10"/><path id="eIGLNS4ePX821" d="M213.600000,148.800000C211.500000,148.800000,207.300000,145.300000,205.200000,142.500000C205.200000,145.300000,203.800000,146,203.800000,148.100000C199.600000,144.600000,194,146,192.600000,139.700000C192.600000,141.100000,191.900000,142.500000,191.900000,143.900000C189,143.200000,186.300000,141.800000,184.200000,139.700000" fill="none" stroke="rgb(26,24,24)" stroke-width="0.799000" stroke-miterlimit="10"/><path id="eIGLNS4ePX822" d="M184.800000,139.700000C176.400000,138.300000,170.800000,130.600000,162.400000,131.300000C162.800000,131.300000,163.100000,131.600000,163.100000,132C163.100000,132,163.100000,132,163.100000,132C156.800000,129.900000,147.700000,129.200000,142.800000,125.700000" fill="none" stroke="rgb(26,24,24)" stroke-width="0.799000" stroke-miterlimit="10"/><path id="eIGLNS4ePX823" d="M215.700000,87.800000C216.400000,87.800000,216.400000,87.800000,216.400000,89.200000" fill="none" stroke="rgb(26,24,24)" stroke-width="0.799000" stroke-miterlimit="10"/><path id="eIGLNS4ePX824" d="M200.300000,100.400000C198.900000,103.900000,197.500000,107.400000,195.400000,110.200000C196.100000,109.500000,197.500000,108.100000,198.200000,107.400000C196.800000,111.600000,194.700000,115.800000,191.200000,115.800000C190.500000,117.900000,190.500000,116.500000,189.800000,115.800000" fill="none" stroke="rgb(26,24,24)" stroke-width="0.799000" stroke-miterlimit="10"/><path id="eIGLNS4ePX825" d="M207.300000,95.500000C207.300000,102.500000,207.300000,111.600000,202.400000,116.500000C203.200000,115.200000,203.700000,113.800000,203.800000,112.300000C214.300000,129.100000,246.600000,118.600000,241,144.600000C238.200000,143.200000,235.400000,139.700000,233.300000,136.200000C234,139,234,142.500000,235.400000,144.600000C229.800000,139.700000,222.100000,143.900000,219.300000,137.600000" fill="none" stroke="rgb(26,24,24)" stroke-width="0.799000" stroke-miterlimit="10"/><path id="eIGLNS4ePX826" d="M140.600000,52C139.200000,53.400000,133.600000,58.300000,128.700000,58.300000C130.100000,57.600000,132.200000,54.800000,132.900000,54.100000C129.400000,54.100000,125.200000,55.500000,121,56.200000" fill="none" stroke="rgb(26,24,24)" stroke-width="0.799000" stroke-miterlimit="10"/><path id="eIGLNS4ePX827" d="M124.500000,54.800000C125.200000,54.100000,125.900000,54.100000,126.600000,52.700000C122.400000,52.700000,118.200000,53.400000,114,52.700000L114,52C115.100000,51.800000,116,51.300000,116.800000,50.600000C110.500000,51.200000,104.200000,51.400000,97.900000,51.300000C94.800000,51.200000,91.800000,51.400000,88.800000,52" fill="none" stroke="rgb(26,24,24)" stroke-width="0.799000" stroke-miterlimit="10"/><path id="eIGLNS4ePX828" d="M88,53.400000C87.300000,52.700000,87.300000,52.700000,86.600000,52.700000" fill="none" stroke="rgb(26,24,24)" stroke-width="0.799000" stroke-miterlimit="10"/><path id="eIGLNS4ePX829" d="M88,53.400000C87.300000,52.700000,86.600000,52.700000,85.200000,52.700000" fill="none" stroke="rgb(26,24,24)" stroke-width="0.799000" stroke-miterlimit="10"/><path id="eIGLNS4ePX830" d="M85.200000,52C84.100000,52,83.100000,52.500000,82.400000,53.400000" fill="none" stroke="rgb(26,24,24)" stroke-width="0.799000" stroke-miterlimit="10"/><path id="eIGLNS4ePX831" d="M85.200000,52C82.500000,53.500000,79.700000,54.600000,76.800000,55.500000" fill="none" stroke="rgb(26,24,24)" stroke-width="0.799000" stroke-miterlimit="10"/><path id="eIGLNS4ePX832" d="M82.400000,82.900000C90.100000,82.200000,97.100000,87.800000,99.200000,94.800000C100.600000,100.800000,100.600000,107,99.200000,113L99.200000,113L99.200000,111.600000L98.500000,111.600000C102,115.800000,104.800000,120,109.700000,122.100000C109.700000,121.400000,108.300000,121.400000,108.300000,121.400000C114.600000,121.400000,121.600000,125.600000,119.500000,131.200000C115.900000,132.100000,112.400000,133.200000,109,134.700000" fill="none" stroke="rgb(26,24,24)" stroke-width="0.799000" stroke-miterlimit="10"/><path id="eIGLNS4ePX833" d="M108.400000,134.100000C111.200000,132.700000,102.100000,134.800000,99.300000,132C100.700000,132,102.100000,130.600000,103.500000,129.900000C99.500000,130,95.500000,129.800000,91.600000,129.200000C91.600000,128.500000,93,128.500000,93,128.500000C87.400000,126.400000,81.100000,125.700000,74.800000,124.300000L74.800000,123.600000C76.900000,123.600000,79.700000,122.200000,81.800000,122.200000C77.600000,120.100000,71.300000,120.100000,66.400000,118C67.800000,117.300000,69.200000,115.200000,71.300000,114.500000C67.400000,113.900000,63.400000,113.700000,59.400000,113.800000C60.100000,113.100000,61.500000,111.700000,62.200000,111C60.200000,109.900000,58,109,55.900000,108.200000" fill="none" stroke="rgb(26,24,24)" stroke-width="0.799000" stroke-miterlimit="10"/><path id="eIGLNS4ePX834" d="M74,56.900000C71.200000,59.700000,62.800000,63.900000,59.300000,68.100000C55.800000,71.600000,55.100000,77.900000,49.500000,80.700000C50.200000,80,50.900000,77.900000,51.600000,76.500000C48,79.200000,44.700000,82.200000,41.800000,85.600000" fill="none" stroke="rgb(26,24,24)" stroke-width="0.799000" stroke-miterlimit="10"/><path id="eIGLNS4ePX835" d="M42.400000,82.200000C43.800000,77.300000,34,85,31.200000,87.100000C33,85.900000,34.600000,84.500000,36.100000,82.900000C31.900000,85,25.600000,89.200000,23.500000,87.800000" fill="none" stroke="rgb(26,24,24)" stroke-width="0.799000" stroke-miterlimit="10"/><path id="eIGLNS4ePX836" d="M24.200000,85C19.300000,87.100000,13.700000,88.500000,8.800000,90.600000C6.700000,92.700000,3.900000,95.500000,1.100000,96.900000C2.500000,96.900000,4.600000,97.600000,5.300000,97.600000C4.600000,98.300000,2.500000,99.700000,1.800000,101.100000C5.300000,101.800000,9.500000,100.400000,13,99C11.600000,100.400000,10.200000,103.200000,8.800000,104.600000C17.200000,104.600000,25.600000,98.300000,33.400000,102.500000C32.700000,103.900000,32,104.600000,32,106C39,106.700000,50.200000,106,55.800000,109.500000" fill="none" stroke="rgb(26,24,24)" stroke-width="0.799000" stroke-miterlimit="10"/><path id="eIGLNS4ePX837" d="M142.800000,103.200000C144.900000,106.700000,142.100000,110.900000,140,115.100000C140.700000,114.300000,141.200000,113.300000,141.400000,112.300000C140,117.900000,142.100000,122.800000,144.900000,122.800000" fill="none" stroke="rgb(26,24,24)" stroke-width="0.799000" stroke-miterlimit="10"/><path id="eIGLNS4ePX838" d="M141.300000,122.200000C140.600000,122.200000,132.200000,120.800000,129.400000,120.800000C131.500000,120.100000,132.900000,119.400000,135.700000,119.400000L135,119.400000C130.100000,120.100000,124.500000,122.200000,119.600000,119.400000" fill="none" stroke="rgb(26,24,24)" stroke-width="0.799000" stroke-miterlimit="10"/><path id="eIGLNS4ePX839" d="M129.400000,111C125.200000,113.100000,121,115.200000,116.800000,115.900000" fill="none" stroke="rgb(26,24,24)" stroke-width="0.799000" stroke-miterlimit="10"/><path id="eIGLNS4ePX840" d="M119.600000,114.500000C116.800000,115.100000,114,115.300000,111.200000,115.200000" fill="none" stroke="rgb(26,24,24)" stroke-width="0.799000" stroke-miterlimit="10"/><path id="eIGLNS4ePX841" d="M111.200000,113.100000C109.100000,113.100000,107,113.100000,105.600000,111.700000" fill="none" stroke="rgb(26,24,24)" stroke-width="0.799000" stroke-miterlimit="10"/><path id="eIGLNS4ePX842" d="" fill="none" stroke="rgb(26,24,24)" stroke-width="0.799000" stroke-miterlimit="10"/></g></svg>