<svg xmlns="http://www.w3.org/2000/svg" width="222.452" height="228.525" viewBox="0 0 222.452 228.525">
  <g id="Group_380" data-name="Group 380" transform="translate(-334.935 -245.224)">
    <path id="Path_658" data-name="Path 658" d="M403.606,310.625c.376-15.173-4.384-9.043-14.473-5.741-6.484,2.117-15.442,4.461-21.464,2.119-11.459-4.456-22.639-22.533-29.552-32.078,11.227-10.874,30.335-3.29,43-1.084-3.995-3.624-9.133-7.674-11.161-12.256,12.13-1.673,21.026,11.325,32.73,11.41,8.827.064,18.66-8.136,29.034-3.856-3.628,1.789-7.879,3.6-9.878,7.711,17.738,17.454,38.224-1.175,54.128-11.574,17.688-11.565,37.651-16,57.764-19.176-1.519,2.538-3.29,5.085-6.291,6.681,5.013-.884,11.242-4.159,15.191-.044-1.135,1.663-1.675,4.2-2.844,5.637.77-.479,1.858-1.177,2.626-1.681a47.256,47.256,0,0,0-5.55,9.384c.718.261,1.4-.143,1.957.042-6.355,9.506-14.791,20.517-23.083,28.073-8.329,7.591-15.005,6.366-26.121,6.928-.272,5.378.961,12.265-1.326,17.008-3.205,6.658-7.236,4.334-12.377,6.918-17.464,8.776,7.972,13.444-.791,22.435,12.669,16.974,23.774,39.563,30.748,59.628,2.256,6.492,1.546,26.325,7.674,29.743,8.742,4.871,22.153-9.776,25.9-15.941a20.907,20.907,0,0,1-1.374,12.1c6.416-2.171,12.35-2.925,18.016-6.536,4.475,16.927-28.116,26.854-39.652,28.847a34.669,34.669,0,0,0-11.291,4.157c-2.073,1.185-3.1,3.713-5.01,4.786-3.192,1.8-3.566-.363-6.829.928-8.292,3.279-16.509,4.228-24.9,6.439.494-11.814-6.44-10.108-12.011-18.909-4.975-7.862-6.459-17.624-10.613-26.24-6.038,9.593,7.213,39.555-5.239,46.52-2.437,1.362-16.252-2.018-18.834-2.912-1.773-.616-7.366-3.771-8.226-5.338-3.952-7.19.085-3.688,3.618-7.468,3.261-3.491,3.977-.548,5.789-6.758.974-3.34.181-8.994,0-12.491-.44-8.379-2.839-16.024-2.895-24.174-.11-15.93,1.137-31.879,1.93-47.278a97.508,97.508,0,0,0-.168-10.445c-6.2-3.288-.562-18.535,1.036-24.166-4.342,1.125-9.294,2.389-13.267,4.627.17-1.393-.473-3.263-.291-4.651-2.7,1.281-5.6,2.157-7.811,4.365-1.553-4.527-6.092-5.139-10.251-5.382,1.573-5.839,7.47-9.62,7.6-16.451" transform="translate(0.772 0.091)" fill="#f2e0c5"/>
    <path id="Path_659" data-name="Path 659" d="M395.909,270.533c-10.28-10.28-28.784-16.449-43.175-15.42a179.2,179.2,0,0,0,14.392,12.335c-2.055,0-4.112,0-5.139-1.027" transform="translate(14.362 8.366)" fill="none" stroke="#1a1818" stroke-miterlimit="10" stroke-width="0.799"/>
    <path id="Path_660" data-name="Path 660" d="M375.321,263c-8.224-2.055-18.5-5.139-26.729-4.112a3.783,3.783,0,0,1,3.086,1.027c-4.112,1.03-9.251,3.086-14.392,3.086h0c20.559,7.2,29.81,49.343,56.539,28.784" transform="translate(0 11.788)" fill="none" stroke="#1a1818" stroke-miterlimit="10" stroke-width="0.799"/>
    <path id="Path_661" data-name="Path 661" d="M403.342,269.648c3.082,1.027,7.2,1.027,10.28,1.027h-2.057v-1.027c20.561-15.42,40.092-18.506,63.737-23.645-4.112,3.086-9.253,6.167-14.394,9.251a46.581,46.581,0,0,1,16.447-3.084c1.029,0-1.027,2.057-1.027,2.057h7.2c-4.112,4.11-9.251,8.223-13.363,13.363,2.055-1.029,6.167,0,8.223-1.029-7.194,8.224-15.418,20.559-22.614,27.757-10.28,9.251-16.449,7.2-30.841,6.165" transform="translate(61.413 0)" fill="none" stroke="#1a1818" stroke-miterlimit="10" stroke-width="0.799"/>
    <path id="Path_662" data-name="Path 662" d="M365.519,278.88c2.057-2.055,8.224-3.082,11.308-4.11v2.055s3.084,2.055,3.084,3.086h0c-6.167,7.194-10.28,15.418-13.363,24.669,3.084-2.057,7.2-3.086,10.28-5.139-1.027,2.053,0,7.194-2.055,10.278,4.11-3.084,9.251-4.112,14.39-6.167-1.027,2.055-1.027,3.084-2.055,5.141,3.086-2.057,9.253-3.086,12.337-5.141h-1.029c1.029,7.2-5.139,14.392-4.112,22.614,5.141,2.059,10.282,2.059,15.42-1.027" transform="translate(26.249 26.745)" fill="none" stroke="#1a1818" stroke-miterlimit="10" stroke-width="0.799"/>
    <path id="Path_663" data-name="Path 663" d="M386.827,326.206c4.114,1.029,37.008-3.084,46.261-7.2-1.027-6.169-6.169-12.337-11.31-15.42h0v-1.029c4.114-2.057,17.477-3.082,20.561-9.251,3.084-5.141-3.084-13.365-3.084-17.476" transform="translate(46.059 27.735)" fill="none" stroke="#1a1818" stroke-miterlimit="10" stroke-width="0.799"/>
    <path id="Path_664" data-name="Path 664" d="M395.658,295.207c2.057,0-2.055,0-6.167-3.084a20.3,20.3,0,0,1,14.392-6.167,29.13,29.13,0,0,1-4.112,13.363c-1.027-1.027-5.139-4.112-6.167-6.167,3.084-1.029,5.141-3.082,8.224-3.082v-1.029c-2.057,0-4.112,0-5.141,1.029,0-1.029,1.029-4.114,2.057-4.114,3.084,2.055,0,1.029-1.029,2.055" transform="translate(48.536 37.145)" fill="none" stroke="#1a1818" stroke-miterlimit="10" stroke-width="0.799"/>
    <path id="Path_665" data-name="Path 665" d="M382.033,280.479c0-2.053,2.057-2.053,0-4.112,1.029,2.059,2.057,6.169,3.084,8.224-1.027-2.055-1.027-5.141-2.055-7.2a70.808,70.808,0,0,0,3.084,8.224" transform="translate(41.602 28.23)" fill="none" stroke="#1a1818" stroke-miterlimit="10" stroke-width="0.799"/>
    <path id="Path_666" data-name="Path 666" d="M400.107,276.825c0-2.055-1.027,7.2-1.027,9.251,1.027-4.112,2.055-7.2,3.086-11.306-1.03,2.055-1.03,5.141-2.059,7.194" transform="translate(57.451 26.745)" fill="none" stroke="#1a1818" stroke-miterlimit="10" stroke-width="0.799"/>
    <path id="Path_667" data-name="Path 667" d="M383.631,278.472c1.029-4.11,1.029,5.141,1.029,5.141" transform="translate(43.088 29.208)" fill="none" stroke="#1a1818" stroke-miterlimit="10" stroke-width="0.799"/>
    <path id="Path_668" data-name="Path 668" d="M381.5,276.842c20.559,5.141,18.5,18.5,39.061,1.03a15.129,15.129,0,0,1-14.39-11.31c6.167-3.084,10.278,3.086,13.363,9.251-3.086-4.112-7.2-8.223-10.28-13.363,6.167-4.112,11.306-12.333,18.5-16.447,10.28,17.475,6.167,20.559-9.251,29.81h-1.03c-1.029-6.165-4.11-12.335-10.28-14.39-4.112,10.278-21.588,8.224-25.7,16.449" transform="translate(41.107 0)" fill="none" stroke="#1a1818" stroke-miterlimit="10" stroke-width="0.799"/>
    <path id="Path_669" data-name="Path 669" d="M374.042,261.689a21.766,21.766,0,0,1,19.533-4.11h0q1.543,1.543,3.086,3.084" transform="translate(34.173 10.012)" fill="none" stroke="#1a1818" stroke-miterlimit="10" stroke-width="0.799"/>
    <path id="Path_670" data-name="Path 670" d="M397.751,294.48c1.029,6.167-1.027,11.308-7.194,11.308" transform="translate(49.526 45.07)" fill="none" stroke="#1a1818" stroke-miterlimit="10" stroke-width="0.799"/>
    <path id="Path_671" data-name="Path 671" d="M394.818,296.078c0,4.112,0,8.224,1.029,8.224" transform="translate(53.488 46.555)" fill="none" stroke="#1a1818" stroke-miterlimit="10" stroke-width="0.799"/>
    <path id="Path_672" data-name="Path 672" d="M388.426,301.938c1.029,11.308,23.643,20.559,21.586,0" transform="translate(47.546 52.003)" fill="none" stroke="#1a1818" stroke-miterlimit="10" stroke-width="0.799"/>
    <path id="Path_673" data-name="Path 673" d="M408.668,299.273c0,1.03,0,1.03,1.029,1.03" transform="translate(66.365 49.526)" fill="none" stroke="#1a1818" stroke-miterlimit="10" stroke-width="0.799"/>
    <path id="Path_674" data-name="Path 674" d="M387.576,300.872c1.027,28.784-5.141,55.512,1.027,83.267,2.057,9.251,5.141,17.476,1.03,25.7-6.169-2.059-8.224,0-13.365,1.025-1.027,6.167,2.057,6.167,7.2,7.2" transform="translate(36.06 51.012)" fill="none" stroke="#1a1818" stroke-miterlimit="10" stroke-width="0.799"/>
    <path id="Path_675" data-name="Path 675" d="M388.2,359.47c-3.084,0-6.167,2.055-6.167,8.222,4.11,0,6.167-1.027,9.251-3.084" transform="translate(41.602 105.492)" fill="none" stroke="#1a1818" stroke-miterlimit="10" stroke-width="0.799"/>
    <path id="Path_676" data-name="Path 676" d="M389.418,366.443c-1.029,2.051-2.059,3.084-2.059,5.137,12.337,5.141,13.365-10.278,12.337-18.5" transform="translate(46.554 99.549)" fill="none" stroke="#1a1818" stroke-miterlimit="10" stroke-width="0.799"/>
    <path id="Path_677" data-name="Path 677" d="M396.723,320.582c-1.027,1.029-5.139,12.337-6.167,17.477,2.057-2.057,5.141-3.084,7.2-5.141-2.055,4.11-2.055,9.253-4.112,13.363,2.057-1.029,3.084-2.057,5.141-3.082-1.029,2.053-1.029,4.11-2.057,6.165H395.7c2.055,9.253,7.194,18.5,11.306,26.73" transform="translate(49.525 69.337)" fill="none" stroke="#1a1818" stroke-miterlimit="10" stroke-width="0.799"/>
    <path id="Path_678" data-name="Path 678" d="M403.874,320.582c0,26.729,17.476,61.679,0,81.21,4.112,2.055,7.2,1.029,11.306-2.053" transform="translate(61.908 69.337)" fill="none" stroke="#1a1818" stroke-miterlimit="10" stroke-width="0.799"/>
    <path id="Path_679" data-name="Path 679" d="M411.163,365.071c-1.031,1.025-4.112,1.025,1.029,4.108,1.027-2.055,4.11-5.141,6.167-7.192,0,1.025,1.027,4.108,1.027,5.137,5.141-2.053,7.2-5.137,8.224-9.253" transform="translate(66.956 104.005)" fill="none" stroke="#1a1818" stroke-miterlimit="10" stroke-width="0.799"/>
    <path id="Path_680" data-name="Path 680" d="M414.492,327.358c0-1.029,0-3.084-1.029-4.112,1.029,16.449,5.139,34.951,9.251,50.373a10.383,10.383,0,0,1-1.029-3.086c0,3.086,5.141,27.753,2.057,18.5" transform="translate(70.823 71.814)" fill="none" stroke="#1a1818" stroke-miterlimit="10" stroke-width="0.799"/>
    <path id="Path_681" data-name="Path 681" d="M410.8,300.34c16.445,19.531,28.782,56.539,32.894,81.21l-2.057-2.055c3.086,7.2,4.112,8.222,4.112,7.2" transform="translate(68.347 50.518)" fill="none" stroke="#1a1818" stroke-miterlimit="10" stroke-width="0.799"/>
    <path id="Path_682" data-name="Path 682" d="M431,349.966c3.084,12.335,19.533-7.2,25.7-12.337h0c2.057,5.141,0,10.282-4.112,14.394a101.93,101.93,0,0,0,17.477-11.308c6.167,14.39-28.784,34.951-40.092,27.755" transform="translate(86.176 85.186)" fill="none" stroke="#1a1818" stroke-miterlimit="10" stroke-width="0.799"/>
    <path id="Path_683" data-name="Path 683" d="M422.293,332.835c-4.11,2.055-6.167,8.224-6.167,13.365" transform="translate(73.299 80.729)" fill="none" stroke="#1a1818" stroke-miterlimit="10" stroke-width="0.799"/>
    <path id="Path_684" data-name="Path 684" d="M398.547,350.414c1.027,0,6.167,6.169,10.28,9.253" transform="translate(56.955 97.072)" fill="none" stroke="#1a1818" stroke-miterlimit="10" stroke-width="0.799"/>
    <path id="Path_685" data-name="Path 685" d="M393.544,340.293c0,5.141-2.057,26.729,1.027,21.588" transform="translate(51.679 87.663)" fill="none" stroke="#1a1818" stroke-miterlimit="10" stroke-width="0.799"/>
    <path id="Path_686" data-name="Path 686" d="M393.752,350.947a22.439,22.439,0,0,0,5.141,3.084" transform="translate(52.497 97.568)" fill="none" stroke="#1a1818" stroke-miterlimit="10" stroke-width="0.799"/>
    <path id="Path_687" data-name="Path 687" d="M398.015,354.144c2.053,3.082,5.139,5.139,7.194,3.082" transform="translate(56.461 100.54)" fill="none" stroke="#1a1818" stroke-miterlimit="10" stroke-width="0.799"/>
    <path id="Path_688" data-name="Path 688" d="M353.8,264.116c7.194,3.086,16.445,5.139,23.643,9.251V274.4c-6.169,0-12.337-2.057-17.475-4.11,2.053,1.027,3.084,1.027,5.139,2.053" transform="translate(15.354 16.84)" fill="none" stroke="#1a1818" stroke-miterlimit="10" stroke-width="0.799"/>
    <path id="Path_689" data-name="Path 689" d="M415.061,269.5c4.112-6.165,16.449-12.335,20.561-9.249" transform="translate(72.309 12.483)" fill="none" stroke="#1a1818" stroke-miterlimit="10" stroke-width="0.799"/>
    <path id="Path_690" data-name="Path 690" d="M430.632,260.92c-4.114,2.053-8.224,4.112-11.308,8.224,3.084-1.031,8.222-2.057,11.308-4.112-1.03,2.055-2.057,1.027-4.114,2.055" transform="translate(76.271 13.869)" fill="none" stroke="#1a1818" stroke-miterlimit="10" stroke-width="0.799"/>
    <line id="Line_18" data-name="Line 18" x2="1.541" y2="1.543" transform="translate(505.36 451.082)" fill="none" stroke="#1a1818" stroke-miterlimit="10" stroke-width="0.799"/>
    <path id="Path_691" data-name="Path 691" d="M428.1,352.277c4.624,1.544,3.082,6.171,9.251,4.629h-1.542c-4.627,3.082-10.795,7.709-15.42,10.793,0-3.084,3.084-7.711,4.626-10.793" transform="translate(77.261 98.804)" fill="none" stroke="#1a1818" stroke-miterlimit="10" stroke-width="0.799"/>
  </g>
</svg>
