<svg xmlns="http://www.w3.org/2000/svg" width="124.666" height="30.204" viewBox="0 0 124.666 30.204">
  <g id="paypal-seeklogo.com" transform="translate(-0.002)">
    <path id="Path_287" data-name="Path 287" d="M175.967,386.87h8.519c4.574,0,6.3,2.316,6.03,5.718-.44,5.616-3.835,8.724-8.339,8.724H179.9c-.618,0-1.034.409-1.2,1.517l-.965,6.443c-.064.418-.284.66-.614.693h-5.353c-.5,0-.682-.385-.55-1.218l3.263-20.656A1.3,1.3,0,0,1,175.967,386.87Z" transform="translate(-165.087 -379.76)" fill="#009ee3" fill-rule="evenodd"/>
    <path id="Path_288" data-name="Path 288" d="M321.2,385.13c2.874,0,5.526,1.559,5.163,5.445-.44,4.618-2.914,7.173-6.817,7.184h-3.411c-.49,0-.728.4-.855,1.22l-.66,4.194c-.1.633-.424.946-.9.946h-3.173c-.506,0-.682-.323-.57-1.047l2.619-16.807c.13-.827.44-1.135,1-1.135h7.6Zm-5.168,9h2.584c1.616-.062,2.689-1.181,2.8-3.2A1.952,1.952,0,0,0,319.3,388.8l-2.432.011-.833,5.322Zm18.958,8.7c.29-.264.585-.4.543-.075l-.1.778c-.053.407.108.622.486.622h2.819c.475,0,.706-.191.822-.926l1.737-10.9c.088-.548-.046-.816-.462-.816h-3.1c-.279,0-.416.156-.488.583l-.114.671c-.059.35-.22.411-.369.059-.526-1.245-1.867-1.8-3.738-1.759-4.348.09-7.279,3.391-7.593,7.622a5.24,5.24,0,0,0,5.194,5.843A5.576,5.576,0,0,0,335,402.839h0Zm-2.362-1.678a2.833,2.833,0,0,1-2.9-3.323,4.047,4.047,0,0,1,3.892-3.323,2.833,2.833,0,0,1,2.9,3.323,4.045,4.045,0,0,1-3.892,3.323Zm14.184-9.676h-2.859c-.589,0-.829.44-.642.981l3.549,10.393-3.481,4.946c-.292.413-.066.789.345.789h3.213a.983.983,0,0,0,.954-.468l10.916-15.657c.336-.482.178-.987-.374-.987h-3.041c-.521,0-.73.207-1.029.64l-4.552,6.6-2.034-6.613a.871.871,0,0,0-.963-.62Z" transform="translate(-273.335 -378.403)" fill="#113984" fill-rule="evenodd"/>
    <path id="Path_289" data-name="Path 289" d="M543.869,385.114c2.874,0,5.526,1.559,5.163,5.445-.44,4.618-2.914,7.173-6.817,7.184h-3.409c-.49,0-.728.4-.855,1.22l-.66,4.194c-.1.633-.424.946-.9.946h-3.173c-.506,0-.682-.323-.57-1.047l2.623-16.812c.13-.827.44-1.135,1-1.135h7.6Zm-5.168,9h2.584c1.616-.062,2.689-1.181,2.8-3.2a1.952,1.952,0,0,0-2.115-2.133l-2.432.011-.833,5.322Zm18.958,8.7c.29-.264.585-.4.543-.075l-.1.778c-.053.407.108.622.486.622H561.4c.475,0,.706-.191.822-.926l1.737-10.9c.088-.548-.046-.816-.462-.816h-3.1c-.279,0-.416.156-.488.583l-.114.671c-.059.35-.22.411-.369.059-.526-1.245-1.867-1.8-3.738-1.759-4.348.09-7.279,3.391-7.593,7.622a5.24,5.24,0,0,0,5.194,5.843,5.576,5.576,0,0,0,4.376-1.693h0Zm-2.36-1.678a2.833,2.833,0,0,1-2.9-3.323,4.047,4.047,0,0,1,3.892-3.323,2.833,2.833,0,0,1,2.9,3.323,4.047,4.047,0,0,1-3.892,3.323Zm13,3.022h-3.255a.385.385,0,0,1-.4-.44l2.859-18.111a.561.561,0,0,1,.541-.44H571.3a.385.385,0,0,1,.4.44l-2.859,18.111a.561.561,0,0,1-.541.444Z" transform="translate(-447.038 -378.387)" fill="#009ee3" fill-rule="evenodd"/>
    <path id="Path_290" data-name="Path 290" d="M149.032,354.54h8.528c2.4,0,5.251.077,7.156,1.759a5.78,5.78,0,0,1,1.788,4.838c-.523,6.511-4.418,10.16-9.643,10.16h-4.2c-.717,0-1.19.475-1.392,1.759l-1.174,7.477c-.077.484-.286.77-.66.8h-5.262c-.583,0-.789-.44-.638-1.412l3.782-23.965A1.514,1.514,0,0,1,149.032,354.54Z" transform="translate(-143.48 -354.54)" fill="#113984" fill-rule="evenodd"/>
    <path id="Path_291" data-name="Path 291" d="M179.43,397.51l1.489-9.427a1.3,1.3,0,0,1,1.484-1.223h8.519a8.309,8.309,0,0,1,3.444.627c-.855,5.8-4.6,9.016-9.513,9.016h-4.2A1.241,1.241,0,0,0,179.43,397.51Z" transform="translate(-171.523 -379.753)" fill="#172c70" fill-rule="evenodd"/>
  </g>
</svg>
