<svg xmlns="http://www.w3.org/2000/svg" width="61" height="61.128" viewBox="0 0 61 61.128">
  <g id="Group_203" data-name="Group 203" transform="translate(-0.539)">
    <g id="Group_202" data-name="Group 202" transform="translate(0.539 0)">
      <path id="Path_309" data-name="Path 309" d="M59.94,44.862l-8.531-8.531a5.674,5.674,0,0,0-9.445,2.133,5.805,5.805,0,0,1-6.7,3.656C29.168,40.6,20.942,32.675,19.419,26.277a5.522,5.522,0,0,1,3.656-6.7,5.674,5.674,0,0,0,2.133-9.445L16.677,1.6a6.085,6.085,0,0,0-8.226,0L2.662,7.388c-5.789,6.093.609,22.241,14.929,36.56S48.058,64.97,54.151,58.877l5.789-5.789A6.085,6.085,0,0,0,59.94,44.862Z" transform="translate(-0.539 0)" fill="#393e3f"/>
    </g>
  </g>
</svg>
