<svg xmlns="http://www.w3.org/2000/svg" width="32.982" height="23.5" viewBox="0 0 32.982 23.5">
  <g id="Group_204" data-name="Group 204" transform="translate(0 -33.085)">
    <path id="Path_310" data-name="Path 310" d="M169.97,48.918c0-.038.026-.074.024-.112l-10.065,9.7,10.053,9.388c.006-.067-.012-.135-.012-.2V48.918Z" transform="translate(-137.012 -13.468)" fill="#393e3f"/>
    <path id="Path_311" data-name="Path 311" d="M30.813,126.9,26.7,130.854a1.075,1.075,0,0,1-1.478.012l-4.1-3.818L11.01,136.8a2.332,2.332,0,0,0,.787.157H40.121a2.33,2.33,0,0,0,1.131-.312Z" transform="translate(-9.432 -80.373)" fill="#393e3f"/>
    <path id="Path_312" data-name="Path 312" d="M21.766,48.227l15.36-14.8a2.328,2.328,0,0,0-1.186-.345H7.616a2.334,2.334,0,0,0-1.486.554Z" transform="translate(-5.252 0)" fill="#393e3f"/>
    <path id="Path_313" data-name="Path 313" d="M0,52.1V70.511a2.337,2.337,0,0,0,.1.61L10.094,61.5Z" transform="translate(0 -16.29)" fill="#393e3f"/>
  </g>
</svg>
