<svg xmlns="http://www.w3.org/2000/svg" width="196.554" height="199.602" viewBox="0 0 196.554 199.602">
  <g id="Group_330" data-name="Group 330" transform="translate(-469.503 -530.975)">
    <path id="Path_449" data-name="Path 449" d="M480.722,337.916c6.973-1.528,18.066-.363,24.787-4.146,7.49-4.218,7.135-13.526,4.651-20.628-6.362-18.172-18.9-31.8-30.829-46.545-5.406-6.685-9.788-12.884-18.33-15.017-7.977-1.993-17.034-1.758-25.28-2.137-17.4-.8-31.338-10.765-45,3.628-5.769,6.078-10.309,13.315-16.558,19.238-5.735,5.435-9.982,9.728-14.145,16.56-4.194,6.888-10.023,14.721-10.642,22.865-.805,10.577,6.792,12.425,15.56,15.081,2.384.722,4.672,1.007,7.029,2.1-1.647,5.755-6.046,11.161-8.672,16.569-2.472,5.1-4.978,10.962-9.088,14.538-12.828,11.161-13.685-10.333-14.119-19-9.919-2.588-10.523,12.608-8.649,18.125,2.826,8.312,8.814,15.693,11.238,24.27,2.519,8.916,1.895,13.788-2.515,21.743-4.968,8.966.717,15.427,10.618,16.179,4.461.341,8.47-1.579,12.162-3.92,4.716-2.99,4.581-4.387,9.212-1.274,5.5,3.7,15.179,8.78,22.613,4.8,2.938-1.573,3.6-5.543,7.56-6.709,3.472-1.022,8.578.373,12.161.531,8.463.373,16.4,3.657,25.281,2.529a23.642,23.642,0,0,0,7.471-2.477c2.864,3.181,2.292,7.408,5.675,10.466,3.06,2.762,7.3,3.615,11.137,4.133,3.759.508,22.269,1.779,20.11-5.03-.743-2.344-3.932-2.1-4.47-5.1-.174-.963,1.562-5.05,1.652-6.574.255-4.353-.742-8.256-1.124-12.616-.792-9.039-2.786-17.976-4.579-26.826-1.359-6.7-11.754-39.123,4.578-33.849" transform="matrix(0.996, -0.087, 0.087, 0.996, 118.784, 331.17)" fill="#f9c041"/>
    <path id="Path_450" data-name="Path 450" d="M447.38,275.849C449.806,294.03,459.5,311,459.5,329.18h-2.424c-15.756,16.969-53.33,8.484-73.935,2.422-20.607-4.846-36.362-4.846-27.878-27.877,6.06-15.756,19.395-31.513,29.09-43.634" transform="matrix(0.996, -0.087, 0.087, 0.996, 137.771, 337.161)" fill="none" stroke="#393e3f" stroke-miterlimit="10" stroke-width="0.799"/>
    <path id="Path_451" data-name="Path 451" d="M382.909,297.331c5.656-3.232,9.7-8.889,13.737-14.545-6.465-2.424-12.928-4.848-19.393-4.848-1.617,6.465,2.424,12.928,7.272,16.969" transform="matrix(0.996, -0.087, 0.087, 0.996, 164.968, 344.041)" fill="none" stroke="#393e3f" stroke-miterlimit="10" stroke-width="0.799"/>
    <path id="Path_452" data-name="Path 452" d="M331.513,256.1c8.89,17.778,37.171,37.978,34.747,58.179-2.424,18.586-20.2,14.545-33.128,18.586" transform="matrix(0.996, -0.087, 0.087, 0.996, 262.676, 324.161)" fill="none" stroke="#393e3f" stroke-miterlimit="10" stroke-width="0.799"/>
    <path id="Path_453" data-name="Path 453" d="M455.706,245.976c-17.778,11.313-38.785,39.593-48.482,58.179-8.889,16.161,6.463,20.2,20.2,24.241" transform="matrix(0.996, -0.087, 0.087, 0.996, 62.834, 336.394)" fill="none" stroke="#393e3f" stroke-miterlimit="10" stroke-width="0.799"/>
    <path id="Path_454" data-name="Path 454" d="M432.363,263.6c-9.7-5.656-15.351-16.969-27.473-12.93-18.586,1.617-35.555-10.5-50.906-4.039" transform="matrix(0.996, -0.087, 0.087, 0.996, 162.503, 327.019)" fill="none" stroke="#393e3f" stroke-miterlimit="10" stroke-width="0.799"/>
    <path id="Path_455" data-name="Path 455" d="M369.508,273.457s1.619-3.232.81,2.424c0,0-1.615-2.424-.81-2.424v.807" transform="matrix(0.996, -0.087, 0.087, 0.996, 202.222, 337.98)" fill="none" stroke="#393e3f" stroke-miterlimit="10" stroke-width="0.799"/>
    <path id="Path_456" data-name="Path 456" d="M396.17,268.447V274.1h-.81c0-1.615-.805-5.656,0-1.615" transform="matrix(0.996, -0.087, 0.087, 0.996, 137.632, 341.359)" fill="none" stroke="#393e3f" stroke-miterlimit="10" stroke-width="0.799"/>
    <path id="Path_457" data-name="Path 457" d="M358.79,293.919c-3.231,15.354-13.738,13.738-25.049,15.354" transform="matrix(0.996, -0.087, 0.087, 0.996, 268.601, 343.266)" fill="none" stroke="#393e3f" stroke-miterlimit="10" stroke-width="0.799"/>
    <path id="Path_458" data-name="Path 458" d="M447.383,264.621c-6.465,10.5-24.241,33.937-22.627,46.058,0,.809-2.424,1.615-3.231,1.615v2.424a68.261,68.261,0,0,1-13.738-4.039c1.618,1.615,2.425,0,4.041,0" transform="matrix(0.996, -0.087, 0.087, 0.996, 67.136, 345.691)" fill="none" stroke="#393e3f" stroke-miterlimit="10" stroke-width="0.799"/>
    <path id="Path_459" data-name="Path 459" d="M387.863,296.05c-3.232,5.656-4.041,14.545,2.424,13.737" transform="matrix(0.996, -0.087, 0.087, 0.996, 159.239, 353.939)" fill="none" stroke="#393e3f" stroke-miterlimit="10" stroke-width="0.799"/>
    <path id="Path_460" data-name="Path 460" d="M392.115,301.377c-1.617,3.232-4.039,6.465-4.039,3.232" transform="matrix(0.996, -0.087, 0.087, 0.996, 153.634, 357.194)" fill="none" stroke="#393e3f" stroke-miterlimit="10" stroke-width="0.799"/>
    <path id="Path_461" data-name="Path 461" d="M376.715,283.9c-5.656-12.12-19.393-25.049-29.9-33.13-2.424,0-1.615.808-2.424,1.615" transform="matrix(0.996, -0.087, 0.087, 0.996, 232.703, 324.019)" fill="none" stroke="#393e3f" stroke-miterlimit="10" stroke-width="0.799"/>
    <path id="Path_462" data-name="Path 462" d="M465.014,308.836c-.809,21.817,4.849,46.056,8.08,67.066a23.959,23.959,0,0,1-1.615,12.927h0c3.232.81,4.846,4.041,6.463,4.851-13.737,8.887-39.595,2.422-34.744-16.162v3.232c-1.618-11.314-1.618-21.817-1.618-32.321,0,10.5-2.424,24.242.808,33.94.81-4.042.81-12.933.81-16.162V385.6q-1.215-2.423-2.425-4.848c-4.041,7.273-37.979-1.617-47.676-.805h0c0-10.509,1.619-21.012,3.232-31.516-1.614,12.121-2.424,26.666-5.655,38.786-12.93,0-25.858,4.039-28.282-10.506-1.615-8.079,4.039-25.856,7.272-33.937-.807,3.232-2.424,7.273-3.232,10.506,0-7.273.808-13.738-4.039-18.585-5.656,3.232-9.7,9.7-13.737,14.544,3.231-5.656,16.969-30.706,21.817-10.506l-.808-1.615c-.807-.809-3.232-1.615-4.039-2.422" transform="matrix(0.996, -0.087, 0.087, 0.996, 128.036, 363.303)" fill="none" stroke="#393e3f" stroke-miterlimit="10" stroke-width="0.799"/>
    <path id="Path_463" data-name="Path 463" d="M464.75,300.845c-4.039,7.272-16.161,30.706-23.432,34.745-12.928,6.466-10.506-13.737-9.7-22.624-26.666,7.272,8.887,42.826,5.655,54.947-2.425,9.694-19.393,18.586,2.424,22.624,8.08,1.617,15.354-1.615,18.586-8.889" transform="matrix(0.996, -0.087, 0.087, 0.996, 30.538, 367.687)" fill="none" stroke="#393e3f" stroke-miterlimit="10" stroke-width="0.799"/>
    <line id="Line_7" data-name="Line 7" x2="0.809" y2="0.807" transform="matrix(0.996, -0.087, 0.087, 0.996, 525.957, 670.139)" fill="none" stroke="#393e3f" stroke-miterlimit="10" stroke-width="0.799"/>
    <line id="Line_8" data-name="Line 8" x2="0.807" y2="0.807" transform="matrix(0.996, -0.087, 0.087, 0.996, 526.27, 664.434)" fill="none" stroke="#393e3f" stroke-miterlimit="10" stroke-width="0.799"/>
    <path id="Path_464" data-name="Path 464" d="M421.8,320.9v-2.424c-2.425,4.041-3.234,8.889-4.848,13.737,0,1.615-3.232,11.313-.81,6.465" transform="matrix(0.996, -0.087, 0.087, 0.996, 83.77, 372.095)" fill="none" stroke="#393e3f" stroke-miterlimit="10" stroke-width="0.799"/>
    <path id="Path_465" data-name="Path 465" d="M419.224,317.906c3.232-.808-3.231,10.5-4.039,16.159,0-2.424,3.231-8.079,2.422-5.656" transform="matrix(0.996, -0.087, 0.087, 0.996, 85.513, 371.708)" fill="none" stroke="#393e3f" stroke-miterlimit="10" stroke-width="0.799"/>
    <path id="Path_466" data-name="Path 466" d="M372.1,336.536V343" transform="matrix(0.996, -0.087, 0.087, 0.996, 199.311, 371.439)" fill="none" stroke="#393e3f" stroke-miterlimit="10" stroke-width="0.799"/>
    <path id="Path_467" data-name="Path 467" d="M373.435,338.668c-.807,0-.807.805-.807,1.614" transform="matrix(0.996, -0.087, 0.087, 0.996, 197.266, 372.724)" fill="none" stroke="#393e3f" stroke-miterlimit="10" stroke-width="0.799"/>
    <path id="Path_468" data-name="Path 468" d="M431.238,283.8c-8.08,6.465-1.617,16.969,5.656,20.2" transform="matrix(0.996, -0.087, 0.087, 0.996, 48.666, 357.257)" fill="none" stroke="#393e3f" stroke-miterlimit="10" stroke-width="0.799"/>
    <path id="Path_469" data-name="Path 469" d="M426.431,292.854a14.5,14.5,0,0,0,5.656,4.041" transform="matrix(0.996, -0.087, 0.087, 0.996, 55.472, 361.36)" fill="none" stroke="#393e3f" stroke-miterlimit="10" stroke-width="0.799"/>
    <path id="Path_470" data-name="Path 470" d="M352.936,366.369h-1.619" transform="matrix(0.996, -0.087, 0.087, 0.996, 251.136, 382.383)" fill="none" stroke="#393e3f" stroke-miterlimit="10" stroke-width="0.799"/>
    <path id="Path_471" data-name="Path 471" d="M356.645,359.977c3.234,4.041,3.234,7.272,0,10.5" transform="matrix(0.996, -0.087, 0.087, 0.996, 236.688, 380.331)" fill="none" stroke="#393e3f" stroke-miterlimit="10" stroke-width="0.799"/>
    <path id="Path_472" data-name="Path 472" d="M365.188,361.574a37.744,37.744,0,0,1-1.617,4.041" transform="matrix(0.996, -0.087, 0.087, 0.996, 220.2, 382.602)" fill="none" stroke="#393e3f" stroke-miterlimit="10" stroke-width="0.799"/>
    <path id="Path_473" data-name="Path 473" d="M412.855,355.715c-.807.808-.807,3.232-.807,5.655" transform="matrix(0.996, -0.087, 0.087, 0.996, 99.197, 390.149)" fill="none" stroke="#393e3f" stroke-miterlimit="10" stroke-width="0.799"/>
    <path id="Path_474" data-name="Path 474" d="M418.714,354.115c-.807,1.619-.807,4.851-.807,7.273" transform="matrix(0.996, -0.087, 0.087, 0.996, 84.435, 390.61)" fill="none" stroke="#393e3f" stroke-miterlimit="10" stroke-width="0.799"/>
    <path id="Path_475" data-name="Path 475" d="M437.12,353.584c-.807,2.424-2.424,6.465-3.231,6.465" transform="matrix(0.996, -0.087, 0.087, 0.996, 41.925, 394.054)" fill="none" stroke="#393e3f" stroke-miterlimit="10" stroke-width="0.799"/>
    <path id="Path_476" data-name="Path 476" d="M441.086,354.115c-1.615,1.619-1.615,4.851-.808,6.468" transform="matrix(0.996, -0.087, 0.087, 0.996, 29.144, 395.447)" fill="none" stroke="#393e3f" stroke-miterlimit="10" stroke-width="0.799"/>
    <path id="Path_477" data-name="Path 477" d="M389.525,283.026c-.81-.808-6.465-2.424-9.7-2.424a9.727,9.727,0,0,1,4.848,10.5c-2.422-1.615-3.232-3.232-5.656-4.848" transform="matrix(0.996, -0.087, 0.087, 0.996, 168.965, 345.074)" fill="none" stroke="#393e3f" stroke-miterlimit="10" stroke-width="0.799"/>
    <path id="Path_478" data-name="Path 478" d="M384.088,281.667c1.615,2.425,2.424,4.849,4.041,7.273a10.3,10.3,0,0,1-4.848-3.232" transform="matrix(0.996, -0.087, 0.087, 0.996, 163.963, 346.064)" fill="none" stroke="#393e3f" stroke-miterlimit="10" stroke-width="0.799"/>
    <path id="Path_479" data-name="Path 479" d="M378.487,281.96c1.618,3.234,4.042,7.273,5.658,10.506,1.615-4.848,5.656-8.082,10.5-8.082-1.617,6.465-8.079,3.234-11.313-2.424,0,.808,1.615,3.234,1.615,4.041a40.6,40.6,0,0,1-6.465-5.656c3.232,2.424,6.465,5.656,8.083,9.7-3.234-3.232-4.851-6.465-6.465-10.506,4.039.808,8.887,3.232,9.7,5.658" transform="matrix(0.996, -0.087, 0.087, 0.996, 164.616, 344.901)" fill="none" stroke="#393e3f" stroke-miterlimit="10" stroke-width="0.799"/>
  </g>
</svg>
