<svg xmlns="http://www.w3.org/2000/svg" width="77.274" height="179.988" viewBox="0 0 77.274 179.988">
  <g id="Group_361" data-name="Group 361" transform="translate(-431 -526.671)">
    <path id="Path_702" data-name="Path 702" d="M361.323,371.253c0-9.022,1.622-16.975,1.62-25.917q0-12.4,0-24.792c0-8.48,1.215-16.558,1.215-25.046a93.423,93.423,0,0,1,2.035-21.066c1.493-6.32,3.593-12.777,4.384-18.98-3.424.3-10.33-3.644-11.38-6.937-1.375-4.313,3.542-10.227,2.468-14.968-6.065,3.575-12.343,3.853-13.621-4.489a51.468,51.468,0,0,1,1.217-20.254c1.5-6.089,4.981-12.6,12.072-9.013,3.518,1.779,3.9,2.53,8.082,2.116,3.492-.345,6.5-1.209,10.047-1.116,4.351.115,3.187-.149,6.257-3.22,2.47-2.47,5.018-3.183,8.318-2.035,3.627,1.261,5.485,4.546,7.39,7.686,1.657,2.732,4.271,4.875,5.683,7.586,3.558,6.833-1.154,13.531-4.873,19.061-2.472,3.677-2.36,4.51-.92,8.506,1.609,4.466.856,5.012-1.836,8.935-3.849,5.61.3,13.851,2.849,19.8,6.727-4.805,6.9-13.047,9.721-20.183,5.623,4.946.511,15.879-3.252,20.233-1.826,2.113-5.209,3.731-5.758,6.464-.638,3.173,2.82,8.041,3.958,10.936,5.672,14.449,10.4,30.372,11.939,45.756a203.322,203.322,0,0,1,1.125,21.087c-.015,5.417,5.42,13,3.17,17.754-3.7-.675-4.348,2.325-6.816,4.16-1.041-1.165-1.432-2.534-2.412-3.744-1.21.754-2.426,1.458-3.663,2.124-3.153-2.237-2.947-10.193-3.67-13.813-.639-3.194-.138-10.671-2.419-12.607-6.942,7.262-5.491-8.944-5.66-12.51-.335-7.063-.136-13.867-1.276-20.6-2.174-.226-3.917.641-6.007.335-2.111-.309-3.715-1.928-6.024-1.55.42,7.123.166,14.2,1.163,21.41.461,3.336.221,6.7.4,10.128.079,1.559.751,3.308.405,4.861-.709,3.173-.464,1.417-2.44,2.44.372-.192-1.934-.461-2.027-.444-.7.129-.788,1.5-1.59,1.671-.939.194-4.737-.381-5.2.039-1.722,1.549-.194,8.019-.082,10.067.173,3.164.291,6.516-.822,9.305-1.785,4.472-2.7,1.975-6.086,2.334-2.539.269-6.322,4.122-7.676-1.107" transform="translate(83.47 331.996)" fill="#a0bbb8"/>
    <path id="Path_703" data-name="Path 703" d="M364.407,198.759c1.727,2.158,3.885,5.18,6.906,5.612,6.905-3.453,9.494-5.612,16.4-1.295,1.295-1.295,3.885-6.906,5.612-7.769,5.179-1.727,9.494,5.18,12.085,8.632,4.747,4.748,7.337,6.474,6.043,13.38-.864,4.316-4.317,13.811-8.634,16.4-4.747-6.905-1.726-29.349-11.221-29.349" transform="translate(80.267 331.99)" fill="none" stroke="#1a1818" stroke-miterlimit="10" stroke-width="0.799"/>
    <path id="Path_704" data-name="Path 704" d="M361.431,199.928c-13.379-7.338-14.675,27.191-10.79,34.1,2.589,4.748,7.337,4.316,11.222,1.295,5.18-3.453,4.316-6.905,3.021-12.084-.864-3.453-4.316-10.79-.432-12.517h0" transform="translate(83.242 331.255)" fill="none" stroke="#1a1818" stroke-miterlimit="10" stroke-width="0.799"/>
    <path id="Path_705" data-name="Path 705" d="M367.125,242.249c0,.432-3.885,12.085-4.315,15.969,12.084,13.812,16.4-1.295,23.306-7.768h.864c1.294,5.179,4.316,11.652,9.927,11.221,8.2-.432,12.516-16.833,5.179-18.991" transform="translate(80.57 323.03)" fill="none" stroke="#1a1818" stroke-miterlimit="10" stroke-width="0.799"/>
    <path id="Path_706" data-name="Path 706" d="M388.966,244.765c-2.158-.432-3.453-1.727-4.317-4.316a48.059,48.059,0,0,1,7.338-.864c0,2.158-.432,3.885-2.158,5.18a2.245,2.245,0,0,1-1.727-.863" transform="translate(76.425 323.535)" fill="none" stroke="#1a1818" stroke-miterlimit="10" stroke-width="0.799"/>
    <path id="Path_707" data-name="Path 707" d="M377.581,227.158c.432-.864-.431,1.727.432,3.885a39.476,39.476,0,0,0-.432-6.906v5.612c0-.864-.431-2.59-.431-3.885a10.2,10.2,0,0,0,.431,5.18" transform="translate(77.882 326.467)" fill="none" stroke="#1a1818" stroke-miterlimit="10" stroke-width="0.799"/>
    <path id="Path_708" data-name="Path 708" d="M394.569,225.2v5.611h0a25.24,25.24,0,0,0,.864-5.611,44.963,44.963,0,0,1-1.727,4.316" transform="translate(74.706 326.265)" fill="none" stroke="#1a1818" stroke-miterlimit="10" stroke-width="0.799"/>
    <line id="Line_19" data-name="Line 19" y2="0.432" transform="translate(442.947 551.467)" fill="none" stroke="#1a1818" stroke-miterlimit="10" stroke-width="0.799"/>
    <line id="Line_20" data-name="Line 20" y2="0.432" transform="translate(457.19 570.458)" fill="none" stroke="#1a1818" stroke-miterlimit="10" stroke-width="0.799"/>
    <path id="Path_709" data-name="Path 709" d="M377.954,257.165c-.432.431-.863.863-1.295.431" transform="translate(77.941 320.199)" fill="none" stroke="#1a1818" stroke-miterlimit="10" stroke-width="0.799"/>
    <line id="Line_21" data-name="Line 21" x1="0.432" y2="0.432" transform="translate(451.579 580.817)" fill="none" stroke="#1a1818" stroke-miterlimit="10" stroke-width="0.799"/>
    <path id="Path_710" data-name="Path 710" d="M374.758,254.933a1.587,1.587,0,0,0-1.295-.431" transform="translate(78.548 320.704)" fill="none" stroke="#1a1818" stroke-miterlimit="10" stroke-width="0.799"/>
    <path id="Path_711" data-name="Path 711" d="M373.463,252.27a7.339,7.339,0,0,1,3.021-.432" transform="translate(78.548 321.21)" fill="none" stroke="#1a1818" stroke-miterlimit="10" stroke-width="0.799"/>
    <path id="Path_712" data-name="Path 712" d="M382.418,253.969c-.432,0-.432.432-.432.863" transform="translate(76.93 320.805)" fill="none" stroke="#1a1818" stroke-miterlimit="10" stroke-width="0.799"/>
    <path id="Path_713" data-name="Path 713" d="M400.53,256c0,.864-.431,0-.431-.431" transform="translate(73.493 320.502)" fill="none" stroke="#1a1818" stroke-miterlimit="10" stroke-width="0.799"/>
    <path id="Path_714" data-name="Path 714" d="M400.563,248.642h.863" transform="translate(73.46 321.816)" fill="none" stroke="#1a1818" stroke-miterlimit="10" stroke-width="0.799"/>
    <path id="Path_715" data-name="Path 715" d="M407.023,250.773V252.5" transform="translate(72.179 321.412)" fill="none" stroke="#1a1818" stroke-miterlimit="10" stroke-width="0.799"/>
    <path id="Path_716" data-name="Path 716" d="M405.756,258.561c-.432,0-.432-.432-.863-.864" transform="translate(72.583 320.098)" fill="none" stroke="#1a1818" stroke-miterlimit="10" stroke-width="0.799"/>
    <path id="Path_717" data-name="Path 717" d="M398.931,250.139c-.431,0-.431,0-.431-.432" transform="translate(73.796 321.614)" fill="none" stroke="#1a1818" stroke-miterlimit="10" stroke-width="0.799"/>
    <path id="Path_718" data-name="Path 718" d="M406.289,250.773c0,.431-.432.431-.864.431" transform="translate(72.482 321.412)" fill="none" stroke="#1a1818" stroke-miterlimit="10" stroke-width="0.799"/>
    <line id="Line_22" data-name="Line 22" y1="0.432" transform="translate(476.18 573.911)" fill="none" stroke="#1a1818" stroke-miterlimit="10" stroke-width="0.799"/>
    <line id="Line_23" data-name="Line 23" y2="0.432" transform="translate(479.634 570.026)" fill="none" stroke="#1a1818" stroke-miterlimit="10" stroke-width="0.799"/>
    <path id="Path_719" data-name="Path 719" d="M381.98,266.12c-.431-.432,4.316,3.452,5.611,3.885,2.589,0,8.2-3.022,5.612-4.317" transform="translate(76.937 318.581)" fill="none" stroke="#1a1818" stroke-miterlimit="10" stroke-width="0.799"/>
    <path id="Path_720" data-name="Path 720" d="M388.379,259.3a3.882,3.882,0,0,0,2.158.433" transform="translate(75.717 319.794)" fill="none" stroke="#1a1818" stroke-miterlimit="10" stroke-width="0.799"/>
    <path id="Path_721" data-name="Path 721" d="M387.313,241.184c1.295,1.295,1.727,2.589,3.884,2.158-.863-.431-2.158-.863-3.02-1.295a12.593,12.593,0,0,1,3.884-.863c-.431,0-1.727.431-1.727.863-1.727.864,0-.432,0-.432" transform="translate(75.919 323.232)" fill="none" stroke="#1a1818" stroke-miterlimit="10" stroke-width="0.799"/>
    <path id="Path_722" data-name="Path 722" d="M379.7,266.653c-2.589,2.59,2.59,16.4,9.927,15.106,6.043-1.727,7.338-10.79,8.634-15.537,0,5.179-2.591,20.285-9.928,20.717-6.474.431-8.632-13.812-9.064-18.129-.431.433,0,.864.432,1.727" transform="translate(77.493 318.48)" fill="none" stroke="#1a1818" stroke-miterlimit="10" stroke-width="0.799"/>
    <path id="Path_723" data-name="Path 723" d="M388.7,293.289c-.431,0-2.158,2.589.864,3.884,3.884,2.158,6.043-3.884.431-4.316" transform="translate(75.823 313.425)" fill="none" stroke="#1a1818" stroke-miterlimit="10" stroke-width="0.799"/>
    <path id="Path_724" data-name="Path 724" d="M375.167,268.353c-4.316,3.453-4.316,15.537-5.179,21.149-1.3,9.064-2.589,18.128-3.884,27.623-1.3,11.653,1.295,24.17,1.727,35.824,0,6.043.862,12.085.43,17.7,0,4.749-6.9,15.537-2.589,16.4h.863" transform="translate(80.296 318.075)" fill="none" stroke="#1a1818" stroke-miterlimit="10" stroke-width="0.799"/>
    <path id="Path_725" data-name="Path 725" d="M368.966,411.652c-3.452,4.315,3.022,5.179,4.749.864" transform="translate(79.591 290.879)" fill="none" stroke="#1a1818" stroke-miterlimit="10" stroke-width="0.799"/>
    <path id="Path_726" data-name="Path 726" d="M375.061,395.557c1.726,4.747,6.043.43,7.336-3.885,1.727-5.179-.431-13.812-.431-19.422-.431-17.263,2.158-34.96,1.3-52.225" transform="translate(78.245 308.269)" fill="none" stroke="#1a1818" stroke-miterlimit="10" stroke-width="0.799"/>
    <path id="Path_727" data-name="Path 727" d="M386.78,335.374c9.064,0,11.221,10.359,21.149-.433" transform="translate(76.021 305.438)" fill="none" stroke="#1a1818" stroke-miterlimit="10" stroke-width="0.799"/>
    <path id="Path_728" data-name="Path 728" d="M410.752,311.5c2.158,9.5.863,23.307,5.179,31.939l-.432-.864c.432,15.538,6.043,34.53,5.18,48.341" transform="translate(71.471 309.886)" fill="none" stroke="#1a1818" stroke-miterlimit="10" stroke-width="0.799"/>
    <path id="Path_729" data-name="Path 729" d="M422.961,407.37c1.727-1.295-.864.864,0,2.158,2.158,2.589,5.179,1.725,5.179-2.59,1.3,5.18,6.043,5.18,5.611-.43,3.885,6.041,6.474-2.59,3.453-6.043" transform="translate(69.188 293.002)" fill="none" stroke="#1a1818" stroke-miterlimit="10" stroke-width="0.799"/>
    <path id="Path_730" data-name="Path 730" d="M393.551,338.671c-1.727,2.158.43,17.7.862,22.443,0,4.317,1.727,13.38.864,15.97" transform="translate(74.861 304.73)" fill="none" stroke="#1a1818" stroke-miterlimit="10" stroke-width="0.799"/>
    <path id="Path_731" data-name="Path 731" d="M391.436,382.353c-2.158,1.726,2.158,6.474,4.316,1.295" transform="translate(75.248 296.44)" fill="none" stroke="#1a1818" stroke-miterlimit="10" stroke-width="0.799"/>
    <path id="Path_732" data-name="Path 732" d="M387.769,382.885c-.863,2.59,0,3.885,2.59,3.022" transform="translate(75.894 296.339)" fill="none" stroke="#1a1818" stroke-miterlimit="10" stroke-width="0.799"/>
    <path id="Path_733" data-name="Path 733" d="M384.61,383.418c-.863,3.453,1.727,4.748,4.748,2.158" transform="translate(76.464 296.238)" fill="none" stroke="#1a1818" stroke-miterlimit="10" stroke-width="0.799"/>
    <path id="Path_734" data-name="Path 734" d="M408.621,340.93V339.2c2.158,9.928,4.316,25.9,1.727,34.529" transform="translate(71.875 304.629)" fill="none" stroke="#1a1818" stroke-miterlimit="10" stroke-width="0.799"/>
    <path id="Path_735" data-name="Path 735" d="M411.285,381.82c.864,2.59,2.589,3.021,4.315.432" transform="translate(71.37 296.541)" fill="none" stroke="#1a1818" stroke-miterlimit="10" stroke-width="0.799"/>
    <path id="Path_736" data-name="Path 736" d="M416.079,379.156a6.249,6.249,0,0,1,.863,3.021" transform="translate(70.46 297.047)" fill="none" stroke="#1a1818" stroke-miterlimit="10" stroke-width="0.799"/>
    <path id="Path_737" data-name="Path 737" d="M419.606,381.287c-.432.432-.432.432-.863.432" transform="translate(69.954 296.642)" fill="none" stroke="#1a1818" stroke-miterlimit="10" stroke-width="0.799"/>
    <path id="Path_738" data-name="Path 738" d="M409.686,266.222c3.885,7.769,5.611,18.56,7.338,27.623h0v-1.295c5.18,15.537,9.064,32.8,13.38,48.772,1.727,6.906,1.727,14.674,2.158,22.444a47.637,47.637,0,0,0,.863,7.768c0,.864,2.59,5.612.865,3.022" transform="translate(71.673 318.48)" fill="none" stroke="#1a1818" stroke-miterlimit="10" stroke-width="0.799"/>
    <path id="Path_739" data-name="Path 739" d="M415.013,278.948c6.474-6.042,9.928-12.084,9.928-20.717,8.2,10.359-3.885,20.286-8.634,26.76" transform="translate(70.662 319.996)" fill="none" stroke="#1a1818" stroke-miterlimit="10" stroke-width="0.799"/>
  </g>
</svg>
