<svg xmlns="http://www.w3.org/2000/svg" width="97.203" height="180.059" viewBox="0 0 97.203 180.059">
  <g id="Group_360" data-name="Group 360" transform="translate(-435 -526.74)">
    <path id="Path_774" data-name="Path 774" d="M377.551,278.221c-.012-.328,0-.656.018-.983-2.68,6.62-5.748,16.286-12.516,19.838-6.6-2.135-5.371-16.64-3.916-22.134,1.3-4.9,2.719-10.458,5.831-14.644,2.449-3.3,4.941-6,6.994-9.542,4.292-7.408,9.993-13.654,15.724-20.016,4.663-5.174,11.373-10.615,18.2-5.843,2.416,1.69,2.836,4.322,4.092,6.939,1.693,3.531,3.565,6.632,5.02,10.317a134.378,134.378,0,0,1,6.837,24.371c1.25,6.759.678,14.025,1.644,20.827.323,2.282,1.419,5.326.383,7.67-1.1,2.5-4.308,4.233-6.536,2.212,2.791,12.158,5.82,24.368,7.533,36.5.541,3.83-1.605,26.325,6.5,20.875,3.918,4.32,2.866,12.267,6.29,17.483,2.4,3.66,12.185,11.711,10.589,16.792-.779,2.481-5.433,1.93-8.051,2.191a20.687,20.687,0,0,1-4.008.365c-1.6-.128-3.253-1.267-4.766-1.111-1.365.139-1.078,1.709-2.9,1.787-.557.025-1.37-1.368-2.191-1.423-1.023-.07-1.381.616-2.183.666-3.363.208-6.248,1.6-8.764-.284-3.233-2.416-1.258-3.128-5.508-2.286-2.4.478-5.162.615-7.65,1.109-4.972.986-10.335.273-12.845,5.495-2.734-1.072-7.491,5.706-9.151-.62-1.969,1.531-3.323,3.637-6.046,3.523-.955-.039-1.975-1.209-3-1.376a20.747,20.747,0,0,0-4.4.346c-6.564.662-12.6.5-8.747-7.2,2.944-5.88-2.569-13.208-4.382-19.366-.766-2.605-2.32-6.059-1.745-8.765.766-3.6,2.953-4.21,2.557-8.116-.4-3.974-5.893-16.362-1.625-19.375,5.946-4.2,8.842,17.385,10.672,20.724,2.79-8.7.113-18.539,3.36-27.373,2.424-6.59,2.3-13.36,4.221-19.994,1.224-4.233,4.469-8.478,4.857-12.783.351-3.906.812-11.942-.832-15.6a22.593,22.593,0,0,1-3.2,4.281" transform="translate(81.79 307.43)" fill="#f4e7d0"/>
    <path id="Path_775" data-name="Path 775" d="M375.914,246.377c2.919-8.754,18.677-28.016,30.351-21.6,5.252,2.918,6.421,14.007,8.17,19.261" transform="translate(83.962 307.471)" fill="none" stroke="#1a1818" stroke-miterlimit="10" stroke-width="0.799"/>
    <path id="Path_776" data-name="Path 776" d="M384.97,223.6c4.086,1.75,7.588,5.253,10.505,9.338" transform="translate(84.828 307.482)" fill="none" stroke="#1a1818" stroke-miterlimit="10" stroke-width="0.799"/>
    <path id="Path_777" data-name="Path 777" d="M388.7,220.406c4.085,2.336,7.586,5.254,8.754,9.924" transform="translate(85.185 307.176)" fill="none" stroke="#1a1818" stroke-miterlimit="10" stroke-width="0.799"/>
    <path id="Path_778" data-name="Path 778" d="M397.754,219.875c3.5,4.086,2.919,9.922,2.919,14.59" transform="translate(86.051 307.125)" fill="none" stroke="#1a1818" stroke-miterlimit="10" stroke-width="0.799"/>
    <path id="Path_779" data-name="Path 779" d="M378.568,243.314c-6.42,4.669-26.266,45.526-14.591,50.779,4.085-3.5,11.673-13.425,12.256-19.261" transform="translate(82.475 309.367)" fill="none" stroke="#1a1818" stroke-miterlimit="10" stroke-width="0.799"/>
    <path id="Path_780" data-name="Path 780" d="M376.642,265.688c-1.167,2.334,0,8.17,0,11.673,0,5.253-3.5,12.839-1.751,17.509,4.67,15.759,13.425,0,18.678-.583,8.172-1.167,16.342,18.094,22.181,0,2.334-7.588-2.919-15.76-2.919-23.347" transform="translate(83.817 311.508)" fill="none" stroke="#1a1818" stroke-miterlimit="10" stroke-width="0.799"/>
    <path id="Path_781" data-name="Path 781" d="M411.072,241.183c4.67,8.172,6.421,27.433,8.173,39.107,0,2.334,2.335,11.672,0,14.007-2.919,2.335-5.838,0-6.422-2.918" transform="translate(87.325 309.164)" fill="none" stroke="#1a1818" stroke-miterlimit="10" stroke-width="0.799"/>
    <path id="Path_782" data-name="Path 782" d="M392.507,279.973c-2.919,0-5.253-.583-7-3.5,4.67,0,8.757-2.335,12.842-1.168-.585,2.334-1.753,4.669-3.5,5.838-.583-1.169-1.752-1.169-2.335-1.752" transform="translate(84.879 312.397)" fill="none" stroke="#1a1818" stroke-miterlimit="10" stroke-width="0.799"/>
    <path id="Path_783" data-name="Path 783" d="M382.306,256.15c.583-.584,0,2.918,1.168,5.837a24.858,24.858,0,0,0-1.168-6.421,17.231,17.231,0,0,0,1.168,5.837" transform="translate(84.573 310.54)" fill="none" stroke="#1a1818" stroke-miterlimit="10" stroke-width="0.799"/>
    <path id="Path_784" data-name="Path 784" d="M400.52,255.033a21.949,21.949,0,0,1-.582,5.836h0c0-1.166.582-2.333.582-4.085a6.783,6.783,0,0,1-1.167,4.085" transform="translate(86.204 310.489)" fill="none" stroke="#1a1818" stroke-miterlimit="10" stroke-width="0.799"/>
    <path id="Path_785" data-name="Path 785" d="M393.113,286.463c0,1.75-.584,3.5-1.751,4.085" transform="translate(85.44 313.496)" fill="none" stroke="#1a1818" stroke-miterlimit="10" stroke-width="0.799"/>
    <path id="Path_786" data-name="Path 786" d="M386.035,295.52h11.089c-.584,1.166-1.167.583-2.334.583" transform="translate(84.93 314.362)" fill="none" stroke="#1a1818" stroke-miterlimit="10" stroke-width="0.799"/>
    <path id="Path_787" data-name="Path 787" d="M390.3,297.65a1.773,1.773,0,0,0,2.334,0" transform="translate(85.338 314.566)" fill="none" stroke="#1a1818" stroke-miterlimit="10" stroke-width="0.799"/>
    <path id="Path_788" data-name="Path 788" d="M377.673,258.23c0,4.086-2.335,11.674-1.751,14.008" transform="translate(83.953 310.795)" fill="none" stroke="#1a1818" stroke-miterlimit="10" stroke-width="0.799"/>
    <path id="Path_789" data-name="Path 789" d="M409,252.369a26.4,26.4,0,0,1,.585,11.673c0,2.335-2.335,6.423-.585,4.087" transform="translate(87.065 310.234)" fill="none" stroke="#1a1818" stroke-miterlimit="10" stroke-width="0.799"/>
    <path id="Path_790" data-name="Path 790" d="M387.1,277.458s5.836-.583,8.754-.583H390.6a24.437,24.437,0,0,0,5.836,2.335c-2.918-2.919-6.42-2.919-8.754,0,2.335,2.335,3.5,1.166,5.837.583" transform="translate(85.032 312.578)" fill="none" stroke="#1a1818" stroke-miterlimit="10" stroke-width="0.799"/>
    <path id="Path_791" data-name="Path 791" d="M389.779,278.473c-1.167,0,4.087.584,5.253.584a3.507,3.507,0,0,0-2.335-.584" transform="translate(85.272 312.731)" fill="none" stroke="#1a1818" stroke-miterlimit="10" stroke-width="0.799"/>
    <path id="Path_792" data-name="Path 792" d="M375.031,368.5c-4.67,8.754-1.167,25.68,6.42,9.921-1.75,5.838,4.087,9.922,5.838,2.919,1.167.584,1.751,1.168,2.919,1.751a5.92,5.92,0,0,0,1.75-5.837" transform="translate(83.675 321.345)" fill="none" stroke="#1a1818" stroke-miterlimit="10" stroke-width="0.799"/>
    <path id="Path_793" data-name="Path 793" d="M430.332,366.9c0,2.918.585,16.343-4.669,7,.584,5.254-11.089,7.588-9.34,2.335.584,5.253-2.917,4.671-5.254.583" transform="translate(87.325 321.192)" fill="none" stroke="#1a1818" stroke-miterlimit="10" stroke-width="0.799"/>
    <path id="Path_794" data-name="Path 794" d="M415.865,305.643c2.335,22.179,7.589,49.611,15.177,68.873" transform="translate(87.784 315.331)" fill="none" stroke="#1a1818" stroke-miterlimit="10" stroke-width="0.799"/>
    <path id="Path_795" data-name="Path 795" d="M402.549,314.7c1.75,18.094,1.75,38.523,7,55.449-1.168,4.087,3.5,11.09,1.751,12.257" transform="translate(86.51 316.197)" fill="none" stroke="#1a1818" stroke-miterlimit="10" stroke-width="0.799"/>
    <path id="Path_796" data-name="Path 796" d="M387.636,316.3c0,14.591-.584,30.933,2.335,45.526-1.167,4.085,4.67,19.261-1.167,18.678" transform="translate(85.079 316.35)" fill="none" stroke="#1a1818" stroke-miterlimit="10" stroke-width="0.799"/>
    <path id="Path_797" data-name="Path 797" d="M373.782,317.361c2.919,14.009.583,30.352.583,44.945,0,2.334-.583,15.174.584,12.84" transform="translate(83.758 316.452)" fill="none" stroke="#1a1818" stroke-miterlimit="10" stroke-width="0.799"/>
    <path id="Path_798" data-name="Path 798" d="M374.547,292.857c-4.67,5.837-5.837,27.433-7,36.772-.583,5.253-1.751,22.763-1.751,23.348" transform="translate(82.993 314.107)" fill="none" stroke="#1a1818" stroke-miterlimit="10" stroke-width="0.799"/>
    <path id="Path_799" data-name="Path 799" d="M370.356,350.862c-2.919-.584-7-6.422-11.09-5.253-11.673,4.085,2.336,25.1,5.254,30.934-4.67,1.168-11.09,5.836-4.087,9.922,1.751,1.166,8.754-1.168,11.09-1.751" transform="translate(81.931 319.14)" fill="none" stroke="#1a1818" stroke-miterlimit="10" stroke-width="0.799"/>
    <path id="Path_800" data-name="Path 800" d="M396.207,375.427h-.584" transform="translate(85.847 322.007)" fill="none" stroke="#1a1818" stroke-miterlimit="10" stroke-width="0.799"/>
    <path id="Path_801" data-name="Path 801" d="M396.194,375.427h0" transform="translate(85.86 322.007)" fill="none" stroke="#1a1818" stroke-miterlimit="10" stroke-width="0.799"/>
    <path id="Path_802" data-name="Path 802" d="M359.357,347.1c-2.335-2.92-9.922-23.348-2.335-23.348,3.5,0,6.421,18.678,8.172,21.6" transform="translate(81.839 317.063)" fill="none" stroke="#1a1818" stroke-miterlimit="10" stroke-width="0.799"/>
    <path id="Path_803" data-name="Path 803" d="M414.268,290.727a158.547,158.547,0,0,0,5.253,23.93c0,.584,0-1.751-.584-1.167,2.335,9.922,2.919,23.347,4.086,31.518" transform="translate(87.631 313.904)" fill="none" stroke="#1a1818" stroke-miterlimit="10" stroke-width="0.799"/>
    <path id="Path_804" data-name="Path 804" d="M391.1,376.832c4.377,0,9.63,0,14.008-.875" transform="translate(85.414 322.058)" fill="none" stroke="#1a1818" stroke-miterlimit="10" stroke-width="0.799"/>
    <path id="Path_805" data-name="Path 805" d="M398.289,376.186a14.115,14.115,0,0,0,7.879-2.626" transform="translate(86.102 321.829)" fill="none" stroke="#1a1818" stroke-miterlimit="10" stroke-width="0.799"/>
    <path id="Path_806" data-name="Path 806" d="M422.334,345.129a15.274,15.274,0,0,0,3.652-1.461c.365.365,1.1.365,1.461.73,0,7.67,4.749,15.339,9.861,21.184,2.557,3.287,8.765,8.765,3.653,12.417-2.557,1.826-8.4.365-11.688.731" transform="translate(88.403 318.969)" fill="none" stroke="#1a1818" stroke-miterlimit="10" stroke-width="0.799"/>
  </g>
</svg>
