<svg xmlns="http://www.w3.org/2000/svg" width="141.9" height="92.505" viewBox="0 0 141.9 92.505">
  <g id="Group_362" data-name="Group 362" transform="translate(-0.872 7.214) rotate(-3)">
    <path id="Path_807" data-name="Path 807" d="M427.969,274.507c2.946.933,4.93,4.583,8.277,4.754.093-1.806-.039-3.675.082-5.476.93.506,1.462,1.974,2.424,2.724a16.326,16.326,0,0,0-1.183-6.724c1,1.046,1.328,2.43,2.469,3.373a44.652,44.652,0,0,0-5.184-7,10.266,10.266,0,0,0,5.674,1.511c.053-3.231-6.088-3.457-7.745-5.2,3.276-.533,5-.567,7.442-2.764-6.16-2.519-13.6-2.255-19.777-1.355.348-2.277-1.644-3.123-2.828-4.748-.831-1.141-1.206-2.584-2.256-3.5-.816,2.049.373,4.623.466,6.756-2.624-2.655-3.286-5.8-7.206-7.506-.8,1.426.529,2.807.974,4.182-1.429-2.156-4.219-4.711-6.8-5.2.489,2.934,1.638,4.583,3.413,7.064-2.2-1.7-4.188-3.6-6.927-4.286.152,2.045,1.8,4.08,2.644,5.995-2.352-1.959-5.924-.568-8.73-.976a39.479,39.479,0,0,0-8.477-.472c1.454,2.02,6.964,4.385,9.409,4.743-2.618.915-5.567-.7-7.8.687-2.949,1.825-.875,3.759,1.757,2.828-3.042.535-4.312,1.652-6.132,4,1.277.366,2.915,0,3.921.736-1.9.667-4.831,1.543-5.674,3.54.894,1.13,1.633,3.278,3.149,1.651-.276.275-.7.856-.974,1.139a27.09,27.09,0,0,1,3.745-1.207c-.258,1.717-1.646,2.853-2,4.514a21.807,21.807,0,0,0-.024,3.237c-2.216-.342-5.03-.12-7.213-.769-.9-.266-1.869-1.162-2.828-1.46a10.841,10.841,0,0,0-3.276-.24c-2.056-.125-4.215-.712-6.3-.822s-3.679.754-5.8.824c-3.958.13-7.7.35-11.149,2.444-3.8,2.308-6.7,6.08-10,8.937-2.782,2.411-5.014,3.143-8.068,4.291-2.887,1.085-5.516,2.563-8.58,3.4-4.655,1.274-12.34,1.708-14.324,7.325.961.116,3.573-1.005,4.264-.472,1.058.818-.322,2.182-.478,3.25,2.733.159,5.219-.612,7.772-.466a18.853,18.853,0,0,1,3.779.252c1.132.313,1.636,1.069,2.709,1.518,2.017.844,5.547.7,7.873,1.253s5.633.627,7.52,2.331c-.437.428-.563,1.213-.944,1.65,2.816.833,5.9-.85,5.053,3.288,1.784.1,4.2-.473,5.722.593-.413.423-.814,1.289-1.4,1.674,4.459.246,7.584,1.491,11.451,3.629,2.634,1.456,5.624,4.1,8.894,3.029,3.23-1.057,5.448-3.33,2.822-6.38-1.739-2.02-8.111-3.175-7.835-6.5,2.663.558,4.683,3.168,7.521,3.745a48.486,48.486,0,0,0,7.055.756c1.961.09,4.4-.462,6.3,0,1.825.444,3.271,2.076,5.033,2.778,3.73,1.484,8.056,2.124,11.85,3.7,3.964,1.642,7.538,4.253,11.848,4.857.875.122.984.341,1.751-.276,1.667,1.213,1.885,2.318,4.032,2.808,1.32.3,3.571.99,3.325-1.19,1.057,1.57,2.036,3.326,4.177,2.129s.406-3.014,1.763-4.534c1.753-1.964,7.665,2.2,10.349,2.033a7.509,7.509,0,0,0,.277-3.154c1.149,1.94,3.39,4.946,4.106,1.435.49-2.4-.9-4.959-2.519-6.62-3.555-3.654-6.959-2.678-11.395-3.955-1.945-.56-4.813-1.343-5.31-3.528-.339-1.49.714-4.438.522-6.305-.181-1.765-1.308-4.365-1.039-6.053.114-.716,1.094-1.655,1.3-2.5.164-.679-.5-3.348.172-3.816,2.149-1.491,2.371,6.285,4.869,1.782,1.085-1.958.448-5.048.553-7.25a32.01,32.01,0,0,0-.321-6.607c-.279-1.828.33-4.846-.743-6.3" transform="translate(-305.412 -248.33)" fill="#d1e2e0"/>
    <path id="Path_808" data-name="Path 808" d="M358.828,258.808c0-1.611-3.624-6.845-5.235-9.664a16.643,16.643,0,0,0,.806,7.65c-1.611-3.624-4.832-6.845-8.859-7.248a18.152,18.152,0,0,0,4.027,5.637c-3.222-2.013-6.04-4.429-9.261-6.039,1.208,2.416,3.221,4.832,4.026,7.247l-7.248-4.832a14.9,14.9,0,0,0,2.014,4.429" transform="translate(-244.07 -248.529)" fill="none" stroke="#1a1818" stroke-miterlimit="10" stroke-width="0.799"/>
    <path id="Path_809" data-name="Path 809" d="M309.916,261.332a22.285,22.285,0,0,1,20.133,1.208c-2.819,0-6.04,1.208-8.858,2.013,3.221.806,7.247,2.819,9.261,5.235a18.247,18.247,0,0,1-6.443-1.208c2.014,2.818,4.027,5.637,6.04,8.053-.8-.806-2.416-1.611-3.624-2.819.806,1.612,1.209,4.027,2.014,5.235-1.208,0-2.014-.806-2.819-1.208" transform="translate(-195.158 -251.052)" fill="none" stroke="#1a1818" stroke-miterlimit="10" stroke-width="0.799"/>
    <path id="Path_810" data-name="Path 810" d="M384.1,259.131c-3.222-2.014-12.08-2.819-15.7-1.208,2.819,2.013,7.248,3.221,10.469,4.832-3.221-1.208-8.456-2.013-9.664,2.014,1.611,0,2.014.4,4.027,0a8.415,8.415,0,0,0-7.248,4.832c1.611,0,2.417.4,4.027-.4-2.819,1.61-6.442,4.026-5.637,7.247,1.61-.4,3.624-.4,5.637-1.61-.4.8-.4,1.61-.806,2.013,1.208,0,1.611-.4,2.819-1.208" transform="translate(-289.874 -250.463)" fill="none" stroke="#1a1818" stroke-miterlimit="10" stroke-width="0.799"/>
    <path id="Path_811" data-name="Path 811" d="M323.154,282.7a24.742,24.742,0,0,1,.4,5.637,70.011,70.011,0,0,0-7.248-4.429" transform="translate(-193.096 -256.722)" fill="none" stroke="#1a1818" stroke-miterlimit="10" stroke-width="0.799"/>
    <path id="Path_812" data-name="Path 812" d="M351.611,284.3c2.416,5.234,3.221,18.925-.4,24.16h0a28,28,0,0,1-2.013-5.235c-.806,2.818-.806,6.846-2.819,9.261-1.61-2.819-1.61-5.637-1.61-8.858,0,2.013-.806,7.247-2.416,10.067h-.4c-.8-2.819,0-6.041-1.611-8.456-2.013,4.026-1.611,9.261-4.026,12.482-.8-3.624,0-7.248-1.611-10.872-1.208,2.818-1.208,6.039-3.221,8.455-1.208-2.416-1.208-5.637-1.208-8.455-1.611,2.415-2.416,9.664-6.039,7.247" transform="translate(-229.203 -257.112)" fill="none" stroke="#1a1818" stroke-miterlimit="10" stroke-width="0.799"/>
    <path id="Path_813" data-name="Path 813" d="M376.464,319.952c.4-2.819-.4-5.234-1.208-8.054-.806,2.819-1.611,6.041-3.624,8.054l-.4-.4c0-2.417.8-4.832,1.208-7.248-1.611,2.014-3.222,4.027-6.04,4.832a13.909,13.909,0,0,1,.806-6.845c-.806,1.61-2.416,2.417-3.624,3.221a8.09,8.09,0,0,1,1.611-5.234" transform="translate(-281.839 -262.964)" fill="none" stroke="#1a1818" stroke-miterlimit="10" stroke-width="0.799"/>
    <path id="Path_814" data-name="Path 814" d="M384.273,301.357a5.225,5.225,0,0,1-5.637,3.624c0-2.819,2.014-5.234,3.221-7.651a17.537,17.537,0,0,1-2.416,2.819c-2.014-4.027,1.611-12.482,2.819-16.912" transform="translate(-300.923 -256.852)" fill="none" stroke="#1a1818" stroke-miterlimit="10" stroke-width="0.799"/>
    <path id="Path_815" data-name="Path 815" d="M352.453,298.964c2.819.4,4.832-1.208,6.442-3.222-3.624-4.027-8.456-2.013-13.287-2.013,1.61,2.819,4.832,4.429,8.053,5.234" transform="translate(-250.581 -259.29)" fill="none" stroke="#1a1818" stroke-miterlimit="10" stroke-width="0.799"/>
    <path id="Path_816" data-name="Path 816" d="M354.6,294.957c.8.806,1.61.4,1.61,2.014-2.013-.4-3.624-.4-5.234-2.014a22.193,22.193,0,0,1,3.624,2.819,18.983,18.983,0,0,1-6.04-2.416c1.208.8,2.416,2.013,3.624,2.819a5.334,5.334,0,0,1-6.039-2.014,16.112,16.112,0,0,1,4.832,4.027c-2.013-.8-4.027-2.819-4.027-3.221" transform="translate(-248.295 -259.713)" fill="none" stroke="#1a1818" stroke-miterlimit="10" stroke-width="0.799"/>
    <path id="Path_817" data-name="Path 817" d="M322.168,280.574" transform="translate(-196.136 -256.202)" fill="none" stroke="#1a1818" stroke-miterlimit="10" stroke-width="0.799"/>
    <path id="Path_818" data-name="Path 818" d="M342.647,277.892c-6.442,0-12.885-2.819-18.925-1.208h0c-2.417,8.859,4.429,16.509,14.093,13.69.805-4.026,1.61-8.859.4-12.482" transform="translate(-217.42 -255.131)" fill="none" stroke="#1a1818" stroke-miterlimit="10" stroke-width="0.799"/>
    <path id="Path_819" data-name="Path 819" d="M354.844,280.633a5.034,5.034,0,0,0-6.04-.805" transform="translate(-248.945 -255.858)" fill="none" stroke="#1a1818" stroke-miterlimit="10" stroke-width="0.799"/>
    <path id="Path_820" data-name="Path 820" d="M373.474,277.051c0,7.248-3.222,13.691-11.275,11.677-5.637-1.208-4.832-5.637-4.832-11.275,2.013-2.819,13.287-.4,16.911-1.208" transform="translate(-274.823 -255.096)" fill="none" stroke="#1a1818" stroke-miterlimit="10" stroke-width="0.799"/>
    <path id="Path_821" data-name="Path 821" d="M338.552,283.77c0,.4,0,1.208.4.8v-.4h-.4a6.863,6.863,0,0,1-.4,2.819v-2.819c.4.8,0,1.611,0,2.416" transform="translate(-225.003 -256.982)" fill="none" stroke="#1a1818" stroke-miterlimit="10" stroke-width="0.799"/>
    <path id="Path_822" data-name="Path 822" d="M369.832,285.368c0,.4-.4,1.611-.4,2.417-.4-.4-1.208-2.014-.8-.806" transform="translate(-278.831 -257.372)" fill="none" stroke="#1a1818" stroke-miterlimit="10" stroke-width="0.799"/>
    <path id="Path_823" data-name="Path 823" d="M325.974,337.574c8.053.805,16.106,5.234,22.951,8.858.806,2.819,0,8.053-.4,9.664" transform="translate(-226.114 -270.117)" fill="none" stroke="#1a1818" stroke-miterlimit="10" stroke-width="0.799"/>
    <path id="Path_824" data-name="Path 824" d="M344.407,360.387c-1.208,0-3.624-2.014-4.832-3.624,0,1.611-.8,2.014-.8,3.222-2.416-2.014-5.637-1.208-6.443-4.832,0,.805-.4,1.611-.4,2.417a9.61,9.61,0,0,1-4.429-2.417" transform="translate(-222.402 -274.408)" fill="none" stroke="#1a1818" stroke-miterlimit="10" stroke-width="0.799"/>
    <path id="Path_825" data-name="Path 825" d="M373.5,352.551c-4.832-.8-8.054-5.234-12.885-4.832a.394.394,0,0,1,.4.4c-3.624-1.209-8.858-1.611-11.677-3.624" transform="translate(-267.999 -271.807)" fill="none" stroke="#1a1818" stroke-miterlimit="10" stroke-width="0.799"/>
    <path id="Path_826" data-name="Path 826" d="M325.364,315.732c.4,0,.4,0,.4.8" transform="translate(-202.15 -264.785)" fill="none" stroke="#1a1818" stroke-miterlimit="10" stroke-width="0.799"/>
    <path id="Path_827" data-name="Path 827" d="M343.656,325.321a24.648,24.648,0,0,1-2.819,5.637c.4-.4,1.208-1.207,1.611-1.612-.806,2.417-2.014,4.832-4.027,4.832-.4,1.209-.4.4-.8,0" transform="translate(-229.301 -267.126)" fill="none" stroke="#1a1818" stroke-miterlimit="10" stroke-width="0.799"/>
    <path id="Path_828" data-name="Path 828" d="M309.045,321.592c0,4.027,0,9.261-2.819,12.08a5.73,5.73,0,0,0,.806-2.417c6.04,9.664,24.562,3.624,21.34,18.522-1.611-.806-3.221-2.819-4.429-4.832.4,1.611.4,3.624,1.209,4.832-3.222-2.819-7.651-.4-9.262-4.026" transform="translate(-190.663 -266.215)" fill="none" stroke="#1a1818" stroke-miterlimit="10" stroke-width="0.799"/>
    <path id="Path_829" data-name="Path 829" d="M394.171,288.565c-.805.8-4.027,3.624-6.845,3.624a13.66,13.66,0,0,0,2.416-2.416c-2.013,0-4.429.806-6.844,1.208" transform="translate(-314.042 -258.152)" fill="none" stroke="#1a1818" stroke-miterlimit="10" stroke-width="0.799"/>
    <path id="Path_830" data-name="Path 830" d="M414.086,289.916c.4-.4.8-.4,1.208-1.208-2.417,0-4.832.4-7.249,0v-.4a3.047,3.047,0,0,0,1.611-.806,98.057,98.057,0,0,1-10.872.4,22.94,22.94,0,0,0-5.234.4" transform="translate(-343.218 -257.892)" fill="none" stroke="#1a1818" stroke-miterlimit="10" stroke-width="0.799"/>
    <path id="Path_831" data-name="Path 831" d="M423.656,289.5c-.4-.4-.4-.4-.8-.4" transform="translate(-373.727 -258.283)" fill="none" stroke="#1a1818" stroke-miterlimit="10" stroke-width="0.799"/>
    <path id="Path_832" data-name="Path 832" d="M424.461,289.5c-.4-.4-.8-.4-1.61-.4" transform="translate(-374.532 -258.283)" fill="none" stroke="#1a1818" stroke-miterlimit="10" stroke-width="0.799"/>
    <path id="Path_833" data-name="Path 833" d="M426.591,288.565a2.089,2.089,0,0,0-1.61.8" transform="translate(-378.272 -258.152)" fill="none" stroke="#1a1818" stroke-miterlimit="10" stroke-width="0.799"/>
    <path id="Path_834" data-name="Path 834" d="M429.813,288.565a24.663,24.663,0,0,1-4.832,2.014" transform="translate(-381.493 -258.152)" fill="none" stroke="#1a1818" stroke-miterlimit="10" stroke-width="0.799"/>
    <path id="Path_835" data-name="Path 835" d="M398.59,311.993a9.562,9.562,0,0,1,9.663,6.845,23,23,0,0,1,0,10.47h0v-.8h-.4c2.013,2.415,3.624,4.832,6.442,6.039,0-.4-.806-.4-.806-.4,3.624,0,7.65,2.416,6.442,5.636a35.567,35.567,0,0,0-6.039,2.014" transform="translate(-351.881 -263.864)" fill="none" stroke="#1a1818" stroke-miterlimit="10" stroke-width="0.799"/>
    <path id="Path_836" data-name="Path 836" d="M437.2,346.081c1.611-.807-3.624.4-5.234-1.208.8,0,1.611-.807,2.416-1.209a39.048,39.048,0,0,1-6.845-.4c0-.4.806-.4.806-.4-3.221-1.209-6.846-1.611-10.47-2.417v-.4c1.209,0,2.819-.806,4.027-.806-2.417-1.208-6.041-1.208-8.859-2.416.8-.4,1.61-1.61,2.818-2.014a41.374,41.374,0,0,0-6.844-.4l1.611-1.61A31.842,31.842,0,0,0,407,331.182" transform="translate(-375.592 -268.557)" fill="none" stroke="#1a1818" stroke-miterlimit="10" stroke-width="0.799"/>
    <path id="Path_837" data-name="Path 837" d="M452.027,292.294c-1.612,1.61-6.442,4.027-8.456,6.442-2.014,2.014-2.417,5.637-5.637,7.248a13.458,13.458,0,0,0,1.208-2.417A34.762,34.762,0,0,0,433.5,308.8" transform="translate(-410.151 -259.063)" fill="none" stroke="#1a1818" stroke-miterlimit="10" stroke-width="0.799"/>
    <path id="Path_838" data-name="Path 838" d="M468.244,311.173c.806-2.819-4.832,1.611-6.442,2.819a17.544,17.544,0,0,0,2.819-2.416c-2.417,1.208-6.041,3.624-7.248,2.818" transform="translate(-444.488 -263.447)" fill="none" stroke="#1a1818" stroke-miterlimit="10" stroke-width="0.799"/>
    <path id="Path_839" data-name="Path 839" d="M460.643,313.6c-2.819,1.208-6.04,2.014-8.86,3.221a19.323,19.323,0,0,1-4.429,3.624c.805,0,2.013.4,2.416.4-.4.4-1.611,1.208-2.013,2.012,2.013.4,4.429-.4,6.442-1.207-.806.806-1.61,2.416-2.417,3.222,4.832,0,9.664-3.624,14.093-1.209-.4.8-.8,1.209-.8,2.013,4.026.4,10.469,0,13.69,2.014" transform="translate(-447.355 -264.265)" fill="none" stroke="#1a1818" stroke-miterlimit="10" stroke-width="0.799"/>
    <path id="Path_840" data-name="Path 840" d="M381.312,327.452c1.208,2.014-.4,4.43-1.611,6.847a3.056,3.056,0,0,0,.806-1.612c-.806,3.222.4,6.039,2.013,6.039" transform="translate(-299.975 -267.646)" fill="none" stroke="#1a1818" stroke-miterlimit="10" stroke-width="0.799"/>
    <path id="Path_841" data-name="Path 841" d="M394.847,341.316c-.4,0-5.235-.806-6.845-.806a9.625,9.625,0,0,1,3.624-.805h-.4c-2.819.4-6.039,1.611-8.859,0" transform="translate(-314.315 -270.637)" fill="none" stroke="#1a1818" stroke-miterlimit="10" stroke-width="0.799"/>
    <path id="Path_842" data-name="Path 842" d="M398.669,333.313a26.931,26.931,0,0,1-7.249,2.818" transform="translate(-324.982 -269.077)" fill="none" stroke="#1a1818" stroke-miterlimit="10" stroke-width="0.799"/>
    <path id="Path_843" data-name="Path 843" d="M403.711,335.976a19.559,19.559,0,0,1-4.832.4" transform="translate(-335.662 -269.727)" fill="none" stroke="#1a1818" stroke-miterlimit="10" stroke-width="0.799"/>
    <path id="Path_844" data-name="Path 844" d="M408.492,334.651c-1.208,0-2.416,0-3.221-.8" transform="translate(-345.275 -269.207)" fill="none" stroke="#1a1818" stroke-miterlimit="10" stroke-width="0.799"/>
    <path id="Path_845" data-name="Path 845" d="M411.131,332.779" transform="translate(-352.343 -268.946)" fill="none" stroke="#1a1818" stroke-miterlimit="10" stroke-width="0.799"/>
  </g>
</svg>
