<svg xmlns="http://www.w3.org/2000/svg" width="439.554" height="332.983" viewBox="0 0 439.554 332.983">
  <path id="Path_480" data-name="Path 480" d="M1727.991,360.524l-1.7,1.029.053-2.035c.009-.376.016-.249-.016-.307l-.349-.736-.695-1.473c-.446-.992-.983-1.938-1.473-2.9-1.015-1.917-2.1-3.8-3.265-5.627a84.376,84.376,0,0,0-7.755-10.4,85.35,85.35,0,0,0-19.742-16.619,94.91,94.91,0,0,0-49.142-13.571,98.415,98.415,0,0,0-49.033,12.9,94.4,94.4,0,0,0-35.253,35.945l-1.887,3.383-3.327-2.149a82.012,82.012,0,0,0-28.841-11.643,64.77,64.77,0,0,0-30.495,1.178,56.679,56.679,0,0,0-13.849,6.185,40.351,40.351,0,0,0-10.685,10.035,74.878,74.878,0,0,0-7.783,13.29c-1.122,2.358-2.165,4.84-3.157,7.258a76.75,76.75,0,0,0-2.521,7.286l-1.942,6.74-5.653-4.266c-6.1-4.6-14.421-6.234-22.368-5.07a35.575,35.575,0,0,0-20.948,10.732,30.5,30.5,0,0,0-8.078,21.5c.084,8.041,2.811,16.2,6.782,23.759l2.01,3.827-3.406,2.718a62.818,62.818,0,0,0-22.616,40.227c-2.214,15.567,1.7,31.93,11.654,43.882a58.27,58.27,0,0,0,18.1,14.61,81.9,81.9,0,0,0,22.621,7.69c15.941,3.03,32.7,2.3,49.119-.23l5.95-.915.669,5.925a57.864,57.864,0,0,1-.219,13.26,94.123,94.123,0,0,1-2.391,12.442,117.025,117.025,0,0,1-8.987,23.32,133.019,133.019,0,0,1-16.643,24.9c4.231-1.194,8.427-2.5,12.542-4.017a157.976,157.976,0,0,0,28.775-13.757,129.994,129.994,0,0,0,24.776-19.63,98,98,0,0,0,9.97-12.037,58.085,58.085,0,0,0,7.075-13.274l3.2-9.189,5.967,7.591a56.069,56.069,0,0,0,25.613,18.257,64.671,64.671,0,0,0,31.877,2.535,68.733,68.733,0,0,0,29.7-12.491,58.605,58.605,0,0,0,19.584-25.218l2.553-6.436,4.726,4.953c7.135,7.481,17.814,11.3,28.652,12.028a74.354,74.354,0,0,0,32.4-5.411,72.636,72.636,0,0,0,27.151-18.657,57.908,57.908,0,0,0,14.182-29.34l.351-2.156,2.056-.481a59.3,59.3,0,0,0,27.776-15.276,56.414,56.414,0,0,0,15.795-27.639,45.883,45.883,0,0,0-3.669-31.438c-4.921-9.7-13.411-17.351-23.069-22.66l-.96-.527.344-.994A50.3,50.3,0,0,0,1789.9,385.6a40.419,40.419,0,0,0-12.519-22.716,40.939,40.939,0,0,0-24.435-8.992A45.674,45.674,0,0,0,1727.991,360.524Z" transform="translate(-1378.742 -306.378)" fill="#d9e8e6" stroke="#393e3f" stroke-width="3"/>
</svg>
