<svg xmlns="http://www.w3.org/2000/svg" width="439.562" height="240.836" viewBox="0 0 439.562 240.836">
  <path id="Path_562" data-name="Path 562" d="M1727.991,345.789l-1.7.741.053-1.466c.009-.271.016-.179-.016-.221l-.349-.53-.695-1.061c-.446-.714-.983-1.4-1.473-2.091-1.015-1.38-2.1-2.736-3.265-4.052a67.241,67.241,0,0,0-7.755-7.491,84.726,84.726,0,0,0-19.742-11.968c-14.73-6.488-32-9.751-49.142-9.773a129.3,129.3,0,0,0-49.033,9.288c-14.8,6.1-26.981,15.207-35.253,25.885l-1.887,2.436-3.327-1.548a102.162,102.162,0,0,0-28.841-8.384,89.236,89.236,0,0,0-30.495.848,69.313,69.313,0,0,0-13.849,4.454,38.133,38.133,0,0,0-10.685,7.226,53.472,53.472,0,0,0-7.783,9.57c-1.122,1.7-2.165,3.485-3.157,5.227a45.885,45.885,0,0,0-2.521,5.247l-1.942,4.854-5.653-3.072c-6.1-3.315-14.421-4.489-22.368-3.651-7.957.815-15.606,3.557-20.948,7.728-5.416,4.143-8.208,9.716-8.078,15.485.084,5.791,2.811,11.665,6.782,17.109l2.01,2.756-3.406,1.958c-12.291,7.066-20.5,17.73-22.616,28.969-2.214,11.21,1.7,22.994,11.654,31.6a58.8,58.8,0,0,0,18.1,10.521,105.062,105.062,0,0,0,22.621,5.538c15.941,2.182,32.7,1.655,49.119-.166l5.95-.659.669,4.267a30.112,30.112,0,0,1-.219,9.549,51.3,51.3,0,0,1-2.391,8.96,72.036,72.036,0,0,1-8.987,16.793,100.71,100.71,0,0,1-16.643,17.928c4.231-.86,8.427-1.8,12.542-2.893a190.36,190.36,0,0,0,28.775-9.907,132.493,132.493,0,0,0,24.776-14.136,82.169,82.169,0,0,0,9.97-8.668,39.868,39.868,0,0,0,7.075-9.559l3.2-6.617,5.967,5.466c6.582,6.028,15.515,10.623,25.613,13.148a88.73,88.73,0,0,0,31.877,1.825,84.764,84.764,0,0,0,29.7-8.995c8.683-4.645,15.606-10.939,19.584-18.16l2.553-4.635,4.726,3.567c7.135,5.388,17.814,8.14,28.652,8.662a100.649,100.649,0,0,0,32.4-3.9c10.3-2.968,19.786-7.509,27.151-13.435,7.393-5.9,12.407-13.271,14.182-21.128l.351-1.553,2.056-.346a68.447,68.447,0,0,0,27.776-11c7.691-5.379,13.4-12.333,15.795-19.9a24.888,24.888,0,0,0-3.669-22.639c-4.921-6.982-13.411-12.495-23.069-16.318l-.96-.38.344-.716a26.663,26.663,0,0,0,1.807-18.528,28.26,28.26,0,0,0-12.519-16.358,51.436,51.436,0,0,0-24.435-6.475A59.852,59.852,0,0,0,1727.991,345.789Z" transform="translate(-1378.74 -306.378)" fill="#d9e8e6" stroke="#393e3f" stroke-width="3"/>
</svg>
