<svg xmlns="http://www.w3.org/2000/svg" width="69.36" height="128.675" viewBox="0 0 69.36 128.675">
  <g id="Group_315" data-name="Group 315" transform="translate(-353.211 -219.615)">
    <path id="Path_625" data-name="Path 625" d="M370.579,262.421c-.009-.234,0-.468.013-.7-1.912,4.724-4.1,11.621-8.931,14.156-4.711-1.524-3.833-11.874-2.794-15.794.925-3.495,1.941-7.463,4.161-10.449a71.456,71.456,0,0,0,4.99-6.809c3.062-5.286,7.13-9.743,11.22-14.283,3.327-3.692,8.115-7.574,12.985-4.17,1.724,1.206,2.023,3.084,2.92,4.951,1.208,2.52,2.544,4.732,3.582,7.362a95.89,95.89,0,0,1,4.879,17.39c.892,4.823.484,10.008,1.173,14.861.231,1.629,1.012,3.8.274,5.473-.786,1.786-3.074,3.02-4.664,1.579,1.991,8.675,4.153,17.388,5.375,26.046.386,2.733-1.145,18.784,4.64,14.9,2.8,3.083,2.045,8.753,4.489,12.475,1.713,2.611,8.695,8.356,7.556,11.982-.556,1.77-3.877,1.377-5.745,1.564a14.76,14.76,0,0,1-2.86.26c-1.139-.091-2.321-.9-3.4-.793-.974.1-.769,1.22-2.072,1.275-.4.018-.977-.977-1.564-1.016-.73-.05-.985.439-1.557.475-2.4.149-4.458,1.14-6.254-.2-2.307-1.724-.9-2.232-3.93-1.631-1.711.341-3.683.439-5.459.791-3.548.7-7.375.195-9.165,3.921-1.951-.765-5.345,4.072-6.53-.443-1.4,1.092-2.371,2.595-4.314,2.514-.682-.028-1.41-.862-2.144-.982a14.8,14.8,0,0,0-3.14.247c-4.684.472-8.99.357-6.241-5.135,2.1-4.2-1.833-9.425-3.127-13.819-.547-1.859-1.655-4.324-1.245-6.255.546-2.57,2.107-3,1.825-5.791-.286-2.836-4.2-11.675-1.159-13.825,4.243-2.994,6.309,12.405,7.615,14.788,1.991-6.211.081-13.229,2.4-19.533,1.729-4.7,1.643-9.533,3.012-14.267.873-3.02,3.189-6.05,3.466-9.122.25-2.787.579-8.521-.593-11.133a16.122,16.122,0,0,1-2.287,3.055" transform="translate(0 -0.695)" fill="#fcb029"/>
    <path id="Path_626" data-name="Path 626" d="M375.914,239.823c2.083-6.247,13.327-19.992,21.658-15.41,3.747,2.082,4.582,10,5.83,13.744" transform="translate(-4.953 -0.79)" fill="none" stroke="#1a1818" stroke-miterlimit="10" stroke-width="0.799"/>
    <path id="Path_627" data-name="Path 627" d="M384.97,223.6a18.948,18.948,0,0,1,7.5,6.664" transform="translate(-6.929 -0.814)" fill="none" stroke="#1a1818" stroke-miterlimit="10" stroke-width="0.799"/>
    <path id="Path_628" data-name="Path 628" d="M388.7,220.406c2.915,1.667,5.413,3.749,6.247,7.081" transform="translate(-7.742 -0.116)" fill="none" stroke="#1a1818" stroke-miterlimit="10" stroke-width="0.799"/>
    <path id="Path_629" data-name="Path 629" d="M397.754,219.875c2.5,2.915,2.083,7.08,2.083,10.411" transform="translate(-9.718)" fill="none" stroke="#1a1818" stroke-miterlimit="10" stroke-width="0.799"/>
    <path id="Path_630" data-name="Path 630" d="M373.356,243.314c-4.581,3.331-18.742,32.486-10.412,36.234,2.915-2.5,8.33-9.58,8.746-13.744" transform="translate(-1.562 -5.114)" fill="none" stroke="#1a1818" stroke-miterlimit="10" stroke-width="0.799"/>
    <path id="Path_631" data-name="Path 631" d="M376,265.688c-.833,1.665,0,5.83,0,8.33,0,3.748-2.5,9.162-1.249,12.494,3.332,11.245,9.58,0,13.328-.416,5.831-.833,11.661,12.911,15.828,0,1.665-5.414-2.083-11.246-2.083-16.659" transform="translate(-4.623 -9.995)" fill="none" stroke="#1a1818" stroke-miterlimit="10" stroke-width="0.799"/>
    <path id="Path_632" data-name="Path 632" d="M411.072,241.183c3.332,5.831,4.582,19.576,5.832,27.905,0,1.665,1.666,8.329,0,9.995-2.083,1.666-4.166,0-4.582-2.082" transform="translate(-12.623 -4.649)" fill="none" stroke="#1a1818" stroke-miterlimit="10" stroke-width="0.799"/>
    <path id="Path_633" data-name="Path 633" d="M390.5,278.542c-2.083,0-3.748-.416-5-2.5,3.332,0,6.248-1.666,9.164-.833a7.1,7.1,0,0,1-2.5,4.166c-.416-.834-1.25-.834-1.666-1.25" transform="translate(-7.045 -12.021)" fill="none" stroke="#1a1818" stroke-miterlimit="10" stroke-width="0.799"/>
    <path id="Path_634" data-name="Path 634" d="M382.306,255.983c.416-.417,0,2.082.833,4.165a17.738,17.738,0,0,0-.833-4.582,12.294,12.294,0,0,0,.833,4.165" transform="translate(-6.348 -7.786)" fill="none" stroke="#1a1818" stroke-miterlimit="10" stroke-width="0.799"/>
    <path id="Path_635" data-name="Path 635" d="M400.186,255.033a15.661,15.661,0,0,1-.415,4.164h0c0-.832.415-1.665.415-2.915a4.84,4.84,0,0,1-.833,2.915" transform="translate(-10.067 -7.67)" fill="none" stroke="#1a1818" stroke-miterlimit="10" stroke-width="0.799"/>
    <path id="Path_636" data-name="Path 636" d="M392.611,286.463c0,1.249-.417,2.5-1.249,2.915" transform="translate(-8.323 -14.527)" fill="none" stroke="#1a1818" stroke-miterlimit="10" stroke-width="0.799"/>
    <path id="Path_637" data-name="Path 637" d="M386.035,295.52h7.913c-.417.832-.833.416-1.665.416" transform="translate(-7.161 -16.503)" fill="none" stroke="#1a1818" stroke-miterlimit="10" stroke-width="0.799"/>
    <path id="Path_638" data-name="Path 638" d="M390.3,297.65a1.265,1.265,0,0,0,1.665,0" transform="translate(-8.091 -16.968)" fill="none" stroke="#1a1818" stroke-miterlimit="10" stroke-width="0.799"/>
    <path id="Path_639" data-name="Path 639" d="M377.145,258.23c0,2.915-1.666,8.33-1.249,10" transform="translate(-4.934 -8.368)" fill="none" stroke="#1a1818" stroke-miterlimit="10" stroke-width="0.799"/>
    <path id="Path_640" data-name="Path 640" d="M408.811,252.369a18.839,18.839,0,0,1,.418,8.33c0,1.666-1.666,4.583-.418,2.916" transform="translate(-12.029 -7.089)" fill="none" stroke="#1a1818" stroke-miterlimit="10" stroke-width="0.799"/>
    <path id="Path_641" data-name="Path 641" d="M387.1,277.291s4.164-.416,6.247-.416H389.6a17.437,17.437,0,0,0,4.164,1.666c-2.082-2.083-4.581-2.083-6.247,0,1.666,1.666,2.5.832,4.165.416" transform="translate(-7.394 -12.435)" fill="none" stroke="#1a1818" stroke-miterlimit="10" stroke-width="0.799"/>
    <path id="Path_642" data-name="Path 642" d="M389.731,278.473a23.027,23.027,0,0,0,3.748.417,2.5,2.5,0,0,0-1.666-.417" transform="translate(-7.941 -12.784)" fill="none" stroke="#1a1818" stroke-miterlimit="10" stroke-width="0.799"/>
    <path id="Path_643" data-name="Path 643" d="M374.427,368.5c-3.332,6.247-.833,18.325,4.581,7.08-1.249,4.166,2.916,7.08,4.166,2.083.833.417,1.249.833,2.083,1.249a4.224,4.224,0,0,0,1.249-4.165" transform="translate(-4.3 -32.425)" fill="none" stroke="#1a1818" stroke-miterlimit="10" stroke-width="0.799"/>
    <path id="Path_644" data-name="Path 644" d="M424.815,366.9c0,2.082.417,11.662-3.331,5,.417,3.749-7.913,5.414-6.664,1.666.417,3.748-2.081,3.333-3.749.416" transform="translate(-12.623 -32.076)" fill="none" stroke="#1a1818" stroke-miterlimit="10" stroke-width="0.799"/>
    <path id="Path_645" data-name="Path 645" d="M415.865,305.643c1.666,15.826,5.415,35.4,10.83,49.146" transform="translate(-13.669 -18.711)" fill="none" stroke="#1a1818" stroke-miterlimit="10" stroke-width="0.799"/>
    <path id="Path_646" data-name="Path 646" d="M402.549,314.7c1.249,12.911,1.249,27.489,5,39.566-.833,2.916,2.5,7.914,1.249,8.746" transform="translate(-10.764 -20.687)" fill="none" stroke="#1a1818" stroke-miterlimit="10" stroke-width="0.799"/>
    <path id="Path_647" data-name="Path 647" d="M387.622,316.3c0,10.412-.417,22.073,1.666,32.486-.833,2.915,3.332,13.744-.833,13.328" transform="translate(-7.5 -21.036)" fill="none" stroke="#1a1818" stroke-miterlimit="10" stroke-width="0.799"/>
    <path id="Path_648" data-name="Path 648" d="M373.782,317.361c2.083,10,.416,21.658.416,32.071,0,1.665-.416,10.828.417,9.162" transform="translate(-4.488 -21.268)" fill="none" stroke="#1a1818" stroke-miterlimit="10" stroke-width="0.799"/>
    <path id="Path_649" data-name="Path 649" d="M372.039,292.857c-3.332,4.165-4.165,19.576-5,26.239-.416,3.748-1.249,16.243-1.249,16.66" transform="translate(-2.745 -15.922)" fill="none" stroke="#1a1818" stroke-miterlimit="10" stroke-width="0.799"/>
    <path id="Path_650" data-name="Path 650" d="M365.869,349.313c-2.083-.417-5-4.582-7.914-3.748-8.33,2.915,1.667,17.909,3.749,22.074-3.332.833-7.914,4.164-2.916,7.08,1.249.832,6.247-.833,7.914-1.249" transform="translate(-0.323 -27.397)" fill="none" stroke="#1a1818" stroke-miterlimit="10" stroke-width="0.799"/>
    <path id="Path_651" data-name="Path 651" d="M396.04,375.427h-.417" transform="translate(-9.253 -33.936)" fill="none" stroke="#1a1818" stroke-miterlimit="10" stroke-width="0.799"/>
    <path id="Path_652" data-name="Path 652" d="M396.069,375.427h0" transform="translate(-9.282 -33.936)" fill="none" stroke="#1a1818" stroke-miterlimit="10" stroke-width="0.799"/>
    <path id="Path_653" data-name="Path 653" d="M357.746,340.414c-1.666-2.084-7.08-16.66-1.666-16.66,2.5,0,4.582,13.328,5.831,15.411" transform="translate(-0.113 -22.663)" fill="none" stroke="#1a1818" stroke-miterlimit="10" stroke-width="0.799"/>
    <path id="Path_654" data-name="Path 654" d="M414.268,290.727a113.134,113.134,0,0,0,3.748,17.075c0,.417,0-1.249-.417-.833,1.666,7.08,2.083,16.659,2.915,22.49" transform="translate(-13.32 -15.457)" fill="none" stroke="#1a1818" stroke-miterlimit="10" stroke-width="0.799"/>
    <path id="Path_655" data-name="Path 655" d="M391.1,376.582a53.748,53.748,0,0,0,10-.625" transform="translate(-8.266 -34.051)" fill="none" stroke="#1a1818" stroke-miterlimit="10" stroke-width="0.799"/>
    <path id="Path_656" data-name="Path 656" d="M398.289,375.434a10.072,10.072,0,0,0,5.622-1.874" transform="translate(-9.834 -33.528)" fill="none" stroke="#1a1818" stroke-miterlimit="10" stroke-width="0.799"/>
    <path id="Path_657" data-name="Path 657" d="M422.334,344.71a10.9,10.9,0,0,0,2.606-1.042c.26.26.782.26,1.042.521,0,5.473,3.388,10.946,7.037,15.116,1.825,2.346,6.255,6.255,2.607,8.861-1.825,1.3-5.994.26-8.34.521" transform="translate(-15.08 -27.007)" fill="none" stroke="#1a1818" stroke-miterlimit="10" stroke-width="0.799"/>
  </g>
</svg>
