<svg xmlns="http://www.w3.org/2000/svg" width="179.342" height="181.68" viewBox="0 0 179.342 181.68">
  <g id="Group_306" data-name="Group 306" transform="translate(-1366.496 -570.62)">
    <path id="Path_534" data-name="Path 534" d="M1404.111,659.8c-4,5.563-7.688,7-12.375,5.063a8.343,8.343,0,0,1-5-5.813c-3.25-11.188-7.125-22.188-9-33.751a6.937,6.937,0,0,1,1-4.938,68.193,68.193,0,0,1,24.626-24.376c12.313-7.313,25.563-11.688,39.876-10.938,17.313.938,32.876,6.875,45.626,19.063a73.673,73.673,0,0,1,15,19.251,16.305,16.305,0,0,1,1.063,13.625c-2.812,7.75-5.438,15.563-8.563,23.188-2,4.875-5.187,8.875-10.813,10.125-4.313,1-7.063-.5-8.813-4.75a25.308,25.308,0,0,0,1.5-4.813c1.188-6.313,1.125-12.688,1.938-19.063a38.192,38.192,0,0,0-.562-11.625c-.312-1.5-1.25-1.438-2.313-1.375-1.5.063-.625,1-.562,1.688a120.19,120.19,0,0,1-1.937,31.751c-.25,1.125-1.125,2.813.938,3.5-.187,1-1.25,1.625-.187,3.063,8.438,11.688,14.438,24.688,19.875,37.938.25.625.563,1.25.875,1.875,2,6.25,3.938,12.438,5.938,18.688,1.438,8.25,2.813,16.563,4.25,24.813.125.875.375,1.813-.312,2.625l-18.688-.375c-1.875-.062-3.875.5-5.5-.187-2.312-.937-.687-3.438-1.125-5.188-1.625-6.313-1.562-6.375,5-7.125a21.044,21.044,0,0,1,3.438,0c1.188,0,2.563.125,2.375-1.625-.187-1.375-1.437-1.813-2.687-1.562-3.125.688-6.5-.125-9.5,1.25-2.625,1.188-2.062-.312-1.812-1.813.563-2.937.813-5.875,1.25-8.813.75-5.063,0-10.188.813-15.125,1.063-6.75-.187-13.25-1.062-19.813-.125-.938-.437-2.688-2-2.313-1.437.375-1.375,1.75-.937,3.188a24.539,24.539,0,0,1,.938,6.063c.125,12.875.438,25.751-2.625,38.439-.25,1.063-.625,2.688.25,3.313,2.938,2.063,2.625,5.438,3.563,8.25.75,2.25-.062,3.125-2.5,3.063-7.25-.125-14.563-.312-21.813-.062-3.375.063-3.75-1.187-2.813-3.875a44.089,44.089,0,0,0,2.813-15.75,88.815,88.815,0,0,0-4.375-25.188c-.375-1.25-.687-2.75-2.375-2.25-1.562.438-.562,1.938-.625,3a9.534,9.534,0,0,0,.5,1.625c1.5,6.875,3.438,13.688,3.75,20.813.313,6.813-1.937,13.063-3.125,19.563-.312,1.75-1.437,2-3,2-7-.062-14.063-.062-21.063-.062-5.313,0-5.313,0-5.5-5.438a15.473,15.473,0,0,0-.312-2.375c-.75-3.375-1.875-6.813-1.375-10.125,1.25-8.375,2-17,7.188-24.313.75-1,1.438-2.5.188-3.313-1.437-1-2.125.688-2.812,1.625-3.5,4.938-5,10.625-6.25,16.438-1.312,6.188-2,12.313-.312,18.625.688,2.625,1.813,5.563.5,8.438-8.938.063-17.938.063-26.876.125-2.25,0-2.062-1.437-1.75-2.813a22.317,22.317,0,0,1,2.563-7.063c3.875-6.5,2.75-14.063,4.375-21,2.5-10.875,3.5-22.126,6.938-32.813,2.313-7.25,5.375-14.313,8.313-21.376.938-2.313.75-3.938-.875-5.688a6.5,6.5,0,0,1-1.937-3.188c.875-1.25.688-2.438.438-3.875a39.289,39.289,0,0,1-.125-12.688c1.188-7.625,2.813-15.25,4.313-22.813-3.5-.625-3.438,2.125-3.813,4.063-1.437,7.438-3,14.875-3.75,22.5C1401.986,651.614,1402.173,655.739,1404.111,659.8Z" transform="translate(-4.174 -5.38)" fill="#f4e7d0"/>
    <g id="Group_302" data-name="Group 302" transform="translate(1420.406 570.62)">
      <g id="Group_301" data-name="Group 301" transform="translate(0)">
        <path id="Path_535" data-name="Path 535" d="M1474.054,581.75c-.223-.277-.446-.613-.671-.884-.074-.07-.075-.131-.224-.088a1.5,1.5,0,0,1-.748.047,2.258,2.258,0,0,0-1.5.1,1.443,1.443,0,0,1-1.2-.062,1.887,1.887,0,0,0-1.575.026,1.634,1.634,0,0,1-.747.137.472.472,0,0,0-.224.149,40.338,40.338,0,0,1-5.134,5.234,43.972,43.972,0,0,1-3.493,3.007c-.475.377-1.01.75-1.469,1.1a2.759,2.759,0,0,1-2.173.689c-1.237-.229-1.859-1.164-2.034-2.705a32.394,32.394,0,0,1-.057-3.354c0-.3,0-.669,0-.974a.562.562,0,0,1,.057-.3.453.453,0,0,0,.116-.418,13.589,13.589,0,0,1,.115-5.473,18.433,18.433,0,0,1,1.25-3.927,4.905,4.905,0,0,1,2.073-2.359,6.831,6.831,0,0,1,4.548-.659,12.465,12.465,0,0,1,5.084,2.143,15.226,15.226,0,0,1,1.564,1,.717.717,0,0,0,.524.132,4.412,4.412,0,0,1,.974.117,1.984,1.984,0,0,0,1.276-.089,6.365,6.365,0,0,1,.676-.171,1.217,1.217,0,0,1,1.05.115c.151.072.15.011.225-.043a17.882,17.882,0,0,1,3.125-1.981,10.622,10.622,0,0,1,5.316-1.639,7.536,7.536,0,0,1,3.1.689,4.6,4.6,0,0,1,2.214,2.546,19.877,19.877,0,0,1,1.606,6.2,13.39,13.39,0,0,1-.115,3.115.455.455,0,0,0,.058.239.5.5,0,0,1,.115.357c0,1.462.173,3.1.058,4.443-.116,1.6-.683,2.469-1.721,2.824-.733.307-1.743-.15-3-1.093-1.33-.98-2.58-2.061-3.856-3.164-1.564-1.458-3.175-2.8-4.585-4.2C1474.646,582.4,1474.352,582.1,1474.054,581.75Zm10.855-9.18.064.107c.127.215.315.479.441.7a1.042,1.042,0,0,1-.125,1.244,3.662,3.662,0,0,1-2.131.743,11.919,11.919,0,0,1-2.032.235c-1.244.193-2.523.3-3.978.492a20.057,20.057,0,0,1-2.945.2c-.669-.041-.669-.034-.67.512a.441.441,0,0,0,0,.061c0,.122,0,.182.149.142s.225-.03.373-.068a10.749,10.749,0,0,1,2.729.269,6.318,6.318,0,0,0,.945.092.557.557,0,0,1,.5.164.241.241,0,0,1-.072.4,3.1,3.1,0,0,1-1.231.234c-.51-.02-1.171-.119-1.762-.174-.443-.089-.964-.115-1.336-.167-.149-.021-.223-.031-.224.091,0,.183.149.081.224.092.223.031.521.078.818.131a16.6,16.6,0,0,1,2.789.906,2.176,2.176,0,0,0,.795.191.318.318,0,0,1,.287.159c.071.086.143.233.071.329a.518.518,0,0,1-.358.181,4.877,4.877,0,0,1-1.669-.314c-.878-.226-1.691-.578-2.659-.781-.074-.011-.148-.082-.224-.031,0,.061.075.071.149.143a27.629,27.629,0,0,1,3.244,1.661,8.045,8.045,0,0,1,1.445,1c.214.2.286.407.071.452-.071.036-.215-.014-.359-.063-1.079-.485-2.177-1.012-3.214-1.576-.3-.179-.741-.378-1.039-.6,0,.244.15.571.074.742a.514.514,0,0,0,.149.328c.447.617,1.038,1.277,1.554,1.881,1.473,1.544,3.213,3.068,4.883,4.69,1.043.9,2.132,1.855,3.24,2.7a2.426,2.426,0,0,0,1.845.663,2.226,2.226,0,0,0,1.626-1.452,12.713,12.713,0,0,0,.175-4.279c0-.061,0-.061-.058-.117s-.058-.056-.117-.05c-.117.072-.293.028-.591-.116a3.027,3.027,0,0,0-1.284-.273.473.473,0,0,1-.314-.3c-.126-.216-.064-.291,0-.3l.126-.027a2.242,2.242,0,0,1,.928-.051c.548.156.841.006.959-.373a7.512,7.512,0,0,0,.292-2.039,16.074,16.074,0,0,0-.649-4.681,21.066,21.066,0,0,0-1.094-2.994,3.008,3.008,0,0,0-.626-.847l-.19-.262Zm-31.525,12.264c0,.061-.059.116-.059.177a27.041,27.041,0,0,0,.059,3.113c.179,1.424.758,2.259,1.885,2.551a2.321,2.321,0,0,0,1.8-.581c.46-.353.995-.725,1.47-1.1,1.426-1.13,2.7-2.383,4-3.6.793-.686,1.523-1.432,2.259-2.209a9.006,9.006,0,0,0,1.628-1.9c.075-.072.148-.145.074-.255-.15-.221-.074-.537-.074-.841,0-.122,0-.183-.149-.1a9.348,9.348,0,0,1-.963.482c-.886.426-1.692.818-2.558,1.276-.144.046-.361.117-.432-.041s.072-.329.216-.438.288-.216.434-.321a23.106,23.106,0,0,1,3.6-2.041c.074-.011.149-.083.224-.094s.075-.071.074-.132-.076-.051-.149-.04c-.148.022-.224.094-.372.117q-1.115.362-2.214.643a4.3,4.3,0,0,1-1.382.214c-.144-.016-.36-.005-.432-.163-.071-.1,0-.182.072-.268s.216-.194.289-.156a2.366,2.366,0,0,0,.87-.2,12.161,12.161,0,0,1,3.393-.949c.148-.02.15-.081.149-.141,0-.123-.076-.112-.149-.1a5.945,5.945,0,0,1-.892.077,20.549,20.549,0,0,1-2.5.263,1.386,1.386,0,0,1-.87-.286.243.243,0,0,1,0-.366.472.472,0,0,1,.434-.2,1.811,1.811,0,0,0,.874-.063,21.419,21.419,0,0,1,2.732-.311c.67.028.671-.026.522-.5,0-.121-.075-.113-.224-.093a8.591,8.591,0,0,1-2.149.017c-3.618-.36-6.745-.413-9.028-1.071a1.025,1.025,0,0,1-.756-.592,1.645,1.645,0,0,1,.25-1.349c.064-.109.189-.264.252-.371l-.126.094a6.9,6.9,0,0,0-.994,1.758,15.019,15.019,0,0,0-.961,8.211.954.954,0,0,0,1.207.724,1.218,1.218,0,0,1,.938.069c.064.076.127.151,0,.366s-.252.309-.378.283C1454.766,584.414,1453.971,584.952,1453.385,584.834Zm29.305-10.783c.335-.052.8-.135,1.19-.182a1.5,1.5,0,0,0,.775-.385c.127-.152.065-.259-.128-.517a2.868,2.868,0,0,0-.712-.663c-.131-.085-.261-.229-.263-.29a.289.289,0,0,0-.263-.225,6.5,6.5,0,0,0-1.274-.306,9.86,9.86,0,0,0-4.722.933,25.292,25.292,0,0,0-3.835,2.246c-.15.1-.149.164-.075.3a.75.75,0,0,1,.224.577c0,.122.149.2.3.163q.671-.084,1.336-.133c1.182-.187,2.276-.489,3.351-.719A32.327,32.327,0,0,1,1482.69,574.051Zm-26.468-.027a4.815,4.815,0,0,0,1.776.284,57.237,57.237,0,0,1,6.5.9,20.828,20.828,0,0,0,2.219.366c.149.039.224.03.224-.153a1.386,1.386,0,0,1,.224-.761c.075-.131.076-.192-.075-.234a4.641,4.641,0,0,0-.744-.44,13.974,13.974,0,0,0-4.529-2.055,7.081,7.081,0,0,0-4.485.03.417.417,0,0,0-.329.267.635.635,0,0,1-.262.291c-.2.189-.454.424-.711.666-.193.258-.255.426-.128.517C1455.965,573.837,1456.093,573.868,1456.222,574.023Zm16.115,1.069a.83.83,0,0,0-1.05-.246c-.149.055-.225.052-.375.109a2.828,2.828,0,0,1-1.651.076c-.226-.052-.524-.1-.825-.135-.3.023-.375.031-.374.275v.243a2.582,2.582,0,0,1,.224,1.687,15.093,15.093,0,0,1-.748,3c-.075.13-.149.321,0,.426s.3-.032.449-.107a2.12,2.12,0,0,1,1.8-.041c.076,0,.076.06.15.058a1.353,1.353,0,0,0,.826-.059,1.907,1.907,0,0,1,1.2-.131c.15.009.3.082.449.094.225.019.3-.033.3-.216a.833.833,0,0,0-.15-.379,4.24,4.24,0,0,1-.3-1.67,18.86,18.86,0,0,1,.15-2.059A.64.64,0,0,0,1472.337,575.093Zm5.68.288a.119.119,0,0,0,.144.047c1.513-.233,3.051-.39,4.328-.639.336-.054.669-.037.866-.279,0,0,.066-.02.066.041l.066.1s0,.061-.066.019a1.394,1.394,0,0,0-.731-.012c-1.073.174-2.248.213-3.528.456A2.536,2.536,0,0,1,1478.017,575.38Zm-15.122.146a52.412,52.412,0,0,0-5.563-.641A46.921,46.921,0,0,0,1462.894,575.526Zm14.543-.022c.073-.039.29.027.434-.048C1477.655,575.386,1477.583,575.548,1477.438,575.5Zm-.363.138v-.122l.073.021v.061C1477.148,575.724,1477.148,575.723,1477.075,575.642Zm-19.875-.8v.061c-.068.1-.067.1-.132.082,0-.061,0-.061,0-.122C1457.134,574.824,1457.134,574.825,1457.2,574.844Zm5.767.721Zm-7.193-2.808Z" transform="translate(-1452.749 -570.62)" fill="#080808"/>
        <path id="Path_536" data-name="Path 536" d="M1497.443,573.889a4.527,4.527,0,0,1,.626.844,12.076,12.076,0,0,1,1.1,2.99,15.5,15.5,0,0,1,.65,4.678,6.843,6.843,0,0,1-.294,2.04c-.117.5-.534.487-.961.376a1.2,1.2,0,0,0-.931.055l-.125.027a.265.265,0,0,0,0,.3c.127.216.251.311.314.3a6.038,6.038,0,0,1,1.286.268c.18.038.358.076.593.113,0-.061.058-.006.117.05a.181.181,0,0,1,.058.117,14.454,14.454,0,0,1-.175,4.28,2.078,2.078,0,0,1-1.631,1.458,2.3,2.3,0,0,1-1.847-.656,26.131,26.131,0,0,1-3.245-2.692c-1.814-1.611-3.415-3.128-4.887-4.675a10.058,10.058,0,0,1-1.555-1.876c-.074-.133-.149-.205-.149-.327,0-.244-.073-.437-.074-.742.373.236.744.422,1.039.6a29.747,29.747,0,0,0,3.216,1.566.77.77,0,0,0,.359.062c.216-.046.142-.255-.072-.452-.43-.332-.936-.675-1.446-1-1.093-.611-2.2-1.2-3.245-1.651-.075-.011-.149-.021-.149-.142.074-.051.149.02.224.031.893.252,1.708.531,2.66.773a6.2,6.2,0,0,0,1.669.308.521.521,0,0,0,.359-.182c.07-.1.072-.158-.072-.329-.071-.086-.216-.2-.287-.159a1.941,1.941,0,0,1-.8-.189,27.628,27.628,0,0,0-2.791-.9c-.222-.039-.519-.087-.818-.129-.074-.01-.225.031-.224-.091s.149-.1.224-.092c.447.061.966.09,1.336.163a11.956,11.956,0,0,0,1.763.169,1.86,1.86,0,0,0,1.232-.239c.144-.074.215-.171.072-.4-.143-.169-.288-.156-.505-.162a2.807,2.807,0,0,1-.946-.089,15.2,15.2,0,0,0-2.73-.261.79.79,0,0,0-.373.069c-.149.041-.224-.029-.149-.141a.309.309,0,0,0,0-.061c.074-.537.076-.542.671-.514a12.761,12.761,0,0,0,2.946-.211c1.383-.219,2.739-.311,3.981-.5a16.409,16.409,0,0,0,2.034-.242,4.8,4.8,0,0,0,2.135-.751c.252-.236.376-.565.126-1.245,0-.061-.189-.266-.314-.541C1497.442,573.95,1497.443,573.95,1497.443,573.889Z" transform="translate(-1465.156 -571.846)" fill="#dc5c75"/>
        <path id="Path_537" data-name="Path 537" d="M1453.743,586.179a11.442,11.442,0,0,0,2.01-.468.53.53,0,0,0,.38-.281c.127-.214.062-.289,0-.366a1.6,1.6,0,0,0-.941-.076c-.741.231-1.092-.046-1.212-.733-.524-2.118-.253-4.867.966-8.2a5.938,5.938,0,0,1,1-1.751c.064-.046.064-.107.127-.092-.064.107-.19.261-.252.369a1.63,1.63,0,0,0-.251,1.348.859.859,0,0,0,.759.6c2.359.636,5.429.694,9.048,1.13a12.881,12.881,0,0,0,2.151,0c.149-.019.151.042.224.094.076.541.074.536-.522.493a11.912,11.912,0,0,0-2.734.294,3.9,3.9,0,0,1-.875.057.47.47,0,0,0-.434.194.33.33,0,0,0,0,.366,2.1,2.1,0,0,0,.871.291,12.966,12.966,0,0,0,2.5-.247,3.98,3.98,0,0,1,.893-.072c.075-.009.149-.019.149.1s-.074.131-.149.141a18.943,18.943,0,0,0-3.4.927,2.584,2.584,0,0,1-.871.2c-.071-.038-.216.069-.288.154s-.143.231-.073.268c.072.159.216.172.433.165a4.3,4.3,0,0,0,1.384-.2c.807-.2,1.474-.452,2.216-.629.149-.023.222-.1.372-.116.074-.011.149-.082.149.041,0,.061,0,.121-.074.132a.358.358,0,0,1-.224.092,25.254,25.254,0,0,0-3.605,2.019c-.145.1-.289.211-.434.318s-.287.277-.216.436.216.111.433.043a12.731,12.731,0,0,0,2.561-1.259c.3-.181.666-.307.964-.476.148-.084.224-.034.148.1a1.122,1.122,0,0,0,.075.842c.075.111-.074.194-.075.255a19.687,19.687,0,0,1-1.629,1.886c-.736.772-1.468,1.393-2.262,2.2-1.3,1.213-2.573,2.4-4,3.578-.477.374-1.013.743-1.474,1.092a2.313,2.313,0,0,1-1.806.568,2.512,2.512,0,0,1-1.892-2.565,26.747,26.747,0,0,1-.059-3.113C1453.683,586.355,1453.684,586.355,1453.743,586.179Z" transform="translate(-1453.107 -571.965)" fill="#dc5c75"/>
        <path id="Path_538" data-name="Path 538" d="M1494.95,574.468c-1.34.2-2.736.353-4.242.682-1.076.237-2.171.424-3.355.74a5.14,5.14,0,0,1-1.336.142c-.149.04-.223-.031-.3-.162a.976.976,0,0,0-.224-.576c-.076-.131-.074-.192.075-.3a25.379,25.379,0,0,1,3.838-2.269,9.024,9.024,0,0,1,4.732-.963,6.5,6.5,0,0,1,1.277.3c.134.081.2.061.264.224a.618.618,0,0,0,.263.288c.262.229.458.42.714.658.256.3.257.424.128.516-.128.214-.45.3-.777.391C1495.814,574.377,1495.353,574.393,1494.95,574.468Z" transform="translate(-1465.01 -571.037)" fill="#dc5c75"/>
        <path id="Path_539" data-name="Path 539" d="M1458.1,574.688c-.13-.094-.256-.125-.321-.2-.064-.137,0-.3.128-.517a2.889,2.889,0,0,1,.711-.666c.131-.086.261-.229.262-.291a.418.418,0,0,1,.329-.267,7.59,7.59,0,0,1,4.484-.03,20.827,20.827,0,0,1,4.529,2.055,6.029,6.029,0,0,0,.745.44c.149.041.151.1.075.234a1.238,1.238,0,0,0-.224.761c0,.183-.074.193-.224.153a11.927,11.927,0,0,1-2.219-.366,57.268,57.268,0,0,0-6.5-.9C1459.2,574.928,1458.613,574.82,1458.1,574.688Z" transform="translate(-1454.625 -571.285)" fill="#dc5c75"/>
        <path id="Path_540" data-name="Path 540" d="M1481.259,577.58a.9.9,0,0,1,.224.933,9.523,9.523,0,0,0-.15,2.058,4.263,4.263,0,0,0,.3,1.672c.075.129.076.252.15.381.074.191,0,.243-.3.214-.15-.013-.3-.086-.449-.1a1.83,1.83,0,0,0-1.2.124,1.307,1.307,0,0,1-.826.054c-.074,0-.151,0-.15-.059a2.124,2.124,0,0,0-1.8.031c-.148.073-.373.157-.449.1-.15-.106,0-.244,0-.426.3-1.006.525-2,.748-2.991a2.593,2.593,0,0,0-.224-1.688.161.161,0,0,1,0-.244c.076-.25.148-.318.374-.273a3.393,3.393,0,0,1,.825.139,2.829,2.829,0,0,0,1.652-.065.845.845,0,0,1,.375-.107C1480.658,577.171,1480.885,577.245,1481.259,577.58Z" transform="translate(-1461.671 -573.107)" fill="#f3cfd5"/>
        <path id="Path_541" data-name="Path 541" d="M1493.176,577.738c.36-.066.861-.132,1.217-.238,1.207-.206,2.386-.313,3.523-.444a1.207,1.207,0,0,1,.73.015c.066.041.066-.02.066-.02a.128.128,0,0,0-.066-.1l-.066-.041a1.706,1.706,0,0,1-.865.276c-1.276.249-2.74.364-4.323.626C1493.32,577.786,1493.248,577.823,1493.176,577.738Z" transform="translate(-1467.908 -572.978)"/>
        <path id="Path_542" data-name="Path 542" d="M1465.644,578.084c-2.1-.2-3.908-.374-5.562-.641A52.123,52.123,0,0,1,1465.644,578.084Z" transform="translate(-1455.498 -573.179)"/>
        <path id="Path_543" data-name="Path 543" d="M1492.25,578.395c.144.044.218-.118.434-.048C1492.539,578.421,1492.323,578.356,1492.25,578.395Z" transform="translate(-1467.561 -573.511)"/>
        <path id="Path_544" data-name="Path 544" d="M1491.669,578.617c.072.021.072.082.146.042V578.6s-.073-.082-.073-.021C1491.669,578.557,1491.669,578.617,1491.669,578.617Z" transform="translate(-1467.343 -573.596)"/>
        <path id="Path_545" data-name="Path 545" d="M1459.773,577.372c-.068-.02-.067-.019-.132.083,0,0-.067.1,0,.122s.066.019.132-.082Z" transform="translate(-1455.323 -573.148)"/>
        <path id="Path_546" data-name="Path 546" d="M1469.1,578.531Z" transform="translate(-1458.879 -573.587)"/>
      </g>
    </g>
    <g id="Group_305" data-name="Group 305" transform="translate(1420.28 648.172)">
      <g id="Group_303" data-name="Group 303" transform="translate(0)">
        <path id="Path_547" data-name="Path 547" d="M1470.712,700.713a9.436,9.436,0,0,0,5.313,4.938,18.475,18.475,0,0,0,7.938,1.313h.563a13.05,13.05,0,0,1-5.438,6.125,17.356,17.356,0,0,1-8.25,2.125,18.063,18.063,0,0,1-7.75-1.375,6.575,6.575,0,0,1-1.937-1.125h0a.931.931,0,0,1-.563-.25c-2.187-1.437-3.437-3.375-5-5.188-.25-.312.063-.375.438-.437h1.375a21,21,0,0,0,8.188-1.938,12.169,12.169,0,0,0,5.125-4.188m.375-3.313-1.813,2.625a11.275,11.275,0,0,1-4.437,3.688,18.32,18.32,0,0,1-7.438,1.75h-1.375c-1.187.063-1.75.5-1.938.938a1.447,1.447,0,0,0,.188,1.688,13.728,13.728,0,0,1,.875,1.125,19.328,19.328,0,0,0,4.375,4.375h0a7.215,7.215,0,0,0,.688.438,6.607,6.607,0,0,0,1.688.938,1.058,1.058,0,0,0,.313.125,19.357,19.357,0,0,0,8.625,1.563,19.776,19.776,0,0,0,9.188-2.438,14.588,14.588,0,0,0,6.063-6.813l1-2-2.625.125h-.5a17.081,17.081,0,0,1-7.125-1.188,8.05,8.05,0,0,1-4.5-4.188l-1.25-2.75Z" transform="translate(-1453.054 -695.712)" fill="#080808"/>
        <path id="Path_548" data-name="Path 548" d="M1469.581,716.513a19.521,19.521,0,0,1-8.188-1.625l-.312-.125a10.261,10.261,0,0,1-1.75-1,2.617,2.617,0,0,1-.813-.5,19.19,19.19,0,0,1-4.5-4.5c-.312-.375-.562-.75-.875-1.063a2.2,2.2,0,0,1-.25-2.688,3.092,3.092,0,0,1,2.625-1.313h1.375a16.556,16.556,0,0,0,7.063-1.687,9.787,9.787,0,0,0,4.125-3.438l2.688-3.875,1.875,4.188a7.306,7.306,0,0,0,4.063,3.75,16.3,16.3,0,0,0,6.75,1.125h.5l4.063-.25-1.625,3.313a15.313,15.313,0,0,1-6.375,7.125,20.407,20.407,0,0,1-9.563,2.5A4.753,4.753,0,0,1,1469.581,716.513Zm-8.625-5.625.25.25a5.24,5.24,0,0,0,1.313.813l.375.188a16.464,16.464,0,0,0,7.313,1.313,16.656,16.656,0,0,0,7.875-2.063,10.992,10.992,0,0,0,4.438-4.563,19,19,0,0,1-7.438-1.375,10.71,10.71,0,0,1-5.125-4.125,13.329,13.329,0,0,1-4.563,3.438,20.3,20.3,0,0,1-8.563,2h-.375c.062.063.125.125.125.188a16.3,16.3,0,0,0,3.875,3.875c.063.063.125.063.125.125Zm-6.75-4.875v.25A.19.19,0,0,1,1454.206,706.013Z" transform="translate(-1452.548 -694.7)"/>
      </g>
      <g id="Group_304" data-name="Group 304" transform="translate(2.428 5)">
        <path id="Path_549" data-name="Path 549" d="M1462.1,714.763a.931.931,0,0,1-.562-.25c-2.188-1.438-3.438-3.375-5-5.188-.312-.375.125-.438.625-.438a20.522,20.522,0,0,0,9.375-1.938,12.112,12.112,0,0,0,5.063-4.25,9.436,9.436,0,0,0,5.313,4.938,19.793,19.793,0,0,0,8.5,1.313,13.051,13.051,0,0,1-5.438,6.125c-.125-.062-.187-.187-.312-.25a16.847,16.847,0,0,0-12.938-2.063A10.666,10.666,0,0,0,1462.1,714.763Z" transform="translate(-1456.432 -702.7)" fill="#c33d48"/>
        <path id="Path_550" data-name="Path 550" d="M1465.5,720.524a10.54,10.54,0,0,1,4.75-2,16.894,16.894,0,0,1,12.938,2.063c.125.063.188.188.313.25-4.25,2.563-11.563,2.875-16,.813A6.181,6.181,0,0,1,1465.5,720.524Z" transform="translate(-1459.832 -708.461)" fill="#dc5c75"/>
      </g>
    </g>
    <path id="Path_551" data-name="Path 551" d="M1476.137,685.805a17.007,17.007,0,0,0,7.063-1.438c4-1.5,4.813-5.875,1.813-9-3.188-3.313-7.313-3.125-11.438-3-3.312.062-6.687-.375-9.938,1.313-2.437,1.25-3.437,2.938-3.25,5.563.125,2.438.313,4.563,3.063,5.563,1.563.563,3.063,1.5,4.75,1.688l6.125-.437A3.851,3.851,0,0,1,1476.137,685.805Z" transform="translate(-35.199 -38.133)" fill="#080808"/>
    <path id="Path_552" data-name="Path 552" d="M1451.36,660.386c3.063,0,5.125-.563,4.938-3.313-.125-2.187-.937-4.25-3.75-4.375-2.312-.062-3.75.813-3.75,3.313C1448.735,658.261,1449.3,660.261,1451.36,660.386Z" transform="translate(-30.86 -30.777)" fill="#f8bf41"/>
    <path id="Path_553" data-name="Path 553" d="M1506.325,658.486c.25-2.438-1-3.625-3.625-3.688-2.562-.062-4,1.25-4,3.625a3.688,3.688,0,0,0,3.813,4C1505.138,662.611,1506.388,661.3,1506.325,658.486Z" transform="translate(-49.574 -31.565)" fill="#f8bf41"/>
    <path id="Path_554" data-name="Path 554" d="M1410.562,817.749c1.313-2.875.125-5.813-.5-8.438-1.625-6.375-1-12.438.313-18.625,1.25-5.813,2.813-11.5,6.25-16.438.625-.937,1.313-2.625,2.813-1.625,1.25.875.563,2.313-.187,3.313-5.188,7.25-5.938,15.875-7.188,24.313-.5,3.375.625,6.813,1.375,10.125a9.892,9.892,0,0,1,.313,2.375c.188,5.438.188,5.438,5.5,5.438,7,0,14.063-.062,21.063.063,1.563,0,2.688-.25,3-2,1.188-6.5,3.438-12.75,3.125-19.563-.312-7.125-2.25-13.938-3.75-20.813a8.085,8.085,0,0,1-.5-1.625c.063-1.063-.937-2.563.625-3,1.688-.5,1.938,1,2.375,2.25a88.813,88.813,0,0,1,4.375,25.188,44.337,44.337,0,0,1-2.813,15.75c-.937,2.625-.562,3.938,2.813,3.875,7.25-.187,14.563-.062,21.813.063,2.438.063,3.25-.812,2.5-3.062-.937-2.813-.562-6.188-3.563-8.25-.875-.625-.5-2.25-.25-3.313,3.063-12.688,2.813-25.563,2.625-38.438a25.478,25.478,0,0,0-.937-6.063c-.375-1.438-.437-2.75.938-3.188,1.563-.437,1.813,1.375,2,2.313.938,6.563,2.125,13.063,1.063,19.813-.813,5-.063,10.063-.813,15.125-.437,2.938-.687,5.875-1.25,8.813-.25,1.5-.813,3,1.813,1.813,3-1.312,6.313-.562,9.5-1.25,1.25-.25,2.5.188,2.688,1.563.188,1.688-1.187,1.625-2.375,1.625a31.536,31.536,0,0,0-3.438,0c-6.563.75-6.625.75-5,7.125.438,1.75-1.188,4.25,1.125,5.188,1.625.625,3.625.125,5.5.188l18.688.375c6.688.125,13.313.25,20,.313.938,0,1.875,0,2.75.063.938.062,2,.313,1.938,1.5-.062.938-.937,1.188-1.812,1.188h-2.437c-28.751-.125-57.5,0-86.19-.375-22.063-.25-44.064-.25-66.127-.375h-1.75c-.937,0-2-.062-2.062-1.25-.062-1.375,1.063-1.5,2.188-1.563,8.063,0,16.125-.062,24.188-.062C1398.624,818.186,1404.625,818.5,1410.562,817.749Z" transform="translate(0 -69.512)" fill="#080809"/>
    <path id="Path_555" data-name="Path 555" d="M1572.9,769.091c6.875-1.375,13.875-1.562,20.751-2.312,9.563-1.062,15.688-6.813,20.5-14.563,1.375-2.188,2.688-5.188,6-4.063,3.188,1.125,3.375,4,2.875,7.125-2.062,12.813-9.875,21.063-20.938,26.813-7.125,3.688-14.813,4.688-22.625,4.813h.188a12.043,12.043,0,0,1-1.5-.062C1576.4,780.967,1574.65,775.029,1572.9,769.091Z" transform="translate(-77.398 -66.48)" fill="#f4e7d0"/>
    <path id="Path_556" data-name="Path 556" d="M1418.87,681.023c-1.938-4.063-2.125-8.188-1.688-12.813.75-7.625,2.313-15.063,3.75-22.5.375-1.875.313-4.688,3.813-4.063-1.437,7.625-3.062,15.188-4.312,22.813a39.289,39.289,0,0,0,.125,12.688c.25,1.438.438,2.688-.437,3.875A4.194,4.194,0,0,1,1418.87,681.023Z" transform="translate(-18.933 -26.6)" fill="#080809"/>
    <path id="Path_557" data-name="Path 557" d="M1533.9,691.827c-2.062-.687-1.187-2.438-.937-3.5a120.185,120.185,0,0,0,1.938-31.751c-.062-.687-.937-1.562.563-1.687,1.063-.062,2-.062,2.313,1.375a38.387,38.387,0,0,1,.563,11.625c-.75,6.313-.687,12.75-1.937,19.063a25.307,25.307,0,0,1-1.5,4.813A5.721,5.721,0,0,1,1533.9,691.827Z" transform="translate(-62.272 -31.592)" fill="#080809"/>
    <path id="Path_558" data-name="Path 558" d="M1570.913,781.712c1.75,5.938,3.5,11.875,5.313,17.813-.563,1.125-1.875.75-2.688,1.375-2-6.25-3.937-12.438-5.938-18.688C1568.663,782.15,1569.663,781.212,1570.913,781.712Z" transform="translate(-75.411 -79.101)" fill="#080809"/>
    <path id="Path_559" data-name="Path 559" d="M1583.587,810.3h-.187C1583.462,810.737,1583.525,810.675,1583.587,810.3Z" transform="translate(-81.335 -89.876)" fill="#080809"/>
    <path id="Path_560" data-name="Path 560" d="M1451.325,660.386c-2.063-.125-2.625-2.063-2.625-4.375,0-2.5,1.438-3.375,3.75-3.313,2.813.125,3.625,2.188,3.75,4.375C1456.45,659.761,1454.388,660.323,1451.325,660.386Z" transform="translate(-30.825 -30.777)" fill="#080809"/>
    <path id="Path_561" data-name="Path 561" d="M1506.363,658.524c.063,2.813-1.187,4.125-3.75,4a3.688,3.688,0,0,1-3.812-4c0-2.375,1.438-3.688,4-3.625S1506.55,656.149,1506.363,658.524Z" transform="translate(-49.612 -31.602)" fill="#080809"/>
  </g>
</svg>
