<svg xmlns="http://www.w3.org/2000/svg" width="95.324" height="141.648" viewBox="0 0 95.324 141.648">
  <g id="Group_314" data-name="Group 314" transform="translate(-347.53 -194.659)">
    <path id="Path_587" data-name="Path 587" d="M364.559,333.543c0-7.091,2-13.343,2-20.372q0-9.744,0-19.487c0-6.666,1.5-13.016,1.5-19.687a47.919,47.919,0,0,1,2.514-16.558c1.844-4.968,4.436-10.043,5.412-14.919-4.227.236-12.754-2.865-14.05-5.453-1.7-3.39,4.373-8.038,3.048-11.765-7.489,2.81-15.239,3.028-16.818-3.528a26.331,26.331,0,0,1,1.5-15.92c1.858-4.786,6.151-9.9,14.905-7.084,4.343,1.4,4.816,1.989,9.978,1.663,4.312-.271,8.027-.95,12.4-.877,5.372.09,3.935-.117,7.725-2.531a12.671,12.671,0,0,1,10.269-1.6c4.479.991,6.773,3.573,9.124,6.041,2.046,2.147,5.273,3.832,7.017,5.963,4.393,5.371-1.425,10.636-6.017,14.983-3.051,2.89-2.914,3.545-1.135,6.686,1.987,3.51,1.057,3.94-2.267,7.023-4.751,4.41.375,10.887,3.517,15.562,8.306-3.777,8.515-10.255,12-15.865,6.942,3.888.631,12.482-4.015,15.9-2.255,1.661-6.432,2.933-7.11,5.081-.788,2.494,3.482,6.32,4.886,8.6,7,11.357,12.835,23.874,14.741,35.966a102.464,102.464,0,0,1,1.389,16.575c-.018,4.258,6.692,10.22,3.914,13.956-4.573-.53-5.367,1.828-8.415,3.27-1.286-.916-1.767-1.991-2.978-2.943-1.494.592-2.995,1.146-4.522,1.669-3.892-1.758-3.638-8.012-4.531-10.857-.789-2.51-.17-8.388-2.987-9.91-8.571,5.708-6.779-7.03-6.989-9.833-.414-5.552-.168-10.9-1.574-16.192-2.684-.178-4.838.5-7.417.263-2.606-.243-4.586-1.515-7.438-1.218.52,5.6.206,11.162,1.436,16.829.569,2.622.273,5.266.488,7.961.1,1.225.928,2.6.5,3.821-.875,2.494-.572,1.114-3.012,1.918.459-.151-2.388-.362-2.5-.349-.869.1-.973,1.183-1.963,1.314-1.16.152-5.848-.3-6.424.031-2.126,1.218-.24,6.3-.1,7.913.213,2.487.359,5.122-1.014,7.314-2.2,3.515-3.333,1.553-7.514,1.835-3.135.211-7.807,3.24-9.478-.87" transform="translate(0)" fill="#e9e8e8"/>
    <path id="Path_588" data-name="Path 588" d="M374.039,197.962c2.132,1.7,4.8,4.071,8.526,4.411,8.526-2.714,11.722-4.411,20.248-1.018,1.6-1.018,4.8-5.429,6.928-6.107,6.395-1.357,11.723,4.071,14.921,6.785,5.861,3.732,9.059,5.089,7.461,10.517-1.066,3.393-5.329,10.856-10.659,12.892-5.861-5.428-2.13-23.07-13.854-23.07" transform="translate(-9.626 -0.011)" fill="none" stroke="#1a1818" stroke-miterlimit="10" stroke-width="0.799"/>
    <path id="Path_589" data-name="Path 589" d="M365.1,199.71c-16.519-5.768-18.118,21.373-13.322,26.8,3.2,3.732,9.059,3.393,13.856,1.018,6.395-2.714,5.328-5.428,3.73-9.5-1.066-2.714-5.329-8.482-.534-9.839h0" transform="translate(-0.683 -1.419)" fill="none" stroke="#1a1818" stroke-miterlimit="10" stroke-width="0.799"/>
    <path id="Path_590" data-name="Path 590" d="M376.857,242.249c0,.339-4.8,9.5-5.328,12.553,14.919,10.857,20.249-1.018,28.775-6.106h1.065c1.6,4.071,5.329,9.159,12.256,8.821,10.125-.339,15.453-13.231,6.395-14.927" transform="translate(-8.715 -17.157)" fill="none" stroke="#1a1818" stroke-miterlimit="10" stroke-width="0.799"/>
    <path id="Path_591" data-name="Path 591" d="M411.163,243.656c-2.665-.339-4.264-1.357-5.33-3.393,3.2-.339,6.395-.679,9.06-.679a4.042,4.042,0,0,1-2.665,4.071,3.478,3.478,0,0,1-2.132-.678" transform="translate(-21.172 -16.189)" fill="none" stroke="#1a1818" stroke-miterlimit="10" stroke-width="0.799"/>
    <path id="Path_592" data-name="Path 592" d="M394.526,226.512c.533-.679-.531,1.357.533,3.054a19.977,19.977,0,0,0-.533-5.429v4.411c0-.679-.531-2.036-.531-3.054a5.31,5.31,0,0,0,.531,4.071" transform="translate(-16.793 -10.579)" fill="none" stroke="#1a1818" stroke-miterlimit="10" stroke-width="0.799"/>
    <path id="Path_593" data-name="Path 593" d="M421.124,225.2v4.41h0a13.348,13.348,0,0,0,1.066-4.41,29.759,29.759,0,0,1-2.132,3.393" transform="translate(-26.338 -10.966)" fill="none" stroke="#1a1818" stroke-miterlimit="10" stroke-width="0.799"/>
    <line id="Line_13" data-name="Line 13" y2="0.339" transform="translate(362.281 214.236)" fill="none" stroke="#1a1818" stroke-miterlimit="10" stroke-width="0.799"/>
    <line id="Line_14" data-name="Line 14" y2="0.339" transform="translate(379.866 229.164)" fill="none" stroke="#1a1818" stroke-miterlimit="10" stroke-width="0.799"/>
    <path id="Path_594" data-name="Path 594" d="M394.881,257.165c-.533.339-1.064.678-1.6.339" transform="translate(-16.615 -22.573)" fill="none" stroke="#1a1818" stroke-miterlimit="10" stroke-width="0.799"/>
    <line id="Line_15" data-name="Line 15" x1="0.533" y2="0.339" transform="translate(372.938 237.306)" fill="none" stroke="#1a1818" stroke-miterlimit="10" stroke-width="0.799"/>
    <path id="Path_595" data-name="Path 595" d="M389.862,254.841a2.748,2.748,0,0,0-1.6-.339" transform="translate(-14.792 -21.606)" fill="none" stroke="#1a1818" stroke-miterlimit="10" stroke-width="0.799"/>
    <path id="Path_596" data-name="Path 596" d="M388.263,252.177a13.9,13.9,0,0,1,3.731-.339" transform="translate(-14.792 -20.639)" fill="none" stroke="#1a1818" stroke-miterlimit="10" stroke-width="0.799"/>
    <path id="Path_597" data-name="Path 597" d="M402.182,253.969c-.532,0-.532.339-.532.678" transform="translate(-19.653 -21.413)" fill="none" stroke="#1a1818" stroke-miterlimit="10" stroke-width="0.799"/>
    <path id="Path_598" data-name="Path 598" d="M430.632,255.906c0,.679-.533,0-.533-.339" transform="translate(-29.984 -21.993)" fill="none" stroke="#1a1818" stroke-miterlimit="10" stroke-width="0.799"/>
    <path id="Path_599" data-name="Path 599" d="M430.732,248.642H431.8" transform="translate(-30.083 -19.478)" fill="none" stroke="#1a1818" stroke-miterlimit="10" stroke-width="0.799"/>
    <path id="Path_600" data-name="Path 600" d="M440.976,250.773v1.357" transform="translate(-33.934 -20.252)" fill="none" stroke="#1a1818" stroke-miterlimit="10" stroke-width="0.799"/>
    <path id="Path_601" data-name="Path 601" d="M438.7,258.376c-.534,0-.534-.339-1.066-.679" transform="translate(-32.718 -22.766)" fill="none" stroke="#1a1818" stroke-miterlimit="10" stroke-width="0.799"/>
    <path id="Path_602" data-name="Path 602" d="M428.121,250.046c-.532,0-.532,0-.532-.339" transform="translate(-29.072 -19.865)" fill="none" stroke="#1a1818" stroke-miterlimit="10" stroke-width="0.799"/>
    <path id="Path_603" data-name="Path 603" d="M439.532,250.773c0,.339-.533.339-1.067.339" transform="translate(-33.022 -20.252)" fill="none" stroke="#1a1818" stroke-miterlimit="10" stroke-width="0.799"/>
    <line id="Line_16" data-name="Line 16" y1="0.339" transform="translate(403.312 231.878)" fill="none" stroke="#1a1818" stroke-miterlimit="10" stroke-width="0.799"/>
    <line id="Line_17" data-name="Line 17" y2="0.339" transform="translate(407.576 228.824)" fill="none" stroke="#1a1818" stroke-miterlimit="10" stroke-width="0.799"/>
    <path id="Path_604" data-name="Path 604" d="M401.631,266.027c-.532-.339,5.329,2.714,6.927,3.054,3.2,0,10.124-2.375,6.928-3.393" transform="translate(-19.634 -25.668)" fill="none" stroke="#1a1818" stroke-miterlimit="10" stroke-width="0.799"/>
    <path id="Path_605" data-name="Path 605" d="M411.691,259.3a7.193,7.193,0,0,0,2.664.34" transform="translate(-23.299 -23.347)" fill="none" stroke="#1a1818" stroke-miterlimit="10" stroke-width="0.799"/>
    <path id="Path_606" data-name="Path 606" d="M410.018,241.184c1.6,1.018,2.132,2.035,4.8,1.7-1.066-.339-2.664-.678-3.73-1.018a23.34,23.34,0,0,1,4.8-.678c-.532,0-2.132.339-2.132.678-2.132.679,0-.339,0-.339" transform="translate(-22.692 -16.77)" fill="none" stroke="#1a1818" stroke-miterlimit="10" stroke-width="0.799"/>
    <path id="Path_607" data-name="Path 607" d="M397.827,266.561c-3.2,2.036,3.2,12.892,12.256,11.874,7.46-1.357,9.059-8.481,10.658-12.213,0,4.071-3.2,15.945-12.258,16.285-7.993.339-10.657-10.857-11.19-14.25-.532.34,0,.679.533,1.358" transform="translate(-17.962 -25.862)" fill="none" stroke="#1a1818" stroke-miterlimit="10" stroke-width="0.799"/>
    <path id="Path_608" data-name="Path 608" d="M411.906,293.2c-.532,0-2.664,2.035,1.067,3.053,4.8,1.7,7.46-3.053.532-3.393" transform="translate(-22.982 -35.534)" fill="none" stroke="#1a1818" stroke-miterlimit="10" stroke-width="0.799"/>
    <path id="Path_609" data-name="Path 609" d="M387.272,268.353c-5.328,2.714-5.328,12.213-6.393,16.624-1.6,7.125-3.2,14.249-4.8,21.712-1.6,9.16,1.6,19,2.132,28.159,0,4.75,1.065,9.5.531,13.909,0,3.733-8.525,12.213-3.2,12.893h1.066" transform="translate(-9.538 -26.636)" fill="none" stroke="#1a1818" stroke-miterlimit="10" stroke-width="0.799"/>
    <path id="Path_610" data-name="Path 610" d="M380.864,411.652c-4.262,3.392,3.731,4.071,5.864.679" transform="translate(-11.657 -78.673)" fill="none" stroke="#1a1818" stroke-miterlimit="10" stroke-width="0.799"/>
    <path id="Path_611" data-name="Path 611" d="M390.774,379.4c2.13,3.731,7.459.338,9.057-3.054,2.132-4.071-.532-10.857-.532-15.267-.532-13.57,2.665-27.48,1.6-41.051" transform="translate(-15.703 -45.4)" fill="none" stroke="#1a1818" stroke-miterlimit="10" stroke-width="0.799"/>
    <path id="Path_612" data-name="Path 612" d="M409.18,335.281c11.19,0,13.854,8.142,26.111-.34" transform="translate(-22.387 -50.817)" fill="none" stroke="#1a1818" stroke-miterlimit="10" stroke-width="0.799"/>
    <path id="Path_613" data-name="Path 613" d="M446.833,311.5c2.664,7.464,1.065,18.321,6.394,25.105l-.533-.679c.533,12.214,7.46,27.142,6.395,38" transform="translate(-36.061 -42.305)" fill="none" stroke="#1a1818" stroke-miterlimit="10" stroke-width="0.799"/>
    <path id="Path_614" data-name="Path 614" d="M465.949,405.893c2.132-1.018-1.066.679,0,1.7,2.665,2.035,6.395,1.356,6.395-2.036,1.6,4.071,7.46,4.071,6.927-.338,4.8,4.748,7.993-2.036,4.263-4.75" transform="translate(-42.921 -74.611)" fill="none" stroke="#1a1818" stroke-miterlimit="10" stroke-width="0.799"/>
    <path id="Path_615" data-name="Path 615" d="M419.594,338.671c-2.133,1.7.531,13.91,1.065,17.641,0,3.393,2.132,10.517,1.065,12.553" transform="translate(-25.873 -52.171)" fill="none" stroke="#1a1818" stroke-miterlimit="10" stroke-width="0.799"/>
    <path id="Path_616" data-name="Path 616" d="M416.3,382.353c-2.664,1.357,2.664,5.089,5.329,1.018" transform="translate(-24.708 -68.034)" fill="none" stroke="#1a1818" stroke-miterlimit="10" stroke-width="0.799"/>
    <path id="Path_617" data-name="Path 617" d="M410.624,382.885c-1.065,2.036,0,3.054,3.2,2.375" transform="translate(-22.767 -68.227)" fill="none" stroke="#1a1818" stroke-miterlimit="10" stroke-width="0.799"/>
    <path id="Path_618" data-name="Path 618" d="M405.715,383.418c-1.065,2.714,2.132,3.732,5.862,1.7" transform="translate(-21.054 -68.421)" fill="none" stroke="#1a1818" stroke-miterlimit="10" stroke-width="0.799"/>
    <path id="Path_619" data-name="Path 619" d="M443.486,340.56V339.2c2.665,7.8,5.329,20.356,2.132,27.141" transform="translate(-34.845 -52.364)" fill="none" stroke="#1a1818" stroke-miterlimit="10" stroke-width="0.799"/>
    <path id="Path_620" data-name="Path 620" d="M447.67,381.82c1.066,2.036,3.2,2.375,5.328.339" transform="translate(-36.365 -67.84)" fill="none" stroke="#1a1818" stroke-miterlimit="10" stroke-width="0.799"/>
    <path id="Path_621" data-name="Path 621" d="M455.2,379.156a3.733,3.733,0,0,1,1.065,2.375" transform="translate(-39.099 -66.873)" fill="none" stroke="#1a1818" stroke-miterlimit="10" stroke-width="0.799"/>
    <path id="Path_622" data-name="Path 622" d="M460.449,381.287a1.34,1.34,0,0,1-1.064.339" transform="translate(-40.619 -67.647)" fill="none" stroke="#1a1818" stroke-miterlimit="10" stroke-width="0.799"/>
    <path id="Path_623" data-name="Path 623" d="M445.159,266.222c4.8,6.107,6.927,14.589,9.06,21.713h0v-1.018c6.394,12.213,11.19,25.783,16.519,38.336,2.132,5.429,2.132,11.534,2.664,17.642A24.522,24.522,0,0,0,474.467,349c0,.679,3.2,4.411,1.067,2.376" transform="translate(-35.453 -25.862)" fill="none" stroke="#1a1818" stroke-miterlimit="10" stroke-width="0.799"/>
    <path id="Path_624" data-name="Path 624" d="M453.525,274.516c7.994-4.749,12.258-9.5,12.258-16.285,10.125,8.142-4.8,15.946-10.659,21.034" transform="translate(-38.491 -22.96)" fill="none" stroke="#1a1818" stroke-miterlimit="10" stroke-width="0.799"/>
  </g>
</svg>
