<svg xmlns="http://www.w3.org/2000/svg" width="176.825" height="170.332" viewBox="0 0 176.825 170.332">
  <g id="Group_300" data-name="Group 300" transform="translate(-1366.496 -584.468)">
    <path id="Path_505" data-name="Path 505" d="M1403.669,658.554c-3.933,5.47-7.56,6.884-12.169,4.978a8.2,8.2,0,0,1-4.917-5.716c-3.2-11-7.006-21.818-8.85-33.188a6.822,6.822,0,0,1,.983-4.855,67.054,67.054,0,0,1,24.215-23.969c12.107-7.191,25.137-11.493,39.211-10.755,17.024.922,32.328,6.76,44.865,18.745a72.447,72.447,0,0,1,14.75,18.93,16.033,16.033,0,0,1,1.045,13.4c-2.766,7.621-5.347,15.3-8.42,22.8-1.967,4.794-5.1,8.727-10.632,9.956-4.241.983-6.945-.492-8.666-4.671a24.878,24.878,0,0,0,1.475-4.732c1.168-6.207,1.106-12.476,1.905-18.745a37.558,37.558,0,0,0-.553-11.432c-.307-1.475-1.229-1.414-2.274-1.352-1.475.061-.615.983-.553,1.659a118.18,118.18,0,0,1-1.905,31.221c-.246,1.106-1.106,2.766.922,3.442-.184.983-1.229,1.6-.184,3.012,8.3,11.493,14.2,24.277,19.544,37.306.246.615.553,1.229.861,1.844,1.967,6.146,3.872,12.23,5.839,18.376,1.414,8.113,2.766,16.287,4.179,24.4a2.964,2.964,0,0,1-.307,2.581l-18.376-.369c-1.844-.061-3.811.492-5.409-.184-2.274-.922-.676-3.38-1.106-5.1-1.6-6.207-1.536-6.269,4.917-7.006a20.691,20.691,0,0,1,3.38,0c1.168,0,2.52.123,2.335-1.6-.184-1.352-1.414-1.782-2.643-1.536-3.073.676-6.392-.123-9.342,1.229-2.581,1.168-2.028-.307-1.782-1.782.553-2.889.8-5.777,1.229-8.666.738-4.978,0-10.018.8-14.873,1.045-6.638-.184-13.029-1.045-19.483-.123-.922-.43-2.643-1.967-2.274-1.414.369-1.352,1.721-.922,3.135a24.127,24.127,0,0,1,.922,5.962c.123,12.661.43,25.321-2.581,37.8-.246,1.045-.615,2.643.246,3.257,2.889,2.028,2.581,5.347,3.5,8.113.738,2.213-.062,3.073-2.458,3.012-7.129-.123-14.32-.307-21.449-.061-3.319.061-3.688-1.168-2.766-3.81a43.355,43.355,0,0,0,2.766-15.488,87.333,87.333,0,0,0-4.3-24.768c-.369-1.229-.676-2.7-2.335-2.213-1.536.43-.553,1.905-.615,2.95a9.383,9.383,0,0,0,.492,1.6c1.475,6.761,3.38,13.46,3.688,20.466.307,6.7-1.905,12.845-3.073,19.237-.307,1.721-1.414,1.967-2.95,1.967-6.884-.061-13.828-.061-20.712-.061-5.224,0-5.224,0-5.408-5.347a15.213,15.213,0,0,0-.307-2.335c-.738-3.319-1.844-6.7-1.352-9.956,1.229-8.236,1.967-16.717,7.068-23.908.738-.983,1.414-2.458.184-3.257-1.414-.983-2.09.676-2.766,1.6-3.442,4.855-4.917,10.448-6.146,16.164-1.291,6.085-1.967,12.108-.307,18.315.676,2.581,1.782,5.47.492,8.3-8.789.061-17.639.061-26.428.123-2.212,0-2.028-1.414-1.721-2.766a21.945,21.945,0,0,1,2.52-6.945c3.81-6.392,2.7-13.828,4.3-20.65,2.458-10.694,3.442-21.757,6.823-32.266,2.274-7.129,5.286-14.074,8.174-21.019.922-2.274.738-3.872-.86-5.593a6.392,6.392,0,0,1-1.905-3.134c.86-1.229.676-2.4.43-3.81a38.635,38.635,0,0,1-.123-12.476c1.168-7.5,2.766-15,4.241-22.433-3.442-.615-3.38,2.09-3.75,3.995-1.414,7.314-2.95,14.627-3.687,22.125C1401.58,650.5,1401.764,654.559,1403.669,658.554Z" transform="translate(-4.29 0)" fill="#f6f2f2" stroke="#515151" stroke-miterlimit="10" stroke-width="1"/>
    <path id="Path_506" data-name="Path 506" d="M1422.9,720.007a37.649,37.649,0,0,0,33.372,17.639c23.478-.553,36.691-17.946,36.691-17.946" transform="translate(-21.738 -51.927)" fill="none" stroke="#080808" stroke-miterlimit="10" stroke-width="1"/>
    <path id="Path_507" data-name="Path 507" d="M1470.786,746.188c-.184-.246-.369-.553-.553-.8-.062-.061-.062-.123-.184-.061a1.011,1.011,0,0,1-.615.123,1.7,1.7,0,0,0-1.229.184.94.94,0,0,1-.984-.061,1.376,1.376,0,0,0-1.291-.062,1.011,1.011,0,0,1-.615.062c-.062,0-.123.061-.184.123a15,15,0,0,1-4.3,4.056,9.474,9.474,0,0,1-3.073,1.475,10.431,10.431,0,0,1-1.352.246,2.5,2.5,0,0,1-2.09-.86,7.448,7.448,0,0,1-2.089-4.548,32.412,32.412,0,0,1-.062-3.442v-.983c0-.123,0-.184.062-.246.184-.061.123-.184.123-.307a12.344,12.344,0,0,1,.123-5.408,8.407,8.407,0,0,1,1.291-2.827,2.011,2.011,0,0,1,2.028-.8,10.267,10.267,0,0,1,4.118,1.782,24.457,24.457,0,0,1,4.3,3.626c.43.369.922.86,1.291,1.229a.558.558,0,0,0,.43.184,3.757,3.757,0,0,1,.8.184,1.247,1.247,0,0,0,1.045-.061,5.821,5.821,0,0,1,.553-.184.855.855,0,0,1,.86.061c.123.061.123,0,.184-.061a32.248,32.248,0,0,1,2.581-2.458,20.613,20.613,0,0,1,4.548-3.442,11.136,11.136,0,0,1,2.827-1.045,1.9,1.9,0,0,1,2.151.922,10.186,10.186,0,0,1,1.659,4.794,14.333,14.333,0,0,1-.123,3.257.226.226,0,0,0,.061.184c.123.061.123.123.123.246,0,1.475.184,2.95.062,4.425a7.5,7.5,0,0,1-1.782,4.425,2.873,2.873,0,0,1-2.889,1.045,10.179,10.179,0,0,1-3.442-1.291,22.241,22.241,0,0,1-3.872-2.95C1471.278,746.741,1471.032,746.495,1470.786,746.188Zm9.526-13.767.062.061c.123.123.307.246.43.369a1.346,1.346,0,0,1-.123,1.352,7.794,7.794,0,0,1-2.028,2.213,11.726,11.726,0,0,1-1.844,1.352,24.084,24.084,0,0,1-3.442,2.028,9.009,9.009,0,0,1-2.458.86c-.553.061-.553.061-.553.615v.061c0,.123,0,.184.123.123s.184-.061.307-.123a13.516,13.516,0,0,1,2.274-.307,3.753,3.753,0,0,0,.8-.184c.123-.061.307-.123.43,0a.3.3,0,0,1-.061.43,2.939,2.939,0,0,1-1.045.615,10.537,10.537,0,0,1-1.475.246c-.369,0-.8.062-1.106.062-.123,0-.184,0-.184.123,0,.184.123.061.184.061h.676c.8,0,1.6.184,2.335.246a1.328,1.328,0,0,0,.676-.061c.123-.061.184,0,.246.061a.27.27,0,0,1,.061.307.741.741,0,0,1-.307.307,2.824,2.824,0,0,1-1.413.184c-.738,0-1.414-.184-2.213-.246-.062,0-.123-.061-.184,0,0,.062.061.062.123.123.922.307,1.844.676,2.7.983a5.421,5.421,0,0,1,1.229.553c.184.123.246.307.061.43a.46.46,0,0,1-.307.061,10.384,10.384,0,0,1-2.7-.738,5.624,5.624,0,0,1-.86-.43c0,.246.123.553.061.737a.469.469,0,0,0,.123.307,16.262,16.262,0,0,0,1.291,1.6,20.339,20.339,0,0,0,4.179,3.073,9.709,9.709,0,0,0,2.95.922,2.117,2.117,0,0,0,1.782-.676,7.131,7.131,0,0,0,1.659-2.889,13.776,13.776,0,0,0,.184-4.487c0-.061,0-.061-.062-.061s-.062,0-.123.061a1.216,1.216,0,0,1-.615.43,5.637,5.637,0,0,0-1.291.8c-.123.062-.246.062-.307-.061a.2.2,0,0,1,0-.307l.123-.123a5.74,5.74,0,0,1,.922-.8,1.909,1.909,0,0,0,.983-1.229,10.6,10.6,0,0,0,.307-2.335,10.734,10.734,0,0,0-.676-4.118,9.763,9.763,0,0,0-1.106-2.09,1.045,1.045,0,0,0-.615-.369l-.184-.123Zm-27.534,10.448c0,.061-.061.061-.061.123a28.026,28.026,0,0,0,.061,3.2,7.1,7.1,0,0,0,1.905,4.179,2.1,2.1,0,0,0,1.721.676,10.41,10.41,0,0,0,1.352-.246,16.236,16.236,0,0,0,5.408-3.5,5.665,5.665,0,0,0,1.352-1.6c.062-.062.123-.123.062-.246a1.971,1.971,0,0,1-.062-.86c0-.123,0-.184-.123-.123a4.273,4.273,0,0,1-.8.307c-.738.246-1.414.43-2.151.615-.123,0-.307,0-.369-.184a.3.3,0,0,1,.184-.369l.369-.184c.983-.43,1.967-.86,3.012-1.229.061,0,.123-.061.184-.061s.062-.061.062-.123-.062-.062-.123-.062c-.123,0-.184.062-.307.062a9.383,9.383,0,0,1-1.844.184,2.592,2.592,0,0,1-1.168-.184c-.123-.062-.307-.123-.369-.307-.062-.123,0-.184.062-.246s.184-.123.246-.061a1.451,1.451,0,0,0,.738.061,14.24,14.24,0,0,1,2.827-.246c.123,0,.123-.061.123-.123,0-.123-.062-.123-.123-.123a3.243,3.243,0,0,1-.737-.062,7.8,7.8,0,0,1-2.09-.307,1.567,1.567,0,0,1-.738-.553c-.061-.123-.123-.246,0-.369a.29.29,0,0,1,.369-.061,1.308,1.308,0,0,0,.737.184c.8.123,1.6.123,2.274.246.553.123.553.061.43-.43,0-.123-.061-.123-.184-.123a4.63,4.63,0,0,1-1.782-.369,21.6,21.6,0,0,1-7.99-5.163,2.911,2.911,0,0,1-.737-1.168,1.148,1.148,0,0,1,.246-1.168c.061-.061.184-.123.246-.184h-.123a2.521,2.521,0,0,0-.983.983,11.117,11.117,0,0,0-.983,7.437,2.877,2.877,0,0,0,1.229,1.782,2.79,2.79,0,0,1,.922.8c.061.123.123.246,0,.369a.23.23,0,0,1-.369,0C1454.192,743.668,1453.393,743.545,1452.778,742.869Zm25.444-7.5c.307-.246.738-.615,1.106-.922a3.738,3.738,0,0,0,.738-.922c.123-.246.062-.307-.123-.43a1.24,1.24,0,0,0-.676-.184c-.123,0-.246-.061-.246-.123-.061-.123-.123-.123-.246-.062a8.96,8.96,0,0,0-1.168.43,20.757,20.757,0,0,0-4.118,2.889c-1.106.983-2.151,2.028-3.2,3.073-.123.123-.123.184-.061.307a.751.751,0,0,1,.184.553c0,.123.123.184.246.123l1.106-.369a18.876,18.876,0,0,0,2.827-1.659C1475.764,737.153,1477.055,736.354,1478.223,735.371Zm-22.617-1.106a7.468,7.468,0,0,0,1.659,1.414,48.241,48.241,0,0,0,5.654,3.5,9.828,9.828,0,0,0,1.844.8c.123.062.184.062.184-.123a1.458,1.458,0,0,1,.184-.737c.061-.123.061-.184-.062-.246a5.521,5.521,0,0,0-.615-.553,27.976,27.976,0,0,0-3.81-3.257,11.97,11.97,0,0,0-3.995-2.151c-.123-.061-.246-.061-.307.061a.245.245,0,0,1-.246.123c-.184.061-.43.123-.676.184-.184.123-.246.246-.123.43A5.532,5.532,0,0,0,1455.605,734.264Zm13.767,5.408c-.246-.307-.43-.369-.86-.184-.123.061-.184.061-.307.123a1.727,1.727,0,0,1-1.352.061c-.184-.061-.43-.123-.676-.184-.246,0-.307,0-.307.246v.246a3.258,3.258,0,0,1,.184,1.721,16.819,16.819,0,0,1-.615,2.95c-.062.123-.123.307,0,.43s.246,0,.369-.061a1.563,1.563,0,0,1,1.475.061c.061,0,.061.061.123.061a.871.871,0,0,0,.676-.061,1.425,1.425,0,0,1,.983-.184c.123,0,.246.061.369.061.184,0,.246-.061.246-.246a.874.874,0,0,0-.123-.369,4.934,4.934,0,0,1-.246-1.659c0-.738.061-1.352.123-2.09A.738.738,0,0,0,1469.372,739.673Zm4.732-.86a.085.085,0,0,0,.123,0,25.966,25.966,0,0,0,3.811-2.581,2.48,2.48,0,0,0,.8-.8s.062-.061.062,0l.062.061a.06.06,0,0,1-.062.061,2.076,2.076,0,0,0-.676.43c-.983.8-2.028,1.414-3.135,2.151A2.808,2.808,0,0,1,1474.1,738.812Zm-12.538.246a51.743,51.743,0,0,1-4.917-3.2A19.877,19.877,0,0,0,1461.567,739.058Zm12.046.062c.061-.062.246-.062.369-.184C1473.8,738.935,1473.736,739.12,1473.613,739.12Zm-.307.246v-.123h.061v.061C1473.367,739.427,1473.367,739.427,1473.306,739.366Zm-16.779-3.626v.061c-.062.061-.062.061-.123,0v-.123C1456.466,735.678,1456.466,735.678,1456.527,735.739Zm5.1,3.38Zm-6.453-6.453Z" transform="translate(-32.994 -56.596)" fill="#080808"/>
    <path id="Path_508" data-name="Path 508" d="M1491.826,732.8a1.636,1.636,0,0,1,.615.369,5.273,5.273,0,0,1,1.106,2.09,10.369,10.369,0,0,1,.676,4.118,9.729,9.729,0,0,1-.307,2.335,1.841,1.841,0,0,1-.983,1.229,2.791,2.791,0,0,0-.922.8l-.123.123a.274.274,0,0,0,0,.307c.123.123.246.123.307.061a14.717,14.717,0,0,1,1.291-.8c.184-.123.369-.246.615-.43,0-.062.062-.062.123-.062a.06.06,0,0,1,.061.062,15.709,15.709,0,0,1-.184,4.487,6.573,6.573,0,0,1-1.659,2.889,2.012,2.012,0,0,1-1.782.676,6.387,6.387,0,0,1-2.95-.922,15.98,15.98,0,0,1-4.179-3.073,6.415,6.415,0,0,1-1.291-1.6c-.062-.123-.123-.184-.123-.307,0-.246-.061-.43-.061-.737.307.184.615.307.86.43a8.434,8.434,0,0,0,2.7.737.554.554,0,0,0,.307-.061c.184-.123.123-.307-.062-.43-.369-.184-.8-.369-1.229-.553-.922-.307-1.844-.676-2.7-.983-.062,0-.123,0-.123-.123.061-.061.123,0,.184,0a12.831,12.831,0,0,0,2.213.246,3.436,3.436,0,0,0,1.413-.184.74.74,0,0,0,.307-.307c.062-.123.062-.184-.062-.307-.061-.062-.184-.123-.246-.062-.184.123-.43.062-.676.062-.8-.062-1.6-.184-2.335-.246h-.676c-.062,0-.184.061-.184-.061s.123-.123.184-.123c.369,0,.8-.061,1.106-.061a5.7,5.7,0,0,0,1.475-.246,1.838,1.838,0,0,0,1.045-.615.3.3,0,0,0,.061-.43c-.123-.123-.246-.061-.43,0a1.892,1.892,0,0,1-.8.184c-.8.123-1.475.123-2.274.307-.123,0-.184.061-.307.123s-.185,0-.123-.123v-.061c.062-.553.062-.553.553-.615a6.9,6.9,0,0,0,2.458-.86,28.027,28.027,0,0,0,3.442-2.028,14.271,14.271,0,0,0,1.844-1.352,9.877,9.877,0,0,0,2.028-2.213,1.333,1.333,0,0,0,.123-1.352c0-.061-.184-.123-.307-.307Z" transform="translate(-44.385 -56.976)" fill="#a0bbb8"/>
    <path id="Path_509" data-name="Path 509" d="M1453.175,743.424a9.93,9.93,0,0,0,2.028,1.229c.123.062.246.123.369,0s.062-.246,0-.369a3.748,3.748,0,0,0-.922-.8,2.224,2.224,0,0,1-1.229-1.782,10.717,10.717,0,0,1,.983-7.437,2.176,2.176,0,0,1,.983-.983c.062,0,.062-.061.123,0-.061.062-.184.123-.246.184a1.147,1.147,0,0,0-.246,1.168,2.38,2.38,0,0,0,.738,1.168,22.938,22.938,0,0,0,7.99,5.163,6.15,6.15,0,0,0,1.782.369c.123,0,.123.061.184.123.062.553.062.553-.43.43a15.988,15.988,0,0,0-2.274-.246,2.6,2.6,0,0,1-.737-.184.29.29,0,0,0-.369.061.393.393,0,0,0,0,.369,2.323,2.323,0,0,0,.738.553,5.944,5.944,0,0,0,2.09.307,3.251,3.251,0,0,1,.738.061c.062,0,.123,0,.123.123s-.062.123-.123.123c-.922,0-1.905.184-2.827.246a1.569,1.569,0,0,1-.738-.061c-.061-.061-.184,0-.246.061s-.123.184-.061.246c.061.184.184.246.369.307a2.591,2.591,0,0,0,1.168.184,17.015,17.015,0,0,0,1.844-.184c.123,0,.184-.061.307-.061.062,0,.123-.062.123.061,0,.061,0,.123-.061.123a.226.226,0,0,1-.185.061c-.983.369-2.028.8-3.011,1.229l-.369.184a.3.3,0,0,0-.184.369c.061.184.184.184.369.184a5.128,5.128,0,0,0,2.151-.615c.246-.123.553-.184.8-.307.123-.062.184,0,.123.123a1.408,1.408,0,0,0,.062.86c.061.123-.062.184-.062.246a10.965,10.965,0,0,1-1.352,1.6,23.831,23.831,0,0,1-1.905,1.6,12.947,12.947,0,0,1-3.5,1.905,10.429,10.429,0,0,1-1.352.246,2.066,2.066,0,0,1-1.721-.676,6.752,6.752,0,0,1-1.905-4.179,27.439,27.439,0,0,1-.062-3.2C1453.113,743.547,1453.113,743.547,1453.175,743.424Z" transform="translate(-33.391 -57.151)" fill="#a0bbb8"/>
    <path id="Path_510" data-name="Path 510" d="M1489.487,735.895c-1.229.983-2.458,1.782-3.749,2.643-.922.615-1.844,1.106-2.827,1.659a3.36,3.36,0,0,1-1.106.369c-.123.061-.184,0-.246-.123a.992.992,0,0,0-.184-.553c-.062-.123-.062-.184.061-.307,1.045-1.045,2.09-2.09,3.2-3.073a17.717,17.717,0,0,1,4.118-2.889,8.96,8.96,0,0,1,1.168-.43c.123,0,.184-.061.246.061a.245.245,0,0,0,.246.123c.246.061.43.123.676.184.246.123.246.246.123.43a3.24,3.24,0,0,1-.738.922A3.732,3.732,0,0,1,1489.487,735.895Z" transform="translate(-44.259 -57.12)" fill="#a0bbb8"/>
    <path id="Path_511" data-name="Path 511" d="M1457.592,735c-.123-.184-.246-.307-.307-.43a.38.38,0,0,1,.123-.43,1.239,1.239,0,0,1,.676-.184c.123,0,.246-.061.246-.123.062-.123.184-.123.307-.062a13.286,13.286,0,0,1,3.995,2.151c1.291.983,2.581,2.151,3.81,3.257a5.541,5.541,0,0,0,.615.553c.123.061.123.123.062.246a1.31,1.31,0,0,0-.184.737c0,.184-.062.184-.185.123a6.986,6.986,0,0,1-1.844-.8,48.262,48.262,0,0,1-5.654-3.5C1458.637,735.987,1458.084,735.5,1457.592,735Z" transform="translate(-34.981 -57.336)" fill="#a0bbb8"/>
    <path id="Path_512" data-name="Path 512" d="M1477.776,744.419a1,1,0,0,1,.184.922,11.926,11.926,0,0,0-.123,2.09,4.937,4.937,0,0,0,.246,1.659c.062.123.062.246.123.369.061.184,0,.246-.246.246-.123,0-.246-.061-.369-.061a1.366,1.366,0,0,0-.983.184.846.846,0,0,1-.676.061c-.061,0-.123,0-.123-.061a1.563,1.563,0,0,0-1.475-.061c-.123.061-.307.123-.369.061-.123-.123,0-.246,0-.43.246-.983.43-1.967.615-2.95a3.257,3.257,0,0,0-.184-1.721.187.187,0,0,1,0-.246c.062-.246.123-.307.307-.246a2.771,2.771,0,0,1,.676.184,1.726,1.726,0,0,0,1.352-.061c.123-.061.184-.123.307-.123C1477.285,744.051,1477.469,744.112,1477.776,744.419Z" transform="translate(-41.398 -61.343)" fill="#f3cfd5"/>
    <path id="Path_513" data-name="Path 513" d="M1487.9,741.08a10.034,10.034,0,0,0,1.045-.676c1.045-.676,2.09-1.352,3.134-2.151a1.832,1.832,0,0,1,.676-.43.061.061,0,0,0,0-.123h-.062a3.285,3.285,0,0,1-.8.8,27.623,27.623,0,0,1-3.811,2.581C1488.023,741.08,1487.961,741.142,1487.9,741.08Z" transform="translate(-46.79 -58.864)"/>
    <path id="Path_514" data-name="Path 514" d="M1464.417,741.6a23.265,23.265,0,0,1-4.917-3.2A51.767,51.767,0,0,0,1464.417,741.6Z" transform="translate(-35.844 -59.134)"/>
    <path id="Path_515" data-name="Path 515" d="M1487.1,743.584c.123,0,.184-.184.369-.184C1487.346,743.523,1487.161,743.523,1487.1,743.584Z" transform="translate(-46.481 -61.061)"/>
    <path id="Path_516" data-name="Path 516" d="M1486.6,744.044c.061,0,.061.062.123,0v-.061s-.062-.062-.062,0A.06.06,0,0,0,1486.6,744.044Z" transform="translate(-46.289 -61.275)"/>
    <path id="Path_517" data-name="Path 517" d="M1459.206,738.171c-.062-.061-.062-.061-.123,0a.085.085,0,0,0,0,.123c.061.061.061.061.123,0Z" transform="translate(-35.673 -59.028)"/>
    <path id="Path_518" data-name="Path 518" d="M1467.6,743.7Z" transform="translate(-38.966 -61.176)"/>
    <g id="Group_299" data-name="Group 299" transform="translate(1419.383 652.408)">
      <g id="Group_297" data-name="Group 297" transform="translate(0 0)">
        <path id="Path_519" data-name="Path 519" d="M1470.431,700.657a9.28,9.28,0,0,0,5.224,4.855,18.169,18.169,0,0,0,7.805,1.291h.553a12.834,12.834,0,0,1-5.347,6.023,17.068,17.068,0,0,1-8.113,2.09,17.763,17.763,0,0,1-7.621-1.352,6.464,6.464,0,0,1-1.905-1.106h0a.915.915,0,0,1-.553-.246c-2.151-1.414-3.38-3.319-4.917-5.1-.246-.307.061-.369.43-.43h1.352a20.654,20.654,0,0,0,8.051-1.905,11.964,11.964,0,0,0,5.04-4.118m.369-3.257-1.782,2.581a11.086,11.086,0,0,1-4.364,3.626,18.016,18.016,0,0,1-7.314,1.721h-1.352c-1.168.061-1.721.492-1.905.922a1.423,1.423,0,0,0,.184,1.659,13.476,13.476,0,0,1,.86,1.106,19.006,19.006,0,0,0,4.3,4.3h0a7.092,7.092,0,0,0,.676.43,6.5,6.5,0,0,0,1.659.922,1.041,1.041,0,0,0,.307.123,19.035,19.035,0,0,0,8.481,1.536,19.446,19.446,0,0,0,9.034-2.4,14.345,14.345,0,0,0,5.962-6.7l.983-1.967-2.581.123h-.492a16.8,16.8,0,0,1-7.006-1.168,7.916,7.916,0,0,1-4.425-4.118l-1.229-2.7Z" transform="translate(-1453.068 -695.741)" fill="#080808"/>
        <path id="Path_520" data-name="Path 520" d="M1469.3,716.149a19.2,19.2,0,0,1-8.051-1.6l-.307-.123a10.1,10.1,0,0,1-1.721-.983,2.571,2.571,0,0,1-.8-.492,18.87,18.87,0,0,1-4.425-4.425c-.307-.369-.553-.738-.86-1.045a2.164,2.164,0,0,1-.246-2.643,3.041,3.041,0,0,1,2.581-1.291h1.352a16.279,16.279,0,0,0,6.945-1.659,9.624,9.624,0,0,0,4.056-3.38l2.643-3.811,1.844,4.118a7.185,7.185,0,0,0,3.995,3.688,16.029,16.029,0,0,0,6.638,1.106h.492l3.995-.246-1.6,3.257a15.057,15.057,0,0,1-6.269,7.006,20.066,20.066,0,0,1-9.4,2.458A4.673,4.673,0,0,1,1469.3,716.149Zm-8.481-5.531.246.246a5.152,5.152,0,0,0,1.291.8l.369.184a16.187,16.187,0,0,0,7.191,1.291,16.377,16.377,0,0,0,7.744-2.028,10.81,10.81,0,0,0,4.364-4.487,18.684,18.684,0,0,1-7.314-1.352,10.53,10.53,0,0,1-5.04-4.056,13.106,13.106,0,0,1-4.487,3.38,19.957,19.957,0,0,1-8.42,1.967h-.369c.061.062.123.123.123.184a16.022,16.022,0,0,0,3.811,3.81c.062.062.123.062.123.123Zm-6.638-4.794v.246A.187.187,0,0,1,1454.178,705.824Z" transform="translate(-1452.548 -694.7)"/>
      </g>
      <g id="Group_298" data-name="Group 298" transform="translate(2.387 4.917)">
        <path id="Path_521" data-name="Path 521" d="M1462.005,714.562a.916.916,0,0,1-.553-.246c-2.151-1.414-3.38-3.319-4.917-5.1-.307-.369.123-.43.615-.43a20.181,20.181,0,0,0,9.219-1.905,11.911,11.911,0,0,0,4.978-4.179,9.279,9.279,0,0,0,5.224,4.855,19.465,19.465,0,0,0,8.359,1.291,12.833,12.833,0,0,1-5.347,6.023c-.123-.061-.184-.184-.307-.246a16.566,16.566,0,0,0-12.722-2.028A10.487,10.487,0,0,0,1462.005,714.562Z" transform="translate(-1456.432 -702.7)" fill="#c33d48"/>
        <path id="Path_522" data-name="Path 522" d="M1465.5,720.483a10.364,10.364,0,0,1,4.671-1.967,16.612,16.612,0,0,1,12.722,2.028c.123.062.184.184.307.246-4.179,2.52-11.37,2.827-15.734.8A6.079,6.079,0,0,1,1465.5,720.483Z" transform="translate(-1459.927 -708.621)" fill="#dc5c75"/>
      </g>
    </g>
    <path id="Path_523" data-name="Path 523" d="M1475.874,685.58a16.723,16.723,0,0,0,6.945-1.414c3.933-1.475,4.732-5.777,1.782-8.85-3.135-3.257-7.191-3.073-11.247-2.95-3.257.061-6.576-.369-9.772,1.291-2.4,1.229-3.38,2.889-3.2,5.47.123,2.4.307,4.487,3.011,5.47,1.536.553,3.011,1.475,4.671,1.659l6.023-.43A3.788,3.788,0,0,1,1475.874,685.58Z" transform="translate(-36.177 -33.664)" fill="#080808"/>
    <path id="Path_524" data-name="Path 524" d="M1451.317,660.258c3.012,0,5.04-.553,4.855-3.257-.123-2.151-.922-4.179-3.688-4.3-2.274-.062-3.688.8-3.688,3.257C1448.736,658.168,1449.289,660.135,1451.317,660.258Z" transform="translate(-31.717 -26.103)" fill="#f8bf41"/>
    <path id="Path_525" data-name="Path 525" d="M1506.2,658.425c.246-2.4-.983-3.565-3.565-3.626-2.52-.062-3.933,1.229-3.933,3.565a3.627,3.627,0,0,0,3.749,3.933C1505.03,662.481,1506.26,661.19,1506.2,658.425Z" transform="translate(-50.952 -26.913)" fill="#f8bf41"/>
    <path id="Path_526" data-name="Path 526" d="M1409.827,816.719c1.291-2.827.123-5.716-.492-8.3-1.6-6.269-.983-12.23.307-18.315,1.229-5.716,2.766-11.309,6.146-16.164.615-.922,1.291-2.581,2.766-1.6,1.229.86.553,2.274-.184,3.257-5.1,7.129-5.839,15.611-7.068,23.908-.492,3.319.615,6.7,1.352,9.956a9.724,9.724,0,0,1,.307,2.335c.184,5.347.184,5.347,5.408,5.347,6.883,0,13.828-.062,20.712.061,1.536,0,2.643-.246,2.95-1.967,1.168-6.392,3.38-12.538,3.073-19.237-.307-7.006-2.212-13.706-3.687-20.466a7.943,7.943,0,0,1-.492-1.6c.061-1.045-.922-2.52.615-2.95,1.66-.492,1.905.983,2.336,2.213a87.337,87.337,0,0,1,4.3,24.768,43.6,43.6,0,0,1-2.766,15.488c-.922,2.581-.553,3.872,2.766,3.811,7.129-.184,14.32-.062,21.449.061,2.4.062,3.2-.8,2.458-3.011-.922-2.766-.553-6.084-3.5-8.113-.86-.615-.492-2.213-.246-3.257,3.012-12.476,2.766-25.137,2.581-37.8a25.052,25.052,0,0,0-.922-5.962c-.369-1.414-.43-2.7.922-3.134,1.536-.43,1.782,1.352,1.967,2.274.922,6.453,2.09,12.845,1.045,19.483-.8,4.917-.062,9.895-.8,14.873-.43,2.889-.676,5.777-1.229,8.666-.246,1.475-.8,2.95,1.782,1.782,2.95-1.291,6.207-.553,9.342-1.229,1.229-.246,2.458.184,2.643,1.536.184,1.659-1.168,1.6-2.335,1.6a31.007,31.007,0,0,0-3.38,0c-6.453.737-6.515.737-4.917,7.006.43,1.721-1.168,4.179,1.106,5.1,1.6.615,3.565.123,5.408.184l18.376.369c6.576.123,13.091.246,19.667.307.922,0,1.844,0,2.7.062.922.061,1.966.307,1.905,1.475-.061.922-.922,1.168-1.782,1.168h-2.4c-28.271-.123-56.543,0-84.753-.369-21.7-.246-43.329-.246-65.024-.369h-1.721c-.922,0-1.967-.061-2.028-1.229-.062-1.352,1.045-1.475,2.151-1.536,7.928,0,15.857-.061,23.785-.061C1398.089,817.15,1403.989,817.457,1409.827,816.719Z" transform="translate(0 -65.914)" fill="#080809"/>
    <path id="Path_527" data-name="Path 527" d="M1572.9,768.738c6.761-1.352,13.644-1.536,20.4-2.274,9.4-1.045,15.426-6.7,20.159-14.32,1.352-2.151,2.643-5.1,5.9-3.995,3.134,1.106,3.319,3.933,2.827,7.006-2.028,12.6-9.711,20.712-20.589,26.366-7.006,3.626-14.566,4.609-22.248,4.732h.184a11.852,11.852,0,0,1-1.475-.061C1576.342,780.416,1574.621,774.577,1572.9,768.738Z" transform="translate(-79.549 -62.799)" fill="#f6f2f2" stroke="#515151" stroke-miterlimit="10" stroke-width="1"/>
    <path id="Path_528" data-name="Path 528" d="M1418.839,680.365c-1.905-3.995-2.09-8.051-1.659-12.6.738-7.5,2.274-14.812,3.688-22.125.369-1.844.307-4.609,3.749-3.995-1.414,7.5-3.012,14.935-4.241,22.433a38.631,38.631,0,0,0,.123,12.476c.246,1.414.43,2.643-.43,3.81A4.121,4.121,0,0,1,1418.839,680.365Z" transform="translate(-19.459 -21.81)" fill="#080809"/>
    <path id="Path_529" data-name="Path 529" d="M1533.876,691.21c-2.028-.676-1.168-2.4-.922-3.442a118.181,118.181,0,0,0,1.905-31.221c-.062-.676-.922-1.536.553-1.659,1.045-.061,1.967-.061,2.274,1.352a37.746,37.746,0,0,1,.553,11.432c-.738,6.207-.676,12.538-1.905,18.745a24.888,24.888,0,0,1-1.475,4.732A5.63,5.63,0,0,1,1533.876,691.21Z" transform="translate(-64.003 -26.94)" fill="#080809"/>
    <path id="Path_530" data-name="Path 530" d="M1570.857,781.71c1.721,5.839,3.442,11.677,5.224,17.516-.553,1.106-1.844.737-2.643,1.352-1.967-6.146-3.872-12.23-5.839-18.376C1568.645,782.14,1569.628,781.218,1570.857,781.71Z" transform="translate(-77.506 -75.77)" fill="#080809"/>
    <path id="Path_531" data-name="Path 531" d="M1583.584,810.3h-.184C1583.461,810.73,1583.523,810.669,1583.584,810.3Z" transform="translate(-83.596 -86.844)" fill="#080809"/>
    <path id="Path_532" data-name="Path 532" d="M1451.281,660.258c-2.028-.123-2.581-2.028-2.581-4.3,0-2.458,1.414-3.319,3.688-3.257,2.766.123,3.565,2.151,3.688,4.3C1456.321,659.643,1454.293,660.2,1451.281,660.258Z" transform="translate(-31.682 -26.103)" fill="#080809"/>
    <path id="Path_533" data-name="Path 533" d="M1506.237,658.463c.062,2.766-1.168,4.056-3.687,3.933a3.627,3.627,0,0,1-3.749-3.933c0-2.335,1.414-3.626,3.933-3.565S1506.421,656.128,1506.237,658.463Z" transform="translate(-50.991 -26.951)" fill="#080809"/>
  </g>
</svg>
