<svg xmlns="http://www.w3.org/2000/svg" width="116.682" height="119.072" viewBox="0 0 116.682 119.072">
  <g id="Group_316" data-name="Group 316" transform="translate(-334.936 -245.224)">
    <path id="Path_658" data-name="Path 658" d="M372.054,279.538c.2-7.863-2.272-4.686-7.5-2.975-3.36,1.1-8,2.312-11.123,1.1-5.938-2.309-11.732-11.677-15.314-16.623,5.818-5.635,15.72-1.7,22.285-.562-2.07-1.878-4.733-3.977-5.784-6.351,6.286-.867,10.9,5.869,16.961,5.913,4.574.033,9.67-4.216,15.046-2-1.88.927-4.083,1.865-5.119,4,9.192,9.045,19.808-.609,28.05-6,9.166-5.993,19.511-8.292,29.934-9.937a8.6,8.6,0,0,1-3.26,3.462c2.6-.458,5.826-2.155,7.872-.023-.588.862-.868,2.177-1.474,2.921.4-.248.963-.61,1.361-.871a24.488,24.488,0,0,0-2.876,4.863c.372.135.727-.074,1.014.022a83.713,83.713,0,0,1-11.962,14.548c-4.316,3.934-7.776,3.3-13.536,3.59-.141,2.787.5,6.356-.687,8.814-1.661,3.45-3.75,2.246-6.414,3.585-9.05,4.548,4.131,6.967-.41,11.626,6.565,8.8,12.32,20.5,15.934,30.9,1.169,3.364.8,13.642,3.977,15.413,4.53,2.524,11.48-5.066,13.423-8.261a10.834,10.834,0,0,1-.712,6.271c3.325-1.125,6.4-1.516,9.336-3.387,2.319,8.772-14.57,13.916-20.548,14.949a17.967,17.967,0,0,0-5.851,2.154c-1.074.614-1.607,1.924-2.6,2.48-1.654.932-1.848-.188-3.539.481-4.3,1.7-8.555,2.191-12.9,3.337.256-6.122-3.337-5.238-6.224-9.8-2.578-4.074-3.347-9.133-5.5-13.6-3.129,4.971,3.738,20.5-2.715,24.107-1.263.706-8.422-1.046-9.76-1.509-.919-.319-3.817-1.954-4.263-2.766-2.048-3.726.044-1.911,1.875-3.87,1.69-1.809,2.061-.284,3-3.5.505-1.731.094-4.661,0-6.473-.228-4.342-1.471-8.3-1.5-12.527-.057-8.255.589-16.52,1-24.5a50.524,50.524,0,0,0-.087-5.413c-3.211-1.7-.291-9.605.537-12.523a29.193,29.193,0,0,0-6.875,2.4c.088-.722-.245-1.691-.151-2.41a13.3,13.3,0,0,0-4.048,2.262c-.8-2.346-3.157-2.663-5.312-2.789.815-3.026,3.871-4.985,3.936-8.525" fill="#f2e0c5"/>
    <path id="Path_659" data-name="Path 659" d="M375.108,263.05c-5.327-5.327-14.916-8.524-22.374-7.991a92.864,92.864,0,0,0,7.458,6.392c-1.065,0-2.131,0-2.663-.532" fill="none" stroke="#1a1818" stroke-miterlimit="10" stroke-width="0.799"/>
    <path id="Path_660" data-name="Path 660" d="M357,260.919c-4.262-1.065-9.589-2.663-13.851-2.131a1.96,1.96,0,0,1,1.6.532c-2.131.534-4.794,1.6-7.458,1.6h0c10.654,3.729,15.448,25.57,29.3,14.916" fill="none" stroke="#1a1818" stroke-miterlimit="10" stroke-width="0.799"/>
    <path id="Path_661" data-name="Path 661" d="M403.342,258.256a18.142,18.142,0,0,0,5.327.532H407.6v-.532c10.655-7.991,20.776-9.59,33.029-12.253-2.131,1.6-4.795,3.2-7.459,4.794a24.139,24.139,0,0,1,8.523-1.6c.533,0-.532,1.066-.532,1.066h3.729c-2.131,2.13-4.794,4.261-6.925,6.925,1.065-.533,3.2,0,4.261-.533-3.728,4.262-7.99,10.654-11.719,14.384-5.327,4.794-8.524,3.729-15.982,3.2" fill="none" stroke="#1a1818" stroke-miterlimit="10" stroke-width="0.799"/>
    <path id="Path_662" data-name="Path 662" d="M365.519,276.9c1.066-1.065,4.262-1.6,5.86-2.13v1.065s1.6,1.065,1.6,1.6h0a37.193,37.193,0,0,0-6.925,12.784c1.6-1.066,3.729-1.6,5.327-2.663-.532,1.064,0,3.728-1.065,5.326,2.13-1.6,4.794-2.131,7.457-3.2-.532,1.065-.532,1.6-1.065,2.664,1.6-1.066,4.8-1.6,6.393-2.664h-.533c.533,3.729-2.663,7.458-2.131,11.719a8.534,8.534,0,0,0,7.991-.532" fill="none" stroke="#1a1818" stroke-miterlimit="10" stroke-width="0.799"/>
    <path id="Path_663" data-name="Path 663" d="M386.827,301.938c2.132.533,19.178-1.6,23.973-3.729-.532-3.2-3.2-6.393-5.861-7.991h0v-.533c2.132-1.066,9.057-1.6,10.655-4.794,1.6-2.664-1.6-6.926-1.6-9.056" fill="none" stroke="#1a1818" stroke-miterlimit="10" stroke-width="0.799"/>
    <path id="Path_664" data-name="Path 664" d="M392.687,290.75c1.066,0-1.065,0-3.2-1.6a10.518,10.518,0,0,1,7.458-3.2,15.1,15.1,0,0,1-2.131,6.925c-.532-.532-2.663-2.131-3.2-3.2,1.6-.533,2.664-1.6,4.262-1.6v-.533c-1.066,0-2.131,0-2.664.533,0-.533.533-2.132,1.066-2.132,1.6,1.065,0,.533-.533,1.065" fill="none" stroke="#1a1818" stroke-miterlimit="10" stroke-width="0.799"/>
    <path id="Path_665" data-name="Path 665" d="M382.033,278.5c0-1.064,1.066-1.064,0-2.131.533,1.067,1.066,3.2,1.6,4.262-.532-1.065-.532-2.664-1.065-3.729a36.693,36.693,0,0,0,1.6,4.262" fill="none" stroke="#1a1818" stroke-miterlimit="10" stroke-width="0.799"/>
    <path id="Path_666" data-name="Path 666" d="M399.612,275.835c0-1.065-.532,3.729-.532,4.794.532-2.131,1.065-3.729,1.6-5.859-.534,1.065-.534,2.664-1.067,3.728" fill="none" stroke="#1a1818" stroke-miterlimit="10" stroke-width="0.799"/>
    <path id="Path_667" data-name="Path 667" d="M383.631,277.965c.533-2.13.533,2.664.533,2.664" fill="none" stroke="#1a1818" stroke-miterlimit="10" stroke-width="0.799"/>
    <path id="Path_668" data-name="Path 668" d="M381.5,261.984c10.654,2.664,9.589,9.588,20.242.534a7.84,7.84,0,0,1-7.457-5.861c3.2-1.6,5.326,1.6,6.925,4.794-1.6-2.131-3.729-4.261-5.327-6.925,3.2-2.131,5.859-6.391,9.589-8.523,5.327,9.056,3.2,10.654-4.794,15.448h-.534c-.533-3.195-2.13-6.392-5.327-7.457-2.131,5.326-11.187,4.262-13.317,8.524" fill="none" stroke="#1a1818" stroke-miterlimit="10" stroke-width="0.799"/>
    <path id="Path_669" data-name="Path 669" d="M374.042,259.32a11.279,11.279,0,0,1,10.122-2.13h0q.8.8,1.6,1.6" fill="none" stroke="#1a1818" stroke-miterlimit="10" stroke-width="0.799"/>
    <path id="Path_670" data-name="Path 670" d="M394.285,294.48c.533,3.2-.532,5.86-3.728,5.86" fill="none" stroke="#1a1818" stroke-miterlimit="10" stroke-width="0.799"/>
    <path id="Path_671" data-name="Path 671" d="M394.818,296.078c0,2.131,0,4.262.533,4.262" fill="none" stroke="#1a1818" stroke-miterlimit="10" stroke-width="0.799"/>
    <path id="Path_672" data-name="Path 672" d="M388.426,301.938c.533,5.86,12.252,10.654,11.186,0" fill="none" stroke="#1a1818" stroke-miterlimit="10" stroke-width="0.799"/>
    <path id="Path_673" data-name="Path 673" d="M408.668,299.273c0,.534,0,.534.533.534" fill="none" stroke="#1a1818" stroke-miterlimit="10" stroke-width="0.799"/>
    <path id="Path_674" data-name="Path 674" d="M382.033,300.872c.532,14.916-2.664,28.767.532,43.15,1.066,4.794,2.664,9.056.534,13.318-3.2-1.067-4.262,0-6.926.531-.532,3.2,1.066,3.2,3.729,3.731" fill="none" stroke="#1a1818" stroke-miterlimit="10" stroke-width="0.799"/>
    <path id="Path_675" data-name="Path 675" d="M385.229,359.47c-1.6,0-3.2,1.065-3.2,4.261a7.433,7.433,0,0,0,4.794-1.6" fill="none" stroke="#1a1818" stroke-miterlimit="10" stroke-width="0.799"/>
    <path id="Path_676" data-name="Path 676" d="M388.426,360c-.533,1.063-1.067,1.6-1.067,2.662,6.393,2.664,6.926-5.326,6.393-9.588" fill="none" stroke="#1a1818" stroke-miterlimit="10" stroke-width="0.799"/>
    <path id="Path_677" data-name="Path 677" d="M393.752,320.582c-.532.533-2.663,6.393-3.2,9.057,1.066-1.066,2.664-1.6,3.729-2.664-1.065,2.13-1.065,4.795-2.131,6.925,1.066-.533,1.6-1.066,2.664-1.6-.533,1.064-.533,2.13-1.066,3.195h-.532c1.065,4.8,3.728,9.589,5.859,13.852" fill="none" stroke="#1a1818" stroke-miterlimit="10" stroke-width="0.799"/>
    <path id="Path_678" data-name="Path 678" d="M403.874,320.582c0,13.851,9.056,31.963,0,42.084,2.131,1.065,3.729.533,5.859-1.064" fill="none" stroke="#1a1818" stroke-miterlimit="10" stroke-width="0.799"/>
    <path id="Path_679" data-name="Path 679" d="M410.267,361.6c-.534.531-2.131.531.533,2.129A19.779,19.779,0,0,1,414,360c0,.531.532,2.129.532,2.662a6.362,6.362,0,0,0,4.262-4.795" fill="none" stroke="#1a1818" stroke-miterlimit="10" stroke-width="0.799"/>
    <path id="Path_680" data-name="Path 680" d="M414,325.377a3.2,3.2,0,0,0-.533-2.131c.533,8.524,2.663,18.112,4.794,26.1a5.38,5.38,0,0,1-.533-1.6c0,1.6,2.664,14.382,1.066,9.589" fill="none" stroke="#1a1818" stroke-miterlimit="10" stroke-width="0.799"/>
    <path id="Path_681" data-name="Path 681" d="M410.8,300.34c8.522,10.121,14.915,29.3,17.046,42.084l-1.066-1.065c1.6,3.729,2.131,4.261,2.131,3.729" fill="none" stroke="#1a1818" stroke-miterlimit="10" stroke-width="0.799"/>
    <path id="Path_682" data-name="Path 682" d="M430.509,344.022c1.6,6.392,10.122-3.729,13.318-6.393h0c1.066,2.664,0,5.328-2.131,7.459a52.82,52.82,0,0,0,9.057-5.86c3.2,7.457-14.916,18.112-20.776,14.383" fill="none" stroke="#1a1818" stroke-miterlimit="10" stroke-width="0.799"/>
    <path id="Path_683" data-name="Path 683" d="M419.322,332.835c-2.13,1.065-3.2,4.262-3.2,6.926" fill="none" stroke="#1a1818" stroke-miterlimit="10" stroke-width="0.799"/>
    <path id="Path_684" data-name="Path 684" d="M398.547,350.414c.532,0,3.2,3.2,5.327,4.8" fill="none" stroke="#1a1818" stroke-miterlimit="10" stroke-width="0.799"/>
    <path id="Path_685" data-name="Path 685" d="M393.22,340.293c0,2.664-1.066,13.851.532,11.187" fill="none" stroke="#1a1818" stroke-miterlimit="10" stroke-width="0.799"/>
    <path id="Path_686" data-name="Path 686" d="M393.752,350.947a11.629,11.629,0,0,0,2.664,1.6" fill="none" stroke="#1a1818" stroke-miterlimit="10" stroke-width="0.799"/>
    <path id="Path_687" data-name="Path 687" d="M398.015,354.144c1.064,1.6,2.663,2.663,3.728,1.6" fill="none" stroke="#1a1818" stroke-miterlimit="10" stroke-width="0.799"/>
    <path id="Path_688" data-name="Path 688" d="M353.8,264.116c3.728,1.6,8.522,2.663,12.252,4.794v.533a25.117,25.117,0,0,1-9.056-2.13c1.064.532,1.6.532,2.663,1.064" fill="none" stroke="#1a1818" stroke-miterlimit="10" stroke-width="0.799"/>
    <path id="Path_689" data-name="Path 689" d="M415.061,264.648c2.131-3.2,8.524-6.392,10.655-4.793" fill="none" stroke="#1a1818" stroke-miterlimit="10" stroke-width="0.799"/>
    <path id="Path_690" data-name="Path 690" d="M425.184,260.92c-2.132,1.064-4.262,2.131-5.86,4.262,1.6-.534,4.261-1.066,5.86-2.131-.534,1.065-1.066.532-2.132,1.065" fill="none" stroke="#1a1818" stroke-miterlimit="10" stroke-width="0.799"/>
    <line id="Line_18" data-name="Line 18" x2="0.799" y2="0.8" transform="translate(424.384 352.277)" fill="none" stroke="#1a1818" stroke-miterlimit="10" stroke-width="0.799"/>
    <path id="Path_691" data-name="Path 691" d="M424.384,352.277c2.4.8,1.6,3.2,4.794,2.4h-.8c-2.4,1.6-5.594,3.995-7.991,5.593,0-1.6,1.6-4,2.4-5.593" fill="none" stroke="#1a1818" stroke-miterlimit="10" stroke-width="0.799"/>
  </g>
</svg>
